<?xml version="1.0" encoding="UTF-8" standalone="no"?>
<!DOCTYPE svg PUBLIC "-//W3C//DTD SVG 1.1//EN" "http://www.w3.org/Graphics/SVG/1.1/DTD/svg11.dtd">
<svg width="100%" height="100%" viewBox="0 0 512 512" version="1.1" xmlns="http://www.w3.org/2000/svg" xmlns:xlink="http://www.w3.org/1999/xlink" xml:space="preserve" xmlns:serif="http://www.serif.com/" style="fill-rule:evenodd;clip-rule:evenodd;stroke-linejoin:round;stroke-miterlimit:2;">
    <g id="AimIcon" transform="matrix(6.0614,0,0,5.75217,-25717.6,-4500.7)">
        <g transform="matrix(0.957992,0,0,1.00949,3582.13,-2911.1)">
            <path d="M733.66,3670.21C752.25,3670.21 767.342,3685.3 767.342,3703.89C767.342,3722.48 752.25,3737.57 733.66,3737.57C715.07,3737.57 699.978,3722.48 699.978,3703.89C699.978,3685.3 715.07,3670.21 733.66,3670.21ZM733.66,3681.28C746.141,3681.28 756.274,3691.41 756.274,3703.89C756.274,3716.37 746.141,3726.5 733.66,3726.5C721.179,3726.5 711.046,3716.37 711.046,3703.89C711.046,3691.41 721.179,3681.28 733.66,3681.28Z" style="fill:rgb(88,203,205);"/>
            <clipPath id="_clip1">
                <path d="M733.66,3670.21C752.25,3670.21 767.342,3685.3 767.342,3703.89C767.342,3722.48 752.25,3737.57 733.66,3737.57C715.07,3737.57 699.978,3722.48 699.978,3703.89C699.978,3685.3 715.07,3670.21 733.66,3670.21ZM733.66,3681.28C746.141,3681.28 756.274,3691.41 756.274,3703.89C756.274,3716.37 746.141,3726.5 733.66,3726.5C721.179,3726.5 711.046,3716.37 711.046,3703.89C711.046,3691.41 721.179,3681.28 733.66,3681.28Z"/>
            </clipPath>
            <g clip-path="url(#_clip1)">
                <g transform="matrix(0.759764,0,0,0.819559,174.48,670.229)">
                    <rect x="736.139" y="3658.91" width="46.142" height="85.883" style="fill:rgb(55,165,184);"/>
                </g>
            </g>
        </g>
        <g transform="matrix(3.52221e-17,0.606142,-0.420465,2.71301e-17,5864.65,383.474)">
            <path d="M735.723,3665.05C735.723,3661.95 733.885,3659.44 731.621,3659.44C729.357,3659.44 727.519,3661.95 727.519,3665.05L727.519,3739.21C727.519,3742.31 729.357,3744.82 731.621,3744.82C733.885,3744.82 735.723,3742.31 735.723,3739.21L735.723,3665.05Z" style="fill:rgb(48,118,211);"/>
        </g>
        <g transform="matrix(3.52221e-17,0.606142,-0.403016,2.60042e-17,5753.41,383.474)">
            <path d="M735.723,3665.3C735.723,3662.06 733.885,3659.44 731.621,3659.44C729.357,3659.44 727.519,3662.06 727.519,3665.3L727.519,3738.97C727.519,3742.2 729.357,3744.82 731.621,3744.82C733.885,3744.82 735.723,3742.2 735.723,3738.97L735.723,3665.3Z" style="fill:rgb(56,153,213);"/>
        </g>
        <g transform="matrix(0.957992,0,0,1.00949,3580.02,-2909.88)">
            <path d="M733.526,3741.92C733.526,3743.28 734.629,3744.38 735.989,3744.38C737.348,3744.38 738.452,3743.28 738.452,3741.92L738.452,3709.37C738.452,3708.01 737.348,3706.91 735.989,3706.91C734.629,3706.91 733.526,3708.01 733.526,3709.37L733.526,3741.92ZM733.526,3692.46C733.526,3693.82 734.629,3694.92 735.989,3694.92C737.348,3694.92 738.452,3693.82 738.452,3692.46L738.452,3661.47C738.452,3660.11 737.348,3659 735.989,3659C734.629,3659 733.526,3660.11 733.526,3661.47L733.526,3692.46Z" style="fill:rgb(56,153,213);"/>
            <clipPath id="_clip2">
                <path d="M733.526,3741.92C733.526,3743.28 734.629,3744.38 735.989,3744.38C737.348,3744.38 738.452,3743.28 738.452,3741.92L738.452,3709.37C738.452,3708.01 737.348,3706.91 735.989,3706.91C734.629,3706.91 733.526,3708.01 733.526,3709.37L733.526,3741.92ZM733.526,3692.46C733.526,3693.82 734.629,3694.92 735.989,3694.92C737.348,3694.92 738.452,3693.82 738.452,3692.46L738.452,3661.47C738.452,3660.11 737.348,3659 735.989,3659C734.629,3659 733.526,3660.11 733.526,3661.47L733.526,3692.46Z"/>
            </clipPath>
            <g clip-path="url(#_clip2)">
                <g transform="matrix(0.163515,0,0,1.06158,615.611,-229.768)">
                    <rect x="736.139" y="3658.91" width="46.142" height="85.883" style="fill:rgb(48,118,211);"/>
                </g>
            </g>
        </g>
        <g transform="matrix(0.957992,0,0,1.00949,3582.13,-2911.1)">
            <path d="M733.66,3690.23C741.196,3690.23 747.315,3696.35 747.315,3703.89C747.315,3711.43 741.196,3717.54 733.66,3717.54C726.123,3717.54 720.005,3711.43 720.005,3703.89C720.005,3696.35 726.123,3690.23 733.66,3690.23ZM733.66,3700.79C735.369,3700.79 736.757,3702.18 736.757,3703.89C736.757,3705.6 735.369,3706.99 733.66,3706.99C731.951,3706.99 730.563,3705.6 730.563,3703.89C730.563,3702.18 731.951,3700.79 733.66,3700.79Z" style="fill:rgb(56,153,213);"/>
            <clipPath id="_clip3">
                <path d="M733.66,3690.23C741.196,3690.23 747.315,3696.35 747.315,3703.89C747.315,3711.43 741.196,3717.54 733.66,3717.54C726.123,3717.54 720.005,3711.43 720.005,3703.89C720.005,3696.35 726.123,3690.23 733.66,3690.23ZM733.66,3700.79C735.369,3700.79 736.757,3702.18 736.757,3703.89C736.757,3705.6 735.369,3706.99 733.66,3706.99C731.951,3706.99 730.563,3705.6 730.563,3703.89C730.563,3702.18 731.951,3700.79 733.66,3700.79Z"/>
            </clipPath>
            <g clip-path="url(#_clip3)">
                <g transform="matrix(0.409565,0,0,0.376654,432.276,2309.69)">
                    <rect x="736.139" y="3658.91" width="46.142" height="85.883" style="fill:rgb(48,118,211);"/>
                </g>
            </g>
        </g>
    </g>
</svg>
