<?xml version="1.0" encoding="UTF-8" standalone="no"?>
<!DOCTYPE svg PUBLIC "-//W3C//DTD SVG 1.1//EN" "http://www.w3.org/Graphics/SVG/1.1/DTD/svg11.dtd">
<svg width="100%" height="100%" viewBox="0 0 512 512" version="1.1" xmlns="http://www.w3.org/2000/svg" xmlns:xlink="http://www.w3.org/1999/xlink" xml:space="preserve" xmlns:serif="http://www.serif.com/" style="fill-rule:evenodd;clip-rule:evenodd;stroke-linejoin:round;stroke-miterlimit:2;">
    <g id="AlertBell" transform="matrix(7.99041,0,0,7.99041,-1289.56,-4923.03)">
        <g transform="matrix(0.644289,0,0,0.644289,66.0765,233.967)">
            <circle cx="198.77" cy="677.894" r="11.962" style="fill:rgb(254,223,82);"/>
            <clipPath id="_clip1">
                <circle cx="198.77" cy="677.894" r="11.962"/>
            </clipPath>
            <g clip-path="url(#_clip1)">
                <g transform="matrix(0.611778,0,0,0.293178,79.4059,492.196)">
                    <rect x="193.512" y="614.457" width="34.047" height="73.171" style="fill:rgb(255,163,35);"/>
                </g>
            </g>
        </g>
        <g id="AlarmIcon" transform="matrix(0.913075,0,0,0.913075,-1035.83,26.3171)">
            <path d="M1343.02,656.067L1349.53,656.067L1349.53,660.199C1364.97,662.177 1365.91,679.192 1365.91,679.192L1369.54,700.706L1323.02,700.706L1327.09,679.192C1327.09,679.192 1328.02,662.512 1343.02,660.261L1343.02,656.067Z" style="fill:rgb(254,223,82);"/>
            <clipPath id="_clip2">
                <path d="M1343.02,656.067L1349.53,656.067L1349.53,660.199C1364.97,662.177 1365.91,679.192 1365.91,679.192L1369.54,700.706L1323.02,700.706L1327.09,679.192C1327.09,679.192 1328.02,662.512 1343.02,660.261L1343.02,656.067Z"/>
            </clipPath>
            <g clip-path="url(#_clip2)">
                <g transform="matrix(0.841011,0,0,0.669805,1183.63,243.233)">
                    <rect x="193.512" y="614.457" width="34.047" height="73.171" style="fill:rgb(255,163,35);"/>
                </g>
            </g>
        </g>
        <g id="AlarmIcon1" serif:id="AlarmIcon" transform="matrix(0.525296,0,0,0.525296,-515.303,287.311)">
            <path d="M1327.09,679.192C1327.09,679.192 1327.86,665.461 1339.2,661.234" style="fill:none;"/>
            <clipPath id="_clip3">
                <path d="M1327.09,679.192C1327.09,679.192 1327.86,665.461 1339.2,661.234"/>
            </clipPath>
            <g clip-path="url(#_clip3)">
                <g transform="matrix(0.841011,0,0,0.669805,1183.63,243.233)">
                    <rect x="193.512" y="614.457" width="34.047" height="73.171" style="fill:rgb(255,150,2);"/>
                </g>
            </g>
        </g>
        <g transform="matrix(0.525296,0,0,0.525296,-515.303,287.311)">
            <path d="M1339.28,658.188C1342.21,658.337 1343.45,662.759 1339.73,664.303C1333.91,666.768 1330.65,673.505 1330.12,679.529C1330.12,679.529 1329.66,681.504 1328.13,682.056C1325.97,682.842 1323.78,680.847 1324.16,677.887C1325.22,669.656 1329.78,661.61 1337.98,658.437C1337.98,658.437 1338.33,658.186 1339.28,658.188Z" style="fill:rgb(255,250,176);"/>
        </g>
        <g transform="matrix(1,0,0,1.06462,0.0868608,-41.4156)">
            <path d="M201.953,623.033C201.953,620.959 200.161,619.275 197.953,619.275L188.726,619.275C186.518,619.275 184.726,620.959 184.726,623.033C184.726,625.106 186.518,626.79 188.726,626.79L197.953,626.79C200.161,626.79 201.953,625.106 201.953,623.033Z" style="fill:rgb(255,151,54);"/>
            <clipPath id="_clip4">
                <path d="M201.953,623.033C201.953,620.959 200.161,619.275 197.953,619.275L188.726,619.275C186.518,619.275 184.726,620.959 184.726,623.033C184.726,625.106 186.518,626.79 188.726,626.79L197.953,626.79C200.161,626.79 201.953,625.106 201.953,623.033Z"/>
            </clipPath>
            <g clip-path="url(#_clip4)">
                <g transform="matrix(0.301492,0,0,0.154826,135.083,523.238)">
                    <rect x="193.512" y="614.457" width="34.047" height="73.171" style="fill:rgb(231,114,60);"/>
                </g>
            </g>
        </g>
        <g transform="matrix(1,0,0,0.921014,0,52.7726)">
            <path d="M219.62,668.13C219.62,665.733 217.828,663.787 215.62,663.787L171.232,663.787C169.025,663.787 167.232,665.733 167.232,668.13C167.232,670.527 169.025,672.473 171.232,672.473L215.62,672.473C217.828,672.473 219.62,670.527 219.62,668.13Z" style="fill:rgb(255,151,54);"/>
            <clipPath id="_clip5">
                <path d="M219.62,668.13C219.62,665.733 217.828,663.787 215.62,663.787L171.232,663.787C169.025,663.787 167.232,665.733 167.232,668.13C167.232,670.527 169.025,672.473 171.232,672.473L215.62,672.473C217.828,672.473 219.62,670.527 219.62,668.13Z"/>
            </clipPath>
            <g clip-path="url(#_clip5)">
                <g transform="matrix(0.940416,0,0,0.178966,11.5302,550.976)">
                    <rect x="193.512" y="614.457" width="34.047" height="73.171" style="fill:rgb(231,114,60);"/>
                </g>
            </g>
        </g>
    </g>
</svg>
