<?xml version="1.0" encoding="UTF-8" standalone="no"?>
<!DOCTYPE svg PUBLIC "-//W3C//DTD SVG 1.1//EN" "http://www.w3.org/Graphics/SVG/1.1/DTD/svg11.dtd">
<svg width="100%" height="100%" viewBox="0 0 512 512" version="1.1" xmlns="http://www.w3.org/2000/svg" xmlns:xlink="http://www.w3.org/1999/xlink" xml:space="preserve" xmlns:serif="http://www.serif.com/" style="fill-rule:evenodd;clip-rule:evenodd;stroke-linejoin:round;stroke-miterlimit:2;">
    <g id="AmuletIcon" transform="matrix(6.77895,0,0,6.77895,-2940.19,-3837.01)">
        <g transform="matrix(1,0,0,1,-111.525,-4.76056)">
            <path d="M615.656,576.603C617.924,576.878 619.056,579.234 617.63,581.904C607.547,600.778 578.024,602.715 561.597,594.153C555.955,591.212 550.897,586.806 548.092,581.006C548.092,581.006 547.625,579.866 547.804,578.991C548.346,576.356 552.123,575.93 553.944,579.265C565.083,599.368 603.758,596.846 612.673,578.41C612.673,578.41 613.603,576.545 615.656,576.603Z" style="fill:rgb(188,115,72);"/>
            <clipPath id="_clip1">
                <path d="M615.656,576.603C617.924,576.878 619.056,579.234 617.63,581.904C607.547,600.778 578.024,602.715 561.597,594.153C555.955,591.212 550.897,586.806 548.092,581.006C548.092,581.006 547.625,579.866 547.804,578.991C548.346,576.356 552.123,575.93 553.944,579.265C565.083,599.368 603.758,596.846 612.673,578.41C612.673,578.41 613.603,576.545 615.656,576.603Z"/>
            </clipPath>
            <g clip-path="url(#_clip1)">
                <g transform="matrix(0.773,0,0,1,218.51,4.76056)">
                    <rect x="471.298" y="557.307" width="48.721" height="48.624" style="fill:rgb(167,99,57);"/>
                </g>
            </g>
        </g>
        <g transform="matrix(1.08796,0,0,1.08796,-39.0114,-53.992)">
            <path d="M467.781,597.228C468.634,596.736 469.685,596.736 470.538,597.228C473.635,599.017 481.115,603.335 484.212,605.123C485.065,605.616 485.591,606.526 485.591,607.511L485.591,623.3C485.591,624.285 485.065,625.196 484.212,625.688C481.115,627.476 473.635,631.795 470.538,633.583C469.685,634.075 468.634,634.075 467.781,633.583C464.684,631.795 457.204,627.476 454.107,625.688C453.254,625.196 452.728,624.285 452.728,623.3L452.728,607.511C452.728,606.526 453.254,605.616 454.107,605.123C457.204,603.335 464.684,599.017 467.781,597.228Z" style="fill:rgb(244,67,54);"/>
            <clipPath id="_clip2">
                <path d="M467.781,597.228C468.634,596.736 469.685,596.736 470.538,597.228C473.635,599.017 481.115,603.335 484.212,605.123C485.065,605.616 485.591,606.526 485.591,607.511L485.591,623.3C485.591,624.285 485.065,625.196 484.212,625.688C481.115,627.476 473.635,631.795 470.538,633.583C469.685,634.075 468.634,634.075 467.781,633.583C464.684,631.795 457.204,627.476 454.107,625.688C453.254,625.196 452.728,624.285 452.728,623.3L452.728,607.511C452.728,606.526 453.254,605.616 454.107,605.123C457.204,603.335 464.684,599.017 467.781,597.228Z"/>
            </clipPath>
            <g clip-path="url(#_clip2)">
                <g transform="matrix(0.415414,0,0,0.840406,273.268,128.517)">
                    <rect x="471.298" y="557.307" width="48.721" height="48.624" style="fill:rgb(215,54,51);"/>
                </g>
            </g>
        </g>
        <g transform="matrix(0.601277,0,0,0.601277,189.321,245.516)">
            <path d="M466.665,597.873C468.209,596.982 470.111,596.982 471.654,597.873C474.751,599.66 480,602.691 483.096,604.479C484.64,605.37 485.591,607.017 485.591,608.8L485.591,622.012C485.591,623.794 484.64,625.441 483.096,626.333C480,628.12 474.751,631.151 471.654,632.939C470.111,633.83 468.209,633.83 466.665,632.939C463.569,631.151 458.319,628.12 455.223,626.333C453.679,625.441 452.728,623.794 452.728,622.012L452.728,608.8C452.728,607.017 453.679,605.37 455.223,604.479C458.319,602.691 463.569,599.66 466.665,597.873Z" style="fill:rgb(255,193,7);"/>
            <clipPath id="_clip3">
                <path d="M466.665,597.873C468.209,596.982 470.111,596.982 471.654,597.873C474.751,599.66 480,602.691 483.096,604.479C484.64,605.37 485.591,607.017 485.591,608.8L485.591,622.012C485.591,623.794 484.64,625.441 483.096,626.333C480,628.12 474.751,631.151 471.654,632.939C470.111,633.83 468.209,633.83 466.665,632.939C463.569,631.151 458.319,628.12 455.223,626.333C453.679,625.441 452.728,623.794 452.728,622.012L452.728,608.8C452.728,607.017 453.679,605.37 455.223,604.479C458.319,602.691 463.569,599.66 466.665,597.873Z"/>
            </clipPath>
            <g clip-path="url(#_clip3)">
                <g transform="matrix(0.396552,0,0,0.896106,282.069,94.2065)">
                    <rect x="471.298" y="557.307" width="48.721" height="48.624" style="fill:rgb(255,160,0);"/>
                </g>
            </g>
        </g>
        <g transform="matrix(1.20811,0,0,1.08089,-97.8907,-46.9621)">
            <path d="M473.85,587.922C473.85,587.143 473.285,586.511 472.588,586.511L470.063,586.511C469.366,586.511 468.8,587.143 468.8,587.922L468.8,595.213C468.8,595.992 469.366,596.624 470.063,596.624L472.588,596.624C473.285,596.624 473.85,595.992 473.85,595.213L473.85,587.922Z" style="fill:rgb(255,193,7);"/>
            <clipPath id="_clip4">
                <path d="M473.85,587.922C473.85,587.143 473.285,586.511 472.588,586.511L470.063,586.511C469.366,586.511 468.8,587.143 468.8,587.922L468.8,595.213C468.8,595.992 469.366,596.624 470.063,596.624L472.588,596.624C473.285,596.624 473.85,595.992 473.85,595.213L473.85,587.922Z"/>
            </clipPath>
            <g clip-path="url(#_clip4)">
                <g transform="matrix(0.0842708,0,0,0.234097,431.425,455.484)">
                    <rect x="471.298" y="557.307" width="48.721" height="48.624" style="fill:rgb(255,160,0);"/>
                </g>
            </g>
        </g>
    </g>
</svg>
