<?xml version="1.0" encoding="UTF-8" standalone="no"?>
<!DOCTYPE svg PUBLIC "-//W3C//DTD SVG 1.1//EN" "http://www.w3.org/Graphics/SVG/1.1/DTD/svg11.dtd">
<svg width="100%" height="100%" viewBox="0 0 512 512" version="1.1" xmlns="http://www.w3.org/2000/svg" xmlns:xlink="http://www.w3.org/1999/xlink" xml:space="preserve" xmlns:serif="http://www.serif.com/" style="fill-rule:evenodd;clip-rule:evenodd;stroke-linejoin:round;stroke-miterlimit:2;">
    <g id="AppleIcon" transform="matrix(4.5297,0,0,5.51605,4071.44,-32155)">
        <g transform="matrix(1.191,0,0,0.978031,-1213.89,124.82)">
            <path d="M314.431,5842.93C314.431,5841.58 313.334,5840.48 311.984,5840.48C310.633,5840.48 309.537,5841.58 309.537,5842.93L309.537,5856.06C309.537,5857.41 310.633,5858.51 311.984,5858.51C313.334,5858.51 314.431,5857.41 314.431,5856.06L314.431,5842.93Z" style="fill:rgb(103,80,65);"/>
            <clipPath id="_clip1">
                <path d="M314.431,5842.93C314.431,5841.58 313.334,5840.48 311.984,5840.48C310.633,5840.48 309.537,5841.58 309.537,5842.93L309.537,5856.06C309.537,5857.41 310.633,5858.51 311.984,5858.51C313.334,5858.51 314.431,5857.41 314.431,5856.06L314.431,5842.93Z"/>
            </clipPath>
            <g clip-path="url(#_clip1)">
                <g transform="matrix(1.07057,0,0,1.07057,-525.796,4821.59)">
                    <rect x="782.487" y="947.457" width="5.824" height="23.506" style="fill:rgb(67,53,43);"/>
                </g>
            </g>
        </g>
        <g transform="matrix(0.662743,0.942641,-1.1479,0.544234,-253.829,4568.57)">
            <path d="M800.028,945.45C800.028,945.45 807.422,951.644 807.422,959.274C807.422,966.904 800.028,973.098 800.028,973.098C800.028,973.098 792.634,966.904 792.634,959.274C792.634,951.644 800.028,945.45 800.028,945.45Z" style="fill:rgb(112,186,39);"/>
            <clipPath id="_clip2">
                <path d="M800.028,945.45C800.028,945.45 807.422,951.644 807.422,959.274C807.422,966.904 800.028,973.098 800.028,973.098C800.028,973.098 792.634,966.904 792.634,959.274C792.634,951.644 800.028,945.45 800.028,945.45Z"/>
            </clipPath>
            <g clip-path="url(#_clip2)">
                <rect x="799.793" y="936.894" width="9.854" height="41.179" style="fill:rgb(65,142,36);"/>
            </g>
        </g>
        <g transform="matrix(1.191,0,0,0.978031,-1212.72,124.82)">
            <path d="M310.999,5856.1C333.469,5847.27 349.66,5860.98 349.66,5882.32C349.66,5903.65 337.876,5920.98 310.999,5920.98C284.123,5920.98 272.339,5903.65 272.339,5882.32C272.339,5860.98 289.687,5847.22 310.999,5856.1Z" style="fill:rgb(253,91,90);"/>
            <clipPath id="_clip3">
                <path d="M310.999,5856.1C333.469,5847.27 349.66,5860.98 349.66,5882.32C349.66,5903.65 337.876,5920.98 310.999,5920.98C284.123,5920.98 272.339,5903.65 272.339,5882.32C272.339,5860.98 289.687,5847.22 310.999,5856.1Z"/>
            </clipPath>
            <g clip-path="url(#_clip3)">
                <g transform="matrix(0.928731,0,0,0.836476,-779.333,4913.16)">
                    <rect x="1174.09" y="1122.03" width="44.917" height="86.097" style="fill:rgb(210,53,53);"/>
                </g>
            </g>
        </g>
        <g transform="matrix(1.09861,0,0,0.90216,-2134.84,4827.99)">
            <circle cx="1153.75" cy="1152.08" r="8.328" style="fill:white;"/>
        </g>
    </g>
</svg>
