<?xml version="1.0" encoding="UTF-8" standalone="no"?>
<!DOCTYPE svg PUBLIC "-//W3C//DTD SVG 1.1//EN" "http://www.w3.org/Graphics/SVG/1.1/DTD/svg11.dtd">
<svg width="100%" height="100%" viewBox="0 0 512 512" version="1.1" xmlns="http://www.w3.org/2000/svg" xmlns:xlink="http://www.w3.org/1999/xlink" xml:space="preserve" xmlns:serif="http://www.serif.com/" style="fill-rule:evenodd;clip-rule:evenodd;stroke-linejoin:round;stroke-miterlimit:2;">
    <g id="ArmorBodyIcon" transform="matrix(2.76547,0,0,3.36766,-1384.29,-20014.3)">
        <g transform="matrix(1.191,0,0,0.978031,-1038.59,114.967)">
            <path d="M1347.93,5995.57C1362.7,6001.91 1377.45,6002.54 1392.15,5995.57L1412.55,6013.35C1412.55,6013.35 1409.78,6024.65 1408.54,6029.68C1408.17,6031.2 1408.4,6032.8 1409.2,6034.15C1410.03,6035.56 1411.13,6037.41 1411.99,6038.87C1412.86,6040.35 1413.06,6042.14 1412.52,6043.78C1409.58,6052.69 1399.84,6082.24 1396.24,6093.17C1395.43,6095.62 1393.14,6097.27 1390.57,6097.27L1376,6097.27L1349.52,6097.27C1346.94,6097.27 1344.65,6095.62 1343.85,6093.17C1340.25,6082.24 1330.51,6052.69 1327.57,6043.78C1327.03,6042.14 1327.23,6040.35 1328.1,6038.87C1328.96,6037.41 1330.06,6035.56 1330.89,6034.15C1331.68,6032.8 1331.92,6031.2 1331.55,6029.68C1330.31,6024.65 1327.54,6013.35 1327.54,6013.35L1347.93,5995.57Z" style="fill:rgb(121,130,146);"/>
            <clipPath id="_clip1">
                <path d="M1347.93,5995.57C1362.7,6001.91 1377.45,6002.54 1392.15,5995.57L1412.55,6013.35C1412.55,6013.35 1409.78,6024.65 1408.54,6029.68C1408.17,6031.2 1408.4,6032.8 1409.2,6034.15C1410.03,6035.56 1411.13,6037.41 1411.99,6038.87C1412.86,6040.35 1413.06,6042.14 1412.52,6043.78C1409.58,6052.69 1399.84,6082.24 1396.24,6093.17C1395.43,6095.62 1393.14,6097.27 1390.57,6097.27L1376,6097.27L1349.52,6097.27C1346.94,6097.27 1344.65,6095.62 1343.85,6093.17C1340.25,6082.24 1330.51,6052.69 1327.57,6043.78C1327.03,6042.14 1327.23,6040.35 1328.1,6038.87C1328.96,6037.41 1330.06,6035.56 1330.89,6034.15C1331.68,6032.8 1331.92,6031.2 1331.55,6029.68C1330.31,6024.65 1327.54,6013.35 1327.54,6013.35L1347.93,5995.57Z"/>
            </clipPath>
            <g clip-path="url(#_clip1)">
                <g transform="matrix(1,0,0,1,-143.493,10.0739)">
                    <rect x="1513.53" y="5965.56" width="63.862" height="143.755" style="fill:rgb(92,100,116);"/>
                </g>
            </g>
        </g>
        <g transform="matrix(1.94334,0,0,1.59584,-2059.65,-3580.33)">
            <path d="M1365.06,6011.15L1381.58,5994.63C1382.71,5993.5 1384.09,5993.96 1384.65,5995.66L1387.24,6003.45C1387.8,6005.15 1387.34,6007.46 1386.21,6008.59L1374.35,6020.44L1386.21,6032.3C1387.34,6033.44 1387.8,6035.73 1387.24,6037.44L1384.65,6045.23C1384.09,6046.93 1382.71,6047.39 1381.58,6046.26L1365.06,6029.74L1348.54,6046.26C1347.41,6047.39 1346.03,6046.93 1345.46,6045.23L1342.88,6037.44C1342.31,6035.73 1342.78,6033.44 1343.91,6032.3L1355.76,6020.44L1343.91,6008.59C1342.78,6007.46 1342.31,6005.15 1342.88,6003.45L1345.46,5995.66C1346.03,5993.96 1347.41,5993.5 1348.54,5994.63L1365.06,6011.15Z" style="fill:rgb(183,190,197);"/>
            <clipPath id="_clip2">
                <path d="M1365.06,6011.15L1381.58,5994.63C1382.71,5993.5 1384.09,5993.96 1384.65,5995.66L1387.24,6003.45C1387.8,6005.15 1387.34,6007.46 1386.21,6008.59L1374.35,6020.44L1386.21,6032.3C1387.34,6033.44 1387.8,6035.73 1387.24,6037.44L1384.65,6045.23C1384.09,6046.93 1382.71,6047.39 1381.58,6046.26L1365.06,6029.74L1348.54,6046.26C1347.41,6047.39 1346.03,6046.93 1345.46,6045.23L1342.88,6037.44C1342.31,6035.73 1342.78,6033.44 1343.91,6032.3L1355.76,6020.44L1343.91,6008.59C1342.78,6007.46 1342.31,6005.15 1342.88,6003.45L1345.46,5995.66C1346.03,5993.96 1347.41,5993.5 1348.54,5994.63L1365.06,6011.15Z"/>
            </clipPath>
            <g clip-path="url(#_clip2)">
                <g transform="matrix(0.612861,0,0,0.423161,437.471,3464.65)">
                    <rect x="1513.53" y="5965.56" width="63.862" height="143.755" style="fill:rgb(92,100,116);fill-opacity:0.38;"/>
                </g>
            </g>
        </g>
        <g transform="matrix(1.65916,0,0,1.36248,-1918.83,-2192.63)">
            <circle cx="1513.99" cy="6033.12" r="5.931" style="fill:rgb(237,85,100);"/>
        </g>
        <g transform="matrix(0.930536,0,0,0.764142,-815.694,1417.2)">
            <circle cx="1513.99" cy="6033.12" r="5.931" style="fill:rgb(214,69,84);"/>
        </g>
        <g>
            <g>
                <g transform="matrix(-1.03144,-0.489015,-0.5955,0.847,5703.32,1630.3)">
                    <path d="M1466.61,5961.28C1466.61,5958.58 1464.41,5956.38 1461.71,5956.38C1459.01,5956.38 1456.82,5958.58 1456.82,5961.28L1456.82,5979.37C1456.82,5982.07 1459.01,5984.27 1461.71,5984.27C1464.41,5984.27 1466.61,5982.07 1466.61,5979.37L1466.61,5961.28Z" style="fill:rgb(103,103,103);"/>
                </g>
                <g transform="matrix(-0.308253,-0.944705,-1.15042,0.253133,7982.23,5862.13)">
                    <path d="M1466.61,5961.28C1466.61,5958.58 1464.41,5956.38 1461.71,5956.38C1459.01,5956.38 1456.82,5958.58 1456.82,5961.28L1456.82,5979.37C1456.82,5982.07 1459.01,5984.27 1461.71,5984.27C1464.41,5984.27 1466.61,5982.07 1466.61,5979.37L1466.61,5961.28Z" style="fill:rgb(103,103,103);"/>
                </g>
                <g transform="matrix(-1.31032,0,0,1.07602,2593.56,-433.464)">
                    <path d="M1510.24,5950.77C1510.24,5948.24 1508.18,5946.18 1505.65,5946.18L1499.79,5946.18C1481.32,5946.18 1466.32,5961.18 1466.32,5979.65L1466.32,5985.61C1466.32,5988.09 1468.33,5990.11 1470.81,5990.11L1499.79,5990.11C1505.56,5990.11 1510.24,5985.42 1510.24,5979.65L1510.24,5950.77Z" style="fill:rgb(237,85,100);"/>
                    <clipPath id="_clip3">
                        <path d="M1510.24,5950.77C1510.24,5948.24 1508.18,5946.18 1505.65,5946.18L1499.79,5946.18C1481.32,5946.18 1466.32,5961.18 1466.32,5979.65L1466.32,5985.61C1466.32,5988.09 1468.33,5990.11 1470.81,5990.11L1499.79,5990.11C1505.56,5990.11 1510.24,5985.42 1510.24,5979.65L1510.24,5950.77Z"/>
                    </clipPath>
                    <g clip-path="url(#_clip3)">
                        <g transform="matrix(-1.04871,-1.04871,-1.04871,1.04871,9245.49,1092.69)">
                            <rect x="1349.75" y="6022.7" width="39.406" height="39.406" style="fill:rgb(214,69,84);"/>
                        </g>
                    </g>
                </g>
            </g>
            <g transform="matrix(-1,0,0,1,1186.26,0)">
                <g transform="matrix(-1.03144,-0.489015,-0.5955,0.847,5703.32,1630.3)">
                    <path d="M1466.61,5961.28C1466.61,5958.58 1464.41,5956.38 1461.71,5956.38C1459.01,5956.38 1456.82,5958.58 1456.82,5961.28L1456.82,5979.37C1456.82,5982.07 1459.01,5984.27 1461.71,5984.27C1464.41,5984.27 1466.61,5982.07 1466.61,5979.37L1466.61,5961.28Z" style="fill:rgb(103,103,103);"/>
                </g>
                <g transform="matrix(-0.308253,-0.944705,-1.15042,0.253133,7982.23,5862.13)">
                    <path d="M1466.61,5961.28C1466.61,5958.58 1464.41,5956.38 1461.71,5956.38C1459.01,5956.38 1456.82,5958.58 1456.82,5961.28L1456.82,5979.37C1456.82,5982.07 1459.01,5984.27 1461.71,5984.27C1464.41,5984.27 1466.61,5982.07 1466.61,5979.37L1466.61,5961.28Z" style="fill:rgb(103,103,103);"/>
                </g>
                <g transform="matrix(-1.31032,0,0,1.07602,2593.56,-433.464)">
                    <path d="M1510.24,5950.77C1510.24,5948.24 1508.18,5946.18 1505.65,5946.18L1499.79,5946.18C1481.32,5946.18 1466.32,5961.18 1466.32,5979.65L1466.32,5985.61C1466.32,5988.09 1468.33,5990.11 1470.81,5990.11L1499.79,5990.11C1505.56,5990.11 1510.24,5985.42 1510.24,5979.65L1510.24,5950.77Z" style="fill:rgb(237,85,100);"/>
                    <clipPath id="_clip4">
                        <path d="M1510.24,5950.77C1510.24,5948.24 1508.18,5946.18 1505.65,5946.18L1499.79,5946.18C1481.32,5946.18 1466.32,5961.18 1466.32,5979.65L1466.32,5985.61C1466.32,5988.09 1468.33,5990.11 1470.81,5990.11L1499.79,5990.11C1505.56,5990.11 1510.24,5985.42 1510.24,5979.65L1510.24,5950.77Z"/>
                    </clipPath>
                    <g clip-path="url(#_clip4)">
                        <g transform="matrix(-1.04871,-1.04871,-1.04871,1.04871,9245.49,1092.69)">
                            <rect x="1349.75" y="6022.7" width="39.406" height="39.406" style="fill:rgb(214,69,84);"/>
                        </g>
                        <g transform="matrix(1.4831,0,0,1.4831,-497.856,-2924.55)">
                            <circle cx="1340.81" cy="5989.09" r="3.094" style="fill:white;"/>
                        </g>
                    </g>
                </g>
            </g>
        </g>
    </g>
</svg>
