<?xml version="1.0" encoding="UTF-8" standalone="no"?>
<!DOCTYPE svg PUBLIC "-//W3C//DTD SVG 1.1//EN" "http://www.w3.org/Graphics/SVG/1.1/DTD/svg11.dtd">
<svg width="100%" height="100%" viewBox="0 0 256 256" version="1.1" xmlns="http://www.w3.org/2000/svg" xmlns:xlink="http://www.w3.org/1999/xlink" xml:space="preserve" xmlns:serif="http://www.serif.com/" style="fill-rule:evenodd;clip-rule:evenodd;stroke-linejoin:round;stroke-miterlimit:2;">
    <g id="Avatar" transform="matrix(1.01256,0,0,1.01256,10.3933,-8.61681)">
        <g transform="matrix(2.01603,0,0,1.67709,-7.98593,-63.2513)">
            <path d="M94.664,149.771C94.664,128.524 80.314,111.274 62.639,111.274L60.507,111.274C42.832,111.274 28.482,128.524 28.482,149.771L28.482,176.72C28.482,183.094 32.787,188.269 38.09,188.269L85.057,188.269C90.359,188.269 94.664,183.094 94.664,176.72L94.664,149.771Z" style="fill:rgb(74,188,171);"/>
            <clipPath id="_clip1">
                <path d="M94.664,149.771C94.664,128.524 80.314,111.274 62.639,111.274L60.507,111.274C42.832,111.274 28.482,128.524 28.482,149.771L28.482,176.72C28.482,183.094 32.787,188.269 38.09,188.269L85.057,188.269C90.359,188.269 94.664,183.094 94.664,176.72L94.664,149.771Z"/>
            </clipPath>
            <g clip-path="url(#_clip1)">
                <g transform="matrix(1.26905,0,0,0.855881,-29.7746,40.6839)">
                    <rect x="71.605" y="68.144" width="47.788" height="113.524" style="fill:rgb(54,147,130);"/>
                </g>
            </g>
        </g>
        <g transform="matrix(3.72107,0,0,2.62735,-297.623,-172.4)">
            <ellipse cx="111.197" cy="98.495" rx="18.158" ry="26.273" style="fill:rgb(249,183,136);"/>
            <clipPath id="_clip2">
                <ellipse cx="111.197" cy="98.495" rx="18.158" ry="26.273"/>
            </clipPath>
            <g clip-path="url(#_clip2)">
                <g transform="matrix(0.687557,0,0,0.508563,61.7054,35.2337)">
                    <rect x="71.605" y="68.144" width="47.788" height="113.524" style="fill:rgb(216,149,100);"/>
                </g>
            </g>
        </g>
    </g>
</svg>
