<?xml version="1.0" encoding="UTF-8" standalone="no"?>
<!DOCTYPE svg PUBLIC "-//W3C//DTD SVG 1.1//EN" "http://www.w3.org/Graphics/SVG/1.1/DTD/svg11.dtd">
<svg width="100%" height="100%" viewBox="0 0 512 512" version="1.1" xmlns="http://www.w3.org/2000/svg" xmlns:xlink="http://www.w3.org/1999/xlink" xml:space="preserve" xmlns:serif="http://www.serif.com/" style="fill-rule:evenodd;clip-rule:evenodd;stroke-linejoin:round;stroke-miterlimit:2;">
    <g id="AvatarBoyIcon" transform="matrix(9.25838,0,0,9.25838,-1494.01,-3904.63)">
        <g transform="matrix(0.99928,0,0,1,0.136125,0)">
            <g transform="matrix(0.128021,-0.0283653,0.0304394,0.136814,7.84087,308.968)">
                <path d="M1034.64,1178.84C1045.3,1184.19 1047.84,1190.31 1047.71,1203.72C1047.58,1217.53 1044.66,1222.57 1035.05,1224.81C1027,1226.69 1008.19,1219.15 1007.04,1201.46C1005.77,1181.84 1023.8,1173.39 1034.64,1178.84Z" style="fill:rgb(244,179,130);"/>
            </g>
            <g transform="matrix(-0.128021,-0.0283653,-0.0304394,0.136814,370.196,308.968)">
                <path d="M1034.64,1178.84C1045.3,1184.19 1047.84,1190.31 1047.71,1203.72C1047.58,1217.53 1044.66,1222.57 1035.05,1224.81C1027,1226.69 1008.19,1219.15 1007.04,1201.46C1005.77,1181.84 1023.8,1173.39 1034.64,1178.84Z" style="fill:rgb(244,179,130);"/>
            </g>
        </g>
        <g transform="matrix(0.853432,0,0,0.735124,7.20686,151.416)">
            <path d="M230.432,389.711C230.432,378.564 222.637,369.515 213.036,369.515C203.435,369.515 195.64,378.564 195.64,389.711L195.64,391.716C195.64,402.863 203.435,411.912 213.036,411.912C222.637,411.912 230.432,402.863 230.432,391.716L230.432,389.711Z" style="fill:rgb(75,50,42);"/>
            <clipPath id="_clip1">
                <path d="M230.432,389.711C230.432,378.564 222.637,369.515 213.036,369.515C203.435,369.515 195.64,378.564 195.64,389.711L195.64,391.716C195.64,402.863 203.435,411.912 213.036,411.912C222.637,411.912 230.432,402.863 230.432,391.716L230.432,389.711Z"/>
            </clipPath>
            <g clip-path="url(#_clip1)">
                <g transform="matrix(0.892225,0,0,0.969329,-1331.08,-461.836)">
                    <rect x="1730.52" y="853.365" width="20.383" height="45.512" style="fill:rgb(58,38,33);"/>
                </g>
            </g>
        </g>
        <g transform="matrix(0.757484,0,0,0.705106,46.3211,138.764)">
            <path d="M208.48,455.428C208.48,449.322 203.865,444.365 198.182,444.365L178.528,444.365C172.876,444.365 168.287,449.294 168.287,455.366L168.287,473.901C168.287,476.101 169.951,477.888 171.999,477.888L204.735,477.888C206.802,477.888 208.48,476.086 208.48,473.865L208.48,455.428Z" style="fill:rgb(74,188,171);"/>
            <clipPath id="_clip2">
                <path d="M208.48,455.428C208.48,449.322 203.865,444.365 198.182,444.365L178.528,444.365C172.876,444.365 168.287,449.294 168.287,455.366L168.287,473.901C168.287,476.101 169.951,477.888 171.999,477.888L204.735,477.888C206.802,477.888 208.48,476.086 208.48,473.865L208.48,455.428Z"/>
            </clipPath>
            <g clip-path="url(#_clip2)">
                <g transform="matrix(1.3054,0,-1.44929e-16,1.32791,-58.5909,-123.348)">
                    <rect x="189.103" y="421.487" width="18.239" height="36.342" style="fill:rgb(54,147,130);"/>
                </g>
            </g>
        </g>
        <g id="SinglePlayerIcon" transform="matrix(0.557671,0,0,0.557671,-557.79,22.7803)">
            <path d="M1339.15,777.161C1326.78,777.161 1315.58,764.228 1315.58,747.55C1315.58,732.022 1321.32,720.718 1339.15,720.69C1356.99,720.662 1362.73,732.022 1362.73,747.55C1362.73,764.228 1351.53,777.161 1339.15,777.161Z" style="fill:rgb(244,179,130);"/>
            <clipPath id="_clip3">
                <path d="M1339.15,777.161C1326.78,777.161 1315.58,764.228 1315.58,747.55C1315.58,732.022 1321.32,720.718 1339.15,720.69C1356.99,720.662 1362.73,732.022 1362.73,747.55C1362.73,764.228 1351.53,777.161 1339.15,777.161Z"/>
            </clipPath>
            <g clip-path="url(#_clip3)">
                <g transform="matrix(1.79317,0,-1.99082e-16,1.72916,999.9,-11.5431)">
                    <rect x="189.103" y="421.487" width="18.239" height="36.342" style="fill:rgb(216,149,100);"/>
                </g>
            </g>
        </g>
        <g transform="matrix(0.712272,0,0,0.712272,-1043.18,-187.83)">
            <path d="M1718.75,874.512C1716.01,878.082 1713.24,880.486 1710.41,881.225C1710.41,881.225 1706.84,859.48 1729.56,858.652C1755.14,857.72 1750.42,887.125 1750.42,887.125C1745.36,887.964 1740.67,887.891 1736.37,886.869C1737.18,889.038 1738.05,890.92 1739.03,892.071C1730.89,890.149 1722,883.821 1718.75,874.512Z" style="fill:rgb(75,50,42);"/>
            <clipPath id="_clip4">
                <path d="M1718.75,874.512C1716.01,878.082 1713.24,880.486 1710.41,881.225C1710.41,881.225 1706.84,859.48 1729.56,858.652C1755.14,857.72 1750.42,887.125 1750.42,887.125C1745.36,887.964 1740.67,887.891 1736.37,886.869C1737.18,889.038 1738.05,890.92 1739.03,892.071C1730.89,890.149 1722,883.821 1718.75,874.512Z"/>
            </clipPath>
            <g clip-path="url(#_clip4)">
                <g transform="matrix(1.06905,0,0,0.892778,-120.182,96.3795)">
                    <rect x="1730.52" y="853.365" width="20.383" height="45.512" style="fill:rgb(58,38,33);"/>
                </g>
            </g>
        </g>
    </g>
</svg>
