<?xml version="1.0" encoding="UTF-8" standalone="no"?>
<!DOCTYPE svg PUBLIC "-//W3C//DTD SVG 1.1//EN" "http://www.w3.org/Graphics/SVG/1.1/DTD/svg11.dtd">
<svg width="100%" height="100%" viewBox="0 0 512 512" version="1.1" xmlns="http://www.w3.org/2000/svg" xmlns:xlink="http://www.w3.org/1999/xlink" xml:space="preserve" xmlns:serif="http://www.serif.com/" style="fill-rule:evenodd;clip-rule:evenodd;stroke-linejoin:round;stroke-miterlimit:2;">
    <g id="AxeIcon" transform="matrix(7.14298,0,0,7.14298,-6372.79,-4272.85)">
        <g transform="matrix(1,0,0,1.08777,-1.13687e-13,-65.073)">
            <path d="M937.932,645.564L937.932,669.902C937.932,670.592 937.372,671.152 936.682,671.152L934.182,671.152C933.492,671.152 932.932,670.592 932.932,669.902L932.932,645.564L935.432,646.353L937.932,645.564Z" style="fill:rgb(139,90,75);"/>
            <clipPath id="_clip1">
                <path d="M937.932,645.564L937.932,669.902C937.932,670.592 937.372,671.152 936.682,671.152L934.182,671.152C933.492,671.152 932.932,670.592 932.932,669.902L932.932,645.564L935.432,646.353L937.932,645.564Z"/>
            </clipPath>
            <g clip-path="url(#_clip1)">
                <g transform="matrix(0.209113,0,0,0.802359,593.433,-140.424)">
                    <rect x="1635.54" y="974.444" width="18.12" height="38.339" style="fill:rgb(114,73,61);"/>
                </g>
            </g>
        </g>
        <g transform="matrix(0.697801,-1.44367e-32,1.9249e-32,2.1462,-59.1533,322.318)">
            <path d="M1449.09,140.065L1463.1,143.428L1449.09,146.79L1435.07,143.428L1449.09,140.065Z" style="fill:rgb(214,218,226);"/>
            <clipPath id="_clip2">
                <path d="M1449.09,140.065L1463.1,143.428L1449.09,146.79L1435.07,143.428L1449.09,140.065Z"/>
            </clipPath>
            <g clip-path="url(#_clip2)">
                <g transform="matrix(3.87308e-17,0.205654,-0.853752,1.69971e-17,2297.8,-192.922)">
                    <rect x="1635.54" y="974.444" width="18.12" height="38.339" style="fill:rgb(141,153,174);"/>
                </g>
                <g transform="matrix(3.87308e-17,0.205654,-0.418341,8.32863e-18,1856.82,-192.922)">
                    <rect x="1635.54" y="974.444" width="18.12" height="38.339" style="fill:rgb(105,121,149);"/>
                </g>
                <g transform="matrix(3.87308e-17,0.205654,-0.418341,8.32863e-18,1856.82,-196.649)">
                    <rect x="1635.54" y="974.444" width="18.12" height="38.339" style="fill:rgb(174,183,198);"/>
                </g>
            </g>
        </g>
        <g transform="matrix(4.46864e-17,0.812427,-0.465676,2.60673e-17,1234.02,-99.9299)">
            <rect x="895.56" y="619.328" width="6.154" height="50.296" style="fill:rgb(141,153,174);"/>
            <clipPath id="_clip3">
                <rect x="895.56" y="619.328" width="6.154" height="50.296"/>
            </clipPath>
            <g clip-path="url(#_clip3)">
                <g transform="matrix(0.543278,-5.90367e-18,3.48254e-18,1.15618,0.24739,-510.042)">
                    <rect x="1635.54" y="974.444" width="18.12" height="38.339" style="fill:rgb(214,218,226);"/>
                </g>
            </g>
        </g>
        <g transform="matrix(5.47211e-17,-0.893664,2.7486,1.68304e-16,541.206,1910.59)">
            <path d="M1449.09,140.065L1463.1,143.428L1449.09,146.79L1435.07,143.428L1449.09,140.065Z" style="fill:rgb(214,218,226);"/>
            <clipPath id="_clip4">
                <path d="M1449.09,140.065L1463.1,143.428L1449.09,146.79L1435.07,143.428L1449.09,140.065Z"/>
            </clipPath>
            <g clip-path="url(#_clip4)">
                <g transform="matrix(3.87308e-17,0.205654,-0.853752,1.69971e-17,2297.8,-192.922)">
                    <rect x="1635.54" y="974.444" width="18.12" height="38.339" style="fill:rgb(141,153,174);"/>
                </g>
                <g transform="matrix(3.87308e-17,0.205654,-0.418341,8.32863e-18,1856.82,-192.922)">
                    <rect x="1635.54" y="974.444" width="18.12" height="38.339" style="fill:rgb(105,121,149);"/>
                </g>
                <g transform="matrix(3.87308e-17,0.205654,-0.418341,8.32863e-18,1856.82,-196.649)">
                    <rect x="1635.54" y="974.444" width="18.12" height="38.339" style="fill:rgb(174,183,198);"/>
                </g>
            </g>
        </g>
        <g transform="matrix(1.36951,0,0,1.79039,-365.565,-498.973)">
            <path d="M947.472,626.93L952.472,626.93L952.472,637.212L949.972,636.044L947.472,637.212L947.472,626.93Z" style="fill:rgb(214,218,226);"/>
            <clipPath id="_clip5">
                <path d="M947.472,626.93L952.472,626.93L952.472,637.212L949.972,636.044L947.472,637.212L947.472,626.93Z"/>
            </clipPath>
            <g clip-path="url(#_clip5)">
                <g transform="matrix(0.412747,0,0,0.802341,274.919,-167.684)">
                    <rect x="1635.54" y="974.444" width="18.12" height="38.339" style="fill:rgb(141,153,174);"/>
                </g>
            </g>
        </g>
        <g transform="matrix(1,0,0,1,-5.75667,-4.87163)">
            <path d="M900.129,632.694C900.939,623.484 904.92,614.338 912.054,608.178L935.269,635.019L912.054,661.861C904.292,656.679 900.279,647.276 899.991,637.366L915.388,635.019L900.129,632.694Z" style="fill:rgb(214,218,226);"/>
            <clipPath id="_clip6">
                <path d="M900.129,632.694C900.939,623.484 904.92,614.338 912.054,608.178L935.269,635.019L912.054,661.861C904.292,656.679 900.279,647.276 899.991,637.366L915.388,635.019L900.129,632.694Z"/>
            </clipPath>
            <g clip-path="url(#_clip6)">
                <g transform="matrix(2.62546,0,0,0.813035,-3402.34,-157.247)">
                    <rect x="1635.54" y="974.444" width="18.12" height="38.339" style="fill:rgb(141,153,174);"/>
                </g>
            </g>
        </g>
    </g>
</svg>
