<?xml version="1.0" encoding="UTF-8" standalone="no"?>
<!DOCTYPE svg PUBLIC "-//W3C//DTD SVG 1.1//EN" "http://www.w3.org/Graphics/SVG/1.1/DTD/svg11.dtd">
<svg width="100%" height="100%" viewBox="0 0 512 512" version="1.1" xmlns="http://www.w3.org/2000/svg" xmlns:xlink="http://www.w3.org/1999/xlink" xml:space="preserve" xmlns:serif="http://www.serif.com/" style="fill-rule:evenodd;clip-rule:evenodd;stroke-linejoin:round;stroke-miterlimit:2;">
    <g id="DoubleAxeIcon" transform="matrix(6.68179,1.0568e-15,-5.28398e-16,8.13677,-4067.27,-48777.2)">
        <g transform="matrix(1.40921,-1.92294e-16,8.44688e-16,9.08884,-2185.23,471.209)">
            <path d="M2006.07,608.802C2006.07,608.432 2003.71,608.132 2000.81,608.132C1997.9,608.132 1995.54,608.432 1995.54,608.802L1995.54,613.871C1995.54,614.241 1997.9,614.542 2000.81,614.542C2003.71,614.542 2006.07,614.241 2006.07,613.871L2006.07,608.802Z" style="fill:rgb(171,111,112);"/>
            <clipPath id="_clip1">
                <path d="M2006.07,608.802C2006.07,608.432 2003.71,608.132 2000.81,608.132C1997.9,608.132 1995.54,608.432 1995.54,608.802L1995.54,613.871C1995.54,614.241 1997.9,614.542 2000.81,614.542C2003.71,614.542 2006.07,614.241 2006.07,613.871L2006.07,608.802Z"/>
            </clipPath>
            <g clip-path="url(#_clip1)">
                <g transform="matrix(0.849956,-2.59478e-16,1.37612e-15,-0.93159,763.123,1105.83)">
                    <rect x="1456.06" y="524.978" width="18.008" height="12.903" style="fill:rgb(132,82,82);"/>
                </g>
            </g>
        </g>
        <g transform="matrix(-0.892924,4.04335e-17,-3.94013e-17,0.733256,1948.67,5612.52)">
            <path d="M1464.72,563.303C1457.08,565.184 1449.91,569.195 1444.26,574.456C1442.78,575.823 1440.72,576.375 1438.76,575.934C1436.79,575.492 1435.17,574.113 1434.42,572.244C1430.4,562.363 1429.81,547.985 1434.54,537.704C1435.36,535.931 1436.97,534.655 1438.89,534.268C1440.8,533.881 1442.79,534.43 1444.23,535.746C1449.93,540.986 1457.34,544.72 1464.72,546.821L1464.72,563.303Z" style="fill:rgb(171,177,187);"/>
            <clipPath id="_clip2">
                <path d="M1464.72,563.303C1457.08,565.184 1449.91,569.195 1444.26,574.456C1442.78,575.823 1440.72,576.375 1438.76,575.934C1436.79,575.492 1435.17,574.113 1434.42,572.244C1430.4,562.363 1429.81,547.985 1434.54,537.704C1435.36,535.931 1436.97,534.655 1438.89,534.268C1440.8,533.881 1442.79,534.43 1444.23,535.746C1449.93,540.986 1457.34,544.72 1464.72,546.821L1464.72,563.303Z"/>
            </clipPath>
            <g clip-path="url(#_clip2)">
                <g transform="matrix(0.708163,0,-1.2326e-32,1,424.416,29.9323)">
                    <rect x="1413.59" y="526.117" width="61.052" height="28.555" style="fill:rgb(142,146,154);"/>
                </g>
            </g>
        </g>
        <g transform="matrix(0.433768,0,8.7811e-33,0.356204,57.1711,3823.49)">
            <path d="M1310.51,6136.92C1310.51,6136.15 1310.35,6135.4 1310.05,6134.69C1309.15,6132.56 1307.1,6127.68 1305.65,6124.27C1304.72,6122.06 1305.26,6119.51 1307.01,6117.87C1311.77,6113.39 1321.27,6104.46 1326.64,6099.41C1328.84,6097.34 1332.27,6097.34 1334.47,6099.41C1339.84,6104.46 1349.34,6113.39 1354.1,6117.87C1355.85,6119.51 1356.39,6122.06 1355.46,6124.27C1354.01,6127.68 1351.95,6132.56 1351.06,6134.69C1350.76,6135.4 1350.61,6136.15 1350.61,6136.92C1350.61,6143.5 1350.61,6176.25 1350.61,6186.63C1350.61,6188.6 1349.59,6190.43 1347.92,6191.48C1344.21,6193.81 1337.53,6198 1333.64,6200.44C1331.79,6201.6 1329.43,6201.6 1327.58,6200.44C1323.67,6198.01 1316.93,6193.81 1313.2,6191.48C1311.52,6190.43 1310.51,6188.6 1310.51,6186.62C1310.51,6176.23 1310.51,6143.49 1310.51,6136.92Z" style="fill:rgb(182,185,191);"/>
            <clipPath id="_clip3">
                <path d="M1310.51,6136.92C1310.51,6136.15 1310.35,6135.4 1310.05,6134.69C1309.15,6132.56 1307.1,6127.68 1305.65,6124.27C1304.72,6122.06 1305.26,6119.51 1307.01,6117.87C1311.77,6113.39 1321.27,6104.46 1326.64,6099.41C1328.84,6097.34 1332.27,6097.34 1334.47,6099.41C1339.84,6104.46 1349.34,6113.39 1354.1,6117.87C1355.85,6119.51 1356.39,6122.06 1355.46,6124.27C1354.01,6127.68 1351.95,6132.56 1351.06,6134.69C1350.76,6135.4 1350.61,6136.15 1350.61,6136.92C1350.61,6143.5 1350.61,6176.25 1350.61,6186.63C1350.61,6188.6 1349.59,6190.43 1347.92,6191.48C1344.21,6193.81 1337.53,6198 1333.64,6200.44C1331.79,6201.6 1329.43,6201.6 1327.58,6200.44C1323.67,6198.01 1316.93,6193.81 1313.2,6191.48C1311.52,6190.43 1310.51,6188.6 1310.51,6186.62C1310.51,6176.23 1310.51,6143.49 1310.51,6136.92Z"/>
            </clipPath>
            <g clip-path="url(#_clip3)">
                <g transform="matrix(2.29994,1.59269e-17,2.61579e-17,2.58335,-2018.2,4735.39)">
                    <rect x="1456.06" y="524.978" width="18.008" height="12.903" style="fill:rgb(154,157,162);"/>
                </g>
                <g transform="matrix(-1.59997,-4.90216e-16,2.43468e-16,-1.21627,3660.31,6774.81)">
                    <rect x="1456.06" y="524.978" width="18.008" height="12.903" style="fill:rgb(157,161,168);"/>
                </g>
                <g transform="matrix(2.31278,-4.77034e-17,1.14199e-17,-1.59485,-2036.89,6978.44)">
                    <rect x="1456.06" y="524.978" width="18.008" height="12.903" style="fill:rgb(100,103,108);"/>
                </g>
                <g transform="matrix(2.31278,1.73932e-15,-9.0502e-16,6.24167,-2036.89,2859.02)">
                    <rect x="1456.06" y="524.978" width="18.008" height="12.903" style="fill:rgb(113,115,120);"/>
                </g>
                <g transform="matrix(-1.35408,1.73875e-15,5.35784e-16,6.24437,3302.28,2857.61)">
                    <rect x="1456.06" y="524.978" width="18.008" height="12.903" style="fill:rgb(129,135,144);"/>
                </g>
            </g>
        </g>
    </g>
</svg>
