<?xml version="1.0" encoding="UTF-8" standalone="no"?>
<!DOCTYPE svg PUBLIC "-//W3C//DTD SVG 1.1//EN" "http://www.w3.org/Graphics/SVG/1.1/DTD/svg11.dtd">
<svg width="100%" height="100%" viewBox="0 0 512 512" version="1.1" xmlns="http://www.w3.org/2000/svg" xmlns:xlink="http://www.w3.org/1999/xlink" xml:space="preserve" xmlns:serif="http://www.serif.com/" style="fill-rule:evenodd;clip-rule:evenodd;stroke-linejoin:round;stroke-miterlimit:2;">
    <g id="BagIconColored" transform="matrix(1.76185,0,0,1.68617,-7570.82,-950.862)">
        <g transform="matrix(1.02955,0,0,1.07576,-15599.7,-3586.02)">
            <path d="M19421.4,3884.79C19430,3879.8 19446.9,3883.66 19446.9,3883.66C19446.9,3872.62 19455.9,3863.66 19466.9,3863.66C19477.9,3863.66 19486.9,3872.62 19486.9,3883.66C19486.9,3883.66 19503.8,3879.8 19512.5,3884.79C19522,3890.31 19525.3,3902.55 19519.8,3912.11L19492.6,3959.28C19487.4,3968.29 19446.5,3968.29 19441.3,3959.28L19414,3912.11C19408.5,3902.55 19411.8,3890.31 19421.4,3884.79Z" style="fill:rgb(209,122,71);"/>
            <clipPath id="_clip1">
                <path d="M19421.4,3884.79C19430,3879.8 19446.9,3883.66 19446.9,3883.66C19446.9,3872.62 19455.9,3863.66 19466.9,3863.66C19477.9,3863.66 19486.9,3872.62 19486.9,3883.66C19486.9,3883.66 19503.8,3879.8 19512.5,3884.79C19522,3890.31 19525.3,3902.55 19519.8,3912.11L19492.6,3959.28C19487.4,3968.29 19446.5,3968.29 19441.3,3959.28L19414,3912.11C19408.5,3902.55 19411.8,3890.31 19421.4,3884.79Z"/>
            </clipPath>
            <g clip-path="url(#_clip1)">
                <g transform="matrix(0.720532,-5.37491e-17,-1.97764e-17,0.432492,5608.5,2140.52)">
                    <rect x="19233.7" y="3975.2" width="154.215" height="241.645" style="fill:rgb(179,94,63);"/>
                </g>
            </g>
        </g>
        <g transform="matrix(0.957992,0,0,1.23879,-13973.6,-4301.76)">
            <path d="M19345.2,4092.11C19345.2,4050.39 19303.2,4016.52 19251.6,4016.52L19195.4,4016.52C19143.8,4016.52 19101.9,4050.39 19101.9,4092.11C19101.9,4133.84 19143.8,4167.71 19195.4,4167.71L19251.6,4167.71C19303.2,4167.71 19345.2,4133.84 19345.2,4092.11Z" style="fill:rgb(209,122,71);"/>
            <clipPath id="_clip2">
                <path d="M19345.2,4092.11C19345.2,4050.39 19303.2,4016.52 19251.6,4016.52L19195.4,4016.52C19143.8,4016.52 19101.9,4050.39 19101.9,4092.11C19101.9,4133.84 19143.8,4167.71 19195.4,4167.71L19251.6,4167.71C19303.2,4167.71 19345.2,4133.84 19345.2,4092.11Z"/>
            </clipPath>
            <g clip-path="url(#_clip2)">
                <g transform="matrix(1,0,0,0.814903,-10.0079,744.229)">
                    <rect x="19233.7" y="3975.2" width="154.215" height="241.645" style="fill:rgb(179,94,63);"/>
                </g>
                <g transform="matrix(1.31738,0,0,1.0645,-6766.38,-205.821)">
                    <circle cx="19682.7" cy="3992.51" r="9.63" style="fill:rgb(225,169,136);"/>
                </g>
            </g>
        </g>
        <g transform="matrix(0.82035,0,0,0.618433,-11333.9,-1824.51)">
            <path d="M19286.2,4016.01C19286.2,4010.47 19283,4005.99 19279,4005.99L19183.7,4005.99C19179.7,4005.99 19176.5,4010.47 19176.5,4016.01C19176.5,4021.54 19179.7,4026.03 19183.7,4026.03L19279,4026.03C19283,4026.03 19286.2,4021.54 19286.2,4016.01Z" style="fill:rgb(114,66,62);"/>
            <clipPath id="_clip3">
                <path d="M19286.2,4016.01C19286.2,4010.47 19283,4005.99 19279,4005.99L19183.7,4005.99C19179.7,4005.99 19176.5,4010.47 19176.5,4016.01C19176.5,4021.54 19179.7,4026.03 19183.7,4026.03L19279,4026.03C19283,4026.03 19286.2,4021.54 19286.2,4016.01Z"/>
            </clipPath>
            <g clip-path="url(#_clip3)">
                <g transform="matrix(0.487442,-8.51083e-33,4.86738e-33,0.117354,9856.01,3533.23)">
                    <rect x="19233.7" y="3975.2" width="154.215" height="241.645" style="fill:rgb(91,52,49);"/>
                </g>
            </g>
        </g>
        <g transform="matrix(0.82035,0,0,0.610587,-11333.9,-1781.22)">
            <path d="M19286.2,4016.01C19286.2,4010.47 19283,4005.99 19279.1,4005.99L19183.6,4005.99C19179.7,4005.99 19176.5,4010.47 19176.5,4016.01C19176.5,4021.54 19179.7,4026.03 19183.6,4026.03L19279.1,4026.03C19283,4026.03 19286.2,4021.54 19286.2,4016.01Z" style="fill:rgb(114,66,62);"/>
            <clipPath id="_clip4">
                <path d="M19286.2,4016.01C19286.2,4010.47 19283,4005.99 19279.1,4005.99L19183.6,4005.99C19179.7,4005.99 19176.5,4010.47 19176.5,4016.01C19176.5,4021.54 19179.7,4026.03 19183.6,4026.03L19279.1,4026.03C19283,4026.03 19286.2,4021.54 19286.2,4016.01Z"/>
            </clipPath>
            <g clip-path="url(#_clip4)">
                <g transform="matrix(0.487442,-8.51083e-33,4.86738e-33,0.117354,9856.01,3533.23)">
                    <rect x="19233.7" y="3975.2" width="154.215" height="241.645" style="fill:rgb(91,52,49);"/>
                </g>
            </g>
        </g>
    </g>
</svg>
