<?xml version="1.0" encoding="UTF-8" standalone="no"?>
<!DOCTYPE svg PUBLIC "-//W3C//DTD SVG 1.1//EN" "http://www.w3.org/Graphics/SVG/1.1/DTD/svg11.dtd">
<svg width="100%" height="100%" viewBox="0 0 512 512" version="1.1" xmlns="http://www.w3.org/2000/svg" xmlns:xlink="http://www.w3.org/1999/xlink" xml:space="preserve" xmlns:serif="http://www.serif.com/" style="fill-rule:evenodd;clip-rule:evenodd;stroke-linejoin:round;stroke-miterlimit:2;">
    <g id="BatIcon" transform="matrix(5.03193,0,0,5.03193,-9574.92,-4374.95)">
        <g transform="matrix(1,0,0,1,1.02431,0)">
            <g transform="matrix(1,0,0,-1,-0.359066,1888.21)">
                <path d="M1949.25,940.928C1949.33,940.693 1949.56,940.538 1949.81,940.538C1950.06,940.538 1950.28,940.693 1950.37,940.928C1951.49,943.928 1953.88,950.354 1953.88,950.354L1945.73,950.354C1945.73,950.354 1948.13,943.928 1949.25,940.928Z" style="fill:rgb(89,98,111);"/>
            </g>
            <g transform="matrix(1,0,0,-1,6.10689,1888.21)">
                <path d="M1949.25,940.928C1949.33,940.693 1949.56,940.538 1949.81,940.538C1950.06,940.538 1950.28,940.693 1950.37,940.928C1951.49,943.928 1953.88,950.354 1953.88,950.354L1945.73,950.354C1945.73,950.354 1948.13,943.928 1949.25,940.928Z" style="fill:rgb(54,60,70);"/>
            </g>
        </g>
        <g transform="matrix(-0.600201,-2.37124e-17,0.018534,0.613917,2138.72,-546.749)">
            <path d="M382.675,2365.84L364.941,2379.34C354.631,2371.47 349.425,2346.85 351.917,2345.19C354.409,2343.53 364.015,2364.29 382.675,2365.84Z" style="fill:rgb(54,60,70);"/>
        </g>
        <g transform="matrix(0.600201,2.37124e-17,0.018534,0.613917,1681.03,-546.454)">
            <path d="M382.675,2365.84L364.941,2379.34C354.631,2371.47 349.425,2346.85 351.917,2345.19C354.409,2343.53 364.015,2364.29 382.675,2365.84Z" style="fill:rgb(89,98,111);"/>
        </g>
        <ellipse cx="1953.71" cy="924.649" rx="14.852" ry="20.616" style="fill:rgb(89,98,111);"/>
        <clipPath id="_clip1">
            <ellipse cx="1953.71" cy="924.649" rx="14.852" ry="20.616"/>
        </clipPath>
        <g clip-path="url(#_clip1)">
            <g transform="matrix(1.1243,0,0,1.1243,-342.611,-357.721)">
                <rect x="2042.39" y="1117.05" width="17.773" height="51.161" style="fill:rgb(54,60,70);"/>
            </g>
        </g>
        <g transform="matrix(-0.23461,0.147105,0.15312,0.267754,1673.38,219.856)">
            <path d="M411.523,2383.13C445.711,2370.03 450.704,2346.49 448.07,2324.66C470.658,2316.55 524.569,2324.93 555.769,2355.43C517.109,2346.55 496.634,2371.28 504.347,2390.46C488.38,2386.45 462.622,2398.95 457.073,2415.22C450.719,2403.75 432.046,2395.85 408.321,2401C400.549,2402.68 403.576,2386.17 411.523,2383.13Z" style="fill:rgb(89,98,111);"/>
        </g>
        <g transform="matrix(0.23461,0.147105,-0.15312,0.267754,2234.04,219.856)">
            <path d="M411.523,2383.13C445.711,2370.03 450.704,2346.49 448.07,2324.66C470.658,2316.55 524.569,2324.93 555.769,2355.43C517.109,2346.55 496.634,2371.28 504.347,2390.46C488.38,2386.45 462.622,2398.95 457.073,2415.22C450.719,2403.75 432.046,2395.85 408.321,2401C400.549,2402.68 403.576,2386.17 411.523,2383.13Z" style="fill:rgb(54,60,70);"/>
        </g>
        <g transform="matrix(1.1243,0,0,1.1243,-342.611,-357.721)">
            <path d="M2035.17,1132.53C2036.43,1133.03 2038.25,1133.4 2040.35,1133.55C2040.36,1133.65 2040.37,1133.74 2040.37,1133.84C2040.37,1135.37 2039.13,1136.61 2037.6,1136.61C2036.08,1136.61 2034.84,1135.37 2034.84,1133.84C2034.84,1133.37 2034.96,1132.92 2035.17,1132.53Z" style="fill:rgb(29,31,33);"/>
        </g>
        <g transform="matrix(1.1243,0,0,1.1243,-342.611,-357.721)">
            <path d="M2049.71,1132.53C2049.93,1132.92 2050.05,1133.37 2050.05,1133.84C2050.05,1135.37 2048.81,1136.61 2047.28,1136.61C2045.76,1136.61 2044.52,1135.37 2044.52,1133.84C2044.52,1133.74 2044.53,1133.65 2044.54,1133.55C2046.64,1133.4 2048.45,1133.03 2049.71,1132.53Z" style="fill:rgb(29,31,33);"/>
        </g>
    </g>
</svg>
