<?xml version="1.0" encoding="UTF-8" standalone="no"?>
<!DOCTYPE svg PUBLIC "-//W3C//DTD SVG 1.1//EN" "http://www.w3.org/Graphics/SVG/1.1/DTD/svg11.dtd">
<svg width="100%" height="100%" viewBox="0 0 512 512" version="1.1" xmlns="http://www.w3.org/2000/svg" xmlns:xlink="http://www.w3.org/1999/xlink" xml:space="preserve" xmlns:serif="http://www.serif.com/" style="fill-rule:evenodd;clip-rule:evenodd;stroke-linejoin:round;stroke-miterlimit:2;">
    <g id="BlenderIcon" transform="matrix(3.63981,0,0,3.45413,-18039.3,-5784.88)">
        <g transform="matrix(0.829645,0.504745,-0.645828,1.17874,6854.37,-4388.99)">
            <path d="M1399,4566.15C1399,4561.16 1393.54,4557.11 1386.82,4557.11C1380.09,4557.11 1374.63,4561.16 1374.63,4566.15L1374.63,4614.36C1374.63,4619.35 1380.09,4623.4 1386.82,4623.4C1393.54,4623.4 1399,4619.35 1399,4614.36L1399,4566.15Z" style="fill:rgb(147,80,52);"/>
            <clipPath id="_clip1">
                <path d="M1399,4566.15C1399,4561.16 1393.54,4557.11 1386.82,4557.11C1380.09,4557.11 1374.63,4561.16 1374.63,4566.15L1374.63,4614.36C1374.63,4619.35 1380.09,4623.4 1386.82,4623.4C1393.54,4623.4 1399,4619.35 1399,4614.36L1399,4566.15Z"/>
            </clipPath>
            <g clip-path="url(#_clip1)">
                <rect x="1386.86" y="4540.32" width="23.492" height="96.15" style="fill:rgb(115,62,41);"/>
            </g>
        </g>
        <g transform="matrix(0.957992,0,0,1.00949,3582.13,-2911.1)">
            <path d="M1474.6,4665.08C1454.89,4653.86 1441.5,4632.77 1441.18,4608.56L1573.21,4608.56C1572.87,4633.73 1558.42,4655.52 1537.42,4666.36L1537.42,4677.34C1537.42,4680.7 1534.69,4683.43 1531.33,4683.43L1480.69,4683.43C1477.33,4683.43 1474.6,4680.7 1474.6,4677.34L1474.6,4665.08Z" style="fill:rgb(111,138,166);"/>
            <clipPath id="_clip2">
                <path d="M1474.6,4665.08C1454.89,4653.86 1441.5,4632.77 1441.18,4608.56L1573.21,4608.56C1572.87,4633.73 1558.42,4655.52 1537.42,4666.36L1537.42,4677.34C1537.42,4680.7 1534.69,4683.43 1531.33,4683.43L1480.69,4683.43C1477.33,4683.43 1474.6,4680.7 1474.6,4677.34L1474.6,4665.08Z"/>
            </clipPath>
            <g clip-path="url(#_clip2)">
                <rect x="1506.65" y="4590.7" width="97.014" height="121.172" style="fill:rgb(75,98,122);"/>
            </g>
        </g>
        <g transform="matrix(1.82413,0,0,1.92219,3683.47,-5124.78)">
            <path d="M773.031,3570.17C773.031,3569.34 772.357,3568.67 771.528,3568.67L700.935,3568.67C700.106,3568.67 699.432,3569.34 699.432,3570.17L699.432,3573.18C699.432,3574.01 700.106,3574.68 700.935,3574.68L771.528,3574.68C772.357,3574.68 773.031,3574.01 773.031,3573.18L773.031,3570.17Z" style="fill:rgb(119,145,171);"/>
            <clipPath id="_clip3">
                <path d="M773.031,3570.17C773.031,3569.34 772.357,3568.67 771.528,3568.67L700.935,3568.67C700.106,3568.67 699.432,3569.34 699.432,3570.17L699.432,3573.18C699.432,3574.01 700.106,3574.68 700.935,3574.68L771.528,3574.68C772.357,3574.68 773.031,3574.01 773.031,3573.18L773.031,3570.17Z"/>
            </clipPath>
            <g clip-path="url(#_clip3)">
                <g transform="matrix(0.417595,0,0,0.128238,106.534,2974.54)">
                    <rect x="1506.65" y="4590.7" width="97.014" height="121.172" style="fill:rgb(75,98,122);fill-opacity:0.6;"/>
                </g>
            </g>
        </g>
    </g>
</svg>
