<?xml version="1.0" encoding="UTF-8" standalone="no"?>
<!DOCTYPE svg PUBLIC "-//W3C//DTD SVG 1.1//EN" "http://www.w3.org/Graphics/SVG/1.1/DTD/svg11.dtd">
<svg width="100%" height="100%" viewBox="0 0 512 512" version="1.1" xmlns="http://www.w3.org/2000/svg" xmlns:xlink="http://www.w3.org/1999/xlink" xml:space="preserve" xmlns:serif="http://www.serif.com/" style="fill-rule:evenodd;clip-rule:evenodd;stroke-linejoin:round;stroke-miterlimit:2;">
    <g id="BombParachuteIcon" transform="matrix(2.09922,0,0,2.09922,-3022.66,-832.006)">
        <g transform="matrix(1,0,0,0.683371,207.795,45.6831)">
            <g transform="matrix(0.803162,-0.488758,0.717812,1.17956,-222.123,516.322)">
                <path d="M1303.73,633.435C1303.73,632.104 1302.46,631.024 1300.9,631.024C1299.34,631.024 1298.07,632.104 1298.07,633.435L1298.07,739.396C1298.07,740.727 1299.34,741.807 1300.9,741.807C1302.46,741.807 1303.73,740.727 1303.73,739.396L1303.73,633.435Z" style="fill:rgb(192,192,192);"/>
            </g>
            <g transform="matrix(0.848834,-0.278058,0.390187,1.19113,-38.2998,230.103)">
                <path d="M1303.73,633.82C1303.73,632.277 1302.46,631.024 1300.9,631.024C1299.34,631.024 1298.07,632.277 1298.07,633.82L1298.07,739.011C1298.07,740.554 1299.34,741.807 1300.9,741.807C1302.46,741.807 1303.73,740.554 1303.73,739.011L1303.73,633.82Z" style="fill:rgb(192,192,192);"/>
            </g>
            <g transform="matrix(-0.803162,-0.488758,-0.716973,1.17818,2929.7,517.192)">
                <path d="M1303.73,633.438C1303.73,632.106 1302.46,631.024 1300.9,631.024C1299.34,631.024 1298.07,632.106 1298.07,633.438L1298.07,739.393C1298.07,740.725 1299.34,741.807 1300.9,741.807C1302.46,741.807 1303.73,740.725 1303.73,739.393L1303.73,633.438Z" style="fill:rgb(192,192,192);"/>
            </g>
            <g transform="matrix(-0.848834,-0.278058,-0.38334,1.17023,2742.08,243.293)">
                <path d="M1303.73,633.87C1303.73,632.299 1302.46,631.024 1300.9,631.024C1299.34,631.024 1298.07,632.299 1298.07,633.87L1298.07,738.961C1298.07,740.532 1299.34,741.807 1300.9,741.807C1302.46,741.807 1303.73,740.532 1303.73,738.961L1303.73,633.87Z" style="fill:rgb(192,192,192);"/>
            </g>
        </g>
        <g transform="matrix(1.22983,0,0,1.22983,-103.421,-300.959)">
            <path d="M1288.95,633.04C1291.41,598.704 1319.64,571.586 1354.06,571.586C1388.47,571.586 1416.7,598.704 1419.16,633.04C1407.99,628.817 1396.89,628.195 1385.97,634.568C1364.12,628.047 1342.74,627.65 1321.91,634.568C1309.58,627.322 1299.1,629.31 1288.95,633.04Z" style="fill:rgb(97,142,72);"/>
            <clipPath id="_clip1">
                <path d="M1288.95,633.04C1291.41,598.704 1319.64,571.586 1354.06,571.586C1388.47,571.586 1416.7,598.704 1419.16,633.04C1407.99,628.817 1396.89,628.195 1385.97,634.568C1364.12,628.047 1342.74,627.65 1321.91,634.568C1309.58,627.322 1299.1,629.31 1288.95,633.04Z"/>
            </clipPath>
            <g clip-path="url(#_clip1)">
                <g transform="matrix(1,0,0,0.961305,0,24.8229)">
                    <path d="M1355.34,568.194C1327.39,581.862 1322.61,608.601 1321.99,638.952L1281.95,641.497C1279.74,638.675 1286.94,560.401 1355.34,568.194Z" style="fill:rgb(127,180,87);"/>
                </g>
                <g transform="matrix(-1,0,0,0.961305,2708.37,24.8229)">
                    <path d="M1355.34,568.194C1327.39,581.862 1322.61,608.601 1321.99,638.952L1281.95,641.497C1280,638.459 1289.82,562.662 1355.34,568.194Z" style="fill:rgb(87,114,67);"/>
                </g>
            </g>
        </g>
        <g transform="matrix(0.803663,0,0,1.22983,306.366,-112.968)">
            <path d="M1565.26,544.897C1565.26,544.345 1564.57,543.897 1563.73,543.897L1560.67,543.897C1559.82,543.897 1559.14,544.345 1559.14,544.897L1559.14,566.82C1559.14,567.372 1559.82,567.82 1560.67,567.82L1563.73,567.82C1564.57,567.82 1565.26,567.372 1565.26,566.82L1565.26,544.897Z" style="fill:rgb(192,192,192);"/>
        </g>
        <g transform="matrix(0.761881,0,0,0.761881,373.061,142.832)">
            <g transform="matrix(0.794278,0,0.3726,0.554829,123.95,252.404)">
                <path d="M1553.54,562.529C1553.54,557.254 1550.55,552.971 1546.87,552.971L1526.56,552.971C1522.87,552.971 1519.88,557.254 1519.88,562.529L1519.88,581.646C1519.88,586.921 1522.87,591.204 1526.56,591.204L1546.87,591.204C1550.55,591.204 1553.54,586.921 1553.54,581.646L1553.54,562.529Z" style="fill:rgb(76,90,111);"/>
            </g>
            <g transform="matrix(-0.794278,0,-0.3726,0.554829,2996.71,252.404)">
                <path d="M1553.54,562.529C1553.54,557.254 1550.55,552.971 1546.87,552.971L1526.56,552.971C1522.87,552.971 1519.88,557.254 1519.88,562.529L1519.88,581.646C1519.88,586.921 1522.87,591.204 1526.56,591.204L1546.87,591.204C1550.55,591.204 1553.54,586.921 1553.54,581.646L1553.54,562.529Z" style="fill:rgb(59,70,87);"/>
            </g>
        </g>
        <g transform="matrix(0.761881,0,0,0.761881,370.084,142.267)">
            <path d="M1564.24,554.964C1564.24,554.964 1530.05,594.886 1530.05,611.995C1530.05,630.866 1545.37,646.186 1564.24,646.186C1583.11,646.186 1598.43,630.866 1598.43,611.995C1598.43,594.886 1564.24,554.964 1564.24,554.964Z" style="fill:rgb(131,147,167);"/>
            <clipPath id="_clip2">
                <path d="M1564.24,554.964C1564.24,554.964 1530.05,594.886 1530.05,611.995C1530.05,630.866 1545.37,646.186 1564.24,646.186C1583.11,646.186 1598.43,630.866 1598.43,611.995C1598.43,594.886 1564.24,554.964 1564.24,554.964Z"/>
            </clipPath>
            <g clip-path="url(#_clip2)">
                <g transform="matrix(0.684397,0,0,0.570484,489.545,268.631)">
                    <rect x="1508.82" y="600.542" width="127.328" height="68.425" style="fill:rgb(217,85,85);"/>
                </g>
                <g transform="matrix(0.684397,0,0,0.570484,489.545,198.621)">
                    <rect x="1508.82" y="600.542" width="127.328" height="68.425" style="fill:rgb(90,106,127);"/>
                </g>
                <g transform="matrix(1,0,0,1,2.39026,0.741037)">
                    <rect x="1562.12" y="542.548" width="59.265" height="112.143" style="fill-opacity:0.18;"/>
                </g>
            </g>
        </g>
    </g>
</svg>
