<?xml version="1.0" encoding="UTF-8" standalone="no"?>
<!DOCTYPE svg PUBLIC "-//W3C//DTD SVG 1.1//EN" "http://www.w3.org/Graphics/SVG/1.1/DTD/svg11.dtd">
<svg width="100%" height="100%" viewBox="0 0 512 512" version="1.1" xmlns="http://www.w3.org/2000/svg" xmlns:xlink="http://www.w3.org/1999/xlink" xml:space="preserve" xmlns:serif="http://www.serif.com/" style="fill-rule:evenodd;clip-rule:evenodd;stroke-linejoin:round;stroke-miterlimit:2;">
    <g id="MagicalBookIcon" transform="matrix(1.0826,0,0,1.08307,-1945.48,-481.236)">
        <g transform="matrix(1.02133,0,0,1.26632,-79.6467,-241.033)">
            <path d="M2211.74,576.71C2211.74,562.355 2197.28,550.701 2179.48,550.701L1957.4,550.701C1922.7,550.701 1894.52,573.417 1894.52,601.396L1894.52,853.909C1894.52,882.138 1922.95,905.056 1957.97,905.056L2179.48,905.056C2197.28,905.056 2211.74,893.402 2211.74,879.047L2211.74,576.71Z" style="fill:rgb(59,64,83);"/>
        </g>
        <g transform="matrix(0.87548,0,0,0.996652,275.406,3.03045)">
            <path d="M2211.74,579.028C2211.74,563.394 2197.28,550.701 2179.48,550.701L1894.52,550.701L1894.52,905.056L2179.48,905.056C2197.28,905.056 2211.74,892.363 2211.74,876.729L2211.74,579.028Z" style="fill:rgb(95,101,128);"/>
        </g>
        <g transform="matrix(4.21868,0,0,4.00347,-18144.8,-1528.97)">
            <g transform="matrix(1,0,0,1,-2.23796,4.54747e-13)">
                <g transform="matrix(0.957992,0,0,1.42665,3582.13,-4351.99)">
                    <path d="M1259.9,3453.09C1259.9,3451.98 1258.62,3451.08 1257.05,3451.08C1255.48,3451.08 1254.21,3451.98 1254.21,3453.09L1254.21,3459.74C1254.21,3460.86 1255.48,3461.76 1257.05,3461.76C1258.62,3461.76 1259.9,3460.86 1259.9,3459.74L1259.9,3453.09Z" style="fill:rgb(50,54,71);"/>
                </g>
                <g transform="matrix(0.957992,0,0,1.42665,3590.35,-4351.99)">
                    <path d="M1259.9,3453.09C1259.9,3451.98 1258.62,3451.08 1257.05,3451.08C1255.48,3451.08 1254.21,3451.98 1254.21,3453.09L1254.21,3459.74C1254.21,3460.86 1255.48,3461.76 1257.05,3461.76C1258.62,3461.76 1259.9,3460.86 1259.9,3459.74L1259.9,3453.09Z" style="fill:rgb(50,54,71);"/>
                </g>
                <g transform="matrix(0.957992,0,0,1.42665,3598.69,-4351.99)">
                    <path d="M1259.9,3453.09C1259.9,3451.98 1258.62,3451.08 1257.05,3451.08C1255.48,3451.08 1254.21,3451.98 1254.21,3453.09L1254.21,3459.74C1254.21,3460.86 1255.48,3461.76 1257.05,3461.76C1258.62,3461.76 1259.9,3460.86 1259.9,3459.74L1259.9,3453.09Z" style="fill:rgb(50,54,71);"/>
                </g>
            </g>
            <g transform="matrix(0.957992,0,0,0.712339,3580.54,-1882.75)">
                <rect x="1255.45" y="3445.55" width="19.146" height="15.128" style="fill:rgb(50,54,71);"/>
            </g>
            <g transform="matrix(0.957992,0,0,1.00949,3582.13,-2911.1)">
                <path d="M1275.5,3419.65C1280.45,3419.65 1284.47,3423.67 1284.47,3428.62L1284.47,3446.55C1284.47,3451.5 1280.45,3455.52 1275.5,3455.52L1251.22,3455.52C1246.27,3455.52 1242.25,3451.5 1242.25,3446.55L1242.25,3428.62C1242.25,3423.67 1246.27,3419.65 1251.22,3419.65L1275.5,3419.65ZM1254.34,3435.94C1257.72,3435.94 1260.46,3438.69 1260.46,3442.06C1260.46,3445.44 1257.72,3448.18 1254.34,3448.18C1250.96,3448.18 1248.22,3445.44 1248.22,3442.06C1248.22,3438.69 1250.96,3435.94 1254.34,3435.94ZM1272.38,3435.94C1275.76,3435.94 1278.5,3438.69 1278.5,3442.06C1278.5,3445.44 1275.76,3448.18 1272.38,3448.18C1269,3448.18 1266.26,3445.44 1266.26,3442.06C1266.26,3438.69 1269,3435.94 1272.38,3435.94Z" style="fill:rgb(50,54,71);"/>
            </g>
        </g>
        <g transform="matrix(0.994549,0,0,0.912881,11.4052,45.7059)">
            <path d="M2146.93,481.596L1917.32,481.596C1898.89,481.596 1883.93,497.893 1883.93,517.965C1883.93,538.038 1898.89,554.334 1917.32,554.334L2146.93,554.334L2146.93,481.596Z" style="fill:rgb(171,176,192);"/>
        </g>
    </g>
</svg>
