<?xml version="1.0" encoding="UTF-8" standalone="no"?>
<!DOCTYPE svg PUBLIC "-//W3C//DTD SVG 1.1//EN" "http://www.w3.org/Graphics/SVG/1.1/DTD/svg11.dtd">
<svg width="100%" height="100%" viewBox="0 0 512 512" version="1.1" xmlns="http://www.w3.org/2000/svg" xmlns:xlink="http://www.w3.org/1999/xlink" xml:space="preserve" xmlns:serif="http://www.serif.com/" style="fill-rule:evenodd;clip-rule:evenodd;stroke-linejoin:round;stroke-miterlimit:2;">
    <g id="BookIcon" transform="matrix(1.0826,0,0,1.0826,-1945.48,-480.919)">
        <g transform="matrix(1.02133,0,0,1.26632,-79.6467,-241.033)">
            <path d="M2211.74,576.721C2211.74,562.36 2197.28,550.701 2179.48,550.701L1957.4,550.701C1922.7,550.701 1894.52,573.427 1894.52,601.418L1894.52,853.887C1894.52,882.128 1922.95,905.056 1957.97,905.056L2179.48,905.056C2197.28,905.056 2211.74,893.397 2211.74,879.036L2211.74,576.721Z" style="fill:rgb(106,81,135);"/>
        </g>
        <g transform="matrix(0.87548,0,0,0.996652,275.406,3.03045)">
            <path d="M2211.74,579.04C2211.74,563.4 2197.28,550.701 2179.48,550.701L1894.52,550.701L1894.52,905.056L2179.48,905.056C2197.28,905.056 2211.74,892.358 2211.74,876.717L2211.74,579.04Z" style="fill:rgb(142,104,163);"/>
        </g>
        <g transform="matrix(0.994549,0,0,0.912881,11.4052,45.7059)">
            <path d="M2146.93,481.596L1917.32,481.596C1898.89,481.596 1883.93,497.893 1883.93,517.965C1883.93,538.038 1898.89,554.334 1917.32,554.334L2146.93,554.334L2146.93,481.596Z" style="fill:rgb(229,207,137);"/>
        </g>
        <g id="Mana-Icon" serif:id="Mana Icon" transform="matrix(1.66725,0,0,1.60689,-162.491,-514.839)">
            <path d="M1327.48,771.763C1331.1,772.259 1333.57,761.194 1342.47,767.357C1353.53,775.012 1338.02,798.053 1314.47,787.281C1290.93,776.509 1301.52,746.813 1312.8,735.839C1323.8,725.134 1358.92,717.362 1375.12,744.493C1389.78,769.035 1376.13,809.462 1350.2,817.667C1324.26,825.873 1303.84,819.59 1308.58,811.022C1313.32,802.455 1343.6,817.585 1359.09,783.272C1366.49,766.899 1364.87,744.033 1340.1,742.558C1321.17,741.431 1309.01,769.234 1327.48,771.763Z" style="fill:rgb(255,205,106);"/>
        </g>
    </g>
</svg>
