<?xml version="1.0" encoding="UTF-8" standalone="no"?>
<!DOCTYPE svg PUBLIC "-//W3C//DTD SVG 1.1//EN" "http://www.w3.org/Graphics/SVG/1.1/DTD/svg11.dtd">
<svg width="100%" height="100%" viewBox="0 0 512 512" version="1.1" xmlns="http://www.w3.org/2000/svg" xmlns:xlink="http://www.w3.org/1999/xlink" xml:space="preserve" xmlns:serif="http://www.serif.com/" style="fill-rule:evenodd;clip-rule:evenodd;stroke-linejoin:round;stroke-miterlimit:2;">
    <g transform="matrix(-3.10041e-16,4.06096,-4.06096,-2.94225e-15,2022.17,-6656.13)">
        <g id="BowAndArrowIcon">
            <g id="BowIcon">
                <g transform="matrix(1,0,0,1,-0.56183,5.71432)">
                    <g transform="matrix(0.707107,-0.707107,0.80002,0.80002,-35.4776,1148.79)">
                        <rect x="1699.09" y="605.764" width="2.803" height="64.884" style="fill:rgb(172,172,172);"/>
                    </g>
                    <g transform="matrix(-0.707107,-0.707107,-0.80002,0.80002,3440.5,1148.79)">
                        <rect x="1699.09" y="605.764" width="2.803" height="64.884" style="fill:rgb(172,172,172);"/>
                    </g>
                </g>
                <path d="M1702.09,396.599C1704,396.624 1706.68,396.771 1706.68,396.771C1707.91,396.871 1709.15,397.003 1710.38,397.169C1724.3,399.05 1736.21,408.935 1743.79,422.979C1747.25,429.391 1751.02,436.254 1759.49,436.816C1759.49,436.816 1761.42,437.018 1761.42,438.329C1761.42,439.639 1759.9,439.954 1759.9,439.954C1755.72,440.505 1751.36,439.835 1747.65,437.444C1737.22,430.724 1733.47,422.009 1720.31,417.462C1705.9,412.485 1690.91,414.986 1683.05,417.765C1667.12,423.401 1661.05,441.844 1644.56,439.993C1644.56,439.993 1642.76,439.784 1642.76,438.331C1642.76,436.878 1644.39,436.832 1644.39,436.832C1654.98,436.197 1658.27,422.092 1665.34,413.579C1672.84,404.533 1684.28,397.886 1696.71,396.801C1698.49,396.646 1700.29,396.587 1702.09,396.599Z" style="fill:rgb(250,166,41);"/>
                <clipPath id="_clip1">
                    <path d="M1702.09,396.599C1704,396.624 1706.68,396.771 1706.68,396.771C1707.91,396.871 1709.15,397.003 1710.38,397.169C1724.3,399.05 1736.21,408.935 1743.79,422.979C1747.25,429.391 1751.02,436.254 1759.49,436.816C1759.49,436.816 1761.42,437.018 1761.42,438.329C1761.42,439.639 1759.9,439.954 1759.9,439.954C1755.72,440.505 1751.36,439.835 1747.65,437.444C1737.22,430.724 1733.47,422.009 1720.31,417.462C1705.9,412.485 1690.91,414.986 1683.05,417.765C1667.12,423.401 1661.05,441.844 1644.56,439.993C1644.56,439.993 1642.76,439.784 1642.76,438.331C1642.76,436.878 1644.39,436.832 1644.39,436.832C1654.98,436.197 1658.27,422.092 1665.34,413.579C1672.84,404.533 1684.28,397.886 1696.71,396.801C1698.49,396.646 1700.29,396.587 1702.09,396.599Z"/>
                </clipPath>
                <g clip-path="url(#_clip1)">
                    <g transform="matrix(2.10717,-2.64939e-16,2.85488e-16,2.27061,-1384.61,-1116.11)">
                        <rect x="1464.34" y="661.141" width="29.838" height="28.101" style="fill:rgb(247,140,30);"/>
                    </g>
                </g>
                <g transform="matrix(1,0,0,1,-1.11638,0)">
                    <g transform="matrix(1.48667,-1.11022e-16,-5.4031e-17,1.48667,-880.453,-479.747)">
                        <g transform="matrix(1,1.02028,0,1,-3.03482,-1774.82)">
                            <rect x="1741.78" y="623.206" width="7.311" height="22.648" style="fill:rgb(116,154,54);"/>
                        </g>
                        <g transform="matrix(0.696723,0.71085,-3.25739e-17,1,527.425,-1233.61)">
                            <rect x="1741.78" y="623.206" width="7.311" height="22.648" style="fill:rgb(139,185,65);"/>
                        </g>
                        <g transform="matrix(-1,1.02028,0,1,3478.62,-1774.82)">
                            <rect x="1741.78" y="623.206" width="7.311" height="22.648" style="fill:rgb(116,154,54);"/>
                        </g>
                        <g transform="matrix(-0.708732,0.723103,-8.6488e-18,1,2969.16,-1255.04)">
                            <rect x="1741.78" y="623.206" width="7.311" height="22.648" style="fill:rgb(139,185,65);"/>
                        </g>
                    </g>
                    <g transform="matrix(0.935316,3.56946e-18,3.22059e-17,1.67121,77.5377,-553.412)">
                        <path d="M1739.76,562.998C1739.76,562.437 1738.95,561.981 1737.94,561.981C1736.94,561.981 1736.13,562.437 1736.13,562.998L1736.13,620.686C1736.13,621.247 1736.94,621.702 1737.94,621.702C1738.95,621.702 1739.76,621.247 1739.76,620.686L1739.76,562.998Z" style="fill:rgb(127,82,67);"/>
                        <clipPath id="_clip2">
                            <path d="M1739.76,562.998C1739.76,562.437 1738.95,561.981 1737.94,561.981C1736.94,561.981 1736.13,562.437 1736.13,562.998L1736.13,620.686C1736.13,621.247 1736.94,621.702 1737.94,621.702C1738.95,621.702 1739.76,621.247 1739.76,620.686L1739.76,562.998Z"/>
                        </clipPath>
                        <g clip-path="url(#_clip2)">
                            <g transform="matrix(0.49572,3.78301e-17,1.10938e-16,1.01096,877.327,-6.16959)">
                                <rect x="1736.13" y="561.981" width="3.632" height="59.721" style="fill:rgb(111,71,58);"/>
                            </g>
                        </g>
                    </g>
                    <g transform="matrix(1.04895,0,0,1.04895,-120.112,-205.372)">
                        <path d="M1737.3,553.715C1737.45,553.415 1737.77,553.228 1738.1,553.228C1738.44,553.228 1738.75,553.415 1738.91,553.715C1740.72,557.117 1745.05,565.286 1746.76,568.511C1746.91,568.795 1746.9,569.136 1746.73,569.411C1746.57,569.686 1746.27,569.855 1745.95,569.855C1742.43,569.855 1733.77,569.855 1730.26,569.855C1729.94,569.855 1729.64,569.686 1729.48,569.411C1729.31,569.136 1729.3,568.795 1729.45,568.511C1731.16,565.286 1735.49,557.117 1737.3,553.715Z" style="fill:rgb(155,155,155);"/>
                        <clipPath id="_clip3">
                            <path d="M1737.3,553.715C1737.45,553.415 1737.77,553.228 1738.1,553.228C1738.44,553.228 1738.75,553.415 1738.91,553.715C1740.72,557.117 1745.05,565.286 1746.76,568.511C1746.91,568.795 1746.9,569.136 1746.73,569.411C1746.57,569.686 1746.27,569.855 1745.95,569.855C1742.43,569.855 1733.77,569.855 1730.26,569.855C1729.94,569.855 1729.64,569.686 1729.48,569.411C1729.31,569.136 1729.3,568.795 1729.45,568.511C1731.16,565.286 1735.49,557.117 1737.3,553.715Z"/>
                        </clipPath>
                        <g clip-path="url(#_clip3)">
                            <g transform="matrix(1.07965,-1.35746e-16,1.35746e-16,1.07965,146.527,-155.306)">
                                <rect x="1474.18" y="654.736" width="15.749" height="17.333" style="fill:rgb(111,111,111);"/>
                            </g>
                        </g>
                    </g>
                </g>
                <g transform="matrix(1.67844,-1.47581e-16,7.40765e-16,1.59899,-395.257,-7584.75)">
                    <path d="M1256.99,4993.15C1256.99,4992.1 1256.17,4991.25 1255.17,4991.25L1244.02,4991.25C1243.02,4991.25 1242.2,4992.1 1242.2,4993.15L1242.2,5002.15C1242.2,5003.19 1243.02,5004.05 1244.02,5004.05L1255.17,5004.05C1256.17,5004.05 1256.99,5003.19 1256.99,5002.15L1256.99,4993.15Z" style="fill:rgb(96,125,139);"/>
                    <clipPath id="_clip4">
                        <path d="M1256.99,4993.15C1256.99,4992.1 1256.17,4991.25 1255.17,4991.25L1244.02,4991.25C1243.02,4991.25 1242.2,4992.1 1242.2,4993.15L1242.2,5002.15C1242.2,5003.19 1243.02,5004.05 1244.02,5004.05L1255.17,5004.05C1256.17,5004.05 1256.99,5003.19 1256.99,5002.15L1256.99,4993.15Z"/>
                    </clipPath>
                    <g clip-path="url(#_clip4)">
                        <g transform="matrix(0.952663,0,0,1,58.9543,-0.459223)">
                            <rect x="1249.76" y="4985.33" width="10.338" height="22.413" style="fill:rgb(84,111,122);"/>
                        </g>
                    </g>
                </g>
                <g transform="matrix(1,0,0,1,0.257323,7.17601)">
                    <path d="M1652.29,427.541C1652.29,426.591 1651.52,425.82 1650.57,425.82L1650.31,425.82C1649.36,425.82 1648.59,426.591 1648.59,427.541L1648.59,432.457C1648.59,433.407 1649.36,434.178 1650.31,434.178L1650.57,434.178C1651.52,434.178 1652.29,433.407 1652.29,432.457L1652.29,427.541Z" style="fill:rgb(111,71,58);"/>
                </g>
                <g transform="matrix(1,0,0,1,103.465,7.17601)">
                    <path d="M1652.29,427.541C1652.29,426.591 1651.52,425.82 1650.57,425.82L1650.31,425.82C1649.36,425.82 1648.59,426.591 1648.59,427.541L1648.59,432.457C1648.59,433.407 1649.36,434.178 1650.31,434.178L1650.57,434.178C1651.52,434.178 1652.29,433.407 1652.29,432.457L1652.29,427.541Z" style="fill:rgb(111,71,58);"/>
                </g>
            </g>
        </g>
    </g>
</svg>
