<?xml version="1.0" encoding="UTF-8" standalone="no"?>
<!DOCTYPE svg PUBLIC "-//W3C//DTD SVG 1.1//EN" "http://www.w3.org/Graphics/SVG/1.1/DTD/svg11.dtd">
<svg width="100%" height="100%" viewBox="0 0 512 512" version="1.1" xmlns="http://www.w3.org/2000/svg" xmlns:xlink="http://www.w3.org/1999/xlink" xml:space="preserve" xmlns:serif="http://www.serif.com/" style="fill-rule:evenodd;clip-rule:evenodd;stroke-linecap:round;stroke-linejoin:round;stroke-miterlimit:1.5;">
    <g id="BoxingGloveIcon" transform="matrix(3.32236,0,0,3.32236,-2275.94,-354.692)">
        <g transform="matrix(1,0,0,1.32496,259.193,-148.134)">
            <path d="M545.983,260.339C545.983,257.07 542.466,254.415 538.134,254.415L483.756,254.415C479.424,254.415 475.906,257.07 475.906,260.339L475.906,299.453C475.906,302.722 479.424,305.377 483.756,305.377L538.134,305.377C542.466,305.377 545.983,302.722 545.983,299.453L545.983,260.339Z" style="fill:rgb(220,60,60);"/>
            <clipPath id="_clip1">
                <path d="M545.983,260.339C545.983,257.07 542.466,254.415 538.134,254.415L483.756,254.415C479.424,254.415 475.906,257.07 475.906,260.339L475.906,299.453C475.906,302.722 479.424,305.377 483.756,305.377L538.134,305.377C542.466,305.377 545.983,302.722 545.983,299.453L545.983,260.339Z"/>
            </clipPath>
            <g clip-path="url(#_clip1)">
                <g transform="matrix(0.552629,0,0,0.754741,74.2883,111.922)">
                    <rect x="723.716" y="224.368" width="92.645" height="17.633" style="fill:white;"/>
                </g>
                <g transform="matrix(0.538341,0,0,0.754741,121.626,111.922)">
                    <rect x="723.716" y="224.368" width="92.645" height="17.633" style="fill:rgb(249,225,208);"/>
                </g>
            </g>
        </g>
        <g transform="matrix(0.866025,-0.5,0.769094,1.33211,160.818,115.154)">
            <path d="M479.751,209.183C479.751,202.558 471.477,197.179 461.286,197.179C451.094,197.179 442.82,202.558 442.82,209.183L442.82,233.257C442.82,239.882 451.094,245.261 461.286,245.261C471.477,245.261 479.751,239.882 479.751,233.257L479.751,209.183Z" style="fill:rgb(255,80,80);"/>
            <clipPath id="_clip2">
                <path d="M479.751,209.183C479.751,202.558 471.477,197.179 461.286,197.179C451.094,197.179 442.82,202.558 442.82,209.183L442.82,233.257C442.82,239.882 451.094,245.261 461.286,245.261C471.477,245.261 479.751,239.882 479.751,233.257L479.751,209.183Z"/>
            </clipPath>
            <g clip-path="url(#_clip2)">
                <g transform="matrix(0.999735,-0.0149786,0.02304,0.649943,-265.443,124.502)">
                    <rect x="714.681" y="119.562" width="41.952" height="58.638" style="fill:rgb(220,60,60);"/>
                </g>
            </g>
        </g>
        <g transform="matrix(1,0,0,0.962584,258.27,-41.5195)">
            <path d="M563.19,199.295C563.19,176.836 544.955,158.601 522.496,158.601L502.149,158.601C479.689,158.601 461.455,176.836 461.455,199.295L469.455,254.973C469.455,260.588 474.014,265.147 479.629,265.147L546.016,265.147C551.631,265.147 556.19,260.588 556.19,254.973L563.19,199.295Z" style="fill:rgb(255,80,80);"/>
            <clipPath id="_clip3">
                <path d="M563.19,199.295C563.19,176.836 544.955,158.601 522.496,158.601L502.149,158.601C479.689,158.601 461.455,176.836 461.455,199.295L469.455,254.973C469.455,260.588 474.014,265.147 479.629,265.147L546.016,265.147C551.631,265.147 556.19,260.588 556.19,254.973L563.19,199.295Z"/>
            </clipPath>
            <g clip-path="url(#_clip3)">
                <g transform="matrix(1,0,0,1.03887,-258.27,43.1334)">
                    <rect x="770.424" y="87.192" width="78.541" height="134.417" style="fill:rgb(220,60,60);"/>
                </g>
            </g>
        </g>
        <g transform="matrix(0.755268,0,0,0.727009,382.663,5.53)">
            <path d="M488.83,160.834C472.903,166.356 461.455,181.499 461.455,199.295" style="fill:none;stroke:rgb(255,150,150);stroke-width:9.86px;"/>
        </g>
    </g>
</svg>
