<?xml version="1.0" encoding="UTF-8" standalone="no"?>
<!DOCTYPE svg PUBLIC "-//W3C//DTD SVG 1.1//EN" "http://www.w3.org/Graphics/SVG/1.1/DTD/svg11.dtd">
<svg width="100%" height="100%" viewBox="0 0 512 512" version="1.1" xmlns="http://www.w3.org/2000/svg" xmlns:xlink="http://www.w3.org/1999/xlink" xml:space="preserve" xmlns:serif="http://www.serif.com/" style="fill-rule:evenodd;clip-rule:evenodd;stroke-linecap:round;stroke-linejoin:round;stroke-miterlimit:1.5;">
    <g id="BrainIcon" transform="matrix(4.50481,0,0,4.50481,-9.50951,2.22181)">
        <g transform="matrix(0.949604,0,0,0.949604,5.89402,2.874)">
            <path d="M55.86,99.129C54.193,105.913 47.609,110.984 39.751,110.984C33.808,110.984 28.594,108.083 25.684,103.735C25.437,103.753 25.188,103.762 24.936,103.762C20.202,103.762 16.283,100.524 15.643,96.32C9.974,93.906 6.036,88.616 6.036,82.483C6.036,81.083 6.241,79.726 6.626,78.437C-4.135,68.839 -1.45,50.445 7.051,45.965C-3.693,24.315 15.24,9.575 26.358,11.371C28.745,5.665 34.751,1.612 41.776,1.612C47.731,1.612 52.954,4.524 55.86,8.887C75.636,40.772 70.238,70.36 55.86,99.129Z" style="fill:rgb(242,171,186);"/>
            <clipPath id="_clip1">
                <path d="M55.86,99.129C54.193,105.913 47.609,110.984 39.751,110.984C33.808,110.984 28.594,108.083 25.684,103.735C25.437,103.753 25.188,103.762 24.936,103.762C20.202,103.762 16.283,100.524 15.643,96.32C9.974,93.906 6.036,88.616 6.036,82.483C6.036,81.083 6.241,79.726 6.626,78.437C-4.135,68.839 -1.45,50.445 7.051,45.965C-3.693,24.315 15.24,9.575 26.358,11.371C28.745,5.665 34.751,1.612 41.776,1.612C47.731,1.612 52.954,4.524 55.86,8.887C75.636,40.772 70.238,70.36 55.86,99.129Z"/>
            </clipPath>
            <g clip-path="url(#_clip1)">
                <g transform="matrix(1,0,0,1,0.121141,3.99604)">
                    <path d="M54.98,13.192C51.052,8.628 43.639,5.874 38,6.88" style="fill:none;stroke:rgb(231,90,112);stroke-width:3.5px;"/>
                </g>
                <g transform="matrix(1,0,0,1,-6.51512,2.13603)">
                    <path d="M32.286,29.688C34.601,21.318 42.595,20.31 46.133,20.6" style="fill:none;stroke:rgb(231,90,112);stroke-width:3.5px;"/>
                </g>
                <g transform="matrix(0.510215,0.860047,-0.860047,0.510215,24.9363,-35.7348)">
                    <path d="M32.286,29.688C34.601,21.318 42.595,20.31 46.133,20.6" style="fill:none;stroke:rgb(231,90,112);stroke-width:3.5px;"/>
                </g>
                <g transform="matrix(111.061,14.476,-14.476,111.061,12.9218,-3.53091)">
                    <path d="M0.303,0.887C0.303,0.887 0.349,0.865 0.361,0.806" style="fill:none;stroke:rgb(231,90,112);stroke-width:0.03px;"/>
                </g>
                <g transform="matrix(111.061,14.476,-14.476,111.061,12.9218,-3.53091)">
                    <path d="M0.325,0.77C0.325,0.77 0.354,0.82 0.417,0.818" style="fill:none;stroke:rgb(231,90,112);stroke-width:0.03px;"/>
                </g>
                <g transform="matrix(1,0,0,1,-4.298,1.05307)">
                    <path d="M11.614,78.642C16.865,80.76 21.586,79.558 25.988,76.359C24.503,79.661 23.047,82.974 25.078,87.555" style="fill:none;stroke:rgb(231,90,112);stroke-width:3.5px;"/>
                </g>
                <g transform="matrix(0.875247,0.483675,-0.483675,0.875247,24.6114,-6.16812)">
                    <path d="M49.416,58.871C42.453,55.079 33.495,55.121 28.196,60.879" style="fill:none;stroke:rgb(231,90,112);stroke-width:3.5px;"/>
                </g>
                <g transform="matrix(1,0,0,1,-14.8518,-9.16265)">
                    <path d="M49.416,58.871C45.091,49.579 24.436,49.667 20.343,54.024" style="fill:none;stroke:rgb(231,90,112);stroke-width:3.5px;"/>
                </g>
            </g>
        </g>
        <g transform="matrix(-0.949604,0,0,0.949604,111.984,2.874)">
            <path d="M55.86,99.129C54.193,105.913 47.609,110.984 39.751,110.984C33.808,110.984 28.594,108.083 25.684,103.735C25.437,103.753 25.188,103.762 24.936,103.762C20.202,103.762 16.283,100.524 15.643,96.32C9.974,93.906 6.036,88.616 6.036,82.483C6.036,81.083 6.241,79.726 6.626,78.437C-4.135,68.839 -1.45,50.445 7.051,45.965C-3.693,24.315 15.24,9.575 26.358,11.371C28.745,5.665 34.751,1.612 41.776,1.612C47.731,1.612 52.954,4.524 55.86,8.887L55.86,99.129Z" style="fill:rgb(237,138,159);"/>
            <clipPath id="_clip2">
                <path d="M55.86,99.129C54.193,105.913 47.609,110.984 39.751,110.984C33.808,110.984 28.594,108.083 25.684,103.735C25.437,103.753 25.188,103.762 24.936,103.762C20.202,103.762 16.283,100.524 15.643,96.32C9.974,93.906 6.036,88.616 6.036,82.483C6.036,81.083 6.241,79.726 6.626,78.437C-4.135,68.839 -1.45,50.445 7.051,45.965C-3.693,24.315 15.24,9.575 26.358,11.371C28.745,5.665 34.751,1.612 41.776,1.612C47.731,1.612 52.954,4.524 55.86,8.887L55.86,99.129Z"/>
            </clipPath>
            <g clip-path="url(#_clip2)">
                <g transform="matrix(1,0,0,1,0.121141,3.99604)">
                    <path d="M54.98,13.192C51.052,8.628 43.639,5.874 38,6.88" style="fill:none;stroke:rgb(231,90,112);stroke-width:3.5px;"/>
                </g>
                <g transform="matrix(1,0,0,1,-6.51512,2.13603)">
                    <path d="M32.286,29.688C34.601,21.318 42.595,20.31 46.133,20.6" style="fill:none;stroke:rgb(231,90,112);stroke-width:3.5px;"/>
                </g>
                <g transform="matrix(0.510215,0.860047,-0.860047,0.510215,24.9363,-35.7348)">
                    <path d="M32.286,29.688C34.601,21.318 42.595,20.31 46.133,20.6" style="fill:none;stroke:rgb(231,90,112);stroke-width:3.5px;"/>
                </g>
                <g transform="matrix(111.061,14.476,-14.476,111.061,12.9218,-3.53091)">
                    <path d="M0.303,0.887C0.303,0.887 0.349,0.865 0.361,0.806" style="fill:none;stroke:rgb(231,90,112);stroke-width:0.03px;"/>
                </g>
                <g transform="matrix(111.061,14.476,-14.476,111.061,12.9218,-3.53091)">
                    <path d="M0.325,0.77C0.325,0.77 0.354,0.82 0.417,0.818" style="fill:none;stroke:rgb(231,90,112);stroke-width:0.03px;"/>
                </g>
                <g transform="matrix(1,0,0,1,-4.298,1.05307)">
                    <path d="M11.614,78.642C16.865,80.76 21.586,79.558 25.988,76.359C24.503,79.661 23.047,82.974 25.078,87.555" style="fill:none;stroke:rgb(231,90,112);stroke-width:3.5px;"/>
                </g>
                <g transform="matrix(0.875247,0.483675,-0.483675,0.875247,24.6114,-6.16812)">
                    <path d="M49.416,58.871C42.453,55.079 33.495,55.121 28.196,60.879" style="fill:none;stroke:rgb(231,90,112);stroke-width:3.5px;"/>
                </g>
                <g transform="matrix(1,0,0,1,-14.8518,-9.16265)">
                    <path d="M49.416,58.871C45.091,49.579 24.436,49.667 20.343,54.024" style="fill:none;stroke:rgb(231,90,112);stroke-width:3.5px;"/>
                </g>
            </g>
        </g>
        <g transform="matrix(72.2266,0,0,102.271,22.6282,6.37963)">
            <path d="M0.531,0.128C0.531,0.118 0.52,0.11 0.505,0.11C0.491,0.11 0.48,0.118 0.48,0.128L0.48,0.84C0.48,0.85 0.491,0.858 0.505,0.858C0.52,0.858 0.531,0.85 0.531,0.84L0.531,0.128Z" style="fill:rgb(231,90,112);"/>
        </g>
    </g>
</svg>
