<?xml version="1.0" encoding="UTF-8" standalone="no"?>
<!DOCTYPE svg PUBLIC "-//W3C//DTD SVG 1.1//EN" "http://www.w3.org/Graphics/SVG/1.1/DTD/svg11.dtd">
<svg width="100%" height="100%" viewBox="0 0 512 512" version="1.1" xmlns="http://www.w3.org/2000/svg" xmlns:xlink="http://www.w3.org/1999/xlink" xml:space="preserve" xmlns:serif="http://www.serif.com/" style="fill-rule:evenodd;clip-rule:evenodd;stroke-linejoin:round;stroke-miterlimit:2;">
    <g id="BulletIcon" transform="matrix(4.60618,0,0,5.60919,-999.46,-34773)">
        <g transform="matrix(1.18983,0,0,0.978031,-1171.66,160.622)">
            <rect x="1202.6" y="6250.12" width="22.422" height="9.906" style="fill:rgb(80,78,63);"/>
            <clipPath id="_clip1">
                <rect x="1202.6" y="6250.12" width="22.422" height="9.906"/>
            </clipPath>
            <g clip-path="url(#_clip1)">
                <g transform="matrix(0.728463,0,0,0.196837,305.363,5030.07)">
                    <rect x="1247.13" y="6207.64" width="19.58" height="45.422" style="fill:rgb(69,67,55);"/>
                </g>
            </g>
        </g>
        <g transform="matrix(1.15346,0,0,0.978031,-1127.78,160.622)">
            <path d="M1227.4,6260.1C1227.4,6259.3 1226.73,6258.66 1225.91,6258.66L1202.15,6258.66C1201.33,6258.66 1200.66,6259.3 1200.66,6260.1L1200.66,6263C1200.66,6263.8 1201.33,6264.45 1202.15,6264.45L1225.91,6264.45C1226.73,6264.45 1227.4,6263.8 1227.4,6263L1227.4,6260.1Z" style="fill:rgb(141,136,109);"/>
            <clipPath id="_clip2">
                <path d="M1227.4,6260.1C1227.4,6259.3 1226.73,6258.66 1225.91,6258.66L1202.15,6258.66C1201.33,6258.66 1200.66,6259.3 1200.66,6260.1L1200.66,6263C1200.66,6263.8 1201.33,6264.45 1202.15,6264.45L1225.91,6264.45C1226.73,6264.45 1227.4,6263.8 1227.4,6263L1227.4,6260.1Z"/>
            </clipPath>
            <g clip-path="url(#_clip2)">
                <g transform="matrix(0.751428,0,0,0.196837,276.949,5035.06)">
                    <rect x="1247.13" y="6207.64" width="19.58" height="45.422" style="fill:rgb(124,120,96);"/>
                </g>
            </g>
        </g>
        <g transform="matrix(1.10817,0,0,0.978031,-1072,171.976)">
            <path d="M1225.36,6188.39C1225.36,6177.8 1217.52,6165.92 1213.32,6165.92C1209.12,6165.92 1201.28,6178.4 1201.28,6188.39L1201.28,6210.5C1201.28,6216.68 1206.67,6221.7 1213.32,6221.7C1219.96,6221.7 1225.36,6216.68 1225.36,6210.5L1225.36,6188.39Z" style="fill:rgb(186,186,186);"/>
            <clipPath id="_clip3">
                <path d="M1225.36,6188.39C1225.36,6177.8 1217.52,6165.92 1213.32,6165.92C1209.12,6165.92 1201.28,6178.4 1201.28,6188.39L1201.28,6210.5C1201.28,6216.68 1206.67,6221.7 1213.32,6221.7C1219.96,6221.7 1225.36,6216.68 1225.36,6210.5L1225.36,6188.39Z"/>
            </clipPath>
            <g clip-path="url(#_clip3)">
                <g transform="matrix(1.07475,0,0,0.88241,-126.983,687.083)">
                    <rect x="1247.13" y="6207.64" width="19.58" height="45.422" style="fill:rgb(165,165,165);"/>
                </g>
            </g>
        </g>
        <g transform="matrix(1.19114,0,0,0.978031,-1173.07,160.622)">
            <path d="M1226.59,6210.83C1226.59,6210.11 1226.01,6209.53 1225.3,6209.53L1201.99,6209.53C1201.28,6209.53 1200.7,6210.11 1200.7,6210.83L1200.7,6252.08C1200.7,6252.79 1201.28,6253.37 1201.99,6253.37L1225.3,6253.37C1226.01,6253.37 1226.59,6252.79 1226.59,6252.08L1226.59,6210.83Z" style="fill:rgb(141,136,109);"/>
            <clipPath id="_clip4">
                <path d="M1226.59,6210.83C1226.59,6210.11 1226.01,6209.53 1225.3,6209.53L1201.99,6209.53C1201.28,6209.53 1200.7,6210.11 1200.7,6210.83L1200.7,6252.08C1200.7,6252.79 1201.28,6253.37 1201.99,6253.37L1225.3,6253.37C1226.01,6253.37 1226.59,6252.79 1226.59,6252.08L1226.59,6210.83Z"/>
            </clipPath>
            <g clip-path="url(#_clip4)">
                <g transform="matrix(0.99988,0,0,1.05523,-33.2887,-343.007)">
                    <rect x="1247.13" y="6207.64" width="19.58" height="45.422" style="fill:rgb(124,120,96);"/>
                </g>
            </g>
        </g>
    </g>
</svg>
