<?xml version="1.0" encoding="UTF-8" standalone="no"?>
<!DOCTYPE svg PUBLIC "-//W3C//DTD SVG 1.1//EN" "http://www.w3.org/Graphics/SVG/1.1/DTD/svg11.dtd">
<svg width="100%" height="100%" viewBox="0 0 512 512" version="1.1" xmlns="http://www.w3.org/2000/svg" xmlns:xlink="http://www.w3.org/1999/xlink" xml:space="preserve" xmlns:serif="http://www.serif.com/" style="fill-rule:evenodd;clip-rule:evenodd;stroke-linejoin:round;stroke-miterlimit:2;">
    <g id="CastleIcon" transform="matrix(2.93477,0,0,2.93477,-4242.86,-2731.48)">
        <g transform="matrix(1.27518,0,0,1.31204,-421.139,-293.839)">
            <path d="M1578.87,945.297C1568.58,936.36 1546.32,944.483 1533.3,938.728L1533.3,956.344C1544.56,962.841 1563.19,944.178 1578.87,945.297Z" style="fill:rgb(237,108,72);"/>
        </g>
        <g transform="matrix(1,0,0,1.29711,-1.0193,-277.464)">
            <path d="M1536.38,934.817C1536.38,934.305 1535.84,933.89 1535.17,933.89L1532.77,933.89C1532.1,933.89 1531.56,934.305 1531.56,934.817L1531.56,974.247C1531.56,974.758 1532.1,975.174 1532.77,975.174L1535.17,975.174C1535.84,975.174 1536.38,974.758 1536.38,974.247L1536.38,934.817Z" style="fill:rgb(168,76,62);"/>
        </g>
        <g transform="matrix(1,0,0,1,-1,0)">
            <g transform="matrix(1,0,0,1,6.74545,3.70938)">
                <path d="M1505.7,1077.35L1462.14,1077.35C1462.14,1077.35 1462.03,1026.67 1462.01,1016.24C1462,1015.74 1462.2,1015.27 1462.55,1014.92C1462.9,1014.57 1463.37,1014.37 1463.87,1014.37C1466.48,1014.37 1471.19,1014.37 1473.8,1014.37C1474.83,1014.37 1475.66,1015.2 1475.66,1016.23C1475.66,1019.35 1475.66,1025.29 1475.66,1025.29C1475.66,1029.53 1479.11,1032.98 1483.35,1032.98C1487.59,1032.98 1491.04,1029.53 1491.04,1025.29L1491.04,1016.23C1491.04,1015.74 1491.23,1015.26 1491.58,1014.92C1491.93,1014.57 1492.4,1014.37 1492.9,1014.37C1495.68,1014.37 1500.62,1014.37 1500.62,1014.37L1505.7,1077.35Z" style="fill:rgb(207,145,107);"/>
                <clipPath id="_clip1">
                    <path d="M1505.7,1077.35L1462.14,1077.35C1462.14,1077.35 1462.03,1026.67 1462.01,1016.24C1462,1015.74 1462.2,1015.27 1462.55,1014.92C1462.9,1014.57 1463.37,1014.37 1463.87,1014.37C1466.48,1014.37 1471.19,1014.37 1473.8,1014.37C1474.83,1014.37 1475.66,1015.2 1475.66,1016.23C1475.66,1019.35 1475.66,1025.29 1475.66,1025.29C1475.66,1029.53 1479.11,1032.98 1483.35,1032.98C1487.59,1032.98 1491.04,1029.53 1491.04,1025.29L1491.04,1016.23C1491.04,1015.74 1491.23,1015.26 1491.58,1014.92C1491.93,1014.57 1492.4,1014.37 1492.9,1014.37C1495.68,1014.37 1500.62,1014.37 1500.62,1014.37L1505.7,1077.35Z"/>
                </clipPath>
                <g clip-path="url(#_clip1)">
                    <g transform="matrix(1.86098,0,0,2.05033,-1266.66,-1020.26)">
                        <rect x="1477.2" y="989.223" width="22.625" height="37.336" style="fill:rgb(173,119,84);"/>
                    </g>
                </g>
            </g>
            <g transform="matrix(1,0,0,1,553.012,44.3343)">
                <path d="M950.956,1035.3L954.739,1054.99L913.061,1054.99C910.345,1054.99 908.139,1052.78 908.139,1050.07L908.139,1040.22C908.139,1037.51 910.344,1035.3 913.061,1035.3L950.956,1035.3Z" style="fill:rgb(222,167,133);"/>
                <clipPath id="_clip2">
                    <path d="M950.956,1035.3L954.739,1054.99L913.061,1054.99C910.345,1054.99 908.139,1052.78 908.139,1050.07L908.139,1040.22C908.139,1037.51 910.344,1035.3 913.061,1035.3L950.956,1035.3Z"/>
                </clipPath>
                <g clip-path="url(#_clip2)">
                    <g transform="matrix(1.86098,0,0,0.870236,-1812.93,167.894)">
                        <rect x="1477.2" y="989.223" width="22.625" height="37.336" style="fill:rgb(203,137,97);"/>
                    </g>
                </g>
            </g>
        </g>
        <g transform="matrix(-1,0,0,1,3066.9,0)">
            <g transform="matrix(1,0,0,1,6.74545,3.70938)">
                <path d="M1505.7,1077.35L1462.14,1077.35C1462.14,1077.35 1462.03,1026.67 1462.01,1016.24C1462,1015.74 1462.2,1015.27 1462.55,1014.92C1462.9,1014.57 1463.37,1014.37 1463.87,1014.37C1466.48,1014.37 1471.19,1014.37 1473.8,1014.37C1474.83,1014.37 1475.66,1015.2 1475.66,1016.23C1475.66,1019.35 1475.66,1025.29 1475.66,1025.29C1475.66,1029.53 1479.11,1032.98 1483.35,1032.98C1487.59,1032.98 1491.04,1029.53 1491.04,1025.29L1491.04,1016.23C1491.04,1015.74 1491.23,1015.26 1491.58,1014.92C1491.93,1014.57 1492.4,1014.37 1492.9,1014.37C1495.68,1014.37 1500.62,1014.37 1500.62,1014.37L1505.7,1077.35Z" style="fill:rgb(207,145,107);"/>
                <clipPath id="_clip3">
                    <path d="M1505.7,1077.35L1462.14,1077.35C1462.14,1077.35 1462.03,1026.67 1462.01,1016.24C1462,1015.74 1462.2,1015.27 1462.55,1014.92C1462.9,1014.57 1463.37,1014.37 1463.87,1014.37C1466.48,1014.37 1471.19,1014.37 1473.8,1014.37C1474.83,1014.37 1475.66,1015.2 1475.66,1016.23C1475.66,1019.35 1475.66,1025.29 1475.66,1025.29C1475.66,1029.53 1479.11,1032.98 1483.35,1032.98C1487.59,1032.98 1491.04,1029.53 1491.04,1025.29L1491.04,1016.23C1491.04,1015.74 1491.23,1015.26 1491.58,1014.92C1491.93,1014.57 1492.4,1014.37 1492.9,1014.37C1495.68,1014.37 1500.62,1014.37 1500.62,1014.37L1505.7,1077.35Z"/>
                </clipPath>
                <g clip-path="url(#_clip3)">
                    <g transform="matrix(1.86098,0,0,2.05033,-1266.66,-1020.26)">
                        <rect x="1477.2" y="989.223" width="22.625" height="37.336" style="fill:rgb(173,119,84);"/>
                    </g>
                </g>
            </g>
            <g transform="matrix(1,0,0,1,553.012,44.3343)">
                <path d="M950.956,1035.3L954.739,1054.99L913.061,1054.99C910.345,1054.99 908.139,1052.78 908.139,1050.07L908.139,1040.22C908.139,1037.51 910.344,1035.3 913.061,1035.3L950.956,1035.3Z" style="fill:rgb(222,167,133);"/>
                <clipPath id="_clip4">
                    <path d="M950.956,1035.3L954.739,1054.99L913.061,1054.99C910.345,1054.99 908.139,1052.78 908.139,1050.07L908.139,1040.22C908.139,1037.51 910.344,1035.3 913.061,1035.3L950.956,1035.3Z"/>
                </clipPath>
                <g clip-path="url(#_clip4)">
                    <g transform="matrix(1.86098,0,0,0.870236,-1812.93,167.894)">
                        <rect x="1477.2" y="989.223" width="22.625" height="37.336" style="fill:rgb(203,137,97);"/>
                    </g>
                </g>
            </g>
        </g>
        <g transform="matrix(1,0,0,1,-0.865741,0)">
            <g transform="matrix(0.983783,0,0,1,24.379,-2.93065)">
                <path d="M1540.43,979.001C1540.94,979.001 1541.42,979.198 1541.77,979.547C1542.13,979.896 1542.33,980.369 1542.33,980.862C1542.33,983.045 1542.33,986.368 1542.33,986.368C1542.33,990.224 1545.46,993.355 1549.31,993.355C1553.17,993.355 1556.3,990.224 1556.3,986.368L1556.3,980.862C1556.3,980.369 1556.5,979.896 1556.85,979.547C1557.21,979.198 1557.69,979.001 1558.19,979.001C1561.36,979.001 1567.7,979.001 1570.86,979.001C1571.91,979.001 1572.76,979.835 1572.76,980.862C1572.76,984.016 1572.76,990.322 1572.76,992.951C1572.76,993.727 1572.51,994.483 1572.05,995.115C1568.43,1000.09 1552.14,1022.53 1552.14,1022.53L1516.49,1022.53C1516.49,1022.53 1500.19,1000.09 1496.57,995.115C1496.12,994.483 1495.87,993.727 1495.87,992.951C1495.87,990.322 1495.87,984.016 1495.87,980.862C1495.87,979.835 1496.72,979.001 1497.76,979.001C1500.93,979.001 1507.27,979.001 1510.43,979.001C1510.93,979.001 1511.42,979.198 1511.77,979.547C1512.13,979.896 1512.33,980.369 1512.33,980.862C1512.33,983.045 1512.33,986.368 1512.33,986.368C1512.33,990.224 1515.46,993.355 1519.31,993.355C1523.17,993.355 1526.3,990.224 1526.3,986.368L1526.3,980.862C1526.3,980.369 1526.5,979.896 1526.85,979.547C1527.21,979.198 1527.69,979.001 1528.19,979.001C1531.27,979.001 1537.35,979.001 1540.43,979.001Z" style="fill:rgb(229,187,161);"/>
                <clipPath id="_clip5">
                    <path d="M1540.43,979.001C1540.94,979.001 1541.42,979.198 1541.77,979.547C1542.13,979.896 1542.33,980.369 1542.33,980.862C1542.33,983.045 1542.33,986.368 1542.33,986.368C1542.33,990.224 1545.46,993.355 1549.31,993.355C1553.17,993.355 1556.3,990.224 1556.3,986.368L1556.3,980.862C1556.3,980.369 1556.5,979.896 1556.85,979.547C1557.21,979.198 1557.69,979.001 1558.19,979.001C1561.36,979.001 1567.7,979.001 1570.86,979.001C1571.91,979.001 1572.76,979.835 1572.76,980.862C1572.76,984.016 1572.76,990.322 1572.76,992.951C1572.76,993.727 1572.51,994.483 1572.05,995.115C1568.43,1000.09 1552.14,1022.53 1552.14,1022.53L1516.49,1022.53C1516.49,1022.53 1500.19,1000.09 1496.57,995.115C1496.12,994.483 1495.87,993.727 1495.87,992.951C1495.87,990.322 1495.87,984.016 1495.87,980.862C1495.87,979.835 1496.72,979.001 1497.76,979.001C1500.93,979.001 1507.27,979.001 1510.43,979.001C1510.93,979.001 1511.42,979.198 1511.77,979.547C1512.13,979.896 1512.33,980.369 1512.33,980.862C1512.33,983.045 1512.33,986.368 1512.33,986.368C1512.33,990.224 1515.46,993.355 1519.31,993.355C1523.17,993.355 1526.3,990.224 1526.3,986.368L1526.3,980.862C1526.3,980.369 1526.5,979.896 1526.85,979.547C1527.21,979.198 1527.69,979.001 1528.19,979.001C1531.27,979.001 1537.35,979.001 1540.43,979.001Z"/>
                </clipPath>
                <g clip-path="url(#_clip5)">
                    <g transform="matrix(1.86098,0,0,1.86098,-1215.19,-885.118)">
                        <rect x="1477.2" y="989.223" width="22.625" height="37.336" style="fill:rgb(217,161,126);"/>
                    </g>
                </g>
            </g>
            <path d="M1560.71,1006.49L1565.71,1096.78L1501.92,1096.78L1506.92,1006.49L1560.71,1006.49Z" style="fill:rgb(216,165,134);"/>
            <clipPath id="_clip6">
                <path d="M1560.71,1006.49L1565.71,1096.78L1501.92,1096.78L1506.92,1006.49L1560.71,1006.49Z"/>
            </clipPath>
            <g clip-path="url(#_clip6)">
                <g transform="matrix(1.86098,0,0,2.3224,-1215.19,-1292.09)">
                    <rect x="1477.2" y="989.223" width="22.625" height="37.336" style="fill:rgb(195,138,100);"/>
                </g>
            </g>
            <g transform="matrix(1.24556,0,0,1.59365,-304.89,-607.501)">
                <path d="M1483.23,1030.79C1483.23,1027.76 1480.09,1025.31 1476.22,1025.31C1472.35,1025.31 1469.21,1027.76 1469.21,1030.79L1469.21,1046.6L1483.23,1046.6L1483.23,1030.79Z" style="fill:rgb(19,94,127);"/>
                <clipPath id="_clip7">
                    <path d="M1483.23,1030.79C1483.23,1027.76 1480.09,1025.31 1476.22,1025.31C1472.35,1025.31 1469.21,1027.76 1469.21,1030.79L1469.21,1046.6L1483.23,1046.6L1483.23,1030.79Z"/>
                </clipPath>
                <g clip-path="url(#_clip7)">
                    <g transform="matrix(1,0,0,1,-1.13687e-13,-3.11427)">
                        <path d="M1483.23,1030.79C1483.23,1027.76 1480.09,1025.31 1476.22,1025.31C1472.35,1025.31 1469.21,1027.76 1469.21,1030.79L1469.21,1046.6L1483.23,1046.6L1483.23,1030.79Z" style="fill:rgb(62,128,156);"/>
                    </g>
                </g>
            </g>
            <path d="M1571.9,1087.27C1571.9,1084.55 1569.7,1082.35 1566.98,1082.35L1500.65,1082.35C1497.93,1082.35 1495.73,1084.55 1495.73,1087.27L1495.73,1097.11C1495.73,1099.83 1497.93,1102.03 1500.65,1102.03L1566.98,1102.03C1569.7,1102.03 1571.9,1099.83 1571.9,1097.11L1571.9,1087.27Z" style="fill:rgb(228,194,172);"/>
            <clipPath id="_clip8">
                <path d="M1571.9,1087.27C1571.9,1084.55 1569.7,1082.35 1566.98,1082.35L1500.65,1082.35C1497.93,1082.35 1495.73,1084.55 1495.73,1087.27L1495.73,1097.11C1495.73,1099.83 1497.93,1102.03 1500.65,1102.03L1566.98,1102.03C1569.7,1102.03 1571.9,1099.83 1571.9,1097.11L1571.9,1087.27Z"/>
            </clipPath>
            <g clip-path="url(#_clip8)">
                <g transform="matrix(1.86098,0,0,1.48582,-1215.19,-403.638)">
                    <rect x="1477.2" y="989.223" width="22.625" height="37.336" style="fill:rgb(214,162,129);"/>
                </g>
            </g>
        </g>
    </g>
</svg>
