<?xml version="1.0" encoding="UTF-8" standalone="no"?>
<!DOCTYPE svg PUBLIC "-//W3C//DTD SVG 1.1//EN" "http://www.w3.org/Graphics/SVG/1.1/DTD/svg11.dtd">
<svg width="100%" height="100%" viewBox="0 0 512 512" version="1.1" xmlns="http://www.w3.org/2000/svg" xmlns:xlink="http://www.w3.org/1999/xlink" xml:space="preserve" xmlns:serif="http://www.serif.com/" style="fill-rule:evenodd;clip-rule:evenodd;stroke-linejoin:round;stroke-miterlimit:2;">
    <g id="CauldronIcon" transform="matrix(2.51725,0,0,3.06539,-1397.73,-18200.7)">
        <g transform="matrix(1.40358,0,0,1.22323,-1362.97,-1310.39)">
            <path d="M1495.59,6004.87C1495.59,5982.67 1476.46,5964.64 1452.89,5964.64L1425.36,5964.64C1401.8,5964.64 1382.67,5982.67 1382.67,6004.87C1382.67,6027.07 1401.8,6045.1 1425.36,6045.1L1452.89,6045.1C1476.46,6045.1 1495.59,6027.07 1495.59,6004.87Z" style="fill:rgb(112,137,156);"/>
            <clipPath id="_clip1">
                <path d="M1495.59,6004.87C1495.59,5982.67 1476.46,5964.64 1452.89,5964.64L1425.36,5964.64C1401.8,5964.64 1382.67,5982.67 1382.67,6004.87C1382.67,6027.07 1401.8,6045.1 1425.36,6045.1L1452.89,6045.1C1476.46,6045.1 1495.59,6027.07 1495.59,6004.87Z"/>
            </clipPath>
            <g clip-path="url(#_clip1)">
                <g transform="matrix(0.883471,0,0,0.767501,52.8285,1376.61)">
                    <rect x="1569.33" y="5968.1" width="87.004" height="118.223" style="fill:rgb(98,124,149);"/>
                </g>
            </g>
        </g>
        <g transform="matrix(1,0,0,1,0,-6.19456)">
            <g transform="matrix(1.79594,0.851477,-0.908118,1.29165,3820.69,-3073.14)">
                <path d="M1330.59,6175.91C1330.59,6173.88 1329.14,6172.23 1327.36,6172.23L1312.28,6172.23C1310.5,6172.23 1309.06,6173.88 1309.06,6175.91C1309.06,6177.94 1310.5,6179.59 1312.28,6179.59L1327.36,6179.59C1329.14,6179.59 1330.59,6177.94 1330.59,6175.91Z" style="fill:rgb(112,137,156);"/>
            </g>
            <g transform="matrix(-1.70465,0.808193,0.908118,1.29165,-2626.28,-3016.48)">
                <path d="M1330.59,6175.91C1330.59,6173.88 1329.06,6172.23 1327.19,6172.23L1312.45,6172.23C1310.58,6172.23 1309.06,6173.88 1309.06,6175.91C1309.06,6177.94 1310.58,6179.59 1312.45,6179.59L1327.19,6179.59C1329.06,6179.59 1330.59,6177.94 1330.59,6175.91Z" style="fill:rgb(98,124,149);"/>
            </g>
        </g>
        <g transform="matrix(1.191,0,0,0.978031,-1206.15,123.662)">
            <circle cx="1523.42" cy="6026.55" r="8.189" style="fill:white;fill-opacity:0.19;"/>
        </g>
        <g transform="matrix(1,0,0,1,3.23872,0)">
            <g transform="matrix(1.191,0,0,0.978031,-1071.31,152.545)">
                <circle cx="1423.22" cy="5960.42" r="15.986" style="fill:rgb(184,96,137);"/>
            </g>
            <g transform="matrix(1.191,0,0,0.978031,-1041.33,144.038)">
                <circle cx="1423.22" cy="5960.42" r="15.986" style="fill:rgb(184,96,137);"/>
            </g>
            <g transform="matrix(1.191,0,0,0.978031,-1011.35,152.545)">
                <circle cx="1423.22" cy="5960.42" r="15.986" style="fill:rgb(184,96,137);"/>
            </g>
        </g>
        <g transform="matrix(1.191,0,0,0.978031,-1063.45,158.683)">
            <path d="M1508.76,5961.67C1508.76,5955.7 1503.92,5950.86 1497.95,5950.86L1391.07,5950.86C1385.1,5950.86 1380.25,5955.7 1380.25,5961.67C1380.25,5967.64 1385.1,5972.49 1391.07,5972.49L1497.95,5972.49C1503.92,5972.49 1508.76,5967.64 1508.76,5961.67Z" style="fill:rgb(112,137,156);"/>
            <clipPath id="_clip2">
                <path d="M1508.76,5961.67C1508.76,5955.7 1503.92,5950.86 1497.95,5950.86L1391.07,5950.86C1385.1,5950.86 1380.25,5955.7 1380.25,5961.67C1380.25,5967.64 1385.1,5972.49 1391.07,5972.49L1497.95,5972.49C1503.92,5972.49 1508.76,5967.64 1508.76,5961.67Z"/>
            </clipPath>
            <g clip-path="url(#_clip2)">
                <g transform="matrix(0.7682,0,0,0.224043,239.126,4610.85)">
                    <rect x="1569.33" y="5968.1" width="87.004" height="118.223" style="fill:rgb(98,124,149);"/>
                </g>
            </g>
        </g>
    </g>
</svg>
