<?xml version="1.0" encoding="UTF-8" standalone="no"?>
<!DOCTYPE svg PUBLIC "-//W3C//DTD SVG 1.1//EN" "http://www.w3.org/Graphics/SVG/1.1/DTD/svg11.dtd">
<svg width="100%" height="100%" viewBox="0 0 512 512" version="1.1" xmlns="http://www.w3.org/2000/svg" xmlns:xlink="http://www.w3.org/1999/xlink" xml:space="preserve" xmlns:serif="http://www.serif.com/" style="fill-rule:evenodd;clip-rule:evenodd;stroke-linejoin:round;stroke-miterlimit:2;">
    <g id="CauldronDarkIcon" transform="matrix(2.53795,0,0,3.0906,-1411.33,-18289.5)">
        <g transform="matrix(1.34809,0,0,1.07222,-1283.12,-414.007)">
            <path d="M1495.59,6004.87C1495.59,5982.67 1478.13,5964.64 1456.62,5964.64L1421.63,5964.64C1400.13,5964.64 1382.67,5982.67 1382.67,6004.87C1382.67,6027.07 1400.13,6045.1 1421.63,6045.1L1456.62,6045.1C1478.13,6045.1 1495.59,6027.07 1495.59,6004.87Z" style="fill:rgb(65,80,96);"/>
            <clipPath id="_clip1">
                <path d="M1495.59,6004.87C1495.59,5982.67 1478.13,5964.64 1456.62,5964.64L1421.63,5964.64C1400.13,5964.64 1382.67,5982.67 1382.67,6004.87C1382.67,6027.07 1400.13,6045.1 1421.63,6045.1L1456.62,6045.1C1478.13,6045.1 1495.59,6027.07 1495.59,6004.87Z"/>
            </clipPath>
            <g clip-path="url(#_clip1)">
                <g transform="matrix(0.883471,0,0,0.618648,52.8285,2282.58)">
                    <rect x="1569.33" y="5968.1" width="87.004" height="118.223" style="fill:rgb(42,54,68);"/>
                </g>
            </g>
        </g>
        <g transform="matrix(1,0,0,1,0,-14.6301)">
            <g transform="matrix(1.39461,0.6612,-0.908118,1.29165,4346.06,-2824.06)">
                <path d="M1330.59,6175.91C1330.59,6173.88 1328.73,6172.23 1326.44,6172.23L1313.21,6172.23C1310.91,6172.23 1309.06,6173.88 1309.06,6175.91C1309.06,6177.94 1310.91,6179.59 1313.21,6179.59L1326.44,6179.59C1328.73,6179.59 1330.59,6177.94 1330.59,6175.91Z" style="fill:rgb(65,80,96);"/>
            </g>
            <g transform="matrix(-1.57291,0.745732,0.908118,1.29165,-2798.73,-2934.72)">
                <path d="M1330.59,6175.91C1330.59,6173.88 1328.94,6172.23 1326.91,6172.23L1312.74,6172.23C1310.7,6172.23 1309.06,6173.88 1309.06,6175.91C1309.06,6177.94 1310.7,6179.59 1312.74,6179.59L1326.91,6179.59C1328.94,6179.59 1330.59,6177.94 1330.59,6175.91Z" style="fill:rgb(42,54,68);"/>
            </g>
        </g>
        <g transform="matrix(1,0,0,1,0.828534,0)">
            <g transform="matrix(-0.908118,-1.29165,1.57291,-0.745732,-7812.58,12370.1)">
                <path d="M1330.59,6175.91C1330.59,6173.88 1328.94,6172.23 1326.91,6172.23L1312.74,6172.23C1310.7,6172.23 1309.06,6173.88 1309.06,6175.91C1309.06,6177.94 1310.7,6179.59 1312.74,6179.59L1326.91,6179.59C1328.94,6179.59 1330.59,6177.94 1330.59,6175.91Z" style="fill:rgb(42,54,68);"/>
            </g>
            <g transform="matrix(0.908118,-1.29165,-1.57291,-0.745732,9124.85,12370.1)">
                <path d="M1330.59,6175.91C1330.59,6173.88 1328.94,6172.23 1326.91,6172.23L1312.74,6172.23C1310.7,6172.23 1309.06,6173.88 1309.06,6175.91C1309.06,6177.94 1310.7,6179.59 1312.74,6179.59L1326.91,6179.59C1328.94,6179.59 1330.59,6177.94 1330.59,6175.91Z" style="fill:rgb(65,80,96);"/>
            </g>
        </g>
        <g transform="matrix(1.191,0,0,0.978031,-1209.8,121.222)">
            <circle cx="1523.42" cy="6026.55" r="8.189" style="fill:rgb(124,135,157);"/>
        </g>
        <g transform="matrix(1,0,0,1,3.23872,0)">
            <g transform="matrix(1.191,0,0,0.978031,-1071.31,152.545)">
                <circle cx="1423.22" cy="5960.42" r="15.986" style="fill:rgb(184,96,137);"/>
            </g>
            <g transform="matrix(1.191,0,0,0.978031,-1041.33,144.038)">
                <circle cx="1423.22" cy="5960.42" r="15.986" style="fill:rgb(184,96,137);"/>
            </g>
            <g transform="matrix(0.704184,0,0,0.578265,-322.654,2506.38)">
                <circle cx="1423.22" cy="5960.42" r="15.986" style="fill:rgb(184,96,137);"/>
            </g>
            <g transform="matrix(0.54119,0,0,0.444417,-134.552,3296.51)">
                <circle cx="1423.22" cy="5960.42" r="15.986" style="fill:rgb(184,96,137);"/>
            </g>
            <g transform="matrix(0.457134,0,0,0.375392,10.7435,3695.31)">
                <circle cx="1423.22" cy="5960.42" r="15.986" style="fill:rgb(184,96,137);"/>
            </g>
            <g transform="matrix(1.191,0,0,0.978031,-1011.35,152.545)">
                <circle cx="1423.22" cy="5960.42" r="15.986" style="fill:rgb(184,96,137);"/>
            </g>
        </g>
        <g transform="matrix(1.191,0,0,0.978031,-1063.45,158.683)">
            <path d="M1508.76,5961.67C1508.76,5955.7 1503.92,5950.86 1497.95,5950.86L1391.07,5950.86C1385.1,5950.86 1380.25,5955.7 1380.25,5961.67C1380.25,5967.64 1385.1,5972.49 1391.07,5972.49L1497.95,5972.49C1503.92,5972.49 1508.76,5967.64 1508.76,5961.67Z" style="fill:rgb(65,80,96);"/>
            <clipPath id="_clip2">
                <path d="M1508.76,5961.67C1508.76,5955.7 1503.92,5950.86 1497.95,5950.86L1391.07,5950.86C1385.1,5950.86 1380.25,5955.7 1380.25,5961.67C1380.25,5967.64 1385.1,5972.49 1391.07,5972.49L1497.95,5972.49C1503.92,5972.49 1508.76,5967.64 1508.76,5961.67Z"/>
            </clipPath>
            <g clip-path="url(#_clip2)">
                <g transform="matrix(0.7682,0,0,0.224043,239.126,4610.85)">
                    <rect x="1569.33" y="5968.1" width="87.004" height="118.223" style="fill:rgb(42,54,68);"/>
                </g>
            </g>
        </g>
    </g>
</svg>
