<?xml version="1.0" encoding="UTF-8" standalone="no"?>
<!DOCTYPE svg PUBLIC "-//W3C//DTD SVG 1.1//EN" "http://www.w3.org/Graphics/SVG/1.1/DTD/svg11.dtd">
<svg width="100%" height="100%" viewBox="0 0 512 512" version="1.1" xmlns="http://www.w3.org/2000/svg" xmlns:xlink="http://www.w3.org/1999/xlink" xml:space="preserve" xmlns:serif="http://www.serif.com/" style="fill-rule:evenodd;clip-rule:evenodd;stroke-linejoin:round;stroke-miterlimit:2;">
    <g id="ChefHatIcon" transform="matrix(6.10886,0,0,6.10886,-7979.03,-5954.09)">
        <g transform="matrix(1,0,0,1,-40.9378,113.054)">
            <path d="M1373.59,875.782C1375.29,868.862 1381.54,863.723 1388.99,863.723C1396.43,863.723 1402.68,868.862 1404.38,875.782C1405.95,875.259 1407.64,874.976 1409.38,874.976C1418.13,874.976 1425.24,882.081 1425.24,890.833C1425.24,898.947 1419.13,905.646 1411.27,906.578L1411.27,938.635C1411.27,941.061 1409.3,943.031 1406.87,943.031L1371.1,943.031C1368.67,943.031 1366.7,941.061 1366.7,938.635L1366.7,906.578C1358.84,905.646 1352.73,898.947 1352.73,890.833C1352.73,882.081 1359.84,874.976 1368.59,874.976C1370.33,874.976 1372.02,875.259 1373.59,875.782Z" style="fill:white;"/>
            <clipPath id="_clip1">
                <path d="M1373.59,875.782C1375.29,868.862 1381.54,863.723 1388.99,863.723C1396.43,863.723 1402.68,868.862 1404.38,875.782C1405.95,875.259 1407.64,874.976 1409.38,874.976C1418.13,874.976 1425.24,882.081 1425.24,890.833C1425.24,898.947 1419.13,905.646 1411.27,906.578L1411.27,938.635C1411.27,941.061 1409.3,943.031 1406.87,943.031L1371.1,943.031C1368.67,943.031 1366.7,941.061 1366.7,938.635L1366.7,906.578C1358.84,905.646 1352.73,898.947 1352.73,890.833C1352.73,882.081 1359.84,874.976 1368.59,874.976C1370.33,874.976 1372.02,875.259 1373.59,875.782Z"/>
            </clipPath>
            <g clip-path="url(#_clip1)">
                <rect x="1389.07" y="852.421" width="47.84" height="100.135" style="fill:rgb(216,220,228);"/>
            </g>
        </g>
        <g transform="matrix(0.934853,0,0,0.934853,88.4173,68.458)">
            <path d="M1373.63,1047.85C1373.63,1046.21 1372.3,1044.88 1370.66,1044.88L1324.16,1044.88C1322.52,1044.88 1321.19,1046.21 1321.19,1047.85L1321.19,1053.78C1321.19,1055.42 1322.52,1056.75 1324.16,1056.75L1370.66,1056.75C1372.3,1056.75 1373.63,1055.42 1373.63,1053.78L1373.63,1047.85Z" style="fill:rgb(216,220,228);"/>
            <clipPath id="_clip2">
                <path d="M1373.63,1047.85C1373.63,1046.21 1372.3,1044.88 1370.66,1044.88L1324.16,1044.88C1322.52,1044.88 1321.19,1046.21 1321.19,1047.85L1321.19,1053.78C1321.19,1055.42 1322.52,1056.75 1324.16,1056.75L1370.66,1056.75C1372.3,1056.75 1373.63,1055.42 1373.63,1053.78L1373.63,1047.85Z"/>
            </clipPath>
            <g clip-path="url(#_clip2)">
                <g transform="matrix(0.602392,0,0,0.21984,510.73,851.32)">
                    <rect x="1389.07" y="852.421" width="47.84" height="100.135" style="fill:rgb(192,199,211);"/>
                </g>
            </g>
        </g>
    </g>
</svg>
