<?xml version="1.0" encoding="UTF-8" standalone="no"?>
<!DOCTYPE svg PUBLIC "-//W3C//DTD SVG 1.1//EN" "http://www.w3.org/Graphics/SVG/1.1/DTD/svg11.dtd">
<svg width="100%" height="100%" viewBox="0 0 512 512" version="1.1" xmlns="http://www.w3.org/2000/svg" xmlns:xlink="http://www.w3.org/1999/xlink" xml:space="preserve" xmlns:serif="http://www.serif.com/" style="fill-rule:evenodd;clip-rule:evenodd;stroke-linejoin:round;stroke-miterlimit:2;">
    <g id="ChestIcon" transform="matrix(4.54969,0,0,4.31758,-19299.2,-6628.33)">
        <g transform="matrix(0.67881,0,0,1.16704,3791.97,-3607.16)">
            <path d="M778.197,4414.96C778.197,4412.84 775.389,4411.12 771.931,4411.12L726.878,4411.12C723.42,4411.12 720.612,4412.84 720.612,4414.96L720.612,4422.64C720.612,4424.76 723.42,4426.48 726.878,4426.48L771.931,4426.48C775.389,4426.48 778.197,4424.76 778.197,4422.64L778.197,4414.96Z" style="fill:rgb(156,92,50);"/>
        </g>
        <g transform="matrix(0.957992,0,0,0.901812,3582.13,-2457.91)">
            <path d="M801.748,4445.83C801.748,4441.85 798.864,4438.62 795.311,4438.62L699.135,4438.62C695.583,4438.62 692.698,4441.85 692.698,4445.83L692.698,4502.54C692.698,4506.52 695.583,4509.75 699.135,4509.75L795.311,4509.75C798.864,4509.75 801.748,4506.52 801.748,4502.54L801.748,4445.83Z" style="fill:rgb(192,126,82);"/>
            <clipPath id="_clip1">
                <path d="M801.748,4445.83C801.748,4441.85 798.864,4438.62 795.311,4438.62L699.135,4438.62C695.583,4438.62 692.698,4441.85 692.698,4445.83L692.698,4502.54C692.698,4506.52 695.583,4509.75 699.135,4509.75L795.311,4509.75C798.864,4509.75 801.748,4506.52 801.748,4502.54L801.748,4445.83Z"/>
            </clipPath>
            <g clip-path="url(#_clip1)">
                <g transform="matrix(1.32331,0,0,1.21371,-249.903,-913.846)">
                    <rect x="753.284" y="4396.83" width="47.03" height="60.127" style="fill:rgb(169,104,61);"/>
                </g>
            </g>
        </g>
        <g transform="matrix(0.829047,0,0,0.850319,3678.48,-2222.13)">
            <path d="M801.748,4443.63C801.748,4440.86 799.565,4438.62 796.875,4438.62L697.571,4438.62C694.882,4438.62 692.698,4440.86 692.698,4443.63L692.698,4504.74C692.698,4507.51 694.882,4509.75 697.571,4509.75L796.875,4509.75C799.565,4509.75 801.748,4507.51 801.748,4504.74L801.748,4443.63Z" style="fill:rgb(139,84,57);"/>
            <clipPath id="_clip2">
                <path d="M801.748,4443.63C801.748,4440.86 799.565,4438.62 796.875,4438.62L697.571,4438.62C694.882,4438.62 692.698,4440.86 692.698,4443.63L692.698,4504.74C692.698,4507.51 694.882,4509.75 697.571,4509.75L796.875,4509.75C799.565,4509.75 801.748,4507.51 801.748,4504.74L801.748,4443.63Z"/>
            </clipPath>
            <g clip-path="url(#_clip2)">
                <g transform="matrix(1.25288,0,0,1.28721,-196.893,-1246.47)">
                    <rect x="753.284" y="4396.83" width="47.03" height="60.127" style="fill:rgb(120,73,50);"/>
                </g>
            </g>
        </g>
        <g transform="matrix(0.957992,0,0,0.829077,3582.13,-2091.8)">
            <path d="M801.748,4445.83C801.748,4441.85 799.097,4438.62 795.83,4438.62L698.616,4438.62C695.35,4438.62 692.698,4441.85 692.698,4445.83L692.698,4502.54C692.698,4506.52 695.35,4509.75 698.616,4509.75L795.83,4509.75C799.097,4509.75 801.748,4506.52 801.748,4502.54L801.748,4445.83Z" style="fill:rgb(190,126,94);"/>
            <clipPath id="_clip3">
                <path d="M801.748,4445.83C801.748,4441.85 799.097,4438.62 795.83,4438.62L698.616,4438.62C695.35,4438.62 692.698,4441.85 692.698,4445.83L692.698,4502.54C692.698,4506.52 695.35,4509.75 698.616,4509.75L795.83,4509.75C799.097,4509.75 801.748,4506.52 801.748,4502.54L801.748,4445.83Z"/>
            </clipPath>
            <g clip-path="url(#_clip3)">
                <g transform="matrix(1.32331,0,0,1.439,-249.903,-1895.27)">
                    <rect x="753.284" y="4396.83" width="47.03" height="60.127" style="fill:rgb(186,108,69);"/>
                </g>
            </g>
        </g>
        <g transform="matrix(0.780726,0,0,0.555371,3714.59,-866.189)">
            <path d="M801.748,4445.83C801.748,4441.85 799.569,4438.62 796.884,4438.62L697.563,4438.62C694.878,4438.62 692.698,4441.85 692.698,4445.83L692.698,4502.54C692.698,4506.52 694.878,4509.75 697.563,4509.75L796.884,4509.75C799.569,4509.75 801.748,4506.52 801.748,4502.54L801.748,4445.83Z" style="fill:rgb(172,97,60);"/>
            <clipPath id="_clip4">
                <path d="M801.748,4445.83C801.748,4441.85 799.569,4438.62 796.884,4438.62L697.563,4438.62C694.878,4438.62 692.698,4441.85 692.698,4445.83L692.698,4502.54C692.698,4506.52 694.878,4509.75 697.563,4509.75L796.884,4509.75C799.569,4509.75 801.748,4506.52 801.748,4502.54L801.748,4445.83Z"/>
            </clipPath>
            <g clip-path="url(#_clip4)">
                <g transform="matrix(1.62377,0,0,1.51684,-476.302,-2241.28)">
                    <rect x="753.284" y="4396.83" width="47.03" height="60.127" style="fill:rgb(155,88,54);"/>
                </g>
            </g>
        </g>
        <g transform="matrix(1.22642,0,0,1.29235,3375.34,-4180.94)">
            <path d="M795.666,4504.88C795.666,4506.37 795.073,4507.8 794.016,4508.86C792.96,4509.91 791.527,4510.51 790.033,4510.51C785.033,4510.51 778.515,4510.51 778.515,4510.51C778.814,4501.2 786.343,4493.7 795.666,4493.45L795.666,4504.88Z" style="fill:rgb(255,212,143);"/>
        </g>
        <g transform="matrix(-1.22642,0,0,1.29235,5220.94,-4180.94)">
            <path d="M795.666,4504.88C795.666,4506.37 795.073,4507.8 794.016,4508.86C792.96,4509.91 791.527,4510.51 790.033,4510.51C785.033,4510.51 778.515,4510.51 778.515,4510.51C778.814,4501.2 786.343,4493.7 795.666,4493.45L795.666,4504.88Z" style="fill:rgb(255,212,143);"/>
        </g>
        <g transform="matrix(1.22642,0,0,-1.29235,3375.34,7415.37)">
            <path d="M795.666,4504.88C795.666,4506.37 795.073,4507.8 794.016,4508.86C792.96,4509.91 791.527,4510.51 790.033,4510.51C785.033,4510.51 778.515,4510.51 778.515,4510.51C778.814,4501.2 786.343,4493.7 795.666,4493.45L795.666,4504.88Z" style="fill:rgb(255,212,143);"/>
        </g>
        <g transform="matrix(-1.22642,0,0,-1.29235,5220.94,7415.37)">
            <path d="M795.666,4504.88C795.666,4506.37 795.073,4507.8 794.016,4508.86C792.96,4509.91 791.527,4510.51 790.033,4510.51C785.033,4510.51 778.515,4510.51 778.515,4510.51C778.814,4501.2 786.343,4493.7 795.666,4493.45L795.666,4504.88Z" style="fill:rgb(255,212,143);"/>
        </g>
        <g transform="matrix(0.957992,0,0,0.814276,3580.62,-2041.84)">
            <path d="M761.025,4461.62C761.025,4457.44 758.286,4454.05 754.913,4454.05L742.69,4454.05C739.317,4454.05 736.579,4457.44 736.579,4461.62L736.579,4477.48C736.579,4481.66 739.317,4485.05 742.69,4485.05L754.913,4485.05C758.286,4485.05 761.025,4481.66 761.025,4477.48L761.025,4461.62Z" style="fill:rgb(234,166,70);"/>
        </g>
        <g transform="matrix(0.856638,0,0,0.902689,3658.01,-2435.21)">
            <circle cx="747.053" cy="4467.57" r="5.325" style="fill:rgb(124,74,67);"/>
        </g>
    </g>
</svg>
