<?xml version="1.0" encoding="UTF-8" standalone="no"?>
<!DOCTYPE svg PUBLIC "-//W3C//DTD SVG 1.1//EN" "http://www.w3.org/Graphics/SVG/1.1/DTD/svg11.dtd">
<svg width="100%" height="100%" viewBox="0 0 512 512" version="1.1" xmlns="http://www.w3.org/2000/svg" xmlns:xlink="http://www.w3.org/1999/xlink" xml:space="preserve" xmlns:serif="http://www.serif.com/" style="fill-rule:evenodd;clip-rule:evenodd;stroke-linejoin:round;stroke-miterlimit:2;">
    <g id="CircularSawBlade" transform="matrix(1.38662,0,0,1.38662,-1732.38,-1219.62)">
        <g transform="matrix(1,0,0,1,4.99173,24.9685)">
            <path d="M1431.13,922.23C1500.29,922.23 1556.43,978.374 1556.43,1047.53C1556.43,1116.68 1500.29,1172.83 1431.13,1172.83C1361.98,1172.83 1305.83,1116.68 1305.83,1047.53C1305.83,978.374 1361.98,922.23 1431.13,922.23ZM1431.13,957.075C1481.05,957.075 1521.58,997.605 1521.58,1047.53C1521.58,1097.45 1481.05,1137.98 1431.13,1137.98C1381.21,1137.98 1340.68,1097.45 1340.68,1047.53C1340.68,997.605 1381.21,957.075 1431.13,957.075Z" style="fill:rgb(187,194,207);"/>
            <clipPath id="_clip1">
                <path d="M1431.13,922.23C1500.29,922.23 1556.43,978.374 1556.43,1047.53C1556.43,1116.68 1500.29,1172.83 1431.13,1172.83C1361.98,1172.83 1305.83,1116.68 1305.83,1047.53C1305.83,978.374 1361.98,922.23 1431.13,922.23ZM1431.13,957.075C1481.05,957.075 1521.58,997.605 1521.58,1047.53C1521.58,1097.45 1481.05,1137.98 1431.13,1137.98C1381.21,1137.98 1340.68,1097.45 1340.68,1047.53C1340.68,997.605 1381.21,957.075 1431.13,957.075Z"/>
            </clipPath>
            <g clip-path="url(#_clip1)">
                <g transform="matrix(3.56969,0,0,3.56969,-5362.21,-1545.69)">
                    <rect x="1902.99" y="680.466" width="53.738" height="92.406" style="fill:rgb(111,122,144);"/>
                </g>
            </g>
        </g>
        <g transform="matrix(1.01064,0.708931,-0.708931,1.01064,697.058,-993.716)">
            <path d="M1378.9,917.667L1403.78,997.247L1354.02,997.247L1378.9,917.667Z" style="fill:rgb(187,194,207);"/>
        </g>
        <g transform="matrix(-0.31951,1.19243,-1.19243,-0.31951,3125.52,-328.901)">
            <path d="M1378.9,917.667L1403.78,997.247L1354.02,997.247L1378.9,917.667Z" style="fill:rgb(111,122,144);"/>
        </g>
        <g transform="matrix(-1.23449,2.77556e-16,-2.77556e-16,-1.23449,3227.93,2338.75)">
            <path d="M1378.9,917.667L1403.78,997.247L1354.02,997.247L1378.9,917.667Z" style="fill:rgb(111,122,144);"/>
        </g>
        <g transform="matrix(-0.617246,-1.0691,1.0691,-0.617246,1233.91,3257.73)">
            <path d="M1378.9,917.667L1403.78,997.247L1354.02,997.247L1378.9,917.667Z" style="fill:rgb(187,194,207);"/>
        </g>
        <g transform="matrix(0.872917,-0.872917,0.872917,0.872917,-727.438,1441.83)">
            <path d="M1378.9,917.667L1403.78,997.247L1354.02,997.247L1378.9,917.667Z" style="fill:rgb(187,194,207);"/>
        </g>
    </g>
</svg>
