<?xml version="1.0" encoding="UTF-8" standalone="no"?>
<!DOCTYPE svg PUBLIC "-//W3C//DTD SVG 1.1//EN" "http://www.w3.org/Graphics/SVG/1.1/DTD/svg11.dtd">
<svg width="100%" height="100%" viewBox="0 0 512 512" version="1.1" xmlns="http://www.w3.org/2000/svg" xmlns:xlink="http://www.w3.org/1999/xlink" xml:space="preserve" xmlns:serif="http://www.serif.com/" style="fill-rule:evenodd;clip-rule:evenodd;stroke-linejoin:round;stroke-miterlimit:2;">
    <g id="CleaveIcon" transform="matrix(2.11776,1.30074e-16,-1.30074e-16,2.11776,-6243.31,-1299.51)">
        <g transform="matrix(2.41219,4.45467e-18,1.33554e-16,13.7989,-1758.47,-7630.66)">
            <path d="M2006.07,609.052C2006.07,608.544 2003.71,608.132 2000.81,608.132C1997.9,608.132 1995.54,608.544 1995.54,609.052L1995.54,613.621C1995.54,614.129 1997.9,614.542 2000.81,614.542C2003.71,614.542 2006.07,614.129 2006.07,613.621L2006.07,609.052Z" style="fill:rgb(171,111,112);"/>
            <clipPath id="_clip1">
                <path d="M2006.07,609.052C2006.07,608.544 2003.71,608.132 2000.81,608.132C1997.9,608.132 1995.54,608.544 1995.54,609.052L1995.54,613.621C1995.54,614.129 1997.9,614.542 2000.81,614.542C2003.71,614.542 2006.07,614.129 2006.07,613.621L2006.07,609.052Z"/>
            </clipPath>
            <g clip-path="url(#_clip1)">
                <g transform="matrix(0.849956,-2.59478e-16,1.37612e-15,-0.93159,763.123,1105.83)">
                    <rect x="1456.06" y="524.978" width="18.008" height="12.903" style="fill:rgb(132,82,82);"/>
                </g>
            </g>
        </g>
        <g transform="matrix(6.0641,0,0,7.92772,-2692.85,-4257.76)">
            <path d="M947.472,630.938L952.472,630.938L952.472,637.106C952.472,637.128 952.457,637.148 952.432,637.158C952.407,637.169 952.377,637.168 952.353,637.157C951.857,636.925 949.972,636.044 949.972,636.044C949.972,636.044 948.086,636.925 947.59,637.157C947.566,637.168 947.536,637.169 947.512,637.158C947.487,637.148 947.472,637.128 947.472,637.106C947.472,636.282 947.472,630.938 947.472,630.938Z" style="fill:rgb(197,203,214);"/>
            <clipPath id="_clip2">
                <path d="M947.472,630.938L952.472,630.938L952.472,637.106C952.472,637.128 952.457,637.148 952.432,637.158C952.407,637.169 952.377,637.168 952.353,637.157C951.857,636.925 949.972,636.044 949.972,636.044C949.972,636.044 948.086,636.925 947.59,637.157C947.566,637.168 947.536,637.169 947.512,637.158C947.487,637.148 947.472,637.128 947.472,637.106C947.472,636.282 947.472,630.938 947.472,630.938Z"/>
            </clipPath>
            <g clip-path="url(#_clip2)">
                <g transform="matrix(0.412747,0,0,0.802341,274.919,-167.684)">
                    <rect x="1635.54" y="974.444" width="18.12" height="38.339" style="fill:rgb(141,153,174);"/>
                </g>
            </g>
        </g>
        <g transform="matrix(1.34661,0,0,1.34661,-1063.53,-240.58)">
            <path d="M3036.82,738.003C3036.77,734.207 3038.36,730.572 3041.18,728.032C3044,725.493 3047.78,724.298 3051.55,724.753C3074.25,727.644 3103.36,708.75 3095.91,683.608C3089.35,661.442 3061.71,648.352 3031.57,655.71C3026.77,656.881 3022.23,658.48 3018.01,660.43C3017.21,660.811 3016.25,660.546 3015.76,659.808C3015.28,659.071 3015.41,658.086 3016.07,657.5C3018.51,655.339 3021.15,653.335 3023.97,651.515C3030.41,646.934 3037.9,643.36 3046.18,641.164C3079.27,632.378 3112.56,648.936 3120.45,678.116C3128.34,707.296 3107.88,738.119 3074.78,746.904C3067.84,748.746 3057.01,749.579 3047.87,749.377C3041.79,749.055 3037.01,744.084 3036.92,738.002C3036.82,738.003 3036.82,738.003 3036.82,738.003Z" style="fill:rgb(202,204,212);"/>
            <clipPath id="_clip3">
                <path d="M3036.82,738.003C3036.77,734.207 3038.36,730.572 3041.18,728.032C3044,725.493 3047.78,724.298 3051.55,724.753C3074.25,727.644 3103.36,708.75 3095.91,683.608C3089.35,661.442 3061.71,648.352 3031.57,655.71C3026.77,656.881 3022.23,658.48 3018.01,660.43C3017.21,660.811 3016.25,660.546 3015.76,659.808C3015.28,659.071 3015.41,658.086 3016.07,657.5C3018.51,655.339 3021.15,653.335 3023.97,651.515C3030.41,646.934 3037.9,643.36 3046.18,641.164C3079.27,632.378 3112.56,648.936 3120.45,678.116C3128.34,707.296 3107.88,738.119 3074.78,746.904C3067.84,748.746 3057.01,749.579 3047.87,749.377C3041.79,749.055 3037.01,744.084 3036.92,738.002C3036.82,738.003 3036.82,738.003 3036.82,738.003Z"/>
            </clipPath>
            <g clip-path="url(#_clip3)">
                <g transform="matrix(0.923633,0,0,0.832747,222.663,117.338)">
                    <path d="M3037.08,701.02C3046.77,723.901 3105.2,714.967 3095.91,683.608C3089.35,661.442 3061.71,648.352 3031.57,655.71C3022.72,657.871 3014.74,661.485 3008.03,666.081C3012.32,660.516 3017.71,655.56 3023.97,651.515C3030.41,646.934 3037.9,643.36 3046.18,641.164C3079.27,632.378 3112.56,648.936 3120.45,678.116C3128.34,707.296 3104.01,763.546 3014.46,735.455C3004.43,732.309 3037.08,701.02 3037.08,701.02Z" style="fill:rgb(158,169,187);"/>
                </g>
            </g>
        </g>
    </g>
</svg>
