<?xml version="1.0" encoding="UTF-8" standalone="no"?>
<!DOCTYPE svg PUBLIC "-//W3C//DTD SVG 1.1//EN" "http://www.w3.org/Graphics/SVG/1.1/DTD/svg11.dtd">
<svg width="100%" height="100%" viewBox="0 0 512 512" version="1.1" xmlns="http://www.w3.org/2000/svg" xmlns:xlink="http://www.w3.org/1999/xlink" xml:space="preserve" xmlns:serif="http://www.serif.com/" style="fill-rule:evenodd;clip-rule:evenodd;stroke-linejoin:round;stroke-miterlimit:2;">
    <g id="ClockIcon" transform="matrix(8.6424,0,0,8.6424,-4904.86,-1672.05)">
        <g transform="matrix(1.01658,0,0,1.01658,-8.94847,-4.03585)">
            <circle cx="596.208" cy="223.6" r="22.189" style="fill:rgb(236,240,240);"/>
            <clipPath id="_clip1">
                <circle cx="596.208" cy="223.6" r="22.189"/>
            </clipPath>
            <g clip-path="url(#_clip1)">
                <g transform="matrix(0.983686,0,0,0.983686,8.80248,3.97001)">
                    <rect x="596.72" y="188.333" width="35.254" height="68.474" style="fill:rgb(193,196,196);"/>
                </g>
            </g>
        </g>
        <path d="M597.156,195.258C612.518,195.258 624.99,207.73 624.99,223.092C624.99,238.454 612.518,250.926 597.156,250.926C581.794,250.926 569.322,238.454 569.322,223.092C569.322,207.73 581.794,195.258 597.156,195.258ZM597.156,202.115C608.733,202.115 618.133,211.514 618.133,223.092C618.133,234.669 608.733,244.069 597.156,244.069C585.578,244.069 576.179,234.669 576.179,223.092C576.179,211.514 585.578,202.115 597.156,202.115Z" style="fill:rgb(130,125,191);"/>
        <clipPath id="_clip2">
            <path d="M597.156,195.258C612.518,195.258 624.99,207.73 624.99,223.092C624.99,238.454 612.518,250.926 597.156,250.926C581.794,250.926 569.322,238.454 569.322,223.092C569.322,207.73 581.794,195.258 597.156,195.258ZM597.156,202.115C608.733,202.115 618.133,211.514 618.133,223.092C618.133,234.669 608.733,244.069 597.156,244.069C585.578,244.069 576.179,234.669 576.179,223.092C576.179,211.514 585.578,202.115 597.156,202.115Z"/>
        </clipPath>
        <g clip-path="url(#_clip2)">
            <rect x="596.72" y="188.333" width="35.254" height="68.474" style="fill:rgb(98,93,170);"/>
        </g>
        <g transform="matrix(0.691853,0,0,0.918676,183.815,16.8728)">
            <path d="M599.609,210.998C599.609,210.097 598.638,209.365 597.441,209.365C596.244,209.365 595.273,210.097 595.273,210.998L595.273,223.23C595.273,224.131 596.244,224.863 597.441,224.863C598.638,224.863 599.609,224.131 599.609,223.23L599.609,210.998Z" style="fill:rgb(51,77,92);"/>
        </g>
        <g transform="matrix(-0.163071,-0.163071,0.645937,-0.645937,549.211,465.824)">
            <path d="M599.609,209.913C599.609,209.61 598.638,209.365 597.441,209.365C596.244,209.365 595.273,209.61 595.273,209.913L595.273,224.315C595.273,224.618 596.244,224.863 597.441,224.863C598.638,224.863 599.609,224.618 599.609,224.315L599.609,209.913Z" style="fill:rgb(51,77,92);"/>
        </g>
        <g transform="matrix(1,0,0,1,-0.325002,0.310862)">
            <circle cx="587.965" cy="232.233" r="1.364" style="fill:rgb(51,77,92);"/>
        </g>
        <g transform="matrix(4.23638e-17,0.691853,-0.675037,4.13341e-17,747.383,-190.249)">
            <path d="M599.609,211.587C599.609,210.361 598.638,209.365 597.441,209.365C596.244,209.365 595.273,210.361 595.273,211.587L595.273,222.641C595.273,223.867 596.244,224.863 597.441,224.863C598.638,224.863 599.609,223.867 599.609,222.641L599.609,211.587Z" style="fill:rgb(51,77,92);"/>
        </g>
        <g transform="matrix(1,0,0,1,0.393838,1.22936)">
            <circle cx="596.762" cy="221.863" r="3.625" style="fill:rgb(195,82,74);"/>
        </g>
        <g transform="matrix(1,0,0,1,-0.163993,-0.0831368)">
            <path d="M597.73,204.299C597.73,203.839 597.356,203.465 596.896,203.465C596.436,203.465 596.062,203.839 596.062,204.299L596.062,205.277C596.062,205.737 596.436,206.111 596.896,206.111C597.356,206.111 597.73,205.737 597.73,205.277L597.73,204.299Z" style="fill:rgb(51,77,92);"/>
        </g>
        <g transform="matrix(1,0,0,1,-0.163993,36.9801)">
            <path d="M597.73,204.299C597.73,203.839 597.356,203.465 596.896,203.465C596.436,203.465 596.062,203.839 596.062,204.299L596.062,205.277C596.062,205.737 596.436,206.111 596.896,206.111C597.356,206.111 597.73,205.737 597.73,205.277L597.73,204.299Z" style="fill:rgb(51,77,92);"/>
        </g>
        <g transform="matrix(6.12323e-17,1,-1,6.12323e-17,820.052,-373.659)">
            <path d="M597.73,204.299C597.73,203.839 597.356,203.465 596.896,203.465C596.436,203.465 596.062,203.839 596.062,204.299L596.062,205.277C596.062,205.737 596.436,206.111 596.896,206.111C597.356,206.111 597.73,205.737 597.73,205.277L597.73,204.299Z" style="fill:rgb(51,77,92);"/>
        </g>
        <g transform="matrix(6.12323e-17,1,-1,6.12323e-17,782.988,-373.659)">
            <path d="M597.73,204.299C597.73,203.839 597.356,203.465 596.896,203.465C596.436,203.465 596.062,203.839 596.062,204.299L596.062,205.277C596.062,205.737 596.436,206.111 596.896,206.111C597.356,206.111 597.73,205.737 597.73,205.277L597.73,204.299Z" style="fill:rgb(51,77,92);"/>
        </g>
        <g transform="matrix(-0.707107,0.707107,-0.707107,-0.707107,1176.71,-40.9217)">
            <path d="M597.73,204.299C597.73,203.839 597.356,203.465 596.896,203.465C596.436,203.465 596.062,203.839 596.062,204.299L596.062,205.277C596.062,205.737 596.436,206.111 596.896,206.111C597.356,206.111 597.73,205.737 597.73,205.277L597.73,204.299Z" style="fill:rgb(51,77,92);"/>
        </g>
        <g transform="matrix(-0.707107,0.707107,-0.707107,-0.707107,1150.5,-67.1293)">
            <path d="M597.73,204.299C597.73,203.839 597.356,203.465 596.896,203.465C596.436,203.465 596.062,203.839 596.062,204.299L596.062,205.277C596.062,205.737 596.436,206.111 596.896,206.111C597.356,206.111 597.73,205.737 597.73,205.277L597.73,204.299Z" style="fill:rgb(51,77,92);"/>
        </g>
        <g transform="matrix(0.707107,0.707107,-0.707107,0.707107,332.574,-356.743)">
            <path d="M597.73,204.299C597.73,203.839 597.356,203.465 596.896,203.465C596.436,203.465 596.062,203.839 596.062,204.299L596.062,205.277C596.062,205.737 596.436,206.111 596.896,206.111C597.356,206.111 597.73,205.737 597.73,205.277L597.73,204.299Z" style="fill:rgb(51,77,92);"/>
        </g>
        <g transform="matrix(0.707107,0.707107,-0.707107,0.707107,306.366,-330.536)">
            <path d="M597.73,204.299C597.73,203.839 597.356,203.465 596.896,203.465C596.436,203.465 596.062,203.839 596.062,204.299L596.062,205.277C596.062,205.737 596.436,206.111 596.896,206.111C597.356,206.111 597.73,205.737 597.73,205.277L597.73,204.299Z" style="fill:rgb(51,77,92);"/>
        </g>
    </g>
</svg>
