<?xml version="1.0" encoding="UTF-8" standalone="no"?>
<!DOCTYPE svg PUBLIC "-//W3C//DTD SVG 1.1//EN" "http://www.w3.org/Graphics/SVG/1.1/DTD/svg11.dtd">
<svg width="100%" height="100%" viewBox="0 0 512 512" version="1.1" xmlns="http://www.w3.org/2000/svg" xmlns:xlink="http://www.w3.org/1999/xlink" xml:space="preserve" xmlns:serif="http://www.serif.com/" style="fill-rule:evenodd;clip-rule:evenodd;stroke-linejoin:round;stroke-miterlimit:2;">
    <g id="ClouduploadIcon" transform="matrix(5.85082,0,0,5.85082,-3533.02,-3897.98)">
        <g id="Cloud-Icon" serif:id="Cloud Icon" transform="matrix(2.33411,0,0,2.33411,-1588.48,-6430.6)">
            <path d="M970,3061.5C970,3064.54 967.538,3067 964.5,3067C964.499,3067 964.498,3067 964.497,3067L964.497,3067L952.497,3067L952.497,3067C948.908,3067 946,3064.09 946,3060.5C946,3057.24 948.415,3054.56 951.552,3054.1C952.715,3051.12 955.607,3049 959,3049C963.289,3049 966.779,3052.38 966.981,3056.62C968.765,3057.53 970,3059.36 970,3061.5Z" style="fill:white;"/>
            <clipPath id="_clip1">
                <path d="M970,3061.5C970,3064.54 967.538,3067 964.5,3067C964.499,3067 964.498,3067 964.497,3067L964.497,3067L952.497,3067L952.497,3067C948.908,3067 946,3064.09 946,3060.5C946,3057.24 948.415,3054.56 951.552,3054.1C952.715,3051.12 955.607,3049 959,3049C963.289,3049 966.779,3052.38 966.981,3056.62C968.765,3057.53 970,3059.36 970,3061.5Z"/>
            </clipPath>
            <g clip-path="url(#_clip1)">
                <g transform="matrix(0.428428,0,0,0.319192,653.108,2839.05)">
                    <rect x="711.402" y="649.91" width="42.951" height="77.5" style="fill:rgb(201,211,223);"/>
                </g>
            </g>
        </g>
        <g>
            <g>
                <path d="M647.365,707.211C648.007,707.209 648.65,707.453 649.14,707.943L658.594,717.397C659.569,718.372 659.569,719.956 658.594,720.932C657.618,721.908 656.034,721.908 655.058,720.932L649.865,715.738L649.865,731.352C649.865,732.732 648.745,733.852 647.365,733.852C645.985,733.852 644.865,732.732 644.865,731.352L644.865,715.738L639.671,720.932C638.695,721.908 637.111,721.908 636.136,720.932C635.16,719.956 635.16,718.372 636.136,717.397L645.589,707.943C646.079,707.453 646.722,707.209 647.365,707.211Z" style="fill:rgb(60,125,169);"/>
                <clipPath id="_clip2">
                    <path d="M647.365,707.211C648.007,707.209 648.65,707.453 649.14,707.943L658.594,717.397C659.569,718.372 659.569,719.956 658.594,720.932C657.618,721.908 656.034,721.908 655.058,720.932L649.865,715.738L649.865,731.352C649.865,732.732 648.745,733.852 647.365,733.852C645.985,733.852 644.865,732.732 644.865,731.352L644.865,715.738L639.671,720.932C638.695,721.908 637.111,721.908 636.136,720.932C635.16,719.956 635.16,718.372 636.136,717.397L645.589,707.943C646.079,707.453 646.722,707.209 647.365,707.211Z"/>
                </clipPath>
                <g clip-path="url(#_clip2)">
                    <g transform="matrix(0.322109,0,0,0.377696,418.204,460.683)">
                        <rect x="711.402" y="649.91" width="42.951" height="77.5" style="fill:rgb(48,108,149);"/>
                    </g>
                </g>
            </g>
        </g>
    </g>
</svg>
