<?xml version="1.0" encoding="UTF-8" standalone="no"?>
<!DOCTYPE svg PUBLIC "-//W3C//DTD SVG 1.1//EN" "http://www.w3.org/Graphics/SVG/1.1/DTD/svg11.dtd">
<svg width="100%" height="100%" viewBox="0 0 512 512" version="1.1" xmlns="http://www.w3.org/2000/svg" xmlns:xlink="http://www.w3.org/1999/xlink" xml:space="preserve" xmlns:serif="http://www.serif.com/" style="fill-rule:evenodd;clip-rule:evenodd;stroke-linejoin:round;stroke-miterlimit:2;">
    <g id="CoffinIcon" transform="matrix(20.4269,0,0,20.4269,-39648.1,-17759.8)">
        <g transform="matrix(0.524045,0,0,0.524045,1681.02,279.212)">
            <path d="M520.852,1127.13C521.336,1127.13 521.728,1127.52 521.728,1128L521.728,1134.36L527.498,1134.36C527.981,1134.36 528.374,1134.75 528.374,1135.23L528.374,1136.99C528.374,1137.47 527.981,1137.86 527.498,1137.86L521.728,1137.86L521.728,1162.4C521.728,1162.89 521.335,1163.28 520.852,1163.28L519.101,1163.28C518.618,1163.28 518.225,1162.89 518.225,1162.4L518.225,1137.86L512.455,1137.86C511.972,1137.86 511.58,1137.47 511.58,1136.99L511.58,1135.23C511.58,1134.75 511.972,1134.36 512.455,1134.36L518.225,1134.36L518.225,1128C518.225,1127.52 518.618,1127.13 519.101,1127.13L520.852,1127.13Z" style="fill:rgb(131,147,167);"/>
            <clipPath id="_clip1">
                <path d="M520.852,1127.13C521.336,1127.13 521.728,1127.52 521.728,1128L521.728,1134.36L527.498,1134.36C527.981,1134.36 528.374,1134.75 528.374,1135.23L528.374,1136.99C528.374,1137.47 527.981,1137.86 527.498,1137.86L521.728,1137.86L521.728,1162.4C521.728,1162.89 521.335,1163.28 520.852,1163.28L519.101,1163.28C518.618,1163.28 518.225,1162.89 518.225,1162.4L518.225,1137.86L512.455,1137.86C511.972,1137.86 511.58,1137.47 511.58,1136.99L511.58,1135.23C511.58,1134.75 511.972,1134.36 512.455,1134.36L518.225,1134.36L518.225,1128C518.225,1127.52 518.618,1127.13 519.101,1127.13L520.852,1127.13Z"/>
            </clipPath>
            <g clip-path="url(#_clip1)">
                <g transform="matrix(1,0,0,1.12106,0,-136.149)">
                    <rect x="520.025" y="1124.61" width="13.231" height="36.47" style="fill:rgb(83,101,125);"/>
                </g>
            </g>
        </g>
        <g transform="matrix(0.806746,0,0,0.877566,324.416,58.7766)">
            <path d="M2033.25,942.188C2033.31,941.998 2033.29,941.786 2033.17,941.621C2033.06,941.455 2032.87,941.356 2032.66,941.356C2028.32,941.356 2010.35,941.356 2006.01,941.356C2005.81,941.356 2005.62,941.455 2005.5,941.621C2005.39,941.786 2005.36,941.998 2005.43,942.188C2006.23,944.389 2007.88,949.799 2008.47,951.406C2008.56,951.65 2008.79,951.813 2009.05,951.813L2029.62,951.813C2029.88,951.813 2030.11,951.65 2030.2,951.406C2030.79,949.799 2032.44,944.389 2033.25,942.188Z" style="fill:rgb(95,57,57);"/>
            <clipPath id="_clip2">
                <path d="M2033.25,942.188C2033.31,941.998 2033.29,941.786 2033.17,941.621C2033.06,941.455 2032.87,941.356 2032.66,941.356C2028.32,941.356 2010.35,941.356 2006.01,941.356C2005.81,941.356 2005.62,941.455 2005.5,941.621C2005.39,941.786 2005.36,941.998 2005.43,942.188C2006.23,944.389 2007.88,949.799 2008.47,951.406C2008.56,951.65 2008.79,951.813 2009.05,951.813L2029.62,951.813C2029.88,951.813 2030.11,951.65 2030.2,951.406C2030.79,949.799 2032.44,944.389 2033.25,942.188Z"/>
            </clipPath>
            <g clip-path="url(#_clip2)">
                <g transform="matrix(0.458066,1.29761e-33,0,0.4211,1781.15,445.852)">
                    <rect x="487.412" y="1168.67" width="70.678" height="10.449" style="fill:rgb(73,44,44);"/>
                </g>
                <g transform="matrix(0.458066,1.29761e-33,0,0.4211,1781.15,445.852)">
                    <rect x="487.412" y="1168.67" width="70.678" height="10.449" style="fill:rgb(73,44,44);"/>
                </g>
                <g transform="matrix(0.458066,2.45379e-33,0,0.796302,1781.15,19.6366)">
                    <rect x="520.059" y="1155.87" width="32.079" height="17.257" style="fill:rgb(73,44,44);"/>
                </g>
                <g transform="matrix(0.212161,1.29761e-33,0,0.4211,1915.97,445.852)">
                    <rect x="487.412" y="1168.67" width="70.678" height="10.449" style="fill:rgb(87,52,52);"/>
                </g>
            </g>
        </g>
        <g transform="matrix(0.806746,-2.06205e-17,5.40303e-18,-0.255504,324.416,1125.38)">
            <path d="M2033.05,944.854C2033.22,944.17 2033.27,943.16 2033.17,942.289C2033.07,941.417 2032.85,940.851 2032.6,940.851C2027.59,940.851 2011.08,940.851 2006.07,940.851C2005.82,940.851 2005.6,941.417 2005.5,942.289C2005.4,943.16 2005.45,944.17 2005.62,944.854C2006.58,948.664 2007.95,954.097 2008.44,956.043C2008.55,956.508 2008.72,956.771 2008.88,956.771C2011.17,956.771 2027.51,956.771 2029.79,956.771C2029.96,956.771 2030.12,956.508 2030.24,956.043C2030.73,954.097 2032.09,948.664 2033.05,944.854Z" style="fill:rgb(95,57,57);"/>
            <clipPath id="_clip3">
                <path d="M2033.05,944.854C2033.22,944.17 2033.27,943.16 2033.17,942.289C2033.07,941.417 2032.85,940.851 2032.6,940.851C2027.59,940.851 2011.08,940.851 2006.07,940.851C2005.82,940.851 2005.6,941.417 2005.5,942.289C2005.4,943.16 2005.45,944.17 2005.62,944.854C2006.58,948.664 2007.95,954.097 2008.44,956.043C2008.55,956.508 2008.72,956.771 2008.88,956.771C2011.17,956.771 2027.51,956.771 2029.79,956.771C2029.96,956.771 2030.12,956.508 2030.24,956.043C2030.73,954.097 2032.09,948.664 2033.05,944.854Z"/>
            </clipPath>
            <g clip-path="url(#_clip3)">
                <g transform="matrix(0.458066,-3.69683e-17,9.68652e-18,-1.44633,1781.15,2632.05)">
                    <rect x="520.059" y="1155.87" width="32.079" height="17.257" style="fill:rgb(73,44,44);"/>
                </g>
            </g>
        </g>
    </g>
</svg>
