<?xml version="1.0" encoding="UTF-8" standalone="no"?>
<!DOCTYPE svg PUBLIC "-//W3C//DTD SVG 1.1//EN" "http://www.w3.org/Graphics/SVG/1.1/DTD/svg11.dtd">
<svg width="100%" height="100%" viewBox="0 0 512 512" version="1.1" xmlns="http://www.w3.org/2000/svg" xmlns:xlink="http://www.w3.org/1999/xlink" xml:space="preserve" xmlns:serif="http://www.serif.com/" style="fill-rule:evenodd;clip-rule:evenodd;stroke-linejoin:round;stroke-miterlimit:2;">
    <g id="Coins6" transform="matrix(2.57402,0,0,2.57402,-913.767,-1426.06)">
        <g id="CoinsIcon" transform="matrix(0.814038,0,0,0.77251,-3535.64,-577.887)">
            <g id="Coins" transform="matrix(0.994051,0,0,0.994051,556.984,945.194)">
                <g id="Coin" transform="matrix(1,0,0,1,-193.635,75.6102)">
                    <g transform="matrix(0.957992,0,0,1.00949,-14343.6,-3199.2)">
                        <path d="M19774.6,3769.84C19774.6,3764.68 19770.4,3760.48 19765.3,3760.48L19651.7,3760.48C19646.5,3760.48 19642.3,3764.68 19642.3,3769.84L19642.3,3788.56C19642.3,3793.72 19646.5,3797.91 19651.7,3797.91L19765.3,3797.91C19770.4,3797.91 19774.6,3793.72 19774.6,3788.56L19774.6,3769.84Z" style="fill:rgb(243,156,18);"/>
                    </g>
                    <g transform="matrix(0.957992,0,0,0.796155,-14343.6,-2396.96)">
                        <path d="M19774.6,3769.84C19774.6,3764.68 19771.3,3760.48 19767.2,3760.48L19649.7,3760.48C19645.6,3760.48 19642.3,3764.68 19642.3,3769.84L19642.3,3788.56C19642.3,3793.72 19645.6,3797.91 19649.7,3797.91L19767.2,3797.91C19771.3,3797.91 19774.6,3793.72 19774.6,3788.56L19774.6,3769.84Z" style="fill:rgb(255,201,38);"/>
                        <clipPath id="_clip1">
                            <path d="M19774.6,3769.84C19774.6,3764.68 19771.3,3760.48 19767.2,3760.48L19649.7,3760.48C19645.6,3760.48 19642.3,3764.68 19642.3,3769.84L19642.3,3788.56C19642.3,3793.72 19645.6,3797.91 19649.7,3797.91L19767.2,3797.91C19771.3,3797.91 19774.6,3793.72 19774.6,3788.56L19774.6,3769.84Z"/>
                        </clipPath>
                        <g clip-path="url(#_clip1)">
                            <g transform="matrix(1,0,0,0.690721,-134.924,1012.5)">
                                <rect x="19843.2" y="3985.72" width="72.605" height="60.578" style="fill:rgb(243,156,18);fill-opacity:0.55;"/>
                            </g>
                        </g>
                    </g>
                    <g transform="matrix(0.957992,0,0,1.00949,-14471.9,-3448.53)">
                        <path d="M19818.6,4016.67C19818.6,4013.99 19816.4,4011.82 19813.7,4011.82L19786.4,4011.82C19783.7,4011.82 19781.5,4013.99 19781.5,4016.67C19781.5,4019.34 19783.7,4021.52 19786.4,4021.52L19813.7,4021.52C19816.4,4021.52 19818.6,4019.34 19818.6,4016.67Z" style="fill:rgb(250,226,70);"/>
                    </g>
                </g>
                <g id="Coin1" serif:id="Coin" transform="matrix(1,0,0,1,-183.215,38.3646)">
                    <g transform="matrix(0.957992,0,0,1.00949,-14343.6,-3199.2)">
                        <path d="M19774.6,3769.84C19774.6,3764.68 19770.4,3760.48 19765.3,3760.48L19651.7,3760.48C19646.5,3760.48 19642.3,3764.68 19642.3,3769.84L19642.3,3788.56C19642.3,3793.72 19646.5,3797.91 19651.7,3797.91L19765.3,3797.91C19770.4,3797.91 19774.6,3793.72 19774.6,3788.56L19774.6,3769.84Z" style="fill:rgb(243,156,18);"/>
                    </g>
                    <g transform="matrix(0.957992,0,0,0.796155,-14343.6,-2396.96)">
                        <path d="M19774.6,3769.84C19774.6,3764.68 19771.3,3760.48 19767.2,3760.48L19649.7,3760.48C19645.6,3760.48 19642.3,3764.68 19642.3,3769.84L19642.3,3788.56C19642.3,3793.72 19645.6,3797.91 19649.7,3797.91L19767.2,3797.91C19771.3,3797.91 19774.6,3793.72 19774.6,3788.56L19774.6,3769.84Z" style="fill:rgb(255,201,38);"/>
                        <clipPath id="_clip2">
                            <path d="M19774.6,3769.84C19774.6,3764.68 19771.3,3760.48 19767.2,3760.48L19649.7,3760.48C19645.6,3760.48 19642.3,3764.68 19642.3,3769.84L19642.3,3788.56C19642.3,3793.72 19645.6,3797.91 19649.7,3797.91L19767.2,3797.91C19771.3,3797.91 19774.6,3793.72 19774.6,3788.56L19774.6,3769.84Z"/>
                        </clipPath>
                        <g clip-path="url(#_clip2)">
                            <g transform="matrix(1,0,0,0.690721,-134.924,1012.5)">
                                <rect x="19843.2" y="3985.72" width="72.605" height="60.578" style="fill:rgb(243,156,18);fill-opacity:0.55;"/>
                            </g>
                        </g>
                    </g>
                    <g transform="matrix(0.957992,0,0,1.00949,-14471.9,-3448.53)">
                        <path d="M19818.6,4016.67C19818.6,4013.99 19816.4,4011.82 19813.7,4011.82L19786.4,4011.82C19783.7,4011.82 19781.5,4013.99 19781.5,4016.67C19781.5,4019.34 19783.7,4021.52 19786.4,4021.52L19813.7,4021.52C19816.4,4021.52 19818.6,4019.34 19818.6,4016.67Z" style="fill:rgb(250,226,70);"/>
                    </g>
                </g>
            </g>
            <g id="Coin2" serif:id="Coin" transform="matrix(1,0,0,1,522.584,23.496)">
                <g transform="matrix(0.957992,0,0,1.00949,-13997.3,-3349.27)">
                    <circle cx="19241.1" cy="4886.82" r="60.413" style="fill:rgb(250,226,70);"/>
                    <clipPath id="_clip3">
                        <circle cx="19241.1" cy="4886.82" r="60.413"/>
                    </clipPath>
                    <g clip-path="url(#_clip3)">
                        <g transform="matrix(1,0,0,0.862674,1.81899e-12,681.085)">
                            <rect x="19241.7" y="4794.31" width="78.177" height="165.318" style="fill:rgb(243,156,18);"/>
                        </g>
                    </g>
                </g>
                <g transform="matrix(0.724902,0,0,0.763871,-9512.44,-2148.97)">
                    <circle cx="19241.1" cy="4886.82" r="60.413" style="fill:rgb(255,201,38);"/>
                </g>
                <g transform="matrix(0.529304,0,0,0.557758,-5749.51,-1143.04)">
                    <path d="M19241.5,4817.37C19250.6,4818.04 19253,4835.38 19240.8,4835.46C19240.4,4835.46 19240.1,4835.47 19239.8,4835.47C19219.2,4836.07 19199.7,4850.02 19192.7,4869.47C19190.7,4875.02 19189.7,4880.92 19189.7,4886.82C19189.7,4886.82 19185.6,4899.13 19176.8,4895.02C19168.5,4891.12 19171.2,4876.43 19175.4,4864.15C19184.6,4837.52 19211,4817.81 19240.2,4817.36C19240.2,4817.36 19240.6,4817.35 19241.5,4817.37Z" style="fill:rgb(250,226,70);"/>
                </g>
            </g>
        </g>
        <g transform="matrix(1,0,0,1,-9.832,-25.979)">
            <g id="Sparkle" transform="matrix(0.633852,0,0,0.633852,-11971.7,-1861.81)">
                <path d="M19613,3940.99L19617.4,3952.7L19629.1,3957.03L19617.4,3961.36L19613,3973.07L19608.7,3961.36L19597,3957.03L19608.7,3952.7L19613,3940.99Z" style="fill:rgb(250,226,70);"/>
            </g>
            <g id="Sparkle1" serif:id="Sparkle" transform="matrix(0.633852,0,0,0.633852,-12051.1,-1835.51)">
                <path d="M19613,3940.99L19617.4,3952.7L19629.1,3957.03L19617.4,3961.36L19613,3973.07L19608.7,3961.36L19597,3957.03L19608.7,3952.7L19613,3940.99Z" style="fill:rgb(250,226,70);"/>
            </g>
            <g id="Sparkle2" serif:id="Sparkle" transform="matrix(0.633852,0,0,0.633852,-11883.8,-1872.86)">
                <path d="M19613,3940.99L19617.4,3952.7L19629.1,3957.03L19617.4,3961.36L19613,3973.07L19608.7,3961.36L19597,3957.03L19608.7,3952.7L19613,3940.99Z" style="fill:rgb(250,226,70);"/>
            </g>
            <g id="Sparkle3" serif:id="Sparkle" transform="matrix(0.633852,0,0,0.633852,-12014,-1876.06)">
                <path d="M19613,3940.99L19617.4,3952.7L19629.1,3957.03L19617.4,3961.36L19613,3973.07L19608.7,3961.36L19597,3957.03L19608.7,3952.7L19613,3940.99Z" style="fill:rgb(250,226,70);"/>
            </g>
        </g>
    </g>
</svg>
