<?xml version="1.0" encoding="UTF-8" standalone="no"?>
<!DOCTYPE svg PUBLIC "-//W3C//DTD SVG 1.1//EN" "http://www.w3.org/Graphics/SVG/1.1/DTD/svg11.dtd">
<svg width="100%" height="100%" viewBox="0 0 512 512" version="1.1" xmlns="http://www.w3.org/2000/svg" xmlns:xlink="http://www.w3.org/1999/xlink" xml:space="preserve" xmlns:serif="http://www.serif.com/" style="fill-rule:evenodd;clip-rule:evenodd;stroke-linejoin:round;stroke-miterlimit:2;">
    <g id="Coins2" transform="matrix(1.78584,0,0,1.69474,-7509.26,-746.03)">
        <g transform="matrix(1,0,0,1,-39.966,0)">
            <g id="Sack" transform="matrix(0.759083,0,0,0.765529,1049.24,34.8212)">
                <g transform="matrix(1.02955,0,0,1.07576,-15599.7,-3586.02)">
                    <path d="M19421.4,3884.79C19430,3879.8 19446.9,3883.66 19446.9,3883.66C19446.9,3872.62 19455.9,3863.66 19466.9,3863.66C19477.9,3863.66 19486.9,3872.62 19486.9,3883.66C19486.9,3883.66 19503.8,3879.8 19512.5,3884.79C19522,3890.31 19525.3,3902.55 19519.8,3912.11L19492.6,3959.28C19487.4,3968.29 19446.5,3968.29 19441.3,3959.28L19414,3912.11C19408.5,3902.55 19411.8,3890.31 19421.4,3884.79Z" style="fill:rgb(209,122,71);"/>
                    <clipPath id="_clip1">
                        <path d="M19421.4,3884.79C19430,3879.8 19446.9,3883.66 19446.9,3883.66C19446.9,3872.62 19455.9,3863.66 19466.9,3863.66C19477.9,3863.66 19486.9,3872.62 19486.9,3883.66C19486.9,3883.66 19503.8,3879.8 19512.5,3884.79C19522,3890.31 19525.3,3902.55 19519.8,3912.11L19492.6,3959.28C19487.4,3968.29 19446.5,3968.29 19441.3,3959.28L19414,3912.11C19408.5,3902.55 19411.8,3890.31 19421.4,3884.79Z"/>
                    </clipPath>
                    <g clip-path="url(#_clip1)">
                        <g transform="matrix(0.720532,-5.37491e-17,-1.97764e-17,0.432492,5608.5,2140.52)">
                            <rect x="19233.7" y="3975.2" width="154.215" height="241.645" style="fill:rgb(179,94,63);"/>
                        </g>
                    </g>
                </g>
                <g transform="matrix(0.957992,0,0,1.23879,-13973.6,-4301.76)">
                    <path d="M19345.2,4092.11C19345.2,4050.39 19303.2,4016.52 19251.6,4016.52L19195.4,4016.52C19143.8,4016.52 19101.9,4050.39 19101.9,4092.11C19101.9,4133.84 19143.8,4167.71 19195.4,4167.71L19251.6,4167.71C19303.2,4167.71 19345.2,4133.84 19345.2,4092.11Z" style="fill:rgb(209,122,71);"/>
                    <clipPath id="_clip2">
                        <path d="M19345.2,4092.11C19345.2,4050.39 19303.2,4016.52 19251.6,4016.52L19195.4,4016.52C19143.8,4016.52 19101.9,4050.39 19101.9,4092.11C19101.9,4133.84 19143.8,4167.71 19195.4,4167.71L19251.6,4167.71C19303.2,4167.71 19345.2,4133.84 19345.2,4092.11Z"/>
                    </clipPath>
                    <g clip-path="url(#_clip2)">
                        <g transform="matrix(1,0,0,0.814903,-10.0079,744.229)">
                            <rect x="19233.7" y="3975.2" width="154.215" height="241.645" style="fill:rgb(179,94,63);"/>
                        </g>
                        <g transform="matrix(1.31738,0,0,1.0645,-6766.38,-205.821)">
                            <circle cx="19682.7" cy="3992.51" r="9.63" style="fill:rgb(225,169,136);"/>
                        </g>
                    </g>
                </g>
                <g transform="matrix(0.82035,0,0,0.618433,-11333.9,-1824.51)">
                    <path d="M19286.2,4016.01C19286.2,4010.47 19283,4005.99 19279,4005.99L19183.7,4005.99C19179.7,4005.99 19176.5,4010.47 19176.5,4016.01C19176.5,4021.54 19179.7,4026.03 19183.7,4026.03L19279,4026.03C19283,4026.03 19286.2,4021.54 19286.2,4016.01Z" style="fill:rgb(114,66,62);"/>
                    <clipPath id="_clip3">
                        <path d="M19286.2,4016.01C19286.2,4010.47 19283,4005.99 19279,4005.99L19183.7,4005.99C19179.7,4005.99 19176.5,4010.47 19176.5,4016.01C19176.5,4021.54 19179.7,4026.03 19183.7,4026.03L19279,4026.03C19283,4026.03 19286.2,4021.54 19286.2,4016.01Z"/>
                    </clipPath>
                    <g clip-path="url(#_clip3)">
                        <g transform="matrix(0.487442,-8.51083e-33,4.86738e-33,0.117354,9856.01,3533.23)">
                            <rect x="19233.7" y="3975.2" width="154.215" height="241.645" style="fill:rgb(91,52,49);"/>
                        </g>
                    </g>
                </g>
                <g transform="matrix(0.82035,0,0,0.610587,-11333.9,-1781.22)">
                    <path d="M19286.2,4016.01C19286.2,4010.47 19283,4005.99 19279.1,4005.99L19183.6,4005.99C19179.7,4005.99 19176.5,4010.47 19176.5,4016.01C19176.5,4021.54 19179.7,4026.03 19183.6,4026.03L19279.1,4026.03C19283,4026.03 19286.2,4021.54 19286.2,4016.01Z" style="fill:rgb(114,66,62);"/>
                    <clipPath id="_clip4">
                        <path d="M19286.2,4016.01C19286.2,4010.47 19283,4005.99 19279.1,4005.99L19183.6,4005.99C19179.7,4005.99 19176.5,4010.47 19176.5,4016.01C19176.5,4021.54 19179.7,4026.03 19183.6,4026.03L19279.1,4026.03C19283,4026.03 19286.2,4021.54 19286.2,4016.01Z"/>
                    </clipPath>
                    <g clip-path="url(#_clip4)">
                        <g transform="matrix(0.487442,-8.51083e-33,4.86738e-33,0.117354,9856.01,3533.23)">
                            <rect x="19233.7" y="3975.2" width="154.215" height="241.645" style="fill:rgb(91,52,49);"/>
                        </g>
                    </g>
                </g>
            </g>
            <g id="Coins" transform="matrix(0.987935,0,0,0.987935,75.0295,9.287)">
                <g id="Coin" transform="matrix(1,0,0,1,-194.483,75.6102)">
                    <g transform="matrix(0.957992,0,0,1.00949,-14343.6,-3199.2)">
                        <path d="M19774.6,3769.84C19774.6,3764.68 19770.4,3760.48 19765.3,3760.48L19651.7,3760.48C19646.5,3760.48 19642.3,3764.68 19642.3,3769.84L19642.3,3788.56C19642.3,3793.72 19646.5,3797.91 19651.7,3797.91L19765.3,3797.91C19770.4,3797.91 19774.6,3793.72 19774.6,3788.56L19774.6,3769.84Z" style="fill:rgb(243,156,18);"/>
                    </g>
                    <g transform="matrix(0.957992,0,0,0.796155,-14343.6,-2396.96)">
                        <path d="M19774.6,3769.84C19774.6,3764.68 19771.3,3760.48 19767.2,3760.48L19649.7,3760.48C19645.6,3760.48 19642.3,3764.68 19642.3,3769.84L19642.3,3788.56C19642.3,3793.72 19645.6,3797.91 19649.7,3797.91L19767.2,3797.91C19771.3,3797.91 19774.6,3793.72 19774.6,3788.56L19774.6,3769.84Z" style="fill:rgb(255,201,38);"/>
                        <clipPath id="_clip5">
                            <path d="M19774.6,3769.84C19774.6,3764.68 19771.3,3760.48 19767.2,3760.48L19649.7,3760.48C19645.6,3760.48 19642.3,3764.68 19642.3,3769.84L19642.3,3788.56C19642.3,3793.72 19645.6,3797.91 19649.7,3797.91L19767.2,3797.91C19771.3,3797.91 19774.6,3793.72 19774.6,3788.56L19774.6,3769.84Z"/>
                        </clipPath>
                        <g clip-path="url(#_clip5)">
                            <g transform="matrix(1,0,0,0.690721,-134.924,1012.5)">
                                <rect x="19843.2" y="3985.72" width="72.605" height="60.578" style="fill:rgb(243,156,18);fill-opacity:0.55;"/>
                            </g>
                        </g>
                    </g>
                    <g transform="matrix(0.957992,0,0,1.00949,-14471.9,-3448.53)">
                        <path d="M19818.6,4016.67C19818.6,4013.99 19816.4,4011.82 19813.7,4011.82L19786.4,4011.82C19783.7,4011.82 19781.5,4013.99 19781.5,4016.67C19781.5,4019.34 19783.7,4021.52 19786.4,4021.52L19813.7,4021.52C19816.4,4021.52 19818.6,4019.34 19818.6,4016.67Z" style="fill:rgb(250,226,70);"/>
                    </g>
                </g>
                <g id="Coin1" serif:id="Coin" transform="matrix(1,0,0,1,-183.215,38.3646)">
                    <g transform="matrix(0.957992,0,0,1.00949,-14343.6,-3199.2)">
                        <path d="M19774.6,3769.84C19774.6,3764.68 19770.4,3760.48 19765.3,3760.48L19651.7,3760.48C19646.5,3760.48 19642.3,3764.68 19642.3,3769.84L19642.3,3788.56C19642.3,3793.72 19646.5,3797.91 19651.7,3797.91L19765.3,3797.91C19770.4,3797.91 19774.6,3793.72 19774.6,3788.56L19774.6,3769.84Z" style="fill:rgb(243,156,18);"/>
                    </g>
                    <g transform="matrix(0.957992,0,0,0.796155,-14343.6,-2396.96)">
                        <path d="M19774.6,3769.84C19774.6,3764.68 19771.3,3760.48 19767.2,3760.48L19649.7,3760.48C19645.6,3760.48 19642.3,3764.68 19642.3,3769.84L19642.3,3788.56C19642.3,3793.72 19645.6,3797.91 19649.7,3797.91L19767.2,3797.91C19771.3,3797.91 19774.6,3793.72 19774.6,3788.56L19774.6,3769.84Z" style="fill:rgb(255,201,38);"/>
                        <clipPath id="_clip6">
                            <path d="M19774.6,3769.84C19774.6,3764.68 19771.3,3760.48 19767.2,3760.48L19649.7,3760.48C19645.6,3760.48 19642.3,3764.68 19642.3,3769.84L19642.3,3788.56C19642.3,3793.72 19645.6,3797.91 19649.7,3797.91L19767.2,3797.91C19771.3,3797.91 19774.6,3793.72 19774.6,3788.56L19774.6,3769.84Z"/>
                        </clipPath>
                        <g clip-path="url(#_clip6)">
                            <g transform="matrix(1,0,0,0.690721,-134.924,1012.5)">
                                <rect x="19843.2" y="3985.72" width="72.605" height="60.578" style="fill:rgb(243,156,18);fill-opacity:0.55;"/>
                            </g>
                        </g>
                    </g>
                    <g transform="matrix(0.957992,0,0,1.00949,-14471.9,-3448.53)">
                        <path d="M19818.6,4016.67C19818.6,4013.99 19816.4,4011.82 19813.7,4011.82L19786.4,4011.82C19783.7,4011.82 19781.5,4013.99 19781.5,4016.67C19781.5,4019.34 19783.7,4021.52 19786.4,4021.52L19813.7,4021.52C19816.4,4021.52 19818.6,4019.34 19818.6,4016.67Z" style="fill:rgb(250,226,70);"/>
                    </g>
                </g>
                <g id="Coin2" serif:id="Coin" transform="matrix(1,0,0,1,-194.483,1.11911)">
                    <g transform="matrix(0.957992,0,0,1.00949,-14343.6,-3199.2)">
                        <path d="M19774.6,3769.84C19774.6,3764.68 19770.4,3760.48 19765.3,3760.48L19651.7,3760.48C19646.5,3760.48 19642.3,3764.68 19642.3,3769.84L19642.3,3788.56C19642.3,3793.72 19646.5,3797.91 19651.7,3797.91L19765.3,3797.91C19770.4,3797.91 19774.6,3793.72 19774.6,3788.56L19774.6,3769.84Z" style="fill:rgb(243,156,18);"/>
                    </g>
                    <g transform="matrix(0.957992,0,0,0.796155,-14343.6,-2396.96)">
                        <path d="M19774.6,3769.84C19774.6,3764.68 19771.3,3760.48 19767.2,3760.48L19649.7,3760.48C19645.6,3760.48 19642.3,3764.68 19642.3,3769.84L19642.3,3788.56C19642.3,3793.72 19645.6,3797.91 19649.7,3797.91L19767.2,3797.91C19771.3,3797.91 19774.6,3793.72 19774.6,3788.56L19774.6,3769.84Z" style="fill:rgb(255,201,38);"/>
                        <clipPath id="_clip7">
                            <path d="M19774.6,3769.84C19774.6,3764.68 19771.3,3760.48 19767.2,3760.48L19649.7,3760.48C19645.6,3760.48 19642.3,3764.68 19642.3,3769.84L19642.3,3788.56C19642.3,3793.72 19645.6,3797.91 19649.7,3797.91L19767.2,3797.91C19771.3,3797.91 19774.6,3793.72 19774.6,3788.56L19774.6,3769.84Z"/>
                        </clipPath>
                        <g clip-path="url(#_clip7)">
                            <g transform="matrix(1,0,0,0.690721,-134.924,1012.5)">
                                <rect x="19843.2" y="3985.72" width="72.605" height="60.578" style="fill:rgb(243,156,18);fill-opacity:0.55;"/>
                            </g>
                        </g>
                    </g>
                    <g transform="matrix(0.957992,0,0,1.00949,-14471.9,-3448.53)">
                        <path d="M19818.6,4016.67C19818.6,4013.99 19816.4,4011.82 19813.7,4011.82L19786.4,4011.82C19783.7,4011.82 19781.5,4013.99 19781.5,4016.67C19781.5,4019.34 19783.7,4021.52 19786.4,4021.52L19813.7,4021.52C19816.4,4021.52 19818.6,4019.34 19818.6,4016.67Z" style="fill:rgb(250,226,70);"/>
                    </g>
                </g>
            </g>
        </g>
        <g transform="matrix(1,0,0,1,-30.714,-3.04123)">
            <g id="Sparkle" transform="matrix(0.778652,0,0,0.82051,-10953.1,-2673.66)">
                <path d="M19613,3940.99L19617.4,3952.7L19629.1,3957.03L19617.4,3961.36L19613,3973.07L19608.7,3961.36L19597,3957.03L19608.7,3952.7L19613,3940.99Z" style="fill:rgb(250,226,70);"/>
            </g>
            <g id="Sparkle1" serif:id="Sparkle" transform="matrix(0.778652,0,0,0.82051,-10990.9,-2587.36)">
                <path d="M19613,3940.99L19617.4,3952.7L19629.1,3957.03L19617.4,3961.36L19613,3973.07L19608.7,3961.36L19597,3957.03L19608.7,3952.7L19613,3940.99Z" style="fill:rgb(250,226,70);"/>
            </g>
            <g id="Sparkle2" serif:id="Sparkle" transform="matrix(0.778652,0,0,0.82051,-11001.9,-2651.58)">
                <path d="M19613,3940.99L19617.4,3952.7L19629.1,3957.03L19617.4,3961.36L19613,3973.07L19608.7,3961.36L19597,3957.03L19608.7,3952.7L19613,3940.99Z" style="fill:rgb(250,226,70);"/>
            </g>
        </g>
    </g>
</svg>
