<?xml version="1.0" encoding="UTF-8" standalone="no"?>
<!DOCTYPE svg PUBLIC "-//W3C//DTD SVG 1.1//EN" "http://www.w3.org/Graphics/SVG/1.1/DTD/svg11.dtd">
<svg width="100%" height="100%" viewBox="0 0 512 512" version="1.1" xmlns="http://www.w3.org/2000/svg" xmlns:xlink="http://www.w3.org/1999/xlink" xml:space="preserve" xmlns:serif="http://www.serif.com/" style="fill-rule:evenodd;clip-rule:evenodd;stroke-linejoin:round;stroke-miterlimit:2;">
    <g id="Coins1" transform="matrix(1.90512,0,0,1.80793,-8139.46,-816.927)">
        <g transform="matrix(1,0,0,1,-8.9145,1.7053e-13)">
            <g id="Chest" transform="matrix(0.957992,0,0,1.00949,3050.84,-381.021)">
                <g>
                    <g transform="matrix(2.61822,0,0,1.28704,-476.619,-3686.22)">
                        <path d="M767.208,3548.32C745.037,3510.08 720.647,3543.08 697.122,3548.32L701.489,3615.48L762.84,3615.48L767.208,3548.32Z" style="fill:rgb(96,56,52);"/>
                    </g>
                    <g transform="matrix(2.61809,0,0,1.28704,-476.525,-3686.22)">
                        <path d="M745.215,3548.32C729.933,3530.89 714.322,3521.13 697.122,3548.32L701.489,3615.48L740.847,3615.48L745.215,3548.32Z" style="fill:rgb(110,64,59);"/>
                    </g>
                </g>
                <g>
                    <g transform="matrix(1.14349,0,0,1.40665,-207.058,-384.525)">
                        <rect x="1373.48" y="896.284" width="134.424" height="59.442" style="fill:rgb(73,42,39);"/>
                    </g>
                    <g transform="matrix(0.572756,0,0,1.40665,576.828,-384.525)">
                        <rect x="1373.48" y="896.284" width="134.424" height="59.442" style="fill:rgb(91,53,49);"/>
                    </g>
                </g>
                <g id="Coin" transform="matrix(0.701925,0.00246943,-0.00234345,0.666116,-1742.37,494.365)">
                    <g transform="matrix(0.957992,0,0,1.00949,-14343.6,-3199.2)">
                        <path d="M19774.6,3769.84C19774.6,3764.68 19770.4,3760.48 19765.3,3760.48L19651.7,3760.48C19646.5,3760.48 19642.3,3764.68 19642.3,3769.84L19642.3,3788.56C19642.3,3793.72 19646.5,3797.91 19651.7,3797.91L19765.3,3797.91C19770.4,3797.91 19774.6,3793.72 19774.6,3788.56L19774.6,3769.84Z" style="fill:rgb(243,156,18);"/>
                    </g>
                    <g transform="matrix(0.957992,0,6.56026e-18,0.604804,-14343.6,-1677.39)">
                        <path d="M19774.6,3769.84C19774.6,3764.68 19772.1,3760.48 19769,3760.48L19647.9,3760.48C19644.8,3760.48 19642.3,3764.68 19642.3,3769.84L19642.3,3788.56C19642.3,3793.72 19644.8,3797.91 19647.9,3797.91L19769,3797.91C19772.1,3797.91 19774.6,3793.72 19774.6,3788.56L19774.6,3769.84Z" style="fill:rgb(255,201,38);"/>
                        <clipPath id="_clip1">
                            <path d="M19774.6,3769.84C19774.6,3764.68 19772.1,3760.48 19769,3760.48L19647.9,3760.48C19644.8,3760.48 19642.3,3764.68 19642.3,3769.84L19642.3,3788.56C19642.3,3793.72 19644.8,3797.91 19647.9,3797.91L19769,3797.91C19772.1,3797.91 19774.6,3793.72 19774.6,3788.56L19774.6,3769.84Z"/>
                        </clipPath>
                        <g clip-path="url(#_clip1)">
                            <g transform="matrix(1,-4.60866e-19,1.73076e-17,0.685076,-134.924,1035.34)">
                                <rect x="19843.2" y="3985.72" width="72.605" height="60.578" style="fill:rgb(243,156,18);fill-opacity:0.55;"/>
                            </g>
                        </g>
                    </g>
                    <g transform="matrix(0.957992,0,0,1.00949,-14471.9,-3448.53)">
                        <path d="M19818.6,4016.67C19818.6,4013.99 19816.4,4011.82 19813.7,4011.82L19786.4,4011.82C19783.7,4011.82 19781.5,4013.99 19781.5,4016.67C19781.5,4019.34 19783.7,4021.52 19786.4,4021.52L19813.7,4021.52C19816.4,4021.52 19818.6,4019.34 19818.6,4016.67Z" style="fill:rgb(250,226,70);"/>
                    </g>
                </g>
                <g id="Coin1" serif:id="Coin" transform="matrix(0.700877,0.0384171,-0.0364573,0.665122,-1753.16,349.282)">
                    <g transform="matrix(0.957992,0,0,1.00949,-14343.6,-3199.2)">
                        <path d="M19774.6,3769.84C19774.6,3764.68 19770.4,3760.48 19765.3,3760.48L19651.7,3760.48C19646.5,3760.48 19642.3,3764.68 19642.3,3769.84L19642.3,3788.56C19642.3,3793.72 19646.5,3797.91 19651.7,3797.91L19765.3,3797.91C19770.4,3797.91 19774.6,3793.72 19774.6,3788.56L19774.6,3769.84Z" style="fill:rgb(243,156,18);"/>
                    </g>
                    <g transform="matrix(0.957992,-6.6474e-18,5.52443e-18,0.529933,-14343.6,-1395.83)">
                        <path d="M19774.6,3769.84C19774.6,3764.68 19772.4,3760.48 19769.7,3760.48L19647.2,3760.48C19644.5,3760.48 19642.3,3764.68 19642.3,3769.84L19642.3,3788.56C19642.3,3793.72 19644.5,3797.91 19647.2,3797.91L19769.7,3797.91C19772.4,3797.91 19774.6,3793.72 19774.6,3788.56L19774.6,3769.84Z" style="fill:rgb(255,201,38);"/>
                        <clipPath id="_clip2">
                            <path d="M19774.6,3769.84C19774.6,3764.68 19772.4,3760.48 19769.7,3760.48L19647.2,3760.48C19644.5,3760.48 19642.3,3764.68 19642.3,3769.84L19642.3,3788.56C19642.3,3793.72 19644.5,3797.91 19647.2,3797.91L19769.7,3797.91C19772.4,3797.91 19774.6,3793.72 19774.6,3788.56L19774.6,3769.84Z"/>
                        </clipPath>
                        <g clip-path="url(#_clip2)">
                            <g transform="matrix(1,1.38778e-17,0,0.6519,-134.924,1169.58)">
                                <rect x="19843.2" y="3985.72" width="72.605" height="60.578" style="fill:rgb(243,135,12);fill-opacity:0.55;"/>
                            </g>
                        </g>
                    </g>
                    <g transform="matrix(0.957992,0,0,1.00949,-14471.9,-3448.53)">
                        <path d="M19818.6,4016.67C19818.6,4013.99 19816.4,4011.82 19813.7,4011.82L19786.4,4011.82C19783.7,4011.82 19781.5,4013.99 19781.5,4016.67C19781.5,4019.34 19783.7,4021.52 19786.4,4021.52L19813.7,4021.52C19816.4,4021.52 19818.6,4019.34 19818.6,4016.67Z" style="fill:rgb(250,226,70);"/>
                    </g>
                </g>
                <g id="Coin2" serif:id="Coin" transform="matrix(0.697287,-0.080591,0.0764797,0.661715,-1732.95,892.639)">
                    <g transform="matrix(0.957992,0,0,1.00949,-14343.6,-3199.2)">
                        <path d="M19774.6,3769.84C19774.6,3764.68 19770.4,3760.48 19765.3,3760.48L19651.7,3760.48C19646.5,3760.48 19642.3,3764.68 19642.3,3769.84L19642.3,3788.56C19642.3,3793.72 19646.5,3797.91 19651.7,3797.91L19765.3,3797.91C19770.4,3797.91 19774.6,3793.72 19774.6,3788.56L19774.6,3769.84Z" style="fill:rgb(243,156,18);"/>
                    </g>
                    <g transform="matrix(0.957992,0,-1.10489e-17,0.618282,-14343.6,-1728.07)">
                        <path d="M19774.6,3769.84C19774.6,3764.68 19772.1,3760.48 19768.9,3760.48L19648,3760.48C19644.9,3760.48 19642.3,3764.68 19642.3,3769.84L19642.3,3788.56C19642.3,3793.72 19644.9,3797.91 19648,3797.91L19768.9,3797.91C19772.1,3797.91 19774.6,3793.72 19774.6,3788.56L19774.6,3769.84Z" style="fill:rgb(255,201,38);"/>
                        <clipPath id="_clip3">
                            <path d="M19774.6,3769.84C19774.6,3764.68 19772.1,3760.48 19768.9,3760.48L19648,3760.48C19644.9,3760.48 19642.3,3764.68 19642.3,3769.84L19642.3,3788.56C19642.3,3793.72 19644.9,3797.91 19648,3797.91L19768.9,3797.91C19772.1,3797.91 19774.6,3793.72 19774.6,3788.56L19774.6,3769.84Z"/>
                        </clipPath>
                        <g clip-path="url(#_clip3)">
                            <g transform="matrix(1,4.16334e-17,1.75965e-17,0.661412,-134.924,1131.09)">
                                <rect x="19843.2" y="3985.72" width="72.605" height="60.578" style="fill:rgb(243,156,18);fill-opacity:0.55;"/>
                            </g>
                        </g>
                    </g>
                    <g transform="matrix(0.957992,0,0,1.00949,-14471.9,-3448.53)">
                        <path d="M19818.6,4016.67C19818.6,4013.99 19816.4,4011.82 19813.7,4011.82L19786.4,4011.82C19783.7,4011.82 19781.5,4013.99 19781.5,4016.67C19781.5,4019.34 19783.7,4021.52 19786.4,4021.52L19813.7,4021.52C19816.4,4021.52 19818.6,4019.34 19818.6,4016.67Z" style="fill:rgb(250,226,70);"/>
                    </g>
                </g>
                <g id="Coin3" serif:id="Coin" transform="matrix(0.699771,-0.0550015,0.0521956,0.664072,-1815.64,787.299)">
                    <g transform="matrix(0.957992,0,0,1.00949,-14343.6,-3199.2)">
                        <path d="M19774.6,3769.84C19774.6,3764.68 19770.4,3760.48 19765.3,3760.48L19651.7,3760.48C19646.5,3760.48 19642.3,3764.68 19642.3,3769.84L19642.3,3788.56C19642.3,3793.72 19646.5,3797.91 19651.7,3797.91L19765.3,3797.91C19770.4,3797.91 19774.6,3793.72 19774.6,3788.56L19774.6,3769.84Z" style="fill:rgb(243,156,18);"/>
                    </g>
                    <g transform="matrix(0.957992,1.99422e-17,0,0.508953,-14343.6,-1316.94)">
                        <path d="M19774.6,3769.84C19774.6,3764.68 19772.5,3760.48 19769.9,3760.48L19647,3760.48C19644.4,3760.48 19642.3,3764.68 19642.3,3769.84L19642.3,3788.56C19642.3,3793.72 19644.4,3797.91 19647,3797.91L19769.9,3797.91C19772.5,3797.91 19774.6,3793.72 19774.6,3788.56L19774.6,3769.84Z" style="fill:rgb(255,201,38);"/>
                        <clipPath id="_clip4">
                            <path d="M19774.6,3769.84C19774.6,3764.68 19772.5,3760.48 19769.9,3760.48L19647,3760.48C19644.4,3760.48 19642.3,3764.68 19642.3,3769.84L19642.3,3788.56C19642.3,3793.72 19644.4,3797.91 19647,3797.91L19769.9,3797.91C19772.5,3797.91 19774.6,3793.72 19774.6,3788.56L19774.6,3769.84Z"/>
                        </clipPath>
                        <g clip-path="url(#_clip4)">
                            <g transform="matrix(1,1.33768e-18,1.33168e-17,0.646494,-134.924,1191.45)">
                                <rect x="19843.2" y="3985.72" width="72.605" height="60.578" style="fill:rgb(243,156,18);fill-opacity:0.55;"/>
                            </g>
                        </g>
                    </g>
                    <g transform="matrix(0.957992,0,0,1.00949,-14471.9,-3448.53)">
                        <path d="M19818.6,4016.67C19818.6,4013.99 19816.4,4011.82 19813.7,4011.82L19786.4,4011.82C19783.7,4011.82 19781.5,4013.99 19781.5,4016.67C19781.5,4019.34 19783.7,4021.52 19786.4,4021.52L19813.7,4021.52C19816.4,4021.52 19818.6,4019.34 19818.6,4016.67Z" style="fill:rgb(250,226,70);"/>
                    </g>
                </g>
                <g id="Coin4" serif:id="Coin" transform="matrix(0.694591,0.101231,-0.0960665,0.659157,-1597.52,84.9509)">
                    <g transform="matrix(0.957992,0,0,1.00949,-14343.6,-3199.2)">
                        <path d="M19774.6,3769.84C19774.6,3764.68 19770.4,3760.48 19765.3,3760.48L19651.7,3760.48C19646.5,3760.48 19642.3,3764.68 19642.3,3769.84L19642.3,3788.56C19642.3,3793.72 19646.5,3797.91 19651.7,3797.91L19765.3,3797.91C19770.4,3797.91 19774.6,3793.72 19774.6,3788.56L19774.6,3769.84Z" style="fill:rgb(243,156,18);"/>
                    </g>
                    <g transform="matrix(0.957992,0,4.41955e-17,0.549457,-14343.6,-1469.26)">
                        <path d="M19774.6,3769.84C19774.6,3764.68 19772.3,3760.48 19769.5,3760.48L19647.4,3760.48C19644.6,3760.48 19642.3,3764.68 19642.3,3769.84L19642.3,3788.56C19642.3,3793.72 19644.6,3797.91 19647.4,3797.91L19769.5,3797.91C19772.3,3797.91 19774.6,3793.72 19774.6,3788.56L19774.6,3769.84Z" style="fill:rgb(255,201,38);"/>
                        <clipPath id="_clip5">
                            <path d="M19774.6,3769.84C19774.6,3764.68 19772.3,3760.48 19769.5,3760.48L19647.4,3760.48C19644.6,3760.48 19642.3,3764.68 19642.3,3769.84L19642.3,3788.56C19642.3,3793.72 19644.6,3797.91 19647.4,3797.91L19769.5,3797.91C19772.3,3797.91 19774.6,3793.72 19774.6,3788.56L19774.6,3769.84Z"/>
                        </clipPath>
                        <g clip-path="url(#_clip5)">
                            <g transform="matrix(1,0,5.27894e-17,0.643797,-134.924,1202.37)">
                                <rect x="19843.2" y="3985.72" width="72.605" height="60.578" style="fill:rgb(243,156,18);fill-opacity:0.55;"/>
                            </g>
                        </g>
                    </g>
                    <g transform="matrix(0.957992,0,0,1.00949,-14471.9,-3448.53)">
                        <path d="M19818.6,4016.67C19818.6,4013.99 19816.4,4011.82 19813.7,4011.82L19786.4,4011.82C19783.7,4011.82 19781.5,4013.99 19781.5,4016.67C19781.5,4019.34 19783.7,4021.52 19786.4,4021.52L19813.7,4021.52C19816.4,4021.52 19818.6,4019.34 19818.6,4016.67Z" style="fill:rgb(250,226,70);"/>
                    </g>
                </g>
                <g transform="matrix(2.5216,0,0,1.62998,-405.876,-4828.12)">
                    <path d="M767.208,3548.32L697.122,3548.32L697.122,3605.84C697.122,3611.16 699.916,3615.48 703.357,3615.48L760.972,3615.48C764.414,3615.48 767.208,3611.16 767.208,3605.84L767.208,3548.32Z" style="fill:rgb(179,115,107);"/>
                    <clipPath id="_clip6">
                        <path d="M767.208,3548.32L697.122,3548.32L697.122,3605.84C697.122,3611.16 699.916,3615.48 703.357,3615.48L760.972,3615.48C764.414,3615.48 767.208,3611.16 767.208,3605.84L767.208,3548.32Z"/>
                    </clipPath>
                    <g clip-path="url(#_clip6)">
                        <g transform="matrix(1.05882,0,0,1.73208,-46.724,-2654.15)">
                            <rect x="735.669" y="3580.81" width="37.022" height="41.561" style="fill:rgb(145,84,78);"/>
                        </g>
                        <g transform="matrix(0.36675,0,0,1.48305,-6329.39,-2403.15)">
                            <rect x="19166.8" y="4014.96" width="16.674" height="48.041" style="fill:rgb(209,137,129);fill-opacity:0.55;"/>
                        </g>
                        <g transform="matrix(0.607639,0,0,0.940027,-129.651,2625.6)">
                            <circle cx="1360.63" cy="1053.01" r="21.476" style="fill:rgb(191,191,191);"/>
                        </g>
                        <g transform="matrix(0.607639,0,0,0.940027,-59.564,2625.6)">
                            <circle cx="1360.63" cy="1053.01" r="21.476" style="fill:rgb(159,159,159);"/>
                        </g>
                    </g>
                </g>
                <g>
                    <g transform="matrix(1.55168,0,0,4.21857,336.411,-14120.7)">
                        <path d="M776.426,3574.95C776.426,3573.79 773.87,3572.85 770.721,3572.85L701.891,3572.85C698.742,3572.85 696.186,3573.79 696.186,3574.95C696.186,3576.11 698.742,3577.05 701.891,3577.05L770.721,3577.05C773.87,3577.05 776.426,3576.11 776.426,3574.95Z" style="fill:rgb(114,66,62);"/>
                    </g>
                    <g transform="matrix(1.28907,0,0,4.21857,442.095,-14120.7)">
                        <path d="M776.426,3574.95C776.426,3573.79 773.349,3572.85 769.559,3572.85L703.053,3572.85C699.263,3572.85 696.186,3573.79 696.186,3574.95C696.186,3576.11 699.263,3577.05 703.053,3577.05L769.559,3577.05C773.349,3577.05 776.426,3576.11 776.426,3574.95Z" style="fill:rgb(155,91,84);"/>
                    </g>
                </g>
                <g transform="matrix(1,0,0,0.779749,-5.19432,207.051)">
                    <path d="M1474.26,955.242C1474.26,953.325 1473.05,951.769 1471.55,951.769L1419.27,951.769C1417.92,951.769 1416.83,953.172 1416.83,954.899L1416.83,1000.59C1416.83,1009.57 1422.52,1016.86 1429.52,1016.86L1461.57,1016.86C1468.58,1016.86 1474.26,1009.57 1474.26,1000.59L1474.26,955.242Z" style="fill:rgb(191,191,191);"/>
                    <clipPath id="_clip7">
                        <path d="M1474.26,955.242C1474.26,953.325 1473.05,951.769 1471.55,951.769L1419.27,951.769C1417.92,951.769 1416.83,953.172 1416.83,954.899L1416.83,1000.59C1416.83,1009.57 1422.52,1016.86 1429.52,1016.86L1461.57,1016.86C1468.58,1016.86 1474.26,1009.57 1474.26,1000.59L1474.26,955.242Z"/>
                    </clipPath>
                    <g clip-path="url(#_clip7)">
                        <g transform="matrix(1.03025,0,0,2.23362,687.747,-7050.99)">
                            <rect x="735.669" y="3580.81" width="37.022" height="41.561" style="fill:rgb(159,159,159);"/>
                        </g>
                        <g transform="matrix(1.04238,0,0,2.66093,-18626.2,-9418.49)">
                            <path d="M19239.8,3901.68C19239.8,3900.52 19238,3899.58 19235.7,3899.58C19233.4,3899.58 19231.5,3900.52 19231.5,3901.68L19231.5,3915.95C19231.5,3917.11 19233.4,3918.05 19235.7,3918.05C19238,3918.05 19239.8,3917.11 19239.8,3915.95L19239.8,3901.68Z" style="fill:rgb(235,235,235);fill-opacity:0.55;"/>
                        </g>
                    </g>
                </g>
                <g transform="matrix(2.45754,0,0,2.45754,-363.854,-7844.48)">
                    <circle cx="734.152" cy="3588.58" r="3.963" style="fill:rgb(67,70,78);"/>
                </g>
                <g transform="matrix(1.13737,0,0,0.684053,-196.953,255.883)">
                    <path d="M1520.23,903.669C1520.23,882.499 1509.89,865.311 1497.15,865.311L1381.85,865.311C1369.18,865.311 1358.89,882.419 1358.89,903.492L1358.89,913.288L1520.23,913.288L1520.23,903.669Z" style="fill:rgb(179,115,107);"/>
                    <clipPath id="_clip8">
                        <path d="M1520.23,903.669C1520.23,882.499 1509.89,865.311 1497.15,865.311L1381.85,865.311C1369.18,865.311 1358.89,882.419 1358.89,903.492L1358.89,913.288L1520.23,913.288L1520.23,903.669Z"/>
                    </clipPath>
                    <g clip-path="url(#_clip8)">
                        <g transform="matrix(2.35495,0,0,1.65452,-292.912,-5065.15)">
                            <rect x="735.669" y="3580.81" width="37.022" height="41.561" style="fill:rgb(145,84,78);"/>
                        </g>
                    </g>
                </g>
                <path d="M1452.91,855.852C1456.32,855.852 1459.1,858.624 1459.1,862.039L1459.1,881.168C1459.1,884.583 1456.32,887.355 1452.91,887.355L1447.28,887.355L1447.28,889.96C1447.28,893.783 1444.17,896.887 1440.35,896.887C1436.53,896.887 1433.42,893.783 1433.42,889.96L1433.42,887.355L1427.79,887.355C1424.38,887.355 1421.61,884.583 1421.61,881.168L1421.61,862.039C1421.61,858.624 1424.38,855.852 1427.79,855.852L1452.91,855.852Z" style="fill:rgb(191,191,191);"/>
                <clipPath id="_clip9">
                    <path d="M1452.91,855.852C1456.32,855.852 1459.1,858.624 1459.1,862.039L1459.1,881.168C1459.1,884.583 1456.32,887.355 1452.91,887.355L1447.28,887.355L1447.28,889.96C1447.28,893.783 1444.17,896.887 1440.35,896.887C1436.53,896.887 1433.42,893.783 1433.42,889.96L1433.42,887.355L1427.79,887.355C1424.38,887.355 1421.61,884.583 1421.61,881.168L1421.61,862.039C1421.61,858.624 1424.38,855.852 1427.79,855.852L1452.91,855.852Z"/>
                </clipPath>
                <g clip-path="url(#_clip9)">
                    <g transform="matrix(1.03025,0,0,1.16394,682.553,-3315.95)">
                        <rect x="735.669" y="3580.81" width="37.022" height="41.561" style="fill:rgb(159,159,159);"/>
                    </g>
                    <g transform="matrix(1,0,0,1,-17807.5,-3040.53)">
                        <path d="M19239.8,3903.75C19239.8,3901.45 19238,3899.58 19235.7,3899.58C19233.4,3899.58 19231.5,3901.45 19231.5,3903.75L19231.5,3913.88C19231.5,3916.18 19233.4,3918.05 19235.7,3918.05C19238,3918.05 19239.8,3916.18 19239.8,3913.88L19239.8,3903.75Z" style="fill:rgb(235,235,235);fill-opacity:0.55;"/>
                    </g>
                </g>
            </g>
            <g id="Coins" transform="matrix(1.00868,0,0,1.00868,-12.546,-4.4495)">
                <g id="Coin5" serif:id="Coin" transform="matrix(1,0,0,1,-176.324,75.6102)">
                    <g transform="matrix(0.957992,0,0,1.00949,-14343.6,-3199.2)">
                        <path d="M19774.6,3769.84C19774.6,3764.68 19770.4,3760.48 19765.3,3760.48L19651.7,3760.48C19646.5,3760.48 19642.3,3764.68 19642.3,3769.84L19642.3,3788.56C19642.3,3793.72 19646.5,3797.91 19651.7,3797.91L19765.3,3797.91C19770.4,3797.91 19774.6,3793.72 19774.6,3788.56L19774.6,3769.84Z" style="fill:rgb(243,156,18);"/>
                    </g>
                    <g transform="matrix(0.957992,0,0,0.796155,-14343.6,-2396.96)">
                        <path d="M19774.6,3769.84C19774.6,3764.68 19771.3,3760.48 19767.2,3760.48L19649.7,3760.48C19645.6,3760.48 19642.3,3764.68 19642.3,3769.84L19642.3,3788.56C19642.3,3793.72 19645.6,3797.91 19649.7,3797.91L19767.2,3797.91C19771.3,3797.91 19774.6,3793.72 19774.6,3788.56L19774.6,3769.84Z" style="fill:rgb(255,201,38);"/>
                        <clipPath id="_clip10">
                            <path d="M19774.6,3769.84C19774.6,3764.68 19771.3,3760.48 19767.2,3760.48L19649.7,3760.48C19645.6,3760.48 19642.3,3764.68 19642.3,3769.84L19642.3,3788.56C19642.3,3793.72 19645.6,3797.91 19649.7,3797.91L19767.2,3797.91C19771.3,3797.91 19774.6,3793.72 19774.6,3788.56L19774.6,3769.84Z"/>
                        </clipPath>
                        <g clip-path="url(#_clip10)">
                            <g transform="matrix(1,0,0,0.690721,-134.924,1012.5)">
                                <rect x="19843.2" y="3985.72" width="72.605" height="60.578" style="fill:rgb(243,156,18);fill-opacity:0.55;"/>
                            </g>
                        </g>
                    </g>
                    <g transform="matrix(0.957992,0,0,1.00949,-14471.9,-3448.53)">
                        <path d="M19818.6,4016.67C19818.6,4013.99 19816.4,4011.82 19813.7,4011.82L19786.4,4011.82C19783.7,4011.82 19781.5,4013.99 19781.5,4016.67C19781.5,4019.34 19783.7,4021.52 19786.4,4021.52L19813.7,4021.52C19816.4,4021.52 19818.6,4019.34 19818.6,4016.67Z" style="fill:rgb(250,226,70);"/>
                    </g>
                </g>
                <g id="Coin6" serif:id="Coin" transform="matrix(1,0,0,1,-184.73,38.3646)">
                    <g transform="matrix(0.957992,0,0,1.00949,-14343.6,-3199.2)">
                        <path d="M19774.6,3769.84C19774.6,3764.68 19770.4,3760.48 19765.3,3760.48L19651.7,3760.48C19646.5,3760.48 19642.3,3764.68 19642.3,3769.84L19642.3,3788.56C19642.3,3793.72 19646.5,3797.91 19651.7,3797.91L19765.3,3797.91C19770.4,3797.91 19774.6,3793.72 19774.6,3788.56L19774.6,3769.84Z" style="fill:rgb(243,156,18);"/>
                    </g>
                    <g transform="matrix(0.957992,0,0,0.796155,-14343.6,-2396.96)">
                        <path d="M19774.6,3769.84C19774.6,3764.68 19771.3,3760.48 19767.2,3760.48L19649.7,3760.48C19645.6,3760.48 19642.3,3764.68 19642.3,3769.84L19642.3,3788.56C19642.3,3793.72 19645.6,3797.91 19649.7,3797.91L19767.2,3797.91C19771.3,3797.91 19774.6,3793.72 19774.6,3788.56L19774.6,3769.84Z" style="fill:rgb(255,201,38);"/>
                        <clipPath id="_clip11">
                            <path d="M19774.6,3769.84C19774.6,3764.68 19771.3,3760.48 19767.2,3760.48L19649.7,3760.48C19645.6,3760.48 19642.3,3764.68 19642.3,3769.84L19642.3,3788.56C19642.3,3793.72 19645.6,3797.91 19649.7,3797.91L19767.2,3797.91C19771.3,3797.91 19774.6,3793.72 19774.6,3788.56L19774.6,3769.84Z"/>
                        </clipPath>
                        <g clip-path="url(#_clip11)">
                            <g transform="matrix(1,0,0,0.690721,-134.924,1012.5)">
                                <rect x="19843.2" y="3985.72" width="72.605" height="60.578" style="fill:rgb(243,156,18);fill-opacity:0.55;"/>
                            </g>
                        </g>
                    </g>
                    <g transform="matrix(0.957992,0,0,1.00949,-14471.9,-3448.53)">
                        <path d="M19818.6,4016.67C19818.6,4013.99 19816.4,4011.82 19813.7,4011.82L19786.4,4011.82C19783.7,4011.82 19781.5,4013.99 19781.5,4016.67C19781.5,4019.34 19783.7,4021.52 19786.4,4021.52L19813.7,4021.52C19816.4,4021.52 19818.6,4019.34 19818.6,4016.67Z" style="fill:rgb(250,226,70);"/>
                    </g>
                </g>
            </g>
        </g>
        <g transform="matrix(1,0,0,1,-10.6477,0)">
            <g id="Sparkle" transform="matrix(0.778652,0,0,0.82051,-10942.9,-2699.77)">
                <path d="M19613,3940.99L19617.4,3952.7L19629.1,3957.03L19617.4,3961.36L19613,3973.07L19608.7,3961.36L19597,3957.03L19608.7,3952.7L19613,3940.99Z" style="fill:rgb(250,226,70);"/>
            </g>
            <g id="Sparkle1" serif:id="Sparkle" transform="matrix(0.778652,0,0,0.82051,-10973.8,-2631.4)">
                <path d="M19613,3940.99L19617.4,3952.7L19629.1,3957.03L19617.4,3961.36L19613,3973.07L19608.7,3961.36L19597,3957.03L19608.7,3952.7L19613,3940.99Z" style="fill:rgb(250,226,70);"/>
            </g>
            <g id="Sparkle2" serif:id="Sparkle" transform="matrix(0.778652,0,0,0.82051,-10734.8,-2690.38)">
                <path d="M19613,3940.99L19617.4,3952.7L19629.1,3957.03L19617.4,3961.36L19613,3973.07L19608.7,3961.36L19597,3957.03L19608.7,3952.7L19613,3940.99Z" style="fill:rgb(250,226,70);"/>
            </g>
        </g>
    </g>
</svg>
