<?xml version="1.0" encoding="UTF-8" standalone="no"?>
<!DOCTYPE svg PUBLIC "-//W3C//DTD SVG 1.1//EN" "http://www.w3.org/Graphics/SVG/1.1/DTD/svg11.dtd">
<svg width="100%" height="100%" viewBox="0 0 512 512" version="1.1" xmlns="http://www.w3.org/2000/svg" xmlns:xlink="http://www.w3.org/1999/xlink" xml:space="preserve" xmlns:serif="http://www.serif.com/" style="fill-rule:evenodd;clip-rule:evenodd;stroke-linejoin:round;stroke-miterlimit:2;">
    <g id="Coins3" transform="matrix(1.76022,0,0,1.67042,-7507.62,-661.309)">
        <g id="CoinsIcon" transform="matrix(1,0,0,1,-24.1459,-963.283)">
            <g id="Coins" transform="matrix(0.994051,0,0,0.994051,70.5581,903.955)">
                <g id="Coin" transform="matrix(1,0,0,1,-193.635,75.6102)">
                    <g transform="matrix(0.957992,0,0,1.00949,-14343.6,-3199.2)">
                        <path d="M19774.6,3769.84C19774.6,3764.68 19770.4,3760.48 19765.3,3760.48L19651.7,3760.48C19646.5,3760.48 19642.3,3764.68 19642.3,3769.84L19642.3,3788.56C19642.3,3793.72 19646.5,3797.91 19651.7,3797.91L19765.3,3797.91C19770.4,3797.91 19774.6,3793.72 19774.6,3788.56L19774.6,3769.84Z" style="fill:rgb(243,156,18);"/>
                    </g>
                    <g transform="matrix(0.957992,0,0,0.796155,-14343.6,-2396.96)">
                        <path d="M19774.6,3769.84C19774.6,3764.68 19771.3,3760.48 19767.2,3760.48L19649.7,3760.48C19645.6,3760.48 19642.3,3764.68 19642.3,3769.84L19642.3,3788.56C19642.3,3793.72 19645.6,3797.91 19649.7,3797.91L19767.2,3797.91C19771.3,3797.91 19774.6,3793.72 19774.6,3788.56L19774.6,3769.84Z" style="fill:rgb(255,201,38);"/>
                        <clipPath id="_clip1">
                            <path d="M19774.6,3769.84C19774.6,3764.68 19771.3,3760.48 19767.2,3760.48L19649.7,3760.48C19645.6,3760.48 19642.3,3764.68 19642.3,3769.84L19642.3,3788.56C19642.3,3793.72 19645.6,3797.91 19649.7,3797.91L19767.2,3797.91C19771.3,3797.91 19774.6,3793.72 19774.6,3788.56L19774.6,3769.84Z"/>
                        </clipPath>
                        <g clip-path="url(#_clip1)">
                            <g transform="matrix(1,0,0,0.690721,-134.924,1012.5)">
                                <rect x="19843.2" y="3985.72" width="72.605" height="60.578" style="fill:rgb(243,156,18);fill-opacity:0.55;"/>
                            </g>
                        </g>
                    </g>
                    <g transform="matrix(0.957992,0,0,1.00949,-14471.9,-3448.53)">
                        <path d="M19818.6,4016.67C19818.6,4013.99 19816.4,4011.82 19813.7,4011.82L19786.4,4011.82C19783.7,4011.82 19781.5,4013.99 19781.5,4016.67C19781.5,4019.34 19783.7,4021.52 19786.4,4021.52L19813.7,4021.52C19816.4,4021.52 19818.6,4019.34 19818.6,4016.67Z" style="fill:rgb(250,226,70);"/>
                    </g>
                </g>
                <g id="Coin1" serif:id="Coin" transform="matrix(1,0,0,1,-183.215,38.3646)">
                    <g transform="matrix(0.957992,0,0,1.00949,-14343.6,-3199.2)">
                        <path d="M19774.6,3769.84C19774.6,3764.68 19770.4,3760.48 19765.3,3760.48L19651.7,3760.48C19646.5,3760.48 19642.3,3764.68 19642.3,3769.84L19642.3,3788.56C19642.3,3793.72 19646.5,3797.91 19651.7,3797.91L19765.3,3797.91C19770.4,3797.91 19774.6,3793.72 19774.6,3788.56L19774.6,3769.84Z" style="fill:rgb(243,156,18);"/>
                    </g>
                    <g transform="matrix(0.957992,0,0,0.796155,-14343.6,-2396.96)">
                        <path d="M19774.6,3769.84C19774.6,3764.68 19771.3,3760.48 19767.2,3760.48L19649.7,3760.48C19645.6,3760.48 19642.3,3764.68 19642.3,3769.84L19642.3,3788.56C19642.3,3793.72 19645.6,3797.91 19649.7,3797.91L19767.2,3797.91C19771.3,3797.91 19774.6,3793.72 19774.6,3788.56L19774.6,3769.84Z" style="fill:rgb(255,201,38);"/>
                        <clipPath id="_clip2">
                            <path d="M19774.6,3769.84C19774.6,3764.68 19771.3,3760.48 19767.2,3760.48L19649.7,3760.48C19645.6,3760.48 19642.3,3764.68 19642.3,3769.84L19642.3,3788.56C19642.3,3793.72 19645.6,3797.91 19649.7,3797.91L19767.2,3797.91C19771.3,3797.91 19774.6,3793.72 19774.6,3788.56L19774.6,3769.84Z"/>
                        </clipPath>
                        <g clip-path="url(#_clip2)">
                            <g transform="matrix(1,0,0,0.690721,-134.924,1012.5)">
                                <rect x="19843.2" y="3985.72" width="72.605" height="60.578" style="fill:rgb(243,156,18);fill-opacity:0.55;"/>
                            </g>
                        </g>
                    </g>
                    <g transform="matrix(0.957992,0,0,1.00949,-14471.9,-3448.53)">
                        <path d="M19818.6,4016.67C19818.6,4013.99 19816.4,4011.82 19813.7,4011.82L19786.4,4011.82C19783.7,4011.82 19781.5,4013.99 19781.5,4016.67C19781.5,4019.34 19783.7,4021.52 19786.4,4021.52L19813.7,4021.52C19816.4,4021.52 19818.6,4019.34 19818.6,4016.67Z" style="fill:rgb(250,226,70);"/>
                    </g>
                </g>
                <g id="Coin2" serif:id="Coin" transform="matrix(1,0,0,1,-193.635,1.11911)">
                    <g transform="matrix(0.957992,0,0,1.00949,-14343.6,-3199.2)">
                        <path d="M19774.6,3769.84C19774.6,3764.68 19770.4,3760.48 19765.3,3760.48L19651.7,3760.48C19646.5,3760.48 19642.3,3764.68 19642.3,3769.84L19642.3,3788.56C19642.3,3793.72 19646.5,3797.91 19651.7,3797.91L19765.3,3797.91C19770.4,3797.91 19774.6,3793.72 19774.6,3788.56L19774.6,3769.84Z" style="fill:rgb(243,156,18);"/>
                    </g>
                    <g transform="matrix(0.957992,0,0,0.796155,-14343.6,-2396.96)">
                        <path d="M19774.6,3769.84C19774.6,3764.68 19771.3,3760.48 19767.2,3760.48L19649.7,3760.48C19645.6,3760.48 19642.3,3764.68 19642.3,3769.84L19642.3,3788.56C19642.3,3793.72 19645.6,3797.91 19649.7,3797.91L19767.2,3797.91C19771.3,3797.91 19774.6,3793.72 19774.6,3788.56L19774.6,3769.84Z" style="fill:rgb(255,201,38);"/>
                        <clipPath id="_clip3">
                            <path d="M19774.6,3769.84C19774.6,3764.68 19771.3,3760.48 19767.2,3760.48L19649.7,3760.48C19645.6,3760.48 19642.3,3764.68 19642.3,3769.84L19642.3,3788.56C19642.3,3793.72 19645.6,3797.91 19649.7,3797.91L19767.2,3797.91C19771.3,3797.91 19774.6,3793.72 19774.6,3788.56L19774.6,3769.84Z"/>
                        </clipPath>
                        <g clip-path="url(#_clip3)">
                            <g transform="matrix(1,0,0,0.690721,-134.924,1012.5)">
                                <rect x="19843.2" y="3985.72" width="72.605" height="60.578" style="fill:rgb(243,156,18);fill-opacity:0.55;"/>
                            </g>
                        </g>
                    </g>
                    <g transform="matrix(0.957992,0,0,1.00949,-14471.9,-3448.53)">
                        <path d="M19818.6,4016.67C19818.6,4013.99 19816.4,4011.82 19813.7,4011.82L19786.4,4011.82C19783.7,4011.82 19781.5,4013.99 19781.5,4016.67C19781.5,4019.34 19783.7,4021.52 19786.4,4021.52L19813.7,4021.52C19816.4,4021.52 19818.6,4019.34 19818.6,4016.67Z" style="fill:rgb(250,226,70);"/>
                    </g>
                </g>
                <g id="Coin3" serif:id="Coin" transform="matrix(1,0,0,1,-183.215,-36.1264)">
                    <g transform="matrix(0.957992,0,0,1.00949,-14343.6,-3199.2)">
                        <path d="M19774.6,3769.84C19774.6,3764.68 19770.4,3760.48 19765.3,3760.48L19651.7,3760.48C19646.5,3760.48 19642.3,3764.68 19642.3,3769.84L19642.3,3788.56C19642.3,3793.72 19646.5,3797.91 19651.7,3797.91L19765.3,3797.91C19770.4,3797.91 19774.6,3793.72 19774.6,3788.56L19774.6,3769.84Z" style="fill:rgb(243,156,18);"/>
                    </g>
                    <g transform="matrix(0.957992,0,0,0.796155,-14343.6,-2396.96)">
                        <path d="M19774.6,3769.84C19774.6,3764.68 19771.3,3760.48 19767.2,3760.48L19649.7,3760.48C19645.6,3760.48 19642.3,3764.68 19642.3,3769.84L19642.3,3788.56C19642.3,3793.72 19645.6,3797.91 19649.7,3797.91L19767.2,3797.91C19771.3,3797.91 19774.6,3793.72 19774.6,3788.56L19774.6,3769.84Z" style="fill:rgb(255,201,38);"/>
                        <clipPath id="_clip4">
                            <path d="M19774.6,3769.84C19774.6,3764.68 19771.3,3760.48 19767.2,3760.48L19649.7,3760.48C19645.6,3760.48 19642.3,3764.68 19642.3,3769.84L19642.3,3788.56C19642.3,3793.72 19645.6,3797.91 19649.7,3797.91L19767.2,3797.91C19771.3,3797.91 19774.6,3793.72 19774.6,3788.56L19774.6,3769.84Z"/>
                        </clipPath>
                        <g clip-path="url(#_clip4)">
                            <g transform="matrix(1,0,0,0.690721,-134.924,1012.5)">
                                <rect x="19843.2" y="3985.72" width="72.605" height="60.578" style="fill:rgb(243,156,18);fill-opacity:0.55;"/>
                            </g>
                        </g>
                    </g>
                    <g transform="matrix(0.957992,0,0,1.00949,-14471.9,-3448.53)">
                        <path d="M19818.6,4016.67C19818.6,4013.99 19816.4,4011.82 19813.7,4011.82L19786.4,4011.82C19783.7,4011.82 19781.5,4013.99 19781.5,4016.67C19781.5,4019.34 19783.7,4021.52 19786.4,4021.52L19813.7,4021.52C19816.4,4021.52 19818.6,4019.34 19818.6,4016.67Z" style="fill:rgb(250,226,70);"/>
                    </g>
                </g>
                <g id="Coin4" serif:id="Coin" transform="matrix(1,0,0,1,-193.635,-73.3719)">
                    <g transform="matrix(0.957992,0,0,1.00949,-14343.6,-3199.2)">
                        <path d="M19774.6,3769.84C19774.6,3764.68 19770.4,3760.48 19765.3,3760.48L19651.7,3760.48C19646.5,3760.48 19642.3,3764.68 19642.3,3769.84L19642.3,3788.56C19642.3,3793.72 19646.5,3797.91 19651.7,3797.91L19765.3,3797.91C19770.4,3797.91 19774.6,3793.72 19774.6,3788.56L19774.6,3769.84Z" style="fill:rgb(243,156,18);"/>
                    </g>
                    <g transform="matrix(0.957992,0,0,0.796155,-14343.6,-2396.96)">
                        <path d="M19774.6,3769.84C19774.6,3764.68 19771.3,3760.48 19767.2,3760.48L19649.7,3760.48C19645.6,3760.48 19642.3,3764.68 19642.3,3769.84L19642.3,3788.56C19642.3,3793.72 19645.6,3797.91 19649.7,3797.91L19767.2,3797.91C19771.3,3797.91 19774.6,3793.72 19774.6,3788.56L19774.6,3769.84Z" style="fill:rgb(255,201,38);"/>
                        <clipPath id="_clip5">
                            <path d="M19774.6,3769.84C19774.6,3764.68 19771.3,3760.48 19767.2,3760.48L19649.7,3760.48C19645.6,3760.48 19642.3,3764.68 19642.3,3769.84L19642.3,3788.56C19642.3,3793.72 19645.6,3797.91 19649.7,3797.91L19767.2,3797.91C19771.3,3797.91 19774.6,3793.72 19774.6,3788.56L19774.6,3769.84Z"/>
                        </clipPath>
                        <g clip-path="url(#_clip5)">
                            <g transform="matrix(1,0,0,0.690721,-134.924,1012.5)">
                                <rect x="19843.2" y="3985.72" width="72.605" height="60.578" style="fill:rgb(243,156,18);fill-opacity:0.55;"/>
                            </g>
                        </g>
                    </g>
                    <g transform="matrix(0.957992,0,0,1.00949,-14471.9,-3448.53)">
                        <path d="M19818.6,4016.67C19818.6,4013.99 19816.4,4011.82 19813.7,4011.82L19786.4,4011.82C19783.7,4011.82 19781.5,4013.99 19781.5,4016.67C19781.5,4019.34 19783.7,4021.52 19786.4,4021.52L19813.7,4021.52C19816.4,4021.52 19818.6,4019.34 19818.6,4016.67Z" style="fill:rgb(250,226,70);"/>
                    </g>
                </g>
            </g>
            <g id="Coins1" serif:id="Coins" transform="matrix(0.987943,0,0,0.987943,190.892,935.605)">
                <g id="Coin5" serif:id="Coin" transform="matrix(1,0,0,1,-194.483,75.6102)">
                    <g transform="matrix(0.957992,0,0,1.00949,-14343.6,-3199.2)">
                        <path d="M19774.6,3769.84C19774.6,3764.68 19770.4,3760.48 19765.3,3760.48L19651.7,3760.48C19646.5,3760.48 19642.3,3764.68 19642.3,3769.84L19642.3,3788.56C19642.3,3793.72 19646.5,3797.91 19651.7,3797.91L19765.3,3797.91C19770.4,3797.91 19774.6,3793.72 19774.6,3788.56L19774.6,3769.84Z" style="fill:rgb(243,156,18);"/>
                    </g>
                    <g transform="matrix(0.957992,0,0,0.796155,-14343.6,-2396.96)">
                        <path d="M19774.6,3769.84C19774.6,3764.68 19771.3,3760.48 19767.2,3760.48L19649.7,3760.48C19645.6,3760.48 19642.3,3764.68 19642.3,3769.84L19642.3,3788.56C19642.3,3793.72 19645.6,3797.91 19649.7,3797.91L19767.2,3797.91C19771.3,3797.91 19774.6,3793.72 19774.6,3788.56L19774.6,3769.84Z" style="fill:rgb(255,201,38);"/>
                        <clipPath id="_clip6">
                            <path d="M19774.6,3769.84C19774.6,3764.68 19771.3,3760.48 19767.2,3760.48L19649.7,3760.48C19645.6,3760.48 19642.3,3764.68 19642.3,3769.84L19642.3,3788.56C19642.3,3793.72 19645.6,3797.91 19649.7,3797.91L19767.2,3797.91C19771.3,3797.91 19774.6,3793.72 19774.6,3788.56L19774.6,3769.84Z"/>
                        </clipPath>
                        <g clip-path="url(#_clip6)">
                            <g transform="matrix(1,0,0,0.690721,-134.924,1012.5)">
                                <rect x="19843.2" y="3985.72" width="72.605" height="60.578" style="fill:rgb(243,156,18);fill-opacity:0.55;"/>
                            </g>
                        </g>
                    </g>
                    <g transform="matrix(0.957992,0,0,1.00949,-14471.9,-3448.53)">
                        <path d="M19818.6,4016.67C19818.6,4013.99 19816.4,4011.82 19813.7,4011.82L19786.4,4011.82C19783.7,4011.82 19781.5,4013.99 19781.5,4016.67C19781.5,4019.34 19783.7,4021.52 19786.4,4021.52L19813.7,4021.52C19816.4,4021.52 19818.6,4019.34 19818.6,4016.67Z" style="fill:rgb(250,226,70);"/>
                    </g>
                </g>
                <g id="Coin6" serif:id="Coin" transform="matrix(1,0,0,1,-183.215,38.3646)">
                    <g transform="matrix(0.957992,0,0,1.00949,-14343.6,-3199.2)">
                        <path d="M19774.6,3769.84C19774.6,3764.68 19770.4,3760.48 19765.3,3760.48L19651.7,3760.48C19646.5,3760.48 19642.3,3764.68 19642.3,3769.84L19642.3,3788.56C19642.3,3793.72 19646.5,3797.91 19651.7,3797.91L19765.3,3797.91C19770.4,3797.91 19774.6,3793.72 19774.6,3788.56L19774.6,3769.84Z" style="fill:rgb(243,156,18);"/>
                    </g>
                    <g transform="matrix(0.957992,0,0,0.796155,-14343.6,-2396.96)">
                        <path d="M19774.6,3769.84C19774.6,3764.68 19771.3,3760.48 19767.2,3760.48L19649.7,3760.48C19645.6,3760.48 19642.3,3764.68 19642.3,3769.84L19642.3,3788.56C19642.3,3793.72 19645.6,3797.91 19649.7,3797.91L19767.2,3797.91C19771.3,3797.91 19774.6,3793.72 19774.6,3788.56L19774.6,3769.84Z" style="fill:rgb(255,201,38);"/>
                        <clipPath id="_clip7">
                            <path d="M19774.6,3769.84C19774.6,3764.68 19771.3,3760.48 19767.2,3760.48L19649.7,3760.48C19645.6,3760.48 19642.3,3764.68 19642.3,3769.84L19642.3,3788.56C19642.3,3793.72 19645.6,3797.91 19649.7,3797.91L19767.2,3797.91C19771.3,3797.91 19774.6,3793.72 19774.6,3788.56L19774.6,3769.84Z"/>
                        </clipPath>
                        <g clip-path="url(#_clip7)">
                            <g transform="matrix(1,0,0,0.690721,-134.924,1012.5)">
                                <rect x="19843.2" y="3985.72" width="72.605" height="60.578" style="fill:rgb(243,156,18);fill-opacity:0.55;"/>
                            </g>
                        </g>
                    </g>
                    <g transform="matrix(0.957992,0,0,1.00949,-14471.9,-3448.53)">
                        <path d="M19818.6,4016.67C19818.6,4013.99 19816.4,4011.82 19813.7,4011.82L19786.4,4011.82C19783.7,4011.82 19781.5,4013.99 19781.5,4016.67C19781.5,4019.34 19783.7,4021.52 19786.4,4021.52L19813.7,4021.52C19816.4,4021.52 19818.6,4019.34 19818.6,4016.67Z" style="fill:rgb(250,226,70);"/>
                    </g>
                </g>
                <g id="Coin7" serif:id="Coin" transform="matrix(1,0,0,1,-194.483,1.11911)">
                    <g transform="matrix(0.957992,0,0,1.00949,-14343.6,-3199.2)">
                        <path d="M19774.6,3769.84C19774.6,3764.68 19770.4,3760.48 19765.3,3760.48L19651.7,3760.48C19646.5,3760.48 19642.3,3764.68 19642.3,3769.84L19642.3,3788.56C19642.3,3793.72 19646.5,3797.91 19651.7,3797.91L19765.3,3797.91C19770.4,3797.91 19774.6,3793.72 19774.6,3788.56L19774.6,3769.84Z" style="fill:rgb(243,156,18);"/>
                    </g>
                    <g transform="matrix(0.957992,0,0,0.796155,-14343.6,-2396.96)">
                        <path d="M19774.6,3769.84C19774.6,3764.68 19771.3,3760.48 19767.2,3760.48L19649.7,3760.48C19645.6,3760.48 19642.3,3764.68 19642.3,3769.84L19642.3,3788.56C19642.3,3793.72 19645.6,3797.91 19649.7,3797.91L19767.2,3797.91C19771.3,3797.91 19774.6,3793.72 19774.6,3788.56L19774.6,3769.84Z" style="fill:rgb(255,201,38);"/>
                        <clipPath id="_clip8">
                            <path d="M19774.6,3769.84C19774.6,3764.68 19771.3,3760.48 19767.2,3760.48L19649.7,3760.48C19645.6,3760.48 19642.3,3764.68 19642.3,3769.84L19642.3,3788.56C19642.3,3793.72 19645.6,3797.91 19649.7,3797.91L19767.2,3797.91C19771.3,3797.91 19774.6,3793.72 19774.6,3788.56L19774.6,3769.84Z"/>
                        </clipPath>
                        <g clip-path="url(#_clip8)">
                            <g transform="matrix(1,0,0,0.690721,-134.924,1012.5)">
                                <rect x="19843.2" y="3985.72" width="72.605" height="60.578" style="fill:rgb(243,156,18);fill-opacity:0.55;"/>
                            </g>
                        </g>
                    </g>
                    <g transform="matrix(0.957992,0,0,1.00949,-14471.9,-3448.53)">
                        <path d="M19818.6,4016.67C19818.6,4013.99 19816.4,4011.82 19813.7,4011.82L19786.4,4011.82C19783.7,4011.82 19781.5,4013.99 19781.5,4016.67C19781.5,4019.34 19783.7,4021.52 19786.4,4021.52L19813.7,4021.52C19816.4,4021.52 19818.6,4019.34 19818.6,4016.67Z" style="fill:rgb(250,226,70);"/>
                    </g>
                </g>
            </g>
        </g>
        <g transform="matrix(1,0,0,1,-5.12831,-37.9494)">
            <g id="Sparkle" transform="matrix(0.778652,0,0,0.82051,-10930.2,-2771.5)">
                <path d="M19613,3940.99L19617.4,3952.7L19629.1,3957.03L19617.4,3961.36L19613,3973.07L19608.7,3961.36L19597,3957.03L19608.7,3952.7L19613,3940.99Z" style="fill:rgb(250,226,70);"/>
            </g>
            <g id="Sparkle1" serif:id="Sparkle" transform="matrix(0.778652,0,0,0.82051,-10725.3,-2630.4)">
                <path d="M19613,3940.99L19617.4,3952.7L19629.1,3957.03L19617.4,3961.36L19613,3973.07L19608.7,3961.36L19597,3957.03L19608.7,3952.7L19613,3940.99Z" style="fill:rgb(250,226,70);"/>
            </g>
            <g id="Sparkle2" serif:id="Sparkle" transform="matrix(0.778652,0,0,0.82051,-10807,-2665.46)">
                <path d="M19613,3940.99L19617.4,3952.7L19629.1,3957.03L19617.4,3961.36L19613,3973.07L19608.7,3961.36L19597,3957.03L19608.7,3952.7L19613,3940.99Z" style="fill:rgb(250,226,70);"/>
            </g>
            <g id="Sparkle3" serif:id="Sparkle" transform="matrix(0.778652,0,0,0.82051,-10975.3,-2690.42)">
                <path d="M19613,3940.99L19617.4,3952.7L19629.1,3957.03L19617.4,3961.36L19613,3973.07L19608.7,3961.36L19597,3957.03L19608.7,3952.7L19613,3940.99Z" style="fill:rgb(250,226,70);"/>
            </g>
            <g id="Sparkle4" serif:id="Sparkle" transform="matrix(0.778652,0,0,0.82051,-10986.6,-2746.04)">
                <path d="M19613,3940.99L19617.4,3952.7L19629.1,3957.03L19617.4,3961.36L19613,3973.07L19608.7,3961.36L19597,3957.03L19608.7,3952.7L19613,3940.99Z" style="fill:rgb(250,226,70);"/>
            </g>
        </g>
    </g>
</svg>
