<?xml version="1.0" encoding="UTF-8" standalone="no"?>
<!DOCTYPE svg PUBLIC "-//W3C//DTD SVG 1.1//EN" "http://www.w3.org/Graphics/SVG/1.1/DTD/svg11.dtd">
<svg width="100%" height="100%" viewBox="0 0 512 512" version="1.1" xmlns="http://www.w3.org/2000/svg" xmlns:xlink="http://www.w3.org/1999/xlink" xml:space="preserve" xmlns:serif="http://www.serif.com/" style="fill-rule:evenodd;clip-rule:evenodd;stroke-linejoin:round;stroke-miterlimit:2;">
    <g id="Coins8" transform="matrix(2.72475,0,0,2.72475,-1047.27,-2162.94)">
        <g transform="matrix(0.814038,0,0,0.77251,-3132.33,-326.31)">
            <g id="CoinsIcon">
                <g id="Coin">
                    <g transform="matrix(0.957992,0,0,1.00949,-13997.3,-3349.27)">
                        <circle cx="19241.1" cy="4886.82" r="60.413" style="fill:rgb(250,226,70);"/>
                        <clipPath id="_clip1">
                            <circle cx="19241.1" cy="4886.82" r="60.413"/>
                        </clipPath>
                        <g clip-path="url(#_clip1)">
                            <g transform="matrix(1,0,0,0.862674,1.81899e-12,681.085)">
                                <rect x="19241.7" y="4794.31" width="78.177" height="165.318" style="fill:rgb(243,156,18);"/>
                            </g>
                        </g>
                    </g>
                    <g transform="matrix(0.724902,0,0,0.763871,-9512.44,-2148.97)">
                        <circle cx="19241.1" cy="4886.82" r="60.413" style="fill:rgb(255,201,38);"/>
                    </g>
                    <g transform="matrix(0.529304,0,0,0.557758,-5749.51,-1143.04)">
                        <path d="M19241.5,4817.37C19250.6,4818.04 19253,4835.38 19240.8,4835.46C19240.4,4835.46 19240.1,4835.47 19239.8,4835.47C19219.2,4836.07 19199.7,4850.02 19192.7,4869.47C19190.7,4875.02 19189.7,4880.92 19189.7,4886.82C19189.7,4886.82 19185.6,4899.13 19176.8,4895.02C19168.5,4891.12 19171.2,4876.43 19175.4,4864.15C19184.6,4837.52 19211,4817.81 19240.2,4817.36C19240.2,4817.36 19240.6,4817.35 19241.5,4817.37Z" style="fill:rgb(250,226,70);"/>
                    </g>
                </g>
            </g>
        </g>
        <g transform="matrix(1,0,0,1,-9.09495e-13,-10.126)">
            <g transform="matrix(1,0,0,1,2.59397,-7.90788)">
                <g id="Sparkle" transform="matrix(0.633852,0,0,0.633852,-11915.9,-1648.84)">
                    <path d="M19613,3940.99L19617.4,3952.7L19629.1,3957.03L19617.4,3961.36L19613,3973.07L19608.7,3961.36L19597,3957.03L19608.7,3952.7L19613,3940.99Z" style="fill:rgb(250,226,70);"/>
                </g>
                <g id="Sparkle1" serif:id="Sparkle" transform="matrix(0.633852,0,0,0.633852,-11996.2,-1648.84)">
                    <path d="M19613,3940.99L19617.4,3952.7L19629.1,3957.03L19617.4,3961.36L19613,3973.07L19608.7,3961.36L19597,3957.03L19608.7,3952.7L19613,3940.99Z" style="fill:rgb(250,226,70);"/>
                </g>
            </g>
            <g transform="matrix(1,0,0,1,0,-7.90788)">
                <g id="Sparkle2" serif:id="Sparkle" transform="matrix(0.633852,0,0,0.633852,-12018,-1592.02)">
                    <path d="M19613,3940.99L19617.4,3952.7L19629.1,3957.03L19617.4,3961.36L19613,3973.07L19608.7,3961.36L19597,3957.03L19608.7,3952.7L19613,3940.99Z" style="fill:rgb(250,226,70);"/>
                </g>
                <g id="Sparkle3" serif:id="Sparkle" transform="matrix(0.633852,0,0,0.633852,-11888.9,-1592.02)">
                    <path d="M19613,3940.99L19617.4,3952.7L19629.1,3957.03L19617.4,3961.36L19613,3973.07L19608.7,3961.36L19597,3957.03L19608.7,3952.7L19613,3940.99Z" style="fill:rgb(250,226,70);"/>
                </g>
            </g>
        </g>
    </g>
</svg>
