<?xml version="1.0" encoding="UTF-8" standalone="no"?>
<!DOCTYPE svg PUBLIC "-//W3C//DTD SVG 1.1//EN" "http://www.w3.org/Graphics/SVG/1.1/DTD/svg11.dtd">
<svg width="100%" height="100%" viewBox="0 0 512 512" version="1.1" xmlns="http://www.w3.org/2000/svg" xmlns:xlink="http://www.w3.org/1999/xlink" xml:space="preserve" xmlns:serif="http://www.serif.com/" style="fill-rule:evenodd;clip-rule:evenodd;stroke-linejoin:round;stroke-miterlimit:2;">
    <g id="CompassIcon" transform="matrix(4.46179,0,0,4.23417,-18941.6,-1062.2)">
        <g transform="matrix(0.930651,0,0,0.98068,3603.9,-2807.96)">
            <path d="M750.833,3121.71C757.221,3121.71 762.407,3126.9 762.407,3133.29C762.407,3139.67 757.221,3144.86 750.833,3144.86C744.446,3144.86 739.26,3139.67 739.26,3133.29C739.26,3126.9 744.446,3121.71 750.833,3121.71ZM750.833,3127.5C754.027,3127.5 756.62,3130.09 756.62,3133.29C756.62,3136.48 754.027,3139.07 750.833,3139.07C747.639,3139.07 745.046,3136.48 745.046,3133.29C745.046,3130.09 747.639,3127.5 750.833,3127.5Z" style="fill:rgb(137,154,155);"/>
            <clipPath id="_clip1">
                <path d="M750.833,3121.71C757.221,3121.71 762.407,3126.9 762.407,3133.29C762.407,3139.67 757.221,3144.86 750.833,3144.86C744.446,3144.86 739.26,3139.67 739.26,3133.29C739.26,3126.9 744.446,3121.71 750.833,3121.71ZM750.833,3127.5C754.027,3127.5 756.62,3130.09 756.62,3133.29C756.62,3136.48 754.027,3139.07 750.833,3139.07C747.639,3139.07 745.046,3136.48 745.046,3133.29C745.046,3130.09 747.639,3127.5 750.833,3127.5Z"/>
            </clipPath>
            <g clip-path="url(#_clip1)">
                <g transform="matrix(0.327404,0,0,0.189233,504.126,2528.5)">
                    <rect x="751.556" y="3128.34" width="61.11" height="128.94" style="fill:rgb(89,86,97);"/>
                </g>
            </g>
        </g>
        <g transform="matrix(1.13631,0,0,1.1974,3448.01,-3510.86)">
            <circle cx="752.132" cy="3195.62" r="44.799" style="fill:rgb(137,154,155);"/>
            <clipPath id="_clip2">
                <circle cx="752.132" cy="3195.62" r="44.799"/>
            </clipPath>
            <g clip-path="url(#_clip2)">
                <g transform="matrix(0.820498,0,0,0.773819,135.488,725.363)">
                    <rect x="751.556" y="3128.34" width="61.11" height="128.94" style="fill:rgb(89,86,97);"/>
                </g>
            </g>
        </g>
        <g transform="matrix(0.957992,0,0,1.00949,3582.13,-2910.72)">
            <circle cx="752.132" cy="3195.62" r="44.799" style="fill:rgb(162,169,182);"/>
            <clipPath id="_clip3">
                <circle cx="752.132" cy="3195.62" r="44.799"/>
            </clipPath>
            <g clip-path="url(#_clip3)">
                <g transform="matrix(0.782132,0,0,0.750206,163.74,799.626)">
                    <rect x="751.556" y="3128.34" width="61.11" height="128.94" style="fill:rgb(121,141,146);"/>
                </g>
            </g>
        </g>
        <g transform="matrix(0.826519,0,0,0.87095,3681.02,-2468)">
            <circle cx="752.132" cy="3195.62" r="44.799" style="fill:rgb(213,210,199);"/>
            <clipPath id="_clip4">
                <circle cx="752.132" cy="3195.62" r="44.799"/>
            </clipPath>
            <g clip-path="url(#_clip4)">
                <g transform="matrix(0.930078,0,0,0.892113,53.1548,346.406)">
                    <rect x="751.556" y="3128.34" width="61.11" height="128.94" style="fill:rgb(172,171,167);"/>
                </g>
            </g>
        </g>
        <g transform="matrix(1.38122,0,0,1.45548,2429.95,-8421.07)">
            <circle cx="1340.81" cy="5989.09" r="3.094" style="fill:white;"/>
        </g>
        <g transform="matrix(0.763324,0,0,0.763324,1018.34,74.6064)">
            <g>
                <g transform="matrix(0.770027,0,0,-0.811422,3723.45,2814.51)">
                    <path d="M751.105,3133.06C751.322,3132.66 751.742,3132.41 752.198,3132.41C752.654,3132.41 753.074,3132.66 753.291,3133.06C755.362,3136.88 759.652,3153.44 759.652,3153.44L744.744,3153.44C744.744,3153.44 749.034,3136.88 751.105,3133.06Z" style="fill:rgb(137,154,155);"/>
                    <clipPath id="_clip5">
                        <path d="M751.105,3133.06C751.322,3132.66 751.742,3132.41 752.198,3132.41C752.654,3132.41 753.074,3132.66 753.291,3133.06C755.362,3136.88 759.652,3153.44 759.652,3153.44L744.744,3153.44C744.744,3153.44 749.034,3136.88 751.105,3133.06Z"/>
                    </clipPath>
                    <g clip-path="url(#_clip5)">
                        <g transform="matrix(0.383466,0,0,-0.230924,464.084,3881.68)">
                            <rect x="751.556" y="3128.34" width="61.11" height="128.94" style="fill:rgb(89,86,97);"/>
                        </g>
                    </g>
                </g>
                <g transform="matrix(1.07134,0.651792,-0.586987,1.07134,-120.63,-2828.82)">
                    <g transform="matrix(0.957992,0,0,1.00949,3584.76,-2908.06)">
                        <path d="M749.132,3162.47C749.138,3162.44 749.161,3162.43 749.187,3162.43C749.214,3162.43 749.236,3162.44 749.242,3162.47C749.894,3165.38 756.132,3193.21 756.482,3194.77C756.486,3194.79 756.482,3194.8 756.471,3194.82C756.461,3194.83 756.445,3194.84 756.427,3194.84C755.381,3194.84 742.993,3194.84 741.947,3194.84C741.93,3194.84 741.914,3194.83 741.903,3194.82C741.893,3194.8 741.889,3194.79 741.892,3194.77C742.243,3193.21 748.481,3165.38 749.132,3162.47Z" style="fill:rgb(190,70,102);"/>
                    </g>
                    <g transform="matrix(0.957992,0,0,-1.00949,3584.76,3542.26)">
                        <path d="M749.132,3162.47C749.138,3162.44 749.161,3162.43 749.187,3162.43C749.214,3162.43 749.236,3162.44 749.242,3162.47C749.894,3165.38 756.132,3193.21 756.482,3194.77C756.486,3194.79 756.482,3194.8 756.471,3194.82C756.461,3194.83 756.445,3194.84 756.427,3194.84C755.381,3194.84 742.993,3194.84 741.947,3194.84C741.93,3194.84 741.914,3194.83 741.903,3194.82C741.893,3194.8 741.889,3194.79 741.892,3194.77C742.243,3193.21 748.481,3165.38 749.132,3162.47Z" style="fill:rgb(57,120,159);"/>
                    </g>
                </g>
                <g transform="matrix(0.770027,0,0,0.811422,3723.45,-2184.05)">
                    <path d="M751.105,3133.06C751.322,3132.66 751.742,3132.41 752.198,3132.41C752.654,3132.41 753.074,3132.66 753.291,3133.06C755.362,3136.88 759.652,3153.42 759.652,3153.42L744.744,3153.42C744.744,3153.42 749.034,3136.88 751.105,3133.06Z" style="fill:rgb(137,154,155);"/>
                    <clipPath id="_clip6">
                        <path d="M751.105,3133.06C751.322,3132.66 751.742,3132.41 752.198,3132.41C752.654,3132.41 753.074,3132.66 753.291,3133.06C755.362,3136.88 759.652,3153.42 759.652,3153.42L744.744,3153.42C744.744,3153.42 749.034,3136.88 751.105,3133.06Z"/>
                    </clipPath>
                    <g clip-path="url(#_clip6)">
                        <g transform="matrix(0.383466,0,0,0.271621,464.005,2277.21)">
                            <rect x="751.556" y="3128.34" width="61.11" height="128.94" style="fill:rgb(89,86,97);"/>
                        </g>
                    </g>
                </g>
            </g>
            <g transform="matrix(4.92181e-17,0.847003,-0.762788,4.92181e-17,4543.12,-3329.14)">
                <g transform="matrix(0.957992,1.23627e-16,1.1732e-16,-1.00949,3582.07,3424.58)">
                    <path d="M751.105,3133.06C751.322,3132.66 751.742,3132.41 752.198,3132.41C752.654,3132.41 753.074,3132.66 753.291,3133.06C755.362,3136.88 759.652,3153.3 759.652,3153.3L744.744,3153.3C744.744,3153.3 749.034,3136.88 751.105,3133.06Z" style="fill:rgb(89,86,97);"/>
                </g>
                <g transform="matrix(0.957992,1.23627e-16,-1.1732e-16,1.00949,3582.07,-2794.13)">
                    <path d="M751.105,3133.06C751.322,3132.66 751.742,3132.41 752.198,3132.41C752.654,3132.41 753.074,3132.66 753.291,3133.06C755.362,3136.88 759.652,3153.61 759.652,3153.61L744.744,3153.61C744.744,3153.61 749.034,3136.88 751.105,3133.06Z" style="fill:rgb(137,154,155);"/>
                </g>
            </g>
        </g>
        <g transform="matrix(0.957992,0,0,1.00949,3581.58,-2910.31)">
            <circle cx="752.708" cy="3195.22" r="8.53" style="fill:rgb(44,69,98);"/>
        </g>
    </g>
</svg>
