<?xml version="1.0" encoding="UTF-8" standalone="no"?>
<!DOCTYPE svg PUBLIC "-//W3C//DTD SVG 1.1//EN" "http://www.w3.org/Graphics/SVG/1.1/DTD/svg11.dtd">
<svg width="100%" height="100%" viewBox="0 0 512 512" version="1.1" xmlns="http://www.w3.org/2000/svg" xmlns:xlink="http://www.w3.org/1999/xlink" xml:space="preserve" xmlns:serif="http://www.serif.com/" style="fill-rule:evenodd;clip-rule:evenodd;stroke-linejoin:round;stroke-miterlimit:2;">
    <g id="CupLightIcon" transform="matrix(2.88791,0,0,2.9427,-2948.13,-1330.56)">
        <g transform="matrix(0.933477,0,0,0.933477,71.3106,36.9186)">
            <rect x="1100.82" y="552.445" width="24.779" height="69.417" style="fill:rgb(255,239,133);"/>
            <clipPath id="_clip1">
                <rect x="1100.82" y="552.445" width="24.779" height="69.417"/>
            </clipPath>
            <g clip-path="url(#_clip1)">
                <g transform="matrix(1.71251,0,0,0.720386,-1297.92,-1882.85)">
                    <rect x="1407.92" y="3385.74" width="42.319" height="76.485" style="fill:rgb(255,219,99);"/>
                </g>
            </g>
        </g>
        <g transform="matrix(0.483565,0,0,-0.295979,572.885,795.252)">
            <path d="M1178.52,628.23C1178.52,610.565 1169.58,596.223 1158.56,596.223L1065.96,596.223C1054.95,596.223 1046,610.565 1046,628.23C1046,645.894 1054.95,660.236 1065.96,660.236L1158.56,660.236C1169.58,660.236 1178.52,645.894 1178.52,628.23Z" style="fill:rgb(255,239,133);"/>
            <clipPath id="_clip2">
                <path d="M1178.52,628.23C1178.52,610.565 1169.58,596.223 1158.56,596.223L1065.96,596.223C1054.95,596.223 1046,610.565 1046,628.23C1046,645.894 1054.95,660.236 1065.96,660.236L1158.56,660.236C1169.58,660.236 1178.52,645.894 1178.52,628.23Z"/>
            </clipPath>
            <g clip-path="url(#_clip2)">
                <g transform="matrix(3.30584,0,0,-1.51134,-3542.75,5804.27)">
                    <rect x="1407.92" y="3385.74" width="42.319" height="76.485" style="fill:rgb(255,219,99);"/>
                </g>
            </g>
        </g>
        <g transform="matrix(0.933477,0,0,0.933477,85.2806,34.3116)">
            <path d="M1087.68,472.613C1098.83,473.012 1108.51,482.155 1108.95,493.491C1109.26,517.079 1114.27,548.152 1087.68,549.103C1064.99,549.449 1041.15,551.485 1025.21,538.571C1011.88,527.771 1006.3,510.288 1008.21,491.856C1009.28,481.65 1018.64,472.997 1029.38,472.613C1048.81,472.317 1068.25,472.317 1087.68,472.613ZM1029.98,481.852C1023.47,481.951 1017.78,487.336 1017.53,493.726C1017.24,516.804 1031.02,539.472 1054.62,539.86C1074.5,540.024 1098.87,544.963 1099.53,527.988C1099.68,516.569 1099.68,505.147 1099.53,493.728C1099.29,487.47 1093.83,482.086 1087.43,481.857C1068.29,481.566 1049.13,481.852 1029.98,481.852Z" style="fill:rgb(255,239,133);"/>
        </g>
        <g transform="matrix(-0.933477,0,0,0.933477,2133.95,34.3116)">
            <path d="M1029.38,472.613C1018.19,473.013 1008.54,482.308 1008.11,493.492C1007.74,521.53 1025.94,548.636 1054.5,549.106C1071.67,549.247 1090.41,552.033 1100.19,544.847C1113.33,535.193 1110.92,511.814 1108.85,491.858C1107.79,481.65 1098.42,472.997 1087.68,472.613C1068.25,472.317 1048.81,472.317 1029.38,472.613ZM1087.08,481.852C1093.6,481.951 1099.28,487.332 1099.53,493.726C1099.67,505.147 1099.67,516.57 1099.53,527.99C1099.29,534.245 1093.8,539.631 1087.43,539.859C1066.94,540.171 1045.28,542.841 1031.21,531.44C1020.63,522.864 1017.32,509.397 1017.53,493.726C1017.77,487.468 1023.23,482.086 1029.63,481.857C1048.78,481.566 1067.93,481.852 1087.08,481.852Z" style="fill:rgb(255,219,99);"/>
        </g>
        <g transform="matrix(0.933477,0,0,0.933477,52.7754,22.1097)">
            <path d="M1187.24,472.943L1078.9,472.943L1078.9,525.707C1078.9,555.603 1103.17,579.874 1133.07,579.874C1162.96,579.874 1187.24,555.603 1187.24,525.707L1187.24,472.943Z" style="fill:rgb(255,239,133);"/>
            <clipPath id="_clip3">
                <path d="M1187.24,472.943L1078.9,472.943L1078.9,525.707C1078.9,555.603 1103.17,579.874 1133.07,579.874C1162.96,579.874 1187.24,555.603 1187.24,525.707L1187.24,472.943Z"/>
            </clipPath>
            <g clip-path="url(#_clip3)">
                <g transform="matrix(1.71251,0,0,1.55199,-1278.06,-4789.09)">
                    <rect x="1407.92" y="3385.74" width="42.319" height="76.485" style="fill:rgb(255,219,99);"/>
                </g>
            </g>
        </g>
        <g transform="matrix(0.4258,0,0,0.440168,807.358,360.393)">
            <path d="M835.302,234.269C835.302,229.265 831.023,225.203 825.752,225.203L593.971,225.203C588.7,225.203 584.421,229.265 584.421,234.269C584.421,239.273 588.7,243.335 593.971,243.335L825.752,243.335C831.023,243.335 835.302,239.273 835.302,234.269Z" style="fill:rgb(255,239,133);"/>
            <clipPath id="_clip4">
                <path d="M835.302,234.269C835.302,229.265 831.023,225.203 825.752,225.203L593.971,225.203C588.7,225.203 584.421,229.265 584.421,234.269C584.421,239.273 588.7,243.335 593.971,243.335L825.752,243.335C831.023,243.335 835.302,239.273 835.302,234.269Z"/>
            </clipPath>
            <g clip-path="url(#_clip4)">
                <g transform="matrix(3.75432,0,0,0.412979,-4574.03,-1179.5)">
                    <rect x="1407.92" y="3385.74" width="42.319" height="76.485" style="fill:rgb(255,219,99);"/>
                </g>
            </g>
        </g>
    </g>
</svg>
