<?xml version="1.0" encoding="UTF-8" standalone="no"?>
<!DOCTYPE svg PUBLIC "-//W3C//DTD SVG 1.1//EN" "http://www.w3.org/Graphics/SVG/1.1/DTD/svg11.dtd">
<svg width="100%" height="100%" viewBox="0 0 512 512" version="1.1" xmlns="http://www.w3.org/2000/svg" xmlns:xlink="http://www.w3.org/1999/xlink" xml:space="preserve" xmlns:serif="http://www.serif.com/" style="fill-rule:evenodd;clip-rule:evenodd;stroke-linejoin:round;stroke-miterlimit:2;">
    <g id="DiceIcon" transform="matrix(4.28592,0,0,4.28592,-2304.26,-802.535)">
        <g transform="matrix(0.732038,0,0,0.732038,107.345,7.61778)">
            <path d="M599.728,285.863C600.407,284.805 601.512,283.789 603.031,282.912L660.067,249.983C665.03,247.117 672.549,246.805 676.848,249.287L736.89,283.953C737.834,284.498 738.545,285.132 739.027,285.821C739.669,286.681 740.027,287.874 740.016,289.365L739.505,358.117C739.469,363.034 735.429,369.341 730.49,372.193L673.736,404.96C672.864,405.463 672.021,405.826 671.226,406.054C670.678,406.262 670.063,406.363 669.393,406.348C668.723,406.363 668.108,406.263 667.56,406.054C666.764,405.826 665.922,405.463 665.05,404.96L608.295,372.193C603.356,369.341 599.317,363.034 599.281,358.117L598.77,289.365C598.759,287.898 599.106,286.719 599.728,285.863Z" style="fill:rgb(224,225,233);"/>
            <clipPath id="_clip1">
                <path d="M599.728,285.863C600.407,284.805 601.512,283.789 603.031,282.912L660.067,249.983C665.03,247.117 672.549,246.805 676.848,249.287L736.89,283.953C737.834,284.498 738.545,285.132 739.027,285.821C739.669,286.681 740.027,287.874 740.016,289.365L739.505,358.117C739.469,363.034 735.429,369.341 730.49,372.193L673.736,404.96C672.864,405.463 672.021,405.826 671.226,406.054C670.678,406.262 670.063,406.363 669.393,406.348C668.723,406.363 668.108,406.263 667.56,406.054C666.764,405.826 665.922,405.463 665.05,404.96L608.295,372.193C603.356,369.341 599.317,363.034 599.281,358.117L598.77,289.365C598.759,287.898 599.106,286.719 599.728,285.863Z"/>
            </clipPath>
            <g clip-path="url(#_clip1)">
                <path d="M588.084,279.659L669.902,326.22L669.902,411.937C669.902,411.937 589.396,383.807 590.122,377.007C590.848,370.206 588.084,279.659 588.084,279.659Z" style="fill:rgb(216,216,230);"/>
                <g transform="matrix(-1,0,0,1,1339.41,0)">
                    <path d="M588.084,279.659L669.902,326.22L669.902,411.937C669.902,411.937 589.396,383.807 590.122,377.007C590.848,370.206 588.084,279.659 588.084,279.659Z" style="fill:rgb(156,160,183);"/>
                </g>
            </g>
        </g>
        <g transform="matrix(0.732038,0,0,0.732038,107.345,7.61778)">
            <path d="M602.011,287.623C602.011,287.623 645.02,310.522 662.421,319.164C666.875,321.375 672.172,321.287 676.617,319.059C693.944,310.378 737.582,287.5 737.582,287.5C737.582,287.5 696.291,310.68 680.157,321.955C668.197,330.314 669.6,344.536 669.6,344.536C669.6,344.536 670.16,329.641 660.483,322.875C650.524,315.912 602.011,287.623 602.011,287.623Z" style="fill:white;"/>
        </g>
        <g transform="matrix(0.732038,0,0,0.732038,108.225,10.0116)">
            <ellipse cx="668.191" cy="281.644" rx="12.142" ry="6.352" style="fill:rgb(46,51,60);"/>
        </g>
        <g transform="matrix(0.471179,0.274714,0.00424151,1.07333,242.864,-240.984)">
            <ellipse cx="668.191" cy="281.644" rx="12.142" ry="6.352" style="fill:rgb(46,51,60);"/>
        </g>
        <g transform="matrix(0.471179,0.274714,0.00424151,1.07333,263.622,-229.103)">
            <ellipse cx="668.191" cy="281.644" rx="12.142" ry="6.352" style="fill:rgb(46,51,60);"/>
        </g>
        <g transform="matrix(-0.471179,0.274714,-0.00424151,1.07333,928.973,-227.81)">
            <ellipse cx="668.191" cy="281.644" rx="12.142" ry="6.352" style="fill:rgb(46,51,60);"/>
        </g>
        <g transform="matrix(-0.471179,0.274714,-0.00424151,1.07333,950.364,-217.882)">
            <ellipse cx="668.191" cy="281.644" rx="12.142" ry="6.352" style="fill:rgb(46,51,60);"/>
        </g>
        <g transform="matrix(0.471179,0.274714,0.00424151,1.07333,263.622,-207.942)">
            <ellipse cx="668.191" cy="281.644" rx="12.142" ry="6.352" style="fill:rgb(46,51,60);"/>
        </g>
        <g transform="matrix(0.471179,0.274714,0.00424151,1.07333,242.864,-218.949)">
            <ellipse cx="668.191" cy="281.644" rx="12.142" ry="6.352" style="fill:rgb(46,51,60);"/>
        </g>
    </g>
</svg>
