<?xml version="1.0" encoding="UTF-8" standalone="no"?>
<!DOCTYPE svg PUBLIC "-//W3C//DTD SVG 1.1//EN" "http://www.w3.org/Graphics/SVG/1.1/DTD/svg11.dtd">
<svg width="100%" height="100%" viewBox="0 0 512 512" version="1.1" xmlns="http://www.w3.org/2000/svg" xmlns:xlink="http://www.w3.org/1999/xlink" xml:space="preserve" xmlns:serif="http://www.serif.com/" style="fill-rule:evenodd;clip-rule:evenodd;stroke-linejoin:round;stroke-miterlimit:2;">
    <g id="DoubleAxeIcon" transform="matrix(6.40702,7.13367e-16,-3.75858e-16,7.80217,-3804.98,-46762.7)">
        <g transform="matrix(1.40921,-1.69315e-16,6.51583e-16,5.79709,-2185.72,2494.13)">
            <path d="M2006.07,609.183C2006.07,608.603 2003.71,608.132 2000.81,608.132C1997.9,608.132 1995.54,608.603 1995.54,609.183L1995.54,613.49C1995.54,614.071 1997.9,614.542 2000.81,614.542C2003.71,614.542 2006.07,614.071 2006.07,613.49L2006.07,609.183Z" style="fill:rgb(171,111,112);"/>
            <clipPath id="_clip1">
                <path d="M2006.07,609.183C2006.07,608.603 2003.71,608.132 2000.81,608.132C1997.9,608.132 1995.54,608.603 1995.54,609.183L1995.54,613.49C1995.54,614.071 1997.9,614.542 2000.81,614.542C2003.71,614.542 2006.07,614.071 2006.07,613.49L2006.07,609.183Z"/>
            </clipPath>
            <g clip-path="url(#_clip1)">
                <g transform="matrix(0.849956,-2.59478e-16,1.37612e-15,-0.93159,763.119,1105.83)">
                    <rect x="1456.06" y="524.978" width="18.008" height="12.903" style="fill:rgb(132,82,82);"/>
                </g>
            </g>
        </g>
        <g transform="matrix(0.433768,5.34661e-33,8.7811e-33,0.356204,56.6807,3823.49)">
            <path d="M1310.51,6137.65C1310.51,6136.4 1310.26,6135.17 1309.77,6134.02C1309,6132.2 1307.76,6129.25 1306.63,6126.58C1305.11,6122.99 1305.99,6118.82 1308.84,6116.15C1313.11,6112.13 1319.44,6106.19 1324.16,6101.74C1327.75,6098.36 1333.36,6098.36 1336.95,6101.74C1341.67,6106.19 1348,6112.13 1352.27,6116.15C1355.12,6118.82 1356,6122.99 1354.48,6126.58C1353.35,6129.25 1352.11,6132.2 1351.34,6134.02C1350.85,6135.17 1350.61,6136.4 1350.61,6137.65C1350.61,6145.15 1350.61,6189.33 1350.61,6200.97C1350.61,6204.19 1348.95,6207.17 1346.23,6208.88C1343.08,6210.86 1338.83,6213.52 1335.56,6215.57C1332.53,6217.47 1328.69,6217.48 1325.66,6215.59C1322.36,6213.53 1318.07,6210.86 1314.9,6208.88C1312.17,6207.17 1310.51,6204.18 1310.51,6200.95C1310.51,6189.31 1310.51,6145.15 1310.51,6137.65Z" style="fill:rgb(176,184,199);"/>
            <clipPath id="_clip2">
                <path d="M1310.51,6137.65C1310.51,6136.4 1310.26,6135.17 1309.77,6134.02C1309,6132.2 1307.76,6129.25 1306.63,6126.58C1305.11,6122.99 1305.99,6118.82 1308.84,6116.15C1313.11,6112.13 1319.44,6106.19 1324.16,6101.74C1327.75,6098.36 1333.36,6098.36 1336.95,6101.74C1341.67,6106.19 1348,6112.13 1352.27,6116.15C1355.12,6118.82 1356,6122.99 1354.48,6126.58C1353.35,6129.25 1352.11,6132.2 1351.34,6134.02C1350.85,6135.17 1350.61,6136.4 1350.61,6137.65C1350.61,6145.15 1350.61,6189.33 1350.61,6200.97C1350.61,6204.19 1348.95,6207.17 1346.23,6208.88C1343.08,6210.86 1338.83,6213.52 1335.56,6215.57C1332.53,6217.47 1328.69,6217.48 1325.66,6215.59C1322.36,6213.53 1318.07,6210.86 1314.9,6208.88C1312.17,6207.17 1310.51,6204.18 1310.51,6200.95C1310.51,6189.31 1310.51,6145.15 1310.51,6137.65Z"/>
            </clipPath>
            <g clip-path="url(#_clip2)">
                <g transform="matrix(2.29994,1.59269e-17,2.61579e-17,2.58335,-2018.63,4735.39)">
                    <rect x="1456.06" y="524.978" width="18.008" height="12.903" style="fill:rgb(136,149,171);"/>
                </g>
                <g transform="matrix(-1.59997,-4.90216e-16,2.43468e-16,-1.21627,3660.31,6774.81)">
                    <rect x="1456.06" y="524.978" width="18.008" height="12.903" style="fill:rgb(154,165,182);"/>
                </g>
                <g transform="matrix(-1.35408,1.80181e-15,5.4773e-16,6.49235,3302.19,2727.77)">
                    <rect x="1456.06" y="524.978" width="18.008" height="12.903" style="fill:rgb(141,152,170);"/>
                </g>
                <g transform="matrix(2.31278,-4.77034e-17,1.14199e-17,-1.59485,-2037.33,6978.44)">
                    <rect x="1456.06" y="524.978" width="18.008" height="12.903" style="fill:rgb(120,132,155);"/>
                </g>
                <g transform="matrix(2.31278,1.81439e-15,-8.93715e-16,6.47635,-2037.33,2736.18)">
                    <rect x="1456.06" y="524.978" width="18.008" height="12.903" style="fill:rgb(84,95,114);"/>
                </g>
            </g>
        </g>
        <g transform="matrix(1.1395,-1.04187e-16,5.48938e-17,0.935742,-659.943,1335.3)">
            <path d="M1127.54,5016.57C1126.48,5016.57 1125.47,5016.99 1124.72,5017.74C1123.97,5018.49 1123.54,5019.51 1123.54,5020.57C1123.54,5022.3 1123.54,5023.93 1123.54,5023.93C1123.54,5024.81 1123.19,5025.65 1122.57,5026.28C1121.95,5026.9 1121.1,5027.25 1120.22,5027.25C1120.22,5027.25 1120.22,5027.25 1120.22,5027.25C1109.33,5027.25 1102.14,5018.4 1102.14,5007.51C1102.14,4996.61 1109.33,4987.77 1120.22,4987.77C1120.22,4987.77 1120.22,4987.77 1120.22,4987.77C1122.06,4987.77 1123.54,4989.26 1123.54,4991.09C1123.54,4991.09 1123.54,4992.72 1123.54,4994.45C1123.54,4995.51 1123.97,4996.53 1124.72,4997.28C1125.47,4998.03 1126.48,4998.45 1127.54,4998.45C1130.37,4998.45 1143.23,4998.45 1143.23,4998.45C1144.29,4998.45 1145.31,4998.03 1146.06,4997.28C1146.81,4996.53 1147.23,4995.51 1147.23,4994.45C1147.23,4992.72 1147.23,4991.09 1147.23,4991.09C1147.23,4989.26 1148.72,4987.77 1150.55,4987.77C1150.55,4987.77 1150.55,4987.77 1150.56,4987.77C1161.45,4987.77 1168.63,4996.61 1168.63,5007.51C1168.63,5018.4 1161.45,5027.25 1150.56,5027.25C1150.55,5027.25 1150.55,5027.25 1150.55,5027.25C1149.67,5027.25 1148.83,5026.9 1148.2,5026.28C1147.58,5025.65 1147.23,5024.81 1147.23,5023.93C1147.23,5023.93 1147.23,5022.3 1147.23,5020.57C1147.23,5019.51 1146.81,5018.49 1146.06,5017.74C1145.31,5016.99 1144.29,5016.57 1143.23,5016.57L1127.54,5016.57Z" style="fill:rgb(176,184,199);"/>
            <clipPath id="_clip3">
                <path d="M1127.54,5016.57C1126.48,5016.57 1125.47,5016.99 1124.72,5017.74C1123.97,5018.49 1123.54,5019.51 1123.54,5020.57C1123.54,5022.3 1123.54,5023.93 1123.54,5023.93C1123.54,5024.81 1123.19,5025.65 1122.57,5026.28C1121.95,5026.9 1121.1,5027.25 1120.22,5027.25C1120.22,5027.25 1120.22,5027.25 1120.22,5027.25C1109.33,5027.25 1102.14,5018.4 1102.14,5007.51C1102.14,4996.61 1109.33,4987.77 1120.22,4987.77C1120.22,4987.77 1120.22,4987.77 1120.22,4987.77C1122.06,4987.77 1123.54,4989.26 1123.54,4991.09C1123.54,4991.09 1123.54,4992.72 1123.54,4994.45C1123.54,4995.51 1123.97,4996.53 1124.72,4997.28C1125.47,4998.03 1126.48,4998.45 1127.54,4998.45C1130.37,4998.45 1143.23,4998.45 1143.23,4998.45C1144.29,4998.45 1145.31,4998.03 1146.06,4997.28C1146.81,4996.53 1147.23,4995.51 1147.23,4994.45C1147.23,4992.72 1147.23,4991.09 1147.23,4991.09C1147.23,4989.26 1148.72,4987.77 1150.55,4987.77C1150.55,4987.77 1150.55,4987.77 1150.56,4987.77C1161.45,4987.77 1168.63,4996.61 1168.63,5007.51C1168.63,5018.4 1161.45,5027.25 1150.56,5027.25C1150.55,5027.25 1150.55,5027.25 1150.55,5027.25C1149.67,5027.25 1148.83,5026.9 1148.2,5026.28C1147.58,5025.65 1147.23,5024.81 1147.23,5023.93C1147.23,5023.93 1147.23,5022.3 1147.23,5020.57C1147.23,5019.51 1146.81,5018.49 1146.06,5017.74C1145.31,5016.99 1144.29,5016.57 1143.23,5016.57L1127.54,5016.57Z"/>
            </clipPath>
            <g clip-path="url(#_clip3)">
                <g transform="matrix(1.96879,8.32163e-17,3.28833e-16,-3.42933,-1731.41,6830.91)">
                    <rect x="1456.06" y="524.978" width="18.008" height="12.903" style="fill:rgb(103,117,139);"/>
                </g>
            </g>
        </g>
    </g>
</svg>
