<?xml version="1.0" encoding="UTF-8" standalone="no"?>
<!DOCTYPE svg PUBLIC "-//W3C//DTD SVG 1.1//EN" "http://www.w3.org/Graphics/SVG/1.1/DTD/svg11.dtd">
<svg width="100%" height="100%" viewBox="0 0 512 512" version="1.1" xmlns="http://www.w3.org/2000/svg" xmlns:xlink="http://www.w3.org/1999/xlink" xml:space="preserve" xmlns:serif="http://www.serif.com/" style="fill-rule:evenodd;clip-rule:evenodd;stroke-linejoin:round;stroke-miterlimit:2;">
    <g id="Download" transform="matrix(20.8595,0,0,20.8595,-24274.7,-63532.3)">
        <path d="M1182.5,3067C1182.5,3067 1182.5,3067 1182.5,3067L1182.5,3067L1176.03,3067C1176.3,3067.01 1176.58,3066.92 1176.78,3066.71L1179.68,3063.8C1180.09,3063.39 1180.09,3062.73 1179.68,3062.32C1179.27,3061.91 1178.62,3061.91 1178.21,3062.32L1176.98,3063.56L1176.98,3058L1174.99,3058L1174.99,3063.56L1173.76,3062.32C1173.35,3061.91 1172.69,3061.91 1172.29,3062.32C1171.88,3062.73 1171.88,3063.39 1172.29,3063.8L1175.19,3066.71C1175.4,3066.92 1175.67,3067.01 1175.95,3067L1170.5,3067L1170.5,3067C1166.91,3067 1164,3064.09 1164,3060.5C1164,3057.24 1166.41,3054.56 1169.55,3054.1C1170.71,3051.12 1173.61,3049 1177,3049C1181.29,3049 1184.78,3052.38 1184.98,3056.62C1186.77,3057.53 1188,3059.36 1188,3061.5C1188,3064.54 1185.54,3067 1182.5,3067Z" style="fill:white;"/>
    </g>
</svg>
