<?xml version="1.0" encoding="UTF-8" standalone="no"?>
<!DOCTYPE svg PUBLIC "-//W3C//DTD SVG 1.1//EN" "http://www.w3.org/Graphics/SVG/1.1/DTD/svg11.dtd">
<svg width="100%" height="100%" viewBox="0 0 512 512" version="1.1" xmlns="http://www.w3.org/2000/svg" xmlns:xlink="http://www.w3.org/1999/xlink" xml:space="preserve" xmlns:serif="http://www.serif.com/" style="fill-rule:evenodd;clip-rule:evenodd;stroke-linejoin:round;stroke-miterlimit:2;">
    <g id="DungeonIcon" transform="matrix(4.57351,0,0,4.34019,-21702.6,-6129.28)">
        <g transform="matrix(0.607298,0,0,0.536266,-7261.98,-943.18)">
            <path d="M19910.8,4474.89C19910.8,4443.55 19889.5,4418.11 19863.2,4418.11C19836.9,4418.11 19815.6,4443.55 19815.6,4474.89L19815.6,4590.85L19910.8,4590.85L19910.8,4474.89Z" style="fill:rgb(171,111,112);"/>
            <clipPath id="_clip1">
                <path d="M19910.8,4474.89C19910.8,4443.55 19889.5,4418.11 19863.2,4418.11C19836.9,4418.11 19815.6,4443.55 19815.6,4474.89L19815.6,4590.85L19910.8,4590.85L19910.8,4474.89Z"/>
            </clipPath>
            <g clip-path="url(#_clip1)">
                <g transform="matrix(1.55216,0,0,1.65908,-10601.3,-3416.06)">
                    <rect x="19627.6" y="4722.88" width="29.69" height="103.441" style="fill:rgb(132,82,82);"/>
                </g>
            </g>
        </g>
        <g transform="matrix(0.345938,0,0,0.639944,-1995.69,-1393.01)">
            <rect x="19567.8" y="4495.12" width="91.076" height="16.45" style="fill:rgb(188,192,198);"/>
        </g>
        <g transform="matrix(0.297825,0,0,0.639944,-1026.53,-1393.01)">
            <rect x="19567.8" y="4495.12" width="91.076" height="16.45" style="fill:rgb(136,143,155);"/>
        </g>
        <g transform="matrix(0.957992,0,0,1.00949,-13997.3,-3349.27)">
            <path d="M19663,4823.93C19663,4827.44 19660.2,4830.3 19656.6,4830.3C19653.1,4830.3 19650.3,4827.44 19650.3,4823.93L19650.4,4760.06C19650.4,4744.92 19638.1,4732.64 19623,4732.64C19607.9,4732.64 19595.6,4744.92 19595.6,4760.06L19595.6,4823.93C19595.6,4827.44 19592.8,4830.3 19589.2,4830.3C19585.7,4830.3 19582.9,4827.44 19582.9,4823.93L19582.8,4760.08C19582.8,4737.96 19600.8,4720 19622.9,4720C19645,4720 19663,4737.96 19663,4760.08L19663,4823.93Z" style="fill:rgb(188,192,198);"/>
            <clipPath id="_clip2">
                <path d="M19663,4823.93C19663,4827.44 19660.2,4830.3 19656.6,4830.3C19653.1,4830.3 19650.3,4827.44 19650.3,4823.93L19650.4,4760.06C19650.4,4744.92 19638.1,4732.64 19623,4732.64C19607.9,4732.64 19595.6,4744.92 19595.6,4760.06L19595.6,4823.93C19595.6,4827.44 19592.8,4830.3 19589.2,4830.3C19585.7,4830.3 19582.9,4827.44 19582.9,4823.93L19582.8,4760.08C19582.8,4737.96 19600.8,4720 19622.9,4720C19645,4720 19663,4737.96 19663,4760.08L19663,4823.93Z"/>
            </clipPath>
            <g clip-path="url(#_clip2)">
                <g transform="matrix(1,0,0,1,-0.026572,9.09495e-13)">
                    <rect x="19622.9" y="4705.03" width="55.839" height="127.023" style="fill:rgb(136,143,155);"/>
                </g>
            </g>
        </g>
        <g transform="matrix(0.668697,0,0,1.3076,-8314.14,-4387.2)">
            <path d="M19640.7,4470.93C19640.7,4464.69 19631.3,4459.62 19619.7,4459.62L19606.7,4459.62C19595.1,4459.62 19585.7,4464.69 19585.7,4470.93C19585.7,4477.17 19595.1,4482.23 19606.7,4482.23L19619.7,4482.23C19631.3,4482.23 19640.7,4477.17 19640.7,4470.93Z" style="fill:rgb(59,61,73);"/>
            <clipPath id="_clip3">
                <path d="M19640.7,4470.93C19640.7,4464.69 19631.3,4459.62 19619.7,4459.62L19606.7,4459.62C19595.1,4459.62 19585.7,4464.69 19585.7,4470.93C19585.7,4477.17 19595.1,4482.23 19606.7,4482.23L19619.7,4482.23C19631.3,4482.23 19640.7,4477.17 19640.7,4470.93Z"/>
            </clipPath>
            <g clip-path="url(#_clip3)">
                <g transform="matrix(1.40964,0,0,0.235159,-8054.49,3348.4)">
                    <rect x="19627.6" y="4722.88" width="29.69" height="103.441" style="fill:rgb(40,42,50);"/>
                </g>
            </g>
        </g>
        <g transform="matrix(0.607298,0,0,0.908584,-7261.98,-2592.29)">
            <rect x="19849.5" y="4441.33" width="6.677" height="38.009" style="fill:rgb(171,111,112);"/>
        </g>
        <g transform="matrix(0.607298,0,0,0.908584,-7248.22,-2592.29)">
            <rect x="19849.5" y="4441.33" width="6.677" height="38.009" style="fill:rgb(132,82,82);"/>
        </g>
    </g>
</svg>
