<?xml version="1.0" encoding="UTF-8" standalone="no"?>
<!DOCTYPE svg PUBLIC "-//W3C//DTD SVG 1.1//EN" "http://www.w3.org/Graphics/SVG/1.1/DTD/svg11.dtd">
<svg width="100%" height="100%" viewBox="0 0 512 512" version="1.1" xmlns="http://www.w3.org/2000/svg" xmlns:xlink="http://www.w3.org/1999/xlink" xml:space="preserve" xmlns:serif="http://www.serif.com/" style="fill-rule:evenodd;clip-rule:evenodd;stroke-linejoin:round;stroke-miterlimit:2;">
    <g id="EyePerceptionIcon" transform="matrix(9.09637,0,0,8.63232,-38529,-13175.7)">
        <g transform="matrix(0.957992,0,0,1.23426,3582.13,-3904.19)">
            <path d="M711.548,4405.15C726.861,4405.15 739.04,4415.79 739.293,4423.82C739.537,4431.56 726.861,4442.49 711.548,4442.49C696.234,4442.49 683.558,4432.14 683.802,4423.82C684.076,4414.46 696.234,4405.15 711.548,4405.15Z" style="fill:white;"/>
            <clipPath id="_clip1">
                <path d="M711.548,4405.15C726.861,4405.15 739.04,4415.79 739.293,4423.82C739.537,4431.56 726.861,4442.49 711.548,4442.49C696.234,4442.49 683.558,4432.14 683.802,4423.82C684.076,4414.46 696.234,4405.15 711.548,4405.15Z"/>
            </clipPath>
            <g clip-path="url(#_clip1)">
                <g transform="matrix(1,0,0,0.817888,-2749.43,3223.63)">
                    <path d="M3499.77,1494.61L3461.1,1494.61L3461.1,1438.55L3499.77,1438.55L3499.77,1494.61ZM3464.26,1474.97L3464.18,1491.53L3465.95,1491.53L3482.26,1491.65L3496.88,1491.8L3496.97,1491.8L3497.15,1478.92L3497.37,1471.53L3497.72,1464.37L3498.6,1451.51L3499.41,1442.17L3499.44,1441.88L3498.91,1441.88L3467.93,1441.83L3464.36,1441.82L3464.26,1474.97Z" style="fill:rgb(201,211,223);"/>
                    <rect x="3461.1" y="1438.55" width="38.673" height="56.055" style="fill:rgb(200,202,214);"/>
                </g>
            </g>
        </g>
        <g transform="matrix(0.957992,0,0,1.00949,3505.94,-55.1583)">
            <path d="M791.129,1582.32L791.174,1582.32L791.218,1582.32L791.263,1582.32L791.308,1582.32L791.352,1582.33L791.397,1582.33L791.441,1582.33L791.486,1582.33L791.53,1582.33L791.575,1582.33L791.619,1582.33L791.664,1582.33L791.708,1582.34L791.752,1582.34L791.797,1582.34L791.841,1582.34L791.885,1582.35L791.929,1582.35L791.973,1582.35L792.017,1582.35L792.061,1582.36L792.105,1582.36L792.149,1582.36L792.193,1582.37L792.237,1582.37L792.281,1582.37L792.325,1582.38L792.369,1582.38L792.412,1582.38L792.456,1582.39L792.5,1582.39L792.543,1582.4L792.587,1582.4L792.631,1582.41L792.674,1582.41L792.718,1582.42L792.761,1582.42L792.804,1582.43L792.848,1582.43L792.891,1582.44L792.934,1582.44L792.977,1582.45L793.021,1582.45L793.064,1582.46L793.107,1582.47L793.15,1582.47L793.193,1582.48L793.236,1582.49L793.279,1582.49L793.322,1582.5L793.364,1582.51L793.407,1582.51L793.45,1582.52L793.493,1582.53L793.535,1582.54L793.578,1582.54L793.62,1582.55L793.663,1582.56L793.705,1582.57L793.748,1582.58L793.79,1582.58L793.833,1582.59L793.875,1582.6L793.917,1582.61L793.959,1582.62L794.001,1582.63L794.044,1582.63L794.086,1582.64L794.128,1582.65L794.17,1582.66L794.211,1582.67L794.253,1582.68L794.295,1582.69L794.337,1582.7L794.379,1582.71L794.42,1582.72L794.462,1582.73L794.503,1582.74L794.545,1582.75L794.586,1582.76L794.628,1582.77L794.669,1582.79L794.711,1582.8L794.752,1582.81L794.793,1582.82L794.834,1582.83L794.875,1582.84L794.916,1582.85L794.957,1582.87L794.998,1582.88L795.039,1582.89L795.08,1582.9L795.121,1582.91L795.162,1582.92L795.202,1582.94L795.243,1582.95L795.284,1582.96L795.324,1582.98L795.365,1582.99L795.405,1583L795.445,1583.01L795.486,1583.03L795.526,1583.04L795.566,1583.06L795.606,1583.07L795.646,1583.08L795.686,1583.1L795.726,1583.11L795.766,1583.12L795.806,1583.14L795.846,1583.15L795.886,1583.17L795.925,1583.18L795.965,1583.2L796.005,1583.21L796.044,1583.23L796.084,1583.24L796.123,1583.26L796.162,1583.27L796.202,1583.29L796.241,1583.3L796.28,1583.32L796.319,1583.33L796.358,1583.35L796.397,1583.37L796.436,1583.38L796.475,1583.4L796.514,1583.41L796.553,1583.43L796.591,1583.45L796.63,1583.46L796.668,1583.48L796.707,1583.5L796.745,1583.51L796.784,1583.53L796.822,1583.55L796.86,1583.57L796.899,1583.58L796.937,1583.6L796.975,1583.62L797.013,1583.64L797.051,1583.65L797.089,1583.67L797.126,1583.69L797.164,1583.71L797.202,1583.73L797.24,1583.74L797.277,1583.76L797.315,1583.78L797.352,1583.8L797.389,1583.82L797.427,1583.84L797.464,1583.86L797.501,1583.88L797.538,1583.89L797.575,1583.91L797.612,1583.93L797.649,1583.95L797.686,1583.97L797.723,1583.99L797.76,1584.01L797.796,1584.03L797.833,1584.05L797.869,1584.07L797.906,1584.09L797.942,1584.11L797.978,1584.13L798.015,1584.15L798.051,1584.18L798.087,1584.2L798.123,1584.22L798.159,1584.24L798.195,1584.26L798.231,1584.28L798.266,1584.3L798.302,1584.32L798.338,1584.35L798.373,1584.37L798.409,1584.39L798.444,1584.41L798.479,1584.43L798.514,1584.45L798.55,1584.48L798.585,1584.5L798.62,1584.52L798.655,1584.54L798.69,1584.57L798.724,1584.59L798.759,1584.61L798.794,1584.63L798.828,1584.66L798.863,1584.68L798.897,1584.7L798.932,1584.73L798.966,1584.75L799,1584.78L799.034,1584.8L799.069,1584.82L799.102,1584.85L799.136,1584.87L799.17,1584.89L799.204,1584.92L799.238,1584.94L799.271,1584.97L799.305,1584.99L799.338,1585.02L799.372,1585.04L799.405,1585.06L799.438,1585.09L799.471,1585.11L799.504,1585.14L799.537,1585.16L799.57,1585.19L799.603,1585.21L799.636,1585.24L799.669,1585.27L799.701,1585.29L799.734,1585.32L799.766,1585.34L799.799,1585.37L799.831,1585.39L799.863,1585.42L799.895,1585.45L799.927,1585.47L799.959,1585.5L799.991,1585.53L800.023,1585.55L800.055,1585.58L800.086,1585.6L800.118,1585.63L800.149,1585.66L800.181,1585.68L800.212,1585.71L800.243,1585.74L800.274,1585.77L800.305,1585.79L800.336,1585.82L800.367,1585.85L800.398,1585.88L800.429,1585.9L800.459,1585.93L800.49,1585.96L800.52,1585.99L800.551,1586.02L800.581,1586.04L800.611,1586.07L800.641,1586.1L800.671,1586.13L800.701,1586.16L800.731,1586.18L800.761,1586.21L800.791,1586.24L800.82,1586.27L800.85,1586.3L800.879,1586.33L800.909,1586.36L800.938,1586.39L800.967,1586.42L800.996,1586.44L801.025,1586.47L801.054,1586.5L801.083,1586.53L801.112,1586.56L801.14,1586.59L801.169,1586.62L801.197,1586.65L801.226,1586.68L801.254,1586.71L801.282,1586.74L801.31,1586.77L801.338,1586.8L801.366,1586.83L801.394,1586.86L801.422,1586.89L801.449,1586.92L801.477,1586.96L801.504,1586.99L801.532,1587.02L801.559,1587.05L801.586,1587.08L801.613,1587.11L801.64,1587.14L801.667,1587.17L801.694,1587.2L801.721,1587.24L801.747,1587.27L801.774,1587.3L801.8,1587.33L801.827,1587.36L801.853,1587.39L801.879,1587.43L801.905,1587.46L801.931,1587.49L801.957,1587.52L801.983,1587.56L802.008,1587.59L802.034,1587.62L802.059,1587.65L802.085,1587.68L802.11,1587.72L802.135,1587.75L802.16,1587.78L802.185,1587.82L802.21,1587.85L802.235,1587.88L802.26,1587.91L802.284,1587.95L802.309,1587.98L802.333,1588.02L802.358,1588.05L802.382,1588.08L802.406,1588.12L802.43,1588.15L802.454,1588.18L802.478,1588.22L802.501,1588.25L802.525,1588.28L802.548,1588.32L802.572,1588.35L802.595,1588.39L802.618,1588.42L802.641,1588.45L802.664,1588.49L802.687,1588.52L802.71,1588.56L802.733,1588.59L802.755,1588.63L802.778,1588.66L802.8,1588.7L802.822,1588.73L802.845,1588.77L802.867,1588.8L802.889,1588.84L802.911,1588.87L802.932,1588.91L802.954,1588.94L802.976,1588.98L802.997,1589.01L803.018,1589.05L803.04,1589.08L803.061,1589.12L803.082,1589.15L803.103,1589.19L803.123,1589.23L803.144,1589.26L803.165,1589.3L803.185,1589.33L803.206,1589.37L803.226,1589.41L803.246,1589.44L803.266,1589.48L803.286,1589.52L803.306,1589.55L803.326,1589.59L803.345,1589.62L803.365,1589.66L803.384,1589.7L803.403,1589.74L803.423,1589.77L803.442,1589.81L803.461,1589.85L803.48,1589.88L803.498,1589.92L803.517,1589.96L803.536,1589.99L803.554,1590.03L803.572,1590.07L803.59,1590.11L803.609,1590.14L803.626,1590.18L803.644,1590.22L803.662,1590.26L803.68,1590.29L803.697,1590.33L803.715,1590.37L803.732,1590.41L803.749,1590.44L803.766,1590.48L803.783,1590.52L803.8,1590.56L803.817,1590.6L803.833,1590.64L803.85,1590.67L803.866,1590.71L803.883,1590.75L803.899,1590.79L803.915,1590.83L803.931,1590.87L803.946,1590.9L803.962,1590.94L803.978,1590.98L803.993,1591.02L804.008,1591.06L804.024,1591.1L804.039,1591.14L804.054,1591.18L804.069,1591.22L804.083,1591.26L804.098,1591.3L804.113,1591.33L804.127,1591.37L804.141,1591.41L804.155,1591.45L804.169,1591.49L804.183,1591.53L804.197,1591.57L804.211,1591.61L804.224,1591.65L804.238,1591.69L804.251,1591.73L804.264,1591.77L804.278,1591.81L804.29,1591.85L804.303,1591.89L804.316,1591.93L804.329,1591.97L804.341,1592.01L804.353,1592.05L804.366,1592.09L804.378,1592.13L804.39,1592.17L804.402,1592.21L804.413,1592.25L804.425,1592.29L804.437,1592.33L804.448,1592.37L804.459,1592.41L804.47,1592.46L804.481,1592.5L804.492,1592.54L804.503,1592.58L804.514,1592.62L804.524,1592.66L804.534,1592.7L804.545,1592.74L804.555,1592.78L804.565,1592.83L804.575,1592.87L804.584,1592.91L804.594,1592.95L804.603,1592.99L804.613,1593.03L804.622,1593.07L804.631,1593.12L804.64,1593.16L804.649,1593.2L804.658,1593.24L804.666,1593.28L804.675,1593.32L804.683,1593.37L804.691,1593.41L804.699,1593.45L804.707,1593.49L804.715,1593.53L804.723,1593.58L804.73,1593.62L804.738,1593.66L804.745,1593.7L804.752,1593.74L804.759,1593.79L804.766,1593.83L804.773,1593.87L804.78,1593.91L804.786,1593.95L804.793,1594L804.799,1594.04L804.805,1594.08L804.811,1594.12L804.817,1594.17L804.822,1594.21L804.828,1594.25L804.833,1594.3L804.839,1594.34L804.844,1594.38L804.849,1594.42L804.854,1594.47L804.859,1594.51L804.863,1594.55L804.868,1594.6L804.872,1594.64L804.876,1594.68L804.881,1594.73L804.884,1594.77L804.888,1594.81L804.892,1594.86L804.896,1594.9L804.899,1594.94L804.902,1594.99L804.905,1595.03L804.908,1595.07L804.911,1595.12L804.914,1595.16L804.917,1595.2L804.919,1595.25L804.921,1595.29L804.924,1595.33L804.926,1595.38L804.927,1595.42L804.929,1595.47L804.931,1595.51L804.932,1595.55L804.934,1595.6L804.935,1595.64L804.936,1595.68L804.937,1595.73L804.938,1595.77L804.938,1595.82L804.939,1595.86L804.939,1595.9L804.939,1595.95L804.939,1595.99L804.939,1596.04L804.939,1596.08L804.939,1596.13L804.938,1596.17L804.938,1596.21L804.937,1596.26L804.936,1596.3L804.935,1596.35L804.934,1596.39L804.932,1596.43L804.931,1596.48L804.929,1596.52L804.927,1596.57L804.926,1596.61L804.924,1596.65L804.921,1596.7L804.919,1596.74L804.917,1596.78L804.914,1596.83L804.911,1596.87L804.908,1596.91L804.905,1596.96L804.902,1597L804.899,1597.04L804.896,1597.09L804.892,1597.13L804.888,1597.17L804.884,1597.22L804.881,1597.26L804.876,1597.3L804.872,1597.35L804.868,1597.39L804.863,1597.43L804.859,1597.48L804.854,1597.52L804.849,1597.56L804.844,1597.61L804.839,1597.65L804.833,1597.69L804.828,1597.73L804.822,1597.78L804.817,1597.82L804.811,1597.86L804.805,1597.9L804.799,1597.95L804.793,1597.99L804.786,1598.03L804.78,1598.07L804.773,1598.12L804.766,1598.16L804.759,1598.2L804.752,1598.24L804.745,1598.29L804.738,1598.33L804.73,1598.37L804.723,1598.41L804.715,1598.45L804.707,1598.5L804.699,1598.54L804.691,1598.58L804.683,1598.62L804.675,1598.66L804.666,1598.7L804.658,1598.75L804.649,1598.79L804.64,1598.83L804.631,1598.87L804.622,1598.91L804.613,1598.95L804.603,1599L804.594,1599.04L804.584,1599.08L804.575,1599.12L804.565,1599.16L804.555,1599.2L804.545,1599.24L804.534,1599.29L804.524,1599.33L804.514,1599.37L804.503,1599.41L804.492,1599.45L804.481,1599.49L804.47,1599.53L804.459,1599.57L804.448,1599.61L804.437,1599.65L804.425,1599.69L804.413,1599.73L804.402,1599.78L804.39,1599.82L804.378,1599.86L804.366,1599.9L804.353,1599.94L804.341,1599.98L804.329,1600.02L804.316,1600.06L804.303,1600.1L804.29,1600.14L804.278,1600.18L804.264,1600.22L804.251,1600.26L804.238,1600.3L804.224,1600.34L804.211,1600.38L804.197,1600.42L804.183,1600.45L804.169,1600.5L804.155,1600.53L804.141,1600.57L804.127,1600.61L804.113,1600.65L804.098,1600.69L804.083,1600.73L804.069,1600.77L804.054,1600.81L804.039,1600.85L804.024,1600.89L804.008,1600.93L803.993,1600.97L803.978,1601L803.962,1601.04L803.946,1601.08L803.931,1601.12L803.915,1601.16L803.899,1601.2L803.883,1601.24L803.866,1601.27L803.85,1601.31L803.833,1601.35L803.817,1601.39L803.8,1601.43L803.783,1601.47L803.766,1601.5L803.749,1601.54L803.732,1601.58L803.715,1601.62L803.697,1601.65L803.68,1601.69L803.662,1601.73L803.644,1601.77L803.626,1601.81L803.609,1601.84L803.59,1601.88L803.572,1601.92L803.554,1601.95L803.536,1601.99L803.517,1602.03L803.498,1602.07L803.48,1602.1L803.461,1602.14L803.442,1602.18L803.423,1602.22L803.403,1602.25L803.384,1602.29L803.365,1602.33L803.345,1602.36L803.326,1602.4L803.306,1602.43L803.286,1602.47L803.266,1602.51L803.246,1602.54L803.226,1602.58L803.206,1602.62L803.185,1602.65L803.165,1602.69L803.144,1602.72L803.123,1602.76L803.103,1602.8L803.082,1602.83L803.061,1602.87L803.04,1602.9L803.018,1602.94L802.997,1602.97L802.976,1603.01L802.954,1603.05L802.932,1603.08L802.911,1603.12L802.889,1603.15L802.867,1603.18L802.845,1603.22L802.822,1603.26L802.8,1603.29L802.778,1603.33L802.755,1603.36L802.733,1603.39L802.71,1603.43L802.687,1603.46L802.664,1603.5L802.641,1603.53L802.618,1603.57L802.595,1603.6L802.572,1603.63L802.548,1603.67L802.525,1603.7L802.501,1603.74L802.478,1603.77L802.454,1603.8L802.43,1603.84L802.406,1603.87L802.382,1603.9L802.358,1603.94L802.333,1603.97L802.309,1604.01L802.284,1604.04L802.26,1604.07L802.235,1604.11L802.21,1604.14L802.185,1604.17L802.16,1604.2L802.135,1604.24L802.11,1604.27L802.085,1604.3L802.059,1604.33L802.034,1604.37L802.008,1604.4L801.983,1604.43L801.957,1604.46L801.931,1604.5L801.905,1604.53L801.879,1604.56L801.853,1604.59L801.827,1604.62L801.8,1604.65L801.774,1604.69L801.747,1604.72L801.721,1604.75L801.694,1604.78L801.667,1604.81L801.64,1604.84L801.613,1604.88L801.586,1604.91L801.559,1604.94L801.532,1604.97L801.504,1605L801.477,1605.03L801.449,1605.06L801.422,1605.09L801.394,1605.12L801.366,1605.15L801.338,1605.18L801.31,1605.21L801.282,1605.24L801.254,1605.27L801.226,1605.3L801.197,1605.33L801.169,1605.36L801.14,1605.39L801.112,1605.42L801.083,1605.45L801.054,1605.48L801.025,1605.51L800.996,1605.54L800.967,1605.57L800.938,1605.6L800.909,1605.63L800.879,1605.66L800.85,1605.69L800.82,1605.72L800.791,1605.75L800.761,1605.77L800.731,1605.8L800.701,1605.83L800.671,1605.86L800.641,1605.89L800.611,1605.92L800.581,1605.94L800.551,1605.97L800.52,1606L800.49,1606.03L800.459,1606.06L800.429,1606.08L800.398,1606.11L800.367,1606.14L800.336,1606.17L800.305,1606.19L800.274,1606.22L800.243,1606.25L800.212,1606.28L800.181,1606.3L800.149,1606.33L800.118,1606.36L800.086,1606.38L800.055,1606.41L800.023,1606.44L799.991,1606.46L799.959,1606.49L799.927,1606.52L799.895,1606.54L799.863,1606.57L799.831,1606.59L799.799,1606.62L799.766,1606.64L799.734,1606.67L799.701,1606.7L799.669,1606.72L799.636,1606.75L799.603,1606.77L799.57,1606.8L799.537,1606.82L799.504,1606.85L799.471,1606.87L799.438,1606.9L799.405,1606.92L799.372,1606.95L799.338,1606.97L799.305,1607L799.271,1607.02L799.238,1607.04L799.204,1607.07L799.17,1607.09L799.136,1607.12L799.102,1607.14L799.069,1607.16L799.034,1607.19L799,1607.21L798.966,1607.24L798.932,1607.26L798.897,1607.28L798.863,1607.31L798.828,1607.33L798.794,1607.35L798.759,1607.37L798.724,1607.4L798.69,1607.42L798.655,1607.44L798.62,1607.46L798.585,1607.49L798.55,1607.51L798.514,1607.53L798.479,1607.55L798.444,1607.58L798.409,1607.6L798.373,1607.62L798.338,1607.64L798.302,1607.66L798.266,1607.68L798.231,1607.7L798.195,1607.73L798.159,1607.75L798.123,1607.77L798.087,1607.79L798.051,1607.81L798.015,1607.83L797.978,1607.85L797.942,1607.87L797.906,1607.89L797.869,1607.91L797.833,1607.93L797.796,1607.95L797.76,1607.97L797.723,1607.99L797.686,1608.01L797.649,1608.03L797.612,1608.05L797.575,1608.07L797.538,1608.09L797.501,1608.11L797.464,1608.13L797.427,1608.15L797.389,1608.17L797.352,1608.19L797.315,1608.2L797.277,1608.22L797.24,1608.24L797.202,1608.26L797.164,1608.28L797.126,1608.3L797.089,1608.32L797.051,1608.33L797.013,1608.35L796.975,1608.37L796.937,1608.39L796.899,1608.4L796.86,1608.42L796.822,1608.44L796.784,1608.46L796.745,1608.47L796.707,1608.49L796.668,1608.51L796.63,1608.52L796.591,1608.54L796.553,1608.56L796.514,1608.57L796.475,1608.59L796.436,1608.61L796.397,1608.62L796.358,1608.64L796.319,1608.65L796.28,1608.67L796.241,1608.68L796.202,1608.7L796.162,1608.72L796.123,1608.73L796.084,1608.75L796.044,1608.76L796.005,1608.78L795.965,1608.79L795.925,1608.81L795.886,1608.82L795.846,1608.83L795.806,1608.85L795.766,1608.86L795.726,1608.88L795.686,1608.89L795.646,1608.9L795.606,1608.92L795.566,1608.93L795.526,1608.94L795.486,1608.96L795.445,1608.97L795.405,1608.99L795.365,1609L795.324,1609.01L795.284,1609.02L795.243,1609.04L795.202,1609.05L795.162,1609.06L795.121,1609.07L795.08,1609.09L795.039,1609.1L794.998,1609.11L794.957,1609.12L794.916,1609.13L794.875,1609.14L794.834,1609.16L794.793,1609.17L794.752,1609.18L794.711,1609.19L794.669,1609.2L794.628,1609.21L794.586,1609.22L794.545,1609.23L794.503,1609.24L794.462,1609.25L794.42,1609.27L794.379,1609.28L794.337,1609.29L794.295,1609.29L794.253,1609.3L794.211,1609.31L794.17,1609.32L794.128,1609.33L794.086,1609.34L794.044,1609.35L794.001,1609.36L793.959,1609.37L793.917,1609.38L793.875,1609.39L793.833,1609.39L793.79,1609.4L793.748,1609.41L793.705,1609.42L793.663,1609.43L793.62,1609.43L793.578,1609.44L793.535,1609.45L793.493,1609.46L793.45,1609.47L793.407,1609.47L793.364,1609.48L793.322,1609.49L793.279,1609.49L793.236,1609.5L793.193,1609.51L793.15,1609.51L793.107,1609.52L793.064,1609.53L793.021,1609.53L792.977,1609.54L792.934,1609.54L792.891,1609.55L792.848,1609.55L792.804,1609.56L792.761,1609.57L792.718,1609.57L792.674,1609.58L792.631,1609.58L792.587,1609.59L792.543,1609.59L792.5,1609.59L792.456,1609.6L792.412,1609.6L792.369,1609.61L792.325,1609.61L792.281,1609.61L792.237,1609.62L792.193,1609.62L792.149,1609.62L792.105,1609.63L792.061,1609.63L792.017,1609.63L791.973,1609.64L791.929,1609.64L791.885,1609.64L791.841,1609.64L791.797,1609.65L791.752,1609.65L791.708,1609.65L791.664,1609.65L791.619,1609.65L791.575,1609.66L791.53,1609.66L791.486,1609.66L791.441,1609.66L791.397,1609.66L791.352,1609.66L791.308,1609.66L791.263,1609.66L791.218,1609.66L791.174,1609.66L791.129,1609.66L791.084,1609.66L791.039,1609.66L790.994,1609.66L790.95,1609.66L790.905,1609.66L790.86,1609.66L790.816,1609.66L790.771,1609.66L790.727,1609.66L790.682,1609.66L790.638,1609.66L790.593,1609.66L790.549,1609.65L790.504,1609.65L790.46,1609.65L790.416,1609.65L790.371,1609.65L790.327,1609.64L790.283,1609.64L790.239,1609.64L790.195,1609.64L790.151,1609.63L790.107,1609.63L790.063,1609.63L790.019,1609.62L789.975,1609.62L789.931,1609.62L789.887,1609.61L789.843,1609.61L789.799,1609.61L789.756,1609.6L789.712,1609.6L789.668,1609.59L789.625,1609.59L789.581,1609.59L789.537,1609.58L789.494,1609.58L789.451,1609.57L789.407,1609.57L789.364,1609.56L789.32,1609.55L789.277,1609.55L789.234,1609.54L789.191,1609.54L789.147,1609.53L789.104,1609.53L789.061,1609.52L789.018,1609.51L788.975,1609.51L788.932,1609.5L788.889,1609.49L788.846,1609.49L788.804,1609.48L788.761,1609.47L788.718,1609.47L788.675,1609.46L788.633,1609.45L788.59,1609.44L788.548,1609.43L788.505,1609.43L788.463,1609.42L788.42,1609.41L788.378,1609.4L788.335,1609.39L788.293,1609.39L788.251,1609.38L788.209,1609.37L788.167,1609.36L788.124,1609.35L788.082,1609.34L788.04,1609.33L787.998,1609.32L787.957,1609.31L787.915,1609.3L787.873,1609.29L787.831,1609.29L787.789,1609.28L787.748,1609.27L787.706,1609.25L787.665,1609.24L787.623,1609.23L787.582,1609.22L787.54,1609.21L787.499,1609.2L787.457,1609.19L787.416,1609.18L787.375,1609.17L787.334,1609.16L787.293,1609.14L787.252,1609.13L787.211,1609.12L787.17,1609.11L787.129,1609.1L787.088,1609.09L787.047,1609.07L787.006,1609.06L786.966,1609.05L786.925,1609.04L786.885,1609.02L786.844,1609.01L786.804,1609L786.763,1608.99L786.723,1608.97L786.682,1608.96L786.642,1608.94L786.602,1608.93L786.562,1608.92L786.522,1608.9L786.482,1608.89L786.442,1608.88L786.402,1608.86L786.362,1608.85L786.322,1608.83L786.282,1608.82L786.243,1608.81L786.203,1608.79L786.163,1608.78L786.124,1608.76L786.084,1608.75L786.045,1608.73L786.006,1608.72L785.966,1608.7L785.927,1608.68L785.888,1608.67L785.849,1608.65L785.81,1608.64L785.771,1608.62L785.732,1608.61L785.693,1608.59L785.654,1608.57L785.615,1608.56L785.577,1608.54L785.538,1608.52L785.5,1608.51L785.461,1608.49L785.423,1608.47L785.384,1608.46L785.346,1608.44L785.308,1608.42L785.269,1608.4L785.231,1608.39L785.193,1608.37L785.155,1608.35L785.117,1608.33L785.079,1608.32L785.042,1608.3L785.004,1608.28L784.966,1608.26L784.928,1608.24L784.891,1608.22L784.853,1608.2L784.816,1608.19L784.779,1608.17L784.741,1608.15L784.704,1608.13L784.667,1608.11L784.63,1608.09L784.593,1608.07L784.556,1608.05L784.519,1608.03L784.482,1608.01L784.445,1607.99L784.409,1607.97L784.372,1607.95L784.335,1607.93L784.299,1607.91L784.262,1607.89L784.226,1607.87L784.19,1607.85L784.153,1607.83L784.117,1607.81L784.081,1607.79L784.045,1607.77L784.009,1607.75L783.973,1607.73L783.938,1607.7L783.902,1607.68L783.866,1607.66L783.831,1607.64L783.795,1607.62L783.76,1607.6L783.724,1607.58L783.689,1607.55L783.654,1607.53L783.618,1607.51L783.583,1607.49L783.548,1607.46L783.513,1607.44L783.478,1607.42L783.444,1607.4L783.409,1607.37L783.374,1607.35L783.34,1607.33L783.305,1607.31L783.271,1607.28L783.236,1607.26L783.202,1607.24L783.168,1607.21L783.134,1607.19L783.1,1607.16L783.066,1607.14L783.032,1607.12L782.998,1607.09L782.964,1607.07L782.93,1607.04L782.897,1607.02L782.863,1607L782.83,1606.97L782.796,1606.95L782.763,1606.92L782.73,1606.9L782.697,1606.87L782.664,1606.85L782.631,1606.82L782.598,1606.8L782.565,1606.77L782.532,1606.75L782.499,1606.72L782.467,1606.7L782.434,1606.67L782.402,1606.64L782.369,1606.62L782.337,1606.59L782.305,1606.57L782.273,1606.54L782.241,1606.52L782.209,1606.49L782.177,1606.46L782.145,1606.44L782.113,1606.41L782.082,1606.38L782.05,1606.36L782.019,1606.33L781.987,1606.3L781.956,1606.28L781.925,1606.25L781.894,1606.22L781.863,1606.19L781.832,1606.17L781.801,1606.14L781.77,1606.11L781.739,1606.08L781.709,1606.06L781.678,1606.03L781.648,1606L781.617,1605.97L781.587,1605.94L781.557,1605.92L781.527,1605.89L781.497,1605.86L781.467,1605.83L781.437,1605.8L781.407,1605.77L781.377,1605.75L781.348,1605.72L781.318,1605.69L781.289,1605.66L781.259,1605.63L781.23,1605.6L781.201,1605.57L781.172,1605.54L781.143,1605.51L781.114,1605.48L781.085,1605.45L781.056,1605.42L781.028,1605.39L780.999,1605.36L780.971,1605.33L780.942,1605.3L780.914,1605.27L780.886,1605.24L780.858,1605.21L780.83,1605.18L780.802,1605.15L780.774,1605.12L780.746,1605.09L780.719,1605.06L780.691,1605.03L780.664,1605L780.636,1604.97L780.609,1604.94L780.582,1604.91L780.555,1604.88L780.528,1604.84L780.501,1604.81L780.474,1604.78L780.447,1604.75L780.421,1604.72L780.394,1604.69L780.368,1604.65L780.341,1604.62L780.315,1604.59L780.289,1604.56L780.263,1604.53L780.237,1604.5L780.211,1604.46L780.185,1604.43L780.16,1604.4L780.134,1604.37L780.109,1604.33L780.083,1604.3L780.058,1604.27L780.033,1604.24L780.008,1604.2L779.983,1604.17L779.958,1604.14L779.933,1604.11L779.908,1604.07L779.884,1604.04L779.859,1604.01L779.835,1603.97L779.811,1603.94L779.786,1603.9L779.762,1603.87L779.738,1603.84L779.714,1603.8L779.69,1603.77L779.667,1603.74L779.643,1603.7L779.62,1603.67L779.596,1603.63L779.573,1603.6L779.55,1603.57L779.527,1603.53L779.504,1603.5L779.481,1603.46L779.458,1603.43L779.435,1603.39L779.413,1603.36L779.39,1603.33L779.368,1603.29L779.346,1603.26L779.323,1603.22L779.301,1603.18L779.279,1603.15L779.257,1603.12L779.236,1603.08L779.214,1603.05L779.193,1603.01L779.171,1602.97L779.15,1602.94L779.129,1602.9L779.107,1602.87L779.086,1602.83L779.065,1602.8L779.045,1602.76L779.024,1602.72L779.003,1602.69L778.983,1602.65L778.962,1602.62L778.942,1602.58L778.922,1602.54L778.902,1602.51L778.882,1602.47L778.862,1602.43L778.842,1602.4L778.823,1602.36L778.803,1602.33L778.784,1602.29L778.765,1602.25L778.745,1602.22L778.726,1602.18L778.707,1602.14L778.688,1602.1L778.67,1602.07L778.651,1602.03L778.633,1601.99L778.614,1601.95L778.596,1601.92L778.578,1601.88L778.56,1601.84L778.542,1601.81L778.524,1601.77L778.506,1601.73L778.488,1601.69L778.471,1601.65L778.453,1601.62L778.436,1601.58L778.419,1601.54L778.402,1601.5L778.385,1601.47L778.368,1601.43L778.351,1601.39L778.335,1601.35L778.318,1601.31L778.302,1601.27L778.286,1601.24L778.269,1601.2L778.253,1601.16L778.237,1601.12L778.222,1601.08L778.206,1601.04L778.19,1601L778.175,1600.97L778.16,1600.93L778.144,1600.89L778.129,1600.85L778.114,1600.81L778.099,1600.77L778.085,1600.73L778.07,1600.69L778.055,1600.65L778.041,1600.61L778.027,1600.57L778.013,1600.53L777.999,1600.5L777.985,1600.45L777.971,1600.42L777.957,1600.38L777.944,1600.34L777.93,1600.3L777.917,1600.26L777.904,1600.22L777.891,1600.18L777.878,1600.14L777.865,1600.1L777.852,1600.06L777.839,1600.02L777.827,1599.98L777.815,1599.94L777.802,1599.9L777.79,1599.86L777.778,1599.82L777.766,1599.78L777.755,1599.73L777.743,1599.69L777.732,1599.65L777.72,1599.61L777.709,1599.57L777.698,1599.53L777.687,1599.49L777.676,1599.45L777.665,1599.41L777.655,1599.37L777.644,1599.33L777.634,1599.29L777.623,1599.24L777.613,1599.2L777.603,1599.16L777.593,1599.12L777.584,1599.08L777.574,1599.04L777.565,1599L777.555,1598.95L777.546,1598.91L777.537,1598.87L777.528,1598.83L777.519,1598.79L777.51,1598.75L777.502,1598.7L777.493,1598.66L777.485,1598.62L777.477,1598.58L777.469,1598.54L777.461,1598.5L777.453,1598.45L777.445,1598.41L777.438,1598.37L777.43,1598.33L777.423,1598.29L777.416,1598.24L777.409,1598.2L777.402,1598.16L777.395,1598.12L777.388,1598.07L777.382,1598.03L777.376,1597.99L777.369,1597.95L777.363,1597.9L777.357,1597.86L777.351,1597.82L777.346,1597.78L777.34,1597.73L777.335,1597.69L777.329,1597.65L777.324,1597.61L777.319,1597.56L777.314,1597.52L777.309,1597.48L777.305,1597.43L777.3,1597.39L777.296,1597.35L777.292,1597.3L777.288,1597.26L777.284,1597.22L777.28,1597.17L777.276,1597.13L777.272,1597.09L777.269,1597.04L777.266,1597L777.263,1596.96L777.26,1596.91L777.257,1596.87L777.254,1596.83L777.251,1596.78L777.249,1596.74L777.247,1596.7L777.245,1596.65L777.242,1596.61L777.241,1596.57L777.239,1596.52L777.237,1596.48L777.236,1596.43L777.234,1596.39L777.233,1596.35L777.232,1596.3L777.231,1596.26L777.23,1596.21L777.23,1596.17L777.229,1596.13L777.229,1596.08L777.229,1596.04L777.229,1595.99L777.229,1595.95L777.229,1595.9L777.229,1595.86L777.23,1595.82L777.23,1595.77L777.231,1595.73L777.232,1595.68L777.233,1595.64L777.234,1595.6L777.236,1595.55L777.237,1595.51L777.239,1595.47L777.241,1595.42L777.242,1595.38L777.245,1595.33L777.247,1595.29L777.249,1595.25L777.251,1595.2L777.254,1595.16L777.257,1595.12L777.26,1595.07L777.263,1595.03L777.266,1594.99L777.269,1594.94L777.272,1594.9L777.276,1594.86L777.28,1594.81L777.284,1594.77L777.288,1594.73L777.292,1594.68L777.296,1594.64L777.3,1594.6L777.305,1594.55L777.309,1594.51L777.314,1594.47L777.319,1594.42L777.324,1594.38L777.329,1594.34L777.335,1594.3L777.34,1594.25L777.346,1594.21L777.351,1594.17L777.357,1594.12L777.363,1594.08L777.369,1594.04L777.376,1594L777.382,1593.95L777.388,1593.91L777.395,1593.87L777.402,1593.83L777.409,1593.79L777.416,1593.74L777.423,1593.7L777.43,1593.66L777.438,1593.62L777.445,1593.58L777.453,1593.53L777.461,1593.49L777.469,1593.45L777.477,1593.41L777.485,1593.37L777.493,1593.32L777.502,1593.28L777.51,1593.24L777.519,1593.2L777.528,1593.16L777.537,1593.12L777.546,1593.07L777.555,1593.03L777.565,1592.99L777.574,1592.95L777.584,1592.91L777.593,1592.87L777.603,1592.83L777.613,1592.78L777.623,1592.74L777.634,1592.7L777.644,1592.66L777.655,1592.62L777.665,1592.58L777.676,1592.54L777.687,1592.5L777.698,1592.46L777.709,1592.41L777.72,1592.37L777.732,1592.33L777.743,1592.29L777.755,1592.25L777.766,1592.21L777.778,1592.17L777.79,1592.13L777.802,1592.09L777.815,1592.05L777.827,1592.01L777.839,1591.97L777.852,1591.93L777.865,1591.89L777.878,1591.85L777.891,1591.81L777.904,1591.77L777.917,1591.73L777.93,1591.69L777.944,1591.65L777.957,1591.61L777.971,1591.57L777.985,1591.53L777.999,1591.49L778.013,1591.45L778.027,1591.41L778.041,1591.37L778.055,1591.33L778.07,1591.3L778.085,1591.26L778.099,1591.22L778.114,1591.18L778.129,1591.14L778.144,1591.1L778.16,1591.06L778.175,1591.02L778.19,1590.98L778.206,1590.94L778.222,1590.9L778.237,1590.87L778.253,1590.83L778.269,1590.79L778.286,1590.75L778.302,1590.71L778.318,1590.67L778.335,1590.64L778.351,1590.6L778.368,1590.56L778.385,1590.52L778.402,1590.48L778.419,1590.44L778.436,1590.41L778.453,1590.37L778.471,1590.33L778.488,1590.29L778.506,1590.26L778.524,1590.22L778.542,1590.18L778.56,1590.14L778.578,1590.11L778.596,1590.07L778.614,1590.03L778.633,1589.99L778.651,1589.96L778.67,1589.92L778.688,1589.88L778.707,1589.85L778.726,1589.81L778.745,1589.77L778.765,1589.74L778.784,1589.7L778.803,1589.66L778.823,1589.62L778.842,1589.59L778.862,1589.55L778.882,1589.52L778.902,1589.48L778.922,1589.44L778.942,1589.41L778.962,1589.37L778.983,1589.33L779.003,1589.3L779.024,1589.26L779.045,1589.23L779.065,1589.19L779.086,1589.15L779.107,1589.12L779.129,1589.08L779.15,1589.05L779.171,1589.01L779.193,1588.98L779.214,1588.94L779.236,1588.91L779.257,1588.87L779.279,1588.84L779.301,1588.8L779.323,1588.77L779.346,1588.73L779.368,1588.7L779.39,1588.66L779.413,1588.63L779.435,1588.59L779.458,1588.56L779.481,1588.52L779.504,1588.49L779.527,1588.45L779.55,1588.42L779.573,1588.39L779.596,1588.35L779.62,1588.32L779.643,1588.28L779.667,1588.25L779.69,1588.22L779.714,1588.18L779.738,1588.15L779.762,1588.12L779.786,1588.08L779.811,1588.05L779.835,1588.02L779.859,1587.98L779.884,1587.95L779.908,1587.91L779.933,1587.88L779.958,1587.85L779.983,1587.82L780.008,1587.78L780.033,1587.75L780.058,1587.72L780.083,1587.68L780.109,1587.65L780.134,1587.62L780.16,1587.59L780.185,1587.56L780.211,1587.52L780.237,1587.49L780.263,1587.46L780.289,1587.43L780.315,1587.39L780.341,1587.36L780.368,1587.33L780.394,1587.3L780.421,1587.27L780.447,1587.24L780.474,1587.2L780.501,1587.17L780.528,1587.14L780.555,1587.11L780.582,1587.08L780.609,1587.05L780.636,1587.02L780.664,1586.99L780.691,1586.96L780.719,1586.92L780.746,1586.89L780.774,1586.86L780.802,1586.83L780.83,1586.8L780.858,1586.77L780.886,1586.74L780.914,1586.71L780.942,1586.68L780.971,1586.65L780.999,1586.62L781.028,1586.59L781.056,1586.56L781.085,1586.53L781.114,1586.5L781.143,1586.47L781.172,1586.44L781.201,1586.42L781.23,1586.39L781.259,1586.36L781.289,1586.33L781.318,1586.3L781.348,1586.27L781.377,1586.24L781.407,1586.21L781.437,1586.18L781.467,1586.16L781.497,1586.13L781.527,1586.1L781.557,1586.07L781.587,1586.04L781.617,1586.02L781.648,1585.99L781.678,1585.96L781.709,1585.93L781.739,1585.9L781.77,1585.88L781.801,1585.85L781.832,1585.82L781.863,1585.79L781.894,1585.77L781.925,1585.74L781.956,1585.71L781.987,1585.68L782.019,1585.66L782.05,1585.63L782.082,1585.6L782.113,1585.58L782.145,1585.55L782.177,1585.53L782.209,1585.5L782.241,1585.47L782.273,1585.45L782.305,1585.42L782.337,1585.39L782.369,1585.37L782.402,1585.34L782.434,1585.32L782.467,1585.29L782.499,1585.27L782.532,1585.24L782.565,1585.21L782.598,1585.19L782.631,1585.16L782.664,1585.14L782.697,1585.11L782.73,1585.09L782.763,1585.06L782.796,1585.04L782.83,1585.02L782.863,1584.99L782.897,1584.97L782.93,1584.94L782.964,1584.92L782.998,1584.89L783.032,1584.87L783.066,1584.85L783.1,1584.82L783.134,1584.8L783.168,1584.78L783.202,1584.75L783.236,1584.73L783.271,1584.7L783.305,1584.68L783.34,1584.66L783.374,1584.63L783.409,1584.61L783.444,1584.59L783.478,1584.57L783.513,1584.54L783.548,1584.52L783.583,1584.5L783.618,1584.48L783.654,1584.45L783.689,1584.43L783.724,1584.41L783.76,1584.39L783.795,1584.37L783.831,1584.35L783.866,1584.32L783.902,1584.3L783.938,1584.28L783.973,1584.26L784.009,1584.24L784.045,1584.22L784.081,1584.2L784.117,1584.18L784.153,1584.15L784.19,1584.13L784.226,1584.11L784.262,1584.09L784.299,1584.07L784.335,1584.05L784.372,1584.03L784.409,1584.01L784.445,1583.99L784.482,1583.97L784.519,1583.95L784.556,1583.93L784.593,1583.91L784.63,1583.89L784.667,1583.88L784.704,1583.86L784.741,1583.84L784.779,1583.82L784.816,1583.8L784.853,1583.78L784.891,1583.76L784.928,1583.74L784.966,1583.73L785.004,1583.71L785.042,1583.69L785.079,1583.67L785.117,1583.65L785.155,1583.64L785.193,1583.62L785.231,1583.6L785.269,1583.58L785.308,1583.57L785.346,1583.55L785.384,1583.53L785.423,1583.51L785.461,1583.5L785.5,1583.48L785.538,1583.46L785.577,1583.45L785.615,1583.43L785.654,1583.41L785.693,1583.4L785.732,1583.38L785.771,1583.37L785.81,1583.35L785.849,1583.33L785.888,1583.32L785.927,1583.3L785.966,1583.29L786.006,1583.27L786.045,1583.26L786.084,1583.24L786.124,1583.23L786.163,1583.21L786.203,1583.2L786.243,1583.18L786.282,1583.17L786.322,1583.15L786.362,1583.14L786.402,1583.12L786.442,1583.11L786.482,1583.1L786.522,1583.08L786.562,1583.07L786.602,1583.06L786.642,1583.04L786.682,1583.03L786.723,1583.01L786.763,1583L786.804,1582.99L786.844,1582.98L786.885,1582.96L786.925,1582.95L786.966,1582.94L787.006,1582.92L787.047,1582.91L787.088,1582.9L787.129,1582.89L787.17,1582.88L787.211,1582.87L787.252,1582.85L787.293,1582.84L787.334,1582.83L787.375,1582.82L787.416,1582.81L787.457,1582.8L787.499,1582.79L787.54,1582.77L787.582,1582.76L787.623,1582.75L787.665,1582.74L787.706,1582.73L787.748,1582.72L787.789,1582.71L787.831,1582.7L787.873,1582.69L787.915,1582.68L787.957,1582.67L787.998,1582.66L788.04,1582.65L788.082,1582.64L788.124,1582.63L788.167,1582.63L788.209,1582.62L788.251,1582.61L788.293,1582.6L788.335,1582.59L788.378,1582.58L788.42,1582.58L788.463,1582.57L788.505,1582.56L788.548,1582.55L788.59,1582.54L788.633,1582.54L788.675,1582.53L788.718,1582.52L788.761,1582.51L788.804,1582.51L788.846,1582.5L788.889,1582.49L788.932,1582.49L788.975,1582.48L789.018,1582.47L789.061,1582.47L789.104,1582.46L789.147,1582.45L789.191,1582.45L789.234,1582.44L789.277,1582.44L789.32,1582.43L789.364,1582.43L789.407,1582.42L789.451,1582.42L789.494,1582.41L789.537,1582.41L789.581,1582.4L789.625,1582.4L789.668,1582.39L789.712,1582.39L789.756,1582.38L789.799,1582.38L789.843,1582.38L789.887,1582.37L789.931,1582.37L789.975,1582.37L790.019,1582.36L790.063,1582.36L790.107,1582.36L790.151,1582.35L790.195,1582.35L790.239,1582.35L790.283,1582.35L790.327,1582.34L790.371,1582.34L790.416,1582.34L790.46,1582.34L790.504,1582.33L790.549,1582.33L790.593,1582.33L790.638,1582.33L790.682,1582.33L790.727,1582.33L790.771,1582.33L790.816,1582.33L790.86,1582.32L790.905,1582.32L790.95,1582.32L790.994,1582.32L791.039,1582.32L791.084,1582.32L791.039,1582.33L791.013,1582.34L790.995,1582.34L790.95,1582.35L790.906,1582.36L790.861,1582.37L790.817,1582.38L790.773,1582.39L790.729,1582.4L790.685,1582.41L790.641,1582.43L790.597,1582.44L790.553,1582.45L790.509,1582.46L790.466,1582.47L790.423,1582.48L790.379,1582.49L790.336,1582.51L790.293,1582.52L790.25,1582.53L790.207,1582.54L790.164,1582.55L790.121,1582.57L790.078,1582.58L790.036,1582.59L789.993,1582.6L789.951,1582.62L789.909,1582.63L789.866,1582.64L789.824,1582.65L789.782,1582.67L789.74,1582.68L789.699,1582.7L789.657,1582.71L789.615,1582.72L789.574,1582.74L789.532,1582.75L789.491,1582.77L789.468,1582.77L789.45,1582.78L789.408,1582.79L789.367,1582.81L789.326,1582.82L789.285,1582.83L789.244,1582.85L789.203,1582.86L789.163,1582.87L789.122,1582.89L789.081,1582.9L789.041,1582.92L789.001,1582.93L788.96,1582.94L788.92,1582.96L788.88,1582.97L788.84,1582.99L788.8,1583L788.76,1583.02L788.72,1583.03L788.681,1583.05L788.641,1583.06L788.602,1583.08L788.562,1583.1L788.523,1583.11L788.484,1583.13L788.445,1583.14L788.406,1583.16L788.367,1583.17L788.328,1583.19L788.289,1583.21L788.251,1583.22L788.212,1583.24L788.174,1583.26L788.135,1583.27L788.097,1583.29L788.059,1583.31L788.021,1583.32L787.983,1583.34L787.945,1583.36L787.907,1583.38L787.87,1583.39L787.832,1583.41L787.795,1583.43L787.757,1583.45L787.72,1583.46L787.683,1583.48L787.646,1583.5L787.608,1583.52L787.572,1583.54L787.535,1583.55L787.498,1583.57L787.461,1583.59L787.425,1583.61L787.388,1583.63L787.352,1583.65L787.316,1583.67L787.279,1583.69L787.243,1583.7L787.207,1583.72L787.172,1583.74L787.136,1583.76L787.1,1583.78L787.064,1583.8L787.029,1583.82L786.994,1583.84L786.958,1583.86L786.923,1583.88L786.888,1583.9L786.853,1583.92L786.818,1583.94L786.783,1583.96L786.748,1583.98L786.714,1584L786.679,1584.02L786.645,1584.05L786.61,1584.07L786.576,1584.09L786.542,1584.11L786.508,1584.13L786.474,1584.15L786.44,1584.17L786.406,1584.19L786.373,1584.21L786.339,1584.24L786.306,1584.26L786.272,1584.28L786.239,1584.3L786.206,1584.32L786.173,1584.34L786.14,1584.37L786.107,1584.39L786.074,1584.41L786.041,1584.43L786.009,1584.45L785.976,1584.48L785.944,1584.5L785.912,1584.52L785.879,1584.55L785.847,1584.57L785.815,1584.59L785.783,1584.61L785.752,1584.64L785.72,1584.66L785.718,1584.66L785.688,1584.68L785.655,1584.7L785.623,1584.73L785.591,1584.75L785.559,1584.77L785.527,1584.79L785.495,1584.81L785.464,1584.84L785.432,1584.86L785.401,1584.88L785.369,1584.9L785.338,1584.92L785.306,1584.95L785.275,1584.97L785.244,1584.99L785.213,1585.02L785.182,1585.04L785.151,1585.06L785.121,1585.08L785.09,1585.11L785.06,1585.13L785.029,1585.15L784.999,1585.18L784.968,1585.2L784.938,1585.22L784.908,1585.25L784.878,1585.27L784.848,1585.3L784.819,1585.32L784.789,1585.34L784.759,1585.37L784.73,1585.39L784.7,1585.41L784.671,1585.44L784.642,1585.46L784.612,1585.49L784.583,1585.51L784.554,1585.54L784.526,1585.56L784.497,1585.59L784.468,1585.61L784.439,1585.63L784.411,1585.66L784.383,1585.68L784.354,1585.71L784.326,1585.74L784.298,1585.76L784.27,1585.79L784.242,1585.81L784.214,1585.84L784.186,1585.86L784.159,1585.89L784.131,1585.91L784.104,1585.94L784.076,1585.96L784.049,1585.99L784.022,1586.02L783.995,1586.04L783.968,1586.07L783.941,1586.09L783.914,1586.12L783.887,1586.14L783.861,1586.17L783.834,1586.2L783.808,1586.22L783.782,1586.25L783.755,1586.28L783.729,1586.3L783.703,1586.33L783.677,1586.36L783.651,1586.38L783.626,1586.41L783.6,1586.44L783.574,1586.46L783.549,1586.49L783.524,1586.52L783.498,1586.55L783.473,1586.57L783.448,1586.6L783.423,1586.63L783.398,1586.65L783.374,1586.68L783.349,1586.71L783.324,1586.74L783.3,1586.77L783.276,1586.79L783.251,1586.82L783.227,1586.85L783.203,1586.88L783.179,1586.9L783.155,1586.93L783.131,1586.96L783.108,1586.99L783.084,1587.02L783.061,1587.04L783.037,1587.07L783.014,1587.1L782.991,1587.13L782.968,1587.16L782.945,1587.18L782.922,1587.21L782.899,1587.24L782.876,1587.27L782.854,1587.3L782.831,1587.33L782.809,1587.36L782.787,1587.39L782.764,1587.41L782.742,1587.44L782.72,1587.47L782.698,1587.5L782.677,1587.53L782.655,1587.56L782.633,1587.59L782.612,1587.62L782.591,1587.65L782.569,1587.68L782.548,1587.71L782.527,1587.74L782.506,1587.77L782.485,1587.8L782.464,1587.82L782.444,1587.85L782.423,1587.88L782.403,1587.91L782.382,1587.94L782.362,1587.97L782.342,1588L782.322,1588.03L782.302,1588.06L782.282,1588.09L782.262,1588.12L782.243,1588.15L782.223,1588.18L782.204,1588.21L782.184,1588.24L782.165,1588.27L782.146,1588.3L782.127,1588.33L782.108,1588.37L782.089,1588.39L782.07,1588.43L782.052,1588.46L782.033,1588.49L782.015,1588.52L781.996,1588.55L781.978,1588.58L781.96,1588.61L781.942,1588.64L781.936,1588.65L781.923,1588.67L781.904,1588.7L781.885,1588.73L781.866,1588.76L781.847,1588.79L781.828,1588.82L781.81,1588.85L781.791,1588.88L781.773,1588.91L781.754,1588.94L781.736,1588.97L781.718,1589L781.7,1589.03L781.682,1589.06L781.664,1589.09L781.646,1589.12L781.628,1589.15L781.611,1589.18L781.593,1589.21L781.576,1589.24L781.558,1589.27L781.541,1589.3L781.524,1589.33L781.507,1589.37L781.49,1589.4L781.473,1589.43L781.457,1589.46L781.44,1589.49L781.423,1589.52L781.407,1589.55L781.391,1589.58L781.375,1589.61L781.358,1589.64L781.342,1589.67L781.326,1589.7L781.311,1589.74L781.295,1589.77L781.279,1589.8L781.264,1589.83L781.248,1589.86L781.233,1589.89L781.218,1589.92L781.203,1589.96L781.188,1589.99L781.173,1590.02L781.158,1590.05L781.143,1590.08L781.129,1590.11L781.114,1590.14L781.1,1590.18L781.086,1590.21L781.071,1590.24L781.057,1590.27L781.043,1590.3L781.03,1590.34L781.016,1590.37L781.002,1590.4L780.988,1590.43L780.975,1590.46L780.962,1590.5L780.948,1590.53L780.935,1590.56L780.922,1590.59L780.909,1590.62L780.896,1590.66L780.884,1590.69L780.871,1590.72L780.858,1590.75L780.846,1590.79L780.834,1590.82L780.821,1590.85L780.809,1590.88L780.797,1590.91L780.785,1590.95L780.773,1590.98L780.762,1591.01L780.75,1591.05L780.739,1591.08L780.727,1591.11L780.716,1591.14L780.705,1591.17L780.694,1591.21L780.683,1591.24L780.672,1591.27L780.664,1591.3L780.661,1591.31L780.649,1591.34L780.637,1591.37L780.625,1591.4L780.613,1591.43L780.601,1591.47L780.589,1591.5L780.578,1591.53L780.567,1591.56L780.555,1591.6L780.544,1591.63L780.533,1591.66L780.522,1591.69L780.511,1591.73L780.5,1591.76L780.49,1591.79L780.479,1591.82L780.468,1591.86L780.458,1591.89L780.448,1591.92L780.438,1591.95L780.427,1591.99L780.417,1592.02L780.408,1592.05L780.398,1592.09L780.388,1592.12L780.379,1592.15L780.369,1592.18L780.36,1592.22L780.35,1592.25L780.341,1592.28L780.332,1592.32L780.323,1592.35L780.314,1592.38L780.306,1592.42L780.297,1592.45L780.289,1592.48L780.28,1592.52L780.272,1592.55L780.264,1592.58L780.255,1592.62L780.247,1592.65L780.239,1592.68L780.232,1592.72L780.224,1592.75L780.216,1592.78L780.209,1592.82L780.202,1592.85L780.194,1592.88L780.187,1592.92L780.18,1592.95L780.173,1592.99L780.166,1593.02L780.159,1593.05L780.153,1593.09L780.146,1593.12L780.14,1593.15L780.133,1593.19L780.127,1593.22L780.121,1593.26L780.115,1593.29L780.109,1593.32L780.103,1593.36L780.098,1593.39L780.092,1593.42L780.087,1593.46L780.081,1593.49L780.076,1593.53L780.071,1593.56L780.066,1593.6L780.061,1593.63L780.056,1593.66L780.051,1593.7L780.047,1593.73L780.042,1593.77L780.038,1593.8L780.034,1593.83L780.029,1593.87L780.025,1593.9L780.021,1593.94L780.017,1593.97L780.014,1594.01L780.01,1594.04L780.007,1594.07L780.003,1594.11L780,1594.14L779.999,1594.15L779.996,1594.18L779.991,1594.21L779.987,1594.25L779.983,1594.28L779.979,1594.31L779.975,1594.35L779.971,1594.38L779.967,1594.42L779.963,1594.45L779.96,1594.49L779.957,1594.52L779.953,1594.56L779.95,1594.59L779.947,1594.62L779.944,1594.66L779.941,1594.69L779.938,1594.73L779.936,1594.76L779.933,1594.8L779.931,1594.83L779.928,1594.87L779.926,1594.9L779.924,1594.94L779.922,1594.97L779.92,1595.01L779.918,1595.04L779.916,1595.08L779.915,1595.11L779.913,1595.15L779.912,1595.18L779.911,1595.22L779.91,1595.25L779.909,1595.29L779.908,1595.32L779.907,1595.36L779.906,1595.39L779.906,1595.43L779.905,1595.46L779.905,1595.5L779.905,1595.53L779.905,1595.57L779.905,1595.6L779.905,1595.64L779.905,1595.67L779.905,1595.71L779.906,1595.75L779.906,1595.78L779.907,1595.82L779.908,1595.85L779.909,1595.89L779.91,1595.92L779.911,1595.96L779.912,1595.99L779.914,1596.03L779.915,1596.06L779.917,1596.1L779.918,1596.13L779.92,1596.17L779.922,1596.21L779.924,1596.24L779.926,1596.28L779.929,1596.31L779.931,1596.35L779.934,1596.38L779.936,1596.42L779.939,1596.45L779.942,1596.49L779.945,1596.52L779.948,1596.56L779.951,1596.59L779.954,1596.63L779.958,1596.66L779.961,1596.7L779.965,1596.73L779.968,1596.77L779.972,1596.8L779.976,1596.84L779.98,1596.87L779.984,1596.9L779.988,1596.94L779.993,1596.97L779.997,1597.01L780.002,1597.04L780.007,1597.08L780.011,1597.11L780.016,1597.14L780.021,1597.18L780.026,1597.21L780.031,1597.25L780.037,1597.28L780.042,1597.32L780.048,1597.35L780.053,1597.38L780.059,1597.42L780.065,1597.45L780.071,1597.49L780.077,1597.52L780.083,1597.55L780.089,1597.59L780.096,1597.62L780.102,1597.65L780.109,1597.69L780.115,1597.72L780.122,1597.75L780.129,1597.79L780.136,1597.82L780.143,1597.85L780.15,1597.89L780.157,1597.92L780.165,1597.95L780.172,1597.99L780.18,1598.02L780.187,1598.05L780.195,1598.09L780.203,1598.12L780.211,1598.15L780.219,1598.18L780.227,1598.22L780.235,1598.25L780.244,1598.28L780.252,1598.32L780.261,1598.35L780.269,1598.38L780.278,1598.41L780.287,1598.45L780.296,1598.48L780.305,1598.51L780.314,1598.54L780.324,1598.58L780.333,1598.61L780.342,1598.64L780.352,1598.67L780.362,1598.7L780.371,1598.74L780.381,1598.77L780.391,1598.8L780.401,1598.83L780.411,1598.86L780.421,1598.9L780.432,1598.93L780.442,1598.96L780.453,1598.99L780.463,1599.02L780.474,1599.06L780.485,1599.09L780.499,1599.13L780.506,1599.15L780.517,1599.18L780.528,1599.21L780.538,1599.24L780.549,1599.28L780.56,1599.31L780.572,1599.34L780.583,1599.37L780.594,1599.4L780.605,1599.43L780.617,1599.46L780.629,1599.49L780.64,1599.53L780.652,1599.56L780.664,1599.59L780.676,1599.62L780.688,1599.65L780.7,1599.68L780.712,1599.71L780.725,1599.74L780.737,1599.77L780.75,1599.8L780.762,1599.83L780.775,1599.86L780.788,1599.89L780.8,1599.92L780.813,1599.95L780.826,1599.99L780.84,1600.02L780.853,1600.05L780.866,1600.08L780.88,1600.11L780.893,1600.14L780.907,1600.17L780.92,1600.2L780.934,1600.23L780.948,1600.26L780.962,1600.29L780.976,1600.32L780.99,1600.35L781.004,1600.38L781.019,1600.4L781.033,1600.43L781.048,1600.46L781.062,1600.49L781.077,1600.52L781.092,1600.55L781.106,1600.58L781.121,1600.61L781.136,1600.64L781.151,1600.67L781.167,1600.7L781.182,1600.73L781.197,1600.76L781.213,1600.79L781.228,1600.81L781.244,1600.84L781.26,1600.87L781.275,1600.9L781.291,1600.93L781.307,1600.96L781.323,1600.99L781.339,1601.02L781.356,1601.04L781.372,1601.07L781.388,1601.1L781.405,1601.13L781.421,1601.16L781.438,1601.18L781.455,1601.21L781.471,1601.24L781.488,1601.27L781.505,1601.3L781.522,1601.33L781.539,1601.35L781.557,1601.38L781.574,1601.41L781.591,1601.44L781.609,1601.46L781.626,1601.49L781.644,1601.52L781.662,1601.55L781.679,1601.57L781.697,1601.6L781.715,1601.63L781.733,1601.66L781.751,1601.68L781.769,1601.71L781.788,1601.74L781.806,1601.77L781.824,1601.79L781.843,1601.82L781.862,1601.85L781.88,1601.87L781.899,1601.9L781.918,1601.93L781.937,1601.95L781.956,1601.98L781.975,1602.01L781.994,1602.03L782.013,1602.06L782.032,1602.09L782.052,1602.11L782.071,1602.14L782.091,1602.16L782.11,1602.19L782.13,1602.22L782.15,1602.24L782.17,1602.27L782.19,1602.29L782.21,1602.32L782.23,1602.34L782.25,1602.37L782.27,1602.4L782.29,1602.42L782.311,1602.45L782.331,1602.47L782.352,1602.5L782.372,1602.52L782.393,1602.55L782.414,1602.57L782.434,1602.6L782.455,1602.62L782.476,1602.65L782.497,1602.67L782.518,1602.7L782.54,1602.72L782.561,1602.75L782.582,1602.77L782.604,1602.8L782.625,1602.82L782.647,1602.85L782.668,1602.87L782.69,1602.89L782.712,1602.92L782.733,1602.94L782.755,1602.97L782.777,1602.99L782.799,1603.02L782.822,1603.04L782.844,1603.06L782.866,1603.09L782.888,1603.11L782.911,1603.13L782.933,1603.16L782.956,1603.18L782.978,1603.2L783.001,1603.23L783.024,1603.25L783.047,1603.27L783.069,1603.3L783.092,1603.32L783.115,1603.34L783.139,1603.37L783.162,1603.39L783.185,1603.41L783.208,1603.43L783.232,1603.46L783.255,1603.48L783.279,1603.5L783.302,1603.53L783.326,1603.55L783.349,1603.57L783.373,1603.59L783.397,1603.61L783.421,1603.64L783.445,1603.66L783.469,1603.68L783.493,1603.7L783.517,1603.72L783.541,1603.75L783.566,1603.77L783.59,1603.79L783.614,1603.81L783.639,1603.83L783.663,1603.85L783.688,1603.88L783.713,1603.9L783.738,1603.92L783.762,1603.94L783.787,1603.96L783.812,1603.98L783.837,1604L783.862,1604.02L783.887,1604.04L783.912,1604.06L783.938,1604.08L783.972,1604.11L783.988,1604.12L784.013,1604.15L784.039,1604.17L784.064,1604.19L784.09,1604.21L784.115,1604.23L784.141,1604.25L784.166,1604.27L784.192,1604.29L784.218,1604.31L784.244,1604.33L784.27,1604.35L784.295,1604.37L784.321,1604.39L784.348,1604.41L784.374,1604.42L784.4,1604.44L784.426,1604.46L784.452,1604.48L784.479,1604.5L784.505,1604.52L784.532,1604.54L784.558,1604.56L784.585,1604.58L784.611,1604.6L784.638,1604.62L784.665,1604.63L784.692,1604.65L784.719,1604.67L784.745,1604.69L784.772,1604.71L784.8,1604.73L784.827,1604.75L784.854,1604.76L784.881,1604.78L784.908,1604.8L784.936,1604.82L784.963,1604.84L784.99,1604.85L785.018,1604.87L785.046,1604.89L785.073,1604.9L785.101,1604.92L785.128,1604.94L785.156,1604.96L785.184,1604.97L785.212,1604.99L785.24,1605.01L785.268,1605.03L785.296,1605.04L785.324,1605.06L785.352,1605.08L785.38,1605.09L785.409,1605.11L785.437,1605.12L785.465,1605.14L785.494,1605.16L785.522,1605.17L785.551,1605.19L785.579,1605.2L785.608,1605.22L785.636,1605.24L785.665,1605.25L785.694,1605.27L785.723,1605.28L785.752,1605.3L785.781,1605.31L785.81,1605.33L785.839,1605.35L785.868,1605.36L785.897,1605.38L785.926,1605.39L785.955,1605.4L785.984,1605.42L786.014,1605.43L786.043,1605.45L786.072,1605.46L786.102,1605.48L786.131,1605.49L786.161,1605.51L786.191,1605.52L786.22,1605.54L786.25,1605.55L786.28,1605.56L786.309,1605.58L786.339,1605.59L786.369,1605.6L786.399,1605.62L786.429,1605.63L786.459,1605.64L786.489,1605.66L786.519,1605.67L786.549,1605.68L786.58,1605.7L786.61,1605.71L786.64,1605.72L786.671,1605.74L786.701,1605.75L786.731,1605.76L786.762,1605.77L786.792,1605.79L786.823,1605.8L786.854,1605.81L786.884,1605.82L786.915,1605.84L786.946,1605.85L786.976,1605.86L787.007,1605.87L787.038,1605.88L787.069,1605.89L787.1,1605.9L787.131,1605.92L787.162,1605.93L787.193,1605.94L787.224,1605.95L787.255,1605.96L787.287,1605.97L787.318,1605.98L787.349,1605.99L787.38,1606L787.412,1606.02L787.443,1606.03L787.475,1606.04L787.506,1606.05L787.538,1606.06L787.569,1606.07L787.601,1606.08L787.633,1606.09L787.664,1606.1L787.696,1606.11L787.728,1606.12L787.76,1606.12L787.791,1606.13L787.823,1606.14L787.855,1606.15L787.887,1606.16L787.919,1606.17L787.951,1606.18L787.983,1606.19L788.016,1606.2L788.048,1606.21L788.08,1606.22L788.112,1606.22L788.144,1606.23L788.177,1606.24L788.209,1606.25L788.241,1606.26L788.274,1606.27L788.306,1606.27L788.339,1606.28L788.371,1606.29L788.404,1606.3L788.437,1606.3L788.469,1606.31L788.502,1606.32L788.535,1606.33L788.567,1606.33L788.6,1606.34L788.633,1606.35L788.666,1606.35L788.699,1606.36L788.732,1606.37L788.765,1606.37L788.798,1606.38L788.831,1606.39L788.864,1606.39L788.897,1606.4L788.93,1606.4L788.963,1606.41L788.997,1606.42L789.03,1606.42L789.063,1606.43L789.096,1606.43L789.13,1606.44L789.163,1606.44L789.197,1606.45L789.23,1606.45L789.263,1606.46L789.297,1606.47L789.331,1606.47L789.364,1606.48L789.398,1606.48L789.431,1606.48L789.465,1606.49L789.499,1606.49L789.533,1606.5L789.566,1606.5L789.6,1606.51L789.634,1606.51L789.668,1606.51L789.702,1606.52L789.736,1606.52L789.77,1606.52L789.804,1606.53L789.838,1606.53L789.872,1606.53L789.906,1606.54L789.94,1606.54L789.974,1606.54L790.009,1606.55L790.043,1606.55L790.077,1606.55L790.111,1606.55L790.146,1606.56L790.18,1606.56L790.214,1606.56L790.249,1606.56L790.283,1606.56L790.329,1606.57L790.352,1606.57L790.387,1606.57L790.421,1606.57L790.456,1606.57L790.491,1606.57L790.525,1606.58L790.56,1606.58L790.595,1606.58L790.629,1606.58L790.664,1606.58L790.699,1606.58L790.734,1606.58L790.769,1606.58L790.804,1606.58L790.839,1606.58L790.874,1606.58L790.909,1606.58L790.944,1606.58L790.979,1606.58L791.014,1606.58L791.049,1606.58L791.084,1606.58L791.119,1606.58L791.154,1606.58L791.189,1606.58L791.224,1606.58L791.259,1606.58L791.294,1606.58L791.329,1606.58L791.364,1606.58L791.399,1606.57L791.434,1606.57L791.469,1606.57L791.503,1606.57L791.538,1606.57L791.573,1606.57L791.607,1606.56L791.642,1606.56L791.677,1606.56L791.711,1606.56L791.746,1606.56L791.78,1606.55L791.815,1606.55L791.849,1606.55L791.883,1606.54L791.918,1606.54L791.952,1606.54L791.986,1606.54L792.02,1606.53L792.055,1606.53L792.089,1606.53L792.123,1606.52L792.157,1606.52L792.191,1606.51L792.225,1606.51L792.259,1606.51L792.293,1606.5L792.327,1606.5L792.36,1606.49L792.394,1606.49L792.428,1606.49L792.462,1606.48L792.495,1606.48L792.529,1606.47L792.563,1606.47L792.596,1606.46L792.63,1606.45L792.663,1606.45L792.697,1606.44L792.73,1606.44L792.763,1606.43L792.797,1606.43L792.83,1606.42L792.863,1606.42L792.896,1606.41L792.93,1606.4L792.963,1606.4L792.996,1606.39L793.029,1606.39L793.062,1606.38L793.095,1606.37L793.128,1606.37L793.161,1606.36L793.193,1606.35L793.226,1606.35L793.259,1606.34L793.292,1606.33L793.324,1606.33L793.357,1606.32L793.39,1606.31L793.422,1606.3L793.455,1606.3L793.487,1606.29L793.52,1606.28L793.552,1606.27L793.585,1606.26L793.617,1606.26L793.649,1606.25L793.681,1606.24L793.714,1606.23L793.746,1606.22L793.778,1606.22L793.81,1606.21L793.842,1606.2L793.874,1606.19L793.906,1606.18L793.938,1606.17L793.97,1606.16L794.001,1606.15L794.033,1606.14L794.065,1606.13L794.097,1606.12L794.128,1606.12L794.16,1606.11L794.191,1606.1L794.223,1606.09L794.254,1606.08L794.286,1606.07L794.317,1606.06L794.348,1606.05L794.38,1606.04L794.411,1606.02L794.442,1606.01L794.473,1606L794.504,1605.99L794.536,1605.98L794.567,1605.97L794.598,1605.96L794.628,1605.95L794.659,1605.94L794.69,1605.93L794.721,1605.91L794.752,1605.9L794.782,1605.89L794.813,1605.88L794.844,1605.87L794.874,1605.86L794.905,1605.85L794.935,1605.83L794.966,1605.82L794.996,1605.81L795.026,1605.8L795.057,1605.79L795.087,1605.77L795.117,1605.76L795.147,1605.75L795.177,1605.74L795.207,1605.72L795.237,1605.71L795.267,1605.7L795.297,1605.68L795.327,1605.67L795.357,1605.66L795.386,1605.64L795.416,1605.63L795.446,1605.62L795.475,1605.6L795.505,1605.59L795.534,1605.58L795.564,1605.56L795.593,1605.55L795.623,1605.54L795.652,1605.52L795.681,1605.51L795.71,1605.49L795.739,1605.48L795.769,1605.47L795.798,1605.45L795.827,1605.44L795.856,1605.42L795.884,1605.41L795.913,1605.39L795.942,1605.38L795.971,1605.36L795.999,1605.35L796.028,1605.33L796.057,1605.32L796.085,1605.3L796.114,1605.29L796.142,1605.27L796.17,1605.26L796.199,1605.24L796.227,1605.22L796.255,1605.21L796.283,1605.19L796.311,1605.18L796.339,1605.16L796.367,1605.14L796.395,1605.13L796.423,1605.11L796.451,1605.1L796.479,1605.08L796.507,1605.06L796.534,1605.05L796.562,1605.03L796.589,1605.01L796.617,1605L796.644,1604.98L796.672,1604.96L796.699,1604.95L796.726,1604.93L796.753,1604.91L796.781,1604.89L796.808,1604.88L796.835,1604.86L796.862,1604.84L796.889,1604.82L796.915,1604.81L796.942,1604.79L796.969,1604.77L796.996,1604.75L797.022,1604.74L797.049,1604.72L797.075,1604.7L797.102,1604.68L797.128,1604.66L797.155,1604.64L797.181,1604.63L797.207,1604.61L797.233,1604.59L797.247,1604.58L797.259,1604.57L797.286,1604.55L797.312,1604.53L797.338,1604.51L797.364,1604.5L797.389,1604.48L797.415,1604.46L797.441,1604.44L797.467,1604.42L797.492,1604.4L797.518,1604.38L797.543,1604.36L797.569,1604.34L797.594,1604.32L797.62,1604.3L797.645,1604.28L797.67,1604.26L797.695,1604.24L797.72,1604.23L797.745,1604.2L797.77,1604.18L797.795,1604.16L797.82,1604.14L797.845,1604.12L797.87,1604.1L797.894,1604.08L797.919,1604.06L797.943,1604.04L797.968,1604.02L797.992,1604L798.016,1603.98L798.041,1603.96L798.065,1603.94L798.089,1603.92L798.113,1603.9L798.137,1603.88L798.161,1603.86L798.185,1603.83L798.209,1603.81L798.232,1603.79L798.256,1603.77L798.28,1603.75L798.303,1603.73L798.327,1603.71L798.35,1603.68L798.373,1603.66L798.397,1603.64L798.42,1603.62L798.443,1603.6L798.466,1603.58L798.489,1603.55L798.512,1603.53L798.535,1603.51L798.558,1603.49L798.58,1603.46L798.603,1603.44L798.626,1603.42L798.648,1603.4L798.671,1603.37L798.693,1603.35L798.715,1603.33L798.738,1603.31L798.76,1603.28L798.782,1603.26L798.804,1603.24L798.826,1603.22L798.848,1603.19L798.869,1603.17L798.891,1603.14L798.913,1603.12L798.935,1603.1L798.956,1603.08L798.978,1603.05L798.999,1603.03L799.02,1603.01L799.041,1602.98L799.063,1602.96L799.084,1602.93L799.105,1602.91L799.126,1602.89L799.147,1602.86L799.167,1602.84L799.188,1602.81L799.209,1602.79L799.229,1602.77L799.25,1602.74L799.27,1602.72L799.291,1602.69L799.311,1602.67L799.331,1602.64L799.351,1602.62L799.371,1602.6L799.391,1602.57L799.411,1602.55L799.431,1602.52L799.451,1602.5L799.471,1602.47L799.49,1602.45L799.51,1602.42L799.529,1602.4L799.549,1602.37L799.568,1602.35L799.587,1602.32L799.606,1602.3L799.625,1602.27L799.644,1602.24L799.663,1602.22L799.682,1602.19L799.701,1602.17L799.72,1602.14L799.738,1602.12L799.757,1602.09L799.775,1602.07L799.794,1602.04L799.812,1602.01L799.83,1601.99L799.848,1601.96L799.866,1601.93L799.884,1601.91L799.902,1601.88L799.92,1601.86L799.938,1601.83L799.955,1601.8L799.973,1601.78L799.99,1601.75L800.008,1601.73L800.025,1601.7L800.043,1601.67L800.06,1601.64L800.077,1601.62L800.094,1601.59L800.111,1601.57L800.128,1601.54L800.144,1601.51L800.161,1601.48L800.178,1601.46L800.194,1601.43L800.211,1601.4L800.227,1601.38L800.243,1601.35L800.26,1601.32L800.276,1601.29L800.292,1601.27L800.308,1601.24L800.324,1601.21L800.339,1601.18L800.355,1601.16L800.371,1601.13L800.386,1601.1L800.402,1601.07L800.417,1601.05L800.432,1601.02L800.448,1600.99L800.463,1600.96L800.478,1600.93L800.493,1600.91L800.507,1600.88L800.522,1600.85L800.537,1600.82L800.552,1600.8L800.566,1600.77L800.581,1600.74L800.595,1600.71L800.609,1600.68L800.623,1600.65L800.637,1600.62L800.651,1600.6L800.665,1600.57L800.679,1600.54L800.693,1600.51L800.707,1600.48L800.72,1600.45L800.734,1600.42L800.747,1600.4L800.76,1600.37L800.774,1600.34L800.787,1600.31L800.8,1600.28L800.813,1600.25L800.826,1600.22L800.838,1600.19L800.851,1600.16L800.864,1600.13L800.876,1600.11L800.889,1600.08L800.901,1600.05L800.913,1600.02L800.925,1599.99L800.938,1599.96L800.949,1599.93L800.961,1599.9L800.973,1599.87L800.985,1599.84L800.997,1599.81L801.008,1599.78L801.02,1599.75L801.031,1599.72L801.042,1599.69L801.053,1599.66L801.064,1599.63L801.075,1599.6L801.086,1599.57L801.097,1599.54L801.108,1599.51L801.118,1599.48L801.129,1599.45L801.139,1599.42L801.15,1599.39L801.16,1599.36L801.17,1599.33L801.18,1599.3L801.19,1599.27L801.2,1599.24L801.21,1599.21L801.22,1599.18L801.229,1599.15L801.239,1599.12L801.248,1599.09L801.258,1599.06L801.267,1599.03L801.276,1599L801.285,1598.97L801.294,1598.93L801.303,1598.9L801.312,1598.87L801.32,1598.84L801.329,1598.81L801.337,1598.78L801.346,1598.75L801.354,1598.72L801.362,1598.69L801.37,1598.66L801.378,1598.63L801.386,1598.6L801.394,1598.56L801.402,1598.53L801.41,1598.5L801.417,1598.47L801.425,1598.44L801.432,1598.41L801.439,1598.38L801.446,1598.34L801.453,1598.31L801.46,1598.28L801.467,1598.25L801.474,1598.22L801.481,1598.19L801.487,1598.15L801.494,1598.12L801.5,1598.09L801.506,1598.06L801.512,1598.03L801.519,1598L801.525,1597.96L801.53,1597.93L801.536,1597.9L801.542,1597.87L801.548,1597.84L801.553,1597.8L801.558,1597.77L801.564,1597.74L801.569,1597.71L801.574,1597.68L801.579,1597.64L801.584,1597.61L801.589,1597.58L801.593,1597.55L801.598,1597.52L801.602,1597.48L801.607,1597.45L801.611,1597.42L801.615,1597.38L801.619,1597.35L801.623,1597.32L801.627,1597.29L801.631,1597.26L801.635,1597.22L801.638,1597.19L801.642,1597.16L801.645,1597.12L801.648,1597.09L801.652,1597.06L801.655,1597.03L801.658,1596.99L801.66,1596.96L801.663,1596.93L801.666,1596.89L801.668,1596.86L801.671,1596.83L801.673,1596.8L801.675,1596.76L801.678,1596.73L801.68,1596.7L801.681,1596.66L801.683,1596.63L801.685,1596.6L801.687,1596.56L801.688,1596.53L801.69,1596.5L801.691,1596.46L801.692,1596.43L801.693,1596.4L801.694,1596.36L801.695,1596.33L801.696,1596.3L801.696,1596.26L801.697,1596.23L801.697,1596.19L801.698,1596.16L801.698,1596.13L801.698,1596.09L801.698,1596.06L801.698,1596.03L801.698,1595.99L801.697,1595.96L801.697,1595.93L801.696,1595.89L801.696,1595.86L801.695,1595.83L801.694,1595.79L801.693,1595.76L801.692,1595.72L801.691,1595.69L801.69,1595.66L801.688,1595.62L801.687,1595.59L801.685,1595.56L801.683,1595.52L801.682,1595.49L801.68,1595.46L801.678,1595.42L801.675,1595.39L801.673,1595.36L801.671,1595.32L801.668,1595.29L801.666,1595.26L801.663,1595.23L801.661,1595.19L801.658,1595.16L801.655,1595.13L801.652,1595.09L801.648,1595.06L801.645,1595.03L801.642,1595L801.638,1594.96L801.635,1594.93L801.631,1594.9L801.627,1594.86L801.623,1594.83L801.619,1594.8L801.615,1594.77L801.611,1594.73L801.607,1594.7L801.602,1594.67L801.598,1594.64L801.593,1594.6L801.589,1594.57L801.584,1594.54L801.579,1594.51L801.574,1594.48L801.569,1594.44L801.564,1594.41L801.558,1594.38L801.553,1594.35L801.548,1594.32L801.542,1594.28L801.536,1594.25L801.53,1594.22L801.525,1594.19L801.519,1594.15L801.513,1594.12L801.506,1594.09L801.5,1594.06L801.494,1594.03L801.487,1594L801.481,1593.97L801.474,1593.93L801.467,1593.9L801.46,1593.87L801.453,1593.84L801.446,1593.81L801.439,1593.78L801.432,1593.75L801.425,1593.71L801.417,1593.68L801.41,1593.65L801.402,1593.62L801.394,1593.59L801.387,1593.56L801.379,1593.53L801.371,1593.5L801.363,1593.46L801.354,1593.43L801.346,1593.4L801.338,1593.37L801.329,1593.34L801.321,1593.31L801.312,1593.28L801.303,1593.25L801.294,1593.22L801.285,1593.19L801.276,1593.16L801.267,1593.13L801.258,1593.1L801.249,1593.07L801.239,1593.03L801.23,1593L801.22,1592.97L801.211,1592.94L801.201,1592.91L801.191,1592.88L801.181,1592.85L801.171,1592.82L801.161,1592.79L801.151,1592.76L801.14,1592.73L801.13,1592.7L801.119,1592.67L801.109,1592.64L801.098,1592.61L801.087,1592.58L801.076,1592.55L801.065,1592.52L801.054,1592.49L801.043,1592.46L801.032,1592.43L801.021,1592.4L801.009,1592.37L800.998,1592.35L800.986,1592.32L800.975,1592.29L800.963,1592.26L800.951,1592.23L800.939,1592.2L800.927,1592.17L800.915,1592.14L800.903,1592.11L800.89,1592.08L800.878,1592.05L800.865,1592.02L800.853,1591.99L800.84,1591.97L800.828,1591.94L800.815,1591.91L800.802,1591.88L800.789,1591.85L800.776,1591.82L800.763,1591.79L800.756,1591.78L800.749,1591.76L800.736,1591.74L800.723,1591.71L800.709,1591.68L800.696,1591.65L800.682,1591.62L800.669,1591.59L800.655,1591.56L800.641,1591.54L800.627,1591.51L800.613,1591.48L800.599,1591.45L800.585,1591.42L800.571,1591.39L800.556,1591.37L800.542,1591.34L800.527,1591.31L800.513,1591.28L800.498,1591.26L800.483,1591.23L800.468,1591.2L800.454,1591.17L800.439,1591.14L800.423,1591.12L800.408,1591.09L800.393,1591.06L800.378,1591.03L800.362,1591.01L800.347,1590.98L800.331,1590.95L800.315,1590.92L800.3,1590.9L800.284,1590.87L800.268,1590.84L800.252,1590.82L800.236,1590.79L800.22,1590.76L800.203,1590.74L800.187,1590.71L800.171,1590.68L800.154,1590.65L800.138,1590.63L800.121,1590.6L800.104,1590.58L800.087,1590.55L800.07,1590.52L800.053,1590.5L800.036,1590.47L800.019,1590.44L800.002,1590.42L799.985,1590.39L799.967,1590.36L799.95,1590.34L799.932,1590.31L799.915,1590.29L799.897,1590.26L799.879,1590.23L799.862,1590.21L799.844,1590.18L799.826,1590.16L799.808,1590.13L799.789,1590.11L799.771,1590.08L799.753,1590.05L799.735,1590.03L799.716,1590L799.698,1589.98L799.679,1589.95L799.66,1589.93L799.641,1589.9L799.623,1589.88L799.604,1589.85L799.585,1589.83L799.566,1589.8L799.547,1589.78L799.527,1589.75L799.508,1589.73L799.489,1589.7L799.469,1589.68L799.45,1589.65L799.43,1589.63L799.411,1589.6L799.391,1589.58L799.371,1589.56L799.351,1589.53L799.331,1589.51L799.311,1589.48L799.291,1589.46L799.271,1589.43L799.251,1589.41L799.23,1589.39L799.21,1589.36L799.189,1589.34L799.169,1589.32L799.148,1589.29L799.128,1589.27L799.107,1589.24L799.086,1589.22L799.065,1589.2L799.044,1589.17L799.023,1589.15L799.002,1589.13L798.981,1589.1L798.96,1589.08L798.938,1589.06L798.917,1589.03L798.895,1589.01L798.874,1588.99L798.852,1588.97L798.831,1588.94L798.809,1588.92L798.787,1588.9L798.765,1588.87L798.743,1588.85L798.721,1588.83L798.699,1588.81L798.677,1588.78L798.655,1588.76L798.633,1588.74L798.61,1588.72L798.588,1588.7L798.565,1588.67L798.543,1588.65L798.52,1588.63L798.498,1588.61L798.475,1588.59L798.452,1588.56L798.429,1588.54L798.406,1588.52L798.383,1588.5L798.36,1588.48L798.337,1588.46L798.314,1588.43L798.291,1588.41L798.267,1588.39L798.244,1588.37L798.22,1588.35L798.197,1588.33L798.173,1588.31L798.15,1588.29L798.126,1588.27L798.102,1588.25L798.078,1588.23L798.054,1588.21L798.03,1588.18L798.006,1588.16L797.982,1588.14L797.958,1588.12L797.934,1588.1L797.91,1588.08L797.885,1588.06L797.861,1588.04L797.836,1588.02L797.812,1588L797.787,1587.98L797.762,1587.96L797.738,1587.94L797.713,1587.92L797.688,1587.91L797.663,1587.89L797.638,1587.87L797.613,1587.85L797.588,1587.83L797.563,1587.81L797.538,1587.79L797.513,1587.77L797.487,1587.75L797.462,1587.73L797.437,1587.72L797.411,1587.7L797.385,1587.68L797.36,1587.66L797.334,1587.64L797.308,1587.62L797.283,1587.6L797.257,1587.59L797.231,1587.57L797.205,1587.55L797.179,1587.53L797.153,1587.51L797.127,1587.5L797.101,1587.48L797.074,1587.46L797.048,1587.44L797.022,1587.42L796.995,1587.41L796.969,1587.39L796.942,1587.37L796.916,1587.36L796.889,1587.34L796.863,1587.32L796.836,1587.3L796.809,1587.29L796.782,1587.27L796.755,1587.25L796.728,1587.24L796.701,1587.22L796.674,1587.2L796.647,1587.19L796.62,1587.17L796.593,1587.15L796.566,1587.14L796.538,1587.12L796.511,1587.11L796.483,1587.09L796.456,1587.07L796.428,1587.06L796.401,1587.04L796.373,1587.03L796.346,1587.01L796.318,1587L796.29,1586.98L796.262,1586.97L796.234,1586.95L796.206,1586.93L796.178,1586.92L796.15,1586.9L796.122,1586.89L796.094,1586.87L796.066,1586.86L796.038,1586.85L796.009,1586.83L795.981,1586.82L795.953,1586.8L795.924,1586.79L795.896,1586.77L795.867,1586.76L795.839,1586.74L795.81,1586.73L795.781,1586.72L795.753,1586.7L795.724,1586.69L795.695,1586.67L795.666,1586.66L795.637,1586.65L795.608,1586.63L795.579,1586.62L795.55,1586.61L795.521,1586.6L795.492,1586.58L795.463,1586.57L795.434,1586.56L795.404,1586.54L795.375,1586.53L795.346,1586.52L795.316,1586.51L795.287,1586.49L795.257,1586.48L795.228,1586.47L795.198,1586.45L795.168,1586.44L795.139,1586.43L795.109,1586.42L795.079,1586.41L795.049,1586.39L795.019,1586.38L794.99,1586.37L794.96,1586.36L794.93,1586.35L794.9,1586.34L794.869,1586.33L794.839,1586.32L794.809,1586.3L794.779,1586.29L794.749,1586.28L794.718,1586.27L794.688,1586.26L794.658,1586.25L794.627,1586.24L794.597,1586.23L794.566,1586.22L794.536,1586.21L794.505,1586.2L794.474,1586.19L794.444,1586.18L794.413,1586.17L794.382,1586.16L794.351,1586.15L794.321,1586.14L794.29,1586.13L794.259,1586.12L794.228,1586.11L794.197,1586.1L794.166,1586.09L794.135,1586.08L794.104,1586.07L794.072,1586.06L794.041,1586.06L794.01,1586.05L793.979,1586.04L793.947,1586.03L793.916,1586.02L793.885,1586.01L793.853,1586L793.822,1586L793.79,1585.99L793.759,1585.98L793.727,1585.97L793.695,1585.96L793.664,1585.96L793.632,1585.95L793.6,1585.94L793.569,1585.93L793.537,1585.93L793.505,1585.92L793.473,1585.91L793.441,1585.9L793.409,1585.9L793.377,1585.89L793.345,1585.88L793.313,1585.88L793.281,1585.87L793.249,1585.86L793.216,1585.86L793.184,1585.85L793.152,1585.85L793.12,1585.84L793.087,1585.83L793.055,1585.83L793.023,1585.82L792.99,1585.82L792.958,1585.81L792.925,1585.81L792.893,1585.8L792.86,1585.79L792.827,1585.79L792.795,1585.78L792.762,1585.78L792.729,1585.77L792.696,1585.77L792.664,1585.76L792.631,1585.76L792.598,1585.76L792.565,1585.75L792.532,1585.75L792.499,1585.74L792.466,1585.74L792.433,1585.73L792.4,1585.73L792.367,1585.73L792.334,1585.72L792.301,1585.72L792.267,1585.72L792.234,1585.71L792.201,1585.71L792.168,1585.7L792.134,1585.7L792.101,1585.7L792.067,1585.7L792.034,1585.69L792,1585.69L791.967,1585.69L791.933,1585.68L791.9,1585.68L791.866,1585.68L791.833,1585.68L791.799,1585.68L791.765,1585.67L791.731,1585.67L791.698,1585.67L791.664,1585.67L791.63,1585.67L791.596,1585.66L791.562,1585.66L791.528,1585.66L791.494,1585.66L791.46,1585.66L791.426,1585.66L791.414,1585.66L791.392,1585.66L791.358,1585.66L791.324,1585.66L791.29,1585.66L791.256,1585.66L791.221,1585.66L791.187,1585.66L791.153,1585.66L791.118,1585.66L791.079,1585.66L791.084,1582.32L791.129,1582.32Z" style="fill:rgb(201,211,223);"/>
            <ellipse cx="791.084" cy="1595.99" rx="13.855" ry="13.671" style="fill:rgb(119,153,205);"/>
            <clipPath id="_clip2">
                <ellipse cx="791.084" cy="1595.99" rx="13.855" ry="13.671"/>
            </clipPath>
            <g clip-path="url(#_clip2)">
                <g transform="matrix(1,0,0,0.536071,-2669.9,810.305)">
                    <path d="M3499.77,1494.61L3461.1,1494.61L3461.1,1438.55L3499.77,1438.55L3499.77,1494.61ZM3463.63,1468.98L3463.57,1489.99L3464.9,1490.01L3477.14,1490.18L3488.07,1490.41L3497.07,1490.69L3497.69,1490.73L3497.85,1482.19L3498.12,1472.83L3498.83,1455.9L3499.48,1443.54L3499.13,1443.54L3476.24,1443.45L3463.68,1443.38L3463.63,1468.98Z" style="fill:rgb(201,211,223);"/>
                    <rect x="3461.1" y="1438.55" width="38.673" height="56.055" style="fill:rgb(76,117,178);"/>
                </g>
            </g>
        </g>
        <g transform="matrix(0.453678,0,0,0.478067,3940.05,-558.006)">
            <circle cx="713.578" cy="4421.95" r="13.165" style="fill:rgb(38,45,56);"/>
        </g>
    </g>
</svg>
