<?xml version="1.0" encoding="UTF-8" standalone="no"?>
<!DOCTYPE svg PUBLIC "-//W3C//DTD SVG 1.1//EN" "http://www.w3.org/Graphics/SVG/1.1/DTD/svg11.dtd">
<svg width="100%" height="100%" viewBox="0 0 512 512" version="1.1" xmlns="http://www.w3.org/2000/svg" xmlns:xlink="http://www.w3.org/1999/xlink" xml:space="preserve" xmlns:serif="http://www.serif.com/" style="fill-rule:evenodd;clip-rule:evenodd;stroke-linejoin:round;stroke-miterlimit:2;">
    <g id="FeatherIcon" transform="matrix(17.6174,0,0,17.6174,-590.865,-3520.22)">
        <g transform="matrix(0.986031,0.166562,-0.166562,0.986031,36.7746,-4.46814)">
            <path d="M42.695,220.745L40.833,220.745C40.247,223.237 40.306,225.679 40.717,228.095C40.78,228.461 41.097,228.729 41.468,228.729C41.57,228.729 41.678,228.729 41.785,228.729C42.009,228.729 42.221,228.631 42.366,228.46C42.511,228.29 42.573,228.065 42.538,227.844C42.125,225.284 42.121,222.894 42.695,220.745Z" style="fill:rgb(162,173,186);"/>
            <clipPath id="_clip1">
                <path d="M42.695,220.745L40.833,220.745C40.247,223.237 40.306,225.679 40.717,228.095C40.78,228.461 41.097,228.729 41.468,228.729C41.57,228.729 41.678,228.729 41.785,228.729C42.009,228.729 42.221,228.631 42.366,228.46C42.511,228.29 42.573,228.065 42.538,227.844C42.125,225.284 42.121,222.894 42.695,220.745Z"/>
            </clipPath>
            <g clip-path="url(#_clip1)">
                <g transform="matrix(1,0,0,1,0.750309,0.226139)">
                    <path d="M42.695,220.745L40.833,220.745C40.247,223.237 40.306,225.679 40.717,228.095C40.78,228.461 41.097,228.729 41.468,228.729C41.57,228.729 41.678,228.729 41.785,228.729C42.009,228.729 42.221,228.631 42.366,228.46C42.511,228.29 42.573,228.065 42.538,227.844C42.125,225.284 42.121,222.894 42.695,220.745Z" style="fill:rgb(126,141,159);"/>
                </g>
            </g>
        </g>
        <path d="M46.502,207.085C46.502,207.085 51.129,196.196 57.589,202.453C62.062,206.785 49.202,209.937 49.202,209.937C50.103,211.077 54.369,211.276 55.271,211.03C53.613,213.761 50.166,215.926 45.263,216.191C46.289,217.682 49.666,218.149 51.047,217.877C49.1,221.558 44.68,222.855 40.353,222.233C37.919,220.232 36.534,216.677 38.635,210.082C38.896,212.083 39.596,214.107 40.862,214.805C39.977,209.319 42.248,202.713 47.734,200.934C46.249,202.798 46.157,206.359 46.502,207.085Z" style="fill:rgb(112,166,236);"/>
        <clipPath id="_clip2">
            <path d="M46.502,207.085C46.502,207.085 51.129,196.196 57.589,202.453C62.062,206.785 49.202,209.937 49.202,209.937C50.103,211.077 54.369,211.276 55.271,211.03C53.613,213.761 50.166,215.926 45.263,216.191C46.289,217.682 49.666,218.149 51.047,217.877C49.1,221.558 44.68,222.855 40.353,222.233C37.919,220.232 36.534,216.677 38.635,210.082C38.896,212.083 39.596,214.107 40.862,214.805C39.977,209.319 42.248,202.713 47.734,200.934C46.249,202.798 46.157,206.359 46.502,207.085Z"/>
        </clipPath>
        <g clip-path="url(#_clip2)">
            <g transform="matrix(0.32049,0,0,0.32049,-474.147,-115.154)">
                <path d="M1659.91,986.658C1636.15,994.243 1614.04,1020.5 1604.66,1054.83L1648.29,1064.19L1679.52,998.806L1659.91,986.658Z" style="fill:rgb(77,138,208);"/>
            </g>
        </g>
    </g>
</svg>
