<?xml version="1.0" encoding="UTF-8" standalone="no"?>
<!DOCTYPE svg PUBLIC "-//W3C//DTD SVG 1.1//EN" "http://www.w3.org/Graphics/SVG/1.1/DTD/svg11.dtd">
<svg width="100%" height="100%" viewBox="0 0 512 512" version="1.1" xmlns="http://www.w3.org/2000/svg" xmlns:xlink="http://www.w3.org/1999/xlink" xml:space="preserve" xmlns:serif="http://www.serif.com/" style="fill-rule:evenodd;clip-rule:evenodd;stroke-linejoin:round;stroke-miterlimit:2;">
    <g id="FireplaceIcon" transform="matrix(4.17013,0,0,3.95739,-17713.8,-2649.7)">
        <g transform="matrix(0.63046,0,0,0.63046,1593.49,290.653)">
            <g transform="matrix(1.51951,0,0,1.6012,3154.24,-5077.83)">
                <path d="M786.992,3652.2L787.119,3652.2L787.119,3652.2C792.378,3652.27 796.627,3656.56 796.627,3661.84C796.627,3667.13 792.378,3671.42 787.119,3671.49L787.119,3671.49L730.892,3671.49L730.892,3652.2L786.992,3652.2Z" style="fill:rgb(157,90,55);"/>
                <clipPath id="_clip1">
                    <path d="M786.992,3652.2L787.119,3652.2L787.119,3652.2C792.378,3652.27 796.627,3656.56 796.627,3661.84C796.627,3667.13 792.378,3671.42 787.119,3671.49L787.119,3671.49L730.892,3671.49L730.892,3652.2L786.992,3652.2Z"/>
                </clipPath>
                <g clip-path="url(#_clip1)">
                    <rect x="703.214" y="3641.4" width="115.829" height="21.38" style="fill:rgb(187,120,86);fill-opacity:0.35;"/>
                </g>
            </g>
            <g transform="matrix(0.957992,0,0,1.01064,3582.13,-2915.53)">
                <circle cx="712.649" cy="3662.08" r="15.283" style="fill:rgb(199,132,74);"/>
            </g>
        </g>
        <g transform="matrix(-0.63046,0,0,0.63046,7024.87,271.297)">
            <g transform="matrix(1.51951,0,0,1.6012,3154.24,-5077.83)">
                <path d="M786.992,3652.2L787.119,3652.2L787.119,3652.2C792.378,3652.27 796.627,3656.56 796.627,3661.84C796.627,3667.13 792.378,3671.42 787.119,3671.49L787.119,3671.49L730.892,3671.49L730.892,3652.2L786.992,3652.2Z" style="fill:rgb(157,90,55);"/>
                <clipPath id="_clip2">
                    <path d="M786.992,3652.2L787.119,3652.2L787.119,3652.2C792.378,3652.27 796.627,3656.56 796.627,3661.84C796.627,3667.13 792.378,3671.42 787.119,3671.49L787.119,3671.49L730.892,3671.49L730.892,3652.2L786.992,3652.2Z"/>
                </clipPath>
                <g clip-path="url(#_clip2)">
                    <rect x="703.214" y="3641.4" width="115.829" height="21.38" style="fill:rgb(187,120,86);fill-opacity:0.35;"/>
                </g>
            </g>
            <g transform="matrix(0.957992,0,0,1.01064,3582.13,-2915.53)">
                <circle cx="712.649" cy="3662.08" r="15.283" style="fill:rgb(199,132,74);"/>
            </g>
        </g>
        <g transform="matrix(0.999223,0,0,1.00949,3548.26,-2923.24)">
            <path d="M756.39,3562.3C774.651,3569.89 776.46,3590.51 776.46,3590.51C776.46,3590.51 780.246,3586.34 778.752,3576.66C787.483,3586.11 796.566,3599.47 793.275,3615.03C790.263,3629.28 778.551,3640.61 760.953,3640.61C743.356,3640.61 729.302,3628.76 729.069,3614.18C728.885,3602.65 738.11,3592.72 739.204,3584.37C743.44,3588.39 742.486,3596.91 742.486,3596.91C742.486,3596.91 756.182,3585.35 756.39,3562.3Z" style="fill:rgb(255,96,93);"/>
            <clipPath id="_clip3">
                <path d="M756.39,3562.3C774.651,3569.89 776.46,3590.51 776.46,3590.51C776.46,3590.51 780.246,3586.34 778.752,3576.66C787.483,3586.11 796.566,3599.47 793.275,3615.03C790.263,3629.28 778.551,3640.61 760.953,3640.61C743.356,3640.61 729.302,3628.76 729.069,3614.18C728.885,3602.65 738.11,3592.72 739.204,3584.37C743.44,3588.39 742.486,3596.91 742.486,3596.91C742.486,3596.91 756.182,3585.35 756.39,3562.3Z"/>
            </clipPath>
            <g clip-path="url(#_clip3)">
                <g transform="matrix(0.958736,0,0,1,32.0619,0)">
                    <path d="M761.978,3593.41C776.735,3603.41 782.404,3617.99 773.485,3639.25C762.909,3644.38 755.249,3642.24 746.26,3639.48C736.394,3615.76 752.61,3618.23 752.848,3603.22C756.956,3608.63 755.378,3614.25 755.378,3614.25C755.378,3614.25 764.023,3607.2 761.978,3593.41Z" style="fill:rgb(255,156,70);"/>
                </g>
            </g>
        </g>
    </g>
</svg>
