<?xml version="1.0" encoding="UTF-8" standalone="no"?>
<!DOCTYPE svg PUBLIC "-//W3C//DTD SVG 1.1//EN" "http://www.w3.org/Graphics/SVG/1.1/DTD/svg11.dtd">
<svg width="100%" height="100%" viewBox="0 0 512 512" version="1.1" xmlns="http://www.w3.org/2000/svg" xmlns:xlink="http://www.w3.org/1999/xlink" xml:space="preserve" xmlns:serif="http://www.serif.com/" style="fill-rule:evenodd;clip-rule:evenodd;stroke-linejoin:round;stroke-miterlimit:2;">
    <g id="FistIcon" transform="matrix(3.1283,0,0,3.1283,-1665.6,-1024.6)">
        <g>
            <path d="M587.934,401.25L586.931,375.367C586.716,369.813 591.051,365.129 596.605,364.913C600.969,364.744 604.796,367.384 606.34,371.217C608.107,368.31 611.305,366.366 614.953,366.366C618.843,366.366 622.22,368.576 623.898,371.808C625.717,370.015 628.214,368.908 630.967,368.908C635.559,368.908 639.437,371.987 640.647,376.191C642.309,375.221 644.267,374.715 646.33,374.842C651.879,375.182 656.107,379.963 655.766,385.511L651.641,452.757L631.536,451.524L631.585,450.722L625.024,450.722L625.024,451.425L612.413,451.425L612.413,451.838L592.27,451.838L592.27,438.191C584.904,426.948 574.392,410.101 571.574,401.382C569.938,396.32 570.517,388.603 575.362,385.879C578.441,384.148 581.775,383.67 584.693,385.191C585.587,385.657 587.934,401.25 587.934,401.25Z" style="fill:rgb(255,219,169);"/>
            <clipPath id="_clip1">
                <path d="M587.934,401.25L586.931,375.367C586.716,369.813 591.051,365.129 596.605,364.913C600.969,364.744 604.796,367.384 606.34,371.217C608.107,368.31 611.305,366.366 614.953,366.366C618.843,366.366 622.22,368.576 623.898,371.808C625.717,370.015 628.214,368.908 630.967,368.908C635.559,368.908 639.437,371.987 640.647,376.191C642.309,375.221 644.267,374.715 646.33,374.842C651.879,375.182 656.107,379.963 655.766,385.511L651.641,452.757L631.536,451.524L631.585,450.722L625.024,450.722L625.024,451.425L612.413,451.425L612.413,451.838L592.27,451.838L592.27,438.191C584.904,426.948 574.392,410.101 571.574,401.382C569.938,396.32 570.517,388.603 575.362,385.879C578.441,384.148 581.775,383.67 584.693,385.191C585.587,385.657 587.934,401.25 587.934,401.25Z"/>
            </clipPath>
            <g clip-path="url(#_clip1)">
                <g transform="matrix(1,0,0,1,9.12185,0)">
                    <rect x="613.634" y="349.859" width="62.125" height="128.016" style="fill:rgb(241,189,121);"/>
                </g>
            </g>
        </g>
        <g transform="matrix(0.874822,0,0,0.66957,73.9129,151.05)">
            <path d="M667.409,448.687C667.409,445.45 665.398,442.822 662.921,442.822L590.568,442.822C588.091,442.822 586.08,445.45 586.08,448.687L586.08,495.602C586.08,498.839 588.091,501.467 590.568,501.467L662.921,501.467C665.398,501.467 667.409,498.839 667.409,495.602L667.409,448.687Z" style="fill:rgb(123,156,227);"/>
            <clipPath id="_clip2">
                <path d="M667.409,448.687C667.409,445.45 665.398,442.822 662.921,442.822L590.568,442.822C588.091,442.822 586.08,445.45 586.08,448.687L586.08,495.602C586.08,498.839 588.091,501.467 590.568,501.467L662.921,501.467C665.398,501.467 667.409,498.839 667.409,495.602L667.409,448.687Z"/>
            </clipPath>
            <g clip-path="url(#_clip2)">
                <g transform="matrix(0.948527,0,0,1.13488,36.6762,-51.9263)">
                    <rect x="622.755" y="433.834" width="44.463" height="76.672" style="fill:rgb(89,116,169);"/>
                </g>
            </g>
        </g>
        <g transform="matrix(1,0,0,1,-2.21648,0.818396)">
            <circle cx="643.311" cy="466.365" r="6.745" style="fill:rgb(71,92,137);"/>
        </g>
        <g>
            <g transform="matrix(0.866025,-0.5,0.5,0.866025,-100.645,344.868)">
                <path d="M593.908,342.508C593.908,340.629 592.382,339.103 590.502,339.103C588.622,339.103 587.096,340.629 587.096,342.508L587.096,355.093C587.096,356.973 588.622,358.499 590.502,358.499C592.382,358.499 593.908,356.973 593.908,355.093L593.908,342.508Z" style="fill:rgb(249,197,3);"/>
            </g>
            <g transform="matrix(-0.866025,-0.5,-0.5,0.866025,1333.98,344.868)">
                <path d="M593.908,342.508C593.908,340.629 592.382,339.103 590.502,339.103C588.622,339.103 587.096,340.629 587.096,342.508L587.096,355.093C587.096,356.973 588.622,358.499 590.502,358.499C592.382,358.499 593.908,356.973 593.908,355.093L593.908,342.508Z" style="fill:rgb(249,197,3);"/>
            </g>
            <g transform="matrix(1,0,0,1,26.1645,-7.20476)">
                <path d="M593.908,342.508C593.908,340.629 592.382,339.103 590.502,339.103C588.622,339.103 587.096,340.629 587.096,342.508L587.096,355.093C587.096,356.973 588.622,358.499 590.502,358.499C592.382,358.499 593.908,356.973 593.908,355.093L593.908,342.508Z" style="fill:rgb(249,197,3);"/>
            </g>
        </g>
    </g>
</svg>
