<?xml version="1.0" encoding="UTF-8" standalone="no"?>
<!DOCTYPE svg PUBLIC "-//W3C//DTD SVG 1.1//EN" "http://www.w3.org/Graphics/SVG/1.1/DTD/svg11.dtd">
<svg width="100%" height="100%" viewBox="0 0 512 512" version="1.1" xmlns="http://www.w3.org/2000/svg" xmlns:xlink="http://www.w3.org/1999/xlink" xml:space="preserve" xmlns:serif="http://www.serif.com/" style="fill-rule:evenodd;clip-rule:evenodd;stroke-linejoin:round;stroke-miterlimit:2;">
    <g id="FlameIcon" transform="matrix(4.26627,0,0,4.04863,-20202.2,-5688.16)">
        <g id="Fire" transform="matrix(1.06359,0,0,1.09945,3985.41,-2509.79)">
            <path d="M756.39,3562.3C774.651,3569.89 776.46,3590.51 776.46,3590.51C776.46,3590.51 780.246,3586.34 778.752,3576.66C787.483,3586.11 796.566,3599.47 793.275,3615.03C790.263,3629.28 778.551,3640.61 760.953,3640.61C743.356,3640.61 729.302,3628.76 729.069,3614.18C728.885,3602.65 738.11,3592.72 739.204,3584.37C743.44,3588.39 742.486,3596.91 742.486,3596.91C742.486,3596.91 756.182,3585.35 756.39,3562.3Z" style="fill:rgb(255,205,124);"/>
            <clipPath id="_clip1">
                <path d="M756.39,3562.3C774.651,3569.89 776.46,3590.51 776.46,3590.51C776.46,3590.51 780.246,3586.34 778.752,3576.66C787.483,3586.11 796.566,3599.47 793.275,3615.03C790.263,3629.28 778.551,3640.61 760.953,3640.61C743.356,3640.61 729.302,3628.76 729.069,3614.18C728.885,3602.65 738.11,3592.72 739.204,3584.37C743.44,3588.39 742.486,3596.91 742.486,3596.91C742.486,3596.91 756.182,3585.35 756.39,3562.3Z"/>
            </clipPath>
            <g clip-path="url(#_clip1)">
                <g transform="matrix(0.958736,0,0,1,32.0619,0)">
                    <path d="M761.978,3593.41C776.735,3603.41 782.404,3617.99 773.485,3639.25C762.909,3644.38 755.249,3642.24 746.26,3639.48C736.394,3615.76 752.61,3618.23 752.848,3603.22C756.956,3608.63 755.378,3614.25 755.378,3614.25C755.378,3614.25 764.023,3607.2 761.978,3593.41Z" style="fill:rgb(249,112,130);"/>
                </g>
            </g>
        </g>
        <g transform="matrix(0.851814,0,0,0.498336,-11896.4,-794.5)">
            <path d="M19624.6,4662.41C19624.7,4662.71 19624.6,4663.05 19624.5,4663.3C19624.4,4663.56 19624.3,4663.71 19624.1,4663.71C19617.7,4663.71 19573.3,4663.71 19567,4663.71C19566.8,4663.71 19566.6,4663.56 19566.5,4663.3C19566.4,4663.05 19566.4,4662.71 19566.4,4662.41C19568.2,4653.02 19578.6,4596.06 19578.6,4596.06L19612.4,4596.06C19612.4,4596.06 19622.9,4653.02 19624.6,4662.41Z" style="fill:rgb(153,159,169);"/>
            <clipPath id="_clip2">
                <path d="M19624.6,4662.41C19624.7,4662.71 19624.6,4663.05 19624.5,4663.3C19624.4,4663.56 19624.3,4663.71 19624.1,4663.71C19617.7,4663.71 19573.3,4663.71 19567,4663.71C19566.8,4663.71 19566.6,4663.56 19566.5,4663.3C19566.4,4663.05 19566.4,4662.71 19566.4,4662.41C19568.2,4653.02 19578.6,4596.06 19578.6,4596.06L19612.4,4596.06C19612.4,4596.06 19622.9,4653.02 19624.6,4662.41Z"/>
            </clipPath>
            <g clip-path="url(#_clip2)">
                <g transform="matrix(1.12465,0,0,1.41538,-2466.44,-2185.7)">
                    <rect x="19616.8" y="4787.49" width="32.265" height="54.793" style="fill:rgb(116,124,138);"/>
                </g>
            </g>
        </g>
        <g transform="matrix(0.488162,0,0,0.355846,-4779.2,-210.966)">
            <path d="M19653.7,4791.1C19653.7,4784.74 19650.1,4779.58 19645.7,4779.58L19581.2,4779.58C19576.8,4779.58 19573.2,4784.74 19573.2,4791.1L19573.2,4793.15C19573.2,4799.51 19576.8,4804.67 19581.2,4804.67L19645.7,4804.67C19650.1,4804.67 19653.7,4799.51 19653.7,4793.15L19653.7,4791.1Z" style="fill:rgb(153,159,169);"/>
            <clipPath id="_clip3">
                <path d="M19653.7,4791.1C19653.7,4784.74 19650.1,4779.58 19645.7,4779.58L19581.2,4779.58C19576.8,4779.58 19573.2,4784.74 19573.2,4791.1L19573.2,4793.15C19573.2,4799.51 19576.8,4804.67 19581.2,4804.67L19645.7,4804.67C19650.1,4804.67 19653.7,4799.51 19653.7,4793.15L19653.7,4791.1Z"/>
            </clipPath>
            <g clip-path="url(#_clip3)">
                <g transform="matrix(1.96244,0,0,0.584581,-18883.3,1978.51)">
                    <rect x="19616.8" y="4787.49" width="32.265" height="54.793" style="fill:rgb(116,124,138);"/>
                </g>
            </g>
        </g>
    </g>
</svg>
