<?xml version="1.0" encoding="UTF-8" standalone="no"?>
<!DOCTYPE svg PUBLIC "-//W3C//DTD SVG 1.1//EN" "http://www.w3.org/Graphics/SVG/1.1/DTD/svg11.dtd">
<svg width="100%" height="100%" viewBox="0 0 512 512" version="1.1" xmlns="http://www.w3.org/2000/svg" xmlns:xlink="http://www.w3.org/1999/xlink" xml:space="preserve" xmlns:serif="http://www.serif.com/" style="fill-rule:evenodd;clip-rule:evenodd;stroke-linejoin:round;stroke-miterlimit:2;">
    <g id="GemFantasyRedIcon" transform="matrix(5.31283,0,0,4.56001,-5627.29,-3247.28)">
        <g transform="matrix(1,0,0,1,-112.733,-54.3973)">
            <path d="M1180.1,854.86C1178.16,852.927 1177.05,850.107 1177.05,847.139C1177.05,836.213 1177.05,809.103 1177.05,798.176C1177.05,795.208 1178.16,792.389 1180.1,790.456C1185.15,785.397 1195.19,775.359 1199.83,770.722C1201.41,769.138 1203.43,768.268 1205.52,768.268C1212.29,768.268 1227.92,768.268 1234.7,768.268C1236.78,768.268 1238.8,769.138 1240.38,770.722C1245.02,775.359 1255.06,785.397 1260.12,790.456C1262.05,792.389 1263.16,795.208 1263.16,798.176C1263.16,809.103 1263.16,836.213 1263.16,847.139C1263.16,850.107 1262.05,852.927 1260.12,854.86C1255.06,859.919 1245.02,869.957 1240.38,874.594C1238.8,876.177 1236.78,877.048 1234.7,877.048C1227.92,877.048 1212.29,877.048 1205.52,877.048C1203.43,877.048 1201.41,876.177 1199.83,874.594C1195.19,869.957 1185.15,859.919 1180.1,854.86Z" style="fill:rgb(240,73,117);"/>
            <clipPath id="_clip1">
                <path d="M1180.1,854.86C1178.16,852.927 1177.05,850.107 1177.05,847.139C1177.05,836.213 1177.05,809.103 1177.05,798.176C1177.05,795.208 1178.16,792.389 1180.1,790.456C1185.15,785.397 1195.19,775.359 1199.83,770.722C1201.41,769.138 1203.43,768.268 1205.52,768.268C1212.29,768.268 1227.92,768.268 1234.7,768.268C1236.78,768.268 1238.8,769.138 1240.38,770.722C1245.02,775.359 1255.06,785.397 1260.12,790.456C1262.05,792.389 1263.16,795.208 1263.16,798.176C1263.16,809.103 1263.16,836.213 1263.16,847.139C1263.16,850.107 1262.05,852.927 1260.12,854.86C1255.06,859.919 1245.02,869.957 1240.38,874.594C1238.8,876.177 1236.78,877.048 1234.7,877.048C1227.92,877.048 1212.29,877.048 1205.52,877.048C1203.43,877.048 1201.41,876.177 1199.83,874.594C1195.19,869.957 1185.15,859.919 1180.1,854.86Z"/>
            </clipPath>
            <g clip-path="url(#_clip1)">
                <g transform="matrix(0.845238,-0.845238,-0.682083,-0.682083,759.15,2218.42)">
                    <path d="M1105.01,698.834L1122.62,743.2L1088.32,743.339L1095.47,702.184L1105.01,698.834Z" style="fill:rgb(221,54,99);"/>
                </g>
                <g transform="matrix(1,0,0,1,112.733,54.3973)">
                    <rect x="1128.17" y="738.225" width="43.001" height="63.699" style="fill:rgb(239,62,109);"/>
                </g>
                <g transform="matrix(1.1618,6.02456e-18,6.02456e-18,1.211,-63.9105,-18.5123)">
                    <path d="M1105.69,698.678L1122.01,743.383L1088.32,743.339L1101.17,705.962L1105.69,698.678Z" style="fill:rgb(186,42,83);"/>
                </g>
                <g transform="matrix(0.845238,0.845238,-0.682083,0.682083,758.939,-571.897)">
                    <path d="M1104.57,699.147L1121.7,743.339L1088.32,743.339L1094.35,701.634L1104.57,699.147Z" style="fill:rgb(221,54,99);"/>
                </g>
                <g transform="matrix(-0.845238,-0.845238,0.682083,-0.682083,1679.98,2219.15)">
                    <path d="M1105.01,698.834L1121.7,743.339L1089.37,743.187L1094.3,706.264L1105.01,698.834Z" style="fill:rgb(219,42,92);"/>
                </g>
                <g transform="matrix(-0.845238,0.845238,0.682083,0.682083,1680.19,-571.166)">
                    <path d="M1103.28,700.553L1121.7,743.339L1088.32,743.339L1092.77,702.334L1103.28,700.553Z" style="fill:rgb(219,42,92);"/>
                </g>
                <g transform="matrix(1.1618,-6.02456e-18,6.02456e-18,-1.211,-63.6992,1665.03)">
                    <path d="M1105.01,698.834L1113.67,721.906L1121.44,743.42L1088.71,743.244L1096.21,722.362L1105.01,698.834Z" style="fill:rgb(186,42,83);"/>
                </g>
            </g>
        </g>
        <g transform="matrix(0.607973,0,0,0.683238,365.582,209.144)">
            <path d="M1181.44,847.559C1178.64,844.753 1177.05,840.884 1177.05,836.842L1177.05,799.827C1177.05,795.784 1178.64,791.916 1181.44,789.109C1186.13,784.42 1193.51,777.045 1198.11,772.441C1200.79,769.764 1204.36,768.268 1208.08,768.268C1214.71,768.268 1225.5,768.268 1232.13,768.268C1235.85,768.268 1239.43,769.764 1242.1,772.441C1246.71,777.045 1254.08,784.42 1258.77,789.109C1261.58,791.916 1263.16,795.784 1263.16,799.827L1263.16,836.842C1263.16,840.884 1261.58,844.753 1258.77,847.559C1254.08,852.248 1246.71,859.624 1242.1,864.227C1239.43,866.905 1235.85,868.401 1232.13,868.401C1225.5,868.401 1214.71,868.401 1208.08,868.401C1204.36,868.401 1200.79,866.905 1198.11,864.227C1193.51,859.624 1186.13,852.248 1181.44,847.559Z" style="fill:rgb(255,127,174);"/>
            <clipPath id="_clip2">
                <path d="M1181.44,847.559C1178.64,844.753 1177.05,840.884 1177.05,836.842L1177.05,799.827C1177.05,795.784 1178.64,791.916 1181.44,789.109C1186.13,784.42 1193.51,777.045 1198.11,772.441C1200.79,769.764 1204.36,768.268 1208.08,768.268C1214.71,768.268 1225.5,768.268 1232.13,768.268C1235.85,768.268 1239.43,769.764 1242.1,772.441C1246.71,777.045 1254.08,784.42 1258.77,789.109C1261.58,791.916 1263.16,795.784 1263.16,799.827L1263.16,836.842C1263.16,840.884 1261.58,844.753 1258.77,847.559C1254.08,852.248 1246.71,859.624 1242.1,864.227C1239.43,866.905 1235.85,868.401 1232.13,868.401C1225.5,868.401 1214.71,868.401 1208.08,868.401C1204.36,868.401 1200.79,866.905 1198.11,864.227C1193.51,859.624 1186.13,852.248 1181.44,847.559Z"/>
            </clipPath>
            <g clip-path="url(#_clip2)">
                <g transform="matrix(1.68562,0,0,1.49994,-646.508,-334.008)">
                    <rect x="1107.31" y="722.162" width="39.403" height="87.162" style="fill:rgb(255,96,141);"/>
                </g>
            </g>
        </g>
    </g>
</svg>
