<?xml version="1.0" encoding="UTF-8" standalone="no"?>
<!DOCTYPE svg PUBLIC "-//W3C//DTD SVG 1.1//EN" "http://www.w3.org/Graphics/SVG/1.1/DTD/svg11.dtd">
<svg width="100%" height="100%" viewBox="0 0 512 512" version="1.1" xmlns="http://www.w3.org/2000/svg" xmlns:xlink="http://www.w3.org/1999/xlink" xml:space="preserve" xmlns:serif="http://www.serif.com/" style="fill-rule:evenodd;clip-rule:evenodd;stroke-linejoin:round;stroke-miterlimit:2;">
    <g id="Gems1" transform="matrix(1.67718,0,0,1.59162,-7175.86,-691.861)">
        <g transform="matrix(1,0,0,1,25.551,-16.4321)">
            <g id="Chest" transform="matrix(0.957992,0,0,1.00949,3037.6,-369.964)">
                <g>
                    <g transform="matrix(2.61822,0,0,1.28704,-476.619,-3686.22)">
                        <path d="M767.208,3548.32C745.037,3510.08 720.647,3543.08 697.122,3548.32L701.489,3615.48L762.84,3615.48L767.208,3548.32Z" style="fill:rgb(96,56,52);"/>
                    </g>
                    <g transform="matrix(2.61809,0,0,1.28704,-476.525,-3686.22)">
                        <path d="M745.215,3548.32C729.933,3530.89 714.322,3521.13 697.122,3548.32L701.489,3615.48L740.847,3615.48L745.215,3548.32Z" style="fill:rgb(110,64,59);"/>
                    </g>
                </g>
                <g>
                    <g transform="matrix(1.14349,0,0,1.40665,-207.058,-384.525)">
                        <rect x="1373.48" y="896.284" width="134.424" height="59.442" style="fill:rgb(73,42,39);"/>
                    </g>
                    <g transform="matrix(0.572756,0,0,1.40665,576.828,-384.525)">
                        <rect x="1373.48" y="896.284" width="134.424" height="59.442" style="fill:rgb(91,53,49);"/>
                    </g>
                </g>
                <g id="icon-diamond" transform="matrix(1.18822,-0.318383,0.318383,1.18822,1340.04,936.175)">
                    <path d="M17.53,0L0.5,22.981C11.745,26.671 22.976,28.866 34.124,22.981C33.344,12.606 27.813,4.946 17.53,0Z" style="fill:rgb(0,229,255);fill-rule:nonzero;"/>
                    <path d="M50.718,0C43.555,6.1 37.048,12.832 34.093,22.981C44.363,30.836 55.487,30.338 67.313,22.981C67.867,12.896 62.206,5.287 50.718,0Z" style="fill:rgb(0,203,244);fill-rule:nonzero;"/>
                    <path d="M84.331,-0.028C75.465,5.708 68.284,12.464 67.313,22.981C78.572,29.86 89.531,26.231 100.5,22.981L84.331,-0.028Z" style="fill:rgb(0,184,240);fill-rule:nonzero;"/>
                    <g transform="matrix(1,0,0,1,0,-0.4418)">
                        <path d="M67.313,23.592L84.343,0.442L50.675,0.442L67.313,23.592Z" style="fill:rgb(63,233,255);fill-rule:nonzero;"/>
                    </g>
                    <g transform="matrix(1,0,0,1,0,-0.4418)">
                        <path d="M34.124,23.44L50.718,0.442L17.53,0.442L34.124,23.44Z" style="fill:rgb(132,255,249);fill-rule:nonzero;"/>
                    </g>
                    <g transform="matrix(1,0,0,1,0,0.0099)">
                        <path d="M0.5,22.981L51.761,80.034C51.24,60.188 48.905,40.622 34.124,22.981L0.5,22.981Z" style="fill:rgb(132,255,249);fill-rule:nonzero;"/>
                    </g>
                    <path d="M34.124,22.981L51.75,80.038C60.947,62.614 69.665,45 67.313,22.981L34.124,22.981Z" style="fill:rgb(0,229,255);fill-rule:nonzero;"/>
                    <g transform="matrix(1,0,0,1,0,0.1085)">
                        <path d="M100.5,22.866L51.752,79.93L67.313,22.866L100.5,22.866Z" style="fill:rgb(0,200,239);fill-rule:nonzero;"/>
                    </g>
                </g>
                <g id="icon-diamond1" serif:id="icon-diamond" transform="matrix(1.18822,0.318383,-0.318383,1.18822,1418.17,896.952)">
                    <path d="M17.53,0L0.5,22.981C11.745,26.671 22.976,28.866 34.124,22.981C33.344,12.606 27.813,4.946 17.53,0Z" style="fill:rgb(0,229,255);fill-rule:nonzero;"/>
                    <path d="M50.718,0C43.555,6.1 37.048,12.832 34.093,22.981C44.363,30.836 55.487,30.338 67.313,22.981C67.867,12.896 62.206,5.287 50.718,0Z" style="fill:rgb(0,203,244);fill-rule:nonzero;"/>
                    <path d="M84.331,-0.028C75.465,5.708 68.284,12.464 67.313,22.981C78.572,29.86 89.531,26.231 100.5,22.981L84.331,-0.028Z" style="fill:rgb(0,184,240);fill-rule:nonzero;"/>
                    <g transform="matrix(1,0,0,1,0,-0.4418)">
                        <path d="M67.313,23.592L84.343,0.442L50.675,0.442L67.313,23.592Z" style="fill:rgb(63,233,255);fill-rule:nonzero;"/>
                    </g>
                    <g transform="matrix(1,0,0,1,0,-0.4418)">
                        <path d="M34.124,23.44L50.718,0.442L17.53,0.442L34.124,23.44Z" style="fill:rgb(132,255,249);fill-rule:nonzero;"/>
                    </g>
                    <g transform="matrix(1,0,0,1,0,0.0099)">
                        <path d="M0.5,22.981L51.761,80.034C51.24,60.188 48.905,40.622 34.124,22.981L0.5,22.981Z" style="fill:rgb(132,255,249);fill-rule:nonzero;"/>
                    </g>
                    <path d="M34.124,22.981L51.75,80.038C60.947,62.614 69.665,45 67.313,22.981L34.124,22.981Z" style="fill:rgb(0,229,255);fill-rule:nonzero;"/>
                    <g transform="matrix(1,0,0,1,0,0.1085)">
                        <path d="M100.5,22.866L51.752,79.93L67.313,22.866L100.5,22.866Z" style="fill:rgb(0,200,239);fill-rule:nonzero;"/>
                    </g>
                </g>
                <g transform="matrix(2.5216,0,0,1.62998,-405.876,-4828.12)">
                    <path d="M767.208,3548.32L697.122,3548.32L697.122,3605.84C697.122,3611.16 699.916,3615.48 703.357,3615.48L760.972,3615.48C764.414,3615.48 767.208,3611.16 767.208,3605.84L767.208,3548.32Z" style="fill:rgb(179,115,107);"/>
                    <clipPath id="_clip1">
                        <path d="M767.208,3548.32L697.122,3548.32L697.122,3605.84C697.122,3611.16 699.916,3615.48 703.357,3615.48L760.972,3615.48C764.414,3615.48 767.208,3611.16 767.208,3605.84L767.208,3548.32Z"/>
                    </clipPath>
                    <g clip-path="url(#_clip1)">
                        <g transform="matrix(1.05882,0,0,1.73208,-46.724,-2654.15)">
                            <rect x="735.669" y="3580.81" width="37.022" height="41.561" style="fill:rgb(145,84,78);"/>
                        </g>
                        <g transform="matrix(0.36675,0,0,1.48305,-6329.39,-2403.15)">
                            <rect x="19166.8" y="4014.96" width="16.674" height="48.041" style="fill:rgb(209,137,129);fill-opacity:0.55;"/>
                        </g>
                        <g transform="matrix(0.607639,0,0,0.940027,-129.651,2625.6)">
                            <circle cx="1360.63" cy="1053.01" r="21.476" style="fill:rgb(191,191,191);"/>
                        </g>
                        <g transform="matrix(0.607639,0,0,0.940027,-59.564,2625.6)">
                            <circle cx="1360.63" cy="1053.01" r="21.476" style="fill:rgb(159,159,159);"/>
                        </g>
                    </g>
                </g>
                <g>
                    <g transform="matrix(1.55168,0,0,4.21857,336.411,-14120.7)">
                        <path d="M776.426,3574.95C776.426,3573.79 773.87,3572.85 770.721,3572.85L701.891,3572.85C698.742,3572.85 696.186,3573.79 696.186,3574.95C696.186,3576.11 698.742,3577.05 701.891,3577.05L770.721,3577.05C773.87,3577.05 776.426,3576.11 776.426,3574.95Z" style="fill:rgb(114,66,62);"/>
                    </g>
                    <g transform="matrix(1.28907,0,0,4.21857,442.095,-14120.7)">
                        <path d="M776.426,3574.95C776.426,3573.79 773.349,3572.85 769.559,3572.85L703.053,3572.85C699.263,3572.85 696.186,3573.79 696.186,3574.95C696.186,3576.11 699.263,3577.05 703.053,3577.05L769.559,3577.05C773.349,3577.05 776.426,3576.11 776.426,3574.95Z" style="fill:rgb(155,91,84);"/>
                    </g>
                </g>
                <g transform="matrix(1,0,0,0.779749,-5.19432,207.051)">
                    <path d="M1474.26,955.242C1474.26,953.325 1473.05,951.769 1471.55,951.769L1419.27,951.769C1417.92,951.769 1416.83,953.172 1416.83,954.899L1416.83,1000.59C1416.83,1009.57 1422.52,1016.86 1429.52,1016.86L1461.57,1016.86C1468.58,1016.86 1474.26,1009.57 1474.26,1000.59L1474.26,955.242Z" style="fill:rgb(191,191,191);"/>
                    <clipPath id="_clip2">
                        <path d="M1474.26,955.242C1474.26,953.325 1473.05,951.769 1471.55,951.769L1419.27,951.769C1417.92,951.769 1416.83,953.172 1416.83,954.899L1416.83,1000.59C1416.83,1009.57 1422.52,1016.86 1429.52,1016.86L1461.57,1016.86C1468.58,1016.86 1474.26,1009.57 1474.26,1000.59L1474.26,955.242Z"/>
                    </clipPath>
                    <g clip-path="url(#_clip2)">
                        <g transform="matrix(1.03025,0,0,2.23362,687.747,-7050.99)">
                            <rect x="735.669" y="3580.81" width="37.022" height="41.561" style="fill:rgb(159,159,159);"/>
                        </g>
                        <g transform="matrix(1.04238,0,0,2.66093,-18626.2,-9418.49)">
                            <path d="M19239.8,3901.68C19239.8,3900.52 19238,3899.58 19235.7,3899.58C19233.4,3899.58 19231.5,3900.52 19231.5,3901.68L19231.5,3915.95C19231.5,3917.11 19233.4,3918.05 19235.7,3918.05C19238,3918.05 19239.8,3917.11 19239.8,3915.95L19239.8,3901.68Z" style="fill:rgb(235,235,235);fill-opacity:0.55;"/>
                        </g>
                    </g>
                </g>
                <g transform="matrix(2.45754,0,0,2.45754,-363.854,-7844.48)">
                    <circle cx="734.152" cy="3588.58" r="3.963" style="fill:rgb(67,70,78);"/>
                </g>
                <g transform="matrix(1.13737,0,0,0.684053,-196.953,255.883)">
                    <path d="M1520.23,903.669C1520.23,882.499 1509.89,865.311 1497.15,865.311L1381.85,865.311C1369.18,865.311 1358.89,882.419 1358.89,903.492L1358.89,913.288L1520.23,913.288L1520.23,903.669Z" style="fill:rgb(179,115,107);"/>
                    <clipPath id="_clip3">
                        <path d="M1520.23,903.669C1520.23,882.499 1509.89,865.311 1497.15,865.311L1381.85,865.311C1369.18,865.311 1358.89,882.419 1358.89,903.492L1358.89,913.288L1520.23,913.288L1520.23,903.669Z"/>
                    </clipPath>
                    <g clip-path="url(#_clip3)">
                        <g transform="matrix(2.35495,0,0,1.65452,-292.912,-5065.15)">
                            <rect x="735.669" y="3580.81" width="37.022" height="41.561" style="fill:rgb(145,84,78);"/>
                        </g>
                    </g>
                </g>
                <path d="M1452.91,855.852C1456.32,855.852 1459.1,858.624 1459.1,862.039L1459.1,881.168C1459.1,884.583 1456.32,887.355 1452.91,887.355L1447.28,887.355L1447.28,889.96C1447.28,893.783 1444.17,896.887 1440.35,896.887C1436.53,896.887 1433.42,893.783 1433.42,889.96L1433.42,887.355L1427.79,887.355C1424.38,887.355 1421.61,884.583 1421.61,881.168L1421.61,862.039C1421.61,858.624 1424.38,855.852 1427.79,855.852L1452.91,855.852Z" style="fill:rgb(191,191,191);"/>
                <clipPath id="_clip4">
                    <path d="M1452.91,855.852C1456.32,855.852 1459.1,858.624 1459.1,862.039L1459.1,881.168C1459.1,884.583 1456.32,887.355 1452.91,887.355L1447.28,887.355L1447.28,889.96C1447.28,893.783 1444.17,896.887 1440.35,896.887C1436.53,896.887 1433.42,893.783 1433.42,889.96L1433.42,887.355L1427.79,887.355C1424.38,887.355 1421.61,884.583 1421.61,881.168L1421.61,862.039C1421.61,858.624 1424.38,855.852 1427.79,855.852L1452.91,855.852Z"/>
                </clipPath>
                <g clip-path="url(#_clip4)">
                    <g transform="matrix(1.03025,0,0,1.16394,682.553,-3315.95)">
                        <rect x="735.669" y="3580.81" width="37.022" height="41.561" style="fill:rgb(159,159,159);"/>
                    </g>
                    <g transform="matrix(1,0,0,1,-17807.5,-3040.53)">
                        <path d="M19239.8,3903.75C19239.8,3901.45 19238,3899.58 19235.7,3899.58C19233.4,3899.58 19231.5,3901.45 19231.5,3903.75L19231.5,3913.88C19231.5,3916.18 19233.4,3918.05 19235.7,3918.05C19238,3918.05 19239.8,3916.18 19239.8,3913.88L19239.8,3903.75Z" style="fill:rgb(235,235,235);fill-opacity:0.55;"/>
                    </g>
                </g>
            </g>
            <g id="GemIcon" transform="matrix(1.27736,0,9.33379e-16,1.34603,4269.11,630.302)">
                <path d="M17.53,0L0.5,22.981C11.745,26.671 22.976,28.866 34.124,22.981C33.344,12.606 27.813,4.946 17.53,0Z" style="fill:rgb(0,229,255);fill-rule:nonzero;"/>
                <path d="M50.718,0C43.555,6.1 37.048,12.832 34.093,22.981C44.363,30.836 55.487,30.338 67.313,22.981C67.867,12.896 62.206,5.287 50.718,0Z" style="fill:rgb(0,203,244);fill-rule:nonzero;"/>
                <path d="M84.331,-0.028C75.465,5.708 68.284,12.464 67.313,22.981C78.572,29.86 89.531,26.231 100.5,22.981L84.331,-0.028Z" style="fill:rgb(0,184,240);fill-rule:nonzero;"/>
                <g transform="matrix(1,0,0,1,0,-0.4418)">
                    <path d="M67.313,23.592L84.343,0.442L50.675,0.442L67.313,23.592Z" style="fill:rgb(63,233,255);fill-rule:nonzero;"/>
                </g>
                <g transform="matrix(1,0,0,1,0,-0.4418)">
                    <path d="M34.124,23.44L50.718,0.442L17.53,0.442L34.124,23.44Z" style="fill:rgb(132,255,249);fill-rule:nonzero;"/>
                </g>
                <g transform="matrix(1,0,0,1,0,0.0099)">
                    <path d="M0.5,22.981L51.761,80.034C51.24,60.188 48.905,40.622 34.124,22.981L0.5,22.981Z" style="fill:rgb(132,255,249);fill-rule:nonzero;"/>
                </g>
                <path d="M34.124,22.981L51.75,80.038C60.947,62.614 69.665,45 67.313,22.981L34.124,22.981Z" style="fill:rgb(0,229,255);fill-rule:nonzero;"/>
                <g transform="matrix(1,0,0,1,0,0.1085)">
                    <path d="M100.5,22.866L51.752,79.93L67.313,22.866L100.5,22.866Z" style="fill:rgb(0,200,239);fill-rule:nonzero;"/>
                </g>
            </g>
        </g>
        <g id="Sparkle" transform="matrix(0.778652,0,0,0.82051,-10930.9,-2703.83)">
            <path d="M19613,3940.99L19617.4,3952.7L19629.1,3957.03L19617.4,3961.36L19613,3973.07L19608.7,3961.36L19597,3957.03L19608.7,3952.7L19613,3940.99Z" style="fill:rgb(0,229,255);"/>
        </g>
        <g id="Sparkle1" serif:id="Sparkle" transform="matrix(0.778652,0,0,0.82051,-10953.2,-2660.99)">
            <path d="M19613,3940.99L19617.4,3952.7L19629.1,3957.03L19617.4,3961.36L19613,3973.07L19608.7,3961.36L19597,3957.03L19608.7,3952.7L19613,3940.99Z" style="fill:rgb(0,229,255);"/>
        </g>
        <g id="Sparkle2" serif:id="Sparkle" transform="matrix(0.778652,0,0,0.82051,-10717.2,-2691.17)">
            <path d="M19613,3940.99L19617.4,3952.7L19629.1,3957.03L19617.4,3961.36L19613,3973.07L19608.7,3961.36L19597,3957.03L19608.7,3952.7L19613,3940.99Z" style="fill:rgb(0,229,255);"/>
        </g>
    </g>
</svg>
