<?xml version="1.0" encoding="UTF-8" standalone="no"?>
<!DOCTYPE svg PUBLIC "-//W3C//DTD SVG 1.1//EN" "http://www.w3.org/Graphics/SVG/1.1/DTD/svg11.dtd">
<svg width="100%" height="100%" viewBox="0 0 512 512" version="1.1" xmlns="http://www.w3.org/2000/svg" xmlns:xlink="http://www.w3.org/1999/xlink" xml:space="preserve" xmlns:serif="http://www.serif.com/" style="fill-rule:evenodd;clip-rule:evenodd;stroke-linejoin:round;stroke-miterlimit:2;">
    <g id="Gems7" transform="matrix(1.98217,0,0,1.88105,-8480.76,-1008.19)">
        <g id="GemIcon" transform="matrix(1.42464,1.83847e-16,1.74468e-16,-1.50122,2391.25,2318.74)">
            <path d="M1391.02,1070.27C1392.67,1069.31 1394.72,1069.31 1396.38,1070.27C1402.73,1073.93 1418.66,1083.13 1425.01,1086.8C1426.67,1087.76 1427.69,1089.52 1427.69,1091.44L1427.69,1124.5C1427.69,1126.42 1426.67,1128.19 1425.01,1129.14C1418.66,1132.81 1402.73,1142.01 1396.38,1145.68C1394.72,1146.63 1392.67,1146.63 1391.02,1145.68C1384.66,1142.01 1368.74,1132.81 1362.38,1129.14C1360.72,1128.19 1359.7,1126.42 1359.7,1124.5L1359.7,1091.44C1359.7,1089.52 1360.72,1087.76 1362.38,1086.8C1368.74,1083.13 1384.66,1073.93 1391.02,1070.27Z" style="fill:rgb(11,174,228);"/>
            <clipPath id="_clip1">
                <path d="M1391.02,1070.27C1392.67,1069.31 1394.72,1069.31 1396.38,1070.27C1402.73,1073.93 1418.66,1083.13 1425.01,1086.8C1426.67,1087.76 1427.69,1089.52 1427.69,1091.44L1427.69,1124.5C1427.69,1126.42 1426.67,1128.19 1425.01,1129.14C1418.66,1132.81 1402.73,1142.01 1396.38,1145.68C1394.72,1146.63 1392.67,1146.63 1391.02,1145.68C1384.66,1142.01 1368.74,1132.81 1362.38,1129.14C1360.72,1128.19 1359.7,1126.42 1359.7,1124.5L1359.7,1091.44C1359.7,1089.52 1360.72,1087.76 1362.38,1086.8C1368.74,1083.13 1384.66,1073.93 1391.02,1070.27Z"/>
            </clipPath>
            <g clip-path="url(#_clip1)">
                <g transform="matrix(0.866025,0.5,-0.321288,0.556487,568.634,-137.34)">
                    <path d="M1336.89,1036.22L1366.42,1090.93L1312.65,1090.93L1336.89,1036.22Z" style="fill:rgb(158,255,249);"/>
                </g>
                <g transform="matrix(-2.29546e-17,1,-0.709072,-8.41643e-17,2125.65,-233.257)">
                    <path d="M1341.01,1032.56L1366.42,1090.93L1316.69,1092.35L1341.01,1032.56Z" style="fill:rgb(67,227,255);"/>
                </g>
                <g transform="matrix(-0.866025,0.5,-0.354536,-0.614074,2923.41,1076.98)">
                    <path d="M1340.35,1041.21L1363.44,1097.51L1312.65,1090.93L1340.35,1041.21Z" style="fill:rgb(0,210,252);"/>
                </g>
                <g transform="matrix(-0.866025,-0.5,0.354536,-0.614074,2188.19,2418.58)">
                    <path d="M1343.65,1040.59L1365.8,1095.16L1312.65,1090.93L1343.65,1040.59Z" style="fill:rgb(0,184,240);"/>
                </g>
                <g transform="matrix(-4.979e-17,-1,0.709072,-1.2093e-17,658.17,2444.35)">
                    <path d="M1336.6,1037L1362.11,1099.64L1312.65,1090.93L1336.6,1037Z" style="fill:rgb(0,203,244);"/>
                </g>
                <g transform="matrix(0.687453,-0.431065,0.376691,0.600738,80.4822,1062.8)">
                    <path d="M1341.5,1037.42L1366.42,1090.93L1312.34,1091.25L1341.5,1037.42Z" style="fill:rgb(0,229,255);"/>
                </g>
            </g>
        </g>
        <g id="GemIcon1" serif:id="GemIcon" transform="matrix(1.42464,1.83847e-16,1.74468e-16,-1.50122,2450.2,2366.63)">
            <path d="M1391.02,1070.27C1392.67,1069.31 1394.72,1069.31 1396.38,1070.27C1402.73,1073.93 1418.66,1083.13 1425.01,1086.8C1426.67,1087.76 1427.69,1089.52 1427.69,1091.44L1427.69,1124.5C1427.69,1126.42 1426.67,1128.19 1425.01,1129.14C1418.66,1132.81 1402.73,1142.01 1396.38,1145.68C1394.72,1146.63 1392.67,1146.63 1391.02,1145.68C1384.66,1142.01 1368.74,1132.81 1362.38,1129.14C1360.72,1128.19 1359.7,1126.42 1359.7,1124.5L1359.7,1091.44C1359.7,1089.52 1360.72,1087.76 1362.38,1086.8C1368.74,1083.13 1384.66,1073.93 1391.02,1070.27Z" style="fill:rgb(11,174,228);"/>
            <clipPath id="_clip2">
                <path d="M1391.02,1070.27C1392.67,1069.31 1394.72,1069.31 1396.38,1070.27C1402.73,1073.93 1418.66,1083.13 1425.01,1086.8C1426.67,1087.76 1427.69,1089.52 1427.69,1091.44L1427.69,1124.5C1427.69,1126.42 1426.67,1128.19 1425.01,1129.14C1418.66,1132.81 1402.73,1142.01 1396.38,1145.68C1394.72,1146.63 1392.67,1146.63 1391.02,1145.68C1384.66,1142.01 1368.74,1132.81 1362.38,1129.14C1360.72,1128.19 1359.7,1126.42 1359.7,1124.5L1359.7,1091.44C1359.7,1089.52 1360.72,1087.76 1362.38,1086.8C1368.74,1083.13 1384.66,1073.93 1391.02,1070.27Z"/>
            </clipPath>
            <g clip-path="url(#_clip2)">
                <g transform="matrix(0.866025,0.5,-0.321288,0.556487,568.634,-137.34)">
                    <path d="M1336.89,1036.22L1366.42,1090.93L1312.65,1090.93L1336.89,1036.22Z" style="fill:rgb(158,255,249);"/>
                </g>
                <g transform="matrix(-2.29546e-17,1,-0.709072,-8.41643e-17,2125.65,-233.257)">
                    <path d="M1341.01,1032.56L1366.42,1090.93L1316.69,1092.35L1341.01,1032.56Z" style="fill:rgb(67,227,255);"/>
                </g>
                <g transform="matrix(-0.866025,0.5,-0.354536,-0.614074,2923.41,1076.98)">
                    <path d="M1340.35,1041.21L1363.44,1097.51L1312.65,1090.93L1340.35,1041.21Z" style="fill:rgb(0,210,252);"/>
                </g>
                <g transform="matrix(-0.866025,-0.5,0.354536,-0.614074,2188.19,2418.58)">
                    <path d="M1343.65,1040.59L1365.8,1095.16L1312.65,1090.93L1343.65,1040.59Z" style="fill:rgb(0,184,240);"/>
                </g>
                <g transform="matrix(-4.979e-17,-1,0.709072,-1.2093e-17,658.17,2444.35)">
                    <path d="M1336.6,1037L1362.11,1099.64L1312.65,1090.93L1336.6,1037Z" style="fill:rgb(0,203,244);"/>
                </g>
                <g transform="matrix(0.687453,-0.431065,0.376691,0.600738,80.4822,1062.8)">
                    <path d="M1341.5,1037.42L1366.42,1090.93L1312.34,1091.25L1341.5,1037.42Z" style="fill:rgb(0,229,255);"/>
                </g>
            </g>
        </g>
        <g transform="matrix(1.14571,0,0,1.14571,-671.15,-44.0038)">
            <g id="Sparkle" transform="matrix(0.778652,0,0,0.82051,-10746.7,-2619.55)">
                <path d="M19613,3940.99L19617.4,3952.7L19629.1,3957.03L19617.4,3961.36L19613,3973.07L19608.7,3961.36L19597,3957.03L19608.7,3952.7L19613,3940.99Z" style="fill:rgb(0,229,255);"/>
            </g>
            <g id="Sparkle1" serif:id="Sparkle" transform="matrix(0.778652,0,0,0.82051,-10930.9,-2636.14)">
                <path d="M19613,3940.99L19617.4,3952.7L19629.1,3957.03L19617.4,3961.36L19613,3973.07L19608.7,3961.36L19597,3957.03L19608.7,3952.7L19613,3940.99Z" style="fill:rgb(0,229,255);"/>
            </g>
            <g id="Sparkle2" serif:id="Sparkle" transform="matrix(0.778652,0,0,0.82051,-10809.9,-2686.25)">
                <path d="M19613,3940.99L19617.4,3952.7L19629.1,3957.03L19617.4,3961.36L19613,3973.07L19608.7,3961.36L19597,3957.03L19608.7,3952.7L19613,3940.99Z" style="fill:rgb(0,229,255);"/>
            </g>
        </g>
    </g>
</svg>
