<?xml version="1.0" encoding="UTF-8" standalone="no"?>
<!DOCTYPE svg PUBLIC "-//W3C//DTD SVG 1.1//EN" "http://www.w3.org/Graphics/SVG/1.1/DTD/svg11.dtd">
<svg width="100%" height="100%" viewBox="0 0 512 512" version="1.1" xmlns="http://www.w3.org/2000/svg" xmlns:xlink="http://www.w3.org/1999/xlink" xml:space="preserve" xmlns:serif="http://www.serif.com/" style="fill-rule:evenodd;clip-rule:evenodd;stroke-linejoin:round;stroke-miterlimit:2;">
    <g id="GemStickIcon" transform="matrix(5.8515,0,-5.34737e-16,5.8515,-6241.95,-1854.65)">
        <g transform="matrix(1.13584,-6.22757e-17,2.51078e-16,8.92094,-1162.61,-5079)">
            <path d="M2006.07,608.802C2006.07,608.432 2003.71,608.132 2000.81,608.132C1997.9,608.132 1995.54,608.432 1995.54,608.802L1995.54,613.871C1995.54,614.241 1997.9,614.542 2000.81,614.542C2003.71,614.542 2006.07,614.241 2006.07,613.871L2006.07,608.802Z" style="fill:rgb(171,111,112);"/>
            <clipPath id="_clip1">
                <path d="M2006.07,608.802C2006.07,608.432 2003.71,608.132 2000.81,608.132C1997.9,608.132 1995.54,608.432 1995.54,608.802L1995.54,613.871C1995.54,614.241 1997.9,614.542 2000.81,614.542C2003.71,614.542 2006.07,614.241 2006.07,613.871L2006.07,608.802Z"/>
            </clipPath>
            <g clip-path="url(#_clip1)">
                <g transform="matrix(0.849956,-2.59478e-16,1.37612e-15,-0.93159,763.123,1105.83)">
                    <rect x="1456.06" y="524.978" width="18.008" height="12.903" style="fill:rgb(132,82,82);"/>
                </g>
            </g>
        </g>
        <g transform="matrix(1,0,0,0.748445,10.2387,88.6929)">
            <path d="M1108.79,363.065C1108.79,361.732 1107.98,360.65 1106.99,360.65L1092.56,360.65C1091.55,360.65 1090.72,361.752 1090.72,363.109L1090.72,383.913C1090.72,387.245 1092.74,389.95 1095.24,389.95L1104.27,389.95C1106.77,389.95 1108.79,387.245 1108.79,383.913L1108.79,363.065Z" style="fill:rgb(184,184,184);"/>
            <clipPath id="_clip2">
                <path d="M1108.79,363.065C1108.79,361.732 1107.98,360.65 1106.99,360.65L1092.56,360.65C1091.55,360.65 1090.72,361.752 1090.72,363.109L1090.72,383.913C1090.72,387.245 1092.74,389.95 1095.24,389.95L1104.27,389.95C1106.77,389.95 1108.79,387.245 1108.79,383.913L1108.79,363.065Z"/>
            </clipPath>
            <g clip-path="url(#_clip2)">
                <g transform="matrix(0.990932,8.00914e-16,-6.346e-16,2.6743,-343.211,-1042.74)">
                    <rect x="1456.06" y="524.978" width="18.008" height="12.903" style="fill:rgb(139,139,139);"/>
                </g>
            </g>
        </g>
        <path d="M1109.58,330.532C1109.77,330.31 1110.05,330.183 1110.34,330.183C1110.63,330.183 1110.91,330.31 1111.1,330.532C1113.75,333.62 1122.5,343.836 1124.43,346.091C1124.66,346.365 1124.73,346.744 1124.61,347.083C1123.72,349.539 1120.13,359.403 1120.13,359.403L1110.34,360.715L1110.34,360.715L1110.34,360.715L1110.34,360.715L1110.34,360.715L1100.55,359.403C1100.55,359.403 1096.96,349.539 1096.07,347.083C1095.95,346.744 1096.02,346.365 1096.25,346.091C1098.19,343.836 1106.94,333.62 1109.58,330.532Z" style="fill:rgb(153,153,153);"/>
        <clipPath id="_clip3">
            <path d="M1109.58,330.532C1109.77,330.31 1110.05,330.183 1110.34,330.183C1110.63,330.183 1110.91,330.31 1111.1,330.532C1113.75,333.62 1122.5,343.836 1124.43,346.091C1124.66,346.365 1124.73,346.744 1124.61,347.083C1123.72,349.539 1120.13,359.403 1120.13,359.403L1110.34,360.715L1110.34,360.715L1110.34,360.715L1110.34,360.715L1110.34,360.715L1100.55,359.403C1100.55,359.403 1096.96,349.539 1096.07,347.083C1095.95,346.744 1096.02,346.365 1096.25,346.091C1098.19,343.836 1106.94,333.62 1109.58,330.532Z"/>
        </clipPath>
        <g clip-path="url(#_clip3)">
            <g transform="matrix(0.296499,-1.19794e-16,-1.30502e-16,-0.594764,1095.03,360.213)">
                <path d="M17.53,0L0.5,22.981C12.898,24.083 24.893,24.812 34.124,22.981C34.114,13.968 28.188,6.404 17.53,0Z" style="fill:rgb(51,201,255);fill-rule:nonzero;"/>
            </g>
            <g transform="matrix(0.296499,-1.20614e-16,-1.24768e-16,-0.584643,1095.03,359.98)">
                <path d="M50.923,0.039C40.763,6.612 34.961,14.212 34.117,22.981C45.381,24.285 56.537,24.878 67.313,22.981C68.979,13.782 63.296,6.182 50.923,0.039Z" style="fill:rgb(0,170,227);fill-rule:nonzero;"/>
            </g>
            <g transform="matrix(0.296499,-1.19794e-16,-1.30502e-16,-0.594764,1095.03,360.213)">
                <path d="M84.343,0.442C76.192,6.787 68.612,13.401 67.313,22.981C78.468,24.76 89.489,23.973 100.5,22.981L84.343,0.442Z" style="fill:rgb(15,134,198);fill-rule:nonzero;"/>
            </g>
            <g transform="matrix(0.296499,-1.19794e-16,-1.30502e-16,-0.594764,1095.03,360.213)">
                <path d="M67.313,22.981L84.343,0.442L50.924,0.442L67.313,22.981Z" style="fill:rgb(63,207,255);fill-rule:nonzero;"/>
            </g>
            <g transform="matrix(0.296499,-1.19794e-16,-1.30502e-16,-0.594764,1095.03,360.213)">
                <path d="M34.124,22.981L50.931,0.442L17.53,0.442L34.124,22.981Z" style="fill:rgb(105,217,255);fill-rule:nonzero;"/>
            </g>
            <g transform="matrix(0.296499,-8.32667e-17,-8.32667e-17,-0.296499,1095.03,353.359)">
                <path d="M0.5,22.981L51.644,79.997C51.368,59.23 46.997,39.759 34.124,22.981L0.5,22.981Z" style="fill:rgb(104,222,255);fill-rule:nonzero;"/>
            </g>
            <g transform="matrix(0.296499,-8.32667e-17,-8.32667e-17,-0.296499,1095.03,353.359)">
                <path d="M34.124,22.981L51.641,80C60.905,61.906 67.674,43.249 67.313,22.981L34.124,22.981Z" style="fill:rgb(60,196,246);fill-rule:nonzero;"/>
            </g>
            <g transform="matrix(0.296499,-8.32667e-17,-8.32667e-17,-0.296499,1095.03,353.359)">
                <path d="M100.5,22.981L51.641,79.989L67.313,22.981L100.5,22.981Z" style="fill:rgb(38,155,218);fill-rule:nonzero;"/>
            </g>
        </g>
        <g transform="matrix(1,0,0,1,-0.209698,0)">
            <path d="M1123.12,360.814C1123.12,359.791 1122.29,358.961 1121.27,358.961L1099.14,358.961C1098.12,358.961 1097.29,359.791 1097.29,360.814L1097.29,364.519C1097.29,365.541 1098.12,366.371 1099.14,366.371L1121.27,366.371C1122.29,366.371 1123.12,365.541 1123.12,364.519L1123.12,360.814Z" style="fill:rgb(162,162,162);"/>
            <clipPath id="_clip4">
                <path d="M1123.12,360.814C1123.12,359.791 1122.29,358.961 1121.27,358.961L1099.14,358.961C1098.12,358.961 1097.29,359.791 1097.29,360.814L1097.29,364.519C1097.29,365.541 1098.12,366.371 1099.14,366.371L1121.27,366.371C1122.29,366.371 1123.12,365.541 1123.12,364.519L1123.12,360.814Z"/>
            </clipPath>
            <g clip-path="url(#_clip4)">
                <g transform="matrix(0.990932,3.76772e-16,-6.346e-16,1.25806,-332.763,-307.216)">
                    <rect x="1456.06" y="524.978" width="18.008" height="12.903" style="fill:rgb(120,120,120);"/>
                </g>
            </g>
        </g>
        <g transform="matrix(1,0,0,1,329.301,-168.382)">
            <path d="M762.958,496.038L764.46,500.096L768.518,501.597L764.46,503.099L762.958,507.157L761.457,503.099L757.399,501.597L761.457,500.096L762.958,496.038Z" style="fill:rgb(104,222,255);"/>
        </g>
        <g transform="matrix(0.441487,0,0,0.441487,794.961,118.153)">
            <path d="M762.958,496.038L764.46,500.096L768.518,501.597L764.46,503.099L762.958,507.157L761.457,503.099L757.399,501.597L761.457,500.096L762.958,496.038Z" style="fill:rgb(104,222,255);"/>
        </g>
        <g transform="matrix(0.840491,0,0,0.840491,475.728,-98.7991)">
            <path d="M762.958,496.038L764.46,500.096L768.518,501.597L764.46,503.099L762.958,507.157L761.457,503.099L757.399,501.597L761.457,500.096L762.958,496.038Z" style="fill:rgb(104,222,255);"/>
        </g>
    </g>
</svg>
