<?xml version="1.0" encoding="UTF-8" standalone="no"?>
<!DOCTYPE svg PUBLIC "-//W3C//DTD SVG 1.1//EN" "http://www.w3.org/Graphics/SVG/1.1/DTD/svg11.dtd">
<svg width="100%" height="100%" viewBox="0 0 512 512" version="1.1" xmlns="http://www.w3.org/2000/svg" xmlns:xlink="http://www.w3.org/1999/xlink" xml:space="preserve" xmlns:serif="http://www.serif.com/" style="fill-rule:evenodd;clip-rule:evenodd;stroke-linejoin:round;stroke-miterlimit:2;">
    <g id="GemDiamondBlueIcon" transform="matrix(4.91292,0,0,5.5643,-6962.52,-5271.73)">
        <path d="M1460.44,953.002C1462.68,950.759 1465.9,949.475 1469.29,949.475C1472.68,949.475 1475.91,950.759 1478.15,953.002C1487.76,962.612 1502.9,977.755 1511.67,986.523C1515.62,990.467 1515.62,996.387 1511.67,1000.33C1502.9,1009.1 1487.76,1024.24 1478.15,1033.85C1475.91,1036.1 1472.68,1037.38 1469.29,1037.38C1465.9,1037.38 1462.68,1036.1 1460.44,1033.85C1450.83,1024.24 1435.68,1009.1 1426.91,1000.33C1422.97,996.387 1422.97,990.467 1426.91,986.523C1435.68,977.755 1450.83,962.612 1460.44,953.002Z" style="fill:none;"/>
        <clipPath id="_clip1">
            <path d="M1460.44,953.002C1462.68,950.759 1465.9,949.475 1469.29,949.475C1472.68,949.475 1475.91,950.759 1478.15,953.002C1487.76,962.612 1502.9,977.755 1511.67,986.523C1515.62,990.467 1515.62,996.387 1511.67,1000.33C1502.9,1009.1 1487.76,1024.24 1478.15,1033.85C1475.91,1036.1 1472.68,1037.38 1469.29,1037.38C1465.9,1037.38 1462.68,1036.1 1460.44,1033.85C1450.83,1024.24 1435.68,1009.1 1426.91,1000.33C1422.97,996.387 1422.97,990.467 1426.91,986.523C1435.68,977.755 1450.83,962.612 1460.44,953.002Z"/>
        </clipPath>
        <g clip-path="url(#_clip1)">
            <g transform="matrix(-0.566335,-1.31171e-16,1.00719e-16,-0.396928,2302.91,1412.6)">
                <rect x="1460.12" y="909.182" width="109.332" height="156.502" style="fill:rgb(11,194,233);"/>
            </g>
            <g transform="matrix(0.572146,0,0,-0.375092,633.903,1390.4)">
                <rect x="1460.12" y="909.182" width="109.332" height="156.502" style="fill:rgb(11,174,228);"/>
            </g>
            <g transform="matrix(-0.576756,-3.44706e-16,-4.65749e-16,0.353701,2321.49,616.492)">
                <rect x="1460.12" y="909.182" width="109.332" height="156.502" style="fill:rgb(173,241,254);"/>
            </g>
            <g transform="matrix(0.55858,0,0,0.364829,653.711,604.632)">
                <rect x="1460.12" y="909.182" width="109.332" height="156.502" style="fill:rgb(55,204,249);"/>
            </g>
        </g>
    </g>
</svg>
