<?xml version="1.0" encoding="UTF-8" standalone="no"?>
<!DOCTYPE svg PUBLIC "-//W3C//DTD SVG 1.1//EN" "http://www.w3.org/Graphics/SVG/1.1/DTD/svg11.dtd">
<svg width="100%" height="100%" viewBox="0 0 512 512" version="1.1" xmlns="http://www.w3.org/2000/svg" xmlns:xlink="http://www.w3.org/1999/xlink" xml:space="preserve" xmlns:serif="http://www.serif.com/" style="fill-rule:evenodd;clip-rule:evenodd;stroke-linejoin:round;stroke-miterlimit:2;">
    <g id="Gems2" transform="matrix(1.70946,0,0,1.62225,-7233.15,-707.478)">
        <g transform="matrix(1,0,0,1,-26.9335,5.68434e-14)">
            <g id="SackIcon" transform="matrix(0.759083,0,0,0.765529,1070.78,34.8212)">
                <g transform="matrix(1.02955,0,0,1.07576,-15599.5,-3586.34)">
                    <path d="M19421.4,3884.79C19430,3879.8 19446.9,3883.66 19446.9,3883.66C19446.9,3872.62 19455.9,3863.66 19466.9,3863.66C19477.9,3863.66 19486.9,3872.62 19486.9,3883.66C19486.9,3883.66 19503.8,3879.8 19512.5,3884.79C19522,3890.31 19525.3,3902.55 19519.8,3912.11L19492.6,3959.28C19487.4,3968.29 19446.5,3968.29 19441.3,3959.28L19414,3912.11C19408.5,3902.55 19411.8,3890.31 19421.4,3884.79Z" style="fill:rgb(209,122,71);"/>
                    <clipPath id="_clip1">
                        <path d="M19421.4,3884.79C19430,3879.8 19446.9,3883.66 19446.9,3883.66C19446.9,3872.62 19455.9,3863.66 19466.9,3863.66C19477.9,3863.66 19486.9,3872.62 19486.9,3883.66C19486.9,3883.66 19503.8,3879.8 19512.5,3884.79C19522,3890.31 19525.3,3902.55 19519.8,3912.11L19492.6,3959.28C19487.4,3968.29 19446.5,3968.29 19441.3,3959.28L19414,3912.11C19408.5,3902.55 19411.8,3890.31 19421.4,3884.79Z"/>
                    </clipPath>
                    <g clip-path="url(#_clip1)">
                        <g transform="matrix(0.720532,-5.37491e-17,-1.97764e-17,0.432492,5608.42,2140.52)">
                            <rect x="19233.7" y="3975.2" width="154.215" height="241.645" style="fill:rgb(179,94,63);"/>
                        </g>
                    </g>
                </g>
                <g transform="matrix(0.957992,0,0,1.23879,-13973.6,-4301.76)">
                    <path d="M19345.2,4092.11C19345.2,4050.39 19303.2,4016.52 19251.6,4016.52L19195.4,4016.52C19143.8,4016.52 19101.9,4050.39 19101.9,4092.11C19101.9,4133.84 19143.8,4167.71 19195.4,4167.71L19251.6,4167.71C19303.2,4167.71 19345.2,4133.84 19345.2,4092.11Z" style="fill:rgb(209,122,71);"/>
                    <clipPath id="_clip2">
                        <path d="M19345.2,4092.11C19345.2,4050.39 19303.2,4016.52 19251.6,4016.52L19195.4,4016.52C19143.8,4016.52 19101.9,4050.39 19101.9,4092.11C19101.9,4133.84 19143.8,4167.71 19195.4,4167.71L19251.6,4167.71C19303.2,4167.71 19345.2,4133.84 19345.2,4092.11Z"/>
                    </clipPath>
                    <g clip-path="url(#_clip2)">
                        <g transform="matrix(1,0,0,0.814903,-9.9407,744.229)">
                            <rect x="19233.7" y="3975.2" width="154.215" height="241.645" style="fill:rgb(179,94,63);"/>
                        </g>
                    </g>
                </g>
                <g transform="matrix(1.26204,0,0,1.31868,-20470,-4556.73)">
                    <circle cx="19682.7" cy="3992.51" r="9.63" style="fill:rgb(225,169,136);"/>
                </g>
                <g transform="matrix(0.82035,0,0,0.618433,-11333.9,-1824.51)">
                    <path d="M19286.2,4016.01C19286.2,4010.47 19283,4005.99 19279,4005.99L19183.7,4005.99C19179.7,4005.99 19176.5,4010.47 19176.5,4016.01C19176.5,4021.54 19179.7,4026.03 19183.7,4026.03L19279,4026.03C19283,4026.03 19286.2,4021.54 19286.2,4016.01Z" style="fill:rgb(114,66,62);"/>
                    <clipPath id="_clip3">
                        <path d="M19286.2,4016.01C19286.2,4010.47 19283,4005.99 19279,4005.99L19183.7,4005.99C19179.7,4005.99 19176.5,4010.47 19176.5,4016.01C19176.5,4021.54 19179.7,4026.03 19183.7,4026.03L19279,4026.03C19283,4026.03 19286.2,4021.54 19286.2,4016.01Z"/>
                    </clipPath>
                    <g clip-path="url(#_clip3)">
                        <g transform="matrix(0.487442,-8.51083e-33,4.86738e-33,0.117354,9856.09,3533.23)">
                            <rect x="19233.7" y="3975.2" width="154.215" height="241.645" style="fill:rgb(91,52,49);"/>
                        </g>
                    </g>
                </g>
                <g transform="matrix(0.82035,0,0,0.610587,-11333.9,-1781.22)">
                    <path d="M19286.2,4016.01C19286.2,4010.47 19283,4005.99 19279.1,4005.99L19183.6,4005.99C19179.7,4005.99 19176.5,4010.47 19176.5,4016.01C19176.5,4021.54 19179.7,4026.03 19183.6,4026.03L19279.1,4026.03C19283,4026.03 19286.2,4021.54 19286.2,4016.01Z" style="fill:rgb(114,66,62);"/>
                    <clipPath id="_clip4">
                        <path d="M19286.2,4016.01C19286.2,4010.47 19283,4005.99 19279.1,4005.99L19183.6,4005.99C19179.7,4005.99 19176.5,4010.47 19176.5,4016.01C19176.5,4021.54 19179.7,4026.03 19183.6,4026.03L19279.1,4026.03C19283,4026.03 19286.2,4021.54 19286.2,4016.01Z"/>
                    </clipPath>
                    <g clip-path="url(#_clip4)">
                        <g transform="matrix(0.487442,-8.51083e-33,4.86738e-33,0.117354,9856.09,3533.23)">
                            <rect x="19233.7" y="3975.2" width="154.215" height="241.645" style="fill:rgb(91,52,49);"/>
                        </g>
                    </g>
                </g>
            </g>
            <g id="GemIcon" transform="matrix(1.28706,0,9.40464e-16,1.35625,4319.26,608.086)">
                <path d="M17.53,0L0.5,22.981C11.745,26.671 22.976,28.866 34.124,22.981C33.344,12.606 27.813,4.946 17.53,0Z" style="fill:rgb(0,229,255);fill-rule:nonzero;"/>
                <path d="M50.718,0C43.555,6.1 37.048,12.832 34.093,22.981C44.363,30.836 55.487,30.338 67.313,22.981C67.867,12.896 62.206,5.287 50.718,0Z" style="fill:rgb(0,203,244);fill-rule:nonzero;"/>
                <path d="M84.331,-0.028C75.465,5.708 68.284,12.464 67.313,22.981C78.572,29.86 89.531,26.231 100.5,22.981L84.331,-0.028Z" style="fill:rgb(0,184,240);fill-rule:nonzero;"/>
                <g transform="matrix(1,0,0,1,0,-0.4418)">
                    <path d="M67.313,23.592L84.343,0.442L50.675,0.442L67.313,23.592Z" style="fill:rgb(63,233,255);fill-rule:nonzero;"/>
                </g>
                <g transform="matrix(1,0,0,1,0,-0.4418)">
                    <path d="M34.124,23.44L50.718,0.442L17.53,0.442L34.124,23.44Z" style="fill:rgb(132,255,249);fill-rule:nonzero;"/>
                </g>
                <g transform="matrix(1,0,0,1,0,0.0099)">
                    <path d="M0.5,22.981L51.761,80.034C51.24,60.188 48.905,40.622 34.124,22.981L0.5,22.981Z" style="fill:rgb(132,255,249);fill-rule:nonzero;"/>
                </g>
                <path d="M34.124,22.981L51.75,80.038C60.947,62.614 69.665,45 67.313,22.981L34.124,22.981Z" style="fill:rgb(0,229,255);fill-rule:nonzero;"/>
                <g transform="matrix(1,0,0,1,0,0.1085)">
                    <path d="M100.5,22.866L51.752,79.93L67.313,22.866L100.5,22.866Z" style="fill:rgb(0,200,239);fill-rule:nonzero;"/>
                </g>
            </g>
        </g>
        <g id="Sparkle" transform="matrix(0.778652,0,0,0.82051,-10960.2,-2664.23)">
            <path d="M19613,3940.99L19617.4,3952.7L19629.1,3957.03L19617.4,3961.36L19613,3973.07L19608.7,3961.36L19597,3957.03L19608.7,3952.7L19613,3940.99Z" style="fill:rgb(0,229,255);"/>
        </g>
        <g id="Sparkle1" serif:id="Sparkle" transform="matrix(0.778652,0,0,0.82051,-10987.9,-2585.36)">
            <path d="M19613,3940.99L19617.4,3952.7L19629.1,3957.03L19617.4,3961.36L19613,3973.07L19608.7,3961.36L19597,3957.03L19608.7,3952.7L19613,3940.99Z" style="fill:rgb(0,229,255);"/>
        </g>
        <g id="Sparkle2" serif:id="Sparkle" transform="matrix(0.778652,0,0,0.82051,-11001.6,-2638.14)">
            <path d="M19613,3940.99L19617.4,3952.7L19629.1,3957.03L19617.4,3961.36L19613,3973.07L19608.7,3961.36L19597,3957.03L19608.7,3952.7L19613,3940.99Z" style="fill:rgb(0,229,255);"/>
        </g>
    </g>
</svg>
