<?xml version="1.0" encoding="UTF-8" standalone="no"?>
<!DOCTYPE svg PUBLIC "-//W3C//DTD SVG 1.1//EN" "http://www.w3.org/Graphics/SVG/1.1/DTD/svg11.dtd">
<svg width="100%" height="100%" viewBox="0 0 512 512" version="1.1" xmlns="http://www.w3.org/2000/svg" xmlns:xlink="http://www.w3.org/1999/xlink" xml:space="preserve" xmlns:serif="http://www.serif.com/" style="fill-rule:evenodd;clip-rule:evenodd;stroke-linejoin:round;stroke-miterlimit:2;">
    <g id="GiftRedIcon" transform="matrix(3.74762,0,0,3.74762,-1197.88,-1834.09)">
        <g transform="matrix(1,0,0,1,-4.15029,8.37373)">
            <g transform="matrix(1,0,0,1,4.15029,-8.25052)">
                <path d="M358.264,518.923L355.678,516.337C350.435,511.094 350.435,502.58 355.678,497.337C360.921,492.094 369.434,492.094 374.677,497.337L387.948,510.608L401.219,497.337C406.462,492.094 414.975,492.094 420.218,497.337C425.461,502.58 425.461,511.094 420.218,516.337L417.632,518.923L406.548,518.923L413.95,511.52C416.134,509.336 416.134,505.789 413.95,503.605C411.766,501.421 408.219,501.421 406.035,503.605L393.292,516.348C393.828,517.166 394.267,518.03 394.606,518.923L381.29,518.923C381.629,518.03 382.068,517.166 382.604,516.348L369.861,503.605C367.677,501.421 364.13,501.421 361.946,503.605C359.762,505.789 359.762,509.336 361.946,511.52L369.348,518.923L358.264,518.923Z" style="fill:rgb(253,204,79);"/>
                <clipPath id="_clip1">
                    <path d="M358.264,518.923L355.678,516.337C350.435,511.094 350.435,502.58 355.678,497.337C360.921,492.094 369.434,492.094 374.677,497.337L387.948,510.608L401.219,497.337C406.462,492.094 414.975,492.094 420.218,497.337C425.461,502.58 425.461,511.094 420.218,516.337L417.632,518.923L406.548,518.923L413.95,511.52C416.134,509.336 416.134,505.789 413.95,503.605C411.766,501.421 408.219,501.421 406.035,503.605L393.292,516.348C393.828,517.166 394.267,518.03 394.606,518.923L381.29,518.923C381.629,518.03 382.068,517.166 382.604,516.348L369.861,503.605C367.677,501.421 364.13,501.421 361.946,503.605C359.762,505.789 359.762,509.336 361.946,511.52L369.348,518.923L358.264,518.923Z"/>
                </clipPath>
                <g clip-path="url(#_clip1)">
                    <g transform="matrix(0.85371,0,0,0.821686,56.7817,94.1822)">
                        <rect x="388.144" y="482.682" width="44.718" height="45.499" style="fill:rgb(254,166,30);"/>
                    </g>
                </g>
            </g>
        </g>
        <g transform="matrix(0.556724,0,0,1,257.259,17.6856)">
            <path d="M247.809,498.807L132.313,498.807C125.297,498.807 119.601,501.978 119.601,505.884L119.601,520.038C119.601,523.944 125.297,527.115 132.313,527.115L247.809,527.115L247.809,498.807Z" style="fill:rgb(243,87,87);"/>
        </g>
        <g transform="matrix(0.576814,0,0,0.861764,304.804,101.513)">
            <path d="M236.288,513.133L129.971,513.133L129.971,603.856L226.478,603.856C231.892,603.856 236.288,600.914 236.288,597.29L236.288,513.133Z" style="fill:rgb(215,71,71);"/>
        </g>
        <g transform="matrix(0.556233,0,0,0.861764,262.504,101.513)">
            <path d="M236.288,513.133L129.971,513.133L129.971,597.524C129.971,601.019 134.366,603.856 139.78,603.856L236.288,603.856L236.288,513.133Z" style="fill:rgb(243,87,87);"/>
        </g>
        <g transform="matrix(0.57084,0,0,1,310.593,17.6856)">
            <path d="M247.809,505.884C247.809,501.978 242.254,498.807 235.411,498.807L119.601,498.807L119.601,527.115L235.411,527.115C242.254,527.115 247.809,523.944 247.809,520.038L247.809,505.884Z" style="fill:rgb(215,71,71);"/>
        </g>
        <g transform="matrix(2.01297,0,0,0.496625,-367.106,290.502)">
            <rect x="377.941" y="512.115" width="23.557" height="36.388" style="fill:rgb(184,50,50);"/>
        </g>
        <g transform="matrix(2.26597,0,0,0.496625,-521.604,290.502)">
            <rect x="377.941" y="512.115" width="23.557" height="36.388" style="fill:rgb(201,57,57);"/>
        </g>
        <g transform="matrix(0.54047,0,0,2.89956,171.904,-968.522)">
            <rect x="377.941" y="512.115" width="23.557" height="36.388" style="fill:rgb(255,203,80);"/>
        </g>
        <g transform="matrix(0.269662,0,0,2.31893,283.477,-602.92)">
            <rect x="388.144" y="482.682" width="44.718" height="45.499" style="fill:rgb(254,166,30);"/>
        </g>
        <g transform="matrix(0.682685,0,0,0.496625,118.154,290.502)">
            <rect x="377.941" y="512.115" width="23.557" height="36.388" style="fill:rgb(254,161,30);"/>
        </g>
        <g transform="matrix(0.510772,0,0,0.496625,195.103,290.502)">
            <rect x="377.941" y="512.115" width="23.557" height="36.388" style="fill:rgb(229,115,34);"/>
        </g>
    </g>
</svg>
