<?xml version="1.0" encoding="UTF-8" standalone="no"?>
<!DOCTYPE svg PUBLIC "-//W3C//DTD SVG 1.1//EN" "http://www.w3.org/Graphics/SVG/1.1/DTD/svg11.dtd">
<svg width="100%" height="100%" viewBox="0 0 512 512" version="1.1" xmlns="http://www.w3.org/2000/svg" xmlns:xlink="http://www.w3.org/1999/xlink" xml:space="preserve" xmlns:serif="http://www.serif.com/" style="fill-rule:evenodd;clip-rule:evenodd;stroke-linejoin:round;stroke-miterlimit:2;">
    <g id="GraveIcon" transform="matrix(15.2741,0,0,14.4949,-71267.5,-13804.3)">
        <g transform="matrix(0.82115,0,0,1.08388,3738.88,-3320.34)">
            <path d="M1165.46,3969.08C1165.46,3968.16 1164.53,3967.42 1163.38,3967.42L1135.35,3967.42C1134.2,3967.42 1133.27,3968.16 1133.27,3969.08L1133.27,3972.39C1133.27,3973.3 1134.2,3974.05 1135.35,3974.05L1163.38,3974.05C1164.53,3974.05 1165.46,3973.3 1165.46,3972.39L1165.46,3969.08Z" style="fill:rgb(176,153,145);"/>
            <clipPath id="_clip1">
                <path d="M1165.46,3969.08C1165.46,3968.16 1164.53,3967.42 1163.38,3967.42L1135.35,3967.42C1134.2,3967.42 1133.27,3968.16 1133.27,3969.08L1133.27,3972.39C1133.27,3973.3 1134.2,3974.05 1135.35,3974.05L1163.38,3974.05C1164.53,3974.05 1165.46,3973.3 1165.46,3972.39L1165.46,3969.08Z"/>
            </clipPath>
            <g clip-path="url(#_clip1)">
                <g transform="matrix(0.810955,0,0,0.185893,-1449.55,3280.68)">
                    <rect x="3204.69" y="3690.24" width="21.512" height="44.777" style="fill:rgb(140,112,112);"/>
                </g>
            </g>
        </g>
        <g transform="matrix(0.957992,0,0,1.00949,3584.02,-3018.19)">
            <path d="M1158.46,3958.11L1135.21,3958.11C1134.5,3958.11 1133.92,3957.53 1133.92,3956.82L1133.92,3946.78C1133.92,3939.65 1139.71,3933.86 1146.84,3933.86C1153.97,3933.86 1159.76,3939.65 1159.76,3946.78L1159.76,3956.82C1159.76,3957.53 1159.18,3958.11 1158.46,3958.11Z" style="fill:rgb(176,153,145);"/>
            <clipPath id="_clip2">
                <path d="M1158.46,3958.11L1135.21,3958.11C1134.5,3958.11 1133.92,3957.53 1133.92,3956.82L1133.92,3946.78C1133.92,3939.65 1139.71,3933.86 1146.84,3933.86C1153.97,3933.86 1159.76,3939.65 1159.76,3946.78L1159.76,3956.82C1159.76,3957.53 1159.18,3958.11 1158.46,3958.11Z"/>
            </clipPath>
            <g clip-path="url(#_clip2)">
                <g transform="matrix(1,0,0,0.59722,-2057.9,1728.56)">
                    <rect x="3204.69" y="3690.24" width="21.512" height="44.777" style="fill:rgb(140,112,112);"/>
                </g>
            </g>
        </g>
        <g transform="matrix(0.957992,0,0,1.00949,1612.57,-2779.53)">
            <path d="M3205.58,3702.96C3206.03,3702.96 3206.39,3703.32 3206.39,3703.76L3206.39,3706.85L3209.38,3706.85C3209.83,3706.85 3210.19,3707.21 3210.19,3707.66L3210.19,3709.28C3210.19,3709.72 3209.83,3710.09 3209.38,3710.09L3206.39,3710.09L3206.39,3717.45C3206.39,3717.89 3206.03,3718.26 3205.58,3718.26L3203.97,3718.26C3203.52,3718.26 3203.16,3717.89 3203.16,3717.45L3203.16,3710.09L3199.97,3710.09C3199.53,3710.09 3199.16,3709.72 3199.16,3709.28L3199.16,3707.66C3199.16,3707.21 3199.53,3706.85 3199.97,3706.85L3203.16,3706.85L3203.16,3703.76C3203.16,3703.32 3203.52,3702.96 3203.97,3702.96L3205.58,3702.96Z" style="fill:rgb(235,239,243);"/>
            <clipPath id="_clip3">
                <path d="M3205.58,3702.96C3206.03,3702.96 3206.39,3703.32 3206.39,3703.76L3206.39,3706.85L3209.38,3706.85C3209.83,3706.85 3210.19,3707.21 3210.19,3707.66L3210.19,3709.28C3210.19,3709.72 3209.83,3710.09 3209.38,3710.09L3206.39,3710.09L3206.39,3717.45C3206.39,3717.89 3206.03,3718.26 3205.58,3718.26L3203.97,3718.26C3203.52,3718.26 3203.16,3717.89 3203.16,3717.45L3203.16,3710.09L3199.97,3710.09C3199.53,3710.09 3199.16,3709.72 3199.16,3709.28L3199.16,3707.66C3199.16,3707.21 3199.53,3706.85 3199.97,3706.85L3203.16,3706.85L3203.16,3703.76C3203.16,3703.32 3203.52,3702.96 3203.97,3702.96L3205.58,3702.96Z"/>
            </clipPath>
            <g clip-path="url(#_clip3)">
                <g transform="matrix(0.321377,0,0,0.365209,2174.78,2354.66)">
                    <rect x="3204.69" y="3690.24" width="21.512" height="44.777" style="fill:rgb(173,185,201);"/>
                </g>
            </g>
        </g>
    </g>
</svg>
