<?xml version="1.0" encoding="UTF-8" standalone="no"?>
<!DOCTYPE svg PUBLIC "-//W3C//DTD SVG 1.1//EN" "http://www.w3.org/Graphics/SVG/1.1/DTD/svg11.dtd">
<svg width="100%" height="100%" viewBox="0 0 512 512" version="1.1" xmlns="http://www.w3.org/2000/svg" xmlns:xlink="http://www.w3.org/1999/xlink" xml:space="preserve" xmlns:serif="http://www.serif.com/" style="fill-rule:evenodd;clip-rule:evenodd;stroke-linejoin:round;stroke-miterlimit:2;">
    <g id="GunRedIcon" transform="matrix(3.51064,0,0,4.27509,1536.63,-26196)">
        <g transform="matrix(1.191,0,0,0.978031,-1207.35,127.759)">
            <path d="M687.739,6146.96C687.739,6144.79 685.977,6143.03 683.806,6143.03L670.347,6143.03C668.176,6143.03 666.414,6144.79 666.414,6146.96L666.414,6154.83C666.414,6157 668.176,6158.76 670.347,6158.76L683.806,6158.76C685.977,6158.76 687.739,6157 687.739,6154.83L687.739,6146.96Z" style="fill:rgb(67,74,84);"/>
        </g>
        <g transform="matrix(0.578976,0,0,1.16979,-754.337,-1051.51)">
            <path d="M744.669,6149.46C744.669,6148.13 742.013,6147.05 738.743,6147.05L726.89,6147.05C723.619,6147.05 720.964,6148.13 720.964,6149.46L720.964,6154.73C720.964,6156.06 723.619,6157.14 726.89,6157.14L738.743,6157.14C742.013,6157.14 744.669,6156.06 744.669,6154.73L744.669,6149.46Z" style="fill:rgb(67,74,84);"/>
        </g>
        <g transform="matrix(1.191,0,0,1.63152,-1183.27,-3885.82)">
            <path d="M709.597,6144.47C709.597,6143.66 708.494,6143 707.135,6143C705.776,6143 704.673,6143.66 704.673,6144.47L704.673,6167.96C704.673,6168.77 705.776,6169.43 707.135,6169.43C708.494,6169.43 709.597,6168.77 709.597,6167.96L709.597,6144.47Z" style="fill:rgb(170,178,188);"/>
        </g>
        <g transform="matrix(0.920862,0,0,0.756198,-1020.04,1493.41)">
            <path d="M718.159,6175.2C730.139,6175.2 739.866,6184.93 739.866,6196.91C739.866,6208.89 730.139,6218.61 718.159,6218.61C706.178,6218.61 696.452,6208.89 696.452,6196.91C696.452,6184.93 706.178,6175.2 718.159,6175.2ZM718.159,6180.84C727.026,6180.84 734.225,6188.04 734.225,6196.91C734.225,6205.77 727.026,6212.97 718.159,6212.97C709.292,6212.97 702.093,6205.77 702.093,6196.91C702.093,6188.04 709.292,6180.84 718.159,6180.84Z" style="fill:rgb(170,178,188);"/>
        </g>
        <g transform="matrix(0.662191,0.543781,-0.684003,0.561693,3405.91,2307.46)">
            <path d="M727.681,6200.06C727.681,6198.19 726.114,6196.68 724.184,6196.68L709.048,6196.68C707.118,6196.68 705.551,6198.19 705.551,6200.06C705.551,6201.93 707.118,6203.45 709.048,6203.45L724.184,6203.45C726.114,6203.45 727.681,6201.93 727.681,6200.06Z" style="fill:rgb(221,98,110);"/>
        </g>
        <g transform="matrix(1.191,0,0,0.978031,-1212.72,124.82)">
            <path d="M707.798,6219.74C707.798,6217.02 705.589,6214.81 702.869,6214.81L693.011,6214.81C690.29,6214.81 688.082,6217.02 688.082,6219.74L688.082,6246.7C688.082,6249.42 690.29,6251.63 693.011,6251.63L702.869,6251.63C705.589,6251.63 707.798,6249.42 707.798,6246.7L707.798,6219.74Z" style="fill:rgb(224,112,123);"/>
            <clipPath id="_clip1">
                <path d="M707.798,6219.74C707.798,6217.02 705.589,6214.81 702.869,6214.81L693.011,6214.81C690.29,6214.81 688.082,6217.02 688.082,6219.74L688.082,6246.7C688.082,6249.42 690.29,6251.63 693.011,6251.63L702.869,6251.63C705.589,6251.63 707.798,6249.42 707.798,6246.7L707.798,6219.74Z"/>
            </clipPath>
            <g clip-path="url(#_clip1)">
                <rect x="697.507" y="6219.02" width="25.093" height="38.57" style="fill:rgb(201,82,94);"/>
            </g>
        </g>
        <g transform="matrix(1.191,0,0,0.978031,-1212.72,124.82)">
            <path d="M713.085,6182.6C713.085,6178.4 709.676,6174.99 705.476,6174.99L690.258,6174.99C686.059,6174.99 682.65,6178.4 682.65,6182.6L682.65,6221.09C682.65,6225.29 686.059,6228.7 690.258,6228.7L705.476,6228.7C709.676,6228.7 713.085,6225.29 713.085,6221.09L713.085,6182.6Z" style="fill:rgb(124,131,141);"/>
            <clipPath id="_clip2">
                <path d="M713.085,6182.6C713.085,6178.4 709.676,6174.99 705.476,6174.99L690.258,6174.99C686.059,6174.99 682.65,6178.4 682.65,6182.6L682.65,6221.09C682.65,6225.29 686.059,6228.7 690.258,6228.7L705.476,6228.7C709.676,6228.7 713.085,6225.29 713.085,6221.09L713.085,6182.6Z"/>
            </clipPath>
            <g clip-path="url(#_clip2)">
                <g transform="matrix(1,0,0,1.32895,0,-2082.95)">
                    <rect x="697.507" y="6219.02" width="25.093" height="38.57" style="fill:rgb(105,112,121);"/>
                </g>
            </g>
        </g>
        <g transform="matrix(0.636107,0,0,0.317236,-773.806,4202.54)">
            <path d="M752.639,6161.94C752.639,6156.98 750.194,6152.95 747.183,6152.95L666.587,6152.95C663.575,6152.95 661.13,6156.98 661.13,6161.94L661.13,6179.91C661.13,6184.87 663.575,6188.89 666.587,6188.89L747.183,6188.89C750.194,6188.89 752.639,6184.87 752.639,6179.91L752.639,6161.94Z" style="fill:rgb(183,190,198);"/>
            <clipPath id="_clip3">
                <path d="M752.639,6161.94C752.639,6156.98 750.194,6152.95 747.183,6152.95L666.587,6152.95C663.575,6152.95 661.13,6156.98 661.13,6161.94L661.13,6179.91C661.13,6184.87 663.575,6188.89 666.587,6188.89L747.183,6188.89C750.194,6188.89 752.639,6184.87 752.639,6179.91L752.639,6161.94Z"/>
            </clipPath>
            <g clip-path="url(#_clip3)">
                <g transform="matrix(1.45994,0,0,1.02456,-298.465,-200.984)">
                    <rect x="697.507" y="6219.02" width="25.093" height="38.57" style="fill:rgb(170,178,188);"/>
                </g>
            </g>
        </g>
        <g transform="matrix(0.163179,0,0,0.595528,-431.426,2485.22)">
            <path d="M752.639,6158.1C752.639,6155.26 742.388,6152.95 729.762,6152.95L684.008,6152.95C671.381,6152.95 661.13,6155.26 661.13,6158.1L661.13,6183.74C661.13,6186.59 671.381,6188.89 684.008,6188.89L729.762,6188.89C742.388,6188.89 752.639,6186.59 752.639,6183.74L752.639,6158.1Z" style="fill:rgb(79,88,99);"/>
            <clipPath id="_clip4">
                <path d="M752.639,6158.1C752.639,6155.26 742.388,6152.95 729.762,6152.95L684.008,6152.95C671.381,6152.95 661.13,6155.26 661.13,6158.1L661.13,6183.74C661.13,6186.59 671.381,6188.89 684.008,6188.89L729.762,6188.89C742.388,6188.89 752.639,6186.59 752.639,6183.74L752.639,6158.1Z"/>
            </clipPath>
            <g clip-path="url(#_clip4)">
                <g transform="matrix(2.06467,0,0,0.545781,-732.151,2776.63)">
                    <rect x="697.507" y="6219.02" width="25.093" height="38.57" style="fill:rgb(67,74,84);"/>
                </g>
            </g>
        </g>
        <g transform="matrix(1.191,0,0,0.978031,-1204.68,125.22)">
            <path d="M674.528,6164.99C674.528,6161.94 672.052,6159.46 669.003,6159.46L652.174,6159.46C649.124,6159.46 646.648,6161.94 646.648,6164.99L646.648,6176.04C646.648,6179.09 649.124,6181.57 652.174,6181.57L669.003,6181.57C672.052,6181.57 674.528,6179.09 674.528,6176.04L674.528,6164.99Z" style="fill:rgb(180,188,202);"/>
            <clipPath id="_clip5">
                <path d="M674.528,6164.99C674.528,6161.94 672.052,6159.46 669.003,6159.46L652.174,6159.46C649.124,6159.46 646.648,6161.94 646.648,6164.99L646.648,6176.04C646.648,6179.09 649.124,6181.57 652.174,6181.57L669.003,6181.57C672.052,6181.57 674.528,6179.09 674.528,6176.04L674.528,6164.99Z"/>
            </clipPath>
            <g clip-path="url(#_clip5)">
                <g transform="matrix(0.857137,0,0,0.587408,44.6947,2517.37)">
                    <rect x="697.507" y="6219.02" width="25.093" height="38.57" style="fill:rgb(136,144,154);"/>
                </g>
            </g>
        </g>
        <g transform="matrix(1.21776,0,0,0.978031,-1230.41,124.82)">
            <path d="M752.639,6161.94C752.639,6156.98 748.702,6152.95 743.852,6152.95L669.917,6152.95C665.068,6152.95 661.13,6156.98 661.13,6161.94L661.13,6179.91C661.13,6184.87 665.068,6188.89 669.917,6188.89L743.852,6188.89C748.702,6188.89 752.639,6184.87 752.639,6179.91L752.639,6161.94Z" style="fill:rgb(180,188,202);"/>
            <clipPath id="_clip6">
                <path d="M752.639,6161.94C752.639,6156.98 748.702,6152.95 743.852,6152.95L669.917,6152.95C665.068,6152.95 661.13,6156.98 661.13,6161.94L661.13,6179.91C661.13,6184.87 665.068,6188.89 669.917,6188.89L743.852,6188.89C748.702,6188.89 752.639,6184.87 752.639,6179.91L752.639,6161.94Z"/>
            </clipPath>
            <g clip-path="url(#_clip6)">
                <g transform="matrix(3.72072,0,0,0.587408,-1934.9,2517.78)">
                    <rect x="697.507" y="6219.02" width="25.093" height="38.57" style="fill:rgb(136,144,154);"/>
                </g>
                <g transform="matrix(0.978023,0,0,1,14.6603,-2.52662)">
                    <path d="M742.887,6167.01C742.887,6165.38 741.569,6164.07 739.947,6164.07L679.085,6164.07C677.463,6164.07 676.145,6165.38 676.145,6167.01C676.145,6168.63 677.463,6169.95 679.085,6169.95L739.947,6169.95C741.569,6169.95 742.887,6168.63 742.887,6167.01Z" style="fill:rgb(67,74,84);"/>
                </g>
                <g transform="matrix(0.978023,0,0,1,14.6603,7.3114)">
                    <path d="M742.887,6167.01C742.887,6165.38 741.569,6164.07 739.947,6164.07L679.085,6164.07C677.463,6164.07 676.145,6165.38 676.145,6167.01C676.145,6168.63 677.463,6169.95 679.085,6169.95L739.947,6169.95C741.569,6169.95 742.887,6168.63 742.887,6167.01Z" style="fill:rgb(67,74,84);"/>
                </g>
            </g>
        </g>
        <g transform="matrix(1.44845,0,0,0.751843,-1398.01,1509.65)">
            <path d="M742.887,6167.01C742.887,6165.38 742.054,6164.07 741.028,6164.07L678.004,6164.07C676.978,6164.07 676.145,6165.38 676.145,6167.01C676.145,6168.63 676.978,6169.95 678.004,6169.95L741.028,6169.95C742.054,6169.95 742.887,6168.63 742.887,6167.01Z" style="fill:rgb(207,213,221);"/>
        </g>
        <g transform="matrix(1.191,0,0,0.978031,-1212.72,124.334)">
            <circle cx="661.705" cy="6171.42" r="2.51" style="fill:rgb(221,98,110);"/>
        </g>
    </g>
</svg>
