<?xml version="1.0" encoding="UTF-8" standalone="no"?>
<!DOCTYPE svg PUBLIC "-//W3C//DTD SVG 1.1//EN" "http://www.w3.org/Graphics/SVG/1.1/DTD/svg11.dtd">
<svg width="100%" height="100%" viewBox="0 0 512 512" version="1.1" xmlns="http://www.w3.org/2000/svg" xmlns:xlink="http://www.w3.org/1999/xlink" xml:space="preserve" xmlns:serif="http://www.serif.com/" style="fill-rule:evenodd;clip-rule:evenodd;stroke-linejoin:round;stroke-miterlimit:2;">
    <g id="GunStraightIcon" transform="matrix(3.543,-3.48252e-16,-2.85979e-16,3.36226,-16490.3,-6250.31)">
        <g transform="matrix(0.895455,1.81828e-32,2.61324e-32,0.943593,3659.13,-2593.78)">
            <path d="M1175.32,4787.44C1186.33,4787.44 1195.27,4796.38 1195.27,4807.39C1195.27,4818.41 1186.33,4827.35 1175.32,4827.35C1164.31,4827.35 1155.36,4818.41 1155.36,4807.39C1155.36,4796.38 1164.31,4787.44 1175.32,4787.44ZM1175.32,4791.44C1184.12,4791.44 1191.27,4798.59 1191.27,4807.39C1191.27,4816.2 1184.12,4823.34 1175.32,4823.34C1166.52,4823.34 1159.37,4816.2 1159.37,4807.39C1159.37,4798.59 1166.52,4791.44 1175.32,4791.44Z" style="fill:rgb(54,54,54);"/>
        </g>
        <g transform="matrix(0.87947,-0.535058,0.656884,1.19892,515.219,-3187.61)">
            <path d="M1179.62,4800.19C1179.62,4799.28 1178.67,4798.54 1177.5,4798.54L1176.67,4798.54C1175.5,4798.54 1174.55,4799.28 1174.55,4800.19L1174.55,4811.89C1174.55,4812.8 1175.5,4813.53 1176.67,4813.53L1177.5,4813.53C1178.67,4813.53 1179.62,4812.8 1179.62,4811.89L1179.62,4800.19Z" style="fill:rgb(54,54,54);"/>
        </g>
        <g transform="matrix(0.858325,-1.56658,1.69602,1.03183,-6960.95,-1024.98)">
            <path d="M1993.85,5870.19C1993.85,5866.09 1990.05,5862.76 1985.38,5862.76L1959.27,5862.76C1954.59,5862.76 1950.8,5866.09 1950.8,5870.19C1950.8,5874.29 1954.59,5877.62 1959.27,5877.62L1985.38,5877.62C1990.05,5877.62 1993.85,5874.29 1993.85,5870.19Z" style="fill:rgb(151,107,94);"/>
            <clipPath id="_clip1">
                <path d="M1993.85,5870.19C1993.85,5866.09 1990.05,5862.76 1985.38,5862.76L1959.27,5862.76C1954.59,5862.76 1950.8,5866.09 1950.8,5870.19C1950.8,5874.29 1954.59,5877.62 1959.27,5877.62L1985.38,5877.62C1990.05,5877.62 1993.85,5874.29 1993.85,5870.19Z"/>
            </clipPath>
            <g clip-path="url(#_clip1)">
                <g transform="matrix(1,2.22045e-16,2.22045e-16,1,-2.2678,7.4188)">
                    <rect x="1950.8" y="5862.76" width="43.056" height="14.854" style="fill:rgb(123,87,77);"/>
                </g>
            </g>
        </g>
        <g>
            <g transform="matrix(0.957992,0,0,1.00949,3582.13,-2911.1)">
                <path d="M1142.65,4766.04C1141.39,4765.96 1140.31,4766.89 1140.19,4768.14C1140.03,4769.55 1139.86,4771.39 1139.72,4772.82C1139.61,4774 1140.4,4775.08 1141.56,4775.33C1144.61,4776.02 1150.24,4778.53 1152.77,4787.66C1156.33,4800.51 1157.45,4776.12 1157.45,4776.12C1157.45,4776.12 1154.88,4766.73 1142.65,4766.04Z" style="fill:rgb(54,54,54);"/>
            </g>
            <g transform="matrix(0.951507,-1.88435e-17,1.5474e-17,1.19436,3634.8,-3681.12)">
                <path d="M1187.17,4676.25C1187.17,4676.25 1194.29,4669.14 1196.3,4667.13C1196.63,4666.79 1197.09,4666.6 1197.57,4666.6C1198.62,4666.6 1200.58,4666.6 1202.02,4666.6C1203.01,4666.6 1203.81,4667.4 1203.81,4668.39C1203.81,4671.55 1203.81,4677.77 1203.81,4677.77L1187.17,4676.25Z" style="fill:rgb(130,136,139);"/>
            </g>
            <g transform="matrix(0.951507,-1.88435e-17,1.5474e-17,1.19436,3556.24,-3778.6)">
                <path d="M1274.73,4770.85C1274.73,4768.76 1272.7,4767.06 1270.21,4767.06L1198.57,4767.06C1196.07,4767.06 1194.05,4768.76 1194.05,4770.85L1194.05,4778.44C1194.05,4780.53 1196.07,4782.23 1198.57,4782.23L1270.21,4782.23C1272.7,4782.23 1274.73,4780.53 1274.73,4778.44L1274.73,4770.85Z" style="fill:rgb(147,152,155);"/>
                <clipPath id="_clip2">
                    <path d="M1274.73,4770.85C1274.73,4768.76 1272.7,4767.06 1270.21,4767.06L1198.57,4767.06C1196.07,4767.06 1194.05,4768.76 1194.05,4770.85L1194.05,4778.44C1194.05,4780.53 1196.07,4782.23 1198.57,4782.23L1270.21,4782.23C1272.7,4782.23 1274.73,4780.53 1274.73,4778.44L1274.73,4770.85Z"/>
                </clipPath>
                <g clip-path="url(#_clip2)">
                    <g transform="matrix(1,0,0,1,0,-1.80802)">
                        <rect x="1178.39" y="4776.82" width="103.593" height="10.715" style="fill:rgb(108,114,117);"/>
                    </g>
                </g>
            </g>
            <g transform="matrix(0.951507,-1.88435e-17,1.5474e-17,1.19436,3578.1,-3794.92)">
                <path d="M1274.73,4770.85C1274.73,4768.76 1272.7,4767.06 1270.21,4767.06L1198.57,4767.06C1196.07,4767.06 1194.05,4768.76 1194.05,4770.85L1194.05,4778.44C1194.05,4780.53 1196.07,4782.23 1198.57,4782.23L1270.21,4782.23C1272.7,4782.23 1274.73,4780.53 1274.73,4778.44L1274.73,4770.85Z" style="fill:rgb(147,152,155);"/>
                <clipPath id="_clip3">
                    <path d="M1274.73,4770.85C1274.73,4768.76 1272.7,4767.06 1270.21,4767.06L1198.57,4767.06C1196.07,4767.06 1194.05,4768.76 1194.05,4770.85L1194.05,4778.44C1194.05,4780.53 1196.07,4782.23 1198.57,4782.23L1270.21,4782.23C1272.7,4782.23 1274.73,4780.53 1274.73,4778.44L1274.73,4770.85Z"/>
                </clipPath>
                <g clip-path="url(#_clip3)">
                    <g transform="matrix(1,0,0,1,0,-1.80802)">
                        <rect x="1178.39" y="4776.82" width="103.593" height="10.715" style="fill:rgb(108,114,117);"/>
                    </g>
                </g>
            </g>
            <g transform="matrix(0.918534,-1.77236e-18,9.86939e-18,1.08725,3633.49,-3282.14)">
                <path d="M1201.75,4759.03L1154.24,4759.03C1149.02,4759.03 1144.78,4762.81 1144.78,4767.45L1144.78,4795.31C1144.78,4799.95 1149.02,4803.72 1154.24,4803.72L1201.75,4803.72L1201.75,4759.03Z" style="fill:rgb(76,82,89);"/>
            </g>
            <g transform="matrix(1.15423,2.13405e-32,0,1.15423,-722.657,-297.171)">
                <g transform="matrix(0.526811,-6.84228e-49,0,0.586709,4089.66,-888.823)">
                    <path d="M1201.75,4759.03L1159.06,4759.03C1151.18,4759.03 1144.78,4765.09 1144.78,4772.55L1144.78,4790.21C1144.78,4797.67 1151.18,4803.72 1159.06,4803.72L1201.75,4803.72L1201.75,4759.03Z" style="fill:rgb(89,96,104);"/>
                </g>
                <g transform="matrix(0.957992,-6.84228e-49,0,1.00949,3580.29,-2911.09)">
                    <path d="M1189.85,4777.31C1189.85,4775.36 1188.26,4773.77 1186.3,4773.77L1173.9,4773.77C1171.94,4773.77 1170.35,4775.36 1170.35,4777.31C1170.35,4779.27 1171.94,4780.86 1173.9,4780.86L1186.3,4780.86C1188.26,4780.86 1189.85,4779.27 1189.85,4777.31Z" style="fill:rgb(52,56,60);"/>
                </g>
                <g transform="matrix(0.957992,-6.84228e-49,0,1.00949,3580.29,-2901.91)">
                    <path d="M1189.85,4777.31C1189.85,4775.36 1188.26,4773.77 1186.3,4773.77L1173.9,4773.77C1171.94,4773.77 1170.35,4775.36 1170.35,4777.31C1170.35,4779.27 1171.94,4780.86 1173.9,4780.86L1186.3,4780.86C1188.26,4780.86 1189.85,4779.27 1189.85,4777.31Z" style="fill:rgb(52,56,60);"/>
                </g>
            </g>
        </g>
    </g>
</svg>
