<?xml version="1.0" encoding="UTF-8" standalone="no"?>
<!DOCTYPE svg PUBLIC "-//W3C//DTD SVG 1.1//EN" "http://www.w3.org/Graphics/SVG/1.1/DTD/svg11.dtd">
<svg width="100%" height="100%" viewBox="0 0 512 512" version="1.1" xmlns="http://www.w3.org/2000/svg" xmlns:xlink="http://www.w3.org/1999/xlink" xml:space="preserve" xmlns:serif="http://www.serif.com/" style="fill-rule:evenodd;clip-rule:evenodd;stroke-linejoin:round;stroke-miterlimit:2;">
    <g id="HandgranateIcon" transform="matrix(2.24217,0,0,2.12778,-10261.3,-3528.95)">
        <g transform="matrix(1.57126,0,0,1.00949,2818.37,-2911)">
            <path d="M1194.04,4542.35C1222.04,4542.76 1248.37,4581.64 1249.13,4630.98C1249.19,4634.88 1248.41,4639.1 1246.02,4640.33C1243.05,4641.86 1240.28,4637.54 1240.19,4631.36C1239.51,4592.06 1218.15,4557.02 1193.32,4557.02C1193.32,4557.02 1190.08,4556.25 1189.15,4552.32C1188.15,4548.07 1190.1,4542.69 1193.02,4542.37C1193.36,4542.33 1193.7,4542.35 1194.04,4542.35Z" style="fill:rgb(84,84,84);"/>
        </g>
        <g transform="matrix(1.03372,0,0,1.06467,3302.38,-3180.89)">
            <path d="M1397.64,4675.18C1397.64,4638.29 1368.37,4608.33 1332.3,4608.33C1296.24,4608.33 1266.96,4638.29 1266.96,4675.18L1266.96,4700.85C1266.96,4737.75 1296.24,4767.71 1332.3,4767.71C1368.37,4767.71 1397.64,4737.75 1397.64,4700.85L1397.64,4675.18Z" style="fill:rgb(140,177,77);"/>
            <clipPath id="_clip1">
                <path d="M1397.64,4675.18C1397.64,4638.29 1368.37,4608.33 1332.3,4608.33C1296.24,4608.33 1266.96,4638.29 1266.96,4675.18L1266.96,4700.85C1266.96,4737.75 1296.24,4767.71 1332.3,4767.71C1368.37,4767.71 1397.64,4737.75 1397.64,4700.85L1397.64,4675.18Z"/>
            </clipPath>
            <g clip-path="url(#_clip1)">
                <g transform="matrix(0.926743,0,0,0.948174,270.627,253.406)">
                    <rect x="1145.06" y="4588.73" width="91.784" height="181.861" style="fill:rgb(112,141,61);"/>
                </g>
            </g>
        </g>
        <g transform="matrix(0.957992,0,0,1.00949,3582.13,-2911.1)">
            <circle cx="1106.88" cy="4635.65" r="10.899" style="fill:rgb(213,227,190);"/>
        </g>
        <g transform="matrix(0.90305,0,0,1.00949,3645.08,-2911.1)">
            <path d="M1233.42,4677.47C1233.42,4670.83 1227.7,4665.43 1220.65,4665.43L1070.54,4665.43C1063.49,4665.43 1057.77,4670.83 1057.77,4677.47C1057.77,4684.11 1063.49,4689.51 1070.54,4689.51L1220.65,4689.51C1227.7,4689.51 1233.42,4684.11 1233.42,4677.47Z" style="fill:rgb(124,157,68);"/>
            <clipPath id="_clip2">
                <path d="M1233.42,4677.47C1233.42,4670.83 1227.7,4665.43 1220.65,4665.43L1070.54,4665.43C1063.49,4665.43 1057.77,4670.83 1057.77,4677.47C1057.77,4684.11 1063.49,4689.51 1070.54,4689.51L1220.65,4689.51C1227.7,4689.51 1233.42,4684.11 1233.42,4677.47Z"/>
            </clipPath>
            <g clip-path="url(#_clip2)">
                <g transform="matrix(1.06084,0,0,0.21077,-69.703,3691.07)">
                    <rect x="1145.06" y="4588.73" width="91.784" height="181.861" style="fill:rgb(101,127,55);"/>
                </g>
            </g>
        </g>
        <g transform="matrix(0.71192,0,0,1.59695,3860.26,-5638.16)">
            <path d="M1175.16,4583.03C1175.16,4576.73 1164.29,4571.62 1150.88,4571.62C1137.48,4571.62 1126.6,4576.73 1126.6,4583.03L1126.6,4598.41C1126.6,4604.7 1137.48,4609.81 1150.88,4609.81C1164.29,4609.81 1175.16,4604.7 1175.16,4598.41L1175.16,4583.03Z" style="fill:rgb(137,137,137);"/>
            <clipPath id="_clip3">
                <path d="M1175.16,4583.03C1175.16,4576.73 1164.29,4571.62 1150.88,4571.62C1137.48,4571.62 1126.6,4576.73 1126.6,4583.03L1126.6,4598.41C1126.6,4604.7 1137.48,4609.81 1150.88,4609.81C1164.29,4609.81 1175.16,4604.7 1175.16,4598.41L1175.16,4583.03Z"/>
            </clipPath>
            <g clip-path="url(#_clip3)">
                <g transform="matrix(0.455519,0,0,0.149229,628.57,3883.51)">
                    <rect x="1145.06" y="4588.73" width="91.784" height="181.861" style="fill:rgb(114,114,114);"/>
                </g>
            </g>
        </g>
        <g transform="matrix(0.957992,0,0,0.966599,3577.06,-2725.81)">
            <path d="M1175.16,4573.6C1175.16,4572.51 1174.32,4571.62 1173.27,4571.62L1128.5,4571.62C1127.45,4571.62 1126.6,4572.51 1126.6,4573.6L1126.6,4607.84C1126.6,4608.93 1127.45,4609.81 1128.5,4609.81L1173.27,4609.81C1174.32,4609.81 1175.16,4608.93 1175.16,4607.84L1175.16,4573.6Z" style="fill:rgb(92,99,107);"/>
            <clipPath id="_clip4">
                <path d="M1175.16,4573.6C1175.16,4572.51 1174.32,4571.62 1173.27,4571.62L1128.5,4571.62C1127.45,4571.62 1126.6,4572.51 1126.6,4573.6L1126.6,4607.84C1126.6,4608.93 1127.45,4609.81 1128.5,4609.81L1173.27,4609.81C1174.32,4609.81 1175.16,4608.93 1175.16,4607.84L1175.16,4573.6Z"/>
            </clipPath>
            <g clip-path="url(#_clip4)">
                <g transform="matrix(0.338514,0,0,0.259025,762.732,3379.89)">
                    <rect x="1145.06" y="4588.73" width="91.784" height="181.861" style="fill:rgb(78,84,90);"/>
                </g>
            </g>
        </g>
    </g>
</svg>
