<?xml version="1.0" encoding="UTF-8" standalone="no"?>
<!DOCTYPE svg PUBLIC "-//W3C//DTD SVG 1.1//EN" "http://www.w3.org/Graphics/SVG/1.1/DTD/svg11.dtd">
<svg width="100%" height="100%" viewBox="0 0 512 512" version="1.1" xmlns="http://www.w3.org/2000/svg" xmlns:xlink="http://www.w3.org/1999/xlink" xml:space="preserve" xmlns:serif="http://www.serif.com/" style="fill-rule:evenodd;clip-rule:evenodd;stroke-linejoin:round;stroke-miterlimit:2;">
    <g id="HeadphoneIcon" transform="matrix(2.68512,0,0,2.68512,-1797.72,-1617.68)">
        <g transform="matrix(1.9252,0,0,1.9252,-767.362,-1251.24)">
            <path d="M795.183,968.043C814.919,968.234 833.417,983.446 837.05,1003.06C838.978,1013.46 836.874,1024.6 831.306,1033.53C831.004,1034.02 830.434,1034.77 829.617,1034.81C828.169,1034.87 827.215,1033.51 828.515,1031.39C837.798,1016.14 835.001,994.608 821.886,982.254C811.595,972.559 795.934,968.99 782.288,973.611C766.182,979.065 754.633,995.763 755.608,1013.14C755.995,1020.05 758.269,1026.84 762.075,1032.61C762.075,1032.61 762.688,1033.97 761.854,1034.81C760.331,1036.34 758.161,1033.18 756.743,1030.42C748.202,1013.77 752.258,991.607 766.284,979.01C773.993,972.086 784.268,968.143 794.63,968.043C794.814,968.042 794.999,968.042 795.183,968.043Z" style="fill:rgb(250,250,251);"/>
        </g>
        <g transform="matrix(1.81346,0,0,1.81346,-678.529,-1138.66)">
            <path d="M795.183,968.043C814.919,968.234 833.417,983.446 837.05,1003.06C838.978,1013.46 836.874,1024.6 831.306,1033.53C831.004,1034.02 830.434,1034.77 829.617,1034.81C828.169,1034.87 827.215,1033.51 828.515,1031.39C837.798,1016.14 835.001,994.608 821.886,982.254C811.595,972.559 795.934,968.99 782.288,973.611C766.182,979.065 754.633,995.763 755.608,1013.14C755.995,1020.05 758.269,1026.84 762.075,1032.61C762.075,1032.61 762.688,1033.97 761.854,1034.81C760.331,1036.34 758.161,1033.18 756.743,1030.42C748.202,1013.77 752.258,991.607 766.284,979.01C773.993,972.086 784.268,968.143 794.63,968.043C794.814,968.042 794.999,968.042 795.183,968.043Z" style="fill:rgb(211,214,220);"/>
        </g>
        <g transform="matrix(1.97025,0,0,2.05419,-802.85,-1373.56)">
            <path d="M795.241,965.538C808.578,965.683 821.69,971.931 830.138,982.332C832.377,985.089 830.009,990.193 826.157,989.403C823.653,988.889 822.082,985.841 819.894,983.821C805.689,970.707 780.977,971.156 767.391,986.393C766.353,987.557 766.014,988.032 765.436,988.405C762.173,990.511 756.488,986.152 760.037,981.892C760.299,981.578 760.565,981.267 760.836,980.96C769.149,971.509 781.436,965.768 794.247,965.541C794.579,965.538 794.91,965.537 795.241,965.538Z" style="fill:rgb(141,147,163);"/>
            <clipPath id="_clip1">
                <path d="M795.241,965.538C808.578,965.683 821.69,971.931 830.138,982.332C832.377,985.089 830.009,990.193 826.157,989.403C823.653,988.889 822.082,985.841 819.894,983.821C805.689,970.707 780.977,971.156 767.391,986.393C766.353,987.557 766.014,988.032 765.436,988.405C762.173,990.511 756.488,986.152 760.037,981.892C760.299,981.578 760.565,981.267 760.836,980.96C769.149,971.509 781.436,965.768 794.247,965.541C794.579,965.538 794.91,965.537 795.241,965.538Z"/>
            </clipPath>
            <g clip-path="url(#_clip1)">
                <g transform="matrix(0.981993,0,0.00244002,1.13219,11.7205,-123.534)">
                    <path d="M795.241,965.538C808.578,965.683 821.69,971.931 830.138,982.332C832.377,985.089 830.009,990.193 826.157,989.403C823.653,988.889 822.082,985.841 819.894,983.821C805.689,970.707 780.977,971.156 767.391,986.393C766.353,987.557 766.014,988.032 765.436,988.405C762.173,990.511 756.488,986.152 760.037,981.892C760.299,981.578 760.565,981.267 760.836,980.96C769.149,971.509 781.436,965.768 794.247,965.541C794.579,965.538 794.91,965.537 795.241,965.538Z" style="fill:rgb(104,110,129);"/>
                </g>
            </g>
        </g>
        <g transform="matrix(0.712655,0,0,0.712655,-532.344,165.998)">
            <g>
                <g transform="matrix(-0.695534,0,0,0.695534,3079,287.838)">
                    <path d="M1685,693.766L1685,790.623C1660.1,788.525 1640.52,767.628 1640.52,742.194C1640.52,716.76 1660.1,695.864 1685,693.766Z" style="fill:rgb(221,222,227);"/>
                    <clipPath id="_clip2">
                        <path d="M1685,693.766L1685,790.623C1660.1,788.525 1640.52,767.628 1640.52,742.194C1640.52,716.76 1660.1,695.864 1685,693.766Z"/>
                    </clipPath>
                    <g clip-path="url(#_clip2)">
                        <g transform="matrix(-3.5415,0,-4.79307e-32,5.21867,4528.28,-4597.34)">
                            <rect x="791.311" y="1023.23" width="26.698" height="21.514" style="fill:rgb(175,179,190);"/>
                        </g>
                    </g>
                </g>
                <g transform="matrix(2.27086e-16,3.7086,-0.842488,4.94233e-17,2763.98,-2265.45)">
                    <path d="M843.099,1059.18L811.947,1059.18C811.947,1059.18 814.25,1035.71 815.549,1022.47C816.074,1017.11 817.272,1013.64 818.598,1013.64C822.85,1013.64 832.196,1013.64 836.448,1013.64C837.774,1013.64 838.972,1017.11 839.497,1022.47C840.796,1035.71 843.099,1059.18 843.099,1059.18Z" style="fill:rgb(109,182,186);"/>
                    <clipPath id="_clip3">
                        <path d="M843.099,1059.18L811.947,1059.18C811.947,1059.18 814.25,1035.71 815.549,1022.47C816.074,1017.11 817.272,1013.64 818.598,1013.64C822.85,1013.64 832.196,1013.64 836.448,1013.64C837.774,1013.64 838.972,1017.11 839.497,1022.47C840.796,1035.71 843.099,1059.18 843.099,1059.18Z"/>
                    </clipPath>
                    <g clip-path="url(#_clip3)">
                        <g transform="matrix(3.89639e-17,-2.92376,0.978741,2.63812e-16,-173.736,3380.89)">
                            <rect x="791.311" y="1023.23" width="26.698" height="21.514" style="fill:rgb(61,127,130);"/>
                        </g>
                    </g>
                </g>
                <g transform="matrix(-1.35142,0,0,1.14387,4149.06,-42.1738)">
                    <path d="M1706.47,697.235C1706.47,689.077 1700.86,682.454 1693.96,682.454C1687.05,682.454 1681.44,689.077 1681.44,697.235L1681.44,782.365C1681.44,790.524 1687.05,797.147 1693.96,797.147C1700.86,797.147 1706.47,790.524 1706.47,782.365L1706.47,697.235Z" style="fill:rgb(63,62,68);"/>
                    <clipPath id="_clip4">
                        <path d="M1706.47,697.235C1706.47,689.077 1700.86,682.454 1693.96,682.454C1687.05,682.454 1681.44,689.077 1681.44,697.235L1681.44,782.365C1681.44,790.524 1687.05,797.147 1693.96,797.147C1700.86,797.147 1706.47,790.524 1706.47,782.365L1706.47,697.235Z"/>
                    </clipPath>
                    <g clip-path="url(#_clip4)">
                        <g transform="matrix(-1.8227,0,0,3.17324,3159.52,-2506.93)">
                            <rect x="791.311" y="1023.23" width="26.698" height="21.514" style="fill:rgb(49,48,52);"/>
                        </g>
                    </g>
                </g>
            </g>
        </g>
        <g transform="matrix(-0.712655,0,0,0.712655,2065.12,165.998)">
            <g>
                <g transform="matrix(-0.695534,0,0,0.695534,3079,287.838)">
                    <path d="M1685,693.766L1685,790.623C1660.1,788.525 1640.52,767.628 1640.52,742.194C1640.52,716.76 1660.1,695.864 1685,693.766Z" style="fill:rgb(221,222,227);"/>
                </g>
                <g transform="matrix(2.27086e-16,3.7086,-0.842488,4.94233e-17,2763.98,-2265.45)">
                    <path d="M843.099,1059.18L811.947,1059.18C811.947,1059.18 814.25,1035.71 815.549,1022.47C816.074,1017.11 817.272,1013.64 818.598,1013.64C822.85,1013.64 832.196,1013.64 836.448,1013.64C837.774,1013.64 838.972,1017.11 839.497,1022.47C840.796,1035.71 843.099,1059.18 843.099,1059.18Z" style="fill:rgb(109,182,186);"/>
                    <clipPath id="_clip5">
                        <path d="M843.099,1059.18L811.947,1059.18C811.947,1059.18 814.25,1035.71 815.549,1022.47C816.074,1017.11 817.272,1013.64 818.598,1013.64C822.85,1013.64 832.196,1013.64 836.448,1013.64C837.774,1013.64 838.972,1017.11 839.497,1022.47C840.796,1035.71 843.099,1059.18 843.099,1059.18Z"/>
                    </clipPath>
                    <g clip-path="url(#_clip5)">
                        <g transform="matrix(3.89639e-17,-2.92376,0.978741,2.63812e-16,-173.736,3380.89)">
                            <rect x="791.311" y="1023.23" width="26.698" height="21.514" style="fill:rgb(61,127,130);"/>
                        </g>
                    </g>
                </g>
                <g transform="matrix(-1.35142,0,0,1.14387,4149.06,-42.1738)">
                    <path d="M1706.47,697.235C1706.47,689.077 1700.86,682.454 1693.96,682.454C1687.05,682.454 1681.44,689.077 1681.44,697.235L1681.44,782.365C1681.44,790.524 1687.05,797.147 1693.96,797.147C1700.86,797.147 1706.47,790.524 1706.47,782.365L1706.47,697.235Z" style="fill:rgb(63,62,68);"/>
                    <clipPath id="_clip6">
                        <path d="M1706.47,697.235C1706.47,689.077 1700.86,682.454 1693.96,682.454C1687.05,682.454 1681.44,689.077 1681.44,697.235L1681.44,782.365C1681.44,790.524 1687.05,797.147 1693.96,797.147C1700.86,797.147 1706.47,790.524 1706.47,782.365L1706.47,697.235Z"/>
                    </clipPath>
                    <g clip-path="url(#_clip6)">
                        <g transform="matrix(-1.8227,0,0,3.17324,3159.52,-2506.93)">
                            <rect x="791.311" y="1023.23" width="26.698" height="21.514" style="fill:rgb(49,48,52);"/>
                        </g>
                    </g>
                </g>
            </g>
        </g>
    </g>
</svg>
