<?xml version="1.0" encoding="UTF-8" standalone="no"?>
<!DOCTYPE svg PUBLIC "-//W3C//DTD SVG 1.1//EN" "http://www.w3.org/Graphics/SVG/1.1/DTD/svg11.dtd">
<svg width="100%" height="100%" viewBox="0 0 512 512" version="1.1" xmlns="http://www.w3.org/2000/svg" xmlns:xlink="http://www.w3.org/1999/xlink" xml:space="preserve" xmlns:serif="http://www.serif.com/" style="fill-rule:evenodd;clip-rule:evenodd;stroke-linejoin:round;stroke-miterlimit:2;">
    <g id="HeartVitalityIcon" transform="matrix(7.24719,0,0,6.92258,-7402.13,-1194.03)">
        <path d="M1056.7,189.171C1063.68,175.915 1077.63,175.915 1084.61,182.543C1091.59,189.171 1091.59,202.427 1084.61,215.684C1079.73,225.626 1064.84,238.068 1056.7,240.739C1048.64,238.264 1033.68,225.626 1028.8,215.684C1021.82,202.427 1021.82,189.171 1028.8,182.543C1035.77,175.915 1049.73,175.915 1056.7,189.171Z" style="fill:rgb(252,107,107);"/>
        <clipPath id="_clip1">
            <path d="M1056.7,189.171C1063.68,175.915 1077.63,175.915 1084.61,182.543C1091.59,189.171 1091.59,202.427 1084.61,215.684C1079.73,225.626 1064.84,238.068 1056.7,240.739C1048.64,238.264 1033.68,225.626 1028.8,215.684C1021.82,202.427 1021.82,189.171 1028.8,182.543C1035.77,175.915 1049.73,175.915 1056.7,189.171Z"/>
        </clipPath>
        <g clip-path="url(#_clip1)">
            <g transform="matrix(1.34569,0,0,1.40879,-8.55872,-2217.79)">
                <path d="M824.015,1750.27L791.55,1750.27L791.55,1692.61L824.015,1692.61L824.015,1750.27ZM794.827,1696.45L794.713,1731.38L794.632,1747.19L796.252,1747.2L811.229,1747.32L821.173,1747.43L821.212,1743.44L821.4,1731.07L821.619,1724.02L821.966,1717.2L822.847,1704.94L823.659,1696.05L823.67,1695.94L823.209,1695.94L794.828,1695.89L794.827,1696.45Z" style="fill:rgb(201,211,223);"/>
                <rect x="791.55" y="1692.61" width="32.465" height="57.664" style="fill:rgb(229,76,78);"/>
            </g>
        </g>
    </g>
</svg>
