<?xml version="1.0" encoding="UTF-8" standalone="no"?>
<!DOCTYPE svg PUBLIC "-//W3C//DTD SVG 1.1//EN" "http://www.w3.org/Graphics/SVG/1.1/DTD/svg11.dtd">
<svg width="100%" height="100%" viewBox="0 0 512 512" version="1.1" xmlns="http://www.w3.org/2000/svg" xmlns:xlink="http://www.w3.org/1999/xlink" xml:space="preserve" xmlns:serif="http://www.serif.com/" style="fill-rule:evenodd;clip-rule:evenodd;stroke-linecap:round;stroke-linejoin:round;stroke-miterlimit:1.5;">
    <g id="HeartGuardianAngelIcon" transform="matrix(4.08353,0,0,3.87521,-19655.8,-7503.18)">
        <g id="Heart" transform="matrix(1.99045,0,0,1.95059,4259.33,-6622.51)">
            <path d="M309.88,4414.4C314.125,4406.37 322.614,4406.37 326.859,4410.39C331.104,4414.4 331.104,4422.44 326.859,4430.47C323.888,4436.49 316.247,4442.52 309.88,4446.53C303.513,4442.52 295.872,4436.49 292.901,4430.47C288.656,4422.44 288.656,4414.4 292.901,4410.39C297.146,4406.37 305.635,4406.37 309.88,4414.4Z" style="fill:rgb(255,106,121);"/>
            <clipPath id="_clip1">
                <path d="M309.88,4414.4C314.125,4406.37 322.614,4406.37 326.859,4410.39C331.104,4414.4 331.104,4422.44 326.859,4430.47C323.888,4436.49 316.247,4442.52 309.88,4446.53C303.513,4442.52 295.872,4436.49 292.901,4430.47C288.656,4422.44 288.656,4414.4 292.901,4410.39C297.146,4406.37 305.635,4406.37 309.88,4414.4Z"/>
            </clipPath>
            <g clip-path="url(#_clip1)">
                <g transform="matrix(0.438544,0,0,0.339215,-539.67,2290.51)">
                    <rect x="1937.2" y="6240.49" width="47.053" height="116.887" style="fill:rgb(246,84,103);"/>
                </g>
            </g>
        </g>
        <g id="Lines" transform="matrix(0.787154,0,0,1.01009,3998.5,-4339.38)">
            <g transform="matrix(0.821998,-0.180869,0.268215,0.821998,-1491.91,1323.05)">
                <g transform="matrix(1.00212,0,0,0.978031,-857.462,143.891)">
                    <path d="M1906.28,6274.31C1906.28,6273.05 1905.06,6272.03 1903.56,6272.03L1884.04,6272.03C1882.54,6272.03 1881.32,6273.05 1881.32,6274.31C1881.32,6275.57 1882.54,6276.6 1884.04,6276.6L1903.56,6276.6C1905.06,6276.6 1906.28,6275.57 1906.28,6274.31Z" style="fill:rgb(152,152,152);"/>
                </g>
                <g transform="matrix(0.660482,0.313142,-0.5955,0.847,3538.04,359.329)">
                    <path d="M1906.28,6274.31C1906.28,6273.05 1904.68,6272.03 1902.71,6272.03L1884.89,6272.03C1882.92,6272.03 1881.32,6273.05 1881.32,6274.31C1881.32,6275.57 1882.92,6276.6 1884.89,6276.6L1902.71,6276.6C1904.68,6276.6 1906.28,6275.57 1906.28,6274.31Z" style="fill:rgb(152,152,152);"/>
                </g>
                <g transform="matrix(0.660482,-0.313142,-0.5955,-0.847,3538.04,12201.4)">
                    <path d="M1906.28,6274.31C1906.28,6273.05 1904.68,6272.03 1902.71,6272.03L1884.89,6272.03C1882.92,6272.03 1881.32,6273.05 1881.32,6274.31C1881.32,6275.57 1882.92,6276.6 1884.89,6276.6L1902.71,6276.6C1904.68,6276.6 1906.28,6275.57 1906.28,6274.31Z" style="fill:rgb(152,152,152);"/>
                </g>
            </g>
            <g transform="matrix(-0.821998,-0.180869,-0.268215,0.821998,3721.77,1323.05)">
                <g transform="matrix(1.00212,0,0,0.978031,-857.462,143.891)">
                    <path d="M1906.28,6274.31C1906.28,6273.05 1905.06,6272.03 1903.56,6272.03L1884.04,6272.03C1882.54,6272.03 1881.32,6273.05 1881.32,6274.31C1881.32,6275.57 1882.54,6276.6 1884.04,6276.6L1903.56,6276.6C1905.06,6276.6 1906.28,6275.57 1906.28,6274.31Z" style="fill:rgb(152,152,152);"/>
                </g>
                <g transform="matrix(0.660482,0.313142,-0.5955,0.847,3538.04,359.329)">
                    <path d="M1906.28,6274.31C1906.28,6273.05 1904.68,6272.03 1902.71,6272.03L1884.89,6272.03C1882.92,6272.03 1881.32,6273.05 1881.32,6274.31C1881.32,6275.57 1882.92,6276.6 1884.89,6276.6L1902.71,6276.6C1904.68,6276.6 1906.28,6275.57 1906.28,6274.31Z" style="fill:rgb(152,152,152);"/>
                </g>
                <g transform="matrix(0.660482,-0.313142,-0.5955,-0.847,3538.04,12201.4)">
                    <path d="M1906.28,6274.31C1906.28,6273.05 1904.68,6272.03 1902.71,6272.03L1884.89,6272.03C1882.92,6272.03 1881.32,6273.05 1881.32,6274.31C1881.32,6275.57 1882.92,6276.6 1884.89,6276.6L1902.71,6276.6C1904.68,6276.6 1906.28,6275.57 1906.28,6274.31Z" style="fill:rgb(152,152,152);"/>
                </g>
            </g>
        </g>
        <g id="Halo" transform="matrix(0.962152,0,0,0.584048,3992.56,-846.713)">
            <ellipse cx="918.321" cy="4806.29" rx="24.038" ry="11.524" style="fill:none;stroke:rgb(255,203,71);stroke-width:4.69px;"/>
        </g>
    </g>
</svg>
