<?xml version="1.0" encoding="UTF-8" standalone="no"?>
<!DOCTYPE svg PUBLIC "-//W3C//DTD SVG 1.1//EN" "http://www.w3.org/Graphics/SVG/1.1/DTD/svg11.dtd">
<svg width="100%" height="100%" viewBox="0 0 512 512" version="1.1" xmlns="http://www.w3.org/2000/svg" xmlns:xlink="http://www.w3.org/1999/xlink" xml:space="preserve" xmlns:serif="http://www.serif.com/" style="fill-rule:evenodd;clip-rule:evenodd;stroke-linejoin:round;stroke-miterlimit:2;">
    <g id="Heart" transform="matrix(20.9157,0,0,20.9157,-15221.6,-56810.4)">
        <path d="M752,2724.5C752,2729.57 746.578,2734.83 743.023,2737.73C741.263,2739.17 738.737,2739.17 736.977,2737.73C733.423,2734.83 728,2729.57 728,2724.5C728,2720.91 730.91,2718 734.5,2718C736.816,2718 738.849,2719.21 740,2721.03C741.151,2719.21 743.184,2718 745.5,2718C749.09,2718 752,2720.91 752,2724.5Z" style="fill:rgb(255,107,107);fill-rule:nonzero;"/>
        <clipPath id="_clip1">
            <path d="M752,2724.5C752,2729.57 746.578,2734.83 743.023,2737.73C741.263,2739.17 738.737,2739.17 736.977,2737.73C733.423,2734.83 728,2729.57 728,2724.5C728,2720.91 730.91,2718 734.5,2718C736.816,2718 738.849,2719.21 740,2721.03C741.151,2719.21 743.184,2718 745.5,2718C749.09,2718 752,2720.91 752,2724.5Z" clip-rule="nonzero"/>
        </clipPath>
        <g clip-path="url(#_clip1)">
            <g transform="matrix(0.0956221,0,0,0.0956221,727.76,2716.16)">
                <rect x="127.822" y="0.18" width="151.686" height="261.794" style="fill:rgb(250,82,82);"/>
            </g>
            <g transform="matrix(0.0956221,0,0,0.0956221,727.76,2716.16)">
                <circle cx="53.874" cy="79.493" r="27.77" style="fill:rgb(255,201,201);"/>
            </g>
        </g>
    </g>
</svg>
