<?xml version="1.0" encoding="UTF-8" standalone="no"?>
<!DOCTYPE svg PUBLIC "-//W3C//DTD SVG 1.1//EN" "http://www.w3.org/Graphics/SVG/1.1/DTD/svg11.dtd">
<svg width="100%" height="100%" viewBox="0 0 512 512" version="1.1" xmlns="http://www.w3.org/2000/svg" xmlns:xlink="http://www.w3.org/1999/xlink" xml:space="preserve" xmlns:serif="http://www.serif.com/" style="fill-rule:evenodd;clip-rule:evenodd;stroke-linejoin:round;stroke-miterlimit:2;">
    <g id="HelicopterIcon" transform="matrix(5.62562,0,0,5.33863,-23849.7,-4432.77)">
        <g transform="matrix(0.410234,0,0,0.396737,3980.29,-628.898)">
            <rect x="739.822" y="3703.11" width="43.919" height="8.48" style="fill:rgb(92,99,107);"/>
        </g>
        <g transform="matrix(0.365629,0,0,0.396737,3997.67,-628.898)">
            <rect x="739.822" y="3703.11" width="43.919" height="8.48" style="fill:rgb(110,118,127);"/>
        </g>
        <g transform="matrix(2.37966e-17,0.409519,-0.376497,2.42931e-17,5680.8,538.709)">
            <rect x="739.822" y="3703.11" width="43.919" height="8.48" style="fill:rgb(92,99,107);"/>
        </g>
        <g transform="matrix(0.957992,0,0,1.00949,3581.95,-2910.75)">
            <path d="M737.592,3714.77C737.592,3713.74 736.757,3712.91 735.73,3712.91L732.005,3712.91C730.977,3712.91 730.143,3713.74 730.143,3714.77L730.143,3720.62C730.143,3721.64 730.977,3722.48 732.005,3722.48L735.73,3722.48C736.757,3722.48 737.592,3721.64 737.592,3720.62L737.592,3714.77Z" style="fill:rgb(172,177,77);"/>
        </g>
        <g transform="matrix(1.23536,0,0,1.23536,-1008.35,-202.897)">
            <g transform="matrix(0.430272,0,0,0.453402,3884.57,-823.902)">
                <path d="M897.38,3777.99C901.64,3778.25 903.298,3784.92 897.505,3786.75C890.035,3789.2 885.739,3797.22 885.064,3805.04C885.064,3805.04 883.628,3809.26 880.375,3808.99C872.211,3808.28 878.287,3786.82 890.396,3780.37C891.728,3779.66 893.122,3779.07 894.554,3778.6C895.476,3778.29 895.939,3777.96 897.38,3777.99Z" style="fill:rgb(150,150,150);"/>
            </g>
            <g transform="matrix(0.542262,0,0,0.571413,3786.28,-1273.45)">
                <circle cx="877.668" cy="3809.38" r="8.745" style="fill:rgb(103,111,119);"/>
            </g>
            <g transform="matrix(-0.430272,0,0,0.453402,4684.23,-823.902)">
                <path d="M896.991,3777.99C886.167,3778.78 877.646,3791.04 876.472,3803.8C876.024,3808.67 884.414,3811.64 885.143,3804.18C885.952,3796.81 889.841,3789.12 897.715,3786.68C900.881,3785.7 900.761,3785.05 901.202,3784C902.334,3781.31 900.604,3777.89 896.991,3777.99Z" style="fill:rgb(116,116,116);"/>
            </g>
            <g transform="matrix(-0.542262,0,0,0.571413,4782.52,-1273.45)">
                <circle cx="877.668" cy="3809.38" r="8.745" style="fill:rgb(86,93,100);"/>
            </g>
            <g transform="matrix(0.689977,0,0,0.727069,3778.16,-1846.36)">
                <circle cx="734.569" cy="3744.36" r="31.811" style="fill:rgb(140,177,77);"/>
                <clipPath id="_clip1">
                    <circle cx="734.569" cy="3744.36" r="31.811"/>
                </clipPath>
                <g clip-path="url(#_clip1)">
                    <g transform="matrix(0.504612,0,0,0.372522,156.751,2002.29)">
                        <rect x="1145.06" y="4588.73" width="91.784" height="181.861" style="fill:rgb(112,141,61);"/>
                    </g>
                </g>
            </g>
            <g transform="matrix(0.820683,0,0,0.8648,3682.87,-2369.02)">
                <path d="M735.348,3731.92C746.596,3732.74 751.632,3741.78 751.632,3749.47C751.632,3757.07 744.475,3760.65 735.348,3761.03L735.348,3731.92Z" style="fill:rgb(129,185,216);"/>
            </g>
            <g transform="matrix(0.820683,0,0,0.8648,3682.87,-2369.02)">
                <path d="M732.015,3731.92L732.015,3761.03C722.888,3760.65 715.731,3757.07 715.731,3749.47C715.731,3741.78 720.768,3732.74 732.015,3731.92Z" style="fill:rgb(196,234,255);"/>
            </g>
            <g transform="matrix(0.614899,0,0,0.965084,3833.84,-2741.77)">
                <path d="M755.935,3767.85C755.935,3764.16 751.472,3761.17 745.975,3761.17L721.301,3761.17C715.804,3761.17 711.34,3764.16 711.34,3767.85C711.34,3771.54 715.804,3774.54 721.301,3774.54L745.975,3774.54C751.472,3774.54 755.935,3771.54 755.935,3767.85Z" style="fill:rgb(152,185,94);"/>
                <clipPath id="_clip2">
                    <path d="M755.935,3767.85C755.935,3764.16 751.472,3761.17 745.975,3761.17L721.301,3761.17C715.804,3761.17 711.34,3764.16 711.34,3767.85C711.34,3771.54 715.804,3774.54 721.301,3774.54L745.975,3774.54C751.472,3774.54 755.935,3771.54 755.935,3767.85Z"/>
                </clipPath>
                <g clip-path="url(#_clip2)">
                    <g transform="matrix(0.235901,0,0,0.0823189,463.577,3382.42)">
                        <rect x="1145.06" y="4588.73" width="91.784" height="181.861" style="fill:rgb(112,141,61);fill-opacity:0.6;"/>
                    </g>
                </g>
            </g>
            <g transform="matrix(0.141475,0,0,0.149081,4121,202.377)">
                <circle cx="1106.88" cy="4635.65" r="10.899" style="fill:rgb(213,227,190);"/>
            </g>
        </g>
        <g>
            <g transform="matrix(0.765824,0,0,1.00949,3728.32,-2900.56)">
                <path d="M783.741,3707.35C783.741,3705.01 781.364,3703.11 778.437,3703.11L745.126,3703.11C742.198,3703.11 739.822,3705.01 739.822,3707.35C739.822,3709.69 742.198,3711.59 745.126,3711.59L778.437,3711.59C781.364,3711.59 783.741,3709.69 783.741,3707.35Z" style="fill:rgb(116,116,116);"/>
            </g>
            <g transform="matrix(0.765824,0,0,1.00949,3674.88,-2900.56)">
                <path d="M783.741,3707.35C783.741,3705.01 781.364,3703.11 778.437,3703.11L745.126,3703.11C742.198,3703.11 739.822,3705.01 739.822,3707.35C739.822,3709.69 742.198,3711.59 745.126,3711.59L778.437,3711.59C781.364,3711.59 783.741,3709.69 783.741,3707.35Z" style="fill:rgb(150,150,150);"/>
            </g>
        </g>
    </g>
</svg>
