<?xml version="1.0" encoding="UTF-8" standalone="no"?>
<!DOCTYPE svg PUBLIC "-//W3C//DTD SVG 1.1//EN" "http://www.w3.org/Graphics/SVG/1.1/DTD/svg11.dtd">
<svg width="100%" height="100%" viewBox="0 0 512 512" version="1.1" xmlns="http://www.w3.org/2000/svg" xmlns:xlink="http://www.w3.org/1999/xlink" xml:space="preserve" xmlns:serif="http://www.serif.com/" style="fill-rule:evenodd;clip-rule:evenodd;stroke-linejoin:round;stroke-miterlimit:2;">
    <g id="HoodedManIcon" transform="matrix(2.67015,0,0,3.25158,1947.14,-18917.8)">
        <g transform="matrix(1.10047,0,0,0.903687,-21142.1,110.452)">
            <path d="M18582.1,6399.63C18582.5,6357.95 18614.8,6318.73 18636.4,6318.5L18636.4,6318.5L18636.4,6318.5L18636.4,6318.5L18636.4,6318.5C18658,6318.73 18690.3,6357.95 18690.7,6399.63C18686.9,6384.83 18585.9,6384.83 18582.1,6399.63Z" style="fill:rgb(135,142,154);"/>
            <clipPath id="_clip1">
                <path d="M18582.1,6399.63C18582.5,6357.95 18614.8,6318.73 18636.4,6318.5L18636.4,6318.5L18636.4,6318.5L18636.4,6318.5L18636.4,6318.5C18658,6318.73 18690.3,6357.95 18690.7,6399.63C18686.9,6384.83 18585.9,6384.83 18582.1,6399.63Z"/>
            </clipPath>
            <g clip-path="url(#_clip1)">
                <g transform="matrix(1.36449,0,0,1.36449,-6785.96,-2328.94)">
                    <rect x="18631.5" y="6315.78" width="54" height="81.927" style="fill:rgb(102,107,123);"/>
                </g>
            </g>
        </g>
        <g transform="matrix(1.10047,0,0,0.903687,-21142.1,110.452)">
            <path d="M18589.3,6430.54C18595.6,6437.84 18677.2,6437.84 18683.5,6430.54C18692.8,6436.58 18698.5,6444.43 18698.5,6453.01C18698.5,6472.06 18670.7,6487.52 18636.4,6487.52C18602.2,6487.52 18574.3,6472.06 18574.3,6453.01C18574.3,6444.43 18580,6436.58 18589.3,6430.54Z" style="fill:rgb(135,142,154);"/>
            <clipPath id="_clip2">
                <path d="M18589.3,6430.54C18595.6,6437.84 18677.2,6437.84 18683.5,6430.54C18692.8,6436.58 18698.5,6444.43 18698.5,6453.01C18698.5,6472.06 18670.7,6487.52 18636.4,6487.52C18602.2,6487.52 18574.3,6472.06 18574.3,6453.01C18574.3,6444.43 18580,6436.58 18589.3,6430.54Z"/>
            </clipPath>
            <g clip-path="url(#_clip2)">
                <g transform="matrix(1.36449,0,0,0.783733,-6785.96,1478.31)">
                    <rect x="18631.5" y="6315.78" width="54" height="81.927" style="fill:rgb(102,107,123);"/>
                </g>
            </g>
        </g>
        <g transform="matrix(1.10047,0,0,0.903687,-21142,110.452)">
            <path d="M18660.2,6373.34C18677.8,6373.34 18692.1,6388.97 18692.1,6408.21C18692.1,6427.46 18677.8,6443.08 18660.2,6443.08L18612.6,6443.08C18595,6443.08 18580.7,6427.46 18580.7,6408.21C18580.7,6388.97 18595,6373.34 18612.6,6373.34L18660.2,6373.34Z" style="fill:rgb(102,107,122);"/>
            <clipPath id="_clip3">
                <path d="M18660.2,6373.34C18677.8,6373.34 18692.1,6388.97 18692.1,6408.21C18692.1,6427.46 18677.8,6443.08 18660.2,6443.08L18612.6,6443.08C18595,6443.08 18580.7,6427.46 18580.7,6408.21C18580.7,6388.97 18595,6373.34 18612.6,6373.34L18660.2,6373.34Z"/>
            </clipPath>
            <g clip-path="url(#_clip3)">
                <g transform="matrix(1.36449,0,0,1.04874,-6786.09,-257.782)">
                    <rect x="18631.5" y="6315.78" width="54" height="81.927" style="fill:rgb(73,78,90);"/>
                </g>
            </g>
        </g>
        <g transform="matrix(1.10047,0,0,0.903687,-21142,110.452)">
            <path d="M18657.5,6379.88C18673.1,6379.88 18685.8,6392.56 18685.8,6408.18C18685.8,6423.8 18673.1,6436.48 18657.5,6436.48L18615.3,6436.48C18599.7,6436.48 18587,6423.8 18587,6408.18C18587,6392.56 18599.7,6379.88 18615.3,6379.88L18657.5,6379.88Z" style="fill:rgb(66,66,74);"/>
            <clipPath id="_clip4">
                <path d="M18657.5,6379.88C18673.1,6379.88 18685.8,6392.56 18685.8,6408.18C18685.8,6423.8 18673.1,6436.48 18657.5,6436.48L18615.3,6436.48C18599.7,6436.48 18587,6423.8 18587,6408.18C18587,6392.56 18599.7,6379.88 18615.3,6379.88L18657.5,6379.88Z"/>
            </clipPath>
            <g clip-path="url(#_clip4)">
                <g transform="matrix(1.36449,0,0,0.79486,-6786.09,1356.27)">
                    <rect x="18631.5" y="6315.78" width="54" height="81.927" style="fill:rgb(42,44,47);"/>
                </g>
            </g>
        </g>
        <g>
            <g transform="matrix(1.50157,0,0,1.23307,-28609.8,-1994.18)">
                <path d="M18614,6393.52C18614.6,6391.03 18626.1,6393.28 18626.7,6396.92C18627,6399.48 18622.6,6400.68 18619.1,6399.74C18615.6,6398.81 18613.3,6396.02 18614,6393.52Z" style="fill:rgb(60,168,182);"/>
            </g>
            <g transform="matrix(1.50157,0,0,1.23307,-28609.8,-1994.18)">
                <path d="M18649.2,6393.52C18648.5,6391.03 18637,6393.28 18636.5,6396.92C18636.1,6399.48 18640.5,6400.68 18644,6399.74C18647.5,6398.81 18649.8,6396.02 18649.2,6393.52Z" style="fill:rgb(73,135,143);"/>
            </g>
        </g>
    </g>
</svg>
