<?xml version="1.0" encoding="UTF-8" standalone="no"?>
<!DOCTYPE svg PUBLIC "-//W3C//DTD SVG 1.1//EN" "http://www.w3.org/Graphics/SVG/1.1/DTD/svg11.dtd">
<svg width="100%" height="100%" viewBox="0 0 512 512" version="1.1" xmlns="http://www.w3.org/2000/svg" xmlns:xlink="http://www.w3.org/1999/xlink" xml:space="preserve" xmlns:serif="http://www.serif.com/" style="fill-rule:evenodd;clip-rule:evenodd;stroke-linecap:round;stroke-linejoin:round;stroke-miterlimit:1.5;">
    <g id="HourGlassIcon" transform="matrix(8.22742,0,0,8.22742,-3199.92,-4700.14)">
        <g transform="matrix(0.799685,0,0,0.799685,83.431,120.777)">
            <rect x="414.84" y="596.519" width="10.545" height="10.762" style="fill:rgb(232,234,237);"/>
            <clipPath id="_clip1">
                <rect x="414.84" y="596.519" width="10.545" height="10.762"/>
            </clipPath>
            <g clip-path="url(#_clip1)">
                <g transform="matrix(0.23063,0,0,0.167503,291.454,478.99)">
                    <rect x="561.446" y="702.743" width="38.192" height="75.181" style="fill:rgb(198,203,206);"/>
                </g>
            </g>
        </g>
        <g transform="matrix(1,0,0,1,0.661384,-0.0166808)">
            <g transform="matrix(1,0,0,1,84.0174,-308.38)">
                <path d="M319.578,885.393L351.163,885.393L351.163,891.686C351.163,894.145 350.469,896.553 349.16,898.635C346.134,903.427 341.07,907.665 335.377,911.897L335.371,911.902L335.364,911.897C329.671,907.665 324.608,903.427 321.582,898.635C320.273,896.553 319.578,894.145 319.578,891.686L319.578,885.393Z" style="fill:rgb(232,234,237);"/>
                <clipPath id="_clip2">
                    <path d="M319.578,885.393L351.163,885.393L351.163,891.686C351.163,894.145 350.469,896.553 349.16,898.635C346.134,903.427 341.07,907.665 335.377,911.897L335.371,911.902L335.364,911.897C329.671,907.665 324.608,903.427 321.582,898.635C320.273,896.553 319.578,894.145 319.578,891.686L319.578,885.393Z"/>
                </clipPath>
                <g clip-path="url(#_clip2)">
                    <g transform="matrix(0.429562,0,0,0.380562,94.1957,617.256)">
                        <rect x="561.446" y="702.743" width="38.192" height="75.181" style="fill:rgb(198,203,206);"/>
                    </g>
                </g>
            </g>
            <g transform="matrix(0.744132,0,0,0.744132,169.146,-78.6321)">
                <path d="M322.683,898.402C321.374,896.321 320.053,894.355 319.671,891.709C319.288,889.052 319.578,886.895 319.578,886.895" style="fill:none;stroke:white;stroke-width:2.68px;"/>
            </g>
            <g transform="matrix(1,0,0,-1,84.0174,1513.2)">
                <path d="M319.578,885.393L351.163,885.393L351.163,891.686C351.163,894.145 350.469,896.553 349.16,898.635C346.134,903.427 341.07,907.665 335.377,911.897L335.371,911.902L335.364,911.897C329.671,907.665 324.608,903.427 321.582,898.635C320.273,896.553 319.578,894.145 319.578,891.686L319.578,885.393Z" style="fill:rgb(232,234,237);"/>
                <clipPath id="_clip3">
                    <path d="M319.578,885.393L351.163,885.393L351.163,891.686C351.163,894.145 350.469,896.553 349.16,898.635C346.134,903.427 341.07,907.665 335.377,911.897L335.371,911.902L335.364,911.897C329.671,907.665 324.608,903.427 321.582,898.635C320.273,896.553 319.578,894.145 319.578,891.686L319.578,885.393Z"/>
                </clipPath>
                <g clip-path="url(#_clip3)">
                    <g transform="matrix(0.429562,0,0,-0.383362,94.1957,1181.86)">
                        <rect x="561.446" y="702.743" width="38.192" height="75.181" style="fill:rgb(198,203,206);"/>
                    </g>
                </g>
            </g>
        </g>
        <g transform="matrix(1,0,0,1.30533,0.622181,-181.799)">
            <path d="M425.414,592.866C425.787,592.866 426.128,593.024 426.301,593.276C426.474,593.529 426.449,593.834 426.237,594.068C424.685,595.697 422.583,597.241 419.978,598.703C419.63,598.899 419.156,598.9 418.805,598.707C416.326,597.334 414.288,595.79 412.629,594.08C412.409,593.848 412.378,593.541 412.548,593.285C412.718,593.03 413.061,592.869 413.436,592.869C416.478,592.866 422.408,592.866 425.414,592.866Z" style="fill:rgb(255,212,0);"/>
            <clipPath id="_clip4">
                <path d="M425.414,592.866C425.787,592.866 426.128,593.024 426.301,593.276C426.474,593.529 426.449,593.834 426.237,594.068C424.685,595.697 422.583,597.241 419.978,598.703C419.63,598.899 419.156,598.9 418.805,598.707C416.326,597.334 414.288,595.79 412.629,594.08C412.409,593.848 412.378,593.541 412.548,593.285C412.718,593.03 413.061,592.869 413.436,592.869C416.478,592.866 422.408,592.866 425.414,592.866Z"/>
            </clipPath>
            <g clip-path="url(#_clip4)">
                <g transform="matrix(0.197205,0,0,0.0923719,308.708,527.536)">
                    <rect x="561.446" y="702.743" width="38.192" height="75.181" style="fill:rgb(255,159,0);"/>
                </g>
            </g>
        </g>
        <g transform="matrix(1.70157,0,0,-2.22112,-293.635,1941.23)">
            <path d="M425.414,592.866C425.787,592.866 426.128,593.024 426.301,593.276C426.474,593.529 426.449,593.834 426.237,594.068C424.685,595.697 422.583,597.241 419.978,598.703C419.63,598.899 419.156,598.9 418.805,598.707C416.326,597.334 414.288,595.79 412.629,594.08C412.409,593.848 412.378,593.541 412.548,593.285C412.718,593.03 413.061,592.869 413.436,592.869C416.478,592.866 422.408,592.866 425.414,592.866Z" style="fill:rgb(255,212,0);"/>
            <clipPath id="_clip5">
                <path d="M425.414,592.866C425.787,592.866 426.128,593.024 426.301,593.276C426.474,593.529 426.449,593.834 426.237,594.068C424.685,595.697 422.583,597.241 419.978,598.703C419.63,598.899 419.156,598.9 418.805,598.707C416.326,597.334 414.288,595.79 412.629,594.08C412.409,593.848 412.378,593.541 412.548,593.285C412.718,593.03 413.061,592.869 413.436,592.869C416.478,592.866 422.408,592.866 425.414,592.866Z"/>
            </clipPath>
            <g clip-path="url(#_clip5)">
                <g transform="matrix(0.210076,0,0,-0.0854982,301.481,659.101)">
                    <rect x="561.446" y="702.743" width="38.192" height="75.181" style="fill:rgb(255,159,0);"/>
                </g>
            </g>
        </g>
        <g transform="matrix(0.527677,0,0,0.610215,198.74,235.155)">
            <rect x="418.455" y="596.863" width="1.895" height="19.808" style="fill:rgb(255,212,0);"/>
            <clipPath id="_clip6">
                <rect x="418.455" y="596.863" width="1.895" height="19.808"/>
            </clipPath>
            <g clip-path="url(#_clip6)">
                <g transform="matrix(0.0612605,0,0,0.312797,385.01,376.761)">
                    <rect x="561.446" y="702.743" width="38.192" height="75.181" style="fill:rgb(255,159,0);"/>
                </g>
            </g>
        </g>
        <g transform="matrix(0.885,0,0,0.885,-76.9869,-53.1061)">
            <path d="M580.974,774.223L542.272,774.223C540.616,774.223 539.272,772.879 539.272,771.223C539.272,769.567 540.616,768.223 542.272,768.223L580.974,768.223C582.63,768.223 583.974,769.567 583.974,771.223C583.974,772.879 582.63,774.223 580.974,774.223ZM580.974,707.132C582.63,707.132 583.974,708.476 583.974,710.132C583.974,711.787 582.63,713.132 580.974,713.132L542.272,713.132C540.616,713.132 539.272,711.787 539.272,710.132C539.272,708.476 540.616,707.132 542.272,707.132L580.974,707.132Z" style="fill:rgb(67,136,159);"/>
            <clipPath id="_clip7">
                <path d="M580.974,774.223L542.272,774.223C540.616,774.223 539.272,772.879 539.272,771.223C539.272,769.567 540.616,768.223 542.272,768.223L580.974,768.223C582.63,768.223 583.974,769.567 583.974,771.223C583.974,772.879 582.63,774.223 580.974,774.223ZM580.974,707.132C582.63,707.132 583.974,708.476 583.974,710.132C583.974,711.787 582.63,713.132 580.974,713.132L542.272,713.132C540.616,713.132 539.272,711.787 539.272,710.132C539.272,708.476 540.616,707.132 542.272,707.132L580.974,707.132Z"/>
            </clipPath>
            <g clip-path="url(#_clip7)">
                <g transform="matrix(0.671484,0,0,1.02554,184.622,-15.4557)">
                    <rect x="561.446" y="702.743" width="38.192" height="75.181" style="fill:rgb(46,111,139);"/>
                </g>
            </g>
        </g>
    </g>
</svg>
