<?xml version="1.0" encoding="UTF-8" standalone="no"?>
<!DOCTYPE svg PUBLIC "-//W3C//DTD SVG 1.1//EN" "http://www.w3.org/Graphics/SVG/1.1/DTD/svg11.dtd">
<svg width="100%" height="100%" viewBox="0 0 512 512" version="1.1" xmlns="http://www.w3.org/2000/svg" xmlns:xlink="http://www.w3.org/1999/xlink" xml:space="preserve" xmlns:serif="http://www.serif.com/" style="fill-rule:evenodd;clip-rule:evenodd;stroke-linejoin:round;stroke-miterlimit:2;">
    <g id="Ice-Cream-Choco" serif:id="Ice Cream Choco" transform="matrix(2.38086,0,0,2.38086,-905.65,-1488.9)">
        <g transform="matrix(1,0,0,-1,-6.19996,1577.59)">
            <path d="M485.56,744.892C487.047,741.494 490.404,739.299 494.113,739.299C497.822,739.299 501.179,741.494 502.666,744.892C518.241,780.486 549.639,852.239 549.639,852.239L438.586,852.239C438.586,852.239 469.985,780.486 485.56,744.892Z" style="fill:rgb(255,210,100);"/>
            <clipPath id="_clip1">
                <path d="M485.56,744.892C487.047,741.494 490.404,739.299 494.113,739.299C497.822,739.299 501.179,741.494 502.666,744.892C518.241,780.486 549.639,852.239 549.639,852.239L438.586,852.239C438.586,852.239 469.985,780.486 485.56,744.892Z"/>
            </clipPath>
            <g clip-path="url(#_clip1)">
                <g transform="matrix(0.601723,0,0,-1,200.782,1577.59)">
                    <rect x="488.56" y="709.181" width="101.507" height="139.879" style="fill:rgb(247,155,90);"/>
                </g>
                <g transform="matrix(1.29464,0,0,-0.122706,-208.088,935.097)">
                    <rect x="488.56" y="709.181" width="101.507" height="139.879" style="fill:rgb(247,155,90);"/>
                </g>
            </g>
        </g>
        <g>
            <g>
                <g transform="matrix(1,0,0,1,15.4131,-31.8077)">
                    <circle cx="472.5" cy="695.704" r="36.405" style="fill:rgb(252,233,173);"/>
                </g>
                <path d="M496.43,628.495C512.42,632.335 524.317,646.737 524.317,663.896C524.317,683.988 508.005,700.301 487.913,700.301C470.754,700.301 456.352,688.404 452.512,672.413C455.243,673.069 458.096,673.417 461.029,673.417C481.121,673.417 497.434,657.105 497.434,637.013C497.434,634.079 497.086,631.226 496.43,628.495Z" style="fill:rgb(247,203,124);"/>
                <g transform="matrix(1,0,0,1,-12.3339,0)">
                    <circle cx="472.5" cy="695.704" r="36.405" style="fill:rgb(236,128,167);"/>
                </g>
                <path d="M471.828,661.211C486.209,666.078 496.57,679.69 496.57,695.704C496.57,715.796 480.258,732.108 460.166,732.108C444.152,732.108 430.54,721.747 425.673,707.366C429.334,708.606 433.257,709.278 437.335,709.278C457.427,709.278 473.74,692.965 473.74,672.873C473.74,668.795 473.068,664.872 471.828,661.211Z" style="fill:rgb(233,108,155);"/>
                <g transform="matrix(1,0,0,1,43.16,0)">
                    <circle cx="472.5" cy="695.704" r="36.405" style="fill:rgb(141,79,66);"/>
                </g>
                <path d="M530.495,662.454C543.202,668.138 552.064,680.894 552.064,695.704C552.064,715.796 535.752,732.108 515.66,732.108C500.85,732.108 488.094,723.246 482.41,710.539C486.942,712.566 491.963,713.694 497.245,713.694C517.337,713.694 533.65,697.381 533.65,677.289C533.65,672.007 532.522,666.986 530.495,662.454Z" style="fill:rgb(115,71,62);"/>
            </g>
        </g>
        <g transform="matrix(0.927939,0,0,1,30.373,0)">
            <path d="M559.077,719.553C559.077,716.061 556.022,713.226 552.259,713.226L433.883,713.226C430.12,713.226 427.065,716.061 427.065,719.553L427.065,732.208C427.065,735.7 430.12,738.535 433.883,738.535L552.259,738.535C556.022,738.535 559.077,735.7 559.077,732.208L559.077,719.553Z" style="fill:rgb(255,210,100);"/>
            <clipPath id="_clip2">
                <path d="M559.077,719.553C559.077,716.061 556.022,713.226 552.259,713.226L433.883,713.226C430.12,713.226 427.065,716.061 427.065,719.553L427.065,732.208C427.065,735.7 430.12,738.535 433.883,738.535L552.259,738.535C556.022,738.535 559.077,735.7 559.077,732.208L559.077,719.553Z"/>
            </clipPath>
            <g clip-path="url(#_clip2)">
                <g transform="matrix(0.648451,0,0,0.282818,176.961,508.612)">
                    <rect x="488.56" y="709.181" width="101.507" height="139.879" style="fill:rgb(247,155,90);"/>
                </g>
            </g>
        </g>
        <g transform="matrix(0.764906,0,0,0.548577,106.81,326.75)">
            <path d="M465.124,703.757L452.244,703.757L452.244,714.224C452.244,719.179 455.13,723.203 458.684,723.203C462.238,723.203 465.124,719.179 465.124,714.224L465.124,703.757Z" style="fill:rgb(233,108,155);"/>
        </g>
        <g transform="matrix(0.764906,0,0,0.89222,116.035,84.9094)">
            <path d="M465.124,703.757L452.244,703.757L452.244,717.682C452.244,720.729 455.13,723.203 458.684,723.203C462.238,723.203 465.124,720.729 465.124,717.682L465.124,703.757Z" style="fill:rgb(233,108,155);"/>
        </g>
    </g>
</svg>
