<?xml version="1.0" encoding="UTF-8" standalone="no"?>
<!DOCTYPE svg PUBLIC "-//W3C//DTD SVG 1.1//EN" "http://www.w3.org/Graphics/SVG/1.1/DTD/svg11.dtd">
<svg width="100%" height="100%" viewBox="0 0 512 512" version="1.1" xmlns="http://www.w3.org/2000/svg" xmlns:xlink="http://www.w3.org/1999/xlink" xml:space="preserve" xmlns:serif="http://www.serif.com/" style="fill-rule:evenodd;clip-rule:evenodd;stroke-linejoin:round;stroke-miterlimit:2;">
    <g id="KnightHatIcon" transform="matrix(1.33796,0,0,1.07651,-6561.96,-603.817)">
        <g transform="matrix(8.08136,0,0,-10.044,-634.247,38028.9)">
            <path d="M709.045,3706.74C709.045,3706.74 713.176,3715 716.465,3721.58C717.317,3723.28 717.226,3725.31 716.224,3726.93C715.222,3728.55 713.453,3729.53 711.547,3729.53C709.903,3729.53 708.186,3729.53 706.542,3729.53C704.637,3729.53 702.867,3728.55 701.865,3726.93C700.863,3725.31 700.772,3723.28 701.625,3721.58C704.913,3715 709.045,3706.74 709.045,3706.74Z" style="fill:rgb(255,96,112);"/>
            <clipPath id="_clip1">
                <path d="M709.045,3706.74C709.045,3706.74 713.176,3715 716.465,3721.58C717.317,3723.28 717.226,3725.31 716.224,3726.93C715.222,3728.55 713.453,3729.53 711.547,3729.53C709.903,3729.53 708.186,3729.53 706.542,3729.53C704.637,3729.53 702.867,3728.55 701.865,3726.93C700.863,3725.31 700.772,3723.28 701.625,3721.58C704.913,3715 709.045,3706.74 709.045,3706.74Z"/>
            </clipPath>
            <g clip-path="url(#_clip1)">
                <g transform="matrix(0.0555952,0,0,-0.046997,621.141,3896.87)">
                    <rect x="1581.09" y="3551.38" width="195.291" height="358.081" style="fill:rgb(214,66,84);"/>
                </g>
            </g>
        </g>
        <g transform="matrix(1.15424,0,0,1.21629,3663.83,-3628.63)">
            <path d="M1235.29,3491.76C1236.55,3490.09 1238.52,3489.11 1240.62,3489.11C1242.71,3489.11 1244.69,3490.09 1245.95,3491.76C1250.04,3497.17 1255.45,3504.32 1258.27,3508.04C1259.46,3509.62 1259.89,3511.64 1259.45,3513.56C1255.97,3528.77 1240.62,3595.88 1240.62,3595.88C1240.62,3595.88 1225.26,3528.77 1221.78,3513.56C1221.34,3511.64 1221.78,3509.62 1222.97,3508.04C1225.78,3504.32 1231.19,3497.17 1235.29,3491.76Z" style="fill:rgb(87,87,89);"/>
            <clipPath id="_clip2">
                <path d="M1235.29,3491.76C1236.55,3490.09 1238.52,3489.11 1240.62,3489.11C1242.71,3489.11 1244.69,3490.09 1245.95,3491.76C1250.04,3497.17 1255.45,3504.32 1258.27,3508.04C1259.46,3509.62 1259.89,3511.64 1259.45,3513.56C1255.97,3528.77 1240.62,3595.88 1240.62,3595.88C1240.62,3595.88 1225.26,3528.77 1221.78,3513.56C1221.34,3511.64 1221.78,3509.62 1222.97,3508.04C1225.78,3504.32 1231.19,3497.17 1235.29,3491.76Z"/>
            </clipPath>
            <g clip-path="url(#_clip2)">
                <g transform="matrix(0.179796,0,0,0.24557,956.331,2610.94)">
                    <rect x="1581.09" y="3551.38" width="195.291" height="358.081" style="fill:rgb(62,62,64);"/>
                </g>
            </g>
        </g>
        <g transform="matrix(0.924853,0,0,0.974571,3634.49,-2781.98)">
            <path d="M1579.1,3674.76C1517.72,3674.96 1468.05,3694.7 1468.05,3643.49C1468.05,3592.02 1518.23,3540.12 1580.04,3540.12C1641.85,3540.12 1692.04,3592.02 1692.04,3643.49C1692.04,3694.7 1642.36,3674.96 1580.98,3674.76C1654.21,3675.14 1713.51,3719.84 1713.51,3774.85C1713.51,3830.09 1653.7,3874.94 1580.04,3874.94C1506.38,3874.94 1446.58,3830.09 1446.58,3774.85C1446.58,3719.84 1505.87,3675.14 1579.1,3674.76Z" style="fill:rgb(100,100,103);"/>
            <clipPath id="_clip3">
                <path d="M1579.1,3674.76C1517.72,3674.96 1468.05,3694.7 1468.05,3643.49C1468.05,3592.02 1518.23,3540.12 1580.04,3540.12C1641.85,3540.12 1692.04,3592.02 1692.04,3643.49C1692.04,3694.7 1642.36,3674.96 1580.98,3674.76C1654.21,3675.14 1713.51,3719.84 1713.51,3774.85C1713.51,3830.09 1653.7,3874.94 1580.04,3874.94C1506.38,3874.94 1446.58,3830.09 1446.58,3774.85C1446.58,3719.84 1505.87,3675.14 1579.1,3674.76Z"/>
            </clipPath>
            <g clip-path="url(#_clip3)">
                <g transform="matrix(0.826026,0,0,1,274.003,-16.0878)">
                    <rect x="1581.09" y="3551.38" width="195.291" height="358.081" style="fill:rgb(68,68,70);"/>
                </g>
            </g>
        </g>
        <g transform="matrix(0.73176,0,0,0.771097,3938.35,-2062.11)">
            <circle cx="1514.37" cy="3579.31" r="8.636" style="fill:rgb(154,154,157);"/>
        </g>
        <g transform="matrix(0.924853,0,0,0.974571,3634.49,-2781.98)">
            <path d="M1563.17,3717.78L1529.6,3708.78C1512.13,3704.1 1494.14,3714.48 1489.46,3731.95C1484.78,3749.42 1495.17,3767.41 1512.64,3772.09L1554.16,3783.22L1554.16,3909.55L1433.35,3825.87L1461.58,3635.74L1580.03,3559.84L1698.51,3635.74L1726.74,3825.87L1605.92,3909.55L1605.92,3783.22L1647.45,3772.09C1664.92,3767.41 1675.3,3749.42 1670.62,3731.95C1665.94,3714.48 1647.96,3704.1 1630.49,3708.78L1596.92,3717.78L1596.92,3790.83C1596.92,3791.03 1596.88,3791.23 1596.79,3791.42C1595.57,3794.19 1584.93,3816.7 1581.35,3824.79C1581.12,3825.31 1580.61,3825.64 1580.04,3825.65C1579.48,3825.66 1578.95,3825.34 1578.71,3824.83C1574.85,3816.79 1564.68,3794.29 1563.31,3791.43C1563.22,3791.24 1563.17,3791.02 1563.17,3790.8L1563.17,3717.78Z" style="fill:rgb(166,165,171);"/>
            <clipPath id="_clip4">
                <path d="M1563.17,3717.78L1529.6,3708.78C1512.13,3704.1 1494.14,3714.48 1489.46,3731.95C1484.78,3749.42 1495.17,3767.41 1512.64,3772.09L1554.16,3783.22L1554.16,3909.55L1433.35,3825.87L1461.58,3635.74L1580.03,3559.84L1698.51,3635.74L1726.74,3825.87L1605.92,3909.55L1605.92,3783.22L1647.45,3772.09C1664.92,3767.41 1675.3,3749.42 1670.62,3731.95C1665.94,3714.48 1647.96,3704.1 1630.49,3708.78L1596.92,3717.78L1596.92,3790.83C1596.92,3791.03 1596.88,3791.23 1596.79,3791.42C1595.57,3794.19 1584.93,3816.7 1581.35,3824.79C1581.12,3825.31 1580.61,3825.64 1580.04,3825.65C1579.48,3825.66 1578.95,3825.34 1578.71,3824.83C1574.85,3816.79 1564.68,3794.29 1563.31,3791.43C1563.22,3791.24 1563.17,3791.02 1563.17,3790.8L1563.17,3717.78Z"/>
            </clipPath>
            <g clip-path="url(#_clip4)">
                <g transform="matrix(0.826026,0,0,1,274.003,9.09495e-13)">
                    <rect x="1581.09" y="3551.38" width="195.291" height="358.081" style="fill:rgb(132,131,137);"/>
                </g>
            </g>
        </g>
    </g>
</svg>
