<?xml version="1.0" encoding="UTF-8" standalone="no"?>
<!DOCTYPE svg PUBLIC "-//W3C//DTD SVG 1.1//EN" "http://www.w3.org/Graphics/SVG/1.1/DTD/svg11.dtd">
<svg width="100%" height="100%" viewBox="0 0 512 512" version="1.1" xmlns="http://www.w3.org/2000/svg" xmlns:xlink="http://www.w3.org/1999/xlink" xml:space="preserve" xmlns:serif="http://www.serif.com/" style="fill-rule:evenodd;clip-rule:evenodd;stroke-linejoin:round;stroke-miterlimit:2;">
    <g id="KnightHeadIcon" transform="matrix(4.43938,0,0,4.43938,-6319.67,-4269.51)">
        <path d="M1481.21,964.868L1485.91,978.581C1501.75,979.938 1512.21,993.248 1512.21,1009.44L1512.21,1014.58C1513.2,1039.74 1522.43,1045.52 1522.43,1045.52C1516.64,1062.03 1500.44,1073.93 1481.39,1073.93L1481.24,1073.93L1481.24,1072.18L1481.23,1072.18L1481.23,1072.18L1481.23,1073.93L1481.21,1073.93L1481.21,1073.93L1481.21,1073.93L1481.21,1073.93L1481.21,1073.93L1481.2,1073.93L1481.2,1072.18L1481.19,1072.18L1481.18,1072.18L1481.18,1073.93L1481.04,1073.93C1461.98,1073.93 1445.78,1062.03 1439.99,1045.52C1439.99,1045.52 1449.22,1039.74 1450.21,1014.58L1450.21,1009.44C1450.21,993.248 1460.67,979.938 1476.52,978.581L1481.21,964.868Z" style="fill:rgb(164,177,181);"/>
        <clipPath id="_clip1">
            <path d="M1481.21,964.868L1485.91,978.581C1501.75,979.938 1512.21,993.248 1512.21,1009.44L1512.21,1014.58C1513.2,1039.74 1522.43,1045.52 1522.43,1045.52C1516.64,1062.03 1500.44,1073.93 1481.39,1073.93L1481.24,1073.93L1481.24,1072.18L1481.23,1072.18L1481.23,1072.18L1481.23,1073.93L1481.21,1073.93L1481.21,1073.93L1481.21,1073.93L1481.21,1073.93L1481.21,1073.93L1481.2,1073.93L1481.2,1072.18L1481.19,1072.18L1481.18,1072.18L1481.18,1073.93L1481.04,1073.93C1461.98,1073.93 1445.78,1062.03 1439.99,1045.52C1439.99,1045.52 1449.22,1039.74 1450.21,1014.58L1450.21,1009.44C1450.21,993.248 1460.67,979.938 1476.52,978.581L1481.21,964.868Z"/>
        </clipPath>
        <g clip-path="url(#_clip1)">
            <g transform="matrix(2.74542,0,0,1.71974,-2584.94,-690.397)">
                <rect x="1481.07" y="959.236" width="17.646" height="72.521" style="fill:rgb(121,140,147);"/>
            </g>
            <path d="M1456.49,1015.99C1458.04,1013.49 1477.41,1021.38 1476.4,1025.46C1475.23,1030.22 1467.58,1032.9 1463.98,1031.54C1458.67,1029.54 1455.03,1018.35 1456.49,1015.99Z" style="fill:rgb(65,69,77);"/>
            <path d="M1505.93,1015.99C1504.38,1013.49 1485.01,1021.38 1486.02,1025.46C1487.2,1030.22 1494.84,1032.9 1498.44,1031.54C1503.75,1029.54 1507.4,1018.35 1505.93,1015.99Z" style="fill:rgb(36,38,43);"/>
        </g>
    </g>
</svg>
