<?xml version="1.0" encoding="UTF-8" standalone="no"?>
<!DOCTYPE svg PUBLIC "-//W3C//DTD SVG 1.1//EN" "http://www.w3.org/Graphics/SVG/1.1/DTD/svg11.dtd">
<svg width="100%" height="100%" viewBox="0 0 512 512" version="1.1" xmlns="http://www.w3.org/2000/svg" xmlns:xlink="http://www.w3.org/1999/xlink" xml:space="preserve" xmlns:serif="http://www.serif.com/" style="fill-rule:evenodd;clip-rule:evenodd;stroke-linejoin:round;stroke-miterlimit:2;">
    <g id="Leavesx3Icon" transform="matrix(3.15206,0,0,3.15206,-4976.62,-2099.94)">
        <g transform="matrix(1.16045,0,0,1,-162.787,51.2876)">
            <g transform="matrix(1.5,0,0,1,-785.456,0)">
                <ellipse cx="1570.91" cy="672.093" rx="12.352" ry="42.116" style="fill:rgb(110,180,94);"/>
                <clipPath id="_clip1">
                    <ellipse cx="1570.91" cy="672.093" rx="12.352" ry="42.116"/>
                </clipPath>
                <g clip-path="url(#_clip1)">
                    <g transform="matrix(1,0,0,1,0.762458,0)">
                        <rect x="1570.14" y="612.373" width="29.149" height="115.998" style="fill:rgb(79,161,64);"/>
                    </g>
                </g>
            </g>
            <g transform="matrix(1,0,0,1.07781,-0.165161,-50.8455)">
                <path d="M1571.08,653.416C1571.08,653.416 1573.07,732.115 1573.35,751.838C1573.36,752.446 1573.12,753.032 1572.69,753.464C1572.27,753.897 1571.69,754.14 1571.08,754.14C1571.08,754.14 1571.08,754.14 1571.08,754.14C1570.47,754.14 1569.89,753.897 1569.46,753.464C1569.04,753.032 1568.8,752.446 1568.81,751.838C1569.09,732.115 1571.08,653.416 1571.08,653.416Z" style="fill:rgb(68,124,54);"/>
            </g>
        </g>
        <g transform="matrix(0.707107,0.707107,-0.707107,0.707107,1067.75,-827.02)">
            <g transform="matrix(1.74067,-5.55112e-17,1.11022e-16,1,-1163.53,4.54747e-13)">
                <ellipse cx="1570.91" cy="672.093" rx="12.352" ry="42.116" style="fill:rgb(110,180,94);"/>
                <clipPath id="_clip2">
                    <ellipse cx="1570.91" cy="672.093" rx="12.352" ry="42.116"/>
                </clipPath>
                <g clip-path="url(#_clip2)">
                    <g transform="matrix(1,0,0,1,0.762458,0)">
                        <rect x="1570.14" y="612.373" width="29.149" height="115.998" style="fill:rgb(79,161,64);"/>
                    </g>
                </g>
            </g>
            <g transform="matrix(1,0,0,1,-0.165161,0)">
                <path d="M1571.08,653.416C1571.08,653.416 1572.03,720.343 1572.2,732.648C1572.21,733.027 1571.15,732.626 1570.77,732.626C1570.77,732.626 1570.77,732.626 1570.77,732.626C1570.39,732.626 1570.03,732.474 1569.76,732.204C1569.49,731.934 1569.35,731.568 1569.35,731.189C1569.53,718.885 1571.08,653.416 1571.08,653.416Z" style="fill:rgb(68,124,54);"/>
            </g>
        </g>
        <g transform="matrix(0.707107,-0.707107,0.707107,0.707107,30.7644,1393.81)">
            <g transform="matrix(1.74067,5.55112e-17,-4.44089e-16,1,-1163.53,-2.27374e-12)">
                <ellipse cx="1570.91" cy="672.093" rx="12.352" ry="42.116" style="fill:rgb(110,180,94);"/>
                <clipPath id="_clip3">
                    <ellipse cx="1570.91" cy="672.093" rx="12.352" ry="42.116"/>
                </clipPath>
                <g clip-path="url(#_clip3)">
                    <g transform="matrix(1,0,0,1,0.762458,0)">
                        <rect x="1570.14" y="612.373" width="29.149" height="115.998" style="fill:rgb(79,161,64);"/>
                    </g>
                </g>
            </g>
            <g transform="matrix(1,0,0,1,-0.165161,0)">
                <path d="M1571.08,653.416C1571.08,653.416 1572.03,720.343 1572.2,732.648C1572.21,733.027 1571.15,732.626 1570.77,732.626C1570.77,732.626 1570.77,732.626 1570.77,732.626C1570.39,732.626 1570.03,732.474 1569.76,732.204C1569.49,731.934 1569.35,731.568 1569.35,731.189C1569.53,718.885 1571.08,653.416 1571.08,653.416Z" style="fill:rgb(68,124,54);"/>
            </g>
        </g>
    </g>
</svg>
