<?xml version="1.0" encoding="UTF-8" standalone="no"?>
<!DOCTYPE svg PUBLIC "-//W3C//DTD SVG 1.1//EN" "http://www.w3.org/Graphics/SVG/1.1/DTD/svg11.dtd">
<svg width="100%" height="100%" viewBox="0 0 512 512" version="1.1" xmlns="http://www.w3.org/2000/svg" xmlns:xlink="http://www.w3.org/1999/xlink" xml:space="preserve" xmlns:serif="http://www.serif.com/" style="fill-rule:evenodd;clip-rule:evenodd;stroke-linejoin:round;stroke-miterlimit:2;">
    <g id="Leaves3Icon" transform="matrix(3.82675,0,0,3.82675,-6097.65,-2588.6)">
        <g transform="matrix(1,0,0,1,88.9724,51.2876)">
            <ellipse cx="1570.91" cy="672.093" rx="12.352" ry="42.116" style="fill:rgb(106,145,98);"/>
            <clipPath id="_clip1">
                <ellipse cx="1570.91" cy="672.093" rx="12.352" ry="42.116"/>
            </clipPath>
            <g clip-path="url(#_clip1)">
                <g transform="matrix(1,0,0,1,0.762458,0)">
                    <rect x="1570.14" y="612.373" width="29.149" height="115.998" style="fill:rgb(97,134,91);"/>
                </g>
            </g>
            <g transform="matrix(1,0,0,1,-0.165161,0)">
                <path d="M1571.08,653.416C1571.08,653.416 1573.07,732.115 1573.35,751.838C1573.36,752.446 1573.12,753.032 1572.69,753.464C1572.27,753.897 1571.69,754.14 1571.08,754.14C1571.08,754.14 1571.08,754.14 1571.08,754.14C1570.47,754.14 1569.89,753.897 1569.46,753.464C1569.04,753.032 1568.8,752.446 1568.81,751.838C1569.09,732.115 1571.08,653.416 1571.08,653.416Z" style="fill:rgb(155,179,148);"/>
            </g>
        </g>
        <g transform="matrix(0.866025,0.5,-0.5,0.866025,666.256,-623.26)">
            <ellipse cx="1570.91" cy="672.093" rx="12.352" ry="42.116" style="fill:rgb(106,145,98);"/>
            <clipPath id="_clip2">
                <ellipse cx="1570.91" cy="672.093" rx="12.352" ry="42.116"/>
            </clipPath>
            <g clip-path="url(#_clip2)">
                <g transform="matrix(1,0,0,1,0.762458,0)">
                    <rect x="1570.14" y="612.373" width="29.149" height="115.998" style="fill:rgb(97,134,91);"/>
                </g>
            </g>
            <g transform="matrix(1,0,0,1,-0.165161,0)">
                <path d="M1571.08,653.416C1571.08,653.416 1572.03,720.343 1572.2,732.648C1572.21,733.027 1571.15,732.626 1570.77,732.626C1570.77,732.626 1570.77,732.626 1570.77,732.626C1570.39,732.626 1570.03,732.474 1569.76,732.204C1569.49,731.934 1569.35,731.568 1569.35,731.189C1569.53,718.885 1571.08,653.416 1571.08,653.416Z" style="fill:rgb(155,179,148);"/>
            </g>
        </g>
        <g transform="matrix(0.866025,-0.5,0.5,0.866025,-66.5069,947.965)">
            <ellipse cx="1570.91" cy="672.093" rx="12.352" ry="42.116" style="fill:rgb(106,145,98);"/>
            <clipPath id="_clip3">
                <ellipse cx="1570.91" cy="672.093" rx="12.352" ry="42.116"/>
            </clipPath>
            <g clip-path="url(#_clip3)">
                <g transform="matrix(1,0,0,1,0.762458,0)">
                    <rect x="1570.14" y="612.373" width="29.149" height="115.998" style="fill:rgb(97,134,91);"/>
                </g>
            </g>
            <g transform="matrix(1,0,0,1,-0.165161,0)">
                <path d="M1571.08,653.416C1571.08,653.416 1572.03,720.343 1572.2,732.648C1572.21,733.027 1571.15,732.626 1570.77,732.626C1570.77,732.626 1570.77,732.626 1570.77,732.626C1570.39,732.626 1570.03,732.474 1569.76,732.204C1569.49,731.934 1569.35,731.568 1569.35,731.189C1569.53,718.885 1571.08,653.416 1571.08,653.416Z" style="fill:rgb(155,179,148);"/>
            </g>
        </g>
    </g>
</svg>
