<?xml version="1.0" encoding="UTF-8" standalone="no"?>
<!DOCTYPE svg PUBLIC "-//W3C//DTD SVG 1.1//EN" "http://www.w3.org/Graphics/SVG/1.1/DTD/svg11.dtd">
<svg width="100%" height="100%" viewBox="0 0 512 512" version="1.1" xmlns="http://www.w3.org/2000/svg" xmlns:xlink="http://www.w3.org/1999/xlink" xml:space="preserve" xmlns:serif="http://www.serif.com/" style="fill-rule:evenodd;clip-rule:evenodd;stroke-linecap:round;stroke-linejoin:round;stroke-miterlimit:1.5;">
    <g id="Lens" transform="matrix(2.01663,-2.01663,2.01663,2.01663,-3138.5,-1382.67)">
        <g transform="matrix(0.759308,-8.43001e-17,0,0.631617,-300.868,397.905)">
            <path d="M980.887,1395.41C980.887,1387.9 975.818,1381.81 969.574,1381.81C963.331,1381.81 958.262,1387.9 958.262,1395.41L958.262,1477.51C958.262,1485.02 963.331,1491.11 969.574,1491.11C975.818,1491.11 980.887,1485.02 980.887,1477.51L980.887,1395.41Z" style="fill:rgb(105,140,185);"/>
        </g>
        <g transform="matrix(0.931262,0,0,0.931262,-478.899,7.12233)">
            <circle cx="981.718" cy="1318.53" r="46.188" style="fill:rgb(59,201,219);"/>
        </g>
        <g transform="matrix(0.993921,0,0,0.993921,-540.262,-126.093)">
            <path d="M981.567,1310.76C1013.95,1310.76 1040.25,1337.05 1040.25,1369.44C1040.25,1401.82 1013.95,1428.12 981.567,1428.12C949.181,1428.12 922.888,1401.82 922.888,1369.44C922.888,1337.05 949.181,1310.76 981.567,1310.76ZM981.567,1326.78C1005.11,1326.78 1024.22,1345.9 1024.22,1369.44C1024.22,1392.98 1005.11,1412.09 981.567,1412.09C958.027,1412.09 938.915,1392.98 938.915,1369.44C938.915,1345.9 958.027,1326.78 981.567,1326.78Z" style="fill:rgb(105,140,185);"/>
        </g>
        <g transform="matrix(0.525929,0,0,0.525929,-83.4644,539.077)">
            <path d="M935.53,1318.53C935.53,1293.04 956.226,1272.34 981.718,1272.34" style="fill:none;stroke:white;stroke-width:16.83px;"/>
        </g>
    </g>
</svg>
