<?xml version="1.0" encoding="UTF-8" standalone="no"?>
<!DOCTYPE svg PUBLIC "-//W3C//DTD SVG 1.1//EN" "http://www.w3.org/Graphics/SVG/1.1/DTD/svg11.dtd">
<svg width="100%" height="100%" viewBox="0 0 512 512" version="1.1" xmlns="http://www.w3.org/2000/svg" xmlns:xlink="http://www.w3.org/1999/xlink" xml:space="preserve" xmlns:serif="http://www.serif.com/" style="fill-rule:evenodd;clip-rule:evenodd;stroke-linejoin:round;stroke-miterlimit:2;">
    <g id="LifeBuoyIcon" transform="matrix(3.32422,0,0,3.32422,-717.377,-718.235)">
        <path d="M292.814,221.382C332.38,221.382 364.503,253.505 364.503,293.072C364.503,332.638 332.38,364.761 292.814,364.761C253.247,364.761 221.124,332.638 221.124,293.072C221.124,253.505 253.247,221.382 292.814,221.382ZM292.814,257.227C312.597,257.227 328.658,273.289 328.658,293.072C328.658,312.855 312.597,328.917 292.814,328.917C273.031,328.917 256.969,312.855 256.969,293.072C256.969,273.289 273.031,257.227 292.814,257.227Z" style="fill:rgb(235,239,243);"/>
        <clipPath id="_clip1">
            <path d="M292.814,221.382C332.38,221.382 364.503,253.505 364.503,293.072C364.503,332.638 332.38,364.761 292.814,364.761C253.247,364.761 221.124,332.638 221.124,293.072C221.124,253.505 253.247,221.382 292.814,221.382ZM292.814,257.227C312.597,257.227 328.658,273.289 328.658,293.072C328.658,312.855 312.597,328.917 292.814,328.917C273.031,328.917 256.969,312.855 256.969,293.072C256.969,273.289 273.031,257.227 292.814,257.227Z"/>
        </clipPath>
        <g clip-path="url(#_clip1)">
            <g transform="matrix(0.963313,0,0,0.86088,5.92707,37.0078)">
                <path d="M321.358,212.909L274.267,212.909L281.267,266.883L314.358,266.883L321.358,212.909Z" style="fill:rgb(222,51,63);"/>
            </g>
            <g transform="matrix(0.963313,0,0,-0.86088,5.92707,553.101)">
                <path d="M321.358,212.909L274.267,212.909L281.267,266.883L314.358,266.883L321.358,212.909Z" style="fill:rgb(222,51,63);"/>
            </g>
            <g transform="matrix(5.89859e-17,0.963313,-0.86088,5.27137e-17,550.86,8.16755)">
                <path d="M321.358,212.909L274.267,212.909L281.267,266.883L314.358,266.883L321.358,212.909Z" style="fill:rgb(222,51,63);"/>
            </g>
            <g transform="matrix(5.89859e-17,0.963313,0.86088,-5.27137e-17,34.7673,8.16755)">
                <path d="M321.358,212.909L274.267,212.909L281.267,266.883L314.358,266.883L321.358,212.909Z" style="fill:rgb(222,51,63);"/>
            </g>
            <g transform="matrix(0.626624,0,0,0.626624,109.33,109.426)">
                <path d="M292.814,221.382C332.38,221.382 364.503,253.505 364.503,293.072C364.503,332.638 332.38,364.761 292.814,364.761C253.247,364.761 221.124,332.638 221.124,293.072C221.124,253.505 253.247,221.382 292.814,221.382ZM292.814,257.227C312.597,257.227 328.658,273.289 328.658,293.072C328.658,312.855 312.597,328.917 292.814,328.917C273.031,328.917 256.969,312.855 256.969,293.072C256.969,273.289 273.031,257.227 292.814,257.227Z" style="fill:rgb(30,36,46);fill-opacity:0.14;"/>
            </g>
            <g transform="matrix(1.87002,0,0,1.87002,-254.753,-254.977)">
                <path d="M292.814,252.306C315.313,252.306 333.579,270.573 333.579,293.072C333.579,315.571 315.313,333.838 292.814,333.838C270.315,333.838 252.048,315.571 252.048,293.072C252.048,270.573 270.315,252.306 292.814,252.306ZM292.814,257.227C312.597,257.227 328.658,273.289 328.658,293.072C328.658,312.855 312.597,328.917 292.814,328.917C273.031,328.917 256.969,312.855 256.969,293.072C256.969,273.289 273.031,257.227 292.814,257.227Z" style="fill:rgb(30,36,46);fill-opacity:0.11;"/>
            </g>
            <g transform="matrix(0.636431,-0.0221887,0.0221887,0.636431,91.96,105.09)">
                <path d="M263.984,219.779C270.68,220.309 274.446,230.763 267.046,234.661C254.357,240.705 243.431,250.321 236.654,262.739C236.654,262.739 228.968,270.142 223.779,264.09C219.23,258.783 225.101,250.297 230.955,243.065C238.866,233.293 249.073,224.987 260.573,220.338C260.867,220.219 261.168,220.118 261.474,220.036C262.2,219.84 262.577,219.724 263.984,219.779Z" style="fill:white;"/>
            </g>
        </g>
    </g>
</svg>
