<?xml version="1.0" encoding="UTF-8" standalone="no"?>
<!DOCTYPE svg PUBLIC "-//W3C//DTD SVG 1.1//EN" "http://www.w3.org/Graphics/SVG/1.1/DTD/svg11.dtd">
<svg width="100%" height="100%" viewBox="0 0 512 512" version="1.1" xmlns="http://www.w3.org/2000/svg" xmlns:xlink="http://www.w3.org/1999/xlink" xml:space="preserve" xmlns:serif="http://www.serif.com/" style="fill-rule:evenodd;clip-rule:evenodd;stroke-linejoin:round;stroke-miterlimit:2;">
    <g id="LightBulbIcon" transform="matrix(3.89761,0,0,3.89761,-222.181,-109.883)">
        <path d="M139.912,134.991C139.912,134.991 105.511,134.99 105.511,134.99C105.511,132.092 104.082,129.381 101.693,127.743C92.08,121.12 85.802,110.028 85.802,97.482C85.802,77.125 102.329,60.598 122.686,60.598C143.043,60.598 159.57,77.125 159.57,97.482C159.57,110.028 153.292,121.12 143.709,127.784C141.333,129.413 139.912,132.11 139.912,134.991Z" style="fill:rgb(235,239,243);"/>
        <clipPath id="_clip1">
            <path d="M139.912,134.991C139.912,134.991 105.511,134.99 105.511,134.99C105.511,132.092 104.082,129.381 101.693,127.743C92.08,121.12 85.802,110.028 85.802,97.482C85.802,77.125 102.329,60.598 122.686,60.598C143.043,60.598 159.57,77.125 159.57,97.482C159.57,110.028 153.292,121.12 143.709,127.784C141.333,129.413 139.912,132.11 139.912,134.991Z"/>
        </clipPath>
        <g clip-path="url(#_clip1)">
            <g transform="matrix(1.00545,0,0,1.17652,-1378.37,-1271.73)">
                <rect x="1492.96" y="1131.36" width="38.08" height="65.142" style="fill:rgb(201,211,223);"/>
            </g>
        </g>
        <g transform="matrix(1.18262,0,0,1.18262,-289.513,-389.668)">
            <path d="M346.206,409.515C347.123,409.557 348.009,410.041 348.429,410.862C349.39,412.738 348.198,414.876 347.244,416.471C347.244,416.471 348.881,417.164 350.225,416.239C350.225,416.239 347.637,410.796 351.301,409.747C352.042,409.535 352.897,409.63 353.459,410.169C354.975,411.624 354.032,414.465 352.148,416.365L353.31,417.083C354.04,414.665 355.776,409.492 359.158,410.855C362.198,412.081 359.328,419.021 354.315,418.657L354.25,418.65C351.954,427.353 351.057,436.733 352.794,445.414C352.98,446.344 353.406,447.638 353.406,447.638C353.512,448.426 352.414,448.867 351.982,447.596C350.908,444.307 350.814,440.743 350.801,437.23C350.777,430.945 351.343,424.629 352.899,418.545C352.899,418.545 353.47,419.406 351.118,417.271C351.118,417.271 348.471,418.771 346.484,417.587C346.415,417.671 346.344,417.753 346.271,417.834C345.724,418.427 344.681,419.017 344.681,419.017C344.757,419.342 344.827,419.669 344.897,419.995C346.716,428.778 347.098,437.96 347.25,447.081C347.25,447.081 347.191,447.562 346.837,447.708C346.433,447.875 345.96,447.569 345.917,447.103C345.761,437.769 345.415,428.317 343.398,419.387C343.398,419.387 341.186,419.278 339.785,418.335C337.453,416.766 335.681,413.517 337.232,411.692C337.974,410.819 339.271,410.46 340.332,410.834C342.808,411.708 343.582,414.832 344.346,417.66L345.434,416.764C345.35,416.68 345.269,416.593 345.189,416.505C343.169,414.198 342.398,409.427 346.206,409.515ZM339.421,412.021C336.83,412.174 338.797,418.028 342.97,418.056C343.339,418.05 342.942,417.579 342.841,417.227C342.722,416.827 342.598,416.429 342.462,416.034C342.338,415.678 342.206,415.324 342.061,414.976C341.956,414.725 341.845,414.478 341.725,414.235C341.643,414.068 341.557,413.905 341.466,413.743C341.384,413.596 341.296,413.453 341.204,413.313C340.801,412.702 340.241,411.999 339.421,412.021ZM358.087,412.003C356.12,412.129 355.304,415.176 354.626,417.34C354.72,417.345 354.814,417.345 354.909,417.343C358.064,417.225 360.685,411.932 358.087,412.003ZM346.088,410.847C344.471,410.88 344.638,413.851 346.185,415.618C346.185,415.618 349.127,410.847 346.088,410.847ZM352.05,410.966C350.414,411.026 350.451,413.33 350.843,414.455C351.022,414.971 351.003,415.668 351.519,415.088C352.791,413.62 353.432,410.957 352.05,410.966Z" style="fill:rgb(175,187,202);"/>
            <clipPath id="_clip2">
                <path d="M346.206,409.515C347.123,409.557 348.009,410.041 348.429,410.862C349.39,412.738 348.198,414.876 347.244,416.471C347.244,416.471 348.881,417.164 350.225,416.239C350.225,416.239 347.637,410.796 351.301,409.747C352.042,409.535 352.897,409.63 353.459,410.169C354.975,411.624 354.032,414.465 352.148,416.365L353.31,417.083C354.04,414.665 355.776,409.492 359.158,410.855C362.198,412.081 359.328,419.021 354.315,418.657L354.25,418.65C351.954,427.353 351.057,436.733 352.794,445.414C352.98,446.344 353.406,447.638 353.406,447.638C353.512,448.426 352.414,448.867 351.982,447.596C350.908,444.307 350.814,440.743 350.801,437.23C350.777,430.945 351.343,424.629 352.899,418.545C352.899,418.545 353.47,419.406 351.118,417.271C351.118,417.271 348.471,418.771 346.484,417.587C346.415,417.671 346.344,417.753 346.271,417.834C345.724,418.427 344.681,419.017 344.681,419.017C344.757,419.342 344.827,419.669 344.897,419.995C346.716,428.778 347.098,437.96 347.25,447.081C347.25,447.081 347.191,447.562 346.837,447.708C346.433,447.875 345.96,447.569 345.917,447.103C345.761,437.769 345.415,428.317 343.398,419.387C343.398,419.387 341.186,419.278 339.785,418.335C337.453,416.766 335.681,413.517 337.232,411.692C337.974,410.819 339.271,410.46 340.332,410.834C342.808,411.708 343.582,414.832 344.346,417.66L345.434,416.764C345.35,416.68 345.269,416.593 345.189,416.505C343.169,414.198 342.398,409.427 346.206,409.515ZM339.421,412.021C336.83,412.174 338.797,418.028 342.97,418.056C343.339,418.05 342.942,417.579 342.841,417.227C342.722,416.827 342.598,416.429 342.462,416.034C342.338,415.678 342.206,415.324 342.061,414.976C341.956,414.725 341.845,414.478 341.725,414.235C341.643,414.068 341.557,413.905 341.466,413.743C341.384,413.596 341.296,413.453 341.204,413.313C340.801,412.702 340.241,411.999 339.421,412.021ZM358.087,412.003C356.12,412.129 355.304,415.176 354.626,417.34C354.72,417.345 354.814,417.345 354.909,417.343C358.064,417.225 360.685,411.932 358.087,412.003ZM346.088,410.847C344.471,410.88 344.638,413.851 346.185,415.618C346.185,415.618 349.127,410.847 346.088,410.847ZM352.05,410.966C350.414,411.026 350.451,413.33 350.843,414.455C351.022,414.971 351.003,415.668 351.519,415.088C352.791,413.62 353.432,410.957 352.05,410.966Z"/>
            </clipPath>
            <g clip-path="url(#_clip2)">
                <g transform="matrix(0.342781,0,0,0.590463,-163.171,-262.017)">
                    <rect x="1492.96" y="1131.36" width="38.08" height="65.142" style="fill:rgb(131,147,167);"/>
                </g>
            </g>
        </g>
        <g transform="matrix(1.64016,0,0,-1.64016,-459.106,898.984)">
            <path d="M353.204,453.286C354.057,452.493 355.378,452.493 356.232,453.286C359.027,455.886 364.717,461.177 364.717,461.177L344.718,461.177C344.718,461.177 350.408,455.886 353.204,453.286Z" style="fill:rgb(131,147,167);"/>
            <clipPath id="_clip3">
                <path d="M353.204,453.286C354.057,452.493 355.378,452.493 356.232,453.286C359.027,455.886 364.717,461.177 364.717,461.177L344.718,461.177C344.718,461.177 350.408,455.886 353.204,453.286Z"/>
            </clipPath>
            <g clip-path="url(#_clip3)">
                <g transform="matrix(0.368848,0,0,-0.192664,-195.929,680.889)">
                    <rect x="1492.96" y="1131.36" width="38.08" height="65.142" style="fill:rgb(83,101,125);"/>
                </g>
            </g>
        </g>
        <g transform="matrix(1.2648,0,0,1.2648,-1765.57,-1377.36)">
            <path d="M1505.96,1193.84C1507.17,1193.84 1508.15,1194.82 1508.15,1196.03C1508.15,1197 1507.52,1197.83 1506.65,1198.11C1507.52,1198.4 1508.15,1199.22 1508.15,1200.19C1508.15,1201.16 1507.52,1201.99 1506.65,1202.27C1507.52,1202.56 1508.15,1203.38 1508.15,1204.35C1508.15,1205.56 1507.17,1206.54 1505.96,1206.54L1480.5,1206.54C1479.29,1206.54 1478.31,1205.56 1478.31,1204.35C1478.31,1203.38 1478.94,1202.56 1479.81,1202.27C1478.94,1201.99 1478.31,1201.16 1478.31,1200.19C1478.31,1199.22 1478.94,1198.4 1479.81,1198.11C1478.94,1197.83 1478.31,1197 1478.31,1196.03C1478.31,1194.82 1479.29,1193.84 1480.5,1193.84L1505.96,1193.84Z" style="fill:rgb(201,211,223);"/>
            <clipPath id="_clip4">
                <path d="M1505.96,1193.84C1507.17,1193.84 1508.15,1194.82 1508.15,1196.03C1508.15,1197 1507.52,1197.83 1506.65,1198.11C1507.52,1198.4 1508.15,1199.22 1508.15,1200.19C1508.15,1201.16 1507.52,1201.99 1506.65,1202.27C1507.52,1202.56 1508.15,1203.38 1508.15,1204.35C1508.15,1205.56 1507.17,1206.54 1505.96,1206.54L1480.5,1206.54C1479.29,1206.54 1478.31,1205.56 1478.31,1204.35C1478.31,1203.38 1478.94,1202.56 1479.81,1202.27C1478.94,1201.99 1478.31,1201.16 1478.31,1200.19C1478.31,1199.22 1478.94,1198.4 1479.81,1198.11C1478.94,1197.83 1478.31,1197 1478.31,1196.03C1478.31,1194.82 1479.29,1193.84 1480.5,1193.84L1505.96,1193.84Z"/>
            </clipPath>
            <g clip-path="url(#_clip4)">
                <g transform="matrix(0.478312,0,0,0.249841,778.863,909.224)">
                    <rect x="1492.96" y="1131.36" width="38.08" height="65.142" style="fill:rgb(131,147,167);"/>
                </g>
            </g>
        </g>
        <g transform="matrix(-0.835539,0,0,0.835539,1353.39,-866.866)">
            <path d="M1484.22,1121.71C1495.84,1121.82 1506.5,1131.86 1506.73,1143.93C1506.8,1147.22 1501.81,1149.95 1499.65,1146.31C1498.91,1145.06 1499.18,1143.44 1498.92,1141.89C1497.77,1134.96 1489.73,1129.15 1484.92,1129.07C1482.6,1129.03 1479.52,1128.03 1480.38,1124.59C1480.81,1122.87 1482.15,1121.7 1484.22,1121.71Z" style="fill:white;"/>
        </g>
        <g transform="matrix(1.2648,0,0,1.2648,-1765.57,-1377.36)">
            <path d="M1468.92,1123.27C1468.21,1122.04 1466.63,1121.61 1465.4,1122.32C1464.16,1123.04 1463.74,1124.61 1464.45,1125.85L1469.22,1134.09C1469.93,1135.33 1471.51,1135.75 1472.74,1135.04C1473.97,1134.33 1474.39,1132.75 1473.68,1131.52L1468.92,1123.27ZM1516.93,1123.27C1517.64,1122.04 1519.22,1121.61 1520.45,1122.32C1521.69,1123.04 1522.11,1124.61 1521.4,1125.85L1516.63,1134.09C1515.92,1135.33 1514.35,1135.75 1513.11,1135.04C1511.88,1134.33 1511.46,1132.75 1512.17,1131.52L1516.93,1123.27ZM1495.5,1116.28C1495.5,1114.86 1494.35,1113.7 1492.93,1113.7C1491.5,1113.7 1490.35,1114.86 1490.35,1116.28L1490.35,1125.81C1490.35,1127.23 1491.5,1128.38 1492.93,1128.38C1494.35,1128.38 1495.5,1127.23 1495.5,1125.81L1495.5,1116.28Z" style="fill:rgb(249,197,3);"/>
            <clipPath id="_clip5">
                <path d="M1468.92,1123.27C1468.21,1122.04 1466.63,1121.61 1465.4,1122.32C1464.16,1123.04 1463.74,1124.61 1464.45,1125.85L1469.22,1134.09C1469.93,1135.33 1471.51,1135.75 1472.74,1135.04C1473.97,1134.33 1474.39,1132.75 1473.68,1131.52L1468.92,1123.27ZM1516.93,1123.27C1517.64,1122.04 1519.22,1121.61 1520.45,1122.32C1521.69,1123.04 1522.11,1124.61 1521.4,1125.85L1516.63,1134.09C1515.92,1135.33 1514.35,1135.75 1513.11,1135.04C1511.88,1134.33 1511.46,1132.75 1512.17,1131.52L1516.93,1123.27ZM1495.5,1116.28C1495.5,1114.86 1494.35,1113.7 1492.93,1113.7C1491.5,1113.7 1490.35,1114.86 1490.35,1116.28L1490.35,1125.81C1490.35,1127.23 1491.5,1128.38 1492.93,1128.38C1494.35,1128.38 1495.5,1127.23 1495.5,1125.81L1495.5,1116.28Z"/>
            </clipPath>
            <g clip-path="url(#_clip5)">
                <g transform="matrix(0.794949,0,0,0.389421,306.133,671.107)">
                    <rect x="1492.96" y="1131.36" width="38.08" height="65.142" style="fill:rgb(244,153,69);"/>
                </g>
            </g>
        </g>
    </g>
</svg>
