<?xml version="1.0" encoding="UTF-8" standalone="no"?>
<!DOCTYPE svg PUBLIC "-//W3C//DTD SVG 1.1//EN" "http://www.w3.org/Graphics/SVG/1.1/DTD/svg11.dtd">
<svg width="100%" height="100%" viewBox="0 0 512 512" version="1.1" xmlns="http://www.w3.org/2000/svg" xmlns:xlink="http://www.w3.org/1999/xlink" xml:space="preserve" xmlns:serif="http://www.serif.com/" style="fill-rule:evenodd;clip-rule:evenodd;stroke-linejoin:round;stroke-miterlimit:2;">
    <g id="Lock" transform="matrix(15.3753,0,0,15.3753,-566.469,-3096.12)">
        <g transform="matrix(0.050909,0,0,0.061607,40.1801,201.975)">
            <path d="M424.363,145.298C424.363,71.019 351.386,10.715 261.498,10.715C171.611,10.715 98.634,71.019 98.634,145.298C98.634,145.298 98.634,295.141 98.634,295.141C98.634,369.419 171.611,429.724 261.498,429.724C351.386,429.724 424.363,369.419 424.363,295.141L424.363,145.298ZM363.345,145.298L363.345,295.141C363.345,341.591 317.709,379.302 261.498,379.302C205.288,379.302 159.651,341.591 159.651,295.141L159.651,145.298C159.651,98.848 205.288,61.136 261.498,61.136C317.709,61.136 363.345,98.848 363.345,145.298Z" style="fill:white;"/>
            <clipPath id="_clip1">
                <path d="M424.363,145.298C424.363,71.019 351.386,10.715 261.498,10.715C171.611,10.715 98.634,71.019 98.634,145.298C98.634,145.298 98.634,295.141 98.634,295.141C98.634,369.419 171.611,429.724 261.498,429.724C351.386,429.724 424.363,369.419 424.363,295.141L424.363,145.298ZM363.345,145.298L363.345,295.141C363.345,341.591 317.709,379.302 261.498,379.302C205.288,379.302 159.651,341.591 159.651,295.141L159.651,145.298C159.651,98.848 205.288,61.136 261.498,61.136C317.709,61.136 363.345,98.848 363.345,145.298Z"/>
            </clipPath>
            <g clip-path="url(#_clip1)">
                <g transform="matrix(15.9003,0,0,10.7147,-588.994,-2263.72)">
                    <rect x="53.538" y="210.746" width="14.518" height="27.848" style="fill:rgb(218,226,234);"/>
                </g>
            </g>
        </g>
        <g transform="matrix(1,0,0,1,0,-0.965037)">
            <g transform="matrix(1,0,0,1,-71.9879,-4.86159)">
                <path d="M138.488,224.005C138.488,221.686 136.606,219.804 134.287,219.804L116.674,219.804C114.355,219.804 112.473,221.686 112.473,224.005L112.473,235.029C112.473,237.347 114.355,239.229 116.674,239.229L134.287,239.229C136.606,239.229 138.488,237.347 138.488,235.029L138.488,224.005Z" style="fill:rgb(213,227,244);"/>
                <clipPath id="_clip2">
                    <path d="M138.488,224.005C138.488,221.686 136.606,219.804 134.287,219.804L116.674,219.804C114.355,219.804 112.473,221.686 112.473,224.005L112.473,235.029C112.473,237.347 114.355,239.229 116.674,239.229L134.287,239.229C136.606,239.229 138.488,237.347 138.488,235.029L138.488,224.005Z"/>
                </clipPath>
                <g clip-path="url(#_clip2)">
                    <g transform="matrix(0.924236,0,0,0.723325,76.0442,66.9654)">
                        <rect x="53.538" y="210.746" width="14.518" height="27.848" style="fill:rgb(154,174,197);"/>
                    </g>
                </g>
            </g>
            <g>
                <path d="M52.146,226.5C50.992,225.984 50.187,224.825 50.187,223.48C50.187,221.655 51.668,220.174 53.493,220.174C55.317,220.174 56.799,221.655 56.799,223.48C56.799,224.825 55.994,225.984 54.839,226.5L54.839,227.789C54.839,228.533 54.236,229.136 53.493,229.136C52.749,229.136 52.146,228.533 52.146,227.789L52.146,226.5Z" style="fill:rgb(55,82,100);"/>
                <clipPath id="_clip3">
                    <path d="M52.146,226.5C50.992,225.984 50.187,224.825 50.187,223.48C50.187,221.655 51.668,220.174 53.493,220.174C55.317,220.174 56.799,221.655 56.799,223.48C56.799,224.825 55.994,225.984 54.839,226.5L54.839,227.789C54.839,228.533 54.236,229.136 53.493,229.136C52.749,229.136 52.146,228.533 52.146,227.789L52.146,226.5Z"/>
                </clipPath>
                <g clip-path="url(#_clip3)">
                    <g transform="matrix(0.342416,0,0,0.362934,35.2055,143.292)">
                        <rect x="53.538" y="210.746" width="14.518" height="27.848" style="fill:rgb(43,65,78);"/>
                    </g>
                </g>
            </g>
        </g>
    </g>
</svg>
