<?xml version="1.0" encoding="UTF-8" standalone="no"?>
<!DOCTYPE svg PUBLIC "-//W3C//DTD SVG 1.1//EN" "http://www.w3.org/Graphics/SVG/1.1/DTD/svg11.dtd">
<svg width="100%" height="100%" viewBox="0 0 512 512" version="1.1" xmlns="http://www.w3.org/2000/svg" xmlns:xlink="http://www.w3.org/1999/xlink" xml:space="preserve" xmlns:serif="http://www.serif.com/" style="fill-rule:evenodd;clip-rule:evenodd;stroke-linejoin:round;stroke-miterlimit:2;">
    <g id="LockIcon" transform="matrix(15.5546,0,0,15.5546,-576.058,-3145.37)">
        <path d="M44.331,217.072C44.242,212.7 44.316,208.385 47.055,205.646C48.79,203.912 50.953,202.962 53.61,202.979C58.313,203.068 62.504,207.067 62.597,211.966C62.608,213.648 62.676,215.382 62.658,217.072L58.331,217.072C58.446,214.558 58.547,212.105 57.943,210.456C57.264,208.604 55.494,207.334 53.431,207.346C51.001,207.392 48.835,209.502 48.757,211.96C48.726,213.61 48.631,215.385 48.651,217.072L44.331,217.072Z" style="fill:white;"/>
        <clipPath id="_clip1">
            <path d="M44.331,217.072C44.242,212.7 44.316,208.385 47.055,205.646C48.79,203.912 50.953,202.962 53.61,202.979C58.313,203.068 62.504,207.067 62.597,211.966C62.608,213.648 62.676,215.382 62.658,217.072L58.331,217.072C58.446,214.558 58.547,212.105 57.943,210.456C57.264,208.604 55.494,207.334 53.431,207.346C51.001,207.392 48.835,209.502 48.757,211.96C48.726,213.61 48.631,215.385 48.651,217.072L44.331,217.072Z"/>
        </clipPath>
        <g clip-path="url(#_clip1)">
            <g transform="matrix(0.924236,0,0,0.535425,4.05623,88.898)">
                <rect x="53.538" y="210.746" width="14.518" height="27.848" style="fill:rgb(217,217,217);"/>
            </g>
        </g>
        <g transform="matrix(1,0,0,1,-71.9879,-4.86159)">
            <path d="M138.488,222.132C138.488,220.847 137.445,219.804 136.16,219.804L114.801,219.804C113.516,219.804 112.473,220.847 112.473,222.132L112.473,236.901C112.473,238.186 113.516,239.229 114.801,239.229L136.16,239.229C137.445,239.229 138.488,238.186 138.488,236.901L138.488,222.132Z" style="fill:rgb(237,191,65);"/>
            <clipPath id="_clip2">
                <path d="M138.488,222.132C138.488,220.847 137.445,219.804 136.16,219.804L114.801,219.804C113.516,219.804 112.473,220.847 112.473,222.132L112.473,236.901C112.473,238.186 113.516,239.229 114.801,239.229L136.16,239.229C137.445,239.229 138.488,238.186 138.488,236.901L138.488,222.132Z"/>
            </clipPath>
            <g clip-path="url(#_clip2)">
                <g transform="matrix(0.924236,0,0,0.723325,76.0442,66.9654)">
                    <rect x="53.538" y="210.746" width="14.518" height="27.848" style="fill:rgb(225,151,39);"/>
                </g>
            </g>
        </g>
        <g>
            <path d="M52.146,226.5C50.992,225.984 50.187,224.825 50.187,223.48C50.187,221.655 51.668,220.174 53.493,220.174C55.317,220.174 56.799,221.655 56.799,223.48C56.799,224.825 55.994,225.984 54.839,226.5L54.839,227.789C54.839,228.533 54.236,229.136 53.493,229.136C52.749,229.136 52.146,228.533 52.146,227.789L52.146,226.5Z" style="fill:rgb(55,82,100);"/>
            <clipPath id="_clip3">
                <path d="M52.146,226.5C50.992,225.984 50.187,224.825 50.187,223.48C50.187,221.655 51.668,220.174 53.493,220.174C55.317,220.174 56.799,221.655 56.799,223.48C56.799,224.825 55.994,225.984 54.839,226.5L54.839,227.789C54.839,228.533 54.236,229.136 53.493,229.136C52.749,229.136 52.146,228.533 52.146,227.789L52.146,226.5Z"/>
            </clipPath>
            <g clip-path="url(#_clip3)">
                <g transform="matrix(0.342416,0,0,0.362934,35.2055,143.292)">
                    <rect x="53.538" y="210.746" width="14.518" height="27.848" style="fill:rgb(43,65,78);"/>
                </g>
            </g>
        </g>
    </g>
</svg>
