<?xml version="1.0" encoding="UTF-8" standalone="no"?>
<!DOCTYPE svg PUBLIC "-//W3C//DTD SVG 1.1//EN" "http://www.w3.org/Graphics/SVG/1.1/DTD/svg11.dtd">
<svg width="100%" height="100%" viewBox="0 0 512 512" version="1.1" xmlns="http://www.w3.org/2000/svg" xmlns:xlink="http://www.w3.org/1999/xlink" xml:space="preserve" xmlns:serif="http://www.serif.com/" style="fill-rule:evenodd;clip-rule:evenodd;stroke-linejoin:round;stroke-miterlimit:2;">
    <g id="Lock---Light" serif:id="Lock - Light" transform="matrix(11.2327,0,0,11.2327,-344.866,-2181.61)">
        <g transform="matrix(0.0468515,0,0,0.0566968,41.2411,198.745)">
            <path d="M424.363,145.298C424.363,71.019 351.386,10.715 261.498,10.715C171.611,10.715 98.634,71.019 98.634,145.298C98.634,145.298 98.634,387.733 98.634,387.733C98.634,462.011 171.611,522.316 261.498,522.316C351.386,522.316 424.363,462.011 424.363,387.733L424.363,145.298ZM363.345,145.298L363.345,387.733C363.345,434.183 317.709,471.894 261.498,471.894C205.288,471.894 159.651,434.183 159.651,387.733L159.651,145.298C159.651,98.848 205.288,61.136 261.498,61.136C317.709,61.136 363.345,98.848 363.345,145.298Z" style="fill:rgb(191,201,212);"/>
        </g>
        <g transform="matrix(1,0,0,1,0,0.301275)">
            <g transform="matrix(1,0,0,1,-71.9879,-4.86159)">
                <path d="M138.488,224.005C138.488,221.686 136.606,219.804 134.287,219.804L116.674,219.804C114.355,219.804 112.473,221.686 112.473,224.005L112.473,235.029C112.473,237.347 114.355,239.229 116.674,239.229L134.287,239.229C136.606,239.229 138.488,237.347 138.488,235.029L138.488,224.005Z" style="fill:rgb(176,189,204);"/>
                <clipPath id="_clip1">
                    <path d="M138.488,224.005C138.488,221.686 136.606,219.804 134.287,219.804L116.674,219.804C114.355,219.804 112.473,221.686 112.473,224.005L112.473,235.029C112.473,237.347 114.355,239.229 116.674,239.229L134.287,239.229C136.606,239.229 138.488,237.347 138.488,235.029L138.488,224.005Z"/>
                </clipPath>
                <g clip-path="url(#_clip1)">
                    <g transform="matrix(0.178052,0,0,0.178052,102.69,198.78)">
                        <rect x="127.275" y="83.362" width="89.801" height="154.601" style="fill:rgb(95,115,141);fill-opacity:0.2;"/>
                    </g>
                </g>
            </g>
            <g transform="matrix(0.625328,0,0,0.625328,20.0422,84.1719)">
                <path d="M52.146,226.5C50.992,225.984 50.187,224.825 50.187,223.48C50.187,221.655 51.668,220.174 53.493,220.174C55.317,220.174 56.799,221.655 56.799,223.48C56.799,224.825 55.994,225.984 54.839,226.5L54.839,227.789C54.839,228.533 54.236,229.136 53.493,229.136C52.749,229.136 52.146,228.533 52.146,227.789L52.146,226.5Z" style="fill:rgb(61,77,101);"/>
            </g>
        </g>
    </g>
</svg>
