<?xml version="1.0" encoding="UTF-8" standalone="no"?>
<!DOCTYPE svg PUBLIC "-//W3C//DTD SVG 1.1//EN" "http://www.w3.org/Graphics/SVG/1.1/DTD/svg11.dtd">
<svg width="100%" height="100%" viewBox="0 0 512 512" version="1.1" xmlns="http://www.w3.org/2000/svg" xmlns:xlink="http://www.w3.org/1999/xlink" xml:space="preserve" xmlns:serif="http://www.serif.com/" style="fill-rule:evenodd;clip-rule:evenodd;stroke-linejoin:round;stroke-miterlimit:2;">
    <g id="MagnetIcon" transform="matrix(21.1358,0,0,21.1358,-5897.66,710.176)">
        <g transform="matrix(0.942474,0,0,1.77623,13.5232,-131.575)">
            <path d="M305.973,63.36C305.973,63.154 305.657,62.986 305.268,62.986L299.627,62.986C299.238,62.986 298.922,63.154 298.922,63.36L298.922,68.089C298.922,68.296 299.238,68.463 299.627,68.463L305.268,68.463C305.657,68.463 305.973,68.296 305.973,68.089L305.973,63.36Z" style="fill:rgb(198,198,198);"/>
        </g>
        <g transform="matrix(0.942474,0,0,1.77623,-1.31095,-131.575)">
            <path d="M305.973,63.36C305.973,63.154 305.657,62.986 305.268,62.986L299.627,62.986C299.238,62.986 298.922,63.154 298.922,63.36L298.922,68.089C298.922,68.296 299.238,68.463 299.627,68.463L305.268,68.463C305.657,68.463 305.973,68.296 305.973,68.089L305.973,63.36Z" style="fill:white;"/>
        </g>
        <g transform="matrix(1,0,0,1,-18.7062,-77.0907)">
            <path d="M298.889,59.82C298.876,59.82 298.866,59.81 298.866,59.797C298.866,59.436 298.866,55.072 298.866,55.072C298.866,49.006 303.79,44.082 309.855,44.082C315.921,44.082 320.845,49.006 320.845,55.072L320.845,59.797C320.845,59.81 320.835,59.82 320.822,59.82C320.389,59.82 314.169,59.82 313.737,59.82C313.724,59.82 313.713,59.81 313.713,59.797C313.713,59.416 313.713,54.555 313.713,54.555C313.713,52.426 311.984,50.697 309.855,50.697C307.726,50.697 305.998,52.426 305.998,54.555L305.998,59.797C305.998,59.81 305.987,59.82 305.974,59.82C305.542,59.82 299.322,59.82 298.889,59.82Z" style="fill:rgb(212,55,55);"/>
            <clipPath id="_clip1">
                <path d="M298.889,59.82C298.876,59.82 298.866,59.81 298.866,59.797C298.866,59.436 298.866,55.072 298.866,55.072C298.866,49.006 303.79,44.082 309.855,44.082C315.921,44.082 320.845,49.006 320.845,55.072L320.845,59.797C320.845,59.81 320.835,59.82 320.822,59.82C320.389,59.82 314.169,59.82 313.737,59.82C313.724,59.82 313.713,59.81 313.713,59.797C313.713,59.416 313.713,54.555 313.713,54.555C313.713,52.426 311.984,50.697 309.855,50.697C307.726,50.697 305.998,52.426 305.998,54.555L305.998,59.797C305.998,59.81 305.987,59.82 305.974,59.82C305.542,59.82 299.322,59.82 298.889,59.82Z"/>
            </clipPath>
            <g clip-path="url(#_clip1)">
                <g transform="matrix(0.45663,0,0,0.45663,-432.257,-412.746)">
                    <rect x="1625.44" y="992.459" width="28.987" height="49.509" style="fill:rgb(165,49,49);"/>
                </g>
            </g>
        </g>
    </g>
</svg>
