<?xml version="1.0" encoding="UTF-8" standalone="no"?>
<!DOCTYPE svg PUBLIC "-//W3C//DTD SVG 1.1//EN" "http://www.w3.org/Graphics/SVG/1.1/DTD/svg11.dtd">
<svg width="100%" height="100%" viewBox="0 0 512 512" version="1.1" xmlns="http://www.w3.org/2000/svg" xmlns:xlink="http://www.w3.org/1999/xlink" xml:space="preserve" xmlns:serif="http://www.serif.com/" style="fill-rule:evenodd;clip-rule:evenodd;stroke-linejoin:round;stroke-miterlimit:2;">
    <g id="MailIcon" transform="matrix(3.6419,0,0,3.80537,-1106.96,-1292.85)">
        <path d="M438.945,369.307C438.945,366.822 436.837,364.805 434.241,364.805L314.244,364.805C311.648,364.805 309.54,366.822 309.54,369.307L309.54,444.729C309.54,447.214 311.648,449.231 314.244,449.231L434.241,449.231C436.837,449.231 438.945,447.214 438.945,444.729L438.945,369.307Z" style="fill:rgb(219,227,234);"/>
        <clipPath id="_clip1">
            <path d="M438.945,369.307C438.945,366.822 436.837,364.805 434.241,364.805L314.244,364.805C311.648,364.805 309.54,366.822 309.54,369.307L309.54,444.729C309.54,447.214 311.648,449.231 314.244,449.231L434.241,449.231C436.837,449.231 438.945,447.214 438.945,444.729L438.945,369.307Z"/>
        </clipPath>
        <g clip-path="url(#_clip1)">
            <g transform="matrix(0.968137,-2.78391e-17,-2.00498e-17,1.11693,10.2648,16.6632)">
                <path d="M375.957,334.777L444.099,390.713L307.815,390.713L375.957,334.777Z" style="fill:rgb(173,185,201);"/>
            </g>
            <g transform="matrix(0.968137,-2.33038e-17,-2.00498e-17,0.934976,10.2648,85.8398)">
                <path d="M375.957,334.777L444.099,390.713L307.815,390.713L375.957,334.777Z" style="fill:rgb(235,239,243);"/>
            </g>
            <g transform="matrix(0.968137,-8.84408e-18,9.24104e-18,-0.998767,10.2648,752.643)">
                <path d="M373.14,337.089C374.839,335.694 377.075,335.694 378.774,337.089C391.63,347.642 444.099,390.713 444.099,390.713L307.815,390.713C307.815,390.713 360.284,347.642 373.14,337.089Z" style="fill:rgb(173,185,201);"/>
            </g>
            <g transform="matrix(0.968137,1.66265e-17,-1.73728e-17,-0.790784,10.2648,672.979)">
                <path d="M373.14,337.089C374.839,335.694 377.075,335.694 378.774,337.089C391.63,347.642 444.099,390.713 444.099,390.713L307.815,390.713C307.815,390.713 360.284,347.642 373.14,337.089Z" style="fill:white;"/>
            </g>
            <g transform="matrix(0.968137,0,0,0.92655,-190.52,30.7451)">
                <rect x="583.171" y="350.153" width="83.588" height="107.357" style="fill:rgb(30,48,73);fill-opacity:0.15;"/>
            </g>
        </g>
    </g>
</svg>
