<?xml version="1.0" encoding="UTF-8" standalone="no"?>
<!DOCTYPE svg PUBLIC "-//W3C//DTD SVG 1.1//EN" "http://www.w3.org/Graphics/SVG/1.1/DTD/svg11.dtd">
<svg width="100%" height="100%" viewBox="0 0 512 512" version="1.1" xmlns="http://www.w3.org/2000/svg" xmlns:xlink="http://www.w3.org/1999/xlink" xml:space="preserve" xmlns:serif="http://www.serif.com/" style="fill-rule:evenodd;clip-rule:evenodd;stroke-linejoin:round;stroke-miterlimit:2;">
    <g id="MeatSlicedIcon" transform="matrix(7.14831,0,0,6.78364,-32253.6,-11364.4)">
        <g transform="matrix(0.957992,0,0,1.00949,3582.13,-2911.1)">
            <path d="M1017.4,4567.95C1020.56,4567.46 1024.1,4567.3 1027.59,4567.95L1043.43,4567.95L1043.43,4584.62L1043.42,4584.62C1043.61,4589.6 1040.99,4594.14 1035.68,4596.24L1005.97,4607.97C998.314,4610.99 974.526,4608.73 972.801,4588.69L972.787,4588.69L972.787,4588.51L972.78,4588.43C972.735,4587.85 972.787,4572.65 972.787,4572.65L981.597,4572.65C986.036,4569.68 992.071,4568.05 999.534,4569.38L999.534,4567.95L1017.4,4567.95Z" style="fill:rgb(251,148,109);"/>
            <clipPath id="_clip1">
                <path d="M1017.4,4567.95C1020.56,4567.46 1024.1,4567.3 1027.59,4567.95L1043.43,4567.95L1043.43,4584.62L1043.42,4584.62C1043.61,4589.6 1040.99,4594.14 1035.68,4596.24L1005.97,4607.97C998.314,4610.99 974.526,4608.73 972.801,4588.69L972.787,4588.69L972.787,4588.51L972.78,4588.43C972.735,4587.85 972.787,4572.65 972.787,4572.65L981.597,4572.65C986.036,4569.68 992.071,4568.05 999.534,4569.38L999.534,4567.95L1017.4,4567.95Z"/>
            </clipPath>
            <g clip-path="url(#_clip1)">
                <g transform="matrix(0.856678,0,0,1.81365,149.214,-3743.68)">
                    <rect x="1002.46" y="4580.21" width="30.422" height="31.172" style="fill:rgb(241,133,94);"/>
                </g>
            </g>
        </g>
        <g transform="matrix(0.957992,0,0,1.00949,3582.13,-2911.1)">
            <path d="M1006.28,4555.95C1006.28,4555.95 1028.74,4545.09 1040.08,4560.35C1045.77,4568.01 1044.16,4577.57 1035.68,4580.92L1005.97,4592.65C998.282,4595.69 974.326,4593.4 972.78,4573.12C972.037,4563.36 984.266,4547.6 1006.28,4555.95Z" style="fill:rgb(255,197,176);"/>
        </g>
        <g transform="matrix(0.737841,0,0,0.777505,3804.06,-1850.34)">
            <path d="M1006.28,4555.95C1006.28,4555.95 1032.08,4543.98 1043.43,4559.25C1049.12,4566.9 1045.96,4574.72 1035.43,4579.8L1005.71,4591.53C998.027,4594.56 971.607,4594.1 970.273,4573.8C969.358,4559.87 987.034,4549.03 1006.28,4555.95Z" style="fill:rgb(251,129,137);"/>
        </g>
        <g transform="matrix(0.981455,0,0,1.05334,3555.86,-3110.77)">
            <ellipse cx="999.652" cy="4572.24" rx="12.941" ry="9.437" style="fill:rgb(250,110,120);"/>
        </g>
        <g transform="matrix(0.45397,0,0,0.51081,4083.16,-630.7)">
            <ellipse cx="999.652" cy="4572.24" rx="12.941" ry="9.437" style="fill:rgb(251,216,150);"/>
        </g>
    </g>
</svg>
