<?xml version="1.0" encoding="UTF-8" standalone="no"?>
<!DOCTYPE svg PUBLIC "-//W3C//DTD SVG 1.1//EN" "http://www.w3.org/Graphics/SVG/1.1/DTD/svg11.dtd">
<svg width="100%" height="100%" viewBox="0 0 512 512" version="1.1" xmlns="http://www.w3.org/2000/svg" xmlns:xlink="http://www.w3.org/1999/xlink" xml:space="preserve" xmlns:serif="http://www.serif.com/" style="fill-rule:evenodd;clip-rule:evenodd;stroke-linejoin:round;stroke-miterlimit:2;">
    <g id="MeatFullIcon" transform="matrix(3.842,0,2.87201e-16,3.646,-16268.4,-6528.87)">
        <g transform="matrix(1.32462,0,0,1.39583,1425.22,1392.67)">
            <path d="M2166.17,371.865L2166.17,355.209L2175.86,355.209L2175.86,371.865C2175.98,371.858 2176.1,371.855 2176.22,371.855C2179.59,371.855 2182.33,374.594 2182.33,377.967C2182.33,381.341 2179.59,384.08 2176.22,384.08C2174.02,384.08 2172.09,382.918 2171.02,381.175C2169.94,382.918 2168.01,384.08 2165.81,384.08C2162.44,384.08 2159.7,381.341 2159.7,377.967C2159.7,374.594 2162.44,371.855 2165.81,371.855C2165.93,371.855 2166.05,371.858 2166.17,371.865Z" style="fill:rgb(239,199,147);"/>
            <clipPath id="_clip1">
                <path d="M2166.17,371.865L2166.17,355.209L2175.86,355.209L2175.86,371.865C2175.98,371.858 2176.1,371.855 2176.22,371.855C2179.59,371.855 2182.33,374.594 2182.33,377.967C2182.33,381.341 2179.59,384.08 2176.22,384.08C2174.02,384.08 2172.09,382.918 2171.02,381.175C2169.94,382.918 2168.01,384.08 2165.81,384.08C2162.44,384.08 2159.7,381.341 2159.7,377.967C2159.7,374.594 2162.44,371.855 2165.81,371.855C2165.93,371.855 2166.05,371.858 2166.17,371.865Z"/>
            </clipPath>
            <g clip-path="url(#_clip1)">
                <g transform="matrix(0.280403,0,0,0.375862,1562.23,248.787)">
                    <rect x="2171.12" y="274.978" width="46.015" height="89.612" style="fill:rgb(217,167,126);"/>
                </g>
            </g>
        </g>
        <g transform="matrix(0.769057,0,0,0.353573,3533.94,222.537)">
            <rect x="988.642" y="4704.77" width="17.511" height="36.394" style="fill:rgb(145,80,47);"/>
            <clipPath id="_clip2">
                <rect x="988.642" y="4704.77" width="17.511" height="36.394"/>
            </clipPath>
            <g clip-path="url(#_clip2)">
                <g transform="matrix(1.7224,0,0,0.527917,-2742.13,4554.46)">
                    <rect x="2171.12" y="274.978" width="46.015" height="89.612" style="fill:rgb(118,65,38);"/>
                </g>
            </g>
        </g>
        <g transform="matrix(0.598233,0,0,1.36113,3582.42,-4403.83)">
            <ellipse cx="1201.17" cy="4588.12" rx="67.898" ry="35.387" style="fill:rgb(145,80,47);"/>
            <clipPath id="_clip3">
                <ellipse cx="1201.17" cy="4588.12" rx="67.898" ry="35.387"/>
            </clipPath>
            <g clip-path="url(#_clip3)">
                <g transform="matrix(2.21422,0,0,0.935624,-3606.18,4283.3)">
                    <rect x="2171.12" y="274.978" width="46.015" height="89.612" style="fill:rgb(118,65,38);"/>
                </g>
            </g>
        </g>
        <g transform="matrix(0.125812,0.0765427,-0.156839,0.286256,4851.74,415.433)">
            <ellipse cx="1201.17" cy="4588.12" rx="67.898" ry="35.387" style="fill:rgb(179,98,57);"/>
        </g>
    </g>
</svg>
