<?xml version="1.0" encoding="UTF-8" standalone="no"?>
<!DOCTYPE svg PUBLIC "-//W3C//DTD SVG 1.1//EN" "http://www.w3.org/Graphics/SVG/1.1/DTD/svg11.dtd">
<svg width="100%" height="100%" viewBox="0 0 512 512" version="1.1" xmlns="http://www.w3.org/2000/svg" xmlns:xlink="http://www.w3.org/1999/xlink" xml:space="preserve" xmlns:serif="http://www.serif.com/" style="fill-rule:evenodd;clip-rule:evenodd;stroke-linejoin:round;stroke-miterlimit:2;">
    <g id="MicrophoneIcon" transform="matrix(6.09609,0,0,6.09609,-5406.39,-5925.67)">
        <g transform="matrix(1.79149e-17,0.292572,-1.31291,8.03925e-17,2315.1,739.435)">
            <rect x="925.467" y="1038.04" width="7.48" height="16.994" style="fill:rgb(87,92,107);"/>
        </g>
        <g transform="matrix(1.79149e-17,0.292572,-1.14443,7.00763e-17,2112.94,739.435)">
            <rect x="925.467" y="1038.04" width="7.48" height="16.994" style="fill:rgb(141,147,163);"/>
        </g>
        <g transform="matrix(0.719151,0,0,0.981123,258.934,11.7782)">
            <path d="M953.322,997.827C953.322,989 943.545,981.833 931.503,981.833C919.46,981.833 909.684,989 909.684,997.827L909.684,1022.88C909.684,1031.71 919.46,1038.88 931.503,1038.88C943.545,1038.88 953.322,1031.71 953.322,1022.88L953.322,997.827Z" style="fill:rgb(63,62,68);"/>
            <clipPath id="_clip1">
                <path d="M953.322,997.827C953.322,989 943.545,981.833 931.503,981.833C919.46,981.833 909.684,989 909.684,997.827L909.684,1022.88C909.684,1031.71 919.46,1038.88 931.503,1038.88C943.545,1038.88 953.322,1031.71 953.322,1022.88L953.322,997.827Z"/>
            </clipPath>
            <g clip-path="url(#_clip1)">
                <g transform="matrix(0.638921,0,0,0.812734,338.051,195.731)">
                    <rect x="928.817" y="962.905" width="42.174" height="76.589" style="fill:rgb(49,48,52);"/>
                </g>
                <g transform="matrix(1,0,0,1,2.0701,0)">
                    <g transform="matrix(1.39053,0,0,1.01924,-358.053,-13.5805)">
                        <path d="M949.089,992.831C949.089,992.143 948.531,991.585 947.844,991.585L935.239,991.585C934.552,991.585 933.994,992.143 933.994,992.831C933.994,993.518 934.552,994.076 935.239,994.076L947.844,994.076C948.531,994.076 949.089,993.518 949.089,992.831Z" style="fill:rgb(63,62,68);"/>
                    </g>
                    <g transform="matrix(1.39053,0,0,1.01924,-358.053,-6.42429)">
                        <path d="M949.089,992.831C949.089,992.143 948.531,991.585 947.844,991.585L935.239,991.585C934.552,991.585 933.994,992.143 933.994,992.831C933.994,993.518 934.552,994.076 935.239,994.076L947.844,994.076C948.531,994.076 949.089,993.518 949.089,992.831Z" style="fill:rgb(63,62,68);"/>
                    </g>
                    <g transform="matrix(1.39053,0,0,1.01924,-358.053,0.73193)">
                        <path d="M949.089,992.831C949.089,992.143 948.531,991.585 947.844,991.585L935.239,991.585C934.552,991.585 933.994,992.143 933.994,992.831C933.994,993.518 934.552,994.076 935.239,994.076L947.844,994.076C948.531,994.076 949.089,993.518 949.089,992.831Z" style="fill:rgb(63,62,68);"/>
                    </g>
                </g>
                <g transform="matrix(1,0,0,1,-41.4499,0)">
                    <g transform="matrix(1.39053,0,0,1.01924,-358.053,-13.5805)">
                        <path d="M949.089,992.831C949.089,992.143 948.531,991.585 947.844,991.585L935.239,991.585C934.552,991.585 933.994,992.143 933.994,992.831C933.994,993.518 934.552,994.076 935.239,994.076L947.844,994.076C948.531,994.076 949.089,993.518 949.089,992.831Z" style="fill:rgb(49,48,52);"/>
                    </g>
                    <g transform="matrix(1.39053,0,0,1.01924,-358.053,-6.42429)">
                        <path d="M949.089,992.831C949.089,992.143 948.531,991.585 947.844,991.585L935.239,991.585C934.552,991.585 933.994,992.143 933.994,992.831C933.994,993.518 934.552,994.076 935.239,994.076L947.844,994.076C948.531,994.076 949.089,993.518 949.089,992.831Z" style="fill:rgb(49,48,52);"/>
                    </g>
                    <g transform="matrix(1.39053,0,0,1.01924,-358.053,0.73193)">
                        <path d="M949.089,992.831C949.089,992.143 948.531,991.585 947.844,991.585L935.239,991.585C934.552,991.585 933.994,992.143 933.994,992.831C933.994,993.518 934.552,994.076 935.239,994.076L947.844,994.076C948.531,994.076 949.089,993.518 949.089,992.831Z" style="fill:rgb(49,48,52);"/>
                    </g>
                </g>
            </g>
        </g>
        <g transform="matrix(1,0,0,1,10.3099,51.3327)">
            <path d="M941.831,952.704C942.71,953 942.872,953.377 942.913,954.127C942.913,960.305 943.452,966.501 941.379,972.05C936.852,984.167 921.58,991.138 909.296,986.117C900.407,982.483 894.146,973.288 894.117,963.526L894.117,954.127C894.204,952.535 896.962,952.103 897.072,954.127C897.072,959.947 896.462,965.779 898.419,971.016C902.395,981.657 915.719,987.761 926.495,983.431C934.31,980.291 939.874,972.316 939.958,963.662C939.958,963.662 939.967,953.967 939.967,953.967C940.11,953.096 940.901,952.499 941.831,952.704Z" style="fill:rgb(141,147,163);"/>
            <clipPath id="_clip2">
                <path d="M941.831,952.704C942.71,953 942.872,953.377 942.913,954.127C942.913,960.305 943.452,966.501 941.379,972.05C936.852,984.167 921.58,991.138 909.296,986.117C900.407,982.483 894.146,973.288 894.117,963.526L894.117,954.127C894.204,952.535 896.962,952.103 897.072,954.127C897.072,959.947 896.462,965.779 898.419,971.016C902.395,981.657 915.719,987.761 926.495,983.431C934.31,980.291 939.874,972.316 939.958,963.662C939.958,963.662 939.967,953.967 939.967,953.967C940.11,953.096 940.901,952.499 941.831,952.704Z"/>
            </clipPath>
            <g clip-path="url(#_clip2)">
                <g transform="matrix(0.919197,0,0,0.529793,64.7413,440.375)">
                    <rect x="928.817" y="962.905" width="42.174" height="76.589" style="fill:rgb(87,92,107);"/>
                </g>
            </g>
        </g>
        <g transform="matrix(0.541748,0,0,0.637067,425.783,376.202)">
            <path d="M951.856,1054.44C951.856,1052.98 950.465,1051.8 948.751,1051.8L908.356,1051.8C906.642,1051.8 905.25,1052.98 905.25,1054.44L905.25,1059.72C905.25,1061.18 906.642,1062.36 908.356,1062.36L948.751,1062.36C950.465,1062.36 951.856,1061.18 951.856,1059.72L951.856,1054.44Z" style="fill:rgb(141,147,163);"/>
            <clipPath id="_clip3">
                <path d="M951.856,1054.44C951.856,1052.98 950.465,1051.8 948.751,1051.8L908.356,1051.8C906.642,1051.8 905.25,1052.98 905.25,1054.44L905.25,1059.72C905.25,1061.18 906.642,1062.36 908.356,1062.36L948.751,1062.36C950.465,1062.36 951.856,1061.18 951.856,1059.72L951.856,1054.44Z"/>
            </clipPath>
            <g clip-path="url(#_clip3)">
                <g transform="matrix(0.584548,0,0,0.224629,385.6,832.071)">
                    <rect x="928.817" y="962.905" width="42.174" height="76.589" style="fill:rgb(87,92,107);"/>
                </g>
            </g>
        </g>
        <g transform="matrix(1,0,0,0.61545,-0.382157,399.177)">
            <rect x="925.467" y="1038.04" width="7.48" height="16.994" style="fill:rgb(141,147,163);"/>
            <clipPath id="_clip4">
                <rect x="925.467" y="1038.04" width="7.48" height="16.994"/>
            </clipPath>
            <g clip-path="url(#_clip4)">
                <g transform="matrix(0.1491,0,0,0.396446,790.712,648.298)">
                    <rect x="928.817" y="962.905" width="42.174" height="76.589" style="fill:rgb(87,92,107);"/>
                </g>
            </g>
        </g>
    </g>
</svg>
