<?xml version="1.0" encoding="UTF-8" standalone="no"?>
<!DOCTYPE svg PUBLIC "-//W3C//DTD SVG 1.1//EN" "http://www.w3.org/Graphics/SVG/1.1/DTD/svg11.dtd">
<svg width="100%" height="100%" viewBox="0 0 512 512" version="1.1" xmlns="http://www.w3.org/2000/svg" xmlns:xlink="http://www.w3.org/1999/xlink" xml:space="preserve" xmlns:serif="http://www.serif.com/" style="fill-rule:evenodd;clip-rule:evenodd;stroke-linejoin:round;stroke-miterlimit:2;">
    <g id="MoneyIcon" transform="matrix(3.92223,0,0,3.72214,-16631.4,-4086.46)">
        <g id="Coin" transform="matrix(1,0,0,1,62.6517,-0.524285)">
            <g transform="matrix(0.957992,0,0,1.07371,3570.85,-3163.29)">
                <ellipse cx="726.292" cy="4057.9" rx="28.021" ry="12.604" style="fill:rgb(243,156,18);"/>
            </g>
            <g transform="matrix(0.960616,0,0,0.948331,3580.12,-2662.42)">
                <rect x="686.716" y="4050.57" width="55.847" height="15.439" style="fill:rgb(243,156,18);"/>
            </g>
            <g transform="matrix(0.957265,0,0,1.07371,3571.36,-3178.3)">
                <ellipse cx="726.292" cy="4057.9" rx="28.021" ry="12.604" style="fill:rgb(255,201,38);"/>
            </g>
        </g>
        <g id="Coin1" serif:id="Coin" transform="matrix(1,0,0,1,62.6517,-21.1944)">
            <g transform="matrix(0.957992,0,0,1.07371,3570.85,-3163.29)">
                <ellipse cx="726.292" cy="4057.9" rx="28.021" ry="12.604" style="fill:rgb(243,156,18);"/>
            </g>
            <g transform="matrix(0.960616,0,0,0.948331,3580.12,-2662.42)">
                <rect x="686.716" y="4050.57" width="55.847" height="15.439" style="fill:rgb(243,156,18);"/>
            </g>
            <g transform="matrix(0.957265,0,0,1.07371,3571.36,-3178.3)">
                <ellipse cx="726.292" cy="4057.9" rx="28.021" ry="12.604" style="fill:rgb(255,201,38);"/>
            </g>
        </g>
        <g id="Coin2" serif:id="Coin" transform="matrix(1,0,0,1,15.2115,-0.524285)">
            <g transform="matrix(0.957992,0,0,1.07371,3570.85,-3163.29)">
                <ellipse cx="726.292" cy="4057.9" rx="28.021" ry="12.604" style="fill:rgb(243,156,18);"/>
            </g>
            <g transform="matrix(0.960616,0,0,0.948331,3580.12,-2662.42)">
                <rect x="686.716" y="4050.57" width="55.847" height="15.439" style="fill:rgb(243,156,18);"/>
            </g>
            <g transform="matrix(0.957265,0,0,1.07371,3571.36,-3178.3)">
                <ellipse cx="726.292" cy="4057.9" rx="28.021" ry="12.604" style="fill:rgb(255,201,38);"/>
            </g>
        </g>
        <g id="Coin3" serif:id="Coin" transform="matrix(1,0,0,1,15.2115,-21.1944)">
            <g transform="matrix(0.957992,0,0,1.07371,3570.85,-3163.29)">
                <ellipse cx="726.292" cy="4057.9" rx="28.021" ry="12.604" style="fill:rgb(243,156,18);"/>
            </g>
            <g transform="matrix(0.960616,0,0,0.948331,3580.12,-2662.42)">
                <rect x="686.716" y="4050.57" width="55.847" height="15.439" style="fill:rgb(243,156,18);"/>
            </g>
            <g transform="matrix(0.957265,0,0,1.07371,3571.36,-3178.3)">
                <ellipse cx="726.292" cy="4057.9" rx="28.021" ry="12.604" style="fill:rgb(255,201,38);"/>
            </g>
        </g>
        <g id="Coin4" serif:id="Coin" transform="matrix(1,0,0,1,15.2115,-41.8644)">
            <g transform="matrix(0.957992,0,0,1.07371,3570.85,-3163.29)">
                <ellipse cx="726.292" cy="4057.9" rx="28.021" ry="12.604" style="fill:rgb(243,156,18);"/>
            </g>
            <g transform="matrix(0.960616,0,0,0.948331,3580.12,-2662.42)">
                <rect x="686.716" y="4050.57" width="55.847" height="15.439" style="fill:rgb(243,156,18);"/>
            </g>
            <g transform="matrix(0.957265,0,0,1.07371,3571.36,-3178.3)">
                <ellipse cx="726.292" cy="4057.9" rx="28.021" ry="12.604" style="fill:rgb(255,201,38);"/>
            </g>
        </g>
        <g id="Coin5" serif:id="Coin" transform="matrix(1,0,0,1,15.2115,-62.5345)">
            <g transform="matrix(0.957992,0,0,1.07371,3570.85,-3163.29)">
                <ellipse cx="726.292" cy="4057.9" rx="28.021" ry="12.604" style="fill:rgb(243,156,18);"/>
            </g>
            <g transform="matrix(0.960616,0,0,0.948331,3580.12,-2662.42)">
                <rect x="686.716" y="4050.57" width="55.847" height="15.439" style="fill:rgb(243,156,18);"/>
            </g>
            <g transform="matrix(0.957265,0,0,1.07371,3571.36,-3178.3)">
                <ellipse cx="726.292" cy="4057.9" rx="28.021" ry="12.604" style="fill:rgb(255,201,38);"/>
            </g>
        </g>
        <g id="Coin6" serif:id="Coin" transform="matrix(1,0,0,1,51.4071,23.3924)">
            <g transform="matrix(0.957992,0,0,1.07371,3570.85,-3163.29)">
                <ellipse cx="726.292" cy="4057.9" rx="28.021" ry="12.604" style="fill:rgb(243,156,18);"/>
            </g>
            <g transform="matrix(0.960616,0,0,0.948331,3580.12,-2662.42)">
                <rect x="686.716" y="4050.57" width="55.847" height="15.439" style="fill:rgb(243,156,18);"/>
            </g>
            <g transform="matrix(0.957265,0,0,1.07371,3571.36,-3178.3)">
                <ellipse cx="726.292" cy="4057.9" rx="28.021" ry="12.604" style="fill:rgb(255,201,38);"/>
            </g>
        </g>
    </g>
</svg>
