<?xml version="1.0" encoding="UTF-8" standalone="no"?>
<!DOCTYPE svg PUBLIC "-//W3C//DTD SVG 1.1//EN" "http://www.w3.org/Graphics/SVG/1.1/DTD/svg11.dtd">
<svg width="100%" height="100%" viewBox="0 0 512 512" version="1.1" xmlns="http://www.w3.org/2000/svg" xmlns:xlink="http://www.w3.org/1999/xlink" xml:space="preserve" xmlns:serif="http://www.serif.com/" style="fill-rule:evenodd;clip-rule:evenodd;stroke-linejoin:round;stroke-miterlimit:2;">
    <g transform="matrix(2.09552,0,0,2.09552,-2707.81,-718.079)">
        <g id="MonsterEyesIcon">
            <g>
                <g transform="matrix(0.539676,0,0,0.539676,974.695,-546.548)">
                    <path d="M795.133,1697.28C797.586,1697.48 799.225,1699.56 800.632,1701.95C809.164,1716.49 812.278,1734.5 807.536,1750.71C804.207,1762.09 797.155,1772.16 788.482,1780.32C788.482,1780.32 784.132,1783.21 781.32,1780.42C779.026,1778.15 780.142,1774.49 782.665,1772.05C793.542,1761.44 800.726,1746.77 799.673,1731.5C799.029,1722.17 796.125,1712.81 790.841,1705.16C790.841,1705.16 789.697,1703.35 789.988,1701.5C790.305,1699.48 791.973,1697.75 793.989,1697.36C794.712,1697.23 794.895,1697.28 795.133,1697.28Z" style="fill:rgb(144,206,94);fill-rule:nonzero;"/>
                </g>
                <g transform="matrix(-0.522735,0.134158,-0.134158,-0.522735,2127.7,1332.63)">
                    <path d="M799.373,1801.77C798.844,1801.59 798.707,1801.56 798.192,1801.34C792.79,1799.05 789.673,1792.42 791.385,1786.79C791.873,1785.19 792.699,1783.69 793.798,1782.43C795.156,1780.86 796.78,1779.51 798.137,1777.9C802.007,1773.32 804.658,1767.74 805.53,1761.76C807.24,1750.05 803.062,1738.3 797.753,1728.13C794.423,1721.76 790.537,1715.61 785.861,1710.14C785.861,1710.14 783.661,1707.24 783.142,1704.54C781.853,1697.81 787.457,1690.51 794.539,1690.28C798.51,1690.15 802.247,1692.27 804.829,1695.41C813.473,1705.91 820.433,1717.83 825.038,1730.64C830.741,1746.51 832.002,1764.64 824.872,1780.23C821.531,1787.53 816.755,1794.28 810.592,1799.47C810.271,1799.74 809.937,1799.99 809.59,1800.22C806.648,1802.22 802.854,1802.73 799.373,1801.77Z" style="fill:rgb(120,170,79);fill-rule:nonzero;"/>
                </g>
                <g transform="matrix(-0.215743,0.494677,-0.494677,-0.215743,2387.4,427.796)">
                    <path d="M784.792,1708.7C781.978,1704.03 782.634,1697.68 786.353,1693.88C789.457,1690.71 794.394,1689.49 798.62,1690.86C803.778,1692.53 806.799,1698.14 809.409,1703.57C818.432,1722.33 819.366,1744.97 809.868,1763.74C805.608,1772.16 799.852,1779.86 792.617,1786.01C786.441,1791.27 775.262,1788.1 773.194,1779.76C772.047,1775.13 774.12,1770.58 777.786,1767.03C786.973,1758.06 793.343,1745.95 792.746,1732.96C792.36,1724.57 789.765,1716.23 785.164,1709.26C785.019,1709.04 785.441,1709.67 784.792,1708.7Z" style="fill:rgb(144,206,94);fill-rule:nonzero;"/>
                </g>
                <g transform="matrix(0.108029,-0.528753,0.528753,0.108029,477.513,698.334)">
                    <path d="M774.658,1783.22C773.686,1781.58 773.521,1781.01 773.234,1779.91C772.013,1775.26 774.12,1770.58 777.786,1767.03C787.097,1757.94 793.499,1745.57 792.716,1732.4C792.24,1724.38 789.729,1716.5 785.432,1709.67C782.688,1705.32 782.611,1702.52 783.186,1699.8C784.564,1693.27 792.162,1688.75 798.653,1690.87C804.203,1692.68 807.235,1698.81 809.973,1704.77C817.814,1721.82 819.072,1742.03 811.954,1759.2C807.863,1769.07 801.355,1777.79 793.521,1785.19C788.432,1789.99 779.638,1789.93 775.242,1784.07C775.035,1783.8 774.847,1783.51 774.658,1783.22Z" style="fill:rgb(120,170,79);fill-rule:nonzero;"/>
                </g>
                <g transform="matrix(0.398472,0.363965,-0.363965,0.398472,1675.1,-489.764)">
                    <path d="M791.017,1697.69C791.964,1696.93 792.297,1696.81 792.939,1696.58C795.88,1695.56 798.971,1697.31 800.809,1700.26C812.404,1718.87 814.376,1743.19 803.569,1762.89C799.841,1769.68 794.892,1775.72 789.186,1781.07C785.497,1784.52 778.409,1781.64 778.832,1776.39C779.112,1772.92 782.887,1770.55 785.612,1767.47C794.224,1757.74 799.48,1744.93 798.667,1731.88C798.102,1722.82 795.246,1713.89 790.323,1706.24C789.773,1705.38 789.743,1705.44 789.443,1704.78C788.368,1702.43 789.024,1699.49 791.017,1697.69Z" style="fill:rgb(144,206,94);fill-rule:nonzero;"/>
                </g>
                <g transform="matrix(0.518103,0,0,0.628487,1049.79,-671.804)">
                    <path d="M714.496,1696.36C775.836,1696.36 846.531,1730.27 834.304,1822.09C826.848,1878.07 849.24,1940.32 714.496,1939.89C577.061,1939.46 610.242,1873.29 599.056,1817.72C581.985,1732.91 653.156,1696.36 714.496,1696.36Z" style="fill:rgb(144,206,94);"/>
                    <clipPath id="_clip1">
                        <path d="M714.496,1696.36C775.836,1696.36 846.531,1730.27 834.304,1822.09C826.848,1878.07 849.24,1940.32 714.496,1939.89C577.061,1939.46 610.242,1873.29 599.056,1817.72C581.985,1732.91 653.156,1696.36 714.496,1696.36Z"/>
                    </clipPath>
                    <g clip-path="url(#_clip1)">
                        <g transform="matrix(1.47004,0,0,1.21185,-2198.77,1545.99)">
                            <rect x="1983.22" y="93.878" width="106.006" height="245.553" style="fill:rgb(120,170,79);"/>
                        </g>
                    </g>
                </g>
                <g transform="matrix(0.761631,0,0,0.761631,-88.0889,298.499)">
                    <path d="M2025.27,262.38C2025.27,239.133 2006.39,220.26 1983.15,220.26L1982.08,220.26C1958.83,220.26 1939.96,239.133 1939.96,262.38C1939.96,285.626 1958.83,304.499 1982.08,304.499L1983.15,304.499C2006.39,304.499 2025.27,285.626 2025.27,262.38Z" style="fill:rgb(56,56,56);"/>
                    <clipPath id="_clip2">
                        <path d="M2025.27,262.38C2025.27,239.133 2006.39,220.26 1983.15,220.26L1982.08,220.26C1958.83,220.26 1939.96,239.133 1939.96,262.38C1939.96,285.626 1958.83,304.499 1982.08,304.499L1983.15,304.499C2006.39,304.499 2025.27,285.626 2025.27,262.38Z"/>
                    </clipPath>
                    <g clip-path="url(#_clip2)">
                        <g transform="matrix(0.403711,0,0,0.438248,1180.85,173.27)">
                            <rect x="1983.22" y="93.878" width="106.006" height="245.553" style="fill:rgb(38,38,38);fill-opacity:0.24;"/>
                        </g>
                        <g transform="matrix(1.68705,0,0,1.17807,703.452,-5248.96)">
                            <ellipse cx="757.567" cy="4699.11" rx="24.491" ry="19.427" style="fill:rgb(255,96,93);"/>
                            <clipPath id="_clip3">
                                <ellipse cx="757.567" cy="4699.11" rx="24.491" ry="19.427"/>
                            </clipPath>
                            <g clip-path="url(#_clip3)">
                                <g transform="matrix(0.474838,0,0,0.242695,400.988,3567.81)">
                                    <rect x="751.039" y="4563.47" width="77.278" height="160.201" style="fill:rgb(224,72,72);"/>
                                </g>
                            </g>
                        </g>
                        <g transform="matrix(0.616705,-3.34352e-17,3.34352e-17,-0.889724,765.237,439.254)">
                            <path d="M1969.6,213.58C1969.88,213.028 1970.4,212.687 1970.96,212.687C1971.52,212.687 1972.04,213.028 1972.32,213.58C1976.69,222.326 1990.12,249.173 1990.12,249.173L1951.8,249.173C1951.8,249.173 1965.23,222.326 1969.6,213.58Z" style="fill:white;"/>
                        </g>
                        <g transform="matrix(0.784527,-2.63878e-17,2.63878e-17,-1,455.789,454.899)">
                            <path d="M1969.57,213.651C1969.83,213.123 1970.37,212.789 1970.96,212.789C1971.55,212.789 1972.09,213.123 1972.35,213.651C1976.76,222.469 1990.12,249.173 1990.12,249.173L1951.8,249.173C1951.8,249.173 1965.16,222.469 1969.57,213.651Z" style="fill:white;"/>
                        </g>
                        <g transform="matrix(0.784527,-2.63878e-17,2.63878e-17,-1,413.141,454.899)">
                            <path d="M1969.57,213.651C1969.83,213.123 1970.37,212.789 1970.96,212.789C1971.55,212.789 1972.09,213.123 1972.35,213.651C1976.76,222.469 1990.12,249.173 1990.12,249.173L1951.8,249.173C1951.8,249.173 1965.16,222.469 1969.57,213.651Z" style="fill:white;"/>
                        </g>
                        <g transform="matrix(0.616705,3.34352e-17,3.34352e-17,0.889724,765.237,87.2456)">
                            <path d="M1969.6,213.58C1969.88,213.028 1970.4,212.687 1970.96,212.687C1971.52,212.687 1972.04,213.028 1972.32,213.58C1976.69,222.326 1990.12,249.173 1990.12,249.173L1951.8,249.173C1951.8,249.173 1965.23,222.326 1969.6,213.58Z" style="fill:white;"/>
                        </g>
                        <g transform="matrix(0.784527,2.63878e-17,2.63878e-17,1,455.789,71.6003)">
                            <path d="M1969.57,213.651C1969.83,213.123 1970.37,212.789 1970.96,212.789C1971.55,212.789 1972.09,213.123 1972.35,213.651C1976.76,222.469 1990.12,249.173 1990.12,249.173L1951.8,249.173C1951.8,249.173 1965.16,222.469 1969.57,213.651Z" style="fill:white;"/>
                        </g>
                        <g transform="matrix(0.784527,2.63878e-17,2.63878e-17,1,413.141,71.6003)">
                            <path d="M1969.57,213.651C1969.83,213.123 1970.37,212.789 1970.96,212.789C1971.55,212.789 1972.09,213.123 1972.35,213.651C1976.76,222.469 1990.12,249.173 1990.12,249.173L1951.8,249.173C1951.8,249.173 1965.16,222.469 1969.57,213.651Z" style="fill:white;"/>
                        </g>
                    </g>
                </g>
                <g transform="matrix(0.327377,0.42904,-0.42904,0.327377,1842.49,-377.965)">
                    <path d="M787.679,1712.1C786.318,1705.95 810.564,1705.75 813.275,1714.49C818.829,1732.4 818.003,1749.33 808.524,1766.27C804.524,1773.41 799.249,1779.8 793.269,1785.42C793.269,1785.42 790.714,1787.66 788.205,1788.39C781.594,1790.32 773.74,1785.38 772.92,1778.24C772.435,1774.01 774.565,1770.14 777.786,1767.03C787.166,1757.88 793.569,1745.34 792.699,1732.12C792.177,1724.2 789.395,1719.87 787.679,1712.1Z" style="fill:rgb(144,206,94);fill-rule:nonzero;"/>
                </g>
                <g transform="matrix(0.356114,0.0104303,-0.0123012,0.419992,1108.57,-209.975)">
                    <ellipse cx="713.542" cy="1777.61" rx="46.58" ry="39.386" style="fill:rgb(144,206,94);"/>
                </g>
                <g transform="matrix(0.327629,0.0760551,-0.0837485,0.36077,1252.8,-152.497)">
                    <ellipse cx="713.542" cy="1777.61" rx="46.58" ry="39.386" style="fill:white;"/>
                </g>
                <g transform="matrix(-0.182987,0.788267,0.800731,0.18588,912.189,60.421)">
                    <ellipse cx="456.346" cy="642.164" rx="3.909" ry="3.909" style="fill:url(#_Linear4);"/>
                </g>
                <g transform="matrix(0.539676,0,0,0.539676,1034.36,-535.309)">
                    <path d="M813.245,1680.4C815.233,1680.59 815.774,1680.81 816.813,1681.24C820.728,1682.88 823.157,1686.78 823.865,1691.15C828.227,1718.08 821.932,1747.05 805.996,1769.74C802.349,1774.93 786.205,1758.79 789.306,1753.96C800.313,1736.83 804.749,1715.41 801.518,1694.95C801.482,1694.72 801.444,1694.49 801.403,1694.27C801.393,1694.21 801.382,1694.15 801.372,1694.09C800.651,1690.18 802.831,1683.24 808.425,1681.11C809.381,1680.75 810.387,1680.52 811.405,1680.42C812.59,1680.31 812.867,1680.38 813.245,1680.4Z" style="fill:rgb(120,170,79);fill-rule:nonzero;"/>
                </g>
                <g transform="matrix(-0.157608,0.516149,-0.516149,-0.157608,2415.38,275.786)">
                    <path d="M773.151,1779.58C772.796,1777.86 772.834,1777.55 772.843,1776.75C772.898,1771.45 777.485,1767.62 780.986,1763.69C783.614,1760.74 785.735,1758.66 787.579,1755.17C791.114,1748.5 811.404,1758.12 807.259,1768.06C804.072,1775.7 798.935,1780.65 792.605,1786.02C792.46,1786.15 792.312,1786.27 792.161,1786.38C786.224,1790.95 776.032,1788.37 773.462,1780.68C773.341,1780.32 773.246,1779.95 773.151,1779.58Z" style="fill:rgb(144,206,94);fill-rule:nonzero;"/>
                </g>
                <g transform="matrix(0.410467,-0.000611922,0.000601091,0.403201,1180.82,-340.65)">
                    <ellipse cx="713.542" cy="1777.61" rx="46.58" ry="39.386" style="fill:rgb(120,170,79);"/>
                </g>
                <g transform="matrix(0.373806,0,0,0.411618,1207.93,-364.162)">
                    <ellipse cx="713.542" cy="1777.61" rx="46.58" ry="39.386" style="fill:rgb(211,211,211);"/>
                </g>
                <g transform="matrix(-2.02825e-16,0.899368,0.913589,-7.59363e-16,880.874,-47.5008)">
                    <ellipse cx="456.346" cy="642.164" rx="3.909" ry="3.909" style="fill:url(#_Linear5);"/>
                </g>
                <g transform="matrix(0.214781,-0.0564029,0.0530129,0.201872,1157.42,56.0302)">
                    <ellipse cx="713.542" cy="1777.61" rx="46.58" ry="39.386" style="fill:rgb(144,206,94);"/>
                </g>
                <g transform="matrix(0.406968,-0.0819955,0.089181,0.442631,888.473,-296.153)">
                    <ellipse cx="713.542" cy="1777.61" rx="46.58" ry="39.386" style="fill:rgb(144,206,94);"/>
                </g>
                <g transform="matrix(0.365429,-0.0736264,0.0863631,0.428645,1079.16,-151.673)">
                    <ellipse cx="713.542" cy="1777.61" rx="46.58" ry="39.386" style="fill:rgb(120,170,79);"/>
                </g>
                <g transform="matrix(0.219256,0,0,0.241435,1247.23,-60.9846)">
                    <ellipse cx="713.542" cy="1777.61" rx="46.58" ry="39.386" style="fill:white;"/>
                </g>
                <g transform="matrix(0.401531,-0.105445,0.116111,0.442148,841.951,-287.111)">
                    <ellipse cx="713.542" cy="1777.61" rx="46.58" ry="39.386" style="fill:white;"/>
                </g>
                <g transform="matrix(0.225793,0.302222,-0.332793,0.248633,1926.76,-96.4111)">
                    <ellipse cx="713.542" cy="1777.61" rx="46.58" ry="39.386" style="fill:rgb(211,211,211);"/>
                </g>
                <g transform="matrix(0.616308,0,0,0.678651,981.033,-778.658)">
                    <ellipse cx="713.542" cy="1777.61" rx="46.58" ry="39.386" style="fill:white;"/>
                    <clipPath id="_clip6">
                        <ellipse cx="713.542" cy="1777.61" rx="46.58" ry="39.386"/>
                    </clipPath>
                    <g clip-path="url(#_clip6)">
                        <g transform="matrix(0.498904,0,0,0.363701,-275.43,1699.58)">
                            <rect x="1983.22" y="93.878" width="106.006" height="245.553" style="fill:rgb(66,65,65);fill-opacity:0.24;"/>
                        </g>
                    </g>
                </g>
                <g transform="matrix(-1.18967e-16,0.527526,0.535867,-4.45406e-16,1063.49,125.365)">
                    <ellipse cx="456.346" cy="642.164" rx="3.909" ry="3.909" style="fill:url(#_Linear7);"/>
                </g>
                <g transform="matrix(0.253697,0.966075,0.981351,-0.257709,596.764,150.311)">
                    <ellipse cx="456.346" cy="642.164" rx="3.909" ry="3.909" style="fill:url(#_Linear8);"/>
                </g>
                <g transform="matrix(-0.727139,0.543253,0.551842,0.738637,1474.27,-165.628)">
                    <ellipse cx="456.346" cy="642.164" rx="3.909" ry="3.909" style="fill:url(#_Linear9);"/>
                </g>
                <g transform="matrix(-3.34406e-16,1.48282,1.50627,-1.25199e-15,453.523,-248.965)">
                    <ellipse cx="456.346" cy="642.164" rx="3.909" ry="3.909" style="fill:url(#_Linear10);"/>
                </g>
            </g>
        </g>
    </g>
    <defs>
        <linearGradient id="_Linear4" x1="0" y1="0" x2="1" y2="0" gradientUnits="userSpaceOnUse" gradientTransform="matrix(10.7106,17.804,18.0855,-10.5439,454.236,639.452)"><stop offset="0" style="stop-color:rgb(30,30,30);stop-opacity:1"/><stop offset="1" style="stop-color:rgb(101,101,101);stop-opacity:1"/></linearGradient>
        <linearGradient id="_Linear5" x1="0" y1="0" x2="1" y2="0" gradientUnits="userSpaceOnUse" gradientTransform="matrix(14.3412,5.49444,5.58132,-14.118,452.994,640.658)"><stop offset="0" style="stop-color:rgb(30,30,30);stop-opacity:1"/><stop offset="1" style="stop-color:rgb(101,101,101);stop-opacity:1"/></linearGradient>
        <linearGradient id="_Linear7" x1="0" y1="0" x2="1" y2="0" gradientUnits="userSpaceOnUse" gradientTransform="matrix(20.3136,7.50562,7.6243,-19.9974,452.966,640.447)"><stop offset="0" style="stop-color:rgb(30,30,30);stop-opacity:1"/><stop offset="1" style="stop-color:rgb(101,101,101);stop-opacity:1"/></linearGradient>
        <linearGradient id="_Linear8" x1="0" y1="0" x2="1" y2="0" gradientUnits="userSpaceOnUse" gradientTransform="matrix(13.4655,7.3277,7.44357,-13.2559,452.788,640.221)"><stop offset="0" style="stop-color:rgb(30,30,30);stop-opacity:1"/><stop offset="1" style="stop-color:rgb(101,101,101);stop-opacity:1"/></linearGradient>
        <linearGradient id="_Linear9" x1="0" y1="0" x2="1" y2="0" gradientUnits="userSpaceOnUse" gradientTransform="matrix(-2.63791,14.7801,15.0138,2.59684,455.782,638.285)"><stop offset="0" style="stop-color:rgb(30,30,30);stop-opacity:1"/><stop offset="1" style="stop-color:rgb(101,101,101);stop-opacity:1"/></linearGradient>
        <linearGradient id="_Linear10" x1="0" y1="0" x2="1" y2="0" gradientUnits="userSpaceOnUse" gradientTransform="matrix(14.2792,10.8587,11.0304,-14.057,452.795,639.235)"><stop offset="0" style="stop-color:rgb(30,30,30);stop-opacity:1"/><stop offset="1" style="stop-color:rgb(101,101,101);stop-opacity:1"/></linearGradient>
    </defs>
</svg>
