<?xml version="1.0" encoding="UTF-8" standalone="no"?>
<!DOCTYPE svg PUBLIC "-//W3C//DTD SVG 1.1//EN" "http://www.w3.org/Graphics/SVG/1.1/DTD/svg11.dtd">
<svg width="100%" height="100%" viewBox="0 0 512 512" version="1.1" xmlns="http://www.w3.org/2000/svg" xmlns:xlink="http://www.w3.org/1999/xlink" xml:space="preserve" xmlns:serif="http://www.serif.com/" style="fill-rule:evenodd;clip-rule:evenodd;stroke-linejoin:round;stroke-miterlimit:2;">
    <g id="MonsterIcon" transform="matrix(3.1635,0,0,3.00212,-13371.8,-5093.83)">
        <g transform="matrix(1.15459,0,0,1.21666,3441.14,-3861.69)">
            <path d="M741.13,4586.14C750.378,4580.91 748.811,4571.46 750.923,4571.57C752.132,4571.63 751.997,4576.8 751.649,4581.3C764.852,4577.78 784.535,4587.74 785.3,4593.71C785.551,4595.68 775.544,4586.99 768.479,4589.38C781.265,4596.33 790.022,4611.44 790.022,4634.39C790.022,4657.93 789.892,4694.32 789.892,4694.32C789.892,4699.04 788.965,4705.96 782.289,4705.83C775.035,4705.69 775.901,4698.71 772.793,4694.32C768.94,4688.89 758.727,4688.07 750.653,4687.98C742.579,4688.07 732.366,4688.89 728.513,4694.32C725.405,4698.71 726.271,4705.69 719.017,4705.83C712.341,4705.96 711.414,4699.04 711.414,4694.32C711.414,4694.32 711.285,4657.93 711.285,4634.39C711.285,4606.75 723.986,4590.48 741.13,4586.14Z" style="fill:rgb(144,206,94);"/>
            <clipPath id="_clip1">
                <path d="M741.13,4586.14C750.378,4580.91 748.811,4571.46 750.923,4571.57C752.132,4571.63 751.997,4576.8 751.649,4581.3C764.852,4577.78 784.535,4587.74 785.3,4593.71C785.551,4595.68 775.544,4586.99 768.479,4589.38C781.265,4596.33 790.022,4611.44 790.022,4634.39C790.022,4657.93 789.892,4694.32 789.892,4694.32C789.892,4699.04 788.965,4705.96 782.289,4705.83C775.035,4705.69 775.901,4698.71 772.793,4694.32C768.94,4688.89 758.727,4688.07 750.653,4687.98C742.579,4688.07 732.366,4688.89 728.513,4694.32C725.405,4698.71 726.271,4705.69 719.017,4705.83C712.341,4705.96 711.414,4699.04 711.414,4694.32C711.414,4694.32 711.285,4657.93 711.285,4634.39C711.285,4606.75 723.986,4590.48 741.13,4586.14Z"/>
            </clipPath>
            <g clip-path="url(#_clip1)">
                <g transform="matrix(1.03098,0,0,0.894639,-23.9079,482.399)">
                    <rect x="751.039" y="4563.47" width="77.278" height="160.201" style="fill:rgb(120,170,79);"/>
                </g>
            </g>
        </g>
        <g transform="matrix(0.90956,0,0,0.90956,389.39,146.271)">
            <g transform="matrix(1,0,0,1,-1.529,4.54747e-13)">
                <g transform="matrix(0.957992,0,0,1.00949,3582.13,-2911.1)">
                    <circle cx="741.547" cy="4642.31" r="16.467" style="fill:white;"/>
                </g>
                <g transform="matrix(0.200693,0,0,0.211481,4143.7,793.511)">
                    <circle cx="741.547" cy="4642.31" r="16.467" style="fill:rgb(38,38,38);"/>
                </g>
            </g>
            <g transform="matrix(1,0,0,1,32.6066,4.54747e-13)">
                <g transform="matrix(0.957992,0,0,1.00949,3582.13,-2911.1)">
                    <circle cx="741.547" cy="4642.31" r="16.467" style="fill:white;"/>
                </g>
                <g transform="matrix(0.200693,0,0,0.211481,4143.7,793.511)">
                    <circle cx="741.547" cy="4642.31" r="16.467" style="fill:rgb(38,38,38);"/>
                </g>
            </g>
        </g>
        <g transform="matrix(1,0,0,1,0,-4.28513)">
            <g transform="matrix(0.677402,0.713818,-0.677402,0.713818,6911.59,-2010.37)">
                <path d="M727.525,4623.8C727.525,4620.08 724.505,4617.06 720.786,4617.06L696.188,4617.06C692.469,4617.06 689.449,4620.08 689.449,4623.8C689.449,4627.52 692.469,4630.53 696.188,4630.53L720.786,4630.53C724.505,4630.53 727.525,4627.52 727.525,4623.8Z" style="fill:rgb(144,206,94);"/>
            </g>
            <g transform="matrix(-0.677402,0.713818,0.677402,0.713818,1704.08,-2010.37)">
                <path d="M727.525,4623.8C727.525,4620.08 724.505,4617.06 720.786,4617.06L696.188,4617.06C692.469,4617.06 689.449,4620.08 689.449,4623.8C689.449,4627.52 692.469,4630.53 696.188,4630.53L720.786,4630.53C724.505,4630.53 727.525,4627.52 727.525,4623.8Z" style="fill:rgb(120,170,79);"/>
            </g>
        </g>
        <g transform="matrix(0.702158,0,0,0.739904,3775.13,-1673.33)">
            <ellipse cx="758.672" cy="4626.1" rx="42.801" ry="12.007" style="fill:rgb(144,206,94);"/>
            <clipPath id="_clip2">
                <ellipse cx="758.672" cy="4626.1" rx="42.801" ry="12.007"/>
            </clipPath>
            <g clip-path="url(#_clip2)">
                <g transform="matrix(0.720582,0,0,0.230846,217.063,3555.89)">
                    <rect x="751.039" y="4563.47" width="77.278" height="160.201" style="fill:rgb(120,170,79);"/>
                </g>
            </g>
        </g>
        <g transform="matrix(0.957992,0,0,1.00949,3583.45,-2921.02)">
            <ellipse cx="756.146" cy="4679.87" rx="22.803" ry="17.41" style="fill:rgb(38,38,38);"/>
            <clipPath id="_clip3">
                <ellipse cx="756.146" cy="4679.87" rx="22.803" ry="17.41"/>
            </clipPath>
            <g clip-path="url(#_clip3)">
                <g transform="matrix(1.04385,0,0,0.915815,-3738.97,3017.78)">
                    <g transform="matrix(-0.925349,0.261275,-0.15617,-0.614166,5717,4477.9)">
                        <path d="M744.961,4660.45C745.278,4659.36 745.928,4658.64 746.637,4658.6C747.346,4658.56 747.991,4659.21 748.298,4660.28C750.927,4669.4 755.788,4686.27 755.788,4686.27L737.522,4686.27C737.522,4686.27 742.32,4669.62 744.961,4660.45Z" style="fill:white;"/>
                    </g>
                    <g transform="matrix(0.925349,0.261275,0.15617,-0.614166,2895.57,4477.9)">
                        <path d="M744.961,4660.45C745.278,4659.36 745.928,4658.64 746.637,4658.6C747.346,4658.56 747.991,4659.21 748.298,4660.28C750.927,4669.4 755.788,4686.27 755.788,4686.27L737.522,4686.27C737.522,4686.27 742.32,4669.62 744.961,4660.45Z" style="fill:white;"/>
                    </g>
                </g>
                <g transform="matrix(1,0,0,0.698301,-1.77398,1415.02)">
                    <ellipse cx="757.567" cy="4699.11" rx="24.491" ry="19.427" style="fill:rgb(255,96,93);"/>
                    <clipPath id="_clip4">
                        <ellipse cx="757.567" cy="4699.11" rx="24.491" ry="19.427"/>
                    </clipPath>
                    <g clip-path="url(#_clip4)">
                        <g transform="matrix(0.474838,0,0,0.242695,400.988,3567.81)">
                            <rect x="751.039" y="4563.47" width="77.278" height="160.201" style="fill:rgb(224,72,72);"/>
                        </g>
                    </g>
                </g>
            </g>
        </g>
    </g>
</svg>
