<?xml version="1.0" encoding="UTF-8" standalone="no"?>
<!DOCTYPE svg PUBLIC "-//W3C//DTD SVG 1.1//EN" "http://www.w3.org/Graphics/SVG/1.1/DTD/svg11.dtd">
<svg width="100%" height="100%" viewBox="0 0 512 512" version="1.1" xmlns="http://www.w3.org/2000/svg" xmlns:xlink="http://www.w3.org/1999/xlink" xml:space="preserve" xmlns:serif="http://www.serif.com/" style="fill-rule:evenodd;clip-rule:evenodd;stroke-linejoin:round;stroke-miterlimit:2;">
    <g id="MountainIcon" transform="matrix(6.00958,0,0,6.00958,-1426.31,-482.724)">
        <g transform="matrix(1,0,0,1,0.436096,0.436096)">
            <g transform="matrix(0.682489,0,0,0.702216,-766.135,-573.856)">
                <path d="M1578.87,945.297C1568.58,936.36 1546.32,944.483 1533.3,938.728L1533.3,956.344C1544.56,962.841 1563.19,944.178 1578.87,945.297Z" style="fill:rgb(208,61,59);"/>
            </g>
            <g transform="matrix(0.535209,0,0,0.694223,-541.284,-565.092)">
                <path d="M1536.38,935.745C1536.38,934.721 1535.3,933.89 1533.97,933.89C1532.64,933.89 1531.56,934.721 1531.56,935.745L1531.56,973.319C1531.56,974.343 1532.64,975.174 1533.97,975.174C1535.3,975.174 1536.38,974.343 1536.38,973.319L1536.38,935.745Z" style="fill:rgb(52,78,95);"/>
            </g>
        </g>
        <g transform="matrix(0.847766,0,0,0.940027,165.856,50.2021)">
            <path d="M131.426,61.31C132.184,60.298 133.342,59.708 134.568,59.708C135.794,59.708 136.952,60.298 137.71,61.31C148.158,75.238 181.073,119.12 181.073,119.12L88.063,119.12C88.063,119.12 120.978,75.238 131.426,61.31Z" style="fill:rgb(167,99,57);"/>
            <clipPath id="_clip1">
                <path d="M131.426,61.31C132.184,60.298 133.342,59.708 134.568,59.708C135.794,59.708 136.952,60.298 137.71,61.31C148.158,75.238 181.073,119.12 181.073,119.12L88.063,119.12C88.063,119.12 120.978,75.238 131.426,61.31Z"/>
            </clipPath>
            <g clip-path="url(#_clip1)">
                <g transform="matrix(1.66157,0,0,1.4985,-328.773,-108.397)">
                    <g transform="matrix(1.12951,0,0,0.859888,-37.3238,37.8379)">
                        <rect x="279.907" y="86.572" width="39.502" height="59.455" style="fill:rgb(138,80,47);"/>
                    </g>
                    <g transform="matrix(0.532175,0,0,0.532175,129.88,61.2055)">
                        <path d="M248.834,114.605C245.118,111.193 242.961,107.132 242.961,102.776C242.961,90.7 259.53,80.896 279.938,80.896C300.346,80.896 316.915,90.7 316.915,102.776C316.915,107.132 314.758,111.193 311.043,114.605C313.064,117.043 314.28,120.173 314.28,123.585C314.28,131.358 307.97,137.668 300.197,137.668C297.424,137.668 294.838,136.865 292.657,135.48C290.393,140.228 285.546,143.513 279.938,143.513C274.33,143.513 269.484,140.228 267.219,135.48C265.038,136.865 262.452,137.668 259.679,137.668C251.907,137.668 245.596,131.358 245.596,123.585C245.596,120.173 246.812,117.043 248.834,114.605Z" style="fill:white;"/>
                        <clipPath id="_clip2">
                            <path d="M248.834,114.605C245.118,111.193 242.961,107.132 242.961,102.776C242.961,90.7 259.53,80.896 279.938,80.896C300.346,80.896 316.915,90.7 316.915,102.776C316.915,107.132 314.758,111.193 311.043,114.605C313.064,117.043 314.28,120.173 314.28,123.585C314.28,131.358 307.97,137.668 300.197,137.668C297.424,137.668 294.838,136.865 292.657,135.48C290.393,140.228 285.546,143.513 279.938,143.513C274.33,143.513 269.484,140.228 267.219,135.48C265.038,136.865 262.452,137.668 259.679,137.668C251.907,137.668 245.596,131.358 245.596,123.585C245.596,120.173 246.812,117.043 248.834,114.605Z"/>
                        </clipPath>
                        <g clip-path="url(#_clip2)">
                            <g transform="matrix(0.866094,0,0,0.887612,37.4711,19.1309)">
                                <rect x="279.907" y="86.572" width="39.502" height="59.455" style="fill:rgb(217,217,217);"/>
                            </g>
                        </g>
                    </g>
                </g>
            </g>
        </g>
    </g>
</svg>
