<?xml version="1.0" encoding="UTF-8" standalone="no"?>
<!DOCTYPE svg PUBLIC "-//W3C//DTD SVG 1.1//EN" "http://www.w3.org/Graphics/SVG/1.1/DTD/svg11.dtd">
<svg width="100%" height="100%" viewBox="0 0 512 512" version="1.1" xmlns="http://www.w3.org/2000/svg" xmlns:xlink="http://www.w3.org/1999/xlink" xml:space="preserve" xmlns:serif="http://www.serif.com/" style="fill-rule:evenodd;clip-rule:evenodd;stroke-linecap:round;stroke-linejoin:round;stroke-miterlimit:1.5;">
    <g id="Multiplayer---Yellow" serif:id="Multiplayer - Yellow" transform="matrix(4.94268,0,0,3.73405,-3020.81,-3403.4)">
        <g transform="matrix(1,0,0,1,183.235,-24.8992)">
            <g transform="matrix(0.755472,0,0,0.590806,-546.492,375.528)">
                <path d="M1415.76,1101.59C1415.76,1081.29 1406.02,1064.8 1394.02,1064.8C1382.02,1064.8 1372.28,1081.29 1372.28,1101.59L1372.28,1125.04C1372.28,1135.19 1377.15,1143.44 1383.15,1143.44L1404.89,1143.44C1410.89,1143.44 1415.76,1135.19 1415.76,1125.04L1415.76,1101.59Z" style="fill:rgb(245,159,0);"/>
                <clipPath id="_clip1">
                    <path d="M1415.76,1101.59C1415.76,1081.29 1406.02,1064.8 1394.02,1064.8C1382.02,1064.8 1372.28,1081.29 1372.28,1101.59L1372.28,1125.04C1372.28,1135.19 1377.15,1143.44 1383.15,1143.44L1404.89,1143.44C1410.89,1143.44 1415.76,1135.19 1415.76,1125.04L1415.76,1101.59Z"/>
                </clipPath>
                <g clip-path="url(#_clip1)">
                    <g transform="matrix(0.534242,0,0,1.02149,643.959,85.5985)">
                        <rect x="1404.85" y="956.377" width="49.701" height="84.716" style="fill:rgb(240,140,0);"/>
                    </g>
                    <g transform="matrix(0.535611,0,0,0.906577,1289.72,956.959)">
                        <path d="M79.96,172.489C61.418,158.083 49.48,135.575 49.48,110.301C49.48,66.859 84.749,31.59 128.191,31.59C171.633,31.59 206.902,66.859 206.902,110.301C206.902,135.575 194.964,158.083 176.422,172.489C179.705,179.409 181.542,187.146 181.542,195.308L181.542,229.299C181.542,244.021 169.589,255.974 154.866,255.974L101.516,255.974C86.793,255.974 74.84,244.021 74.84,229.299L74.84,195.308C74.84,187.146 76.677,179.409 79.96,172.489Z" style="fill:rgb(230,119,0);"/>
                    </g>
                </g>
            </g>
            <g transform="matrix(0.755472,0,0,1,-546.23,-81.3293)">
                <circle cx="1393.67" cy="1061.69" r="32.074" style="fill:rgb(255,224,102);"/>
                <clipPath id="_clip2">
                    <circle cx="1393.67" cy="1061.69" r="32.074"/>
                </clipPath>
                <g clip-path="url(#_clip2)">
                    <g transform="matrix(0.68965,0,0,0.812268,425.287,250.244)">
                        <rect x="1404.85" y="956.377" width="49.701" height="84.716" style="fill:rgb(252,196,25);"/>
                    </g>
                    <g transform="matrix(0.535611,0,0,0.535611,1289.37,1022.23)">
                        <path d="M79.96,172.489C61.418,158.083 49.48,135.575 49.48,110.301C49.48,66.859 84.749,31.59 128.191,31.59C171.633,31.59 206.902,66.859 206.902,110.301C206.902,135.575 194.964,158.083 176.422,172.489C179.705,179.409 181.542,187.146 181.542,195.308L181.542,229.299C181.542,244.021 169.589,255.974 154.866,255.974L101.516,255.974C86.793,255.974 74.84,244.021 74.84,229.299L74.84,195.308C74.84,187.146 76.677,179.409 79.96,172.489Z" style="fill:rgb(245,159,0);"/>
                    </g>
                </g>
            </g>
            <g transform="matrix(0.404639,0,0,0.535611,454.857,921.278)">
                <path d="M132.106,46.153C131.804,45.464 131.42,44.776 130.939,44.105C129.317,41.847 126.584,39.833 122.201,38.509C120.793,38.083 119.994,36.594 120.42,35.185C120.846,33.776 122.335,32.978 123.744,33.403C129.573,35.165 133.113,37.99 135.271,40.994C138.772,45.871 138.641,51.365 138.184,54.424C138.452,54.978 138.577,55.3 138.577,55.3C139.116,56.67 138.442,58.219 137.072,58.758C136.321,59.054 135.516,58.984 134.853,58.636C134.671,58.617 134.487,58.578 134.306,58.519C132.929,58.069 132.166,56.603 132.577,55.222C130.936,52.422 127.221,47.47 120.574,45.257C116.37,43.858 111.023,43.579 104.321,45.492C102.906,45.896 101.429,45.075 101.025,43.66C100.621,42.245 101.442,40.768 102.857,40.364C113.577,37.304 121.402,39.121 126.941,42.291C128.952,43.441 130.664,44.78 132.106,46.153Z" style="fill:rgb(252,196,25);"/>
            </g>
        </g>
        <g transform="matrix(1,0,0,1,129.387,-24.8992)">
            <g transform="matrix(0.755472,0,0,0.590806,-546.492,375.528)">
                <path d="M1415.76,1101.59C1415.76,1081.29 1406.02,1064.8 1394.02,1064.8C1382.02,1064.8 1372.28,1081.29 1372.28,1101.59L1372.28,1125.04C1372.28,1135.19 1377.15,1143.44 1383.15,1143.44L1404.89,1143.44C1410.89,1143.44 1415.76,1135.19 1415.76,1125.04L1415.76,1101.59Z" style="fill:rgb(245,159,0);"/>
                <clipPath id="_clip3">
                    <path d="M1415.76,1101.59C1415.76,1081.29 1406.02,1064.8 1394.02,1064.8C1382.02,1064.8 1372.28,1081.29 1372.28,1101.59L1372.28,1125.04C1372.28,1135.19 1377.15,1143.44 1383.15,1143.44L1404.89,1143.44C1410.89,1143.44 1415.76,1135.19 1415.76,1125.04L1415.76,1101.59Z"/>
                </clipPath>
                <g clip-path="url(#_clip3)">
                    <g transform="matrix(0.534242,0,0,1.02149,643.959,85.5985)">
                        <rect x="1404.85" y="956.377" width="49.701" height="84.716" style="fill:rgb(240,140,0);"/>
                    </g>
                    <g transform="matrix(0.535611,0,0,0.906577,1361,956.959)">
                        <path d="M79.96,172.489C61.418,158.083 49.48,135.575 49.48,110.301C49.48,66.859 84.749,31.59 128.191,31.59C171.633,31.59 206.902,66.859 206.902,110.301C206.902,135.575 194.964,158.083 176.422,172.489C179.705,179.409 181.542,187.146 181.542,195.308L181.542,229.299C181.542,244.021 169.589,255.974 154.866,255.974L101.516,255.974C86.793,255.974 74.84,244.021 74.84,229.299L74.84,195.308C74.84,187.146 76.677,179.409 79.96,172.489Z" style="fill:rgb(230,119,0);"/>
                    </g>
                </g>
            </g>
            <g transform="matrix(0.755472,0,0,1,-546.23,-81.3293)">
                <circle cx="1393.67" cy="1061.69" r="32.074" style="fill:rgb(255,224,102);"/>
                <clipPath id="_clip4">
                    <circle cx="1393.67" cy="1061.69" r="32.074"/>
                </clipPath>
                <g clip-path="url(#_clip4)">
                    <g transform="matrix(0.68965,0,0,0.812268,425.287,250.244)">
                        <rect x="1404.85" y="956.377" width="49.701" height="84.716" style="fill:rgb(252,196,25);"/>
                    </g>
                    <g transform="matrix(0.535611,0,0,0.535611,1360.65,1022.23)">
                        <path d="M79.96,172.489C61.418,158.083 49.48,135.575 49.48,110.301C49.48,66.859 84.749,31.59 128.191,31.59C171.633,31.59 206.902,66.859 206.902,110.301C206.902,135.575 194.964,158.083 176.422,172.489C179.705,179.409 181.542,187.146 181.542,195.308L181.542,229.299C181.542,244.021 169.589,255.974 154.866,255.974L101.516,255.974C86.793,255.974 74.84,244.021 74.84,229.299L74.84,195.308C74.84,187.146 76.677,179.409 79.96,172.489Z" style="fill:rgb(245,159,0);"/>
                    </g>
                </g>
            </g>
            <g transform="matrix(0.404639,0,0,0.535611,454.857,921.278)">
                <path d="M132.106,46.153C131.804,45.464 131.42,44.776 130.939,44.105C129.317,41.847 126.584,39.833 122.201,38.509C120.793,38.083 119.994,36.594 120.42,35.185C120.846,33.776 122.335,32.978 123.744,33.403C129.573,35.165 133.113,37.99 135.271,40.994C138.772,45.871 138.641,51.365 138.184,54.424C138.452,54.978 138.577,55.3 138.577,55.3C139.116,56.67 138.442,58.219 137.072,58.758C136.321,59.054 135.516,58.984 134.853,58.636C134.671,58.617 134.487,58.578 134.306,58.519C132.929,58.069 132.166,56.603 132.577,55.222C130.936,52.422 127.221,47.47 120.574,45.257C116.37,43.858 111.023,43.579 104.321,45.492C102.906,45.896 101.429,45.075 101.025,43.66C100.621,42.245 101.442,40.768 102.857,40.364C113.577,37.304 121.402,39.121 126.941,42.291C128.952,43.441 130.664,44.78 132.106,46.153Z" style="fill:rgb(252,196,25);"/>
            </g>
        </g>
        <g transform="matrix(1,0,0,1,156.311,-5.27254)">
            <g>
                <g transform="matrix(0.755472,0,0,0.590806,-546.492,375.528)">
                    <path d="M1415.76,1101.59C1415.76,1081.29 1406.02,1064.8 1394.02,1064.8C1382.02,1064.8 1372.28,1081.29 1372.28,1101.59L1372.28,1125.04C1372.28,1135.19 1377.15,1143.44 1383.15,1143.44L1404.89,1143.44C1410.89,1143.44 1415.76,1135.19 1415.76,1125.04L1415.76,1101.59Z" style="fill:rgb(245,159,0);"/>
                    <clipPath id="_clip5">
                        <path d="M1415.76,1101.59C1415.76,1081.29 1406.02,1064.8 1394.02,1064.8C1382.02,1064.8 1372.28,1081.29 1372.28,1101.59L1372.28,1125.04C1372.28,1135.19 1377.15,1143.44 1383.15,1143.44L1404.89,1143.44C1410.89,1143.44 1415.76,1135.19 1415.76,1125.04L1415.76,1101.59Z"/>
                    </clipPath>
                    <g clip-path="url(#_clip5)">
                        <g transform="matrix(0.534242,0,0,1.02149,643.959,85.5985)">
                            <rect x="1404.85" y="956.377" width="49.701" height="84.716" style="fill:rgb(240,140,0);"/>
                        </g>
                    </g>
                </g>
                <g transform="matrix(0.755472,0,0,1,-546.23,-81.3293)">
                    <circle cx="1393.67" cy="1061.69" r="32.074" style="fill:rgb(255,224,102);"/>
                    <clipPath id="_clip6">
                        <circle cx="1393.67" cy="1061.69" r="32.074"/>
                    </clipPath>
                    <g clip-path="url(#_clip6)">
                        <g transform="matrix(0.68965,0,0,0.812268,425.287,250.244)">
                            <rect x="1404.85" y="956.377" width="49.701" height="84.716" style="fill:rgb(252,196,25);"/>
                        </g>
                    </g>
                </g>
                <g transform="matrix(0.404639,0,0,0.535611,454.857,921.278)">
                    <path d="M132.106,46.153C131.804,45.464 131.42,44.776 130.939,44.105C129.317,41.847 126.584,39.833 122.201,38.509C120.793,38.083 119.994,36.594 120.42,35.185C120.846,33.776 122.335,32.978 123.744,33.403C129.573,35.165 133.113,37.99 135.271,40.994C138.772,45.871 138.641,51.365 138.184,54.424C138.452,54.978 138.577,55.3 138.577,55.3C139.116,56.67 138.442,58.219 137.072,58.758C136.321,59.054 135.516,58.984 134.853,58.636C134.671,58.617 134.487,58.578 134.306,58.519C132.929,58.069 132.166,56.603 132.577,55.222C130.936,52.422 127.221,47.47 120.574,45.257C116.37,43.858 111.023,43.579 104.321,45.492C102.906,45.896 101.429,45.075 101.025,43.66C100.621,42.245 101.442,40.768 102.857,40.364C113.577,37.304 121.402,39.121 126.941,42.291C128.952,43.441 130.664,44.78 132.106,46.153Z" style="fill:rgb(252,196,25);"/>
                </g>
                <g transform="matrix(0.265212,0,0,0.351055,471.921,942.117)">
                    <path d="M167.058,123.458C163.074,139.696 148.411,151.755 130.955,151.755C113.498,151.755 98.836,139.696 94.851,123.458" style="fill:none;stroke:rgb(230,119,0);stroke-width:14.24px;"/>
                </g>
            </g>
        </g>
    </g>
</svg>
