<?xml version="1.0" encoding="UTF-8" standalone="no"?>
<!DOCTYPE svg PUBLIC "-//W3C//DTD SVG 1.1//EN" "http://www.w3.org/Graphics/SVG/1.1/DTD/svg11.dtd">
<svg width="100%" height="100%" viewBox="0 0 512 512" version="1.1" xmlns="http://www.w3.org/2000/svg" xmlns:xlink="http://www.w3.org/1999/xlink" xml:space="preserve" xmlns:serif="http://www.serif.com/" style="fill-rule:evenodd;clip-rule:evenodd;stroke-linejoin:round;stroke-miterlimit:2;">
    <g id="Mushroom" transform="matrix(5.72166,0,0,5.72166,-8187.14,-4575.57)">
        <g transform="matrix(1,0,0,1.20478,6.98223,-165.966)">
            <path d="M1482.88,837.743C1482.88,831.229 1476.51,825.941 1468.66,825.941C1460.81,825.941 1454.44,831.229 1454.44,837.743L1454.44,860.687C1454.44,867.201 1460.81,872.489 1468.66,872.489C1476.51,872.489 1482.88,867.201 1482.88,860.687L1482.88,837.743Z" style="fill:rgb(228,180,126);"/>
            <clipPath id="_clip1">
                <path d="M1482.88,837.743C1482.88,831.229 1476.51,825.941 1468.66,825.941C1460.81,825.941 1454.44,831.229 1454.44,837.743L1454.44,860.687C1454.44,867.201 1460.81,872.489 1468.66,872.489C1476.51,872.489 1482.88,867.201 1482.88,860.687L1482.88,837.743Z"/>
            </clipPath>
            <g clip-path="url(#_clip1)">
                <g transform="matrix(0.331546,0,0,0.206934,1426.22,816.855)">
                    <path d="M128.786,231.146C128.786,215.212 120.492,200.427 106.894,192.122C77.57,174.188 30.149,139.378 38.523,106.107C52.762,49.536 110.849,16.042 166.234,30.882C216.462,44.341 247.449,92.988 242.052,144.106L264.842,144.106L264.842,281.384L128.786,281.384L128.786,231.146Z" style="fill:rgb(204,145,94);"/>
                </g>
            </g>
        </g>
        <g transform="matrix(0.862236,0,0,1.37197,210.731,-301.739)">
            <path d="M1467.02,805.715C1489.07,805.715 1506.68,817.165 1506.96,831.262C1507.44,854.899 1427.62,853.859 1427.07,831.262C1426.73,817.166 1444.97,805.715 1467.02,805.715Z" style="fill:rgb(234,57,82);"/>
            <clipPath id="_clip2">
                <path d="M1467.02,805.715C1489.07,805.715 1506.68,817.165 1506.96,831.262C1507.44,854.899 1427.62,853.859 1427.07,831.262C1426.73,817.166 1444.97,805.715 1467.02,805.715Z"/>
            </clipPath>
            <g clip-path="url(#_clip2)">
                <g transform="matrix(1.57263,0,0,0.898872,-859.52,83.5388)">
                    <circle cx="1479.39" cy="835.529" r="9.379" style="fill:white;"/>
                </g>
                <g transform="matrix(1.31988,0,0,0.829497,-515.618,128.098)">
                    <circle cx="1479.39" cy="835.529" r="9.379" style="fill:white;"/>
                </g>
                <g transform="matrix(1.31988,0,0,0.829497,-452.249,128.098)">
                    <circle cx="1479.39" cy="835.529" r="9.379" style="fill:white;"/>
                </g>
                <g transform="matrix(1.54311,0,0,0.329933,-815.843,533.938)">
                    <circle cx="1479.39" cy="835.529" r="9.379" style="fill:white;"/>
                </g>
                <g transform="matrix(1.1126,0,0,0.699232,-167.098,333.919)">
                    <path d="M1514.1,665.412L1465.64,665.178C1478.41,677.531 1485.87,722.357 1450.36,738.471L1514.1,736.857L1514.1,665.412Z" style="fill:rgb(166,30,77);fill-opacity:0.42;"/>
                </g>
            </g>
        </g>
    </g>
</svg>
