<?xml version="1.0" encoding="UTF-8" standalone="no"?>
<!DOCTYPE svg PUBLIC "-//W3C//DTD SVG 1.1//EN" "http://www.w3.org/Graphics/SVG/1.1/DTD/svg11.dtd">
<svg width="100%" height="100%" viewBox="0 0 512 512" version="1.1" xmlns="http://www.w3.org/2000/svg" xmlns:xlink="http://www.w3.org/1999/xlink" xml:space="preserve" xmlns:serif="http://www.serif.com/" style="fill-rule:evenodd;clip-rule:evenodd;stroke-linejoin:round;stroke-miterlimit:2;">
    <g id="FlyAgaricMushroomIcon" transform="matrix(6.03234,0,0,6.03234,-8645.58,-4832.61)">
        <g transform="matrix(1,0,0,1.20478,6.98223,-168.893)">
            <path d="M1482.88,837.743C1482.88,831.229 1476.51,825.941 1468.66,825.941C1460.81,825.941 1454.44,831.229 1454.44,837.743L1454.44,860.687C1454.44,867.201 1460.81,872.489 1468.66,872.489C1476.51,872.489 1482.88,867.201 1482.88,860.687L1482.88,837.743Z" style="fill:rgb(228,180,126);"/>
            <clipPath id="_clip1">
                <path d="M1482.88,837.743C1482.88,831.229 1476.51,825.941 1468.66,825.941C1460.81,825.941 1454.44,831.229 1454.44,837.743L1454.44,860.687C1454.44,867.201 1460.81,872.489 1468.66,872.489C1476.51,872.489 1482.88,867.201 1482.88,860.687L1482.88,837.743Z"/>
            </clipPath>
            <g clip-path="url(#_clip1)">
                <g transform="matrix(1,0,0,0.528763,-0.0666275,491.248)">
                    <rect x="1468.99" y="665.412" width="45.109" height="71.446" style="fill:rgb(204,145,94);"/>
                </g>
            </g>
        </g>
        <g transform="matrix(0.898793,0,0,1.43014,157.102,-347.44)">
            <path d="M1467.02,805.715C1489.07,805.715 1506.57,817.168 1506.96,831.262C1507.44,848.171 1427.62,847.193 1427.07,831.262C1426.59,817.17 1444.97,805.715 1467.02,805.715Z" style="fill:rgb(220,70,85);"/>
            <clipPath id="_clip2">
                <path d="M1467.02,805.715C1489.07,805.715 1506.57,817.168 1506.96,831.262C1507.44,848.171 1427.62,847.193 1427.07,831.262C1426.59,817.17 1444.97,805.715 1467.02,805.715Z"/>
            </clipPath>
            <g clip-path="url(#_clip2)">
                <g transform="matrix(1.24102,0,0,0.77994,-368.949,177.766)">
                    <circle cx="1479.39" cy="835.529" r="9.379" style="fill:white;"/>
                </g>
                <g transform="matrix(1.1126,0,0,0.699232,-208.975,232.587)">
                    <circle cx="1479.39" cy="835.529" r="9.379" style="fill:white;"/>
                </g>
                <g transform="matrix(1.1126,0,0,0.699232,-145.606,232.587)">
                    <circle cx="1479.39" cy="835.529" r="9.379" style="fill:white;"/>
                </g>
                <g transform="matrix(1.1126,0,0,0.699232,-178.964,217.885)">
                    <circle cx="1479.39" cy="835.529" r="9.379" style="fill:white;"/>
                </g>
                <g transform="matrix(1.1126,0,0,0.699232,-167.098,333.919)">
                    <rect x="1468.99" y="665.412" width="45.109" height="71.446" style="fill:rgb(175,28,26);fill-opacity:0.37;"/>
                </g>
            </g>
        </g>
    </g>
</svg>
