<?xml version="1.0" encoding="UTF-8" standalone="no"?>
<!DOCTYPE svg PUBLIC "-//W3C//DTD SVG 1.1//EN" "http://www.w3.org/Graphics/SVG/1.1/DTD/svg11.dtd">
<svg width="100%" height="100%" viewBox="0 0 512 512" version="1.1" xmlns="http://www.w3.org/2000/svg" xmlns:xlink="http://www.w3.org/1999/xlink" xml:space="preserve" xmlns:serif="http://www.serif.com/" style="fill-rule:evenodd;clip-rule:evenodd;stroke-linejoin:round;stroke-miterlimit:2;">
    <g id="Mushroom-Red-3" serif:id="Mushroom Red 3" transform="matrix(2.54719,0,0,2.54719,-55.1025,-19.2834)">
        <g transform="matrix(1.28908,0,0,1,-34.8279,-7.99361e-15)">
            <path d="M151.125,142.642C151.125,120.839 137.393,103.138 120.48,103.138C103.566,103.138 89.835,120.839 89.835,142.642L89.835,161.587C89.835,183.39 103.566,201.091 120.48,201.091C137.393,201.091 151.125,183.39 151.125,161.587L151.125,142.642Z" style="fill:rgb(233,202,148);"/>
            <clipPath id="_clip1">
                <path d="M151.125,142.642C151.125,120.839 137.393,103.138 120.48,103.138C103.566,103.138 89.835,120.839 89.835,142.642L89.835,161.587C89.835,183.39 103.566,201.091 120.48,201.091C137.393,201.091 151.125,183.39 151.125,161.587L151.125,142.642Z"/>
            </clipPath>
            <g clip-path="url(#_clip1)">
                <g transform="matrix(0.743079,0,0,0.825331,23.7963,25.4481)">
                    <path d="M151.125,110.251C151.125,106.325 148.379,103.138 144.996,103.138L102.093,103.138C95.327,103.138 89.835,109.513 89.835,117.365L89.835,165.524C89.835,185.154 103.566,201.091 120.48,201.091C137.393,201.091 151.125,185.154 151.125,165.524L151.125,110.251Z" style="fill:rgb(250,217,162);"/>
                </g>
                <g transform="matrix(0.259077,0,0,0.309456,87.5013,140.526)">
                    <rect x="124.854" y="-5.683" width="141.56" height="210.743" style="fill:rgb(233,202,148);"/>
                </g>
            </g>
        </g>
        <g transform="matrix(0.894514,0,0,0.894514,27.0374,3.65324)">
            <circle cx="161.455" cy="39.792" r="19.192" style="fill:white;"/>
        </g>
        <g transform="matrix(1.13037,0,0,1.13037,-13.092,-0.81097)">
            <circle cx="87.009" cy="29.644" r="14.42" style="fill:white;"/>
        </g>
        <g transform="matrix(0.900075,0,0,0.931902,28.4742,2.22764)">
            <path d="M104.059,15.267C154.238,15.267 194.976,56.005 194.976,106.183C194.976,180.213 13.143,179.21 13.143,106.183C13.143,56.005 53.881,15.267 104.059,15.267Z" style="fill:rgb(250,82,82);"/>
            <clipPath id="_clip2">
                <path d="M104.059,15.267C154.238,15.267 194.976,56.005 194.976,106.183C194.976,180.213 13.143,179.21 13.143,106.183C13.143,56.005 53.881,15.267 104.059,15.267Z"/>
            </clipPath>
            <g clip-path="url(#_clip2)">
                <g transform="matrix(0.872348,0,0,0.842555,-7.60109,5.73325)">
                    <rect x="124.854" y="-5.683" width="141.56" height="210.743" style="fill:rgb(232,42,64);"/>
                </g>
            </g>
        </g>
        <g transform="matrix(0.385586,-0.385586,0.385586,0.385586,25.0366,61.3841)">
            <ellipse cx="89.507" cy="62.503" rx="31.889" ry="25.471" style="fill:rgb(255,135,135);"/>
        </g>
        <g transform="matrix(1,0,0,1,-9.42171,28.9707)">
            <circle cx="66.766" cy="62.24" r="18.71" style="fill:rgb(232,42,64);"/>
        </g>
        <g transform="matrix(1.24341,0,0,1.24341,-21.3526,-5.36557)">
            <circle cx="107.761" cy="100.428" r="13.979" style="fill:rgb(232,42,64);"/>
        </g>
        <g transform="matrix(1.20355,0,0,1.20355,-14.9724,4.83827)">
            <circle cx="120.671" cy="46.639" r="12.056" style="fill:rgb(232,42,64);"/>
        </g>
        <g transform="matrix(1,0,0,1,-15.9069,16.461)">
            <circle cx="66.766" cy="62.24" r="18.71" style="fill:rgb(255,227,227);"/>
        </g>
        <g transform="matrix(1.24341,0,0,1.24341,-27.8377,-17.8752)">
            <circle cx="107.761" cy="100.428" r="13.979" style="fill:rgb(255,227,227);"/>
        </g>
        <g transform="matrix(1.20355,0,0,1.20355,-21.4575,-7.67136)">
            <circle cx="120.671" cy="46.639" r="12.056" style="fill:rgb(255,227,227);"/>
        </g>
        <g transform="matrix(1,0,0,1,11.6976,11.7905)">
            <circle cx="163.907" cy="85.082" r="17.942" style="fill:rgb(255,227,227);"/>
        </g>
        <g transform="matrix(0.996748,0,0,0.996748,9.38292,-1.15578)">
            <circle cx="39.115" cy="77.566" r="14.655" style="fill:white;"/>
        </g>
        <g transform="matrix(0.653093,0,0,0.653093,96.8083,-3.40619)">
            <circle cx="39.115" cy="77.566" r="14.655" style="fill:white;"/>
        </g>
        <g transform="matrix(0.805599,0,0,0.805599,72.9317,41.5385)">
            <circle cx="39.115" cy="77.566" r="14.655" style="fill:white;"/>
        </g>
        <g transform="matrix(0.936909,0,0,0.936909,138.86,23.9061)">
            <circle cx="39.115" cy="77.566" r="14.655" style="fill:white;"/>
        </g>
    </g>
</svg>
