<?xml version="1.0" encoding="UTF-8" standalone="no"?>
<!DOCTYPE svg PUBLIC "-//W3C//DTD SVG 1.1//EN" "http://www.w3.org/Graphics/SVG/1.1/DTD/svg11.dtd">
<svg width="100%" height="100%" viewBox="0 0 512 512" version="1.1" xmlns="http://www.w3.org/2000/svg" xmlns:xlink="http://www.w3.org/1999/xlink" xml:space="preserve" xmlns:serif="http://www.serif.com/" style="fill-rule:evenodd;clip-rule:evenodd;stroke-linejoin:round;stroke-miterlimit:2;">
    <g id="PanzerVehicleIcon" transform="matrix(5.19237,0,0,4.92748,-25827.2,-7183.25)">
        <g transform="matrix(0.957992,0,0,1.00949,3705.64,-2901.76)">
            <rect x="1354.75" y="4373.31" width="54.489" height="13.845" style="fill:rgb(93,80,91);"/>
        </g>
        <g transform="matrix(0.957992,0,0,0.899473,3706.13,-2421.84)">
            <rect x="1377.53" y="4353.55" width="25.519" height="8.644" style="fill:rgb(93,80,91);"/>
        </g>
        <g transform="matrix(1.00617,0,0,1.00949,3634.64,-2896.86)">
            <path d="M1426.93,4387.82C1426.93,4381.14 1421.77,4375.73 1415.42,4375.73L1345,4375.73C1338.65,4375.73 1333.49,4381.14 1333.49,4387.82C1333.49,4394.49 1338.65,4399.91 1345,4399.91L1415.42,4399.91C1421.77,4399.91 1426.93,4394.49 1426.93,4387.82Z" style="fill:rgb(144,206,94);"/>
            <clipPath id="_clip1">
                <path d="M1426.93,4387.82C1426.93,4381.14 1421.77,4375.73 1415.42,4375.73L1345,4375.73C1338.65,4375.73 1333.49,4381.14 1333.49,4387.82C1333.49,4394.49 1338.65,4399.91 1345,4399.91L1415.42,4399.91C1421.77,4399.91 1426.93,4394.49 1426.93,4387.82Z"/>
            </clipPath>
            <g clip-path="url(#_clip1)">
                <g transform="matrix(0.952113,0,0,1,-51.6928,-14.8603)">
                    <rect x="1503.78" y="4378.54" width="60.021" height="41.197" style="fill:rgb(120,170,79);"/>
                </g>
            </g>
        </g>
        <g transform="matrix(0.755983,0,0,0.792771,3982.29,-1969.86)">
            <path d="M1426.93,4387.86C1426.93,4381.16 1421.52,4375.73 1414.86,4375.73L1346.85,4375.73C1339.47,4375.73 1333.49,4381.74 1333.49,4389.15C1333.49,4395.09 1338.29,4399.91 1344.2,4399.91L1426.18,4399.91C1426.6,4399.91 1426.93,4399.57 1426.93,4399.15L1426.93,4387.86Z" style="fill:rgb(144,206,94);"/>
            <clipPath id="_clip2">
                <path d="M1426.93,4387.86C1426.93,4381.16 1421.52,4375.73 1414.86,4375.73L1346.85,4375.73C1339.47,4375.73 1333.49,4381.74 1333.49,4389.15C1333.49,4395.09 1338.29,4399.91 1344.2,4399.91L1426.18,4399.91C1426.6,4399.91 1426.93,4399.57 1426.93,4399.15L1426.93,4387.86Z"/>
            </clipPath>
            <g clip-path="url(#_clip2)">
                <g transform="matrix(1.26721,0,0,1.27337,-528.662,-1202.96)">
                    <rect x="1503.78" y="4378.54" width="60.021" height="41.197" style="fill:rgb(120,170,79);"/>
                </g>
            </g>
        </g>
        <g transform="matrix(0.925349,0.261275,-0.247946,0.975093,4835.57,-3112.46)">
            <path d="M1378.11,4348.15C1378.11,4346.99 1377.17,4346.05 1376.01,4346.05L1337.31,4346.05C1336.15,4346.05 1335.21,4346.99 1335.21,4348.15C1335.21,4349.3 1336.15,4350.24 1337.31,4350.24L1376.01,4350.24C1377.17,4350.24 1378.11,4349.3 1378.11,4348.15Z" style="fill:rgb(93,80,91);"/>
        </g>
        <g transform="matrix(0.957992,0,0,1.00949,3581.13,-2912.16)">
            <circle cx="1468.5" cy="4402.98" r="6.943" style="fill:rgb(93,80,91);"/>
        </g>
        <g transform="matrix(0.957992,0,0,1.00949,3652.27,-2912.16)">
            <circle cx="1468.5" cy="4402.98" r="6.943" style="fill:rgb(93,80,91);"/>
        </g>
        <g transform="matrix(0.957992,0,0,1.00949,3628.56,-2912.16)">
            <circle cx="1468.5" cy="4402.98" r="6.943" style="fill:rgb(93,80,91);"/>
        </g>
        <g transform="matrix(0.957992,0,0,1.00949,3604.85,-2912.16)">
            <circle cx="1468.5" cy="4402.98" r="6.943" style="fill:rgb(93,80,91);"/>
        </g>
        <g transform="matrix(0.957992,0,0,1.00949,3583.29,-2909.57)">
            <path d="M1503.13,4363.29C1503.37,4355.01 1510.17,4348.37 1518.51,4348.37C1526.85,4348.37 1533.65,4355.01 1533.9,4363.29L1503.13,4363.29Z" style="fill:rgb(120,170,79);"/>
            <clipPath id="_clip3">
                <path d="M1503.13,4363.29C1503.37,4355.01 1510.17,4348.37 1518.51,4348.37C1526.85,4348.37 1533.65,4355.01 1533.9,4363.29L1503.13,4363.29Z"/>
            </clipPath>
            <g clip-path="url(#_clip3)">
                <g transform="matrix(1.24133,0,0,1.24133,-337.241,-1056.04)">
                    <path d="M1515.01,4351.28C1515.01,4349.2 1513.32,4347.52 1511.25,4347.52L1502.77,4347.52C1500.7,4347.52 1499.01,4349.2 1499.01,4351.28L1499.01,4358.8C1499.01,4360.88 1500.7,4362.56 1502.77,4362.56L1511.25,4362.56C1513.32,4362.56 1515.01,4360.88 1515.01,4358.8L1515.01,4351.28Z" style="fill:rgb(111,138,166);"/>
                </g>
            </g>
        </g>
        <g transform="matrix(1,0,0,1,1.06688,0.970855)">
            <g transform="matrix(0.268165,-0.489444,0.720605,0.438407,1446.88,317.748)">
                <path d="M1497.83,4377.6C1497.83,4376.82 1496.84,4376.18 1495.63,4376.18L1484.12,4376.18C1482.91,4376.18 1481.93,4376.82 1481.93,4377.6C1481.93,4378.38 1482.91,4379.01 1484.12,4379.01L1495.63,4379.01C1496.84,4379.01 1497.83,4378.38 1497.83,4377.6Z" style="fill:rgb(93,80,91);"/>
            </g>
            <g transform="matrix(0.268165,-0.489444,0.720605,0.438407,1451.71,317.748)">
                <path d="M1497.83,4377.6C1497.83,4376.82 1496.84,4376.18 1495.63,4376.18L1484.12,4376.18C1482.91,4376.18 1481.93,4376.82 1481.93,4377.6C1481.93,4378.38 1482.91,4379.01 1484.12,4379.01L1495.63,4379.01C1496.84,4379.01 1497.83,4378.38 1497.83,4377.6Z" style="fill:rgb(93,80,91);"/>
            </g>
            <g transform="matrix(0.268165,-0.489444,0.720605,0.438407,1456.55,317.748)">
                <path d="M1497.83,4377.6C1497.83,4376.82 1496.84,4376.18 1495.63,4376.18L1484.12,4376.18C1482.91,4376.18 1481.93,4376.82 1481.93,4377.6C1481.93,4378.38 1482.91,4379.01 1484.12,4379.01L1495.63,4379.01C1496.84,4379.01 1497.83,4378.38 1497.83,4377.6Z" style="fill:rgb(93,80,91);"/>
            </g>
            <g transform="matrix(0.268165,-0.489444,0.720605,0.438407,1461.39,317.748)">
                <path d="M1497.83,4377.6C1497.83,4376.82 1496.84,4376.18 1495.63,4376.18L1484.12,4376.18C1482.91,4376.18 1481.93,4376.82 1481.93,4377.6C1481.93,4378.38 1482.91,4379.01 1484.12,4379.01L1495.63,4379.01C1496.84,4379.01 1497.83,4378.38 1497.83,4377.6Z" style="fill:rgb(93,80,91);"/>
            </g>
        </g>
    </g>
</svg>
