<?xml version="1.0" encoding="UTF-8" standalone="no"?>
<!DOCTYPE svg PUBLIC "-//W3C//DTD SVG 1.1//EN" "http://www.w3.org/Graphics/SVG/1.1/DTD/svg11.dtd">
<svg width="100%" height="100%" viewBox="0 0 512 512" version="1.1" xmlns="http://www.w3.org/2000/svg" xmlns:xlink="http://www.w3.org/1999/xlink" xml:space="preserve" xmlns:serif="http://www.serif.com/" style="fill-rule:evenodd;clip-rule:evenodd;stroke-linejoin:round;stroke-miterlimit:2;">
    <g id="PencilPurpleIcon" transform="matrix(6.63582,2.05094e-15,2.56367e-15,-7.31568,-208.53,1089.11)">
        <g transform="matrix(0.948767,0,0,1.18633,-109.38,-11.6203)">
            <path d="M201.258,93.364C201.258,92.47 200.814,91.612 200.023,90.98C199.232,90.347 198.16,89.992 197.042,89.992C192.576,89.992 185.565,89.992 181.098,89.992C179.98,89.992 178.908,90.347 178.117,90.98C177.327,91.612 176.882,92.47 176.882,93.364C176.882,103.004 176.882,129.991 176.882,129.991C176.882,132.305 179.231,134.182 182.123,134.182L196.018,134.182C198.91,134.182 201.258,132.305 201.258,129.991L201.258,93.364Z" style="fill:rgb(200,119,227);"/>
            <clipPath id="_clip1">
                <path d="M201.258,93.364C201.258,92.47 200.814,91.612 200.023,90.98C199.232,90.347 198.16,89.992 197.042,89.992C192.576,89.992 185.565,89.992 181.098,89.992C179.98,89.992 178.908,90.347 178.117,90.98C177.327,91.612 176.882,92.47 176.882,93.364C176.882,103.004 176.882,129.991 176.882,129.991C176.882,132.305 179.231,134.182 182.123,134.182L196.018,134.182C198.91,134.182 201.258,132.305 201.258,129.991L201.258,93.364Z"/>
            </clipPath>
            <g clip-path="url(#_clip1)">
                <g transform="matrix(1.09405,0,0,0.843522,42.5153,12.3921)">
                    <rect x="129.199" y="91.805" width="9.768" height="53.776" style="fill:rgb(157,80,201);"/>
                </g>
                <g transform="matrix(1.054,0,0,0.842935,58.0981,12.4865)">
                    <rect x="129.199" y="91.805" width="9.768" height="53.776" style="fill:rgb(140,57,185);"/>
                </g>
            </g>
        </g>
        <g transform="matrix(1,0,0,1,-118.498,7.646)">
            <path d="M176.938,90.826L176.938,88.822C176.938,87.96 177.217,87.121 177.732,86.43C179.628,83.89 184.826,76.923 187.361,73.524C187.74,73.016 188.096,72.549 188.593,72.549C189.09,72.549 189.489,73.08 189.864,73.591C192.363,76.997 197.433,83.907 199.29,86.438C199.793,87.124 200.065,87.953 200.065,88.804C200.065,89.737 200.065,90.826 200.065,90.826C199.539,91 198.977,91.094 198.393,91.094C196.311,91.094 194.506,89.9 193.626,88.16C193.593,88.091 193.523,88.048 193.447,88.048C193.371,88.048 193.302,88.092 193.269,88.16C192.388,89.9 190.583,91.094 188.502,91.094C186.42,91.094 184.615,89.9 183.734,88.16C183.701,88.091 183.632,88.048 183.556,88.048C183.48,88.048 183.411,88.092 183.378,88.16C182.497,89.9 180.692,91.094 178.61,91.094C178.026,91.094 177.464,91 176.938,90.826Z" style="fill:rgb(236,178,112);"/>
            <clipPath id="_clip2">
                <path d="M176.938,90.826L176.938,88.822C176.938,87.96 177.217,87.121 177.732,86.43C179.628,83.89 184.826,76.923 187.361,73.524C187.74,73.016 188.096,72.549 188.593,72.549C189.09,72.549 189.489,73.08 189.864,73.591C192.363,76.997 197.433,83.907 199.29,86.438C199.793,87.124 200.065,87.953 200.065,88.804C200.065,89.737 200.065,90.826 200.065,90.826C199.539,91 198.977,91.094 198.393,91.094C196.311,91.094 194.506,89.9 193.626,88.16C193.593,88.091 193.523,88.048 193.447,88.048C193.371,88.048 193.302,88.092 193.269,88.16C192.388,89.9 190.583,91.094 188.502,91.094C186.42,91.094 184.615,89.9 183.734,88.16C183.701,88.091 183.632,88.048 183.556,88.048C183.48,88.048 183.411,88.092 183.378,88.16C182.497,89.9 180.692,91.094 178.61,91.094C178.026,91.094 177.464,91 176.938,90.826Z"/>
            </clipPath>
            <g clip-path="url(#_clip2)">
                <g transform="matrix(0.606589,-0.208312,0.412027,1.19979,74.9938,8.13729)">
                    <path d="M144.638,76.481L134.861,76.144L134.202,89.798C134.64,95.837 140.837,94.254 144.638,95.843L144.638,76.481Z" style="fill:rgb(201,140,90);"/>
                </g>
                <g transform="matrix(-0.606589,-0.208312,-0.412027,1.19979,302.021,8.13729)">
                    <path d="M144.638,76.481L134.861,76.144L134.202,89.798C134.64,95.837 140.837,94.254 144.638,95.843L144.638,76.481Z" style="fill:rgb(235,190,143);"/>
                </g>
                <g transform="matrix(1,0,0,1,-0.222045,0)">
                    <ellipse cx="188.724" cy="73.77" rx="6.377" ry="5.864" style="fill:rgb(157,80,201);"/>
                    <clipPath id="_clip3">
                        <ellipse cx="188.724" cy="73.77" rx="6.377" ry="5.864"/>
                    </clipPath>
                    <g clip-path="url(#_clip3)">
                        <g transform="matrix(0.606589,-0.208312,0.412027,1.19979,75.2159,8.13729)">
                            <path d="M144.638,76.481L134.861,76.144L134.202,89.798C134.64,95.837 140.837,94.254 144.638,95.843L144.638,76.481Z" style="fill:rgb(140,57,185);"/>
                        </g>
                        <g transform="matrix(-0.606589,-0.208312,-0.412027,1.19979,302.243,8.13729)">
                            <path d="M144.638,76.481L134.861,76.144L134.202,89.798C134.64,95.837 140.837,94.254 144.638,95.843L144.638,76.481Z" style="fill:rgb(200,119,227);"/>
                        </g>
                    </g>
                </g>
            </g>
        </g>
    </g>
</svg>
