<?xml version="1.0" encoding="UTF-8" standalone="no"?>
<!DOCTYPE svg PUBLIC "-//W3C//DTD SVG 1.1//EN" "http://www.w3.org/Graphics/SVG/1.1/DTD/svg11.dtd">
<svg width="100%" height="100%" viewBox="0 0 512 512" version="1.1" xmlns="http://www.w3.org/2000/svg" xmlns:xlink="http://www.w3.org/1999/xlink" xml:space="preserve" xmlns:serif="http://www.serif.com/" style="fill-rule:evenodd;clip-rule:evenodd;stroke-linejoin:round;stroke-miterlimit:2;">
    <g id="Planet" transform="matrix(1.93208,0,0,1.93208,0,16.9796)">
        <g transform="matrix(1,0,0,1,0,-2.74764)">
            <path d="M78.332,81.831L78.332,107.327C64.139,109.49 51.835,112.495 42.288,116.14C37.683,117.898 33.806,119.767 30.842,121.816C30.107,122.324 29.271,123.087 28.63,123.712C29.271,124.337 30.107,125.099 30.842,125.608C33.806,127.657 37.683,129.525 42.288,131.283C62.632,139.051 95.491,143.911 132.5,143.911C169.509,143.911 202.368,139.051 222.712,131.283C227.317,129.525 231.194,127.657 234.158,125.608C234.893,125.099 235.729,124.337 236.37,123.712C235.729,123.087 234.893,122.324 234.158,121.816C231.194,119.767 227.317,117.898 222.712,116.14C214.023,112.822 203.051,110.035 190.447,107.93L190.447,82.391C212.814,85.84 231.131,91.169 242.798,97.467C256.561,104.896 262.56,114.771 262.56,123.712C262.56,132.652 256.561,142.527 242.798,149.957C222.108,161.125 180.507,169.245 132.5,169.245C84.493,169.245 42.892,161.125 22.202,149.957C8.439,142.527 2.44,132.652 2.44,123.712C2.44,114.771 8.439,104.896 22.202,97.467C34.521,90.817 54.253,85.248 78.332,81.831Z" style="fill:white;"/>
        </g>
        <g transform="matrix(0.517578,0,0,0.517578,0,-8.78825)">
            <path d="M136.573,351.755C171.738,357.644 212.508,361.093 256,361.093C299.195,361.093 339.706,357.691 374.701,351.875C346.671,386.616 303.754,408.853 255.685,408.853C207.558,408.853 164.597,386.564 136.573,351.755ZM102.847,253.835C104.01,170.465 172.048,103.147 255.685,103.147C318.188,103.147 371.98,140.744 395.66,194.54L394.86,207.147C396.957,207.634 399.02,208.133 401.047,208.643C405.714,222.956 408.323,238.195 408.525,254.009C369.446,264.838 315.499,271.34 256,271.34C196.186,271.34 141.984,264.769 102.847,253.835ZM172.458,164.517C186.493,156.414 203.26,159.142 209.878,170.605C216.496,182.068 210.475,197.953 196.44,206.056C182.406,214.158 165.639,211.43 159.021,199.968C152.403,188.505 158.424,172.62 172.458,164.517ZM252.887,185.609C259.776,180.324 268.873,180.602 273.19,186.228C277.506,191.855 275.418,200.714 268.529,205.998C261.64,211.283 252.543,211.006 248.227,205.379C243.91,199.753 245.999,190.894 252.887,185.609ZM243.377,127.746C253.637,126.609 262.613,131.517 263.409,138.698C264.204,145.879 256.52,152.632 246.26,153.769C235.999,154.906 227.023,149.998 226.227,142.817C225.432,135.636 233.116,128.883 243.377,127.746Z" style="fill:white;"/>
        </g>
    </g>
</svg>
