<?xml version="1.0" encoding="UTF-8" standalone="no"?>
<!DOCTYPE svg PUBLIC "-//W3C//DTD SVG 1.1//EN" "http://www.w3.org/Graphics/SVG/1.1/DTD/svg11.dtd">
<svg width="100%" height="100%" viewBox="0 0 512 512" version="1.1" xmlns="http://www.w3.org/2000/svg" xmlns:xlink="http://www.w3.org/1999/xlink" xml:space="preserve" xmlns:serif="http://www.serif.com/" style="fill-rule:evenodd;clip-rule:evenodd;stroke-linecap:round;stroke-linejoin:round;stroke-miterlimit:1.5;">
    <g id="PotionRedIcon" transform="matrix(2.4194,0,0,2.4194,-4839.31,-1210.25)">
        <g transform="matrix(1.27662,0,0,1.20043,-609.404,-95.8515)">
            <circle cx="2127.05" cy="616.299" r="53.542" style="fill:rgb(202,207,217);"/>
            <clipPath id="_clip1">
                <circle cx="2127.05" cy="616.299" r="53.542"/>
            </clipPath>
            <g clip-path="url(#_clip1)">
                <g transform="matrix(1.6158,0,0,1.83618,919.447,-419.879)">
                    <rect x="747.276" y="512.91" width="40.796" height="90.785" style="fill:rgb(137,145,163);"/>
                </g>
            </g>
        </g>
        <g transform="matrix(2.37382,0,0,2.27341,241.667,-637.578)">
            <circle cx="770.751" cy="554.032" r="6.207" style="fill:white;"/>
        </g>
        <g transform="matrix(0.871402,-2.61741e-16,3.97547e-16,0.871383,2326.41,-709.338)">
            <path d="M-273.627,1392.23C-263.514,1392.23 -255.303,1400.44 -255.303,1410.55C-255.303,1420.66 -263.514,1428.88 -273.627,1428.88C-283.739,1428.88 -291.95,1420.66 -291.95,1410.55C-291.95,1400.44 -283.739,1392.23 -273.627,1392.23ZM-273.627,1396.42C-265.826,1396.42 -259.493,1402.75 -259.493,1410.55C-259.493,1418.35 -265.826,1424.69 -273.627,1424.69C-281.427,1424.69 -287.76,1418.35 -287.76,1410.55C-287.76,1402.75 -281.427,1396.42 -273.627,1396.42Z" style="fill:rgb(167,167,167);"/>
        </g>
        <g transform="matrix(0.538634,-1.01884e-17,0.00709173,0.538575,2221.74,-190.546)">
            <path d="M-273.627,1392.23C-263.514,1392.23 -255.303,1400.44 -255.303,1410.55C-255.303,1420.66 -263.514,1428.88 -273.627,1428.88C-283.739,1428.88 -291.95,1420.66 -291.95,1410.55C-291.95,1400.44 -283.739,1392.23 -273.627,1392.23ZM-273.627,1396.1C-265.648,1396.1 -259.171,1402.57 -259.171,1410.55C-259.171,1418.53 -265.648,1425.01 -273.627,1425.01C-281.605,1425.01 -288.082,1418.53 -288.082,1410.55C-288.082,1402.57 -281.605,1396.1 -273.627,1396.1Z" style="fill:rgb(167,167,167);"/>
        </g>
        <g transform="matrix(0.69544,0.718584,-0.718584,0.69544,1279.83,-1228.64)">
            <path d="M1819.93,648.806C1819.93,647.001 1818.47,645.536 1816.66,645.536L1814.21,645.536C1812.41,645.536 1810.94,647.001 1810.94,648.806C1810.94,650.611 1812.41,652.076 1814.21,652.076L1816.66,652.076C1818.47,652.076 1819.93,650.611 1819.93,648.806Z" style="fill:rgb(66,63,65);"/>
        </g>
        <g transform="matrix(0.46169,0.887041,-0.887041,0.46169,1813.98,-1336.94)">
            <path d="M1819.93,648.806C1819.93,647.001 1818.47,645.536 1816.66,645.536L1814.21,645.536C1812.41,645.536 1810.94,647.001 1810.94,648.806C1810.94,650.611 1812.41,652.076 1814.21,652.076L1816.66,652.076C1818.47,652.076 1819.93,650.611 1819.93,648.806Z" style="fill:rgb(66,63,65);"/>
        </g>
        <g transform="matrix(1,0,0,1,263.033,-139.562)">
            <path d="M1812.94,666.945C1812.94,666.945 1779.48,693.296 1790.53,712.12C1796.27,721.894 1813.41,712.819 1813.41,712.819" style="fill:none;stroke:rgb(66,63,65);stroke-width:4px;"/>
        </g>
        <g transform="matrix(2.1675,0,0,2.07582,1442.89,-11281.1)">
            <path d="M331.055,5745.08L331.055,5745.16C331.055,5759.02 319.802,5770.28 305.94,5770.28C292.079,5770.28 280.825,5759.02 280.825,5745.16L280.826,5745.08L331.055,5745.08Z" style="fill:rgb(215,58,84);"/>
            <clipPath id="_clip2">
                <path d="M331.055,5745.08L331.055,5745.16C331.055,5759.02 319.802,5770.28 305.94,5770.28C292.079,5770.28 280.825,5759.02 280.825,5745.16L280.826,5745.08L331.055,5745.08Z"/>
            </clipPath>
            <g clip-path="url(#_clip2)">
                <g transform="matrix(0.900686,0,0,0.369877,-367.207,5552.36)">
                    <rect x="747.276" y="512.91" width="40.796" height="90.785" style="fill:rgb(136,31,54);"/>
                </g>
            </g>
        </g>
        <g transform="matrix(1.28531,0,0,0.894108,-641.724,66.6858)">
            <rect x="2126.42" y="523.427" width="22.765" height="63.587" style="fill:rgb(202,207,217);"/>
            <clipPath id="_clip3">
                <rect x="2126.42" y="523.427" width="22.765" height="63.587"/>
            </clipPath>
            <g clip-path="url(#_clip3)">
                <g transform="matrix(1.3816,0,0,0.603421,1105.25,225.244)">
                    <rect x="747.276" y="512.91" width="40.796" height="90.785" style="fill:rgb(137,145,163);"/>
                </g>
            </g>
        </g>
        <g transform="matrix(0.538427,0,0,0.990042,956.75,2.85263)">
            <path d="M2161.92,518.166C2161.92,515.589 2158.07,513.497 2153.34,513.497L2115.64,513.497C2110.91,513.497 2107.06,515.589 2107.06,518.166L2107.06,532.174L2161.92,532.174L2161.92,518.166Z" style="fill:rgb(153,101,84);"/>
            <clipPath id="_clip4">
                <path d="M2161.92,518.166C2161.92,515.589 2158.07,513.497 2153.34,513.497L2115.64,513.497C2110.91,513.497 2107.06,515.589 2107.06,518.166L2107.06,532.174L2161.92,532.174L2161.92,518.166Z"/>
            </clipPath>
            <g clip-path="url(#_clip4)">
                <g transform="matrix(0.824809,0,0,0.270085,1517.83,372.566)">
                    <rect x="747.276" y="512.91" width="40.796" height="90.785" style="fill:rgb(123,75,59);"/>
                </g>
            </g>
        </g>
        <g transform="matrix(0.880038,0,0,1.06087,227.585,-15.6214)">
            <path d="M2161.92,518.166C2161.92,515.589 2159.4,513.497 2156.29,513.497L2112.69,513.497C2109.58,513.497 2107.06,515.589 2107.06,518.166L2107.06,527.505C2107.06,530.082 2109.58,532.174 2112.69,532.174L2156.29,532.174C2159.4,532.174 2161.92,530.082 2161.92,527.505L2161.92,518.166Z" style="fill:rgb(202,207,217);"/>
            <clipPath id="_clip5">
                <path d="M2161.92,518.166C2161.92,515.589 2159.4,513.497 2156.29,513.497L2112.69,513.497C2109.58,513.497 2107.06,515.589 2107.06,518.166L2107.06,527.505C2107.06,530.082 2109.58,532.174 2112.69,532.174L2156.29,532.174C2159.4,532.174 2161.92,530.082 2161.92,527.505L2161.92,518.166Z"/>
            </clipPath>
            <g clip-path="url(#_clip5)">
                <g transform="matrix(2.01784,0,0,0.31008,626.424,349.295)">
                    <rect x="747.276" y="512.91" width="40.796" height="90.785" style="fill:rgb(137,145,163);fill-opacity:0.8;"/>
                </g>
            </g>
        </g>
        <g transform="matrix(0.538427,2.68649e-17,-5.65349e-17,-0.671432,956.75,886.452)">
            <path d="M2161.92,518.166C2161.92,515.589 2159.31,513.497 2156.1,513.497L2112.88,513.497C2109.67,513.497 2107.06,515.589 2107.06,518.166L2107.06,532.174L2161.92,532.174L2161.92,518.166Z" style="fill:rgb(199,188,177);"/>
            <clipPath id="_clip6">
                <path d="M2161.92,518.166C2161.92,515.589 2159.31,513.497 2156.1,513.497L2112.88,513.497C2109.67,513.497 2107.06,515.589 2107.06,518.166L2107.06,532.174L2161.92,532.174L2161.92,518.166Z"/>
            </clipPath>
            <g clip-path="url(#_clip6)">
                <g transform="matrix(1.15732,4.63058e-17,-3.32948e-17,-0.317094,1269.36,699.707)">
                    <rect x="747.276" y="512.91" width="40.796" height="90.785" style="fill:rgb(147,130,122);"/>
                </g>
            </g>
        </g>
        <g transform="matrix(1,0,0,1,255.332,-150.92)">
            <path d="M1870.19,715.465C1870.19,713.662 1868.72,712.198 1866.92,712.198L1834.45,712.198C1832.65,712.198 1831.18,713.662 1831.18,715.465C1831.18,717.269 1832.65,718.733 1834.45,718.733L1866.92,718.733C1868.72,718.733 1870.19,717.269 1870.19,715.465Z" style="fill:rgb(90,87,89);"/>
            <clipPath id="_clip7">
                <path d="M1870.19,715.465C1870.19,713.662 1868.72,712.198 1866.92,712.198L1834.45,712.198C1832.65,712.198 1831.18,713.662 1831.18,715.465C1831.18,717.269 1832.65,718.733 1834.45,718.733L1866.92,718.733C1868.72,718.733 1870.19,717.269 1870.19,715.465Z"/>
            </clipPath>
            <g clip-path="url(#_clip7)">
                <g transform="matrix(0.623732,0,0,0.111777,1384.43,653.341)">
                    <rect x="747.276" y="512.91" width="40.796" height="90.785" style="fill:rgb(66,63,65);"/>
                </g>
            </g>
        </g>
        <g transform="matrix(1,0,0,1,255.332,-141.135)">
            <path d="M1870.19,715.465C1870.19,713.662 1868.72,712.198 1866.92,712.198L1834.45,712.198C1832.65,712.198 1831.18,713.662 1831.18,715.465C1831.18,717.269 1832.65,718.733 1834.45,718.733L1866.92,718.733C1868.72,718.733 1870.19,717.269 1870.19,715.465Z" style="fill:rgb(90,87,89);"/>
            <clipPath id="_clip8">
                <path d="M1870.19,715.465C1870.19,713.662 1868.72,712.198 1866.92,712.198L1834.45,712.198C1832.65,712.198 1831.18,713.662 1831.18,715.465C1831.18,717.269 1832.65,718.733 1834.45,718.733L1866.92,718.733C1868.72,718.733 1870.19,717.269 1870.19,715.465Z"/>
            </clipPath>
            <g clip-path="url(#_clip8)">
                <g transform="matrix(0.623732,0,0,0.111777,1384.43,652.967)">
                    <rect x="747.276" y="512.91" width="40.796" height="90.785" style="fill:rgb(66,63,65);"/>
                </g>
            </g>
        </g>
    </g>
</svg>
