<?xml version="1.0" encoding="UTF-8" standalone="no"?>
<!DOCTYPE svg PUBLIC "-//W3C//DTD SVG 1.1//EN" "http://www.w3.org/Graphics/SVG/1.1/DTD/svg11.dtd">
<svg width="100%" height="100%" viewBox="0 0 512 512" version="1.1" xmlns="http://www.w3.org/2000/svg" xmlns:xlink="http://www.w3.org/1999/xlink" xml:space="preserve" xmlns:serif="http://www.serif.com/" style="fill-rule:evenodd;clip-rule:evenodd;stroke-linejoin:round;stroke-miterlimit:2;">
    <g id="PotionIcon" transform="matrix(1.72089,0,0,1.72089,-2928.19,-1083.28)">
        <path d="M1756.92,856.527C1756.92,808.349 1806.38,784.116 1816.31,770.864C1827.07,756.507 1835.19,711.628 1834.87,695.826C1834.87,695.826 1831.78,693.041 1829.38,690.466C1826.98,687.891 1828.29,683.662 1828.29,683.662L1873.22,683.662C1873.22,683.662 1873.63,688.236 1872.22,690.466C1870.82,692.695 1866.91,695.826 1866.91,695.826C1865.77,711.47 1874.71,756.507 1885.47,770.864C1895.57,784.349 1943.7,814.711 1943.7,856.527C1943.7,897.042 1901.85,922.281 1850.31,922.281C1798.77,922.281 1756.92,897.042 1756.92,856.527ZM1850.31,786.583C1894.69,786.583 1930.72,818.983 1930.72,852.836C1930.72,886.688 1894.69,909.254 1850.31,909.254C1805.93,909.254 1769.9,886.688 1769.9,852.836C1769.9,818.983 1805.93,786.583 1850.31,786.583Z" style="fill:rgb(169,225,243);"/>
        <clipPath id="_clip1">
            <path d="M1756.92,856.527C1756.92,808.349 1806.38,784.116 1816.31,770.864C1827.07,756.507 1835.19,711.628 1834.87,695.826C1834.87,695.826 1831.78,693.041 1829.38,690.466C1826.98,687.891 1828.29,683.662 1828.29,683.662L1873.22,683.662C1873.22,683.662 1873.63,688.236 1872.22,690.466C1870.82,692.695 1866.91,695.826 1866.91,695.826C1865.77,711.47 1874.71,756.507 1885.47,770.864C1895.57,784.349 1943.7,814.711 1943.7,856.527C1943.7,897.042 1901.85,922.281 1850.31,922.281C1798.77,922.281 1756.92,897.042 1756.92,856.527ZM1850.31,786.583C1894.69,786.583 1930.72,818.983 1930.72,852.836C1930.72,886.688 1894.69,909.254 1850.31,909.254C1805.93,909.254 1769.9,886.688 1769.9,852.836C1769.9,818.983 1805.93,786.583 1850.31,786.583Z"/>
        </clipPath>
        <g clip-path="url(#_clip1)">
            <g transform="matrix(3.24113,-8.11888e-32,3.995e-32,2.91811,-4146.53,-1124.71)">
                <rect x="1850.2" y="624.615" width="31.844" height="80.469" style="fill:rgb(128,194,216);"/>
            </g>
        </g>
        <g transform="matrix(0.871402,-2.61741e-16,3.97547e-16,0.871383,2064.56,-578.956)">
            <path d="M-273.627,1392.23C-263.514,1392.23 -255.303,1400.44 -255.303,1410.55C-255.303,1420.66 -263.514,1428.88 -273.627,1428.88C-283.739,1428.88 -291.95,1420.66 -291.95,1410.55C-291.95,1400.44 -283.739,1392.23 -273.627,1392.23ZM-273.627,1396.42C-265.826,1396.42 -259.493,1402.75 -259.493,1410.55C-259.493,1418.35 -265.826,1424.69 -273.627,1424.69C-281.427,1424.69 -287.76,1418.35 -287.76,1410.55C-287.76,1402.75 -281.427,1396.42 -273.627,1396.42Z" style="fill:rgb(167,167,167);"/>
        </g>
        <g transform="matrix(1,0,0,0.90339,-0.170242,73.1606)">
            <path d="M1872.89,646.058C1872.89,641.622 1869.64,638.02 1865.63,638.02L1835.65,638.02C1831.64,638.02 1828.39,641.622 1828.39,646.058L1828.39,678.064L1872.89,678.064L1872.89,646.058Z" style="fill:rgb(153,101,84);"/>
            <clipPath id="_clip2">
                <path d="M1872.89,646.058C1872.89,641.622 1869.64,638.02 1865.63,638.02L1835.65,638.02C1831.64,638.02 1828.39,641.622 1828.39,646.058L1828.39,678.064L1872.89,678.064L1872.89,646.058Z"/>
            </clipPath>
            <g clip-path="url(#_clip2)">
                <g transform="matrix(1,0,0,0.490401,0.170242,327.602)">
                    <rect x="1850.2" y="624.615" width="31.844" height="80.469" style="fill:rgb(122,64,44);"/>
                </g>
            </g>
        </g>
        <g transform="matrix(0.538634,-1.01884e-17,0.00709173,0.538575,1962.33,-43.6405)">
            <path d="M-273.627,1392.23C-263.514,1392.23 -255.303,1400.44 -255.303,1410.55C-255.303,1420.66 -263.514,1428.88 -273.627,1428.88C-283.739,1428.88 -291.95,1420.66 -291.95,1410.55C-291.95,1400.44 -283.739,1392.23 -273.627,1392.23ZM-273.627,1396.1C-265.648,1396.1 -259.171,1402.57 -259.171,1410.55C-259.171,1418.53 -265.648,1425.01 -273.627,1425.01C-281.605,1425.01 -288.082,1418.53 -288.082,1410.55C-288.082,1402.57 -281.605,1396.1 -273.627,1396.1Z" style="fill:rgb(167,167,167);"/>
        </g>
        <g transform="matrix(0.475381,0,0,0.561065,1695.77,27.3066)">
            <rect x="292.728" y="1162.72" width="66.587" height="35.23" style="fill:url(#_Linear3);"/>
        </g>
        <g transform="matrix(1,0,0,1.10138,-0.281934,-53.9171)">
            <path d="M1878.97,668.983C1878.97,665.94 1876.25,663.469 1872.9,663.469L1828.61,663.469C1825.25,663.469 1822.53,665.94 1822.53,668.983L1822.53,680.012C1822.53,683.055 1825.25,685.526 1828.61,685.526L1872.9,685.526C1876.25,685.526 1878.97,683.055 1878.97,680.012L1878.97,668.983Z" style="fill:rgb(169,225,243);"/>
            <clipPath id="_clip4">
                <path d="M1878.97,668.983C1878.97,665.94 1876.25,663.469 1872.9,663.469L1828.61,663.469C1825.25,663.469 1822.53,665.94 1822.53,668.983L1822.53,680.012C1822.53,683.055 1825.25,685.526 1828.61,685.526L1872.9,685.526C1876.25,685.526 1878.97,683.055 1878.97,680.012L1878.97,668.983Z"/>
            </clipPath>
            <g clip-path="url(#_clip4)">
                <g transform="matrix(1,-1.11914e-32,1.2326e-32,0.402243,0.281934,404.729)">
                    <rect x="1850.2" y="624.615" width="31.844" height="80.469" style="fill:rgb(155,196,210);"/>
                </g>
            </g>
        </g>
        <g transform="matrix(1,5.85873e-17,-5.29271e-17,-0.471207,-0.170242,995.884)">
            <path d="M1872.89,646.058C1872.89,641.622 1871.2,638.02 1869.11,638.02L1832.18,638.02C1830.09,638.02 1828.39,641.622 1828.39,646.058L1828.39,678.064L1872.89,678.064L1872.89,646.058Z" style="fill:rgb(213,174,163);"/>
            <clipPath id="_clip5">
                <path d="M1872.89,646.058C1872.89,641.622 1871.2,638.02 1869.11,638.02L1832.18,638.02C1830.09,638.02 1828.39,641.622 1828.39,646.058L1828.39,678.064L1872.89,678.064L1872.89,646.058Z"/>
            </clipPath>
            <g clip-path="url(#_clip5)">
                <g transform="matrix(1,1.24334e-16,-4.97614e-17,-0.940188,0.170242,1296.07)">
                    <rect x="1850.2" y="624.615" width="31.844" height="80.469" style="fill:rgb(122,64,44);fill-opacity:0.18;"/>
                </g>
            </g>
        </g>
        <g transform="matrix(0.876843,0.480777,-0.480777,0.876843,534.957,-782.824)">
            <path d="M1819.93,648.806C1819.93,647.001 1818.47,645.536 1816.66,645.536L1814.21,645.536C1812.41,645.536 1810.94,647.001 1810.94,648.806C1810.94,650.611 1812.41,652.076 1814.21,652.076L1816.66,652.076C1818.47,652.076 1819.93,650.611 1819.93,648.806Z" style="fill:rgb(82,79,81);"/>
        </g>
        <g transform="matrix(0.963276,0.268513,-0.268513,0.963276,242.661,-392.569)">
            <path d="M1819.93,648.806C1819.93,647.001 1818.47,645.536 1816.66,645.536L1814.21,645.536C1812.41,645.536 1810.94,647.001 1810.94,648.806C1810.94,650.611 1812.41,652.076 1814.21,652.076L1816.66,652.076C1818.47,652.076 1819.93,650.611 1819.93,648.806Z" style="fill:rgb(82,79,81);"/>
        </g>
        <path d="M1814.59,656.203C1817.82,656.552 1819.51,658.616 1817.35,662.774C1805.98,684.882 1794.67,708.269 1792.67,731.983C1792.11,738.599 1792.31,746.168 1797.75,749.403C1797.95,749.523 1798.16,749.638 1798.37,749.746C1805.99,753.653 1811.45,735.239 1812.89,720.194C1812.89,720.194 1813.65,717.285 1816.85,717.395C1821.98,717.572 1820.55,725.848 1818.97,733.412C1816.82,743.688 1812.84,755.29 1804.53,757.966C1798.87,759.787 1792.43,756.745 1788.85,752.017C1779.61,739.801 1785.47,721.065 1790.3,706.09C1795.65,689.509 1802.74,673.502 1810.82,658.015C1810.82,658.015 1811.49,656.164 1814.59,656.203Z" style="fill:rgb(82,79,81);"/>
        <g transform="matrix(1,0,0,1,4.54747e-13,-3.4222)">
            <path d="M1870.19,715.465C1870.19,713.662 1868.72,712.198 1866.92,712.198L1834.45,712.198C1832.65,712.198 1831.18,713.662 1831.18,715.465C1831.18,717.269 1832.65,718.733 1834.45,718.733L1866.92,718.733C1868.72,718.733 1870.19,717.269 1870.19,715.465Z" style="fill:rgb(82,79,81);"/>
        </g>
        <g transform="matrix(1.13898,0,0,1,-256.7,6.15898)">
            <path d="M1870.19,715.465C1870.19,713.662 1868.9,712.198 1867.32,712.198L1834.05,712.198C1832.47,712.198 1831.18,713.662 1831.18,715.465C1831.18,717.269 1832.47,718.733 1834.05,718.733L1867.32,718.733C1868.9,718.733 1870.19,717.269 1870.19,715.465Z" style="fill:rgb(82,79,81);"/>
        </g>
        <g transform="matrix(-0.805458,0,0,1.02182,2108.88,-526.116)">
            <path d="M349.014,1231.4C347.905,1231.25 345.962,1231.62 345.598,1231.77C345.559,1231.9 346.063,1233.23 346.555,1235.14C347.578,1237.72 345.598,1239.47 338.421,1241.88C330.527,1244.55 323.864,1249.66 323.532,1256.94C323.325,1261.48 326.444,1265.99 331.662,1267.88C337.285,1269.91 345.108,1268.73 348.092,1263.97C349.956,1261 350.093,1257.21 348.35,1254.1C347.483,1252.56 344.384,1252.18 342.998,1253.6C341.773,1254.86 343.301,1256.49 343.138,1259.53C343.072,1260.74 342.619,1262.02 341.454,1262.87C336.951,1266.17 327.985,1261.57 330.266,1254.34C331.997,1248.85 340.85,1246.68 346.189,1244.6C350.957,1242.75 354.734,1238.32 352.488,1233.54C351.732,1231.93 349.686,1231.39 349.014,1231.4Z" style="fill:rgb(82,79,81);fill-rule:nonzero;"/>
        </g>
        <g transform="matrix(0.805458,0,0,1.02182,1592.87,-526.116)">
            <path d="M349.014,1231.4C347.905,1231.25 345.962,1231.62 345.598,1231.77C345.559,1231.9 346.063,1233.23 346.555,1235.14C347.578,1237.72 345.598,1239.47 338.421,1241.88C330.527,1244.55 323.864,1249.66 323.532,1256.94C323.325,1261.48 326.444,1265.99 331.662,1267.88C337.285,1269.91 345.108,1268.73 348.092,1263.97C349.956,1261 350.093,1257.21 348.35,1254.1C347.483,1252.56 344.384,1252.18 342.998,1253.6C341.773,1254.86 343.301,1256.49 343.138,1259.53C343.072,1260.74 342.619,1262.02 341.454,1262.87C336.951,1266.17 327.985,1261.57 330.266,1254.34C331.997,1248.85 340.85,1246.68 346.189,1244.6C350.957,1242.75 354.734,1238.32 352.488,1233.54C351.732,1231.93 349.686,1231.39 349.014,1231.4Z" style="fill:rgb(82,79,81);fill-rule:nonzero;"/>
        </g>
        <g transform="matrix(0.991988,0,0,0.991988,14.8249,6.87787)">
            <path d="M1904.53,822.165C1911.45,830.519 1915.49,840.286 1915.49,850.21C1915.49,876.904 1886.28,894.699 1850.31,894.699C1814.34,894.699 1785.13,876.904 1785.13,850.21C1785.13,840.286 1789.17,830.519 1796.09,822.165L1904.53,822.165Z" style="fill:rgb(164,49,47);"/>
            <clipPath id="_clip6">
                <path d="M1904.53,822.165C1911.45,830.519 1915.49,840.286 1915.49,850.21C1915.49,876.904 1886.28,894.699 1850.31,894.699C1814.34,894.699 1785.13,876.904 1785.13,850.21C1785.13,840.286 1789.17,830.519 1796.09,822.165L1904.53,822.165Z"/>
            </clipPath>
            <g clip-path="url(#_clip6)">
                <g transform="matrix(3.26731,-3.53493e-32,4.02727e-32,1.27054,-4196.6,9.29786)">
                    <rect x="1850.2" y="624.615" width="31.844" height="80.469" style="fill:rgb(151,43,43);"/>
                </g>
            </g>
        </g>
        <g transform="matrix(0.769418,0.638746,-0.755978,0.910632,1014.81,-1088.09)">
            <ellipse cx="1825.21" cy="819.368" rx="9.874" ry="15.619" style="fill:rgb(173,169,171);"/>
        </g>
    </g>
    <defs>
        <linearGradient id="_Linear3" x1="0" y1="0" x2="1" y2="0" gradientUnits="userSpaceOnUse" gradientTransform="matrix(-57.9063,3.42887e-15,-7.09148e-15,-27.9988,357.796,1177.46)"><stop offset="0" style="stop-color:rgb(67,67,67);stop-opacity:1"/><stop offset="1" style="stop-color:rgb(135,135,135);stop-opacity:1"/></linearGradient>
    </defs>
</svg>
