<?xml version="1.0" encoding="UTF-8" standalone="no"?>
<!DOCTYPE svg PUBLIC "-//W3C//DTD SVG 1.1//EN" "http://www.w3.org/Graphics/SVG/1.1/DTD/svg11.dtd">
<svg width="100%" height="100%" viewBox="0 0 512 512" version="1.1" xmlns="http://www.w3.org/2000/svg" xmlns:xlink="http://www.w3.org/1999/xlink" xml:space="preserve" xmlns:serif="http://www.serif.com/" style="fill-rule:evenodd;clip-rule:evenodd;stroke-linejoin:round;stroke-miterlimit:2;">
    <g id="PotionGreyIcon" transform="matrix(4.01458,0,0,4.88877,-630.857,-28386.8)">
        <g transform="matrix(1.191,0,0,0.978031,-1205.61,124.82)">
            <rect x="1186.28" y="5842.12" width="22.939" height="32.588" style="fill:rgb(166,176,192);"/>
            <clipPath id="_clip1">
                <rect x="1186.28" y="5842.12" width="22.939" height="32.588"/>
            </clipPath>
            <g clip-path="url(#_clip1)">
                <g transform="matrix(0.392156,0,0,0.496022,725.622,2927.78)">
                    <rect x="1203.58" y="5869.44" width="36.297" height="42.675" style="fill:rgb(135,144,162);"/>
                </g>
            </g>
        </g>
        <g transform="matrix(1.191,0,0,0.978031,-1212.72,124.82)">
            <path d="M1244.06,5886.59C1244.06,5870.72 1231.17,5857.83 1215.29,5857.83L1192.14,5857.83C1176.27,5857.83 1163.38,5870.72 1163.38,5886.59C1163.38,5902.47 1176.27,5915.36 1192.14,5915.36L1215.29,5915.36C1231.17,5915.36 1244.06,5902.47 1244.06,5886.59Z" style="fill:rgb(166,176,192);"/>
            <clipPath id="_clip2">
                <path d="M1244.06,5886.59C1244.06,5870.72 1231.17,5857.83 1215.29,5857.83L1192.14,5857.83C1176.27,5857.83 1163.38,5870.72 1163.38,5886.59C1163.38,5902.47 1176.27,5915.36 1192.14,5915.36L1215.29,5915.36C1231.17,5915.36 1244.06,5902.47 1244.06,5886.59Z"/>
            </clipPath>
            <g clip-path="url(#_clip2)">
                <g transform="matrix(1.22325,0,0,1.50908,-268.694,-3004.43)">
                    <rect x="1203.58" y="5869.44" width="36.297" height="42.675" style="fill:rgb(135,144,162);"/>
                </g>
            </g>
        </g>
        <g transform="matrix(0.951687,0,0,0.454328,-924.66,3215.82)">
            <path d="M1244.06,5857.83L1163.38,5857.83L1163.38,5906.72C1163.38,5911.49 1165.63,5915.36 1168.4,5915.36L1239.12,5915.36C1241.85,5915.36 1244.06,5911.56 1244.06,5906.87L1244.06,5857.83Z" style="fill:rgb(3,189,91);"/>
            <clipPath id="_clip3">
                <path d="M1244.06,5857.83L1163.38,5857.83L1163.38,5906.72C1163.38,5911.49 1165.63,5915.36 1168.4,5915.36L1239.12,5915.36C1241.85,5915.36 1244.06,5911.56 1244.06,5906.87L1244.06,5857.83Z"/>
            </clipPath>
            <g clip-path="url(#_clip3)">
                <g transform="matrix(1.25146,0,0,1.79897,-302.68,-4712.2)">
                    <rect x="1203.58" y="5869.44" width="36.297" height="42.675" style="fill:rgb(2,121,57);"/>
                </g>
            </g>
        </g>
        <g transform="matrix(1.191,0,0,0.978031,-1200.8,127.56)">
            <circle cx="1193.71" cy="5820.89" r="13.285" style="fill:rgb(195,164,129);"/>
            <clipPath id="_clip4">
                <circle cx="1193.71" cy="5820.89" r="13.285"/>
            </clipPath>
            <g clip-path="url(#_clip4)">
                <g transform="matrix(0.525032,0,0,0.734782,561.659,1493.18)">
                    <rect x="1203.58" y="5869.44" width="36.297" height="42.675" style="fill:rgb(161,112,71);"/>
                </g>
            </g>
        </g>
        <g transform="matrix(0.299539,0,0,0.245977,-143.851,4383.76)">
            <circle cx="1193.71" cy="5820.89" r="13.285" style="fill:white;"/>
        </g>
        <g transform="matrix(0.299539,0,0,0.245977,-163.918,4434.77)">
            <circle cx="1193.71" cy="5820.89" r="13.285" style="fill:white;"/>
        </g>
        <g transform="matrix(1.191,0,0,0.718141,-1203.84,1639.26)">
            <path d="M1216.87,5832.57C1216.87,5829.64 1215.12,5827.26 1212.97,5827.26L1179.55,5827.26C1177.4,5827.26 1175.65,5829.64 1175.65,5832.57L1175.65,5843.18C1175.65,5846.1 1177.4,5848.48 1179.55,5848.48L1212.97,5848.48C1215.12,5848.48 1216.87,5846.1 1216.87,5843.18L1216.87,5832.57Z" style="fill:rgb(187,194,207);"/>
            <clipPath id="_clip5">
                <path d="M1216.87,5832.57C1216.87,5829.64 1215.12,5827.26 1212.97,5827.26L1179.55,5827.26C1177.4,5827.26 1175.65,5829.64 1175.65,5832.57L1175.65,5843.18C1175.65,5846.1 1177.4,5848.48 1179.55,5848.48L1212.97,5848.48C1215.12,5848.48 1216.87,5846.1 1216.87,5843.18L1216.87,5832.57Z"/>
            </clipPath>
            <g clip-path="url(#_clip5)">
                <g transform="matrix(0.656641,0,0,0.805086,405.805,1100.49)">
                    <rect x="1203.58" y="5869.44" width="36.297" height="42.675" style="fill:rgb(135,144,162);fill-opacity:0.54;"/>
                </g>
                <g transform="matrix(1,0,0,1.36189,-7.45663,-2108.84)">
                    <path d="M1216.87,5825.55C1215.97,5832.01 1210.42,5836.98 1203.72,5836.98C1197.01,5836.98 1191.46,5832.01 1190.56,5825.55L1216.87,5825.55Z" style="fill:rgb(161,112,71);fill-opacity:0.25;"/>
                </g>
            </g>
        </g>
        <g transform="matrix(0.799524,0,0,0.215557,-735.529,4589.43)">
            <path d="M1216.87,5837.87C1216.87,5832.02 1215.31,5827.26 1213.38,5827.26L1179.13,5827.26C1177.21,5827.26 1175.65,5832.02 1175.65,5837.87C1175.65,5843.73 1177.21,5848.48 1179.13,5848.48L1213.38,5848.48C1215.31,5848.48 1216.87,5843.73 1216.87,5837.87Z" style="fill:rgb(90,87,89);"/>
            <clipPath id="_clip6">
                <path d="M1216.87,5837.87C1216.87,5832.02 1215.31,5827.26 1213.38,5827.26L1179.13,5827.26C1177.21,5827.26 1175.65,5832.02 1175.65,5837.87C1175.65,5843.73 1177.21,5848.48 1179.13,5848.48L1213.38,5848.48C1215.31,5848.48 1216.87,5843.73 1216.87,5837.87Z"/>
            </clipPath>
            <g clip-path="url(#_clip6)">
                <g transform="matrix(0.584169,0,0,0.777503,492.964,1263.27)">
                    <rect x="1203.58" y="5869.44" width="36.297" height="42.675" style="fill:rgb(66,63,65);"/>
                </g>
            </g>
        </g>
    </g>
</svg>
