<?xml version="1.0" encoding="UTF-8" standalone="no"?>
<!DOCTYPE svg PUBLIC "-//W3C//DTD SVG 1.1//EN" "http://www.w3.org/Graphics/SVG/1.1/DTD/svg11.dtd">
<svg width="100%" height="100%" viewBox="0 0 512 512" version="1.1" xmlns="http://www.w3.org/2000/svg" xmlns:xlink="http://www.w3.org/1999/xlink" xml:space="preserve" xmlns:serif="http://www.serif.com/" style="fill-rule:evenodd;clip-rule:evenodd;stroke-linejoin:round;stroke-miterlimit:2;">
    <g id="Potion-Round-Indigo" serif:id="Potion Round Indigo" transform="matrix(1.36424,0,0,1.36424,-523.565,-235.669)">
        <g transform="matrix(1.08837,0,0,1,-1111.93,-753.716)">
            <circle cx="1546.68" cy="1161.91" r="137.103" style="fill:rgb(179,196,212);"/>
            <clipPath id="_clip1">
                <circle cx="1546.68" cy="1161.91" r="137.103"/>
            </clipPath>
            <g clip-path="url(#_clip1)">
                <g transform="matrix(0.481131,0,0,1.08884,802.329,-74.4219)">
                    <rect x="1546.24" y="995.785" width="298.873" height="298.873" style="fill:rgb(155,176,198);"/>
                </g>
            </g>
        </g>
        <g transform="matrix(1,0,0,0.69677,-975.01,-465.73)">
            <rect x="1491.39" y="949.728" width="110.089" height="168.669" style="fill:rgb(179,196,212);"/>
            <clipPath id="_clip2">
                <rect x="1491.39" y="949.728" width="110.089" height="168.669"/>
            </clipPath>
            <g clip-path="url(#_clip2)">
                <g transform="matrix(0.523648,0,0,0.940138,736.552,-12.5229)">
                    <rect x="1546.24" y="995.785" width="298.873" height="298.873" style="fill:rgb(155,176,198);"/>
                </g>
            </g>
        </g>
        <g transform="matrix(0.938522,0,0,0.862319,-880.164,-593.743)">
            <circle cx="1546.68" cy="1161.91" r="137.103" style="fill:rgb(116,143,252);"/>
            <clipPath id="_clip3">
                <circle cx="1546.68" cy="1161.91" r="137.103"/>
            </clipPath>
            <g clip-path="url(#_clip3)">
                <g transform="matrix(0.51529,0,0,1.00598,749.447,13.4505)">
                    <rect x="1546.24" y="995.785" width="298.873" height="298.873" style="fill:rgb(59,91,219);"/>
                </g>
            </g>
        </g>
        <g transform="matrix(1,0,0,1,-973.833,-758.52)">
            <path d="M1617.43,948.84C1617.43,940.66 1610.79,934.018 1602.61,934.018L1487.91,934.018C1479.73,934.018 1473.09,940.66 1473.09,948.84L1473.09,978.483C1473.09,986.663 1479.73,993.305 1487.91,993.305L1602.61,993.305C1610.79,993.305 1617.43,986.663 1617.43,978.483L1617.43,948.84Z" style="fill:rgb(206,134,75);"/>
            <clipPath id="_clip4">
                <path d="M1617.43,948.84C1617.43,940.66 1610.79,934.018 1602.61,934.018L1487.91,934.018C1479.73,934.018 1473.09,940.66 1473.09,948.84L1473.09,978.483C1473.09,986.663 1479.73,993.305 1487.91,993.305L1602.61,993.305C1610.79,993.305 1617.43,986.663 1617.43,978.483L1617.43,948.84Z"/>
            </clipPath>
            <g clip-path="url(#_clip4)">
                <g transform="matrix(0.483611,0,0,0.246895,798.459,681.991)">
                    <rect x="1546.24" y="995.785" width="298.873" height="298.873" style="fill:rgb(182,110,55);"/>
                </g>
            </g>
        </g>
        <g transform="matrix(1,0,0,1,-975.25,-753.716)">
            <circle cx="1475.78" cy="1143.04" r="30.433" style="fill:rgb(255,245,245);"/>
        </g>
        <g>
            <g transform="matrix(1.26961,-0.733008,0.733008,1.26961,352.554,312.797)">
                <circle cx="170.804" cy="100.858" r="38.694" style="fill:rgb(64,192,105);"/>
                <clipPath id="_clip5">
                    <circle cx="170.804" cy="100.858" r="38.694"/>
                </clipPath>
                <g clip-path="url(#_clip5)">
                    <g transform="matrix(0.14759,0,0,0.304637,-57.5422,-245.519)">
                        <rect x="1546.24" y="995.785" width="298.873" height="298.873" style="fill:rgb(47,158,100);"/>
                    </g>
                </g>
                <g transform="matrix(1,0,0,1,2.20634,0)">
                    <circle cx="168.598" cy="78.097" r="8.777" style="fill:rgb(73,80,87);"/>
                </g>
            </g>
            <g transform="matrix(1.46602,0,0,1.46602,383.777,177.033)">
                <path d="M173.042,44.914C173.042,41.801 170.515,39.274 167.402,39.274L88.587,39.274C85.474,39.274 82.947,41.801 82.947,44.914C82.947,48.027 85.474,50.555 88.587,50.555L167.402,50.555C170.515,50.555 173.042,48.027 173.042,44.914Z" style="fill:rgb(64,192,105);"/>
                <clipPath id="_clip6">
                    <path d="M173.042,44.914C173.042,41.801 170.515,39.274 167.402,39.274L88.587,39.274C85.474,39.274 82.947,41.801 82.947,44.914C82.947,48.027 85.474,50.555 88.587,50.555L167.402,50.555C170.515,50.555 173.042,48.027 173.042,44.914Z"/>
                </clipPath>
                <g clip-path="url(#_clip6)">
                    <g transform="matrix(0.225284,0,0,0.0706419,-220.481,-38.6039)">
                        <rect x="1546.24" y="995.785" width="298.873" height="298.873" style="fill:rgb(47,158,100);"/>
                    </g>
                </g>
            </g>
            <g transform="matrix(1.26961,-0.733008,0.824713,1.42844,374.368,283.215)">
                <path d="M151.057,49.519C151.057,47.879 149.559,46.548 147.714,46.548C145.869,46.548 144.371,47.879 144.371,49.519L144.371,73.855C144.371,75.495 145.869,76.826 147.714,76.826C149.559,76.826 151.057,75.495 151.057,73.855L151.057,49.519Z" style="fill:rgb(47,158,100);"/>
            </g>
        </g>
    </g>
</svg>
