<?xml version="1.0" encoding="UTF-8" standalone="no"?>
<!DOCTYPE svg PUBLIC "-//W3C//DTD SVG 1.1//EN" "http://www.w3.org/Graphics/SVG/1.1/DTD/svg11.dtd">
<svg width="100%" height="100%" viewBox="0 0 512 512" version="1.1" xmlns="http://www.w3.org/2000/svg" xmlns:xlink="http://www.w3.org/1999/xlink" xml:space="preserve" xmlns:serif="http://www.serif.com/" style="fill-rule:evenodd;clip-rule:evenodd;stroke-linejoin:round;stroke-miterlimit:2;">
    <g id="Rainbow" transform="matrix(1.70565,0,0,1.70565,-1241.15,-904.435)">
        <g transform="matrix(1,0,0,1,-546.23,-81.3293)">
            <path d="M1351.59,796.53C1352.9,757.823 1384.74,726.802 1423.76,726.802C1462.79,726.802 1494.62,757.823 1495.94,796.53L1467.91,796.53C1466.62,773.283 1447.33,754.802 1423.76,754.802C1400.2,754.802 1380.91,773.283 1379.62,796.53L1351.59,796.53Z" style="fill:rgb(84,193,0);"/>
        </g>
        <g transform="matrix(1,0,0,1,-546.23,-81.3293)">
            <path d="M1325.13,796.53C1326.45,743.22 1370.14,700.352 1423.76,700.352C1477.39,700.352 1521.07,743.22 1522.4,796.53L1494.39,796.53C1493.07,758.676 1461.93,728.352 1423.76,728.352C1385.6,728.352 1354.46,758.676 1353.14,796.53L1325.13,796.53Z" style="fill:rgb(255,220,22);"/>
        </g>
        <g transform="matrix(1,0,0,1,-546.23,-81.3293)">
            <path d="M1300.24,796.53C1301.57,729.485 1356.41,675.466 1423.76,675.466C1491.12,675.466 1545.96,729.485 1547.29,796.53L1519.28,796.53C1517.96,744.939 1475.67,703.466 1423.76,703.466C1371.86,703.466 1329.57,744.939 1328.24,796.53L1300.24,796.53Z" style="fill:rgb(255,50,93);"/>
        </g>
        <g transform="matrix(1,0,0,1,-546.23,-81.3293)">
            <path d="M1467.91,796.53C1466.62,773.283 1447.33,754.802 1423.76,754.802C1400.2,754.802 1380.91,773.283 1379.62,796.53L1300.24,796.53C1301.57,729.485 1356.41,675.466 1423.76,675.466C1491.12,675.466 1545.96,729.485 1547.29,796.53L1467.91,796.53Z" style="fill:none;"/>
            <clipPath id="_clip1">
                <path d="M1467.91,796.53C1466.62,773.283 1447.33,754.802 1423.76,754.802C1400.2,754.802 1380.91,773.283 1379.62,796.53L1300.24,796.53C1301.57,729.485 1356.41,675.466 1423.76,675.466C1491.12,675.466 1545.96,729.485 1547.29,796.53L1467.91,796.53Z"/>
            </clipPath>
            <g clip-path="url(#_clip1)">
                <g id="Shadow" transform="matrix(5.10179,0,0,5.10179,-3531.46,-14808.1)">
                    <path d="M970,3061.5C970,3064.54 967.538,3067 964.5,3067C964.499,3067 964.498,3067 964.497,3067L964.497,3067L952.497,3067L952.497,3067C948.908,3067 946,3064.09 946,3060.5C946,3057.24 948.415,3054.56 951.552,3054.1C952.715,3051.12 955.607,3049 959,3049C963.289,3049 966.779,3052.38 966.981,3056.62C968.765,3057.53 970,3059.36 970,3061.5Z" style="fill:rgb(33,37,41);fill-opacity:0.32;"/>
                </g>
                <g id="Shadow1" serif:id="Shadow" transform="matrix(5.10179,0,0,5.10179,-3360.76,-14808.1)">
                    <path d="M970,3061.5C970,3064.54 967.538,3067 964.5,3067C964.499,3067 964.498,3067 964.497,3067L964.497,3067L952.497,3067L952.497,3067C948.908,3067 946,3064.09 946,3060.5C946,3057.24 948.415,3054.56 951.552,3054.1C952.715,3051.12 955.607,3049 959,3049C963.289,3049 966.779,3052.38 966.981,3056.62C968.765,3057.53 970,3059.36 970,3061.5Z" style="fill:rgb(33,37,41);fill-opacity:0.32;"/>
                </g>
            </g>
        </g>
        <g>
            <g id="Cloud" transform="matrix(5.10179,0,0,5.10179,-4095.1,-14880.6)">
                <path d="M970,3061.5C970,3064.54 967.538,3067 964.5,3067C964.499,3067 964.498,3067 964.497,3067L964.497,3067L952.497,3067L952.497,3067C948.908,3067 946,3064.09 946,3060.5C946,3057.24 948.415,3054.56 951.552,3054.1C952.715,3051.12 955.607,3049 959,3049C963.289,3049 966.779,3052.38 966.981,3056.62C968.765,3057.53 970,3059.36 970,3061.5Z" style="fill:white;"/>
            </g>
            <g id="Shadow2" serif:id="Shadow" transform="matrix(1,0,0,1,-546.23,-81.3293)">
                <path d="M1322.03,762.325C1328.31,758.356 1335.76,756.058 1343.74,756.058C1365.62,756.058 1383.43,773.289 1384.46,794.917C1393.56,799.554 1399.86,808.913 1399.86,819.829C1399.86,835.327 1387.3,847.89 1371.8,847.89C1371.8,847.89 1371.79,847.889 1371.79,847.889L1371.79,847.89L1338.22,847.89C1353.72,847.89 1366.28,835.956 1366.28,821.234C1366.28,810.865 1359.98,801.976 1350.88,797.57C1350.04,780.903 1338.16,766.984 1322.03,762.325ZM1338.22,847.89L1338.2,847.89L1338.2,847.889L1338.22,847.89Z" style="fill:rgb(158,230,248);"/>
            </g>
        </g>
        <g transform="matrix(1,0,0,1,170.701,0)">
            <g id="Cloud1" serif:id="Cloud" transform="matrix(5.10179,0,0,5.10179,-4095.1,-14880.6)">
                <path d="M970,3061.5C970,3064.54 967.538,3067 964.5,3067C964.499,3067 964.498,3067 964.497,3067L964.497,3067L952.497,3067L952.497,3067C948.908,3067 946,3064.09 946,3060.5C946,3057.24 948.415,3054.56 951.552,3054.1C952.715,3051.12 955.607,3049 959,3049C963.289,3049 966.779,3052.38 966.981,3056.62C968.765,3057.53 970,3059.36 970,3061.5Z" style="fill:white;"/>
            </g>
            <g id="Shadow3" serif:id="Shadow" transform="matrix(1,0,0,1,-546.23,-81.3293)">
                <path d="M1322.03,762.325C1328.31,758.356 1335.76,756.058 1343.74,756.058C1365.62,756.058 1383.43,773.289 1384.46,794.917C1393.56,799.554 1399.86,808.913 1399.86,819.829C1399.86,835.327 1387.3,847.89 1371.8,847.89C1371.8,847.89 1371.79,847.889 1371.79,847.889L1371.79,847.89L1338.22,847.89C1353.72,847.89 1366.28,835.956 1366.28,821.234C1366.28,810.865 1359.98,801.976 1350.88,797.57C1350.04,780.903 1338.16,766.984 1322.03,762.325ZM1338.22,847.89L1338.2,847.89L1338.2,847.889L1338.22,847.89Z" style="fill:rgb(158,230,248);"/>
            </g>
        </g>
    </g>
</svg>
