<?xml version="1.0" encoding="UTF-8" standalone="no"?>
<!DOCTYPE svg PUBLIC "-//W3C//DTD SVG 1.1//EN" "http://www.w3.org/Graphics/SVG/1.1/DTD/svg11.dtd">
<svg width="100%" height="100%" viewBox="0 0 512 512" version="1.1" xmlns="http://www.w3.org/2000/svg" xmlns:xlink="http://www.w3.org/1999/xlink" xml:space="preserve" xmlns:serif="http://www.serif.com/" style="fill-rule:evenodd;clip-rule:evenodd;stroke-linejoin:round;stroke-miterlimit:2;">
    <g id="Rainbow--All-Colors-" serif:id="Rainbow (All Colors)" transform="matrix(1.31304,0,0,1.31304,-1652.1,-665.715)">
        <g transform="matrix(1.18904,0,0,1.18904,-347.289,616.649)">
            <g transform="matrix(0.750427,0,0,0.750427,-33.4428,-46.785)">
                <path d="M1871.89,252.32L1871.89,207.276C1871.89,106.404 1953.79,24.508 2054.66,24.508C2155.53,24.508 2237.43,106.404 2237.43,207.276L2237.43,252.32L2209.43,252.32L2209.43,207.276C2209.43,121.857 2140.08,52.508 2054.66,52.508C1969.24,52.508 1899.89,121.857 1899.89,207.276L1899.89,252.32L1871.89,252.32Z" style="fill:rgb(255,50,93);"/>
            </g>
            <g transform="matrix(0.750427,0,0,0.750427,-33.4428,-46.4752)">
                <path d="M1899.27,252.32L1899.27,206.901C1899.27,121.136 1968.89,51.506 2054.66,51.506C2140.43,51.506 2210.05,121.136 2210.05,206.901L2210.05,252.32L2182.05,252.32L2182.05,206.901C2182.05,136.59 2124.97,79.506 2054.66,79.506C1984.35,79.506 1927.27,136.59 1927.27,206.901L1927.27,252.32L1899.27,252.32Z" style="fill:rgb(255,239,54);"/>
            </g>
            <g transform="matrix(0.750427,0,0,0.750427,-33.4428,-46.5461)">
                <path d="M1925.85,252.32L1925.85,207.922C1925.85,136.828 1983.57,79.109 2054.66,79.109C2125.75,79.109 2183.47,136.828 2183.47,207.922L2183.47,252.32L2155.47,252.32L2155.47,207.922C2155.47,152.282 2110.3,107.109 2054.66,107.109C1999.02,107.109 1953.85,152.282 1953.85,207.922L1953.85,252.32L1925.85,252.32Z" style="fill:rgb(16,229,27);"/>
            </g>
            <g transform="matrix(0.750427,0,0,0.750427,-33.4428,-46.894)">
                <path d="M1951.69,252.32L1951.69,209.993C1951.69,153.165 1997.83,107.028 2054.66,107.028C2111.49,107.028 2157.63,153.165 2157.63,209.993L2157.63,252.32L2129.63,252.32L2129.63,209.993C2129.63,168.619 2096.03,135.028 2054.66,135.028C2013.29,135.028 1979.69,168.619 1979.69,209.993L1979.69,252.32L1951.69,252.32Z" style="fill:rgb(0,144,255);"/>
            </g>
            <g transform="matrix(0.750427,0,0,0.750427,-33.4428,-46.643)">
                <path d="M1975.23,252.32L1975.23,213.763C1975.23,169.926 2010.82,134.336 2054.66,134.336C2098.5,134.336 2134.09,169.926 2134.09,213.763L2134.09,252.32L2106.09,252.32L2106.09,213.763C2106.09,185.38 2083.04,162.336 2054.66,162.336C2026.28,162.336 2003.23,185.38 2003.23,213.763L2003.23,252.32L1975.23,252.32Z" style="fill:rgb(164,58,254);"/>
            </g>
        </g>
        <g transform="matrix(1,0,0,1,-546.23,-81.3293)">
            <path d="M1853.87,867.491L1829.44,867.491L1829.44,827.299C1829.44,737.292 1902.51,664.217 1992.52,664.217C2082.53,664.217 2155.6,737.292 2155.6,827.299L2155.6,867.491L2131.18,867.491L2131.18,867.86L2106.19,867.86L2106.19,867.775L2082.48,867.775L2082.48,867.362L2063.39,867.362L2063.39,867.66L2038.41,867.66L2038.41,833.256C2038.41,807.93 2017.85,787.369 1992.52,787.369C1967.2,787.369 1946.63,807.93 1946.63,833.256L1946.63,867.66L1921.65,867.66L1921.65,867.362L1902.57,867.362L1902.57,867.775L1878.85,867.775L1878.85,867.86L1853.87,867.86L1853.87,867.491Z" style="fill:none;"/>
            <clipPath id="_clip1">
                <path d="M1853.87,867.491L1829.44,867.491L1829.44,827.299C1829.44,737.292 1902.51,664.217 1992.52,664.217C2082.53,664.217 2155.6,737.292 2155.6,827.299L2155.6,867.491L2131.18,867.491L2131.18,867.86L2106.19,867.86L2106.19,867.775L2082.48,867.775L2082.48,867.362L2063.39,867.362L2063.39,867.66L2038.41,867.66L2038.41,833.256C2038.41,807.93 2017.85,787.369 1992.52,787.369C1967.2,787.369 1946.63,807.93 1946.63,833.256L1946.63,867.66L1921.65,867.66L1921.65,867.362L1902.57,867.362L1902.57,867.775L1878.85,867.775L1878.85,867.86L1853.87,867.86L1853.87,867.491Z"/>
            </clipPath>
            <g clip-path="url(#_clip1)">
                <g id="Cloud" transform="matrix(6.62727,0,0,6.62727,-4450.34,-19440.2)">
                    <path d="M970,3061.5C970,3064.54 967.538,3067 964.5,3067C964.499,3067 964.498,3067 964.497,3067L964.497,3067L952.497,3067L952.497,3067C948.908,3067 946,3064.09 946,3060.5C946,3057.24 948.415,3054.56 951.552,3054.1C952.715,3051.12 955.607,3049 959,3049C963.289,3049 966.779,3052.38 966.981,3056.62C968.765,3057.53 970,3059.36 970,3061.5Z" style="fill:rgb(33,37,41);fill-opacity:0.31;"/>
                </g>
                <g id="Cloud1" serif:id="Cloud" transform="matrix(6.62727,0,0,6.62727,-4228.59,-19440.2)">
                    <path d="M970,3061.5C970,3064.54 967.538,3067 964.5,3067C964.499,3067 964.498,3067 964.497,3067L964.497,3067L952.497,3067L952.497,3067C948.908,3067 946,3064.09 946,3060.5C946,3057.24 948.415,3054.56 951.552,3054.1C952.715,3051.12 955.607,3049 959,3049C963.289,3049 966.779,3052.38 966.981,3056.62C968.765,3057.53 970,3059.36 970,3061.5Z" style="fill:rgb(33,37,41);fill-opacity:0.31;"/>
                </g>
            </g>
        </g>
        <g transform="matrix(1.29901,0,0,1.29901,312.973,-174.714)">
            <g id="Cloud2" serif:id="Cloud" transform="matrix(5.10179,0,0,5.10179,-4095.1,-14880.6)">
                <path d="M970,3061.5C970,3064.54 967.538,3067 964.5,3067C964.499,3067 964.498,3067 964.497,3067L964.497,3067L952.497,3067L952.497,3067C948.908,3067 946,3064.09 946,3060.5C946,3057.24 948.415,3054.56 951.552,3054.1C952.715,3051.12 955.607,3049 959,3049C963.289,3049 966.779,3052.38 966.981,3056.62C968.765,3057.53 970,3059.36 970,3061.5Z" style="fill:white;"/>
            </g>
            <g id="Shadow" transform="matrix(1,0,0,1,-546.23,-81.3293)">
                <path d="M1322.03,762.325C1328.31,758.356 1335.76,756.058 1343.74,756.058C1365.62,756.058 1383.43,773.289 1384.46,794.917C1393.56,799.554 1399.86,808.913 1399.86,819.829C1399.86,835.327 1387.3,847.89 1371.8,847.89C1371.8,847.89 1371.79,847.889 1371.79,847.889L1371.79,847.89L1338.22,847.89C1353.72,847.89 1366.28,835.956 1366.28,821.234C1366.28,810.865 1359.98,801.976 1350.88,797.57C1350.04,780.903 1338.16,766.984 1322.03,762.325ZM1338.22,847.89L1338.2,847.89L1338.2,847.889L1338.22,847.89Z" style="fill:rgb(158,230,248);"/>
            </g>
        </g>
        <g transform="matrix(1.29901,0,0,1.29901,534.715,-174.714)">
            <g id="Cloud3" serif:id="Cloud" transform="matrix(5.10179,0,0,5.10179,-4095.1,-14880.6)">
                <path d="M970,3061.5C970,3064.54 967.538,3067 964.5,3067C964.499,3067 964.498,3067 964.497,3067L964.497,3067L952.497,3067L952.497,3067C948.908,3067 946,3064.09 946,3060.5C946,3057.24 948.415,3054.56 951.552,3054.1C952.715,3051.12 955.607,3049 959,3049C963.289,3049 966.779,3052.38 966.981,3056.62C968.765,3057.53 970,3059.36 970,3061.5Z" style="fill:white;"/>
            </g>
            <g id="Shadow1" serif:id="Shadow" transform="matrix(1,0,0,1,-546.23,-81.3293)">
                <path d="M1322.03,762.325C1328.31,758.356 1335.76,756.058 1343.74,756.058C1365.62,756.058 1383.43,773.289 1384.46,794.917C1393.56,799.554 1399.86,808.913 1399.86,819.829C1399.86,835.327 1387.3,847.89 1371.8,847.89C1371.8,847.89 1371.79,847.889 1371.79,847.889L1371.79,847.89L1338.22,847.89C1353.72,847.89 1366.28,835.956 1366.28,821.234C1366.28,810.865 1359.98,801.976 1350.88,797.57C1350.04,780.903 1338.16,766.984 1322.03,762.325ZM1338.22,847.89L1338.2,847.89L1338.2,847.889L1338.22,847.89Z" style="fill:rgb(158,230,248);"/>
            </g>
        </g>
    </g>
</svg>
