<?xml version="1.0" encoding="UTF-8" standalone="no"?>
<!DOCTYPE svg PUBLIC "-//W3C//DTD SVG 1.1//EN" "http://www.w3.org/Graphics/SVG/1.1/DTD/svg11.dtd">
<svg width="100%" height="100%" viewBox="0 0 512 512" version="1.1" xmlns="http://www.w3.org/2000/svg" xmlns:xlink="http://www.w3.org/1999/xlink" xml:space="preserve" xmlns:serif="http://www.serif.com/" style="fill-rule:evenodd;clip-rule:evenodd;stroke-linejoin:round;stroke-miterlimit:2;">
    <g id="RainbowIcon" transform="matrix(5.48671,0,0,5.48671,-4684.97,-3478.62)">
        <g transform="matrix(1,0,0,1.11107,0.413122,-76.7182)">
            <rect x="862.769" y="658.673" width="74.703" height="32.066" style="fill:none;"/>
            <clipPath id="_clip1">
                <rect x="862.769" y="658.673" width="74.703" height="32.066"/>
            </clipPath>
            <g clip-path="url(#_clip1)">
                <g transform="matrix(1,0,0,0.900036,0.367188,69.0491)">
                    <g transform="matrix(0.861356,0,0,1,121.259,0)">
                        <rect x="857.585" y="653.818" width="92.433" height="39.699" style="fill:none;"/>
                    </g>
                    <g transform="matrix(1.26667,0,0,1.26667,-239.819,-184.948)">
                        <path d="M928.863,693.55C928.863,677.231 915.633,664.002 899.314,664.002C883.396,664.002 870.339,676.611 869.784,692.519L876.571,692.756C876.999,680.504 887.055,670.794 899.314,670.794C911.882,670.794 922.071,680.982 922.071,693.55L928.863,693.55Z" style="fill:rgb(255,90,78);"/>
                    </g>
                    <g transform="matrix(1.11683,0,0,1.11683,-105.071,-81.0304)">
                        <path d="M928.863,693.55C928.863,677.231 915.633,664.002 899.314,664.002C883.396,664.002 870.339,676.611 869.784,692.519L876.571,692.756C876.999,680.504 887.055,670.794 899.314,670.794C911.882,670.794 922.071,680.982 922.071,693.55L928.863,693.55Z" style="fill:rgb(255,200,60);"/>
                    </g>
                    <g transform="matrix(0.932887,0,0,0.932887,60.3553,45.5723)">
                        <path d="M928.863,693.55C928.863,677.231 915.633,664.002 899.314,664.002C883.396,664.002 870.339,676.611 869.784,692.519L876.571,692.756C876.999,680.504 887.055,670.794 899.314,670.794C911.882,670.794 922.071,680.982 922.071,693.55L928.863,693.55Z" style="fill:rgb(131,185,10);"/>
                    </g>
                    <g transform="matrix(0.775548,0,0,0.775548,201.853,154.447)">
                        <path d="M928.863,693.55C928.863,677.231 915.633,664.002 899.314,664.002C883.396,664.002 870.339,676.611 869.784,692.519L876.571,692.756C876.999,680.504 887.055,670.794 899.314,670.794C911.882,670.794 922.071,680.982 922.071,693.55L928.863,693.55Z" style="fill:rgb(0,215,240);"/>
                    </g>
                    <g transform="matrix(0.617247,0,0,0.617247,344.215,264.058)">
                        <path d="M928.863,693.55C928.863,677.231 915.633,664.002 899.314,664.002C883.396,664.002 870.339,676.611 869.784,692.519L876.892,692.767C877.314,680.688 887.228,671.115 899.314,671.115C911.705,671.115 921.749,681.159 921.749,693.55L928.863,693.55Z" style="fill:rgb(108,145,232);"/>
                    </g>
                </g>
            </g>
        </g>
        <g transform="matrix(1,0,0,1,0,1.33327)">
            <g transform="matrix(1.2628,0,0,1.2628,-5514.27,-3451.22)">
                <path d="M5060.53,3288.8C5058.69,3290.24 5056.17,3291.14 5053.38,3291.14C5047.77,3291.14 5043.21,3287.51 5043.21,3283.04C5043.21,3278.58 5047.77,3274.95 5053.38,3274.95C5057.06,3274.95 5060.28,3276.51 5062.07,3278.84C5063.47,3278.04 5065.19,3277.57 5067.04,3277.57C5071.77,3277.57 5075.6,3280.62 5075.6,3284.38C5075.6,3288.14 5071.77,3291.19 5067.04,3291.19C5064.44,3291.19 5062.1,3290.26 5060.53,3288.8Z" style="fill:rgb(141,225,225);"/>
                <clipPath id="_clip2">
                    <path d="M5060.53,3288.8C5058.69,3290.24 5056.17,3291.14 5053.38,3291.14C5047.77,3291.14 5043.21,3287.51 5043.21,3283.04C5043.21,3278.58 5047.77,3274.95 5053.38,3274.95C5057.06,3274.95 5060.28,3276.51 5062.07,3278.84C5063.47,3278.04 5065.19,3277.57 5067.04,3277.57C5071.77,3277.57 5075.6,3280.62 5075.6,3284.38C5075.6,3288.14 5071.77,3291.19 5067.04,3291.19C5064.44,3291.19 5062.1,3290.26 5060.53,3288.8Z"/>
                </clipPath>
                <g clip-path="url(#_clip2)">
                    <g transform="matrix(0.429301,0,0,0.583275,4685.95,2789.44)">
                        <ellipse cx="860.309" cy="838.162" rx="21.458" ry="12.526" style="fill:white;"/>
                    </g>
                    <g transform="matrix(0.429301,0,0,0.583275,4699.66,2792.44)">
                        <ellipse cx="860.309" cy="838.162" rx="21.458" ry="12.526" style="fill:white;"/>
                    </g>
                </g>
            </g>
            <g transform="matrix(-1.2628,0,0,1.2628,7315.34,-3451.22)">
                <path d="M5060.53,3288.8C5058.69,3290.24 5056.17,3291.14 5053.38,3291.14C5047.77,3291.14 5043.21,3287.51 5043.21,3283.04C5043.21,3278.58 5047.77,3274.95 5053.38,3274.95C5057.06,3274.95 5060.28,3276.51 5062.07,3278.84C5063.47,3278.04 5065.19,3277.57 5067.04,3277.57C5071.77,3277.57 5075.6,3280.62 5075.6,3284.38C5075.6,3288.14 5071.77,3291.19 5067.04,3291.19C5064.44,3291.19 5062.1,3290.26 5060.53,3288.8Z" style="fill:rgb(141,225,225);"/>
                <clipPath id="_clip3">
                    <path d="M5060.53,3288.8C5058.69,3290.24 5056.17,3291.14 5053.38,3291.14C5047.77,3291.14 5043.21,3287.51 5043.21,3283.04C5043.21,3278.58 5047.77,3274.95 5053.38,3274.95C5057.06,3274.95 5060.28,3276.51 5062.07,3278.84C5063.47,3278.04 5065.19,3277.57 5067.04,3277.57C5071.77,3277.57 5075.6,3280.62 5075.6,3284.38C5075.6,3288.14 5071.77,3291.19 5067.04,3291.19C5064.44,3291.19 5062.1,3290.26 5060.53,3288.8Z"/>
                </clipPath>
                <g clip-path="url(#_clip3)">
                    <g transform="matrix(0.429301,0,0,0.583275,4685.95,2789.44)">
                        <ellipse cx="860.309" cy="838.162" rx="21.458" ry="12.526" style="fill:white;"/>
                    </g>
                    <g transform="matrix(0.429301,0,0,0.583275,4699.66,2792.44)">
                        <ellipse cx="860.309" cy="838.162" rx="21.458" ry="12.526" style="fill:white;"/>
                    </g>
                </g>
            </g>
        </g>
    </g>
</svg>
