<?xml version="1.0" encoding="UTF-8" standalone="no"?>
<!DOCTYPE svg PUBLIC "-//W3C//DTD SVG 1.1//EN" "http://www.w3.org/Graphics/SVG/1.1/DTD/svg11.dtd">
<svg width="100%" height="100%" viewBox="0 0 512 512" version="1.1" xmlns="http://www.w3.org/2000/svg" xmlns:xlink="http://www.w3.org/1999/xlink" xml:space="preserve" xmlns:serif="http://www.serif.com/" style="fill-rule:evenodd;clip-rule:evenodd;stroke-linejoin:round;stroke-miterlimit:2;">
    <g id="Ranking" transform="matrix(2.82786,0,0,2.82786,-3408.42,-1543.63)">
        <g transform="matrix(1,0,0,1,5.9891,0)">
            <g transform="matrix(1,0,0,0.838245,-301.161,52.9714)">
                <path d="M1559,704.843C1559,696.905 1553.6,690.46 1546.94,690.46L1522.83,690.46C1516.17,690.46 1510.77,696.905 1510.77,704.843L1510.77,776.355C1510.77,784.293 1516.17,790.738 1522.83,790.738L1546.94,790.738C1553.6,790.738 1559,784.293 1559,776.355L1559,704.843Z" style="fill:rgb(206,212,218);"/>
            </g>
            <g transform="matrix(1,0,0,1.17519,-301.161,-218.493)">
                <path d="M1559,700.719C1559,695.057 1553.6,690.46 1546.94,690.46L1522.83,690.46C1516.17,690.46 1510.77,695.057 1510.77,700.719L1510.77,780.479C1510.77,786.141 1516.17,790.738 1522.83,790.738L1546.94,790.738C1553.6,790.738 1559,786.141 1559,780.479L1559,700.719Z" style="fill:rgb(233,236,239);"/>
            </g>
            <g transform="matrix(3.36018,0,0,3.36018,-4731.15,-1849.51)">
                <text x="1772.28px" y="737.863px" style="font-family:'Jellee-Roman', 'Jellee';font-size:9.523px;fill:rgb(67,84,111);">2</text>
            </g>
        </g>
        <g transform="matrix(1,0,0,1,-0.97362,0)">
            <g transform="matrix(1,0,0,1.09394,-238.083,-149.22)">
                <path d="M1559,701.481C1559,695.398 1553.6,690.46 1546.94,690.46L1522.83,690.46C1516.17,690.46 1510.77,695.398 1510.77,701.481L1510.77,779.717C1510.77,785.8 1516.17,790.738 1522.83,790.738L1546.94,790.738C1553.6,790.738 1559,785.8 1559,779.717L1559,701.481Z" style="fill:rgb(252,196,25);"/>
            </g>
            <g transform="matrix(1,0,0,1.53367,-238.083,-501.959)">
                <path d="M1559,698.321C1559,693.982 1553.6,690.46 1546.94,690.46L1522.83,690.46C1516.17,690.46 1510.77,693.982 1510.77,698.321L1510.77,782.877C1510.77,787.216 1516.17,790.738 1522.83,790.738L1546.94,790.738C1553.6,790.738 1559,787.216 1559,782.877L1559,698.321Z" style="fill:rgb(255,236,153);"/>
            </g>
            <g transform="matrix(3.36018,0,0,3.36018,-4665.46,-1887.88)">
                <text x="1772.28px" y="737.863px" style="font-family:'Jellee-Roman', 'Jellee';font-size:9.523px;fill:rgb(250,176,5);">1</text>
            </g>
        </g>
        <g transform="matrix(1,0,0,1,-7.93634,0)">
            <g transform="matrix(1,0,0,0.547127,-175.004,283.17)">
                <path d="M1559,712.497C1559,700.334 1553.6,690.46 1546.94,690.46L1522.83,690.46C1516.17,690.46 1510.77,700.334 1510.77,712.497L1510.77,768.702C1510.77,780.864 1516.17,790.738 1522.83,790.738L1546.94,790.738C1553.6,790.738 1559,780.864 1559,768.702L1559,712.497Z" style="fill:rgb(255,146,43);"/>
            </g>
            <g transform="matrix(1,0,0,0.767052,-175.004,104.236)">
                <path d="M1559,706.178C1559,697.503 1553.6,690.46 1546.94,690.46L1522.83,690.46C1516.17,690.46 1510.77,697.503 1510.77,706.178L1510.77,775.02C1510.77,783.695 1516.17,790.738 1522.83,790.738L1546.94,790.738C1553.6,790.738 1559,783.695 1559,775.02L1559,706.178Z" style="fill:rgb(255,192,120);"/>
            </g>
            <g transform="matrix(3.36018,0,0,3.36018,-4604.96,-1811.99)">
                <text x="1772.28px" y="737.863px" style="font-family:'Jellee-Roman', 'Jellee';font-size:9.523px;fill:rgb(247,103,7);">3</text>
            </g>
        </g>
    </g>
</svg>
