<?xml version="1.0" encoding="UTF-8" standalone="no"?>
<!DOCTYPE svg PUBLIC "-//W3C//DTD SVG 1.1//EN" "http://www.w3.org/Graphics/SVG/1.1/DTD/svg11.dtd">
<svg width="100%" height="100%" viewBox="0 0 512 512" version="1.1" xmlns="http://www.w3.org/2000/svg" xmlns:xlink="http://www.w3.org/1999/xlink" xml:space="preserve" xmlns:serif="http://www.serif.com/" style="fill-rule:evenodd;clip-rule:evenodd;stroke-linejoin:round;stroke-miterlimit:2;">
    <g id="RingIcon" transform="matrix(3.24512,0,0,3.24512,-4314.8,-2970.01)">
        <g id="icon-diamond" transform="matrix(0.404642,1.13637e-16,-1.13637e-16,0.404642,1388.08,939.837)">
            <g transform="matrix(1,1.23194e-16,1.23194e-16,2.00596,0,-23.1174)">
                <path d="M17.53,0L0.5,22.981C12.898,24.083 24.893,24.812 34.124,22.981C34.114,13.968 28.188,6.404 17.53,0Z" style="fill:rgb(51,201,255);fill-rule:nonzero;"/>
            </g>
            <g transform="matrix(1,1.2596e-16,1.32947e-16,1.97182,-1.12401e-16,-22.3329)">
                <path d="M50.923,0.039C40.763,6.612 34.961,14.212 34.117,22.981C45.381,24.285 56.537,24.878 67.313,22.981C68.979,13.782 63.296,6.182 50.923,0.039Z" style="fill:rgb(0,170,227);fill-rule:nonzero;"/>
            </g>
            <g transform="matrix(1,1.23194e-16,1.23194e-16,2.00596,0,-23.1174)">
                <path d="M84.343,0.442C76.192,6.787 68.612,13.401 67.313,22.981C78.468,24.76 89.489,23.973 100.5,22.981L84.343,0.442Z" style="fill:rgb(15,134,198);fill-rule:nonzero;"/>
            </g>
            <g transform="matrix(1,1.23194e-16,1.23194e-16,2.00596,0,-23.1174)">
                <path d="M67.313,22.981L84.343,0.442L50.924,0.442L67.313,22.981Z" style="fill:rgb(63,207,255);fill-rule:nonzero;"/>
            </g>
            <g transform="matrix(1,1.23194e-16,1.23194e-16,2.00596,0,-23.1174)">
                <path d="M34.124,22.981L50.931,0.442L17.53,0.442L34.124,22.981Z" style="fill:rgb(105,217,255);fill-rule:nonzero;"/>
            </g>
            <path d="M0.5,22.981L51.644,79.997C51.368,59.23 46.997,39.759 34.124,22.981L0.5,22.981Z" style="fill:rgb(104,222,255);fill-rule:nonzero;"/>
            <path d="M34.124,22.981L51.641,80C60.905,61.906 67.674,43.249 67.313,22.981L34.124,22.981Z" style="fill:rgb(60,196,246);fill-rule:nonzero;"/>
            <path d="M100.5,22.981L51.641,79.989L67.313,22.981L100.5,22.981Z" style="fill:rgb(38,155,218);fill-rule:nonzero;"/>
        </g>
        <g transform="matrix(1,0,0,1,617.51,431.08)">
            <path d="M762.958,496.038L764.46,500.096L768.518,501.597L764.46,503.099L762.958,507.157L761.457,503.099L757.399,501.597L761.457,500.096L762.958,496.038Z" style="fill:rgb(104,222,255);"/>
        </g>
        <g transform="matrix(0.441487,0,0,0.441487,1099.1,717.096)">
            <path d="M762.958,496.038L764.46,500.096L768.518,501.597L764.46,503.099L762.958,507.157L761.457,503.099L757.399,501.597L761.457,500.096L762.958,496.038Z" style="fill:rgb(104,222,255);"/>
        </g>
        <g transform="matrix(0.840491,0,0,0.840491,768.474,500.733)">
            <path d="M762.958,496.038L764.46,500.096L768.518,501.597L764.46,503.099L762.958,507.157L761.457,503.099L757.399,501.597L761.457,500.096L762.958,496.038Z" style="fill:rgb(104,222,255);"/>
        </g>
        <g transform="matrix(1,0,0,1.30425,-3.32446,-291.196)">
            <path d="M1429.21,960.39C1429.21,958.569 1427.28,957.091 1424.9,957.091L1398.77,957.091C1396.4,957.091 1394.47,958.569 1394.47,960.39L1394.47,966.989C1394.47,968.81 1396.4,970.288 1398.77,970.288L1424.9,970.288C1427.28,970.288 1429.21,968.81 1429.21,966.989L1429.21,960.39Z" style="fill:rgb(255,225,89);"/>
        </g>
        <path d="M1408.52,964.115C1437.89,964.115 1461.75,987.967 1461.75,1017.35C1461.75,1046.72 1437.89,1070.58 1408.52,1070.58C1379.14,1070.58 1355.28,1046.72 1355.28,1017.35C1355.28,987.967 1379.14,964.115 1408.52,964.115ZM1408.52,976.72C1430.94,976.72 1449.14,994.924 1449.14,1017.35C1449.14,1039.77 1430.94,1057.97 1408.52,1057.97C1386.09,1057.97 1367.89,1039.77 1367.89,1017.35C1367.89,994.924 1386.09,976.72 1408.52,976.72Z" style="fill:rgb(255,225,89);"/>
        <clipPath id="_clip1">
            <path d="M1408.52,964.115C1437.89,964.115 1461.75,987.967 1461.75,1017.35C1461.75,1046.72 1437.89,1070.58 1408.52,1070.58C1379.14,1070.58 1355.28,1046.72 1355.28,1017.35C1355.28,987.967 1379.14,964.115 1408.52,964.115ZM1408.52,976.72C1430.94,976.72 1449.14,994.924 1449.14,1017.35C1449.14,1039.77 1430.94,1057.97 1408.52,1057.97C1386.09,1057.97 1367.89,1039.77 1367.89,1017.35C1367.89,994.924 1386.09,976.72 1408.52,976.72Z"/>
        </clipPath>
        <g clip-path="url(#_clip1)">
            <g transform="matrix(0.881432,0,0,0.881432,167.005,120.625)">
                <path d="M1408.52,964.115C1437.89,964.115 1461.75,987.967 1461.75,1017.35C1461.75,1046.72 1437.89,1070.58 1408.52,1070.58C1379.14,1070.58 1355.28,1046.72 1355.28,1017.35C1355.28,987.967 1379.14,964.115 1408.52,964.115ZM1408.52,976.72C1430.94,976.72 1449.14,994.924 1449.14,1017.35C1449.14,1039.77 1430.94,1057.97 1408.52,1057.97C1386.09,1057.97 1367.89,1039.77 1367.89,1017.35C1367.89,994.924 1386.09,976.72 1408.52,976.72Z" style="fill:rgb(255,200,60);"/>
            </g>
        </g>
    </g>
</svg>
