<?xml version="1.0" encoding="UTF-8" standalone="no"?>
<!DOCTYPE svg PUBLIC "-//W3C//DTD SVG 1.1//EN" "http://www.w3.org/Graphics/SVG/1.1/DTD/svg11.dtd">
<svg width="100%" height="100%" viewBox="0 0 512 512" version="1.1" xmlns="http://www.w3.org/2000/svg" xmlns:xlink="http://www.w3.org/1999/xlink" xml:space="preserve" xmlns:serif="http://www.serif.com/" style="fill-rule:evenodd;clip-rule:evenodd;stroke-linejoin:round;stroke-miterlimit:2;">
    <g id="Shield-Gray---Purple" serif:id="Shield Gray - Purple" transform="matrix(2.38795,0,0,2.24363,-357.333,-1902.7)">
        <g transform="matrix(0.658256,0,0,0.700596,195.868,897.263)">
            <path d="M197.935,146.691C227.786,146.691 252.021,170.927 252.021,200.778C252.021,230.629 227.786,254.864 197.935,254.864C168.084,254.864 143.848,230.629 143.848,200.778C143.848,170.927 168.084,146.691 197.935,146.691ZM197.935,162.214C219.219,162.214 236.499,179.494 236.499,200.778C236.499,222.062 219.219,239.342 197.935,239.342C176.651,239.342 159.371,222.062 159.371,200.778C159.371,179.494 176.651,162.214 197.935,162.214Z" style="fill:url(#_Linear1);"/>
        </g>
        <path d="M255.618,851.49C256.414,851.189 257.283,851.189 258.079,851.49C267.855,855.185 332.908,879.772 345.727,884.618C347.069,885.124 348.015,886.41 348.156,887.917C359.259,1006.56 326.898,1059.54 256.861,1073.25L256.861,1073.26L256.845,1073.26L256.829,1073.26L256.829,1073.25C186.793,1059.54 154.432,1006.56 165.535,887.917C165.676,886.41 166.622,885.125 167.963,884.618C180.783,879.772 245.842,855.185 255.618,851.49Z" style="fill:url(#_Linear2);"/>
        <clipPath id="_clip3">
            <path d="M255.618,851.49C256.414,851.189 257.283,851.189 258.079,851.49C267.855,855.185 332.908,879.772 345.727,884.618C347.069,885.124 348.015,886.41 348.156,887.917C359.259,1006.56 326.898,1059.54 256.861,1073.25L256.861,1073.26L256.845,1073.26L256.829,1073.26L256.829,1073.25C186.793,1059.54 154.432,1006.56 165.535,887.917C165.676,886.41 166.622,885.125 167.963,884.618C180.783,879.772 245.842,855.185 255.618,851.49Z"/>
        </clipPath>
        <g clip-path="url(#_clip3)">
            <g transform="matrix(1,0,0,1.04242,-0.64855,-46.3542)">
                <rect x="257.49" y="846.68" width="121.989" height="246.061" style="fill:rgb(73,80,87);fill-opacity:0.26;"/>
            </g>
        </g>
        <g transform="matrix(0.700018,0,0,0.700018,77.0489,288.667)">
            <path d="M255.087,851.574C256.227,851.141 257.473,851.141 258.614,851.574C269.745,855.796 330.278,878.755 344.791,884.259C346.707,884.986 348.057,886.826 348.256,888.981C359.065,1006.88 326.688,1059.58 256.861,1073.25L256.861,1073.26L256.845,1073.26L256.829,1073.26L256.829,1073.25C187.002,1059.58 154.626,1006.88 165.436,888.981C165.635,886.827 166.984,884.987 168.9,884.261C183.414,878.755 243.954,855.796 255.087,851.574Z" style="fill:url(#_Linear4);"/>
            <clipPath id="_clip5">
                <path d="M255.087,851.574C256.227,851.141 257.473,851.141 258.614,851.574C269.745,855.796 330.278,878.755 344.791,884.259C346.707,884.986 348.057,886.826 348.256,888.981C359.065,1006.88 326.688,1059.58 256.861,1073.25L256.861,1073.26L256.845,1073.26L256.829,1073.26L256.829,1073.25C187.002,1059.58 154.626,1006.88 165.436,888.981C165.635,886.827 166.984,884.987 168.9,884.261C183.414,878.755 243.954,855.796 255.087,851.574Z"/>
            </clipPath>
            <g clip-path="url(#_clip5)">
                <g id="Star-Icon" serif:id="Star Icon" transform="matrix(3.71047,0,0,3.94914,-2891.48,-9826.12)">
                    <path d="M847.9,2717.43C847.991,2717.17 848.223,2717 848.497,2717C848.771,2717 849.003,2717.17 849.094,2717.43L851.516,2724.31C851.605,2724.56 851.828,2724.72 852.096,2724.73L859.372,2724.92C859.645,2724.92 859.872,2725.09 859.957,2725.35C860.042,2725.61 859.959,2725.88 859.742,2726.05L853.957,2730.5C853.746,2730.66 853.662,2730.92 853.737,2731.17L855.81,2738.19C855.887,2738.45 855.795,2738.72 855.573,2738.88C855.351,2739.03 855.068,2739.04 854.843,2738.88L848.857,2734.74C848.636,2734.59 848.358,2734.59 848.137,2734.74L842.151,2738.88C841.926,2739.04 841.643,2739.03 841.421,2738.88C841.199,2738.72 841.107,2738.45 841.184,2738.19L843.257,2731.17C843.332,2730.92 843.248,2730.66 843.037,2730.5L837.252,2726.05C837.035,2725.88 836.952,2725.61 837.037,2725.35C837.122,2725.09 837.349,2724.92 837.622,2724.92L844.898,2724.73C845.166,2724.72 845.389,2724.56 845.478,2724.31L847.9,2717.43Z" style="fill:rgb(241,243,245);"/>
                </g>
                <g transform="matrix(1,0,0,1.04242,-0.650075,-46.3542)">
                    <rect x="257.49" y="846.68" width="121.989" height="246.061" style="fill:rgb(100,33,117);fill-opacity:0.29;"/>
                </g>
            </g>
        </g>
        <g>
            <g transform="matrix(1.75867,0,0,1.87179,-1125.68,-355.077)">
                <circle cx="786.162" cy="655.069" r="2.806" style="fill:rgb(77,86,98);"/>
            </g>
            <g transform="matrix(1.75867,0,0,1.87179,-1046.21,-285.823)">
                <circle cx="786.162" cy="655.069" r="2.806" style="fill:rgb(77,86,98);"/>
            </g>
            <g transform="matrix(1.75867,0,0,1.87179,-1125.68,-170.265)">
                <circle cx="786.162" cy="655.069" r="2.806" style="fill:rgb(77,86,98);"/>
            </g>
            <g transform="matrix(1.75867,0,0,1.87179,-1205.22,-285.823)">
                <circle cx="786.162" cy="655.069" r="2.806" style="fill:rgb(77,86,98);"/>
            </g>
        </g>
    </g>
    <defs>
        <linearGradient id="_Linear1" x1="0" y1="0" x2="1" y2="0" gradientUnits="userSpaceOnUse" gradientTransform="matrix(-153.647,-182.763,182.763,-153.647,231.913,254.036)"><stop offset="0" style="stop-color:rgb(108,116,124);stop-opacity:1"/><stop offset="1" style="stop-color:rgb(46,67,89);stop-opacity:1"/></linearGradient>
        <linearGradient id="_Linear2" x1="0" y1="0" x2="1" y2="0" gradientUnits="userSpaceOnUse" gradientTransform="matrix(162.372,138.796,-130.408,172.816,166.361,883.794)"><stop offset="0" style="stop-color:rgb(202,208,213);stop-opacity:1"/><stop offset="1" style="stop-color:rgb(150,177,205);stop-opacity:1"/></linearGradient>
        <linearGradient id="_Linear4" x1="0" y1="0" x2="1" y2="0" gradientUnits="userSpaceOnUse" gradientTransform="matrix(158.906,131.738,-123.777,169.128,170.279,888.368)"><stop offset="0" style="stop-color:rgb(238,119,242);stop-opacity:1"/><stop offset="1" style="stop-color:rgb(176,72,232);stop-opacity:1"/></linearGradient>
    </defs>
</svg>
