<?xml version="1.0" encoding="UTF-8" standalone="no"?>
<!DOCTYPE svg PUBLIC "-//W3C//DTD SVG 1.1//EN" "http://www.w3.org/Graphics/SVG/1.1/DTD/svg11.dtd">
<svg width="100%" height="100%" viewBox="0 0 512 512" version="1.1" xmlns="http://www.w3.org/2000/svg" xmlns:xlink="http://www.w3.org/1999/xlink" xml:space="preserve" xmlns:serif="http://www.serif.com/" style="fill-rule:evenodd;clip-rule:evenodd;stroke-linejoin:round;stroke-miterlimit:2;">
    <g id="ShieldProtectIcon" transform="matrix(5.57776,0,0,5.29321,-23770,-10303.8)">
        <g transform="matrix(0.699581,0,0,0.737189,3780.02,-1593.71)">
            <path d="M751.781,4804.65C752.938,4803.66 754.652,4803.7 755.766,4804.74C761.261,4809.64 778.117,4822.7 802.988,4824.12C804.363,4824.2 805.511,4825.2 805.769,4826.55C819.02,4895.95 786.217,4922.13 754.729,4932.07C754.135,4932.26 753.497,4932.25 752.905,4932.06C720.39,4921.41 689.609,4895.39 701.878,4826.61C702.124,4825.23 703.293,4824.2 704.693,4824.14C727.617,4822.95 745.863,4809.53 751.781,4804.65Z" style="fill:rgb(255,111,111);"/>
            <clipPath id="_clip1">
                <path d="M751.781,4804.65C752.938,4803.66 754.652,4803.7 755.766,4804.74C761.261,4809.64 778.117,4822.7 802.988,4824.12C804.363,4824.2 805.511,4825.2 805.769,4826.55C819.02,4895.95 786.217,4922.13 754.729,4932.07C754.135,4932.26 753.497,4932.25 752.905,4932.06C720.39,4921.41 689.609,4895.39 701.878,4826.61C702.124,4825.23 703.293,4824.2 704.693,4824.14C727.617,4822.95 745.863,4809.53 751.781,4804.65Z"/>
            </clipPath>
            <g clip-path="url(#_clip1)">
                <g transform="matrix(3.68346,0,0,5.21482,-2023.41,-20223.3)">
                    <rect x="754.03" y="4798.13" width="17.402" height="27.185" style="fill:rgb(215,76,83);"/>
                </g>
            </g>
        </g>
        <g id="UserIcon" transform="matrix(0.52671,0,0,0.565707,4105.34,1422.85)">
            <g id="Body" transform="matrix(1.81882,0,0,1.78447,-983.475,-7658.67)">
                <path d="M742.926,4858.26C745.1,4861.24 748.371,4862.95 752.038,4862.95C755.705,4862.95 758.976,4861.24 761.15,4858.26C766.509,4860.62 767.911,4864.78 768.293,4868.27C769.495,4879.24 736.872,4881.5 735.344,4868.27C734.942,4864.79 737.535,4860.62 742.926,4858.26ZM752.038,4859.91C746.947,4859.91 742.843,4855.66 742.843,4849.15C742.843,4843.09 746.681,4839.02 752.038,4839.02C757.395,4839.02 761.234,4843.09 761.234,4849.15C761.234,4855.66 757.129,4859.91 752.038,4859.91Z" style="fill:white;"/>
            </g>
            <g transform="matrix(2.1472,0,0,2.98052,-1235.2,-13330.1)">
                <rect x="754.03" y="4798.13" width="17.402" height="27.185" style="fill:rgb(215,76,83);fill-opacity:0.4;"/>
            </g>
        </g>
    </g>
</svg>
