<?xml version="1.0" encoding="UTF-8" standalone="no"?>
<!DOCTYPE svg PUBLIC "-//W3C//DTD SVG 1.1//EN" "http://www.w3.org/Graphics/SVG/1.1/DTD/svg11.dtd">
<svg width="100%" height="100%" viewBox="0 0 512 512" version="1.1" xmlns="http://www.w3.org/2000/svg" xmlns:xlink="http://www.w3.org/1999/xlink" xml:space="preserve" xmlns:serif="http://www.serif.com/" style="fill-rule:evenodd;clip-rule:evenodd;stroke-linejoin:round;stroke-miterlimit:2;">
    <g id="ShieldPolygonBrowntIcon" transform="matrix(3.88831,0,0,3.68995,-16492.7,-7105.24)">
        <g transform="matrix(0.787008,0,0,0.829315,3714.1,-2042.19)">
            <path d="M751.781,4804.65C752.938,4803.66 754.652,4803.7 755.766,4804.74C761.261,4809.64 778.117,4822.7 802.988,4824.12C804.363,4824.2 805.511,4825.2 805.769,4826.55C819.02,4895.95 786.217,4922.13 754.729,4932.07C754.135,4932.26 753.497,4932.25 752.905,4932.06C720.39,4921.41 689.609,4895.39 701.878,4826.61C702.124,4825.23 703.293,4824.2 704.693,4824.14C727.617,4822.95 745.863,4809.53 751.781,4804.65Z" style="fill:rgb(206,131,61);"/>
            <clipPath id="_clip1">
                <path d="M751.781,4804.65C752.938,4803.66 754.652,4803.7 755.766,4804.74C761.261,4809.64 778.117,4822.7 802.988,4824.12C804.363,4824.2 805.511,4825.2 805.769,4826.55C819.02,4895.95 786.217,4922.13 754.729,4932.07C754.135,4932.26 753.497,4932.25 752.905,4932.06C720.39,4921.41 689.609,4895.39 701.878,4826.61C702.124,4825.23 703.293,4824.2 704.693,4824.14C727.617,4822.95 745.863,4809.53 751.781,4804.65Z"/>
            </clipPath>
            <g clip-path="url(#_clip1)">
                <g transform="matrix(3.37503,0,0,5.32934,-1791.1,-20777.3)">
                    <rect x="754.03" y="4798.13" width="17.402" height="27.185" style="fill:rgb(170,94,56);"/>
                </g>
            </g>
        </g>
        <g transform="matrix(0.777338,0,0,0.819126,3721.39,-1992.59)">
            <path d="M754.014,4790.87C761.89,4791.16 767.732,4798.28 775.024,4802.43C783.864,4807.47 793.825,4810.37 804.032,4811.07C804.032,4811.07 809.315,4811.68 812.907,4814.57C821.633,4821.58 821.066,4836.61 821.687,4848.53C823.005,4873.87 817.158,4900.84 799.28,4920C788.481,4931.57 774.249,4939.55 759.088,4944.43C759.088,4944.43 756.887,4945.19 754.084,4945.23C751.913,4945.26 749.405,4944.71 747.132,4943.94C720.827,4934.87 698.471,4915.36 690.236,4887.16C684.281,4866.77 685.346,4844.92 688.994,4824.25C688.994,4824.25 690.157,4819.15 693.254,4815.95C697.476,4811.58 704.193,4811.36 709.894,4810.42C722.297,4808.36 734.006,4802.38 743.577,4794.44C743.577,4794.44 748.566,4791.01 753.342,4790.84C753.723,4790.84 753.632,4790.87 754.014,4790.87ZM753.686,4809.61C752.715,4809.64 751.921,4810.31 751.145,4810.93C739.469,4820.2 725.382,4826.79 710.512,4827.93C708.485,4828.09 706.765,4830.04 706.312,4831.9C703.136,4844.89 702.203,4886.31 720.969,4906.84C729.484,4916.16 740.95,4922.44 753.001,4926.41C754.677,4926.92 754.818,4926.68 755.623,4926.42C774.656,4920.15 791.441,4906.82 798.87,4887.37C805.819,4869.18 804.27,4839.75 801.469,4831.07C800.686,4828.64 797.006,4827.96 793.985,4827.59C780.231,4825.87 766.837,4819.98 756.382,4811.01C755.575,4810.32 754.756,4809.59 753.686,4809.61Z" style="fill:rgb(207,207,207);"/>
            <clipPath id="_clip2">
                <path d="M754.014,4790.87C761.89,4791.16 767.732,4798.28 775.024,4802.43C783.864,4807.47 793.825,4810.37 804.032,4811.07C804.032,4811.07 809.315,4811.68 812.907,4814.57C821.633,4821.58 821.066,4836.61 821.687,4848.53C823.005,4873.87 817.158,4900.84 799.28,4920C788.481,4931.57 774.249,4939.55 759.088,4944.43C759.088,4944.43 756.887,4945.19 754.084,4945.23C751.913,4945.26 749.405,4944.71 747.132,4943.94C720.827,4934.87 698.471,4915.36 690.236,4887.16C684.281,4866.77 685.346,4844.92 688.994,4824.25C688.994,4824.25 690.157,4819.15 693.254,4815.95C697.476,4811.58 704.193,4811.36 709.894,4810.42C722.297,4808.36 734.006,4802.38 743.577,4794.44C743.577,4794.44 748.566,4791.01 753.342,4790.84C753.723,4790.84 753.632,4790.87 754.014,4790.87ZM753.686,4809.61C752.715,4809.64 751.921,4810.31 751.145,4810.93C739.469,4820.2 725.382,4826.79 710.512,4827.93C708.485,4828.09 706.765,4830.04 706.312,4831.9C703.136,4844.89 702.203,4886.31 720.969,4906.84C729.484,4916.16 740.95,4922.44 753.001,4926.41C754.677,4926.92 754.818,4926.68 755.623,4926.42C774.656,4920.15 791.441,4906.82 798.87,4887.37C805.819,4869.18 804.27,4839.75 801.469,4831.07C800.686,4828.64 797.006,4827.96 793.985,4827.59C780.231,4825.87 766.837,4819.98 756.382,4811.01C755.575,4810.32 754.756,4809.59 753.686,4809.61Z"/>
            </clipPath>
            <g clip-path="url(#_clip2)">
                <g transform="matrix(1.66331,0,0,1.66331,-553.689,3711.92)">
                    <circle cx="786.162" cy="655.069" r="2.806" style="fill:rgb(98,85,77);"/>
                </g>
                <g transform="matrix(1.66331,0,0,1.66331,-553.689,3845.67)">
                    <circle cx="786.162" cy="655.069" r="2.806" style="fill:rgb(98,85,77);"/>
                </g>
                <g transform="matrix(4.7224,0,0,6.80314,-2807.06,-27863.7)">
                    <rect x="754.03" y="4798.13" width="17.402" height="27.185" style="fill:rgb(73,76,79);fill-opacity:0.43;"/>
                </g>
            </g>
        </g>
        <g transform="matrix(0.137469,0,0,0.144859,4163.02,1448.9)">
            <circle cx="1051.18" cy="3760.65" r="111.873" style="fill:rgb(193,193,193);"/>
            <clipPath id="_clip3">
                <circle cx="1051.18" cy="3760.65" r="111.873"/>
            </clipPath>
            <g clip-path="url(#_clip3)">
                <g transform="matrix(3.42535,0,0,2.9196,-1509.95,2135.93)">
                    <rect x="747.276" y="512.91" width="40.796" height="90.785" style="fill:rgb(151,159,169);"/>
                </g>
            </g>
        </g>
        <g transform="matrix(1.29295,0,0,1.36246,3336.81,1098.35)">
            <circle cx="786.162" cy="655.069" r="2.806" style="fill:rgb(98,85,77);"/>
        </g>
        <g transform="matrix(1.29295,0,0,1.36246,3245.11,1098.35)">
            <circle cx="786.162" cy="655.069" r="2.806" style="fill:rgb(98,85,77);"/>
        </g>
    </g>
</svg>
