<?xml version="1.0" encoding="UTF-8" standalone="no"?>
<!DOCTYPE svg PUBLIC "-//W3C//DTD SVG 1.1//EN" "http://www.w3.org/Graphics/SVG/1.1/DTD/svg11.dtd">
<svg width="100%" height="100%" viewBox="0 0 512 512" version="1.1" xmlns="http://www.w3.org/2000/svg" xmlns:xlink="http://www.w3.org/1999/xlink" xml:space="preserve" xmlns:serif="http://www.serif.com/" style="fill-rule:evenodd;clip-rule:evenodd;stroke-linejoin:round;stroke-miterlimit:2;">
    <g id="ShieldGreyBlueIcon" transform="matrix(2.38795,0,0,2.24363,-357.333,-1904)">
        <path d="M255.618,851.49C256.414,851.189 257.283,851.189 258.079,851.49C267.855,855.185 332.908,879.772 345.727,884.618C347.069,885.124 348.015,886.41 348.156,887.917C359.259,1006.56 326.898,1059.54 256.861,1073.25L256.861,1073.26L256.845,1073.26L256.829,1073.26L256.829,1073.25C186.793,1059.54 154.432,1006.56 165.535,887.917C165.676,886.41 166.622,885.125 167.963,884.618C180.783,879.772 245.842,855.185 255.618,851.49Z" style="fill:rgb(184,195,207);"/>
        <clipPath id="_clip1">
            <path d="M255.618,851.49C256.414,851.189 257.283,851.189 258.079,851.49C267.855,855.185 332.908,879.772 345.727,884.618C347.069,885.124 348.015,886.41 348.156,887.917C359.259,1006.56 326.898,1059.54 256.861,1073.25L256.861,1073.26L256.845,1073.26L256.829,1073.26L256.829,1073.25C186.793,1059.54 154.432,1006.56 165.535,887.917C165.676,886.41 166.622,885.125 167.963,884.618C180.783,879.772 245.842,855.185 255.618,851.49Z"/>
        </clipPath>
        <g clip-path="url(#_clip1)">
            <g transform="matrix(1,0,0,1.04242,-0.64855,-46.3542)">
                <rect x="257.49" y="846.68" width="121.989" height="246.061" style="fill:rgb(160,170,181);"/>
            </g>
        </g>
        <g transform="matrix(0.700018,0,0,0.700018,77.0489,288.667)">
            <path d="M255.087,851.574C256.227,851.141 257.473,851.141 258.614,851.574C269.745,855.796 330.278,878.755 344.791,884.259C346.707,884.986 348.057,886.826 348.256,888.981C359.065,1006.88 326.688,1059.58 256.861,1073.25L256.861,1073.26L256.845,1073.26L256.829,1073.26L256.829,1073.25C187.002,1059.58 154.626,1006.88 165.436,888.981C165.635,886.827 166.984,884.987 168.9,884.261C183.414,878.755 243.954,855.796 255.087,851.574Z" style="fill:rgb(88,171,198);"/>
            <clipPath id="_clip2">
                <path d="M255.087,851.574C256.227,851.141 257.473,851.141 258.614,851.574C269.745,855.796 330.278,878.755 344.791,884.259C346.707,884.986 348.057,886.826 348.256,888.981C359.065,1006.88 326.688,1059.58 256.861,1073.25L256.861,1073.26L256.845,1073.26L256.829,1073.26L256.829,1073.25C187.002,1059.58 154.626,1006.88 165.436,888.981C165.635,886.827 166.984,884.987 168.9,884.261C183.414,878.755 243.954,855.796 255.087,851.574Z"/>
            </clipPath>
            <g clip-path="url(#_clip2)">
                <g transform="matrix(1,0,0,1.04242,-0.650075,-46.3542)">
                    <rect x="257.49" y="846.68" width="121.989" height="246.061" style="fill:rgb(68,131,145);"/>
                </g>
            </g>
        </g>
        <g transform="matrix(1.75867,0,0,1.87179,-1125.68,-355.077)">
            <circle cx="786.162" cy="655.069" r="2.806" style="fill:rgb(77,86,98);"/>
        </g>
        <g transform="matrix(1.75867,0,0,1.87179,-1046.21,-285.823)">
            <circle cx="786.162" cy="655.069" r="2.806" style="fill:rgb(77,86,98);"/>
        </g>
        <g transform="matrix(1.75867,0,0,1.87179,-1125.68,-170.265)">
            <circle cx="786.162" cy="655.069" r="2.806" style="fill:rgb(77,86,98);"/>
        </g>
        <g transform="matrix(1.75867,0,0,1.87179,-1205.22,-285.823)">
            <circle cx="786.162" cy="655.069" r="2.806" style="fill:rgb(77,86,98);"/>
        </g>
    </g>
</svg>
