<?xml version="1.0" encoding="UTF-8" standalone="no"?>
<!DOCTYPE svg PUBLIC "-//W3C//DTD SVG 1.1//EN" "http://www.w3.org/Graphics/SVG/1.1/DTD/svg11.dtd">
<svg width="100%" height="100%" viewBox="0 0 512 512" version="1.1" xmlns="http://www.w3.org/2000/svg" xmlns:xlink="http://www.w3.org/1999/xlink" xml:space="preserve" xmlns:serif="http://www.serif.com/" style="fill-rule:evenodd;clip-rule:evenodd;stroke-linejoin:round;stroke-miterlimit:2;">
    <g id="ShipIcon" transform="matrix(5.12336,0,0,5.12336,-6565.09,-3599.23)">
        <g transform="matrix(-0.577554,0,0,0.594248,2213.27,153.331)">
            <path d="M1578.87,945.297C1568.58,936.36 1546.32,944.483 1533.3,938.728L1533.3,956.344C1544.56,962.841 1563.19,944.178 1578.87,945.297Z" style="fill:rgb(196,68,68);"/>
        </g>
        <g transform="matrix(1,0,0,1.54656,6.24239,-364.393)">
            <path d="M1323.53,693.502C1323.53,693.191 1323.14,692.938 1322.66,692.938L1320.91,692.938C1320.43,692.938 1320.04,693.191 1320.04,693.502L1320.04,739.44C1320.04,739.751 1320.43,740.004 1320.91,740.004L1322.66,740.004C1323.14,740.004 1323.53,739.751 1323.53,739.44L1323.53,693.502Z" style="fill:rgb(117,63,63);"/>
            <clipPath id="_clip1">
                <path d="M1323.53,693.502C1323.53,693.191 1323.14,692.938 1322.66,692.938L1320.91,692.938C1320.43,692.938 1320.04,693.191 1320.04,693.502L1320.04,739.44C1320.04,739.751 1320.43,740.004 1320.91,740.004L1322.66,740.004C1323.14,740.004 1323.53,739.751 1323.53,739.44L1323.53,693.502Z"/>
            </clipPath>
            <g clip-path="url(#_clip1)">
                <g transform="matrix(0.292892,0,0,1.49841,934.68,-396.559)">
                    <rect x="1321.84" y="726.293" width="60.934" height="29.934" style="fill:rgb(100,54,54);"/>
                </g>
            </g>
        </g>
        <g transform="matrix(1,0,0,0.720302,0,213.928)">
            <path d="M1367.74,769.411C1367.74,766.895 1366.27,764.853 1364.46,764.853L1293.32,764.853C1291.51,764.853 1290.04,766.895 1290.04,769.411L1290.04,787.646C1290.04,800.225 1297.39,810.438 1306.45,810.438L1351.33,810.438C1360.39,810.438 1367.74,800.225 1367.74,787.646L1367.74,769.411Z" style="fill:rgb(170,85,43);"/>
            <clipPath id="_clip2">
                <path d="M1367.74,769.411C1367.74,766.895 1366.27,764.853 1364.46,764.853L1293.32,764.853C1291.51,764.853 1290.04,766.895 1290.04,769.411L1290.04,787.646C1290.04,800.225 1297.39,810.438 1306.45,810.438L1351.33,810.438C1360.39,810.438 1367.74,800.225 1367.74,787.646L1367.74,769.411Z"/>
            </clipPath>
            <g clip-path="url(#_clip2)">
                <g transform="matrix(0.900016,0,0,1.80388,138.404,-550.896)">
                    <rect x="1321.84" y="726.293" width="60.934" height="29.934" style="fill:rgb(136,71,43);"/>
                </g>
            </g>
        </g>
        <g transform="matrix(0.686647,0,0,0.791757,403.639,148.967)">
            <path d="M1306.41,766.844C1306.41,765.375 1305.04,764.183 1303.34,764.183L1283.77,764.183C1282.08,764.183 1280.7,765.375 1280.7,766.844L1280.7,772.166C1280.7,773.635 1282.08,774.827 1283.77,774.827L1303.34,774.827C1305.04,774.827 1306.41,773.635 1306.41,772.166L1306.41,766.844Z" style="fill:rgb(170,85,43);"/>
        </g>
        <g transform="matrix(6.12323e-17,1,-1,6.12323e-17,2064.86,-526.6)">
            <path d="M1306.41,766.844C1306.41,765.375 1305.22,764.183 1303.75,764.183L1283.37,764.183C1281.9,764.183 1280.7,765.375 1280.7,766.844L1280.7,772.166C1280.7,773.635 1281.9,774.827 1283.37,774.827L1303.75,774.827C1305.22,774.827 1306.41,773.635 1306.41,772.166L1306.41,766.844Z" style="fill:rgb(170,85,43);"/>
        </g>
        <g transform="matrix(0.807841,-0.21646,0.258819,0.965926,57.2375,322.202)">
            <path d="M1391.08,767.527C1391.08,766.606 1390.18,765.858 1389.08,765.858L1364.01,765.858C1362.91,765.858 1362.02,766.606 1362.02,767.527C1362.02,768.448 1362.91,769.195 1364.01,769.195L1389.08,769.195C1390.18,769.195 1391.08,768.448 1391.08,767.527Z" style="fill:rgb(136,71,43);"/>
        </g>
        <g transform="matrix(0.90328,0,0,0.90328,128.315,71.6971)">
            <path d="M1353.27,729.106C1353.27,727.254 1351.76,725.751 1349.91,725.751L1306.63,725.751C1304.78,725.751 1303.28,727.254 1303.28,729.106L1303.28,757.843C1303.28,759.695 1304.78,761.198 1306.63,761.198L1349.91,761.198C1351.76,761.198 1353.27,759.695 1353.27,757.843L1353.27,729.106Z" style="fill:rgb(67,74,84);"/>
            <clipPath id="_clip3">
                <path d="M1353.27,729.106C1353.27,727.254 1351.76,725.751 1349.91,725.751L1306.63,725.751C1304.78,725.751 1303.28,727.254 1303.28,729.106L1303.28,757.843C1303.28,759.695 1304.78,761.198 1306.63,761.198L1349.91,761.198C1351.76,761.198 1353.27,759.695 1353.27,757.843L1353.27,729.106Z"/>
            </clipPath>
            <g clip-path="url(#_clip3)">
                <g id="SkullIcon" transform="matrix(0.662254,0,0,0.662254,497.102,-1451.42)">
                    <path d="M1248.22,3325.4C1245.72,3325.67 1242.66,3325.46 1241.09,3323.43C1238.88,3320.58 1238.27,3315.06 1238.52,3310.72C1238.95,3303.03 1246.47,3296.77 1255.03,3296.77C1263.59,3296.77 1270.8,3303.05 1271.54,3310.72C1271.88,3314.28 1271.54,3320.29 1269.38,3322.83C1267.58,3324.97 1264.58,3325.44 1261.85,3325.24L1261.85,3330.07C1261.85,3331.02 1261.08,3331.79 1260.12,3331.79C1259.17,3331.79 1258.39,3331.02 1258.39,3330.07L1258.39,3329.07L1256.76,3329.07L1256.76,3330.07C1256.76,3331.02 1255.99,3331.79 1255.03,3331.79C1254.08,3331.79 1253.31,3331.02 1253.31,3330.07L1253.31,3329.07L1251.67,3329.07L1251.67,3330.07C1251.67,3331.02 1250.9,3331.79 1249.95,3331.79C1248.99,3331.79 1248.22,3331.02 1248.22,3330.07L1248.22,3325.4ZM1256.76,3322.58C1256.95,3322.58 1257.13,3322.48 1257.23,3322.31C1257.32,3322.14 1257.32,3321.93 1257.22,3321.77C1256.68,3320.89 1255.83,3319.51 1255.31,3318.66C1255.21,3318.5 1255.04,3318.4 1254.86,3318.4C1254.67,3318.4 1254.5,3318.5 1254.4,3318.66C1253.88,3319.51 1253.03,3320.89 1252.49,3321.77C1252.39,3321.93 1252.39,3322.14 1252.48,3322.31C1252.58,3322.48 1252.76,3322.58 1252.95,3322.58C1254.01,3322.58 1255.7,3322.58 1256.76,3322.58ZM1249.88,3309.27C1252.1,3310.31 1252.95,3313.17 1251.78,3315.65C1250.62,3318.13 1247.87,3319.3 1245.66,3318.26C1243.45,3317.23 1242.6,3314.37 1243.77,3311.89C1244.93,3309.4 1247.67,3308.23 1249.88,3309.27ZM1260.17,3309.27C1257.96,3310.31 1257.11,3313.17 1258.28,3315.65C1259.44,3318.13 1262.18,3319.3 1264.39,3318.26C1266.6,3317.23 1267.45,3314.37 1266.29,3311.89C1265.12,3309.4 1262.38,3308.23 1260.17,3309.27Z" style="fill:white;"/>
                </g>
                <g transform="matrix(0.439505,0,0,1.49587,747.276,-363.845)">
                    <rect x="1321.84" y="726.293" width="60.934" height="29.934" style="fill-opacity:0.24;"/>
                </g>
            </g>
        </g>
        <g transform="matrix(0.946132,0,0,0.946132,82.9034,82.192)">
            <circle cx="1291.66" cy="739.42" r="4.3" style="fill:rgb(119,60,37);"/>
        </g>
        <g transform="matrix(0.946132,0,0,0.946132,98.3085,82.192)">
            <circle cx="1291.66" cy="739.42" r="4.3" style="fill:rgb(119,60,37);"/>
        </g>
        <g transform="matrix(0.946132,0,0,0.946132,113.714,82.192)">
            <circle cx="1291.66" cy="739.42" r="4.3" style="fill:rgb(96,49,30);"/>
        </g>
        <g transform="matrix(0.946132,0,0,0.946132,129.119,82.192)">
            <circle cx="1291.66" cy="739.42" r="4.3" style="fill:rgb(96,49,30);"/>
        </g>
    </g>
</svg>
