<?xml version="1.0" encoding="UTF-8" standalone="no"?>
<!DOCTYPE svg PUBLIC "-//W3C//DTD SVG 1.1//EN" "http://www.w3.org/Graphics/SVG/1.1/DTD/svg11.dtd">
<svg width="100%" height="100%" viewBox="0 0 512 512" version="1.1" xmlns="http://www.w3.org/2000/svg" xmlns:xlink="http://www.w3.org/1999/xlink" xml:space="preserve" xmlns:serif="http://www.serif.com/" style="fill-rule:evenodd;clip-rule:evenodd;stroke-linecap:round;stroke-linejoin:round;stroke-miterlimit:1.5;">
    <g id="Single-Player---Yellow" serif:id="Single Player - Yellow" transform="matrix(5.90001,0,0,4.4573,-2733.25,-4179.54)">
        <g transform="matrix(0.755472,0,0,0.590806,-546.492,375.528)">
            <path d="M1415.76,1101.59C1415.76,1081.29 1406.02,1064.8 1394.02,1064.8C1382.02,1064.8 1372.28,1081.29 1372.28,1101.59L1372.28,1125.04C1372.28,1135.19 1377.15,1143.44 1383.15,1143.44L1404.89,1143.44C1410.89,1143.44 1415.76,1135.19 1415.76,1125.04L1415.76,1101.59Z" style="fill:rgb(245,159,0);"/>
            <clipPath id="_clip1">
                <path d="M1415.76,1101.59C1415.76,1081.29 1406.02,1064.8 1394.02,1064.8C1382.02,1064.8 1372.28,1081.29 1372.28,1101.59L1372.28,1125.04C1372.28,1135.19 1377.15,1143.44 1383.15,1143.44L1404.89,1143.44C1410.89,1143.44 1415.76,1135.19 1415.76,1125.04L1415.76,1101.59Z"/>
            </clipPath>
            <g clip-path="url(#_clip1)">
                <g transform="matrix(0.534242,0,0,1.02149,643.959,85.5985)">
                    <rect x="1404.85" y="956.377" width="49.701" height="84.716" style="fill:rgb(240,140,0);"/>
                </g>
            </g>
        </g>
        <g transform="matrix(0.755472,0,0,1,-546.23,-81.3293)">
            <circle cx="1393.67" cy="1061.69" r="32.074" style="fill:rgb(255,224,102);"/>
            <clipPath id="_clip2">
                <circle cx="1393.67" cy="1061.69" r="32.074"/>
            </clipPath>
            <g clip-path="url(#_clip2)">
                <g transform="matrix(0.68965,0,0,0.812268,425.287,250.244)">
                    <rect x="1404.85" y="956.377" width="49.701" height="84.716" style="fill:rgb(252,196,25);"/>
                </g>
            </g>
        </g>
        <g transform="matrix(0.222179,0,0,0.294092,477.556,947.485)">
            <path d="M167.058,123.458C163.074,139.696 148.411,151.755 130.955,151.755C113.498,151.755 98.836,139.696 94.851,123.458" style="fill:none;stroke:rgb(230,119,0);stroke-width:14.24px;"/>
        </g>
        <g>
            <g transform="matrix(0.295322,0.0566518,-0.0427988,0.390911,471.205,930.269)">
                <path d="M137.672,34.244C137.672,34.244 139.702,22.472 131.534,13.992C128.124,10.453 122.925,7.425 114.924,6.22C113.271,5.971 111.726,7.111 111.477,8.764C111.228,10.418 112.368,11.962 114.022,12.211C120.324,13.16 124.484,15.407 127.17,18.195C133.224,24.48 131.702,33.21 131.702,33.21C131.417,34.857 132.522,36.426 134.17,36.712C135.817,36.997 137.386,35.891 137.672,34.244Z" style="fill:rgb(252,196,25);"/>
            </g>
            <g transform="matrix(0.295322,0.0566518,-0.0427988,0.390911,471.595,930.426)">
                <path d="M137.317,32.225C137.317,32.225 131.551,22.053 119.466,17.284C111.528,14.151 100.826,13.267 87.227,19.372C85.702,20.056 85.019,21.85 85.704,23.376C86.389,24.901 88.183,25.583 89.708,24.899C98.466,20.967 105.811,20.303 111.817,21.38C125.517,23.837 132.056,35.229 132.056,35.229C132.885,36.681 134.737,37.187 136.189,36.358C137.641,35.529 138.146,33.677 137.317,32.225Z" style="fill:rgb(252,196,25);"/>
            </g>
        </g>
    </g>
</svg>
