<?xml version="1.0" encoding="UTF-8" standalone="no"?>
<!DOCTYPE svg PUBLIC "-//W3C//DTD SVG 1.1//EN" "http://www.w3.org/Graphics/SVG/1.1/DTD/svg11.dtd">
<svg width="100%" height="100%" viewBox="0 0 512 512" version="1.1" xmlns="http://www.w3.org/2000/svg" xmlns:xlink="http://www.w3.org/1999/xlink" xml:space="preserve" xmlns:serif="http://www.serif.com/" style="fill-rule:evenodd;clip-rule:evenodd;stroke-linejoin:round;stroke-miterlimit:2;">
    <g id="SkullHatIcon" transform="matrix(4.49976,0,0,4.27021,-19091.6,-2018.41)">
        <g transform="matrix(1.08027,0,0,0.986539,3488.52,-2835.33)">
            <path d="M750.962,3355.97C789.924,3355.97 801.811,3396.95 798.606,3421.15C795.143,3447.29 777.258,3451.79 750.962,3451.79C724.667,3451.79 707.142,3447.22 703.318,3421.15C699.619,3395.93 712.001,3355.97 750.962,3355.97Z" style="fill:rgb(189,191,197);"/>
            <clipPath id="_clip1">
                <path d="M750.962,3355.97C789.924,3355.97 801.811,3396.95 798.606,3421.15C795.143,3447.29 777.258,3451.79 750.962,3451.79C724.667,3451.79 707.142,3447.22 703.318,3421.15C699.619,3395.93 712.001,3355.97 750.962,3355.97Z"/>
            </clipPath>
            <g clip-path="url(#_clip1)">
                <g transform="matrix(1,0,0,1.73842,1.221,-2602.82)">
                    <rect x="749.687" y="3417.35" width="47.845" height="66.256" style="fill:rgb(149,154,162);"/>
                </g>
            </g>
        </g>
        <g transform="matrix(0.63444,0,0,0.668546,3555.9,-3392.51)">
            <path d="M1139.74,5907.27L1204.97,5907.14L1204.97,5948.1C1204.97,5952.82 1201.14,5956.65 1196.42,5956.65C1191.7,5956.65 1187.87,5952.82 1187.87,5948.1L1187.87,5942.98L1180.91,5942.98L1180.91,5948.1C1180.91,5952.82 1177.08,5956.65 1172.36,5956.65C1167.64,5956.65 1163.8,5952.82 1163.8,5948.1L1163.8,5942.98L1156.85,5942.98L1156.85,5948.1C1156.85,5952.82 1153.01,5956.65 1148.29,5956.65C1143.57,5956.65 1139.74,5952.82 1139.74,5948.1L1139.74,5907.27Z" style="fill:rgb(189,191,197);"/>
            <clipPath id="_clip2">
                <path d="M1139.74,5907.27L1204.97,5907.14L1204.97,5948.1C1204.97,5952.82 1201.14,5956.65 1196.42,5956.65C1191.7,5956.65 1187.87,5952.82 1187.87,5948.1L1187.87,5942.98L1180.91,5942.98L1180.91,5948.1C1180.91,5952.82 1177.08,5956.65 1172.36,5956.65C1167.64,5956.65 1163.8,5952.82 1163.8,5948.1L1163.8,5942.98L1156.85,5942.98L1156.85,5948.1C1156.85,5952.82 1153.01,5956.65 1148.29,5956.65C1143.57,5956.65 1139.74,5952.82 1139.74,5948.1L1139.74,5907.27Z"/>
            </clipPath>
            <g clip-path="url(#_clip2)">
                <g transform="matrix(1.70271,0,0,0.937482,-104.125,2696.96)">
                    <rect x="749.687" y="3417.35" width="47.845" height="66.256" style="fill:rgb(149,154,162);"/>
                </g>
            </g>
        </g>
        <g transform="matrix(1.02968,0,0,0.924594,3525.56,-2621.35)">
            <path d="M751.528,3431.63C751.587,3431.51 751.694,3431.44 751.811,3431.44C751.928,3431.44 752.036,3431.51 752.094,3431.63C753.177,3433.81 757.048,3441.62 758.136,3443.81C758.195,3443.93 758.195,3444.08 758.137,3444.2C758.079,3444.32 757.97,3444.39 757.853,3444.39C755.682,3444.39 747.94,3444.39 745.769,3444.39C745.652,3444.39 745.544,3444.32 745.485,3444.2C745.427,3444.08 745.427,3443.93 745.486,3443.81C746.575,3441.62 750.446,3433.81 751.528,3431.63Z" style="fill:rgb(91,98,113);"/>
            <clipPath id="_clip3">
                <path d="M751.528,3431.63C751.587,3431.51 751.694,3431.44 751.811,3431.44C751.928,3431.44 752.036,3431.51 752.094,3431.63C753.177,3433.81 757.048,3441.62 758.136,3443.81C758.195,3443.93 758.195,3444.08 758.137,3444.2C758.079,3444.32 757.97,3444.39 757.853,3444.39C755.682,3444.39 747.94,3444.39 745.769,3444.39C745.652,3444.39 745.544,3444.32 745.485,3444.2C745.427,3444.08 745.427,3443.93 745.486,3443.81C746.575,3441.62 750.446,3433.81 751.528,3431.63Z"/>
            </clipPath>
            <g clip-path="url(#_clip3)">
                <g transform="matrix(0.20105,0,0,0.248544,601.033,2581.48)">
                    <rect x="749.687" y="3417.35" width="47.845" height="66.256" style="fill:rgb(39,45,60);"/>
                </g>
            </g>
        </g>
        <g transform="matrix(1,0,0,1,-2.48694,4.54747e-13)">
            <g transform="matrix(0.829645,-0.504745,0.405202,0.73956,2331.55,-1616.4)">
                <ellipse cx="732.812" cy="3414.96" rx="16.296" ry="14.656" style="fill:rgb(40,42,50);"/>
            </g>
            <g transform="matrix(-0.829645,-0.504745,-0.405202,0.73956,6272.8,-1616.4)">
                <ellipse cx="732.812" cy="3414.96" rx="16.296" ry="14.656" style="fill:rgb(92,92,103);"/>
            </g>
        </g>
    </g>
</svg>
