<?xml version="1.0" encoding="UTF-8" standalone="no"?>
<!DOCTYPE svg PUBLIC "-//W3C//DTD SVG 1.1//EN" "http://www.w3.org/Graphics/SVG/1.1/DTD/svg11.dtd">
<svg width="100%" height="100%" viewBox="0 0 512 512" version="1.1" xmlns="http://www.w3.org/2000/svg" xmlns:xlink="http://www.w3.org/1999/xlink" xml:space="preserve" xmlns:serif="http://www.serif.com/" style="fill-rule:evenodd;clip-rule:evenodd;stroke-linejoin:round;stroke-miterlimit:2;">
    <g id="SkullIcon" transform="matrix(3.56364,0,0,4.33963,2533,-25316.4)">
        <g transform="matrix(0.561037,0,0,0.393708,-11881,3378.51)">
            <rect x="20038.3" y="6352.31" width="55.937" height="107.012" style="fill:rgb(40,42,50);"/>
        </g>
        <g transform="matrix(0.561037,0,0,0.393708,-11912.5,3378.51)">
            <rect x="20038.3" y="6352.31" width="55.937" height="107.012" style="fill:rgb(92,92,103);"/>
        </g>
        <g transform="matrix(0.81666,0,0,0.670628,-15854.3,1609.74)">
            <path d="M18618,6446.77L18618,6456.29C18618,6459.04 18615.8,6461.27 18613,6461.27C18610.3,6461.27 18608.1,6459.04 18608.1,6456.29L18608.1,6433.45L18599.2,6433.45C18588.8,6433.45 18580.4,6425.05 18580.4,6414.7C18580.4,6409.26 18582.8,6404.36 18586.5,6400.93C18585.3,6396.91 18584.7,6392.67 18584.7,6388.29C18584.7,6362.49 18605.7,6341.55 18631.5,6341.55C18657.3,6341.55 18678.2,6362.49 18678.2,6388.29C18678.2,6392.67 18677.6,6396.91 18676.5,6400.93C18680.2,6404.36 18682.5,6409.26 18682.5,6414.7C18682.5,6425.05 18674.1,6433.45 18663.8,6433.45L18654.9,6433.45L18654.9,6456.28C18654.9,6459.04 18652.7,6461.27 18649.9,6461.27C18647.1,6461.27 18644.9,6459.04 18644.9,6456.28L18644.9,6446.77L18642.6,6446.77L18642.6,6448.11C18642.6,6450.86 18640.4,6453.1 18637.6,6453.1C18634.9,6453.1 18632.6,6450.86 18632.6,6448.11L18632.6,6446.77L18630.3,6446.77L18630.3,6448.11C18630.3,6450.86 18628.1,6453.1 18625.3,6453.1C18622.6,6453.1 18620.3,6450.86 18620.3,6448.11L18620.3,6446.77L18618,6446.77ZM18630.5,6420.15C18630.7,6419.76 18631,6419.52 18631.5,6419.52C18631.9,6419.52 18632.3,6419.76 18632.5,6420.15C18633.4,6422.08 18634.9,6424.98 18635.8,6426.77C18636,6427.12 18635.9,6427.54 18635.7,6427.87C18635.5,6428.2 18635.2,6428.4 18634.8,6428.4C18632.9,6428.4 18630,6428.4 18628.2,6428.4C18627.8,6428.4 18627.4,6428.2 18627.2,6427.87C18627,6427.54 18627,6427.12 18627.1,6426.77C18628,6424.98 18629.5,6422.08 18630.5,6420.15ZM18598.4,6401.55C18605.1,6405.36 18615.4,6407.97 18627.3,6408.48C18626,6415.32 18619.9,6420.51 18612.7,6420.51C18604.5,6420.51 18597.9,6413.86 18597.9,6405.67C18597.9,6404.24 18598.1,6402.86 18598.4,6401.55ZM18664.5,6401.55C18664.9,6402.86 18665.1,6404.24 18665.1,6405.67C18665.1,6413.86 18658.4,6420.51 18650.2,6420.51C18643,6420.51 18637,6415.32 18635.7,6408.48C18647.5,6407.97 18657.8,6405.36 18664.5,6401.55Z" style="fill:rgb(153,159,169);"/>
            <clipPath id="_clip1">
                <path d="M18618,6446.77L18618,6456.29C18618,6459.04 18615.8,6461.27 18613,6461.27C18610.3,6461.27 18608.1,6459.04 18608.1,6456.29L18608.1,6433.45L18599.2,6433.45C18588.8,6433.45 18580.4,6425.05 18580.4,6414.7C18580.4,6409.26 18582.8,6404.36 18586.5,6400.93C18585.3,6396.91 18584.7,6392.67 18584.7,6388.29C18584.7,6362.49 18605.7,6341.55 18631.5,6341.55C18657.3,6341.55 18678.2,6362.49 18678.2,6388.29C18678.2,6392.67 18677.6,6396.91 18676.5,6400.93C18680.2,6404.36 18682.5,6409.26 18682.5,6414.7C18682.5,6425.05 18674.1,6433.45 18663.8,6433.45L18654.9,6433.45L18654.9,6456.28C18654.9,6459.04 18652.7,6461.27 18649.9,6461.27C18647.1,6461.27 18644.9,6459.04 18644.9,6456.28L18644.9,6446.77L18642.6,6446.77L18642.6,6448.11C18642.6,6450.86 18640.4,6453.1 18637.6,6453.1C18634.9,6453.1 18632.6,6450.86 18632.6,6448.11L18632.6,6446.77L18630.3,6446.77L18630.3,6448.11C18630.3,6450.86 18628.1,6453.1 18625.3,6453.1C18622.6,6453.1 18620.3,6450.86 18620.3,6448.11L18620.3,6446.77L18618,6446.77ZM18630.5,6420.15C18630.7,6419.76 18631,6419.52 18631.5,6419.52C18631.9,6419.52 18632.3,6419.76 18632.5,6420.15C18633.4,6422.08 18634.9,6424.98 18635.8,6426.77C18636,6427.12 18635.9,6427.54 18635.7,6427.87C18635.5,6428.2 18635.2,6428.4 18634.8,6428.4C18632.9,6428.4 18630,6428.4 18628.2,6428.4C18627.8,6428.4 18627.4,6428.2 18627.2,6427.87C18627,6427.54 18627,6427.12 18627.1,6426.77C18628,6424.98 18629.5,6422.08 18630.5,6420.15ZM18598.4,6401.55C18605.1,6405.36 18615.4,6407.97 18627.3,6408.48C18626,6415.32 18619.9,6420.51 18612.7,6420.51C18604.5,6420.51 18597.9,6413.86 18597.9,6405.67C18597.9,6404.24 18598.1,6402.86 18598.4,6401.55ZM18664.5,6401.55C18664.9,6402.86 18665.1,6404.24 18665.1,6405.67C18665.1,6413.86 18658.4,6420.51 18650.2,6420.51C18643,6420.51 18637,6415.32 18635.7,6408.48C18647.5,6407.97 18657.8,6405.36 18664.5,6401.55Z"/>
            </clipPath>
            <g clip-path="url(#_clip1)">
                <g transform="matrix(1.34752,0,0,1.34752,-8370.56,-2235.65)">
                    <rect x="20038.3" y="6352.31" width="55.937" height="107.012" style="fill:rgb(116,124,138);"/>
                </g>
            </g>
        </g>
        <g transform="matrix(0.625577,0,0,0.625577,-788.23,1932.83)">
            <g transform="matrix(1.191,0,0,0.978031,-996.67,130.973)">
                <path d="M946.122,6266.49C944.507,6256.2 955.936,6252.72 962.473,6261.31C971.356,6272.99 992.209,6292.06 1013.47,6294.72C1013.47,6294.72 995.081,6331.16 989.957,6328.01C967.85,6314.4 950.218,6292.57 946.122,6266.49Z" style="fill:rgb(123,173,207);"/>
                <clipPath id="_clip2">
                    <path d="M946.122,6266.49C944.507,6256.2 955.936,6252.72 962.473,6261.31C971.356,6272.99 992.209,6292.06 1013.47,6294.72C1013.47,6294.72 995.081,6331.16 989.957,6328.01C967.85,6314.4 950.218,6292.57 946.122,6266.49Z"/>
                </clipPath>
                <g clip-path="url(#_clip2)">
                    <g transform="matrix(1,0,0,1,-181.4,-6.29111)">
                        <path d="M1130.19,6251.97C1131.15,6255.85 1136.3,6303.39 1192.71,6324.87C1249.12,6346.35 1212.22,6268.94 1205.4,6268.17C1198.59,6267.4 1129.22,6248.1 1130.19,6251.97Z" style="fill:rgb(154,209,217);"/>
                    </g>
                </g>
            </g>
            <g transform="matrix(-1.191,0,0,0.978031,1473.91,130.973)">
                <path d="M946.122,6266.49C944.507,6256.2 955.936,6252.72 962.473,6261.31C971.356,6272.99 992.209,6292.06 1013.47,6294.72C1013.47,6294.72 995.081,6331.16 989.957,6328.01C967.85,6314.4 950.218,6292.57 946.122,6266.49Z" style="fill:rgb(123,173,207);"/>
                <clipPath id="_clip3">
                    <path d="M946.122,6266.49C944.507,6256.2 955.936,6252.72 962.473,6261.31C971.356,6272.99 992.209,6292.06 1013.47,6294.72C1013.47,6294.72 995.081,6331.16 989.957,6328.01C967.85,6314.4 950.218,6292.57 946.122,6266.49Z"/>
                </clipPath>
                <g clip-path="url(#_clip3)">
                    <g transform="matrix(1,0,0,1,-181.4,-6.29111)">
                        <path d="M1130.19,6251.97C1131.15,6255.85 1136.3,6303.39 1192.71,6324.87C1249.12,6346.35 1212.22,6268.94 1205.4,6268.17C1198.59,6267.4 1129.22,6248.1 1130.19,6251.97Z" style="fill:rgb(154,209,217);"/>
                    </g>
                </g>
            </g>
        </g>
    </g>
</svg>
