<?xml version="1.0" encoding="UTF-8" standalone="no"?>
<!DOCTYPE svg PUBLIC "-//W3C//DTD SVG 1.1//EN" "http://www.w3.org/Graphics/SVG/1.1/DTD/svg11.dtd">
<svg width="100%" height="100%" viewBox="0 0 512 512" version="1.1" xmlns="http://www.w3.org/2000/svg" xmlns:xlink="http://www.w3.org/1999/xlink" xml:space="preserve" xmlns:serif="http://www.serif.com/" style="fill-rule:evenodd;clip-rule:evenodd;stroke-linejoin:round;stroke-miterlimit:2;">
    <g id="SliderSettingsIcon" transform="matrix(6.51309,0,0,6.51309,-654.345,-4018.39)">
        <g>
            <g transform="matrix(1,0,0,0.552379,0,285.111)">
                <path d="M176.45,635.971C176.45,634.185 175.649,632.735 174.663,632.735L111.84,632.735C110.854,632.735 110.053,634.185 110.053,635.971C110.053,637.757 110.854,639.207 111.84,639.207L174.663,639.207C175.649,639.207 176.45,637.757 176.45,635.971Z" style="fill:rgb(28,187,180);"/>
                <clipPath id="_clip1">
                    <path d="M176.45,635.971C176.45,634.185 175.649,632.735 174.663,632.735L111.84,632.735C110.854,632.735 110.053,634.185 110.053,635.971C110.053,637.757 110.854,639.207 111.84,639.207L174.663,639.207C175.649,639.207 176.45,637.757 176.45,635.971Z"/>
                </clipPath>
                <g clip-path="url(#_clip1)">
                    <g transform="matrix(0.813162,0,0,0.174685,-1634.84,432.356)">
                        <rect x="2182.33" y="1126.07" width="48.598" height="74.548" style="fill:rgb(23,133,150);"/>
                    </g>
                </g>
            </g>
            <circle cx="111.361" cy="636.408" r="8.268" style="fill:white;"/>
        </g>
        <g transform="matrix(1,0,0,1,0,39.7392)">
            <g transform="matrix(1,0,0,0.552379,0,285.111)">
                <path d="M176.45,635.971C176.45,634.185 175.649,632.735 174.663,632.735L111.84,632.735C110.854,632.735 110.053,634.185 110.053,635.971C110.053,637.757 110.854,639.207 111.84,639.207L174.663,639.207C175.649,639.207 176.45,637.757 176.45,635.971Z" style="fill:rgb(28,187,180);"/>
                <clipPath id="_clip2">
                    <path d="M176.45,635.971C176.45,634.185 175.649,632.735 174.663,632.735L111.84,632.735C110.854,632.735 110.053,634.185 110.053,635.971C110.053,637.757 110.854,639.207 111.84,639.207L174.663,639.207C175.649,639.207 176.45,637.757 176.45,635.971Z"/>
                </clipPath>
                <g clip-path="url(#_clip2)">
                    <g transform="matrix(0.813162,0,0,0.174685,-1634.84,432.374)">
                        <rect x="2182.33" y="1126.07" width="48.598" height="74.548" style="fill:rgb(23,133,150);"/>
                    </g>
                </g>
            </g>
            <circle cx="111.361" cy="636.408" r="8.268" style="fill:white;"/>
        </g>
        <g transform="matrix(-1,0,0,1,279.543,19.8696)">
            <g transform="matrix(1,0,0,0.552379,0,285.111)">
                <path d="M176.45,635.971C176.45,634.185 175.649,632.735 174.663,632.735L111.84,632.735C110.854,632.735 110.053,634.185 110.053,635.971C110.053,637.757 110.854,639.207 111.84,639.207L174.663,639.207C175.649,639.207 176.45,637.757 176.45,635.971Z" style="fill:rgb(28,187,180);"/>
                <clipPath id="_clip3">
                    <path d="M176.45,635.971C176.45,634.185 175.649,632.735 174.663,632.735L111.84,632.735C110.854,632.735 110.053,634.185 110.053,635.971C110.053,637.757 110.854,639.207 111.84,639.207L174.663,639.207C175.649,639.207 176.45,637.757 176.45,635.971Z"/>
                </clipPath>
                <g clip-path="url(#_clip3)">
                    <g transform="matrix(-0.813162,0,0,0.174685,1914.39,432.72)">
                        <rect x="2182.33" y="1126.07" width="48.598" height="74.548" style="fill:rgb(23,133,150);"/>
                    </g>
                </g>
            </g>
            <circle cx="111.361" cy="636.408" r="8.268" style="fill:rgb(173,185,201);"/>
        </g>
    </g>
</svg>
