<?xml version="1.0" encoding="UTF-8" standalone="no"?>
<!DOCTYPE svg PUBLIC "-//W3C//DTD SVG 1.1//EN" "http://www.w3.org/Graphics/SVG/1.1/DTD/svg11.dtd">
<svg width="100%" height="100%" viewBox="0 0 512 512" version="1.1" xmlns="http://www.w3.org/2000/svg" xmlns:xlink="http://www.w3.org/1999/xlink" xml:space="preserve" xmlns:serif="http://www.serif.com/" style="fill-rule:evenodd;clip-rule:evenodd;stroke-linejoin:round;stroke-miterlimit:2;">
    <g id="SnaredIcon" transform="matrix(2.90019,0,0,2.90019,-3384.72,-3145.27)">
        <g>
            <g transform="matrix(0.36282,0.628422,-0.628422,0.36282,969.21,-344.238)">
                <path d="M2049.61,748.911L2049.59,748.911L2049.59,773.651L1889.79,773.651L1889.79,748.895L1889.8,748.895L1909.89,713.237L1929.77,748.499L1949.63,713.237L1969.73,748.895L1969.78,748.895L1989.88,713.237L2009.69,748.4L2030.3,713.378L2049.61,748.911Z" style="fill:rgb(214,218,226);"/>
                <clipPath id="_clip1">
                    <path d="M2049.61,748.911L2049.59,748.911L2049.59,773.651L1889.79,773.651L1889.79,748.895L1889.8,748.895L1909.89,713.237L1929.77,748.499L1949.63,713.237L1969.73,748.895L1969.78,748.895L1989.88,713.237L2009.69,748.4L2030.3,713.378L2049.61,748.911Z"/>
                </clipPath>
                <g clip-path="url(#_clip1)">
                    <g transform="matrix(-2.46797,-5.16461e-16,-4.62187e-16,2.00479,5741.66,-1245.56)">
                        <rect x="1493.38" y="1000.33" width="68.481" height="18.707" style="fill:rgb(174,180,193);"/>
                    </g>
                    <g transform="matrix(4.03181e-16,-0.76718,-1.06977,1.40467e-15,3000.1,1906.94)">
                        <rect x="1493.38" y="1000.33" width="68.481" height="18.707" style="fill:rgb(174,180,193);"/>
                    </g>
                    <g transform="matrix(4.50923e-16,-0.76718,-1.07659,8.15603e-16,3046.76,1907.04)">
                        <rect x="1493.38" y="1000.33" width="68.481" height="18.707" style="fill:rgb(174,180,193);"/>
                    </g>
                    <g transform="matrix(7.38128e-16,-1.04751,-1.05794,9.01686e-16,3067.98,2340.1)">
                        <rect x="1493.38" y="1000.33" width="68.481" height="18.707" style="fill:rgb(174,180,193);"/>
                    </g>
                </g>
            </g>
            <g transform="matrix(-0.36282,0.628422,0.628422,0.36282,1541.47,-344.238)">
                <path d="M2049.61,748.911L2049.59,748.911L2049.59,773.651L1889.79,773.651L1889.79,748.895L1889.8,748.895L1909.89,713.237L1929.77,748.499L1949.63,713.237L1969.73,748.895L1969.78,748.895L1989.88,713.237L2009.69,748.4L2030.3,713.378L2049.61,748.911Z" style="fill:rgb(214,218,226);"/>
                <clipPath id="_clip2">
                    <path d="M2049.61,748.911L2049.59,748.911L2049.59,773.651L1889.79,773.651L1889.79,748.895L1889.8,748.895L1909.89,713.237L1929.77,748.499L1949.63,713.237L1969.73,748.895L1969.78,748.895L1989.88,713.237L2009.69,748.4L2030.3,713.378L2049.61,748.911Z"/>
                </clipPath>
                <g clip-path="url(#_clip2)">
                    <g transform="matrix(-2.46797,-5.16461e-16,-4.62187e-16,2.00479,5741.66,-1245.56)">
                        <rect x="1493.38" y="1000.33" width="68.481" height="18.707" style="fill:rgb(174,180,193);"/>
                    </g>
                    <g transform="matrix(4.03181e-16,-0.76718,-1.06977,1.40467e-15,3000.1,1906.94)">
                        <rect x="1493.38" y="1000.33" width="68.481" height="18.707" style="fill:rgb(174,180,193);"/>
                    </g>
                    <g transform="matrix(4.50923e-16,-0.76718,-1.07659,8.15603e-16,3046.76,1907.04)">
                        <rect x="1493.38" y="1000.33" width="68.481" height="18.707" style="fill:rgb(174,180,193);"/>
                    </g>
                    <g transform="matrix(7.38128e-16,-1.04751,-1.05794,9.01686e-16,3067.98,2340.1)">
                        <rect x="1493.38" y="1000.33" width="68.481" height="18.707" style="fill:rgb(174,180,193);"/>
                    </g>
                </g>
            </g>
        </g>
        <g transform="matrix(1.0786,0,0,1.0786,-95.7967,-103.632)">
            <circle cx="1252.67" cy="1216.53" r="20.644" style="fill:rgb(83,92,108);"/>
            <clipPath id="_clip3">
                <circle cx="1252.67" cy="1216.53" r="20.644"/>
            </clipPath>
            <g clip-path="url(#_clip3)">
                <g transform="matrix(1.2251,0,0,1.2251,-578.188,-66.0564)">
                    <rect x="1494.54" y="1025.35" width="30.052" height="41.721" style="fill:rgb(66,73,87);"/>
                </g>
            </g>
        </g>
    </g>
</svg>
