<?xml version="1.0" encoding="UTF-8" standalone="no"?>
<!DOCTYPE svg PUBLIC "-//W3C//DTD SVG 1.1//EN" "http://www.w3.org/Graphics/SVG/1.1/DTD/svg11.dtd">
<svg width="100%" height="100%" viewBox="0 0 512 512" version="1.1" xmlns="http://www.w3.org/2000/svg" xmlns:xlink="http://www.w3.org/1999/xlink" xml:space="preserve" xmlns:serif="http://www.serif.com/" style="fill-rule:evenodd;clip-rule:evenodd;stroke-linejoin:round;stroke-miterlimit:2;">
    <g id="SpeedRunnerIcon" transform="matrix(3.48143,0,0,3.48143,-1093.67,-567.619)">
        <g transform="matrix(1.20015,0,0,1.20015,69.5057,-19.8786)">
            <circle cx="290.389" cy="175.647" r="16.05" style="fill:rgb(248,179,147);"/>
            <clipPath id="_clip1">
                <circle cx="290.389" cy="175.647" r="16.05"/>
            </clipPath>
            <g clip-path="url(#_clip1)">
                <g transform="matrix(1,0,0,1,8.97591,0)">
                    <circle cx="290.389" cy="175.647" r="16.05" style="fill:rgb(254,210,165);"/>
                </g>
            </g>
        </g>
        <g transform="matrix(0.413453,-0.413453,0.707107,0.707107,188.9,201.761)">
            <path d="M298.903,191.088C298.903,185.955 291.776,181.788 282.998,181.788L233.564,181.788C224.786,181.788 217.659,185.955 217.659,191.088C217.659,196.22 224.786,200.387 233.564,200.387L282.998,200.387C291.776,200.387 298.903,196.22 298.903,191.088Z" style="fill:rgb(254,210,165);"/>
            <clipPath id="_clip2">
                <path d="M298.903,191.088C298.903,185.955 291.776,181.788 282.998,181.788L233.564,181.788C224.786,181.788 217.659,185.955 217.659,191.088C217.659,196.22 224.786,200.387 233.564,200.387L282.998,200.387C291.776,200.387 298.903,196.22 298.903,191.088Z"/>
            </clipPath>
            <g clip-path="url(#_clip2)">
                <g transform="matrix(1,0,-2.22045e-16,1,15.3834,7.24542)">
                    <path d="M298.903,191.088C298.903,185.955 291.776,181.788 282.998,181.788L233.564,181.788C224.786,181.788 217.659,185.955 217.659,191.088C217.659,196.22 224.786,200.387 233.564,200.387L282.998,200.387C291.776,200.387 298.903,196.22 298.903,191.088Z" style="fill:rgb(248,179,147);"/>
                </g>
            </g>
        </g>
        <g transform="matrix(0.802185,0.802185,-0.707107,0.707107,322.462,-127.955)">
            <path d="M298.903,191.088C298.903,185.955 295.23,181.788 290.706,181.788L225.857,181.788C221.332,181.788 217.659,185.955 217.659,191.088C217.659,196.22 221.332,200.387 225.857,200.387L290.706,200.387C295.23,200.387 298.903,196.22 298.903,191.088Z" style="fill:rgb(254,210,165);"/>
            <clipPath id="_clip3">
                <path d="M298.903,191.088C298.903,185.955 295.23,181.788 290.706,181.788L225.857,181.788C221.332,181.788 217.659,185.955 217.659,191.088C217.659,196.22 221.332,200.387 225.857,200.387L290.706,200.387C295.23,200.387 298.903,196.22 298.903,191.088Z"/>
            </clipPath>
            <g clip-path="url(#_clip3)">
                <g transform="matrix(1,0,0,1,8.19451,9.90312)">
                    <path d="M298.903,191.088C298.903,185.955 295.23,181.788 290.706,181.788L225.857,181.788C221.332,181.788 217.659,185.955 217.659,191.088C217.659,196.22 221.332,200.387 225.857,200.387L290.706,200.387C295.23,200.387 298.903,196.22 298.903,191.088Z" style="fill:rgb(248,179,147);"/>
                </g>
                <g transform="matrix(1.66533e-16,-0.584711,0.881475,5.55112e-16,128.649,327.512)">
                    <path d="M298.903,191.088C298.903,185.955 291.776,181.788 282.998,181.788L233.564,181.788C224.786,181.788 217.659,185.955 217.659,191.088C217.659,196.22 224.786,200.387 233.564,200.387L282.998,200.387C291.776,200.387 298.903,196.22 298.903,191.088Z" style="fill:rgb(248,179,147);"/>
                </g>
            </g>
        </g>
        <g transform="matrix(0.555795,0.555795,-0.707107,0.707107,382.422,-17.541)">
            <path d="M298.903,191.088C298.903,185.955 293.602,181.788 287.072,181.788L229.491,181.788C222.961,181.788 217.659,185.955 217.659,191.088C217.659,196.22 222.961,200.387 229.491,200.387L287.072,200.387C293.602,200.387 298.903,196.22 298.903,191.088Z" style="fill:rgb(254,210,165);"/>
            <clipPath id="_clip4">
                <path d="M298.903,191.088C298.903,185.955 293.602,181.788 287.072,181.788L229.491,181.788C222.961,181.788 217.659,185.955 217.659,191.088C217.659,196.22 222.961,200.387 229.491,200.387L287.072,200.387C293.602,200.387 298.903,196.22 298.903,191.088Z"/>
            </clipPath>
            <g clip-path="url(#_clip4)">
                <g transform="matrix(1,0,0,1,-5.68434e-14,9.056)">
                    <path d="M298.903,191.088C298.903,185.955 293.602,181.788 287.072,181.788L229.491,181.788C222.961,181.788 217.659,185.955 217.659,191.088C217.659,196.22 222.961,200.387 229.491,200.387L287.072,200.387C293.602,200.387 298.903,196.22 298.903,191.088Z" style="fill:rgb(248,179,147);"/>
                </g>
            </g>
        </g>
        <g transform="matrix(0.413453,-0.413453,0.707107,0.707107,154.675,259.041)">
            <path d="M298.903,191.088C298.903,185.955 291.776,181.788 282.998,181.788L233.564,181.788C224.786,181.788 217.659,185.955 217.659,191.088C217.659,196.22 224.786,200.387 233.564,200.387L282.998,200.387C291.776,200.387 298.903,196.22 298.903,191.088Z" style="fill:rgb(254,210,165);"/>
            <clipPath id="_clip5">
                <path d="M298.903,191.088C298.903,185.955 291.776,181.788 282.998,181.788L233.564,181.788C224.786,181.788 217.659,185.955 217.659,191.088C217.659,196.22 224.786,200.387 233.564,200.387L282.998,200.387C291.776,200.387 298.903,196.22 298.903,191.088Z"/>
            </clipPath>
            <g clip-path="url(#_clip5)">
                <g transform="matrix(1.12768,0,-4.7244e-16,1,-38.1635,8.08121)">
                    <path d="M298.903,191.088C298.903,185.955 292.583,181.788 284.799,181.788L231.763,181.788C223.979,181.788 217.659,185.955 217.659,191.088C217.659,196.22 223.979,200.387 231.763,200.387L284.799,200.387C292.583,200.387 298.903,196.22 298.903,191.088Z" style="fill:rgb(248,179,147);"/>
                </g>
            </g>
        </g>
        <g transform="matrix(0.947513,-0.947513,0.707107,0.707107,-13.6013,361.229)">
            <path d="M298.903,191.088C298.903,185.955 295.793,181.788 291.963,181.788L224.599,181.788C220.769,181.788 217.659,185.955 217.659,191.088C217.659,196.22 220.769,200.387 224.599,200.387L291.963,200.387C295.793,200.387 298.903,196.22 298.903,191.088Z" style="fill:rgb(254,210,165);"/>
            <clipPath id="_clip6">
                <path d="M298.903,191.088C298.903,185.955 295.793,181.788 291.963,181.788L224.599,181.788C220.769,181.788 217.659,185.955 217.659,191.088C217.659,196.22 220.769,200.387 224.599,200.387L291.963,200.387C295.793,200.387 298.903,196.22 298.903,191.088Z"/>
            </clipPath>
            <g clip-path="url(#_clip6)">
                <g transform="matrix(1,0,0,1,2.84217e-14,9.46697)">
                    <path d="M298.903,191.088C298.903,185.955 295.793,181.788 291.963,181.788L224.599,181.788C220.769,181.788 217.659,185.955 217.659,191.088C217.659,196.22 220.769,200.387 224.599,200.387L291.963,200.387C295.793,200.387 298.903,196.22 298.903,191.088Z" style="fill:rgb(248,179,147);"/>
                </g>
            </g>
        </g>
        <g transform="matrix(0.413453,-0.413453,0.707107,0.707107,116.229,170.129)">
            <path d="M298.903,191.088C298.903,185.955 291.776,181.788 282.998,181.788L233.564,181.788C224.786,181.788 217.659,185.955 217.659,191.088C217.659,196.22 224.786,200.387 233.564,200.387L282.998,200.387C291.776,200.387 298.903,196.22 298.903,191.088Z" style="fill:rgb(254,210,165);"/>
            <clipPath id="_clip7">
                <path d="M298.903,191.088C298.903,185.955 291.776,181.788 282.998,181.788L233.564,181.788C224.786,181.788 217.659,185.955 217.659,191.088C217.659,196.22 224.786,200.387 233.564,200.387L282.998,200.387C291.776,200.387 298.903,196.22 298.903,191.088Z"/>
            </clipPath>
            <g clip-path="url(#_clip7)">
                <g transform="matrix(1,0,-4.44089e-16,1,-16.8643,9.15552)">
                    <path d="M298.903,191.088C298.903,185.955 291.776,181.788 282.998,181.788L233.564,181.788C224.786,181.788 217.659,185.955 217.659,191.088C217.659,196.22 224.786,200.387 233.564,200.387L282.998,200.387C291.776,200.387 298.903,196.22 298.903,191.088Z" style="fill:rgb(248,179,147);"/>
                </g>
            </g>
        </g>
        <g transform="matrix(0.329991,-0.329991,0.774549,0.774549,145.047,153.617)">
            <rect x="235.484" y="196.574" width="52.199" height="18.439" style="fill:rgb(58,189,218);"/>
        </g>
        <g transform="matrix(0.553321,0.553321,-0.774549,0.774549,412.081,-86.7591)">
            <path d="M287.683,198.418C287.683,197.4 286.527,196.574 285.102,196.574L238.066,196.574C236.641,196.574 235.484,197.4 235.484,198.418L235.484,213.169C235.484,214.187 236.641,215.013 238.066,215.013L285.102,215.013C286.527,215.013 287.683,214.187 287.683,213.169L287.683,198.418Z" style="fill:rgb(58,189,218);"/>
            <clipPath id="_clip8">
                <path d="M287.683,198.418C287.683,197.4 286.527,196.574 285.102,196.574L238.066,196.574C236.641,196.574 235.484,197.4 235.484,198.418L235.484,213.169C235.484,214.187 236.641,215.013 238.066,215.013L285.102,215.013C286.527,215.013 287.683,214.187 287.683,213.169L287.683,198.418Z"/>
            </clipPath>
            <g clip-path="url(#_clip8)">
                <g transform="matrix(1,5.55112e-17,5.55112e-17,0.483907,5.68434e-14,110.967)">
                    <rect x="235.484" y="196.574" width="52.199" height="18.439" style="fill:rgb(32,149,175);"/>
                </g>
            </g>
        </g>
        <g transform="matrix(0.286598,-0.286598,0.371824,0.371824,241.857,229.99)">
            <rect x="235.484" y="196.574" width="52.199" height="18.439" style="fill:rgb(32,149,175);"/>
        </g>
        <g transform="matrix(-0.352778,-0.352778,0.774549,-0.774549,319.886,508.828)">
            <path d="M287.683,196.574L239.533,196.574C237.298,196.574 235.484,197.4 235.484,198.418L235.484,213.169C235.484,214.187 237.298,215.013 239.533,215.013L287.683,215.013L287.683,196.574Z" style="fill:rgb(160,205,92);"/>
            <clipPath id="_clip9">
                <path d="M287.683,196.574L239.533,196.574C237.298,196.574 235.484,197.4 235.484,198.418L235.484,213.169C235.484,214.187 237.298,215.013 239.533,215.013L287.683,215.013L287.683,196.574Z"/>
            </clipPath>
            <g clip-path="url(#_clip9)">
                <g transform="matrix(1,2.77556e-17,-1.11022e-16,0.517525,-5.32411,94.842)">
                    <rect x="235.484" y="196.574" width="52.199" height="18.439" style="fill:rgb(136,181,69);"/>
                </g>
            </g>
        </g>
        <g transform="matrix(0.515897,-0.515897,0.780513,0.780513,74.278,222.019)">
            <path d="M287.683,196.574L238.274,196.574C236.734,196.574 235.484,197.4 235.484,198.418L235.484,213.169C235.484,214.187 236.734,215.013 238.274,215.013L287.683,215.013L287.683,196.574Z" style="fill:rgb(160,205,92);"/>
            <clipPath id="_clip10">
                <path d="M287.683,196.574L238.274,196.574C236.734,196.574 235.484,197.4 235.484,198.418L235.484,213.169C235.484,214.187 236.734,215.013 238.274,215.013L287.683,215.013L287.683,196.574Z"/>
            </clipPath>
            <g clip-path="url(#_clip10)">
                <g transform="matrix(1.00108,0,3.88578e-16,0.483779,-0.34016,111.004)">
                    <rect x="235.484" y="196.574" width="52.199" height="18.439" style="fill:rgb(136,181,69);"/>
                </g>
            </g>
        </g>
        <g transform="matrix(1,0,0,1,-215.614,4.81626)">
            <path d="M616.02,193.949C608.95,193.974 601.762,157.498 640.134,161.795C649.823,162.88 653.034,169.065 654.077,173.599C654.337,174.804 654.044,176.063 653.279,177.031C652.514,177.999 651.357,178.574 650.124,178.599C643.449,178.746 630.735,179.011 622.858,179.175C619.059,179.254 616.02,182.356 616.02,186.156C616.02,189.966 616.02,193.949 616.02,193.949Z" style="fill:rgb(200,113,85);"/>
        </g>
    </g>
</svg>
