<?xml version="1.0" encoding="UTF-8" standalone="no"?>
<!DOCTYPE svg PUBLIC "-//W3C//DTD SVG 1.1//EN" "http://www.w3.org/Graphics/SVG/1.1/DTD/svg11.dtd">
<svg width="100%" height="100%" viewBox="0 0 512 512" version="1.1" xmlns="http://www.w3.org/2000/svg" xmlns:xlink="http://www.w3.org/1999/xlink" xml:space="preserve" xmlns:serif="http://www.serif.com/" style="fill-rule:evenodd;clip-rule:evenodd;stroke-linejoin:round;stroke-miterlimit:2;">
    <g id="SpeedShoeIcon" transform="matrix(2.89659,0,0,2.89659,-1685.01,-469.91)">
        <g transform="matrix(1,0,0,1,60.4331,3.80691)">
            <g transform="matrix(1,0,0,1,4.94477,29.5177)">
                <path d="M596.045,149.59C590.301,146.28 567.017,162.197 564.175,164.526C561.298,166.884 555.511,170.134 553.708,178.037C551.906,185.94 571.769,224.152 590.415,247.668C609.061,271.185 632.376,282.777 652.593,284.836C672.811,286.895 683.912,283.307 686.993,278.487C690.075,273.667 691.69,262.739 683.537,255.206C675.385,247.673 665.297,244.072 665.297,244.072C665.297,244.072 649.612,217.194 646.872,180.767C646.496,175.77 639.147,173.334 637.044,180.198C634.093,189.828 611.232,186.967 603.942,176.75C597.322,167.472 601.79,152.901 596.045,149.59Z" style="fill:rgb(255,56,69);"/>
                <clipPath id="_clip1">
                    <path d="M596.045,149.59C590.301,146.28 567.017,162.197 564.175,164.526C561.298,166.884 555.511,170.134 553.708,178.037C551.906,185.94 571.769,224.152 590.415,247.668C609.061,271.185 632.376,282.777 652.593,284.836C672.811,286.895 683.912,283.307 686.993,278.487C690.075,273.667 691.69,262.739 683.537,255.206C675.385,247.673 665.297,244.072 665.297,244.072C665.297,244.072 649.612,217.194 646.872,180.767C646.496,175.77 639.147,173.334 637.044,180.198C634.093,189.828 611.232,186.967 603.942,176.75C597.322,167.472 601.79,152.901 596.045,149.59Z"/>
                </clipPath>
                <g clip-path="url(#_clip1)">
                    <g transform="matrix(1,0,0,1,7.17177,-4.54628)">
                        <path d="M655.769,260.106C639.415,248.858 625.62,193.859 628.532,178.12C631.443,162.381 654.121,172.633 654.121,172.633L670.906,253.297C670.906,253.297 659.34,262.562 655.769,260.106Z" style="fill:rgb(199,31,51);"/>
                    </g>
                    <g transform="matrix(1,0,0,1,2.10307,0.2076)">
                        <path d="M664.546,242.837C664.546,242.837 638.31,262.985 637.402,268.277C631.215,304.324 689.643,289.16 691.498,276.225C691.498,276.225 701.676,266.278 699.803,262.877C697.93,259.476 674.195,238.197 674.195,238.197L664.546,242.837Z" style="fill:rgb(243,230,197);"/>
                    </g>
                    <path d="M563.856,164.144C566.087,171.037 589.223,223.649 610.775,246.005C632.328,268.361 659.826,280.64 688.301,270.731C716.777,260.822 693.617,289.251 692.35,291.652C684.867,305.825 604.109,292.258 607.819,274.265C608.385,271.524 576.764,237.641 574.599,233.476C572.434,229.31 549.251,195.05 548.642,192.99C548.033,190.931 542.45,169.017 542.45,169.017C542.45,169.017 561.626,157.251 563.856,164.144Z" style="fill:rgb(231,211,166);"/>
                </g>
            </g>
            <g transform="matrix(0.978932,-0.204188,0.204188,0.978932,-22.0229,167.745)">
                <path d="M653.721,199.264C653.721,197.463 652.258,196.001 650.457,196.001L632.474,196.001C630.673,196.001 629.21,197.463 629.21,199.264C629.21,201.066 630.673,202.528 632.474,202.528L650.457,202.528C652.258,202.528 653.721,201.066 653.721,199.264Z" style="fill:rgb(231,212,167);"/>
            </g>
            <g transform="matrix(0.978932,-0.204188,0.204188,0.978932,-17.1619,186.426)">
                <path d="M653.721,199.264C653.721,197.463 652.258,196.001 650.457,196.001L632.474,196.001C630.673,196.001 629.21,197.463 629.21,199.264C629.21,201.066 630.673,202.528 632.474,202.528L650.457,202.528C652.258,202.528 653.721,201.066 653.721,199.264Z" style="fill:rgb(231,212,167);"/>
            </g>
        </g>
        <g transform="matrix(1,0,0,1,332.355,23.6176)">
            <path d="M290.897,252.677C290.897,250.779 289.356,249.237 287.457,249.237L256.407,249.237C254.509,249.237 252.967,250.779 252.967,252.677C252.967,254.576 254.509,256.117 256.407,256.117L287.457,256.117C289.356,256.117 290.897,254.576 290.897,252.677Z" style="fill:rgb(177,223,255);"/>
        </g>
        <g transform="matrix(1,0,0,1,352.236,40.5978)">
            <path d="M290.897,252.677C290.897,250.779 289.356,249.237 287.457,249.237L256.407,249.237C254.509,249.237 252.967,250.779 252.967,252.677C252.967,254.576 254.509,256.117 256.407,256.117L287.457,256.117C289.356,256.117 290.897,254.576 290.897,252.677Z" style="fill:rgb(177,223,255);"/>
        </g>
    </g>
</svg>
