<?xml version="1.0" encoding="UTF-8" standalone="no"?>
<!DOCTYPE svg PUBLIC "-//W3C//DTD SVG 1.1//EN" "http://www.w3.org/Graphics/SVG/1.1/DTD/svg11.dtd">
<svg width="100%" height="100%" viewBox="0 0 512 512" version="1.1" xmlns="http://www.w3.org/2000/svg" xmlns:xlink="http://www.w3.org/1999/xlink" xml:space="preserve" xmlns:serif="http://www.serif.com/" style="fill-rule:evenodd;clip-rule:evenodd;stroke-linejoin:round;stroke-miterlimit:2;">
    <g id="MagicStickIcon" transform="matrix(2.88675,0,0,2.88675,-11507.5,-1271.69)">
        <g transform="matrix(0.641911,0,0,0.641911,1408.06,224.955)">
            <path d="M4055,415.128L4061.21,431.907L4077.99,438.116L4061.21,444.324L4055,461.103L4048.79,444.324L4032.01,438.116L4048.79,431.907L4055,415.128Z" style="fill:white;"/>
        </g>
        <g transform="matrix(0.263085,0,0,0.263085,3014.44,337.009)">
            <path d="M4055,415.128L4061.21,431.907L4077.99,438.116L4061.21,444.324L4055,461.103L4048.79,444.324L4032.01,438.116L4048.79,431.907L4055,415.128Z" style="fill:white;"/>
        </g>
        <g transform="matrix(0.431125,0,0,0.431125,2395.59,329.017)">
            <path d="M4055,415.128L4061.21,431.907L4077.99,438.116L4061.21,444.324L4055,461.103L4048.79,444.324L4032.01,438.116L4048.79,431.907L4055,415.128Z" style="fill:white;"/>
        </g>
        <g transform="matrix(2.28796,0,0,3.7967,-6097.77,-13081.8)">
            <path d="M4442.97,3581.99L4454.05,3582.02C4454.05,3582.02 4453.04,3597.72 4452.77,3601.92C4452.74,3602.5 4452.26,3602.94 4451.68,3602.94L4445.34,3602.94C4444.76,3602.94 4444.28,3602.5 4444.25,3601.92C4443.98,3597.72 4442.97,3581.99 4442.97,3581.99Z" style="fill:rgb(171,111,112);"/>
            <clipPath id="_clip1">
                <path d="M4442.97,3581.99L4454.05,3582.02C4454.05,3582.02 4453.04,3597.72 4452.77,3601.92C4452.74,3602.5 4452.26,3602.94 4451.68,3602.94L4445.34,3602.94C4444.76,3602.94 4444.28,3602.5 4444.25,3601.92C4443.98,3597.72 4442.97,3581.99 4442.97,3581.99Z"/>
            </clipPath>
            <g clip-path="url(#_clip1)">
                <g transform="matrix(0.234986,0,0,0.236229,4066.73,3355.64)">
                    <rect x="1624.54" y="986.082" width="31.589" height="58.469" style="fill:rgb(132,82,82);"/>
                </g>
            </g>
        </g>
        <g transform="matrix(2.37304,-1.30108e-16,5.2456e-16,18.6379,-667.747,-10841.6)">
            <path d="M2006.07,608.802C2006.07,608.432 2003.71,608.132 2000.81,608.132C1997.9,608.132 1995.54,608.432 1995.54,608.802L1995.54,613.871C1995.54,614.241 1997.9,614.542 2000.81,614.542C2003.71,614.542 2006.07,614.241 2006.07,613.871L2006.07,608.802Z" style="fill:rgb(171,111,112);"/>
            <clipPath id="_clip2">
                <path d="M2006.07,608.802C2006.07,608.432 2003.71,608.132 2000.81,608.132C1997.9,608.132 1995.54,608.432 1995.54,608.802L1995.54,613.871C1995.54,614.241 1997.9,614.542 2000.81,614.542C2003.71,614.542 2006.07,614.241 2006.07,613.871L2006.07,608.802Z"/>
            </clipPath>
            <g clip-path="url(#_clip2)">
                <g transform="matrix(0.383021,-1.09644e-16,-3.44351e-15,-0.607349,1443.07,933.756)">
                    <rect x="1456.06" y="524.978" width="18.008" height="12.903" style="fill:rgb(132,82,82);"/>
                </g>
            </g>
        </g>
        <g transform="matrix(1.74414,1.74414,0.786297,-0.786297,-3473.81,-6185.02)">
            <path d="M4086.29,527.358L4112.38,542.916L4086.29,558.474L4060.21,542.916L4086.29,527.358Z" style="fill:rgb(214,218,226);"/>
            <clipPath id="_clip3">
                <path d="M4086.29,527.358L4112.38,542.916L4086.29,558.474L4060.21,542.916L4086.29,527.358Z"/>
            </clipPath>
            <g clip-path="url(#_clip3)">
                <g transform="matrix(0.470058,1.04267,0.470058,-1.04267,2845.64,-92.8407)">
                    <rect x="1624.54" y="986.082" width="31.589" height="58.469" style="fill:rgb(174,180,193);"/>
                </g>
            </g>
        </g>
        <g transform="matrix(-1.74414,1.74414,-0.786297,-0.786297,11634.1,-6185.02)">
            <path d="M4086.29,527.358L4112.38,542.916L4086.29,558.474L4060.21,542.916L4086.29,527.358Z" style="fill:rgb(214,218,226);"/>
            <clipPath id="_clip4">
                <path d="M4086.29,527.358L4112.38,542.916L4086.29,558.474L4060.21,542.916L4086.29,527.358Z"/>
            </clipPath>
            <g clip-path="url(#_clip4)">
                <g transform="matrix(-0.470058,-1.04267,0.470058,-1.04267,4372.91,3294.9)">
                    <rect x="1624.54" y="986.082" width="31.589" height="58.469" style="fill:rgb(174,180,193);"/>
                </g>
            </g>
        </g>
        <g transform="matrix(1.47971,0,0,-1.47971,-1956.7,1460.32)">
            <circle cx="4079.81" cy="638.742" r="25.907" style="fill:rgb(214,218,226);"/>
            <clipPath id="_clip5">
                <circle cx="4079.81" cy="638.742" r="25.907"/>
            </clipPath>
            <g clip-path="url(#_clip5)">
                <g transform="matrix(1.10812,0,0,-1.10812,2279.56,1763.27)">
                    <rect x="1624.54" y="986.082" width="31.589" height="58.469" style="fill:rgb(174,180,193);"/>
                </g>
            </g>
        </g>
    </g>
</svg>
