<?xml version="1.0" encoding="UTF-8" standalone="no"?>
<!DOCTYPE svg PUBLIC "-//W3C//DTD SVG 1.1//EN" "http://www.w3.org/Graphics/SVG/1.1/DTD/svg11.dtd">
<svg width="100%" height="100%" viewBox="0 0 512 512" version="1.1" xmlns="http://www.w3.org/2000/svg" xmlns:xlink="http://www.w3.org/1999/xlink" xml:space="preserve" xmlns:serif="http://www.serif.com/" style="fill-rule:evenodd;clip-rule:evenodd;stroke-linejoin:round;stroke-miterlimit:2;">
    <g id="SwordIcon" transform="matrix(6.01056,0,-1.04167e-14,5.44751,-9191.46,-3735.49)">
        <g transform="matrix(1.40198,-1.21531e-32,4.80262e-32,5.54029,-1232.88,-2627.83)">
            <path d="M2006.07,609.602C2006.07,608.79 2003.71,608.132 2000.81,608.132C1997.9,608.132 1995.54,608.79 1995.54,609.602L1995.54,613.071C1995.54,613.883 1997.9,614.542 2000.81,614.542C2003.71,614.542 2006.07,613.883 2006.07,613.071L2006.07,609.602Z" style="fill:rgb(194,133,70);"/>
            <clipPath id="_clip1">
                <path d="M2006.07,609.602C2006.07,608.79 2003.71,608.132 2000.81,608.132C1997.9,608.132 1995.54,608.79 1995.54,609.602L1995.54,613.071C1995.54,613.883 1997.9,614.542 2000.81,614.542C2003.71,614.542 2006.07,613.883 2006.07,613.071L2006.07,609.602Z"/>
            </clipPath>
            <g clip-path="url(#_clip1)">
                <g transform="matrix(0.849956,-2.59478e-16,1.37612e-15,-0.93159,763.123,1105.83)">
                    <rect x="1456.06" y="524.978" width="18.008" height="12.903" style="fill:rgb(132,79,59);"/>
                </g>
            </g>
        </g>
        <g transform="matrix(1.27038,0,1.30923e-15,1.27038,576.886,-5649.45)">
            <path d="M782.893,4989.38C782.958,4989.18 783.152,4989.03 783.371,4989.03C783.59,4989.03 783.783,4989.18 783.848,4989.39C784.86,4992.65 787.168,5000.09 787.573,5001.39C787.614,5001.52 787.641,5001.66 787.654,5001.8C787.846,5003.8 789.378,5019.89 789.696,5023.22C789.733,5023.61 789.886,5023.98 790.134,5024.29C790.553,5024.8 791.219,5025.62 791.637,5026.14C791.886,5026.44 792.039,5026.82 792.076,5027.21C792.236,5028.89 792.693,5033.69 792.964,5036.53C793.018,5037.09 792.832,5037.65 792.453,5038.07C792.074,5038.48 791.537,5038.72 790.973,5038.72C787.196,5038.72 779.521,5038.72 775.744,5038.72C775.18,5038.72 774.643,5038.48 774.264,5038.07C773.885,5037.65 773.699,5037.09 773.753,5036.53C774.024,5033.69 774.481,5028.89 774.641,5027.21C774.678,5026.82 774.831,5026.44 775.08,5026.14C775.498,5025.62 776.164,5024.8 776.582,5024.29C776.831,5023.98 776.984,5023.61 777.021,5023.22C777.338,5019.89 778.87,5003.81 779.062,5001.8C779.076,5001.66 779.103,5001.52 779.144,5001.39C779.553,5000.08 781.875,4992.65 782.893,4989.38Z" style="fill:rgb(187,194,207);"/>
            <clipPath id="_clip2">
                <path d="M782.893,4989.38C782.958,4989.18 783.152,4989.03 783.371,4989.03C783.59,4989.03 783.783,4989.18 783.848,4989.39C784.86,4992.65 787.168,5000.09 787.573,5001.39C787.614,5001.52 787.641,5001.66 787.654,5001.8C787.846,5003.8 789.378,5019.89 789.696,5023.22C789.733,5023.61 789.886,5023.98 790.134,5024.29C790.553,5024.8 791.219,5025.62 791.637,5026.14C791.886,5026.44 792.039,5026.82 792.076,5027.21C792.236,5028.89 792.693,5033.69 792.964,5036.53C793.018,5037.09 792.832,5037.65 792.453,5038.07C792.074,5038.48 791.537,5038.72 790.973,5038.72C787.196,5038.72 779.521,5038.72 775.744,5038.72C775.18,5038.72 774.643,5038.48 774.264,5038.07C773.885,5037.65 773.699,5037.09 773.753,5036.53C774.024,5033.69 774.481,5028.89 774.641,5027.21C774.678,5026.82 774.831,5026.44 775.08,5026.14C775.498,5025.62 776.164,5024.8 776.582,5024.29C776.831,5023.98 776.984,5023.61 777.021,5023.22C777.338,5019.89 778.87,5003.81 779.062,5001.8C779.076,5001.66 779.103,5001.52 779.144,5001.39C779.553,5000.08 781.875,4992.65 782.893,4989.38Z"/>
            </clipPath>
            <g clip-path="url(#_clip2)">
                <g transform="matrix(0.787164,0,-8.11235e-16,0.787164,-787.263,4558.27)">
                    <rect x="1995.31" y="535.569" width="25.453" height="81.234" style="fill:rgb(111,122,144);"/>
                </g>
            </g>
        </g>
        <g transform="matrix(3.65267,-3.27053e-17,3.07848e-16,2.0605,-5736.48,-509.73)">
            <path d="M2006.07,609.993C2006.07,608.966 2005.65,608.132 2005.12,608.132L1996.49,608.132C1995.97,608.132 1995.54,608.966 1995.54,609.993L1995.54,612.68C1995.54,613.708 1995.97,614.542 1996.49,614.542L2005.12,614.542C2005.65,614.542 2006.07,613.708 2006.07,612.68L2006.07,609.993Z" style="fill:rgb(233,195,101);"/>
            <clipPath id="_clip3">
                <path d="M2006.07,609.993C2006.07,608.966 2005.65,608.132 2005.12,608.132L1996.49,608.132C1995.97,608.132 1995.54,608.966 1995.54,609.993L1995.54,612.68C1995.54,613.708 1995.97,614.542 1996.49,614.542L2005.12,614.542C2005.65,614.542 2006.07,613.708 2006.07,612.68L2006.07,609.993Z"/>
            </clipPath>
            <g clip-path="url(#_clip3)">
                <g transform="matrix(0.347795,5.5204e-18,3.1034e-16,0.727342,1643.88,-3046.52)">
                    <rect x="1026.44" y="5017.19" width="15.795" height="21.361" style="fill:rgb(207,127,70);"/>
                </g>
            </g>
        </g>
    </g>
</svg>
