<?xml version="1.0" encoding="UTF-8" standalone="no"?>
<!DOCTYPE svg PUBLIC "-//W3C//DTD SVG 1.1//EN" "http://www.w3.org/Graphics/SVG/1.1/DTD/svg11.dtd">
<svg width="100%" height="100%" viewBox="0 0 512 512" version="1.1" xmlns="http://www.w3.org/2000/svg" xmlns:xlink="http://www.w3.org/1999/xlink" xml:space="preserve" xmlns:serif="http://www.serif.com/" style="fill-rule:evenodd;clip-rule:evenodd;stroke-linejoin:round;stroke-miterlimit:2;">
    <g id="Sword" transform="matrix(3.07529,3.07529,-3.54861,3.54861,-7306.03,-21649.7)">
        <g transform="matrix(0.239147,-2.20105e-17,-6.76407e-17,0.159225,4728.34,1975.73)">
            <path d="M346.68,-10.094L262.717,-154.14L176.763,-10.094L176.763,457.638L346.68,457.638L346.68,-10.094Z" style="fill:rgb(183,194,214);"/>
            <clipPath id="_clip1">
                <path d="M346.68,-10.094L262.717,-154.14L176.763,-10.094L176.763,457.638L346.68,457.638L346.68,-10.094Z"/>
            </clipPath>
            <g clip-path="url(#_clip1)">
                <g transform="matrix(5.50464,1.18472,3.06131e-15,6.52453,-3474.29,-29397.3)">
                    <rect x="678.774" y="4336.07" width="30.679" height="116.931" style="fill:rgb(107,121,149);"/>
                </g>
            </g>
        </g>
        <g transform="matrix(0.957992,0,0,1.00949,4084.32,-2434.14)">
            <rect x="728.424" y="4447.01" width="18.332" height="22.372" style="fill:rgb(133,101,89);"/>
            <clipPath id="_clip2">
                <rect x="728.424" y="4447.01" width="18.332" height="22.372"/>
            </clipPath>
            <g clip-path="url(#_clip2)">
                <g transform="matrix(0.340211,-1.1614e-17,-3.27611e-35,0.156957,506.736,3766.94)">
                    <rect x="678.774" y="4336.07" width="30.679" height="116.931" style="fill:rgb(101,77,68);"/>
                </g>
            </g>
        </g>
        <g transform="matrix(0.866877,0,0,0.965803,4151.56,-2237.77)">
            <path d="M749.186,4464.14L725.914,4464.14L725.914,4469.11C725.914,4474.11 731.128,4478.17 737.55,4478.17C743.972,4478.17 749.186,4474.11 749.186,4469.11L749.186,4464.14Z" style="fill:rgb(178,108,83);"/>
            <clipPath id="_clip3">
                <path d="M749.186,4464.14L725.914,4464.14L725.914,4469.11C725.914,4474.11 731.128,4478.17 737.55,4478.17C743.972,4478.17 749.186,4474.11 749.186,4469.11L749.186,4464.14Z"/>
            </clipPath>
            <g clip-path="url(#_clip3)">
                <g transform="matrix(0.441482,-1.06588e-17,-4.25132e-35,0.144048,437.955,3838.08)">
                    <rect x="678.774" y="4336.07" width="30.679" height="116.931" style="fill:rgb(132,79,59);"/>
                </g>
            </g>
        </g>
        <g transform="matrix(0.953673,0,0,1.05723,4087.29,-2645.5)">
            <path d="M758.649,4448.58C759.332,4448.58 759.939,4448.17 760.161,4447.55C760.906,4445.49 762.599,4439.84 763.572,4437.14C763.74,4436.68 763.661,4436.17 763.361,4435.77C763.061,4435.37 762.577,4435.13 762.061,4435.13C753.413,4435.13 722.22,4435.13 713.571,4435.13C713.055,4435.13 712.571,4435.37 712.271,4435.77C711.971,4436.17 711.892,4436.68 712.06,4437.14C713.033,4439.84 714.726,4445.49 715.471,4447.55C715.693,4448.17 716.3,4448.58 716.983,4448.58C723.153,4448.58 752.479,4448.58 758.649,4448.58Z" style="fill:rgb(233,160,58);"/>
            <clipPath id="_clip4">
                <path d="M758.649,4448.58C759.332,4448.58 759.939,4448.17 760.161,4447.55C760.906,4445.49 762.599,4439.84 763.572,4437.14C763.74,4436.68 763.661,4436.17 763.361,4435.77C763.061,4435.37 762.577,4435.13 762.061,4435.13C753.413,4435.13 722.22,4435.13 713.571,4435.13C713.055,4435.13 712.571,4435.37 712.271,4435.77C711.971,4436.17 711.892,4436.68 712.06,4437.14C713.033,4439.84 714.726,4445.49 715.471,4447.55C715.693,4448.17 716.3,4448.58 716.983,4448.58C723.153,4448.58 752.479,4448.58 758.649,4448.58Z"/>
            </clipPath>
            <g clip-path="url(#_clip4)">
                <g transform="matrix(0.885096,-1.18235e-17,-8.52316e-35,0.159787,137.108,3739.78)">
                    <rect x="678.774" y="4336.07" width="30.679" height="116.931" style="fill:rgb(199,134,69);"/>
                </g>
            </g>
        </g>
    </g>
</svg>
