<?xml version="1.0" encoding="UTF-8" standalone="no"?>
<!DOCTYPE svg PUBLIC "-//W3C//DTD SVG 1.1//EN" "http://www.w3.org/Graphics/SVG/1.1/DTD/svg11.dtd">
<svg width="100%" height="100%" viewBox="0 0 512 512" version="1.1" xmlns="http://www.w3.org/2000/svg" xmlns:xlink="http://www.w3.org/1999/xlink" xml:space="preserve" xmlns:serif="http://www.serif.com/" style="fill-rule:evenodd;clip-rule:evenodd;stroke-linejoin:round;stroke-miterlimit:2;">
    <g id="TalkIconColored" transform="matrix(8.09123,0,0,7.67846,-34575.3,-13627.9)">
        <g transform="matrix(-0.414855,0,0,0.437156,4491.81,1707.85)">
            <path d="M433.61,199.19C451.08,199.19 431.692,215.991 441.794,226.064C449.285,233.534 488.734,232.65 488.734,242.928C488.734,267.068 464.034,286.667 433.61,286.667C403.187,286.667 378.487,267.068 378.487,242.928C378.487,218.789 403.187,199.19 433.61,199.19Z" style="fill:rgb(36,132,177);"/>
            <path d="M394.819,267.97C394.819,267.97 388.526,276.002 384.672,280.92C384.176,281.553 384.108,282.422 384.499,283.125C384.889,283.828 385.663,284.229 386.463,284.142C395.258,283.186 413.279,281.227 413.279,281.227L394.819,267.97Z" style="fill:rgb(36,132,177);"/>
        </g>
        <g transform="matrix(0.414855,0,0,0.437156,4117.82,1696.08)">
            <g>
                <path d="M433.61,199.19C464.034,199.19 488.734,218.789 488.734,242.928C488.734,267.068 464.034,286.667 433.61,286.667C403.187,286.667 378.487,267.068 378.487,242.928C378.487,218.789 403.187,199.19 433.61,199.19ZM433.61,236.201C437.323,236.201 440.338,239.215 440.338,242.928C440.338,246.641 437.323,249.656 433.61,249.656C429.897,249.656 426.883,246.641 426.883,242.928C426.883,239.215 429.897,236.201 433.61,236.201ZM453.958,236.201C457.671,236.201 460.686,239.215 460.686,242.928C460.686,246.641 457.671,249.656 453.958,249.656C450.245,249.656 447.231,246.641 447.231,242.928C447.231,239.215 450.245,236.201 453.958,236.201ZM413.262,236.201C416.975,236.201 419.99,239.215 419.99,242.928C419.99,246.641 416.975,249.656 413.262,249.656C409.549,249.656 406.535,246.641 406.535,242.928C406.535,239.215 409.549,236.201 413.262,236.201Z" style="fill:rgb(118,206,246);"/>
                <clipPath id="_clip1">
                    <path d="M433.61,199.19C464.034,199.19 488.734,218.789 488.734,242.928C488.734,267.068 464.034,286.667 433.61,286.667C403.187,286.667 378.487,267.068 378.487,242.928C378.487,218.789 403.187,199.19 433.61,199.19ZM433.61,236.201C437.323,236.201 440.338,239.215 440.338,242.928C440.338,246.641 437.323,249.656 433.61,249.656C429.897,249.656 426.883,246.641 426.883,242.928C426.883,239.215 429.897,236.201 433.61,236.201ZM453.958,236.201C457.671,236.201 460.686,239.215 460.686,242.928C460.686,246.641 457.671,249.656 453.958,249.656C450.245,249.656 447.231,246.641 447.231,242.928C447.231,239.215 450.245,236.201 453.958,236.201ZM413.262,236.201C416.975,236.201 419.99,239.215 419.99,242.928C419.99,246.641 416.975,249.656 413.262,249.656C409.549,249.656 406.535,246.641 406.535,242.928C406.535,239.215 409.549,236.201 413.262,236.201Z"/>
                </clipPath>
                <g clip-path="url(#_clip1)">
                    <rect x="433.687" y="184.334" width="73.012" height="109.833" style="fill:rgb(75,185,236);"/>
                </g>
            </g>
            <path d="M394.819,267.97C394.819,267.97 388.526,276.002 384.672,280.92C384.176,281.553 384.108,282.422 384.499,283.125C384.889,283.828 385.663,284.229 386.463,284.142C395.258,283.186 413.279,281.227 413.279,281.227L394.819,267.97Z" style="fill:rgb(118,206,246);"/>
        </g>
    </g>
</svg>
