<?xml version="1.0" encoding="UTF-8" standalone="no"?>
<!DOCTYPE svg PUBLIC "-//W3C//DTD SVG 1.1//EN" "http://www.w3.org/Graphics/SVG/1.1/DTD/svg11.dtd">
<svg width="100%" height="100%" viewBox="0 0 512 512" version="1.1" xmlns="http://www.w3.org/2000/svg" xmlns:xlink="http://www.w3.org/1999/xlink" xml:space="preserve" xmlns:serif="http://www.serif.com/" style="fill-rule:evenodd;clip-rule:evenodd;stroke-linejoin:round;stroke-miterlimit:2;">
    <g id="TelescopeIcon" transform="matrix(3.50214,0,0,3.50214,-1560.2,-1657.21)">
        <g transform="matrix(1,0,0,1,0.0541483,0)">
            <g transform="matrix(1.58346,0,0,1,-298.049,0)">
                <path d="M523.161,529.411C523.161,522.891 519.818,517.597 515.7,517.597C511.583,517.597 508.239,522.891 508.239,529.411L508.239,563.165C508.239,569.685 511.583,574.979 515.7,574.979C519.818,574.979 523.161,569.685 523.161,563.165L523.161,529.411Z" style="fill:rgb(83,101,125);"/>
                <clipPath id="_clip1">
                    <path d="M523.161,529.411C523.161,522.891 519.818,517.597 515.7,517.597C511.583,517.597 508.239,522.891 508.239,529.411L508.239,563.165C508.239,569.685 511.583,574.979 515.7,574.979C519.818,574.979 523.161,569.685 523.161,563.165L523.161,529.411Z"/>
                </clipPath>
                <g clip-path="url(#_clip1)">
                    <g transform="matrix(1,0,0,1,-2.22883,0)">
                        <rect x="517.881" y="510.207" width="14.643" height="70.895" style="fill:rgb(61,77,101);"/>
                    </g>
                </g>
            </g>
            <g transform="matrix(1.09878,0,0,1.09878,-51.8315,-55.9301)">
                <circle cx="519.098" cy="567.69" r="7.462" style="fill:rgb(83,101,125);"/>
            </g>
            <g transform="matrix(0.705614,0,0,0.705614,152.26,167.267)">
                <circle cx="519.098" cy="567.69" r="7.462" style="fill:rgb(61,77,101);"/>
            </g>
        </g>
        <g transform="matrix(1,0,0,1,-2.11957,0)">
            <g transform="matrix(0.566226,0,0,0.566226,219.412,206.081)">
                <path d="M456.56,534.857C457.715,520.756 469.547,509.656 483.953,509.656C498.359,509.656 510.191,520.756 511.345,534.857L511.353,534.857L515.777,583.021C516.068,584.666 516.227,586.356 516.241,588.081L516.262,588.309L516.243,588.309L516.243,588.345C516.243,605.113 502.63,618.726 485.862,618.726C469.095,618.726 455.482,605.113 455.482,588.345L455.482,588.309L455.462,588.309L455.483,588.081C455.498,586.356 455.657,584.666 455.948,583.021L456.553,534.857L456.56,534.857Z" style="fill:rgb(83,101,125);"/>
                <clipPath id="_clip2">
                    <path d="M456.56,534.857C457.715,520.756 469.547,509.656 483.953,509.656C498.359,509.656 510.191,520.756 511.345,534.857L511.353,534.857L515.777,583.021C516.068,584.666 516.227,586.356 516.241,588.081L516.262,588.309L516.243,588.309L516.243,588.345C516.243,605.113 502.63,618.726 485.862,618.726C469.095,618.726 455.482,605.113 455.482,588.345L455.482,588.309L455.462,588.309L455.483,588.081C455.498,586.356 455.657,584.666 455.948,583.021L456.553,534.857L456.56,534.857Z"/>
                </clipPath>
                <g clip-path="url(#_clip2)">
                    <g transform="matrix(1.12197,0,0,1.39715,-59.0207,-160.503)">
                        <rect x="483.964" y="475.357" width="33.381" height="60.929" style="fill:rgb(61,77,101);"/>
                    </g>
                </g>
            </g>
            <path d="M456.56,534.857C457.715,520.756 469.547,509.656 483.953,509.656C498.359,509.656 510.191,520.756 511.345,534.857L511.353,534.857L513.867,562.231C514.159,563.876 514.317,565.567 514.332,567.291L514.353,567.52L514.333,567.52L514.333,567.556C514.333,584.323 500.72,597.936 483.953,597.936C467.186,597.936 453.573,584.323 453.573,567.556L453.573,567.52L453.553,567.52L453.574,567.291C453.589,565.567 453.747,563.876 454.039,562.231L456.553,534.857L456.56,534.857Z" style="fill:rgb(83,101,125);"/>
            <clipPath id="_clip3">
                <path d="M456.56,534.857C457.715,520.756 469.547,509.656 483.953,509.656C498.359,509.656 510.191,520.756 511.345,534.857L511.353,534.857L513.867,562.231C514.159,563.876 514.317,565.567 514.332,567.291L514.353,567.52L514.333,567.52L514.333,567.556C514.333,584.323 500.72,597.936 483.953,597.936C467.186,597.936 453.573,584.323 453.573,567.556L453.573,567.52L453.553,567.52L453.574,567.291C453.589,565.567 453.747,563.876 454.039,562.231L456.553,534.857L456.56,534.857Z"/>
            </clipPath>
            <g clip-path="url(#_clip3)">
                <g transform="matrix(1.18324,0,0,1.52458,-88.681,-215.244)">
                    <rect x="483.964" y="475.357" width="33.381" height="60.929" style="fill:rgb(61,77,101);"/>
                </g>
            </g>
            <g transform="matrix(0.997125,0,0,0.997125,1.83456,1.63159)">
                <circle cx="483.508" cy="567.556" r="22.481" style="fill:rgb(75,204,255);"/>
                <clipPath id="_clip4">
                    <circle cx="483.508" cy="567.556" r="22.481"/>
                </clipPath>
                <g clip-path="url(#_clip4)">
                    <g transform="matrix(0.764667,0,0,0.827518,113.448,148.578)">
                        <rect x="483.964" y="475.357" width="33.381" height="60.929" style="fill:rgb(0,154,216);"/>
                    </g>
                    <g transform="matrix(1.00288,0,0,1.00288,-2.65198,-3.7403)">
                        <circle cx="475.618" cy="562.205" r="6.153" style="fill:white;"/>
                    </g>
                </g>
            </g>
        </g>
        <g transform="matrix(-1,0,0,1,1039.31,0)">
            <g transform="matrix(0.566226,0,0,0.566226,219.412,206.081)">
                <path d="M456.56,534.857C457.715,520.756 469.547,509.656 483.953,509.656C498.359,509.656 510.191,520.756 511.345,534.857L511.353,534.857L515.777,583.021C516.068,584.666 516.227,586.356 516.241,588.081L516.262,588.309L516.243,588.309L516.243,588.345C516.243,605.113 502.63,618.726 485.862,618.726C469.095,618.726 455.482,605.113 455.482,588.345L455.482,588.309L455.462,588.309L455.483,588.081C455.498,586.356 455.657,584.666 455.948,583.021L456.553,534.857L456.56,534.857Z" style="fill:rgb(61,77,101);"/>
                <clipPath id="_clip5">
                    <path d="M456.56,534.857C457.715,520.756 469.547,509.656 483.953,509.656C498.359,509.656 510.191,520.756 511.345,534.857L511.353,534.857L515.777,583.021C516.068,584.666 516.227,586.356 516.241,588.081L516.262,588.309L516.243,588.309L516.243,588.345C516.243,605.113 502.63,618.726 485.862,618.726C469.095,618.726 455.482,605.113 455.482,588.345L455.482,588.309L455.462,588.309L455.483,588.081C455.498,586.356 455.657,584.666 455.948,583.021L456.553,534.857L456.56,534.857Z"/>
                </clipPath>
                <g clip-path="url(#_clip5)">
                    <g transform="matrix(1.12197,0,0,1.39715,-59.0207,-160.503)">
                        <rect x="483.964" y="475.357" width="33.381" height="60.929" style="fill:rgb(83,101,125);"/>
                    </g>
                </g>
            </g>
            <path d="M456.56,534.857C457.715,520.756 469.547,509.656 483.953,509.656C498.359,509.656 510.191,520.756 511.345,534.857L511.353,534.857L513.867,562.231C514.159,563.876 514.317,565.567 514.332,567.291L514.353,567.52L514.333,567.52L514.333,567.556C514.333,584.323 500.72,597.936 483.953,597.936C467.186,597.936 453.573,584.323 453.573,567.556L453.573,567.52L453.553,567.52L453.574,567.291C453.589,565.567 453.747,563.876 454.039,562.231L456.553,534.857L456.56,534.857Z" style="fill:rgb(61,77,101);"/>
            <clipPath id="_clip6">
                <path d="M456.56,534.857C457.715,520.756 469.547,509.656 483.953,509.656C498.359,509.656 510.191,520.756 511.345,534.857L511.353,534.857L513.867,562.231C514.159,563.876 514.317,565.567 514.332,567.291L514.353,567.52L514.333,567.52L514.333,567.556C514.333,584.323 500.72,597.936 483.953,597.936C467.186,597.936 453.573,584.323 453.573,567.556L453.573,567.52L453.553,567.52L453.574,567.291C453.589,565.567 453.747,563.876 454.039,562.231L456.553,534.857L456.56,534.857Z"/>
            </clipPath>
            <g clip-path="url(#_clip6)">
                <g transform="matrix(1.18324,0,0,1.52458,-88.681,-215.244)">
                    <rect x="483.964" y="475.357" width="33.381" height="60.929" style="fill:rgb(83,101,125);"/>
                </g>
            </g>
            <g transform="matrix(0.997125,0,0,0.997125,1.83456,1.63159)">
                <circle cx="483.508" cy="567.556" r="22.481" style="fill:rgb(0,154,216);"/>
                <clipPath id="_clip7">
                    <circle cx="483.508" cy="567.556" r="22.481"/>
                </clipPath>
                <g clip-path="url(#_clip7)">
                    <g transform="matrix(0.764667,0,0,0.827518,113.448,148.578)">
                        <rect x="483.964" y="475.357" width="33.381" height="60.929" style="fill:rgb(75,204,255);"/>
                    </g>
                    <g transform="matrix(1.00288,0,0,1.00288,15.772,-3.7403)">
                        <circle cx="475.618" cy="562.205" r="6.153" style="fill:white;"/>
                    </g>
                </g>
            </g>
        </g>
    </g>
</svg>
