<?xml version="1.0" encoding="UTF-8" standalone="no"?>
<!DOCTYPE svg PUBLIC "-//W3C//DTD SVG 1.1//EN" "http://www.w3.org/Graphics/SVG/1.1/DTD/svg11.dtd">
<svg width="100%" height="100%" viewBox="0 0 512 512" version="1.1" xmlns="http://www.w3.org/2000/svg" xmlns:xlink="http://www.w3.org/1999/xlink" xml:space="preserve" xmlns:serif="http://www.serif.com/" style="fill-rule:evenodd;clip-rule:evenodd;stroke-linejoin:round;stroke-miterlimit:2;">
    <g id="TentIcon" transform="matrix(2.89803,0,0,2.89803,-3774.54,-1554.8)">
        <g transform="matrix(0.763677,0.440909,-0.0739468,0.12808,385.208,-114.112)">
            <path d="M1377.53,538.517C1377.53,532.43 1376.71,527.489 1375.68,527.489C1374.66,527.489 1373.84,532.43 1373.84,538.517L1373.84,681.878C1373.84,687.964 1374.66,692.905 1375.68,692.905C1376.71,692.905 1377.53,687.964 1377.53,681.878L1377.53,538.517Z" style="fill:white;"/>
        </g>
        <g transform="matrix(-0.763677,0.440909,0.0739468,0.12808,2396.12,-114.112)">
            <path d="M1377.53,538.517C1377.53,532.43 1376.71,527.489 1375.68,527.489C1374.66,527.489 1373.84,532.43 1373.84,538.517L1373.84,681.878C1373.84,687.964 1374.66,692.905 1375.68,692.905C1376.71,692.905 1377.53,687.964 1377.53,681.878L1377.53,538.517Z" style="fill:white;"/>
        </g>
        <g transform="matrix(1,0,0,1,-30.7963,229.429)">
            <path d="M1343.47,457.944C1345.39,441.499 1406.66,339.8 1421.57,340.373C1434.48,340.87 1494.64,442.72 1499.66,457.944C1499.85,458.512 1500.02,459.085 1499.73,459.611C1499.44,460.136 1498.89,460.463 1498.3,460.463C1478.32,460.463 1364.81,460.463 1344.83,460.463C1344.24,460.463 1343.69,460.136 1343.4,459.611C1343.12,459.085 1343.4,458.538 1343.47,457.944Z" style="fill:rgb(69,179,179);"/>
            <clipPath id="_clip1">
                <path d="M1343.47,457.944C1345.39,441.499 1406.66,339.8 1421.57,340.373C1434.48,340.87 1494.64,442.72 1499.66,457.944C1499.85,458.512 1500.02,459.085 1499.73,459.611C1499.44,460.136 1498.89,460.463 1498.3,460.463C1478.32,460.463 1364.81,460.463 1344.83,460.463C1344.24,460.463 1343.69,460.136 1343.4,459.611C1343.12,459.085 1343.4,458.538 1343.47,457.944Z"/>
            </clipPath>
            <g clip-path="url(#_clip1)">
                <g transform="matrix(1.61828,0,0,2.97993,-1113.69,-1310.08)">
                    <rect x="1566.65" y="548.674" width="51.963" height="49.371" style="fill:rgb(58,150,152);"/>
                </g>
            </g>
        </g>
        <g transform="matrix(1,0,0,1,-1.75698,20.5379)">
            <path d="M1364.86,669.33C1362.38,669.608 1386,615.923 1392.53,615.427C1399.13,614.925 1422.64,669.561 1420.2,669.33L1364.86,669.33Z" style="fill:rgb(239,200,74);"/>
            <clipPath id="_clip2">
                <path d="M1364.86,669.33C1362.38,669.608 1386,615.923 1392.53,615.427C1399.13,614.925 1422.64,669.561 1420.2,669.33L1364.86,669.33Z"/>
            </clipPath>
            <g clip-path="url(#_clip2)">
                <g transform="matrix(1.61828,0,0,1.30271,-1142.73,-105.267)">
                    <rect x="1566.65" y="548.674" width="51.963" height="49.371" style="fill:rgb(239,159,74);"/>
                </g>
            </g>
        </g>
    </g>
</svg>
