<?xml version="1.0" encoding="UTF-8" standalone="no"?>
<!DOCTYPE svg PUBLIC "-//W3C//DTD SVG 1.1//EN" "http://www.w3.org/Graphics/SVG/1.1/DTD/svg11.dtd">
<svg width="100%" height="100%" viewBox="0 0 512 512" version="1.1" xmlns="http://www.w3.org/2000/svg" xmlns:xlink="http://www.w3.org/1999/xlink" xml:space="preserve" xmlns:serif="http://www.serif.com/" style="fill-rule:evenodd;clip-rule:evenodd;stroke-linejoin:round;stroke-miterlimit:2;">
    <g id="TentIcon" transform="matrix(3.61056,0,0,3.61056,-5399.96,-1873.38)">
        <g transform="matrix(0.838444,0,0,1.17705,687.613,-270.053)">
            <rect x="1010.55" y="734.968" width="69.303" height="50.235" style="fill:rgb(239,200,74);"/>
            <clipPath id="_clip1">
                <rect x="1010.55" y="734.968" width="69.303" height="50.235"/>
            </clipPath>
            <g clip-path="url(#_clip1)">
                <g transform="matrix(1.19269,0,0,1.07635,-820.245,143.604)">
                    <rect x="1566.65" y="548.674" width="51.963" height="49.371" style="fill:rgb(239,159,74);"/>
                </g>
            </g>
        </g>
        <g transform="matrix(0.833735,0,0,0.857834,288.482,-276.195)">
            <path d="M1578.87,945.297C1568.58,936.36 1546.32,944.483 1533.3,938.728L1533.3,956.344C1544.56,962.841 1563.19,944.178 1578.87,945.297Z" style="fill:rgb(196,68,68);"/>
        </g>
        <g transform="matrix(-1,-5.86837e-16,-2.77556e-16,0.664849,3129.51,176.15)">
            <path d="M1564.68,527.727C1564.68,526.314 1563.92,525.167 1562.98,525.167C1562.04,525.167 1561.28,526.314 1561.28,527.727L1561.28,579.386C1561.28,580.799 1562.04,581.946 1562.98,581.946C1563.92,581.946 1564.68,580.799 1564.68,579.386L1564.68,527.727Z" style="fill:rgb(186,138,124);"/>
            <clipPath id="_clip2">
                <path d="M1564.68,527.727C1564.68,526.314 1563.92,525.167 1562.98,525.167C1562.04,525.167 1561.28,526.314 1561.28,527.727L1561.28,579.386C1561.28,580.799 1562.04,581.946 1562.98,581.946C1563.92,581.946 1564.68,580.799 1564.68,579.386L1564.68,527.727Z"/>
            </clipPath>
            <g clip-path="url(#_clip2)">
                <g transform="matrix(-0.204618,-1.80608e-16,-3.92022e-16,1.41241,1883.54,-255.405)">
                    <rect x="1566.65" y="548.674" width="51.963" height="49.371" style="fill:rgb(159,101,84);"/>
                </g>
            </g>
        </g>
        <g transform="matrix(1.49032,0,0,0.985917,242.069,-286.993)">
            <path d="M888.709,852.977L919.101,894.605C900.022,896.669 879.918,896.731 858.316,894.605L888.709,852.977Z" style="fill:rgb(128,77,61);"/>
            <clipPath id="_clip3">
                <path d="M888.709,852.977L919.101,894.605C900.022,896.669 879.918,896.731 858.316,894.605L888.709,852.977Z"/>
            </clipPath>
            <g clip-path="url(#_clip3)">
                <g transform="matrix(0.670997,0,0,1.01428,-162.505,291.099)">
                    <rect x="1566.65" y="548.674" width="51.963" height="49.371" style="fill:rgb(112,66,52);"/>
                </g>
            </g>
        </g>
        <path d="M1521.21,594.977L1611.8,594.977C1615.48,619.081 1624.86,637.822 1636.8,654.174L1577.45,654.174L1566.51,597.205L1555.56,654.174L1496.21,654.174C1508.15,637.822 1517.54,619.082 1521.21,594.977Z" style="fill:rgb(170,100,79);"/>
        <clipPath id="_clip4">
            <path d="M1521.21,594.977L1611.8,594.977C1615.48,619.081 1624.86,637.822 1636.8,654.174L1577.45,654.174L1566.51,597.205L1555.56,654.174L1496.21,654.174C1508.15,637.822 1517.54,619.082 1521.21,594.977Z"/>
        </clipPath>
        <g clip-path="url(#_clip4)">
            <g transform="matrix(1.74537,0,0,1.50524,-1167.85,-237.322)">
                <rect x="1566.65" y="548.674" width="51.963" height="49.371" style="fill:rgb(139,81,64);"/>
            </g>
        </g>
        <path d="M1566.52,597.146L1587.44,640.156L1577.09,654.222L1566.52,597.146Z" style="fill:rgb(157,97,79);"/>
        <g transform="matrix(-1,0,0,1,3132.73,0)">
            <path d="M1566.22,597.155L1587.44,640.156L1577.09,654.222L1566.22,597.155Z" style="fill:rgb(184,120,100);"/>
        </g>
    </g>
</svg>
