<?xml version="1.0" encoding="UTF-8" standalone="no"?>
<!DOCTYPE svg PUBLIC "-//W3C//DTD SVG 1.1//EN" "http://www.w3.org/Graphics/SVG/1.1/DTD/svg11.dtd">
<svg width="100%" height="100%" viewBox="0 0 512 512" version="1.1" xmlns="http://www.w3.org/2000/svg" xmlns:xlink="http://www.w3.org/1999/xlink" xml:space="preserve" xmlns:serif="http://www.serif.com/" style="fill-rule:evenodd;clip-rule:evenodd;stroke-linejoin:round;stroke-miterlimit:2;">
    <g id="VideoIcon" transform="matrix(7.33533,0,0,7.33533,-13648.8,-7202.78)">
        <path d="M1923.3,985.162C1925.49,985.162 1927.26,986.934 1927.26,989.119L1927.26,1044.54C1927.26,1046.69 1925.53,1048.45 1923.3,1048.5L1867.88,1048.5C1865.69,1048.5 1863.92,1046.72 1863.92,1044.54L1863.92,989.119C1863.92,986.934 1865.69,985.162 1867.88,985.162L1923.3,985.162ZM1877.91,1044.44C1878.34,1044.44 1878.68,1044.09 1878.68,1043.67L1878.68,1037.48C1878.68,1037.08 1878.39,1036.76 1877.91,1036.7L1871.72,1036.7C1871.24,1036.76 1870.95,1037.08 1870.95,1037.48L1870.95,1043.67C1870.95,1044.09 1871.3,1044.44 1871.72,1044.44L1877.91,1044.44ZM1891.76,1044.44C1892.19,1044.44 1892.53,1044.09 1892.53,1043.67L1892.53,1037.48C1892.53,1037.08 1892.24,1036.76 1891.76,1036.7L1885.57,1036.7C1885.09,1036.76 1884.8,1037.08 1884.8,1037.48L1884.8,1043.67C1884.8,1044.09 1885.14,1044.44 1885.57,1044.44L1891.76,1044.44ZM1905.61,1044.44C1906.03,1044.44 1906.38,1044.09 1906.38,1043.67L1906.38,1037.48C1906.38,1037.08 1906.09,1036.76 1905.61,1036.7L1899.42,1036.7C1898.94,1036.76 1898.64,1037.08 1898.64,1037.48L1898.64,1043.67C1898.64,1044.09 1898.99,1044.44 1899.42,1044.44L1905.61,1044.44ZM1919.45,1044.44C1919.88,1044.44 1920.23,1044.09 1920.23,1043.67L1920.23,1037.48C1920.23,1037.08 1919.93,1036.76 1919.45,1036.7L1913.27,1036.7C1912.79,1036.76 1912.49,1037.08 1912.49,1037.48L1912.49,1043.67C1912.49,1044.09 1912.84,1044.44 1913.27,1044.44L1919.45,1044.44ZM1877.91,996.954C1878.34,996.954 1878.68,996.608 1878.68,996.181L1878.68,989.992C1878.68,989.599 1878.39,989.274 1877.91,989.218L1871.72,989.218C1871.24,989.274 1870.95,989.599 1870.95,989.992L1870.95,996.181C1870.95,996.608 1871.3,996.954 1871.72,996.954L1877.91,996.954ZM1891.76,996.954C1892.19,996.954 1892.53,996.608 1892.53,996.181L1892.53,989.992C1892.53,989.599 1892.24,989.274 1891.76,989.218L1885.57,989.218C1885.09,989.274 1884.8,989.599 1884.8,989.992L1884.8,996.181C1884.8,996.608 1885.14,996.954 1885.57,996.954L1891.76,996.954ZM1905.61,996.954C1906.03,996.954 1906.38,996.608 1906.38,996.181L1906.38,989.992C1906.38,989.599 1906.09,989.274 1905.61,989.218L1899.42,989.218C1898.94,989.274 1898.64,989.599 1898.64,989.992L1898.64,996.181C1898.64,996.608 1898.99,996.954 1899.42,996.954L1905.61,996.954ZM1919.45,996.954C1919.88,996.954 1920.23,996.608 1920.23,996.181L1920.23,989.992C1920.23,989.599 1919.93,989.274 1919.45,989.218L1913.27,989.218C1912.79,989.274 1912.49,989.599 1912.49,989.992L1912.49,996.181C1912.49,996.608 1912.84,996.954 1913.27,996.954L1919.45,996.954Z" style="fill:rgb(21,170,215);"/>
        <clipPath id="_clip1">
            <path d="M1923.3,985.162C1925.49,985.162 1927.26,986.934 1927.26,989.119L1927.26,1044.54C1927.26,1046.69 1925.53,1048.45 1923.3,1048.5L1867.88,1048.5C1865.69,1048.5 1863.92,1046.72 1863.92,1044.54L1863.92,989.119C1863.92,986.934 1865.69,985.162 1867.88,985.162L1923.3,985.162ZM1877.91,1044.44C1878.34,1044.44 1878.68,1044.09 1878.68,1043.67L1878.68,1037.48C1878.68,1037.08 1878.39,1036.76 1877.91,1036.7L1871.72,1036.7C1871.24,1036.76 1870.95,1037.08 1870.95,1037.48L1870.95,1043.67C1870.95,1044.09 1871.3,1044.44 1871.72,1044.44L1877.91,1044.44ZM1891.76,1044.44C1892.19,1044.44 1892.53,1044.09 1892.53,1043.67L1892.53,1037.48C1892.53,1037.08 1892.24,1036.76 1891.76,1036.7L1885.57,1036.7C1885.09,1036.76 1884.8,1037.08 1884.8,1037.48L1884.8,1043.67C1884.8,1044.09 1885.14,1044.44 1885.57,1044.44L1891.76,1044.44ZM1905.61,1044.44C1906.03,1044.44 1906.38,1044.09 1906.38,1043.67L1906.38,1037.48C1906.38,1037.08 1906.09,1036.76 1905.61,1036.7L1899.42,1036.7C1898.94,1036.76 1898.64,1037.08 1898.64,1037.48L1898.64,1043.67C1898.64,1044.09 1898.99,1044.44 1899.42,1044.44L1905.61,1044.44ZM1919.45,1044.44C1919.88,1044.44 1920.23,1044.09 1920.23,1043.67L1920.23,1037.48C1920.23,1037.08 1919.93,1036.76 1919.45,1036.7L1913.27,1036.7C1912.79,1036.76 1912.49,1037.08 1912.49,1037.48L1912.49,1043.67C1912.49,1044.09 1912.84,1044.44 1913.27,1044.44L1919.45,1044.44ZM1877.91,996.954C1878.34,996.954 1878.68,996.608 1878.68,996.181L1878.68,989.992C1878.68,989.599 1878.39,989.274 1877.91,989.218L1871.72,989.218C1871.24,989.274 1870.95,989.599 1870.95,989.992L1870.95,996.181C1870.95,996.608 1871.3,996.954 1871.72,996.954L1877.91,996.954ZM1891.76,996.954C1892.19,996.954 1892.53,996.608 1892.53,996.181L1892.53,989.992C1892.53,989.599 1892.24,989.274 1891.76,989.218L1885.57,989.218C1885.09,989.274 1884.8,989.599 1884.8,989.992L1884.8,996.181C1884.8,996.608 1885.14,996.954 1885.57,996.954L1891.76,996.954ZM1905.61,996.954C1906.03,996.954 1906.38,996.608 1906.38,996.181L1906.38,989.992C1906.38,989.599 1906.09,989.274 1905.61,989.218L1899.42,989.218C1898.94,989.274 1898.64,989.599 1898.64,989.992L1898.64,996.181C1898.64,996.608 1898.99,996.954 1899.42,996.954L1905.61,996.954ZM1919.45,996.954C1919.88,996.954 1920.23,996.608 1920.23,996.181L1920.23,989.992C1920.23,989.599 1919.93,989.274 1919.45,989.218L1913.27,989.218C1912.79,989.274 1912.49,989.599 1912.49,989.992L1912.49,996.181C1912.49,996.608 1912.84,996.954 1913.27,996.954L1919.45,996.954Z"/>
        </clipPath>
        <g clip-path="url(#_clip1)">
            <g transform="matrix(1.86752e-17,0.30499,-0.334869,2.05048e-17,2220.6,678.33)">
                <rect x="1109.7" y="865.181" width="114.023" height="212.913" style="fill:rgb(15,135,179);"/>
            </g>
            <g transform="matrix(1,0,0,1,0,0.0525334)">
                <path d="M1908.02,1018.06C1908.5,1017.78 1908.78,1017.32 1908.78,1016.78C1908.78,1016.23 1908.5,1015.77 1908.02,1015.5L1887.35,1003.84C1886.86,1003.56 1886.3,1003.56 1885.81,1003.83C1885.31,1004.1 1885.03,1004.57 1885.03,1005.12L1885.03,1028.43C1885.03,1028.98 1885.31,1029.45 1885.81,1029.72C1886.3,1029.99 1886.86,1029.99 1887.35,1029.71L1908.02,1018.06Z" style="fill:white;"/>
                <clipPath id="_clip2">
                    <path d="M1908.02,1018.06C1908.5,1017.78 1908.78,1017.32 1908.78,1016.78C1908.78,1016.23 1908.5,1015.77 1908.02,1015.5L1887.35,1003.84C1886.86,1003.56 1886.3,1003.56 1885.81,1003.83C1885.31,1004.1 1885.03,1004.57 1885.03,1005.12L1885.03,1028.43C1885.03,1028.98 1885.31,1029.45 1885.81,1029.72C1886.3,1029.99 1886.86,1029.99 1887.35,1029.71L1908.02,1018.06Z"/>
                </clipPath>
                <g clip-path="url(#_clip2)">
                    <g transform="matrix(8.12022e-18,0.132613,-0.134896,8.26e-18,2028.73,869.563)">
                        <rect x="1109.7" y="865.181" width="114.023" height="212.913" style="fill:rgb(221,221,221);"/>
                    </g>
                </g>
            </g>
        </g>
    </g>
</svg>
