<?xml version="1.0" encoding="UTF-8" standalone="no"?>
<!DOCTYPE svg PUBLIC "-//W3C//DTD SVG 1.1//EN" "http://www.w3.org/Graphics/SVG/1.1/DTD/svg11.dtd">
<svg width="100%" height="100%" viewBox="0 0 512 512" version="1.1" xmlns="http://www.w3.org/2000/svg" xmlns:xlink="http://www.w3.org/1999/xlink" xml:space="preserve" xmlns:serif="http://www.serif.com/" style="fill-rule:evenodd;clip-rule:evenodd;stroke-linejoin:round;stroke-miterlimit:2;">
    <g id="VikingHatIcon" transform="matrix(2.26463,0,0,2.75777,-284.391,-17174)">
        <g>
            <g transform="matrix(1.191,0,0,0.978031,-996.67,130.973)">
                <path d="M946.122,6266.49C944.507,6256.2 955.936,6252.72 962.473,6261.31C971.356,6272.99 992.209,6292.06 1013.47,6294.72C1013.47,6294.72 995.081,6331.16 989.957,6328.01C967.85,6314.4 950.218,6292.57 946.122,6266.49Z" style="fill:rgb(222,168,108);"/>
                <clipPath id="_clip1">
                    <path d="M946.122,6266.49C944.507,6256.2 955.936,6252.72 962.473,6261.31C971.356,6272.99 992.209,6292.06 1013.47,6294.72C1013.47,6294.72 995.081,6331.16 989.957,6328.01C967.85,6314.4 950.218,6292.57 946.122,6266.49Z"/>
                </clipPath>
                <g clip-path="url(#_clip1)">
                    <g transform="matrix(1,0,0,1,-181.4,-6.29111)">
                        <path d="M1130.19,6251.97C1131.15,6255.85 1136.3,6303.39 1192.71,6324.87C1249.12,6346.35 1212.22,6268.94 1205.4,6268.17C1198.59,6267.4 1129.22,6248.1 1130.19,6251.97Z" style="fill:rgb(255,208,120);"/>
                    </g>
                </g>
            </g>
            <g transform="matrix(-1.191,0,0,0.978031,1473.91,130.973)">
                <path d="M946.122,6266.49C944.507,6256.2 955.936,6252.72 962.473,6261.31C971.356,6272.99 992.209,6292.06 1013.47,6294.72C1013.47,6294.72 995.081,6331.16 989.957,6328.01C967.85,6314.4 950.218,6292.57 946.122,6266.49Z" style="fill:rgb(222,168,108);"/>
                <clipPath id="_clip2">
                    <path d="M946.122,6266.49C944.507,6256.2 955.936,6252.72 962.473,6261.31C971.356,6272.99 992.209,6292.06 1013.47,6294.72C1013.47,6294.72 995.081,6331.16 989.957,6328.01C967.85,6314.4 950.218,6292.57 946.122,6266.49Z"/>
                </clipPath>
                <g clip-path="url(#_clip2)">
                    <g transform="matrix(1,0,0,1,-181.4,-6.29111)">
                        <path d="M1130.19,6251.97C1131.15,6255.85 1136.3,6303.39 1192.71,6324.87C1249.12,6346.35 1212.22,6268.94 1205.4,6268.17C1198.59,6267.4 1129.22,6248.1 1130.19,6251.97Z" style="fill:rgb(255,208,120);"/>
                    </g>
                </g>
            </g>
        </g>
        <g transform="matrix(1.191,0,0,1.00143,-1002.26,-15.9599)">
            <path d="M981.838,6341.46C981.834,6341.2 981.833,6340.95 981.833,6340.69C981.833,6307.55 1008.74,6280.64 1041.88,6280.64C1075.03,6280.64 1101.94,6307.55 1101.94,6340.69C1101.94,6340.95 1101.93,6341.2 1101.93,6341.46L981.838,6341.46Z" style="fill:rgb(173,173,173);"/>
            <clipPath id="_clip3">
                <path d="M981.838,6341.46C981.834,6341.2 981.833,6340.95 981.833,6340.69C981.833,6307.55 1008.74,6280.64 1041.88,6280.64C1075.03,6280.64 1101.94,6307.55 1101.94,6340.69C1101.94,6340.95 1101.93,6341.2 1101.93,6341.46L981.838,6341.46Z"/>
            </clipPath>
            <g clip-path="url(#_clip3)">
                <g transform="matrix(0.44893,0,0,3.38948,613.686,-15213.7)">
                    <rect x="970.082" y="6340.31" width="142.944" height="26.638" style="fill:rgb(114,114,114);"/>
                </g>
            </g>
        </g>
        <g transform="matrix(0.534676,0,0,0.978031,-271.355,130.973)">
            <path d="M1113.03,6342.8C1113.03,6342.14 1112.44,6341.51 1111.4,6341.04C1110.36,6340.57 1108.95,6340.31 1107.48,6340.31C1081.17,6340.31 970.082,6340.31 970.082,6340.31L970.082,6366.95L1107.48,6366.95C1108.95,6366.95 1110.36,6366.69 1111.4,6366.22C1112.44,6365.75 1113.03,6365.12 1113.03,6364.46C1113.03,6359.38 1113.03,6347.88 1113.03,6342.8Z" style="fill:rgb(161,161,161);"/>
        </g>
        <g transform="matrix(0.633133,0,0,0.978031,-460.684,130.973)">
            <path d="M1113.03,6340.31C1113.03,6340.31 999.408,6340.31 974.762,6340.31C973.521,6340.31 972.33,6340.57 971.453,6341.04C970.575,6341.51 970.082,6342.14 970.082,6342.8C970.082,6347.88 970.082,6359.38 970.082,6364.46C970.082,6365.12 970.575,6365.75 971.453,6366.22C972.33,6366.69 973.521,6366.95 974.762,6366.95C999.408,6366.95 1113.03,6366.95 1113.03,6366.95L1113.03,6340.31Z" style="fill:rgb(211,211,211);"/>
        </g>
        <g transform="matrix(1.3382,0,0,1.13284,-1154.58,-840.511)">
            <path d="M1053.18,6273.07C1053.18,6271.88 1052.19,6270.92 1050.97,6270.92C1046.37,6270.92 1035.84,6270.92 1031.25,6270.92C1030.02,6270.92 1029.03,6271.88 1029.03,6273.07C1029.03,6286.74 1029.03,6375.39 1029.03,6375.39C1029.03,6375.39 1036.67,6380.66 1039.76,6382.8C1040.53,6383.33 1041.55,6383.33 1042.32,6382.81C1045.44,6380.67 1053.18,6375.39 1053.18,6375.39L1053.18,6273.07Z" style="fill:rgb(211,211,211);"/>
            <clipPath id="_clip4">
                <path d="M1053.18,6273.07C1053.18,6271.88 1052.19,6270.92 1050.97,6270.92C1046.37,6270.92 1035.84,6270.92 1031.25,6270.92C1030.02,6270.92 1029.03,6271.88 1029.03,6273.07C1029.03,6286.74 1029.03,6375.39 1029.03,6375.39C1029.03,6375.39 1036.67,6380.66 1039.76,6382.8C1040.53,6383.33 1041.55,6383.33 1042.32,6382.81C1045.44,6380.67 1053.18,6375.39 1053.18,6375.39L1053.18,6273.07Z"/>
            </clipPath>
            <g clip-path="url(#_clip4)">
                <g transform="matrix(0.42022,0,0,0.891336,529.056,689.504)">
                    <rect x="1218.41" y="6260.71" width="33.035" height="139.211" style="fill:rgb(161,161,161);"/>
                </g>
            </g>
        </g>
        <g transform="matrix(1.5069,0,0,1.23745,-2706.61,-1688.71)">
            <circle cx="1911.79" cy="6492.19" r="5.271" style="fill:rgb(165,165,165);"/>
        </g>
        <g transform="matrix(1.5069,0,0,1.23745,-2675.27,-1688.71)">
            <circle cx="1911.79" cy="6492.19" r="5.271" style="fill:rgb(165,165,165);"/>
        </g>
        <g transform="matrix(1.5069,0,0,1.23745,-2608.65,-1688.71)">
            <circle cx="1911.79" cy="6492.19" r="5.271" style="fill:rgb(134,134,134);"/>
        </g>
        <g transform="matrix(1.5069,0,0,1.23745,-2577.3,-1688.71)">
            <circle cx="1911.79" cy="6492.19" r="5.271" style="fill:rgb(134,134,134);"/>
        </g>
    </g>
</svg>
