<?xml version="1.0" encoding="UTF-8" standalone="no"?>
<!DOCTYPE svg PUBLIC "-//W3C//DTD SVG 1.1//EN" "http://www.w3.org/Graphics/SVG/1.1/DTD/svg11.dtd">
<svg width="100%" height="100%" viewBox="0 0 512 512" version="1.1" xmlns="http://www.w3.org/2000/svg" xmlns:xlink="http://www.w3.org/1999/xlink" xml:space="preserve" xmlns:serif="http://www.serif.com/" style="fill-rule:evenodd;clip-rule:evenodd;stroke-linejoin:round;stroke-miterlimit:2;">
    <g id="WingIcon" transform="matrix(-5.99896,-1.1922e-15,-2.08636e-15,5.92795,494.451,-3006.82)">
        <path d="M45.828,578.586C38.924,586.021 19.341,581.096 18.138,565.303C9.179,564.027 2.213,553.188 6.888,543.571C-3.141,539.146 -3.011,520.832 10.902,514.989C12.24,522.768 15.505,534.156 39.165,532.431C65.18,530.534 78.496,542.678 79.598,561.062C81.014,584.705 52.196,593.3 45.828,578.586Z" style="fill:white;"/>
        <clipPath id="_clip1">
            <path d="M45.828,578.586C38.924,586.021 19.341,581.096 18.138,565.303C9.179,564.027 2.213,553.188 6.888,543.571C-3.141,539.146 -3.011,520.832 10.902,514.989C12.24,522.768 15.505,534.156 39.165,532.431C65.18,530.534 78.496,542.678 79.598,561.062C81.014,584.705 52.196,593.3 45.828,578.586Z"/>
        </clipPath>
        <g clip-path="url(#_clip1)">
            <g id="WingIcon1" serif:id="WingIcon" transform="matrix(-1.26739,-2.22148,-2.19518,1.28257,4436.4,3683.66)">
                <path d="M1911.35,881.428C1910.66,885.769 1912.22,889.224 1916.12,888.789C1917.04,889.475 1917.57,889.793 1918.22,891.025C1919.37,895.572 1922.14,898.404 1925.02,896.353C1927.38,900.087 1931.59,901.424 1932.33,897.972C1938.95,900.273 1940.9,897.196 1942.8,895.784C1942.51,900.814 1937.07,903.656 1933.88,901.305C1931.56,904.777 1926.52,904.51 1924.33,901.698C1918.76,904.365 1913.23,898.634 1914.38,894.826C1908.82,895.445 1906.01,886.325 1911.35,881.428Z" style="fill:rgb(141,225,225);fill-opacity:0.28;"/>
            </g>
            <g transform="matrix(-1.26739,-2.22148,-2.19518,1.28257,4428.37,3680.81)">
                <path d="M1909.49,893.133L1911.74,895.199C1917.54,893.07 1916.64,887.73 1913.53,886.591C1915.64,889.199 1913.32,893.296 1909.49,893.133Z" style="fill:rgb(177,201,211);"/>
            </g>
            <g transform="matrix(-1.26739,-2.22148,-2.19518,1.28257,4400.48,3670.73)">
                <path d="M1909.49,893.133L1911.74,895.199C1917.54,893.07 1916.64,887.73 1913.53,886.591C1915.64,889.199 1913.32,893.296 1909.49,893.133Z" style="fill:rgb(177,201,211);"/>
            </g>
            <g transform="matrix(-0.452845,-2.52388,-2.494,0.458269,3093.99,4966.27)">
                <path d="M1909.49,893.133L1911.74,895.199C1917.54,893.07 1916.64,887.73 1913.53,886.591C1915.64,889.199 1913.32,893.296 1909.49,893.133Z" style="fill:rgb(177,201,211);"/>
            </g>
            <g transform="matrix(-1.26739,-2.22148,-2.19518,1.28257,4428.37,3680.81)">
                <path d="M1909.49,893.133L1911.74,895.199C1917.54,893.07 1916.64,887.73 1913.53,886.591C1915.64,889.199 1913.32,893.296 1909.49,893.133Z" style="fill:rgb(157,209,209);"/>
            </g>
            <g transform="matrix(-1.26739,-2.22148,-2.19518,1.28257,4400.48,3670.73)">
                <path d="M1909.49,893.133L1911.74,895.199C1917.54,893.07 1916.64,887.73 1913.53,886.591C1915.64,889.199 1913.32,893.296 1909.49,893.133Z" style="fill:rgb(157,209,209);"/>
            </g>
            <g transform="matrix(-0.452845,-2.52388,-2.494,0.458269,3093.99,4966.27)">
                <path d="M1909.49,893.133L1911.74,895.199C1917.54,893.07 1916.64,887.73 1913.53,886.591C1915.64,889.199 1913.32,893.296 1909.49,893.133Z" style="fill:rgb(157,209,209);"/>
            </g>
        </g>
    </g>
</svg>
