<?xml version="1.0" encoding="UTF-8" standalone="no"?>
<!DOCTYPE svg PUBLIC "-//W3C//DTD SVG 1.1//EN" "http://www.w3.org/Graphics/SVG/1.1/DTD/svg11.dtd">
<svg width="100%" height="100%" viewBox="0 0 512 512" version="1.1" xmlns="http://www.w3.org/2000/svg" xmlns:xlink="http://www.w3.org/1999/xlink" xml:space="preserve" xmlns:serif="http://www.serif.com/" style="fill-rule:evenodd;clip-rule:evenodd;stroke-linejoin:round;stroke-miterlimit:2;">
    <g id="WingsHaloIcon" transform="matrix(2.45853,0,0,2.45853,-5038.44,-1809.96)">
        <g id="WingIcon" transform="matrix(-0.43473,-0.752975,-0.744062,0.429584,2641.74,650.269)">
            <path d="M45.828,578.586C38.924,586.021 19.341,581.096 18.138,565.303C9.179,564.027 2.213,553.188 6.888,543.571C-3.141,539.146 -3.011,520.832 10.902,514.989C12.24,522.768 15.505,534.156 39.165,532.431C65.18,530.534 78.496,542.678 79.598,561.062C81.014,584.705 52.196,593.3 45.828,578.586Z" style="fill:white;"/>
            <clipPath id="_clip1">
                <path d="M45.828,578.586C38.924,586.021 19.341,581.096 18.138,565.303C9.179,564.027 2.213,553.188 6.888,543.571C-3.141,539.146 -3.011,520.832 10.902,514.989C12.24,522.768 15.505,534.156 39.165,532.431C65.18,530.534 78.496,542.678 79.598,561.062C81.014,584.705 52.196,593.3 45.828,578.586Z"/>
            </clipPath>
            <g clip-path="url(#_clip1)">
                <g id="WingIcon1" serif:id="WingIcon" transform="matrix(-1.26739,-2.22148,-2.19518,1.28257,4436.4,3683.66)">
                    <path d="M1911.35,881.428C1910.66,885.769 1912.22,889.224 1916.12,888.789C1917.04,889.475 1917.57,889.793 1918.22,891.025C1919.37,895.572 1922.14,898.404 1925.02,896.353C1927.38,900.087 1931.59,901.424 1932.33,897.972C1938.95,900.273 1940.9,897.196 1942.8,895.784C1942.51,900.814 1937.07,903.656 1933.88,901.305C1931.56,904.777 1926.52,904.51 1924.33,901.698C1918.76,904.365 1913.23,898.634 1914.38,894.826C1908.82,895.445 1906.01,886.325 1911.35,881.428Z" style="fill:rgb(141,225,225);fill-opacity:0.28;"/>
                </g>
                <g transform="matrix(-1.26739,-2.22148,-2.19518,1.28257,4428.37,3680.81)">
                    <path d="M1909.49,893.133L1911.74,895.199C1917.54,893.07 1916.64,887.73 1913.53,886.591C1915.64,889.199 1913.32,893.296 1909.49,893.133Z" style="fill:rgb(177,201,211);"/>
                </g>
                <g transform="matrix(-1.26739,-2.22148,-2.19518,1.28257,4400.48,3670.73)">
                    <path d="M1909.49,893.133L1911.74,895.199C1917.54,893.07 1916.64,887.73 1913.53,886.591C1915.64,889.199 1913.32,893.296 1909.49,893.133Z" style="fill:rgb(177,201,211);"/>
                </g>
                <g transform="matrix(-0.452845,-2.52388,-2.494,0.458269,3093.99,4966.27)">
                    <path d="M1909.49,893.133L1911.74,895.199C1917.54,893.07 1916.64,887.73 1913.53,886.591C1915.64,889.199 1913.32,893.296 1909.49,893.133Z" style="fill:rgb(177,201,211);"/>
                </g>
                <g transform="matrix(-1.26739,-2.22148,-2.19518,1.28257,4428.37,3680.81)">
                    <path d="M1909.49,893.133L1911.74,895.199C1917.54,893.07 1916.64,887.73 1913.53,886.591C1915.64,889.199 1913.32,893.296 1909.49,893.133Z" style="fill:rgb(157,209,209);"/>
                </g>
                <g transform="matrix(-1.26739,-2.22148,-2.19518,1.28257,4400.48,3670.73)">
                    <path d="M1909.49,893.133L1911.74,895.199C1917.54,893.07 1916.64,887.73 1913.53,886.591C1915.64,889.199 1913.32,893.296 1909.49,893.133Z" style="fill:rgb(157,209,209);"/>
                </g>
                <g transform="matrix(-0.452845,-2.52388,-2.494,0.458269,3093.99,4966.27)">
                    <path d="M1909.49,893.133L1911.74,895.199C1917.54,893.07 1916.64,887.73 1913.53,886.591C1915.64,889.199 1913.32,893.296 1909.49,893.133Z" style="fill:rgb(157,209,209);"/>
                </g>
            </g>
        </g>
        <g id="WingIcon2" serif:id="WingIcon" transform="matrix(0.43473,-0.752975,0.744062,0.429584,1665.25,650.269)">
            <path d="M45.828,578.586C38.924,586.021 19.341,581.096 18.138,565.303C9.179,564.027 2.213,553.188 6.888,543.571C-3.141,539.146 -3.011,520.832 10.902,514.989C12.24,522.768 15.505,534.156 39.165,532.431C65.18,530.534 78.496,542.678 79.598,561.062C81.014,584.705 52.196,593.3 45.828,578.586Z" style="fill:white;"/>
            <clipPath id="_clip2">
                <path d="M45.828,578.586C38.924,586.021 19.341,581.096 18.138,565.303C9.179,564.027 2.213,553.188 6.888,543.571C-3.141,539.146 -3.011,520.832 10.902,514.989C12.24,522.768 15.505,534.156 39.165,532.431C65.18,530.534 78.496,542.678 79.598,561.062C81.014,584.705 52.196,593.3 45.828,578.586Z"/>
            </clipPath>
            <g clip-path="url(#_clip2)">
                <g id="WingIcon3" serif:id="WingIcon" transform="matrix(-1.26739,-2.22148,-2.19518,1.28257,4436.4,3683.66)">
                    <path d="M1911.35,881.428C1910.66,885.769 1912.22,889.224 1916.12,888.789C1917.04,889.475 1917.57,889.793 1918.22,891.025C1919.37,895.572 1922.14,898.404 1925.02,896.353C1927.38,900.087 1931.59,901.424 1932.33,897.972C1938.95,900.273 1940.9,897.196 1942.8,895.784C1942.51,900.814 1937.07,903.656 1933.88,901.305C1931.56,904.777 1926.52,904.51 1924.33,901.698C1918.76,904.365 1913.23,898.634 1914.38,894.826C1908.82,895.445 1906.01,886.325 1911.35,881.428Z" style="fill:rgb(141,225,225);fill-opacity:0.28;"/>
                </g>
                <g transform="matrix(-1.26739,-2.22148,-2.19518,1.28257,4428.37,3680.81)">
                    <path d="M1909.49,893.133L1911.74,895.199C1917.54,893.07 1916.64,887.73 1913.53,886.591C1915.64,889.199 1913.32,893.296 1909.49,893.133Z" style="fill:rgb(177,201,211);"/>
                </g>
                <g transform="matrix(-1.26739,-2.22148,-2.19518,1.28257,4400.48,3670.73)">
                    <path d="M1909.49,893.133L1911.74,895.199C1917.54,893.07 1916.64,887.73 1913.53,886.591C1915.64,889.199 1913.32,893.296 1909.49,893.133Z" style="fill:rgb(177,201,211);"/>
                </g>
                <g transform="matrix(-0.452845,-2.52388,-2.494,0.458269,3093.99,4966.27)">
                    <path d="M1909.49,893.133L1911.74,895.199C1917.54,893.07 1916.64,887.73 1913.53,886.591C1915.64,889.199 1913.32,893.296 1909.49,893.133Z" style="fill:rgb(177,201,211);"/>
                </g>
                <g transform="matrix(-1.26739,-2.22148,-2.19518,1.28257,4428.37,3680.81)">
                    <path d="M1909.49,893.133L1911.74,895.199C1917.54,893.07 1916.64,887.73 1913.53,886.591C1915.64,889.199 1913.32,893.296 1909.49,893.133Z" style="fill:rgb(157,209,209);"/>
                </g>
                <g transform="matrix(-1.26739,-2.22148,-2.19518,1.28257,4400.48,3670.73)">
                    <path d="M1909.49,893.133L1911.74,895.199C1917.54,893.07 1916.64,887.73 1913.53,886.591C1915.64,889.199 1913.32,893.296 1909.49,893.133Z" style="fill:rgb(157,209,209);"/>
                </g>
                <g transform="matrix(-0.452845,-2.52388,-2.494,0.458269,3093.99,4966.27)">
                    <path d="M1909.49,893.133L1911.74,895.199C1917.54,893.07 1916.64,887.73 1913.53,886.591C1915.64,889.199 1913.32,893.296 1909.49,893.133Z" style="fill:rgb(157,209,209);"/>
                </g>
            </g>
        </g>
        <g transform="matrix(1.32373,0,0,1.32373,-677.859,-284.992)">
            <path d="M2139.45,816.947C2147.76,817.021 2156.54,818.195 2162.96,823.438C2166.1,825.997 2167.79,831.049 2164.57,834.749C2150.44,850.978 2108.47,843.583 2111.72,828.547C2113.7,819.424 2127.2,816.911 2139.45,816.947ZM2138.77,822.947C2131.37,823.014 2122.93,823.785 2118.26,828.787C2118.15,828.912 2118.04,829.042 2117.93,829.179C2117.83,829.313 2117.74,829.454 2117.67,829.599C2116.46,832.043 2132.04,837.941 2144.95,836.459C2150.87,835.78 2158.36,834.512 2160.52,830.135C2161.87,827.4 2150.06,822.914 2138.77,822.947Z" style="fill:rgb(255,216,58);"/>
            <clipPath id="_clip3">
                <path d="M2139.45,816.947C2147.76,817.021 2156.54,818.195 2162.96,823.438C2166.1,825.997 2167.79,831.049 2164.57,834.749C2150.44,850.978 2108.47,843.583 2111.72,828.547C2113.7,819.424 2127.2,816.911 2139.45,816.947ZM2138.77,822.947C2131.37,823.014 2122.93,823.785 2118.26,828.787C2118.15,828.912 2118.04,829.042 2117.93,829.179C2117.83,829.313 2117.74,829.454 2117.67,829.599C2116.46,832.043 2132.04,837.941 2144.95,836.459C2150.87,835.78 2158.36,834.512 2160.52,830.135C2161.87,827.4 2150.06,822.914 2138.77,822.947Z"/>
            </clipPath>
            <g clip-path="url(#_clip3)">
                <g transform="matrix(1.66491,0,0,1.66491,-1016.14,-621.573)">
                    <rect x="1894.9" y="859.501" width="23.33" height="28.433" style="fill:rgb(255,146,44);"/>
                </g>
            </g>
        </g>
    </g>
</svg>
