<?xml version="1.0" encoding="UTF-8" standalone="no"?>
<!DOCTYPE svg PUBLIC "-//W3C//DTD SVG 1.1//EN" "http://www.w3.org/Graphics/SVG/1.1/DTD/svg11.dtd">
<svg width="100%" height="100%" viewBox="0 0 512 512" version="1.1" xmlns="http://www.w3.org/2000/svg" xmlns:xlink="http://www.w3.org/1999/xlink" xml:space="preserve" xmlns:serif="http://www.serif.com/" style="fill-rule:evenodd;clip-rule:evenodd;stroke-linejoin:round;stroke-miterlimit:2;">
    <g id="Wings-HaloI---Stars" serif:id="Wings HaloI - Stars" transform="matrix(2.45853,0,0,2.45853,-5048.9,-1838.4)">
        <g transform="matrix(1.30592,0,0,1.30592,-682.792,-236.197)">
            <g id="WingIcon" transform="matrix(-0.434129,-0.751934,-0.743034,0.428991,2641.15,650.554)">
                <path d="M45.828,578.586C38.924,586.021 19.341,581.096 18.138,565.303C9.179,564.027 2.213,553.188 6.888,543.571C-3.141,539.146 -3.011,520.832 10.902,514.989C12.24,522.768 15.505,534.156 39.165,532.431C65.18,530.534 78.496,542.678 79.598,561.062C81.014,584.705 52.196,593.3 45.828,578.586Z" style="fill:white;"/>
                <clipPath id="_clip1">
                    <path d="M45.828,578.586C38.924,586.021 19.341,581.096 18.138,565.303C9.179,564.027 2.213,553.188 6.888,543.571C-3.141,539.146 -3.011,520.832 10.902,514.989C12.24,522.768 15.505,534.156 39.165,532.431C65.18,530.534 78.496,542.678 79.598,561.062C81.014,584.705 52.196,593.3 45.828,578.586Z"/>
                </clipPath>
                <g clip-path="url(#_clip1)">
                    <g id="WingIcon1" serif:id="WingIcon" transform="matrix(-1.26739,-2.22148,-2.19518,1.28257,4436.4,3683.66)">
                        <path d="M1911.35,881.428C1910.66,885.769 1912.22,889.224 1916.12,888.789C1917.04,889.475 1917.57,889.793 1918.22,891.025C1919.37,895.572 1922.14,898.404 1925.02,896.353C1927.38,900.087 1931.59,901.424 1932.33,897.972C1938.95,900.273 1940.9,897.196 1942.8,895.784C1942.51,900.814 1937.07,903.656 1933.88,901.305C1931.56,904.777 1926.52,904.51 1924.33,901.698C1918.76,904.365 1913.23,898.634 1914.38,894.826C1908.82,895.445 1906.01,886.325 1911.35,881.428Z" style="fill:rgb(227,250,252);"/>
                    </g>
                    <g transform="matrix(-1.26739,-2.22148,-2.19518,1.28257,4428.37,3680.81)">
                        <path d="M1909.49,893.133L1911.74,895.199C1917.54,893.07 1916.64,887.73 1913.53,886.591C1915.64,889.199 1913.32,893.296 1909.49,893.133Z" style="fill:rgb(177,201,211);"/>
                    </g>
                    <g transform="matrix(-1.26739,-2.22148,-2.19518,1.28257,4400.48,3670.73)">
                        <path d="M1909.49,893.133L1911.74,895.199C1917.54,893.07 1916.64,887.73 1913.53,886.591C1915.64,889.199 1913.32,893.296 1909.49,893.133Z" style="fill:rgb(177,201,211);"/>
                    </g>
                    <g transform="matrix(-0.452845,-2.52388,-2.494,0.458269,3093.99,4966.27)">
                        <path d="M1909.49,893.133L1911.74,895.199C1917.54,893.07 1916.64,887.73 1913.53,886.591C1915.64,889.199 1913.32,893.296 1909.49,893.133Z" style="fill:rgb(177,201,211);"/>
                    </g>
                    <g transform="matrix(-1.26739,-2.22148,-2.19518,1.28257,4428.37,3680.81)">
                        <path d="M1909.49,893.133L1911.74,895.199C1917.54,893.07 1916.64,887.73 1913.53,886.591C1915.64,889.199 1913.32,893.296 1909.49,893.133Z" style="fill:rgb(197,246,250);"/>
                    </g>
                    <g transform="matrix(-1.26739,-2.22148,-2.19518,1.28257,4400.48,3670.73)">
                        <path d="M1909.49,893.133L1911.74,895.199C1917.54,893.07 1916.64,887.73 1913.53,886.591C1915.64,889.199 1913.32,893.296 1909.49,893.133Z" style="fill:rgb(197,246,250);"/>
                    </g>
                    <g transform="matrix(-0.452845,-2.52388,-2.494,0.458269,3093.99,4966.27)">
                        <path d="M1909.49,893.133L1911.74,895.199C1917.54,893.07 1916.64,887.73 1913.53,886.591C1915.64,889.199 1913.32,893.296 1909.49,893.133Z" style="fill:rgb(197,246,250);"/>
                    </g>
                </g>
            </g>
            <g id="WingIcon2" serif:id="WingIcon" transform="matrix(0.434129,-0.751934,0.743034,0.428991,1709.09,650.559)">
                <path d="M45.828,578.586C38.924,586.021 19.341,581.096 18.138,565.303C9.179,564.027 2.213,553.188 6.888,543.571C-3.141,539.146 -3.011,520.832 10.902,514.989C12.24,522.768 15.505,534.156 39.165,532.431C65.18,530.534 78.496,542.678 79.598,561.062C81.014,584.705 52.196,593.3 45.828,578.586Z" style="fill:white;"/>
                <clipPath id="_clip2">
                    <path d="M45.828,578.586C38.924,586.021 19.341,581.096 18.138,565.303C9.179,564.027 2.213,553.188 6.888,543.571C-3.141,539.146 -3.011,520.832 10.902,514.989C12.24,522.768 15.505,534.156 39.165,532.431C65.18,530.534 78.496,542.678 79.598,561.062C81.014,584.705 52.196,593.3 45.828,578.586Z"/>
                </clipPath>
                <g clip-path="url(#_clip2)">
                    <g id="WingIcon3" serif:id="WingIcon" transform="matrix(-1.26739,-2.22148,-2.19518,1.28257,4436.4,3683.66)">
                        <path d="M1911.35,881.428C1910.66,885.769 1912.22,889.224 1916.12,888.789C1917.04,889.475 1917.57,889.793 1918.22,891.025C1919.37,895.572 1922.14,898.404 1925.02,896.353C1927.38,900.087 1931.59,901.424 1932.33,897.972C1938.95,900.273 1940.9,897.196 1942.8,895.784C1942.51,900.814 1937.07,903.656 1933.88,901.305C1931.56,904.777 1926.52,904.51 1924.33,901.698C1918.76,904.365 1913.23,898.634 1914.38,894.826C1908.82,895.445 1906.01,886.325 1911.35,881.428Z" style="fill:rgb(227,250,252);"/>
                    </g>
                    <g transform="matrix(-1.26739,-2.22148,-2.19518,1.28257,4428.37,3680.81)">
                        <path d="M1909.49,893.133L1911.74,895.199C1917.54,893.07 1916.64,887.73 1913.53,886.591C1915.64,889.199 1913.32,893.296 1909.49,893.133Z" style="fill:rgb(177,201,211);"/>
                    </g>
                    <g transform="matrix(-1.26739,-2.22148,-2.19518,1.28257,4400.48,3670.73)">
                        <path d="M1909.49,893.133L1911.74,895.199C1917.54,893.07 1916.64,887.73 1913.53,886.591C1915.64,889.199 1913.32,893.296 1909.49,893.133Z" style="fill:rgb(177,201,211);"/>
                    </g>
                    <g transform="matrix(-0.452845,-2.52388,-2.494,0.458269,3093.99,4966.27)">
                        <path d="M1909.49,893.133L1911.74,895.199C1917.54,893.07 1916.64,887.73 1913.53,886.591C1915.64,889.199 1913.32,893.296 1909.49,893.133Z" style="fill:rgb(177,201,211);"/>
                    </g>
                    <g transform="matrix(-1.26739,-2.22148,-2.19518,1.28257,4428.37,3680.81)">
                        <path d="M1909.49,893.133L1911.74,895.199C1917.54,893.07 1916.64,887.73 1913.53,886.591C1915.64,889.199 1913.32,893.296 1909.49,893.133Z" style="fill:rgb(197,246,250);"/>
                    </g>
                    <g transform="matrix(-1.26739,-2.22148,-2.19518,1.28257,4400.48,3670.73)">
                        <path d="M1909.49,893.133L1911.74,895.199C1917.54,893.07 1916.64,887.73 1913.53,886.591C1915.64,889.199 1913.32,893.296 1909.49,893.133Z" style="fill:rgb(197,246,250);"/>
                    </g>
                    <g transform="matrix(-0.452845,-2.52388,-2.494,0.458269,3093.99,4966.27)">
                        <path d="M1909.49,893.133L1911.74,895.199C1917.54,893.07 1916.64,887.73 1913.53,886.591C1915.64,889.199 1913.32,893.296 1909.49,893.133Z" style="fill:rgb(197,246,250);"/>
                    </g>
                </g>
            </g>
        </g>
        <g transform="matrix(0.801404,0,0,0.801404,2054.99,763.16)">
            <path d="M128.223,27.621C106.379,27.621 87.04,32.612 75.032,40.031C65.276,46.058 60.099,53.905 60.099,61.945C60.099,69.985 65.276,77.832 75.032,83.859C87.04,91.278 106.379,96.269 128.223,96.269C150.068,96.269 169.407,91.278 181.414,83.859C191.171,77.832 196.348,69.985 196.348,61.945C196.348,53.905 191.171,46.058 181.414,40.031C169.407,32.612 150.068,27.621 128.223,27.621ZM128.223,40.288C147.303,40.288 164.269,44.327 174.757,50.807C180.008,54.051 183.681,57.618 183.681,61.945C183.681,66.272 180.008,69.839 174.757,73.083C164.269,79.563 147.303,83.602 128.223,83.602C109.143,83.602 92.178,79.563 81.69,73.083C76.439,69.839 72.766,66.272 72.766,61.945C72.766,57.618 76.439,54.051 81.69,50.807C92.178,44.327 109.143,40.288 128.223,40.288Z" style="fill:rgb(255,212,59);"/>
            <clipPath id="_clip3">
                <path d="M128.223,27.621C106.379,27.621 87.04,32.612 75.032,40.031C65.276,46.058 60.099,53.905 60.099,61.945C60.099,69.985 65.276,77.832 75.032,83.859C87.04,91.278 106.379,96.269 128.223,96.269C150.068,96.269 169.407,91.278 181.414,83.859C191.171,77.832 196.348,69.985 196.348,61.945C196.348,53.905 191.171,46.058 181.414,40.031C169.407,32.612 150.068,27.621 128.223,27.621ZM128.223,40.288C147.303,40.288 164.269,44.327 174.757,50.807C180.008,54.051 183.681,57.618 183.681,61.945C183.681,66.272 180.008,69.839 174.757,73.083C164.269,79.563 147.303,83.602 128.223,83.602C109.143,83.602 92.178,79.563 81.69,73.083C76.439,69.839 72.766,66.272 72.766,61.945C72.766,57.618 76.439,54.051 81.69,50.807C92.178,44.327 109.143,40.288 128.223,40.288Z"/>
            </clipPath>
            <g clip-path="url(#_clip3)">
                <g transform="matrix(4.10106,0,0,4.10106,-7645.1,-3514.07)">
                    <rect x="1894.9" y="859.501" width="23.33" height="28.433" style="fill:rgb(250,176,5);"/>
                </g>
            </g>
        </g>
        <g transform="matrix(1.48551,-0.0964856,0.0964856,1.48551,2012.27,753.851)">
            <path d="M40.794,44.86L44.276,54.269L53.684,57.75L44.276,61.232L40.794,70.64L37.313,61.232L27.904,57.75L37.313,54.269L40.794,44.86Z" style="fill:rgb(255,212,59);"/>
        </g>
        <g transform="matrix(0.718559,0.246093,-0.246093,0.718559,2095.5,721.34)">
            <path d="M40.794,44.86L44.276,54.269L53.684,57.75L44.276,61.232L40.794,70.64L37.313,61.232L27.904,57.75L37.313,54.269L40.794,44.86Z" style="fill:rgb(255,212,59);"/>
        </g>
        <g transform="matrix(0.777558,-0.294193,0.294193,0.777558,2160.4,753.476)">
            <path d="M40.794,44.86L44.276,54.269L53.684,57.75L44.276,61.232L40.794,70.64L37.313,61.232L27.904,57.75L37.313,54.269L40.794,44.86Z" style="fill:rgb(255,212,59);"/>
        </g>
        <g transform="matrix(1.28141,0.495666,-0.495666,1.28141,2214.52,742.215)">
            <path d="M40.794,44.86L44.276,54.269L53.684,57.75L44.276,61.232L40.794,70.64L37.313,61.232L27.904,57.75L37.313,54.269L40.794,44.86Z" style="fill:rgb(255,212,59);"/>
        </g>
        <g transform="matrix(0.524779,0,0,0.524779,2142.74,740.159)">
            <path d="M40.794,44.86L44.276,54.269L53.684,57.75L44.276,61.232L40.794,70.64L37.313,61.232L27.904,57.75L37.313,54.269L40.794,44.86Z" style="fill:rgb(255,212,59);"/>
        </g>
    </g>
</svg>
