<?xml version="1.0" encoding="UTF-8" standalone="no"?>
<!DOCTYPE svg PUBLIC "-//W3C//DTD SVG 1.1//EN" "http://www.w3.org/Graphics/SVG/1.1/DTD/svg11.dtd">
<svg width="100%" height="100%" viewBox="0 0 512 512" version="1.1" xmlns="http://www.w3.org/2000/svg" xmlns:xlink="http://www.w3.org/1999/xlink" xml:space="preserve" xmlns:serif="http://www.serif.com/" style="fill-rule:evenodd;clip-rule:evenodd;stroke-linejoin:round;stroke-miterlimit:2;">
    <g id="WinWarIcon" transform="matrix(4.15254,0,0,3.9407,-17512,-8378.34)">
        <g transform="matrix(0.552869,0.582589,-0.524664,0.552869,2855.63,-1510.65)">
            <g transform="matrix(0.957992,0,0,1.43342,3581.66,-5003.77)">
                <path d="M929.396,4903.29C929.396,4900.01 925.618,4897.35 920.964,4897.35C916.311,4897.35 912.533,4900.01 912.533,4903.29L912.533,4930.37C912.533,4933.65 916.311,4936.31 920.964,4936.31C925.618,4936.31 929.396,4933.65 929.396,4930.37L929.396,4903.29Z" style="fill:rgb(165,98,74);"/>
                <clipPath id="_clip1">
                    <path d="M929.396,4903.29C929.396,4900.01 925.618,4897.35 920.964,4897.35C916.311,4897.35 912.533,4900.01 912.533,4903.29L912.533,4930.37C912.533,4933.65 916.311,4936.31 920.964,4936.31C925.618,4936.31 929.396,4933.65 929.396,4930.37L929.396,4903.29Z"/>
                </clipPath>
                <g clip-path="url(#_clip1)">
                    <g transform="matrix(1,0,0,0.704251,0.764043,1459.91)">
                        <rect x="920.197" y="4888.7" width="19.427" height="53.017" style="fill:rgb(133,79,60);"/>
                    </g>
                </g>
            </g>
            <g transform="matrix(0.957992,0,0,1.00949,3581.51,-2911.1)">
                <path d="M934.041,4793.21C934.041,4792.64 933.876,4792.07 933.565,4791.59C931.672,4788.64 924.657,4777.72 922.244,4773.96C922.062,4773.68 921.75,4773.5 921.413,4773.5C921.077,4773.5 920.761,4773.66 920.573,4773.94C918.06,4777.68 910.713,4788.59 908.707,4791.57C908.374,4792.07 908.196,4792.65 908.196,4793.24C908.196,4803.15 908.196,4890.09 908.196,4890.09L934.041,4890.09L934.041,4793.21Z" style="fill:rgb(180,188,202);"/>
                <clipPath id="_clip2">
                    <path d="M934.041,4793.21C934.041,4792.64 933.876,4792.07 933.565,4791.59C931.672,4788.64 924.657,4777.72 922.244,4773.96C922.062,4773.68 921.75,4773.5 921.413,4773.5C921.077,4773.5 920.761,4773.66 920.573,4773.94C918.06,4777.68 910.713,4788.59 908.707,4791.57C908.374,4792.07 908.196,4792.65 908.196,4793.24C908.196,4803.15 908.196,4890.09 908.196,4890.09L934.041,4890.09L934.041,4793.21Z"/>
                </clipPath>
                <g clip-path="url(#_clip2)">
                    <g transform="matrix(1.51126,0,0,2.50449,-469.539,-7470.84)">
                        <rect x="920.197" y="4888.7" width="19.427" height="53.017" style="fill:rgb(122,132,153);"/>
                    </g>
                </g>
            </g>
            <g transform="matrix(0.957992,0,0,1.00949,3582.13,-2911.1)">
                <path d="M944.186,4890.95C944.186,4889.04 942.628,4887.48 940.709,4887.48L900.231,4887.48C898.312,4887.48 896.754,4889.04 896.754,4890.95L896.754,4897.91C896.754,4899.83 898.312,4901.39 900.231,4901.39L940.709,4901.39C942.628,4901.39 944.186,4899.83 944.186,4897.91L944.186,4890.95Z" style="fill:rgb(239,202,115);"/>
                <clipPath id="_clip3">
                    <path d="M944.186,4890.95C944.186,4889.04 942.628,4887.48 940.709,4887.48L900.231,4887.48C898.312,4887.48 896.754,4889.04 896.754,4890.95L896.754,4897.91C896.754,4899.83 898.312,4901.39 900.231,4901.39L940.709,4901.39C942.628,4901.39 944.186,4899.83 944.186,4897.91L944.186,4890.95Z"/>
                </clipPath>
                <g clip-path="url(#_clip3)">
                    <g transform="matrix(1.51126,0,0,0.400826,-470.187,2924.88)">
                        <rect x="920.197" y="4888.7" width="19.427" height="53.017" style="fill:rgb(234,181,68);"/>
                    </g>
                </g>
            </g>
        </g>
        <g transform="matrix(-0.552869,0.582589,0.524664,0.552869,5702.05,-1510.65)">
            <g transform="matrix(0.957992,0,0,1.43342,3581.66,-5003.77)">
                <path d="M929.396,4903.29C929.396,4900.01 925.618,4897.35 920.964,4897.35C916.311,4897.35 912.533,4900.01 912.533,4903.29L912.533,4930.37C912.533,4933.65 916.311,4936.31 920.964,4936.31C925.618,4936.31 929.396,4933.65 929.396,4930.37L929.396,4903.29Z" style="fill:rgb(165,98,74);"/>
                <clipPath id="_clip4">
                    <path d="M929.396,4903.29C929.396,4900.01 925.618,4897.35 920.964,4897.35C916.311,4897.35 912.533,4900.01 912.533,4903.29L912.533,4930.37C912.533,4933.65 916.311,4936.31 920.964,4936.31C925.618,4936.31 929.396,4933.65 929.396,4930.37L929.396,4903.29Z"/>
                </clipPath>
                <g clip-path="url(#_clip4)">
                    <g transform="matrix(1,0,0,0.704251,0.764043,1459.91)">
                        <rect x="920.197" y="4888.7" width="19.427" height="53.017" style="fill:rgb(133,79,60);"/>
                    </g>
                </g>
            </g>
            <g transform="matrix(0.957992,0,0,1.00949,3581.51,-2911.1)">
                <path d="M934.041,4793.21C934.041,4792.64 933.876,4792.07 933.565,4791.59C931.672,4788.64 924.657,4777.72 922.244,4773.96C922.062,4773.68 921.75,4773.5 921.413,4773.5C921.077,4773.5 920.761,4773.66 920.573,4773.94C918.06,4777.68 910.713,4788.59 908.707,4791.57C908.374,4792.07 908.196,4792.65 908.196,4793.24C908.196,4803.15 908.196,4890.09 908.196,4890.09L934.041,4890.09L934.041,4793.21Z" style="fill:rgb(180,188,202);"/>
                <clipPath id="_clip5">
                    <path d="M934.041,4793.21C934.041,4792.64 933.876,4792.07 933.565,4791.59C931.672,4788.64 924.657,4777.72 922.244,4773.96C922.062,4773.68 921.75,4773.5 921.413,4773.5C921.077,4773.5 920.761,4773.66 920.573,4773.94C918.06,4777.68 910.713,4788.59 908.707,4791.57C908.374,4792.07 908.196,4792.65 908.196,4793.24C908.196,4803.15 908.196,4890.09 908.196,4890.09L934.041,4890.09L934.041,4793.21Z"/>
                </clipPath>
                <g clip-path="url(#_clip5)">
                    <g transform="matrix(1.51126,0,0,2.50449,-469.539,-7470.84)">
                        <rect x="920.197" y="4888.7" width="19.427" height="53.017" style="fill:rgb(122,132,153);"/>
                    </g>
                </g>
            </g>
            <g transform="matrix(0.957992,0,0,1.00949,3582.13,-2911.1)">
                <path d="M944.186,4890.95C944.186,4889.04 942.628,4887.48 940.709,4887.48L900.231,4887.48C898.312,4887.48 896.754,4889.04 896.754,4890.95L896.754,4897.91C896.754,4899.83 898.312,4901.39 900.231,4901.39L940.709,4901.39C942.628,4901.39 944.186,4899.83 944.186,4897.91L944.186,4890.95Z" style="fill:rgb(239,202,115);"/>
                <clipPath id="_clip6">
                    <path d="M944.186,4890.95C944.186,4889.04 942.628,4887.48 940.709,4887.48L900.231,4887.48C898.312,4887.48 896.754,4889.04 896.754,4890.95L896.754,4897.91C896.754,4899.83 898.312,4901.39 900.231,4901.39L940.709,4901.39C942.628,4901.39 944.186,4899.83 944.186,4897.91L944.186,4890.95Z"/>
                </clipPath>
                <g clip-path="url(#_clip6)">
                    <g transform="matrix(1.51126,0,0,0.400826,-470.187,2924.88)">
                        <rect x="920.197" y="4888.7" width="19.427" height="53.017" style="fill:rgb(234,181,68);"/>
                    </g>
                </g>
            </g>
        </g>
    </g>
</svg>
