<?xml version="1.0" encoding="UTF-8" standalone="no"?>
<!DOCTYPE svg PUBLIC "-//W3C//DTD SVG 1.1//EN" "http://www.w3.org/Graphics/SVG/1.1/DTD/svg11.dtd">
<svg width="100%" height="100%" viewBox="0 0 512 512" version="1.1" xmlns="http://www.w3.org/2000/svg" xmlns:xlink="http://www.w3.org/1999/xlink" xml:space="preserve" xmlns:serif="http://www.serif.com/" style="fill-rule:evenodd;clip-rule:evenodd;stroke-linejoin:round;stroke-miterlimit:2;">
    <g id="WitchHatIcon" transform="matrix(1.89232,0,0,1.89232,-3566.07,-1539.08)">
        <g transform="matrix(0.594707,0,0,0.594707,1077,342.127)">
            <path d="M1467.16,1108.55C1467.16,1108.55 1512.87,932.588 1516.83,917.358C1517,916.686 1517.43,916.108 1518.03,915.748C1530.13,908.419 1657.05,831.591 1675.25,820.571C1676.47,819.836 1678.04,820.182 1678.84,821.359C1689.44,837.049 1756.13,935.743 1766.93,951.727C1767.15,952.043 1767.13,952.461 1766.9,952.764C1766.67,953.067 1766.27,953.189 1765.91,953.067C1752.15,948.406 1685.89,925.956 1675.75,922.521C1674.99,922.261 1674.14,922.552 1673.7,923.23C1669.31,929.927 1647.13,963.783 1643.4,969.477C1643.07,969.984 1643.02,970.625 1643.26,971.177C1648.47,982.788 1702.97,1104.45 1702.97,1104.45L1467.16,1108.55Z" style="fill:rgb(100,126,182);"/>
            <clipPath id="_clip1">
                <path d="M1467.16,1108.55C1467.16,1108.55 1512.87,932.588 1516.83,917.358C1517,916.686 1517.43,916.108 1518.03,915.748C1530.13,908.419 1657.05,831.591 1675.25,820.571C1676.47,819.836 1678.04,820.182 1678.84,821.359C1689.44,837.049 1756.13,935.743 1766.93,951.727C1767.15,952.043 1767.13,952.461 1766.9,952.764C1766.67,953.067 1766.27,953.189 1765.91,953.067C1752.15,948.406 1685.89,925.956 1675.75,922.521C1674.99,922.261 1674.14,922.552 1673.7,923.23C1669.31,929.927 1647.13,963.783 1643.4,969.477C1643.07,969.984 1643.02,970.625 1643.26,971.177C1648.47,982.788 1702.97,1104.45 1702.97,1104.45L1467.16,1108.55Z"/>
            </clipPath>
            <g clip-path="url(#_clip1)">
                <g transform="matrix(1.6815,0,0,1.40376,-1842.13,-307.248)">
                    <path d="M2157.34,909.181L2082.02,829.674L2038.52,879.527L2038.52,1005.29L2153.05,1005.29L2157.34,909.181Z" style="fill:rgb(74,91,138);"/>
                </g>
            </g>
        </g>
        <g transform="matrix(0.594707,0,0,0.596259,1077.94,344.098)">
            <ellipse cx="1583.71" cy="1153.49" rx="217.668" ry="60.376" style="fill:rgb(100,126,182);"/>
            <clipPath id="_clip2">
                <ellipse cx="1583.71" cy="1153.49" rx="217.668" ry="60.376"/>
            </clipPath>
            <g clip-path="url(#_clip2)">
                <g transform="matrix(2.06536,0,0,0.687645,-2626.21,552.267)">
                    <rect x="2038.52" y="797.462" width="114.531" height="207.828" style="fill:rgb(74,91,138);"/>
                </g>
            </g>
        </g>
        <g transform="matrix(0.594707,0,0,0.594707,1077.34,341.576)">
            <path d="M1680.8,1056.39C1638.14,1086.52 1524.92,1086.34 1479.43,1056.39L1462.14,1110.81C1516.82,1143.4 1650.13,1146.67 1707.28,1110.81L1680.8,1056.39Z" style="fill:rgb(214,116,221);"/>
            <clipPath id="_clip3">
                <path d="M1680.8,1056.39C1638.14,1086.52 1524.92,1086.34 1479.43,1056.39L1462.14,1110.81C1516.82,1143.4 1650.13,1146.67 1707.28,1110.81L1680.8,1056.39Z"/>
            </clipPath>
            <g clip-path="url(#_clip3)">
                <g transform="matrix(1.16486,0,0,0.485859,-789.518,662.027)">
                    <rect x="2038.52" y="797.462" width="114.531" height="207.828" style="fill:rgb(137,77,175);"/>
                </g>
            </g>
        </g>
        <g transform="matrix(2.27248,0,0,2.27248,-2426,-1317.99)">
            <path d="M1963.61,1010.31C1966.24,1010.31 1968.38,1012.45 1968.38,1015.09L1968.38,1024.64C1968.38,1027.28 1966.24,1029.42 1963.61,1029.42L1949.42,1029.42C1946.79,1029.42 1944.64,1027.28 1944.64,1024.64L1944.64,1015.09C1944.64,1012.45 1946.79,1010.31 1949.42,1010.31L1963.61,1010.31ZM1959.45,1015.9L1953.58,1015.9C1952.48,1015.9 1951.59,1016.79 1951.59,1017.88L1951.59,1021.85C1951.59,1022.94 1952.48,1023.83 1953.58,1023.83L1959.45,1023.83C1960.55,1023.83 1961.43,1022.94 1961.43,1021.85L1961.43,1017.88C1961.43,1016.79 1960.55,1015.9 1959.45,1015.9Z" style="fill:rgb(255,232,80);"/>
            <clipPath id="_clip4">
                <path d="M1963.61,1010.31C1966.24,1010.31 1968.38,1012.45 1968.38,1015.09L1968.38,1024.64C1968.38,1027.28 1966.24,1029.42 1963.61,1029.42L1949.42,1029.42C1946.79,1029.42 1944.64,1027.28 1944.64,1024.64L1944.64,1015.09C1944.64,1012.45 1946.79,1010.31 1949.42,1010.31L1963.61,1010.31ZM1959.45,1015.9L1953.58,1015.9C1952.48,1015.9 1951.59,1016.79 1951.59,1017.88L1951.59,1021.85C1951.59,1022.94 1952.48,1023.83 1953.58,1023.83L1959.45,1023.83C1960.55,1023.83 1961.43,1022.94 1961.43,1021.85L1961.43,1017.88C1961.43,1016.79 1960.55,1015.9 1959.45,1015.9Z"/>
            </clipPath>
            <g clip-path="url(#_clip4)">
                <g transform="matrix(0.304843,0,0,0.127149,1335.02,903.541)">
                    <rect x="2038.52" y="797.462" width="114.531" height="207.828" style="fill:rgb(214,141,30);"/>
                </g>
            </g>
        </g>
    </g>
</svg>
