<?xml version="1.0" encoding="UTF-8" standalone="no"?>
<!DOCTYPE svg PUBLIC "-//W3C//DTD SVG 1.1//EN" "http://www.w3.org/Graphics/SVG/1.1/DTD/svg11.dtd">
<svg width="100%" height="100%" viewBox="0 0 512 512" version="1.1" xmlns="http://www.w3.org/2000/svg" xmlns:xlink="http://www.w3.org/1999/xlink" xml:space="preserve" xmlns:serif="http://www.serif.com/" style="fill-rule:evenodd;clip-rule:evenodd;stroke-linejoin:round;stroke-miterlimit:2;">
    <g id="AbilityIcon" transform="matrix(6.17057,0,0,6.17057,-2204.7,-2737.2)">
        <path d="M415.913,515.32L364.68,515.32C363.205,515.32 362.007,514.137 362.007,512.679L362.007,507.771L400.965,507.771C406.436,512.383 414.213,511.048 418.586,508.092L418.586,512.679C418.586,514.136 417.388,515.32 415.913,515.32ZM421.472,499.968C425.344,501.088 433.11,499.001 431.784,490.616C436.143,488.779 437.417,483.819 434.529,478.245C437.152,475.784 436.455,465.551 428.624,464.494C429.001,468.561 428.893,474.692 416.689,476.999C403.27,479.536 397.48,487.334 399.505,496.891C402.556,511.293 416.689,506.832 418.193,502.079C419.963,496.483 413.972,492.779 411.069,494.735C414.033,491.207 420.596,492.15 421.472,499.968ZM399.506,506.329L361.855,506.329C361.855,506.329 357.984,488.903 375.068,485.55C378.576,484.861 384.577,485.747 390.535,487.066L390.535,467.395L418.774,467.395L418.774,472.162C400.486,475.692 392.807,484.768 395.527,497.661C396.331,501.47 397.741,504.295 399.506,506.329ZM419.487,465.664L390.65,465.664C389.138,465.664 387.91,464.451 387.91,462.956L387.91,457.541C387.91,456.047 389.138,454.833 390.65,454.833L419.487,454.833C420.999,454.833 422.227,456.047 422.227,457.541L422.227,462.956C422.227,464.451 420.999,465.664 419.487,465.664Z" style="fill:white;"/>
    </g>
</svg>
