<?xml version="1.0" encoding="UTF-8" standalone="no"?>
<!DOCTYPE svg PUBLIC "-//W3C//DTD SVG 1.1//EN" "http://www.w3.org/Graphics/SVG/1.1/DTD/svg11.dtd">
<svg width="100%" height="100%" viewBox="0 0 512 512" version="1.1" xmlns="http://www.w3.org/2000/svg" xmlns:xlink="http://www.w3.org/1999/xlink" xml:space="preserve" xmlns:serif="http://www.serif.com/" style="fill-rule:evenodd;clip-rule:evenodd;stroke-linejoin:round;stroke-miterlimit:2;">
    <path id="Achievement" d="M256,0C397.29,0 512,114.71 512,256C512,397.29 397.29,512 256,512C114.71,512 0,397.29 0,256C0,114.71 114.71,0 256,0ZM240.217,294.659C200.559,287.243 170.507,252.415 170.507,210.623L170.507,128.826C170.507,127.148 171.174,125.539 172.36,124.353C173.547,123.167 175.156,122.5 176.834,122.5C203.712,122.5 308.288,122.5 335.166,122.5C336.844,122.5 338.453,123.167 339.64,124.353C340.826,125.539 341.493,127.148 341.493,128.826C341.493,149.02 341.493,210.623 341.493,210.623C341.493,252.415 311.441,287.243 271.783,294.659L271.783,346.096L317.489,346.096C323.478,346.096 328.34,350.958 328.34,356.947L328.34,378.649C328.34,384.638 323.478,389.5 317.489,389.5L194.511,389.5C188.522,389.5 183.66,384.638 183.66,378.649L183.66,356.947C183.66,350.958 188.522,346.096 194.511,346.096L240.217,346.096L240.217,294.659ZM251.543,159.903C252.216,158.02 254,156.762 256,156.762C258,156.762 259.784,158.02 260.457,159.903L269.102,184.106L294.792,184.849C296.791,184.906 298.538,186.215 299.156,188.117C299.774,190.019 299.13,192.104 297.546,193.326L277.199,209.027L284.432,233.689C284.994,235.608 284.29,237.674 282.672,238.85C281.054,240.025 278.871,240.057 277.22,238.929L256,224.429L234.78,238.929C233.129,240.057 230.946,240.025 229.328,238.85C227.71,237.674 227.006,235.608 227.568,233.689L234.801,209.027L214.454,193.326C212.87,192.104 212.226,190.019 212.844,188.117C213.462,186.215 215.209,184.906 217.208,184.849L242.898,184.106L251.543,159.903Z" style="fill:white;"/>
</svg>
