<?xml version="1.0" encoding="UTF-8" standalone="no"?>
<!DOCTYPE svg PUBLIC "-//W3C//DTD SVG 1.1//EN" "http://www.w3.org/Graphics/SVG/1.1/DTD/svg11.dtd">
<svg width="100%" height="100%" viewBox="0 0 512 512" version="1.1" xmlns="http://www.w3.org/2000/svg" xmlns:xlink="http://www.w3.org/1999/xlink" xml:space="preserve" xmlns:serif="http://www.serif.com/" style="fill-rule:evenodd;clip-rule:evenodd;stroke-linejoin:round;stroke-miterlimit:2;">
    <g id="AimIcon" transform="matrix(5.68927,0,0,5.39903,-24123,-4208.68)">
        <g transform="matrix(0.957992,0,0,1.00949,3582.13,-2911.1)">
            <path d="M733.66,3670.21C752.25,3670.21 767.342,3685.3 767.342,3703.89C767.342,3722.48 752.25,3737.57 733.66,3737.57C715.07,3737.57 699.978,3722.48 699.978,3703.89C699.978,3685.3 715.07,3670.21 733.66,3670.21ZM733.66,3674.46C749.902,3674.46 763.089,3687.65 763.089,3703.89C763.089,3720.13 749.902,3733.32 733.66,3733.32C717.417,3733.32 704.23,3720.13 704.23,3703.89C704.23,3687.65 717.417,3674.46 733.66,3674.46Z" style="fill:white;"/>
        </g>
        <g transform="matrix(2.85997e-17,0.492176,-0.341445,2.20314e-17,5575.48,466.854)">
            <path d="M735.723,3660.25C735.723,3659.8 735.458,3659.44 735.132,3659.44L728.109,3659.44C727.783,3659.44 727.519,3659.8 727.519,3660.25L727.519,3744.01C727.519,3744.46 727.783,3744.82 728.109,3744.82L735.132,3744.82C735.458,3744.82 735.723,3744.46 735.723,3744.01L735.723,3660.25Z" style="fill:white;"/>
        </g>
        <g transform="matrix(2.85997e-17,0.492176,-0.335884,2.16726e-17,5502.02,466.854)">
            <path d="M735.723,3660.26C735.723,3659.81 735.458,3659.44 735.132,3659.44L728.109,3659.44C727.783,3659.44 727.519,3659.81 727.519,3660.26L727.519,3744C727.519,3744.45 727.783,3744.82 728.109,3744.82L735.132,3744.82C735.458,3744.82 735.723,3744.45 735.723,3744L735.723,3660.26Z" style="fill:white;"/>
        </g>
        <g transform="matrix(-0.467068,6.02742e-17,-3.98583e-17,-0.342964,4626.8,2125.09)">
            <path d="M735.723,3660.29C735.723,3659.82 735.458,3659.44 735.132,3659.44L728.109,3659.44C727.783,3659.44 727.519,3659.82 727.519,3660.29L727.519,3743.97C727.519,3744.44 727.783,3744.82 728.109,3744.82L735.132,3744.82C735.458,3744.82 735.723,3744.44 735.723,3743.97L735.723,3660.29Z" style="fill:white;"/>
        </g>
        <g transform="matrix(-0.467068,6.02742e-17,-4.25333e-17,-0.365981,4626.8,2154.38)">
            <path d="M735.723,3660.24C735.723,3659.8 735.458,3659.44 735.132,3659.44L728.109,3659.44C727.783,3659.44 727.519,3659.8 727.519,3660.24L727.519,3744.03C727.519,3744.46 727.783,3744.82 728.109,3744.82L735.132,3744.82C735.458,3744.82 735.723,3744.46 735.723,3744.03L735.723,3660.24Z" style="fill:white;"/>
        </g>
        <g transform="matrix(0.957992,0,0,1.00949,3582.13,-2911.1)">
            <path d="M733.66,3690.23C741.196,3690.23 747.315,3696.35 747.315,3703.89C747.315,3711.43 741.196,3717.54 733.66,3717.54C726.123,3717.54 720.005,3711.43 720.005,3703.89C720.005,3696.35 726.123,3690.23 733.66,3690.23ZM733.66,3693.94C739.149,3693.94 743.606,3698.4 743.606,3703.89C743.606,3709.38 739.149,3713.84 733.66,3713.84C728.17,3713.84 723.714,3709.38 723.714,3703.89C723.714,3698.4 728.17,3693.94 733.66,3693.94Z" style="fill:white;"/>
        </g>
        <g transform="matrix(0.957992,0,0,1.00949,-4806.26,-2678.01)">
            <circle cx="9489.89" cy="3472.99" r="3.092" style="fill:white;"/>
            <path d="M9489.93,3469.9L9489.97,3469.9L9490.01,3469.91L9490.05,3469.91L9490.09,3469.91L9490.13,3469.91L9490.17,3469.91L9490.21,3469.92L9490.25,3469.92L9490.28,3469.93L9490.32,3469.93L9490.36,3469.94L9490.4,3469.95L9490.44,3469.95L9490.48,3469.96L9490.51,3469.97L9490.55,3469.97L9490.59,3469.98L9490.62,3469.99L9490.66,3470L9490.7,3470.01L9490.74,3470.02L9490.77,3470.03L9490.81,3470.04L9490.84,3470.05L9490.88,3470.07L9490.92,3470.08L9490.95,3470.09L9490.99,3470.1L9491.02,3470.12L9491.06,3470.13L9491.09,3470.15L9491.13,3470.16L9491.16,3470.18L9491.2,3470.19L9491.23,3470.21L9491.26,3470.22L9491.3,3470.24L9491.33,3470.26L9491.36,3470.28L9491.4,3470.29L9491.43,3470.31L9491.46,3470.33L9491.49,3470.35L9491.52,3470.37L9491.56,3470.39L9491.59,3470.41L9491.62,3470.43L9491.65,3470.45L9491.68,3470.47L9491.71,3470.49L9491.74,3470.52L9491.77,3470.54L9491.8,3470.56L9491.83,3470.59L9491.86,3470.61L9491.88,3470.63L9491.91,3470.66L9491.94,3470.68L9491.97,3470.71L9492,3470.73L9492.02,3470.76L9492.05,3470.78L9492.08,3470.81L9492.1,3470.84L9492.13,3470.86L9492.15,3470.89L9492.18,3470.92L9492.2,3470.94L9492.23,3470.97L9492.25,3471L9492.27,3471.03L9492.3,3471.06L9492.32,3471.09L9492.34,3471.12L9492.37,3471.14L9492.39,3471.18L9492.41,3471.2L9492.43,3471.24L9492.45,3471.27L9492.47,3471.3L9492.49,3471.33L9492.51,3471.36L9492.53,3471.39L9492.55,3471.42L9492.57,3471.46L9492.59,3471.49L9492.61,3471.52L9492.63,3471.55L9492.64,3471.59L9492.66,3471.62L9492.68,3471.66L9492.69,3471.69L9492.71,3471.72L9492.72,3471.76L9492.74,3471.79L9492.75,3471.83L9492.77,3471.86L9492.78,3471.9L9492.79,3471.93L9492.81,3471.97L9492.82,3472L9492.83,3472.04L9492.84,3472.08L9492.85,3472.11L9492.86,3472.15L9492.87,3472.18L9492.88,3472.22L9492.89,3472.26L9492.9,3472.3L9492.91,3472.33L9492.92,3472.37L9492.93,3472.41L9492.93,3472.45L9492.94,3472.49L9492.95,3472.52L9492.95,3472.56L9492.96,3472.6L9492.96,3472.64L9492.97,3472.68L9492.97,3472.72L9492.97,3472.76L9492.98,3472.8L9492.98,3472.84L9492.98,3472.88L9492.98,3472.91L9492.98,3472.95L9492.98,3472.99L9492.98,3473.03L9492.98,3473.07L9492.98,3473.11L9492.98,3473.15L9492.98,3473.19L9492.97,3473.23L9492.97,3473.27L9492.97,3473.31L9492.96,3473.35L9492.96,3473.39L9492.95,3473.43L9492.95,3473.47L9492.94,3473.5L9492.93,3473.54L9492.93,3473.58L9492.92,3473.62L9492.91,3473.66L9492.9,3473.69L9492.89,3473.73L9492.88,3473.77L9492.87,3473.8L9492.86,3473.84L9492.85,3473.88L9492.84,3473.91L9492.83,3473.95L9492.82,3473.99L9492.81,3474.02L9492.79,3474.06L9492.78,3474.09L9492.77,3474.13L9492.75,3474.16L9492.74,3474.2L9492.72,3474.23L9492.71,3474.27L9492.69,3474.3L9492.68,3474.33L9492.66,3474.37L9492.64,3474.4L9492.63,3474.43L9492.61,3474.47L9492.59,3474.5L9492.57,3474.53L9492.55,3474.57L9492.53,3474.6L9492.51,3474.63L9492.49,3474.66L9492.47,3474.69L9492.45,3474.72L9492.43,3474.75L9492.41,3474.78L9492.39,3474.81L9492.37,3474.84L9492.34,3474.87L9492.32,3474.9L9492.3,3474.93L9492.27,3474.96L9492.25,3474.99L9492.23,3475.02L9492.2,3475.05L9492.18,3475.07L9492.15,3475.1L9492.13,3475.13L9492.1,3475.15L9492.08,3475.18L9492.05,3475.21L9492.02,3475.23L9492,3475.26L9491.97,3475.28L9491.94,3475.31L9491.91,3475.33L9491.88,3475.36L9491.86,3475.38L9491.83,3475.4L9491.8,3475.43L9491.77,3475.45L9491.74,3475.47L9491.71,3475.49L9491.68,3475.51L9491.65,3475.54L9491.62,3475.56L9491.59,3475.58L9491.56,3475.6L9491.52,3475.62L9491.49,3475.64L9491.46,3475.66L9491.43,3475.68L9491.4,3475.7L9491.36,3475.71L9491.33,3475.73L9491.3,3475.75L9491.26,3475.76L9491.23,3475.78L9491.2,3475.8L9491.16,3475.81L9491.13,3475.83L9491.09,3475.84L9491.06,3475.86L9491.02,3475.87L9490.99,3475.89L9490.95,3475.9L9490.92,3475.91L9490.88,3475.92L9490.84,3475.93L9490.81,3475.95L9490.77,3475.96L9490.74,3475.97L9490.7,3475.98L9490.66,3475.99L9490.62,3476L9490.59,3476.01L9490.55,3476.01L9490.51,3476.02L9490.48,3476.03L9490.44,3476.04L9490.4,3476.04L9490.36,3476.05L9490.32,3476.06L9490.28,3476.06L9490.25,3476.07L9490.21,3476.07L9490.17,3476.07L9490.13,3476.08L9490.09,3476.08L9490.05,3476.08L9490.01,3476.08L9489.97,3476.09L9489.93,3476.09L9489.89,3476.09L9489.85,3476.09L9489.81,3476.09L9489.77,3476.08L9489.73,3476.08L9489.69,3476.08L9489.65,3476.08L9489.61,3476.07L9489.57,3476.07L9489.53,3476.07L9489.5,3476.06L9489.46,3476.06L9489.42,3476.05L9489.38,3476.04L9489.34,3476.04L9489.31,3476.03L9489.27,3476.02L9489.23,3476.01L9489.19,3476.01L9489.16,3476L9489.12,3475.99L9489.08,3475.98L9489.04,3475.97L9489.01,3475.96L9488.97,3475.95L9488.93,3475.93L9488.9,3475.92L9488.86,3475.91L9488.83,3475.9L9488.79,3475.89L9488.76,3475.87L9488.72,3475.86L9488.69,3475.84L9488.65,3475.83L9488.62,3475.81L9488.58,3475.8L9488.55,3475.78L9488.52,3475.76L9488.48,3475.75L9488.45,3475.73L9488.42,3475.71L9488.38,3475.7L9488.35,3475.68L9488.32,3475.66L9488.29,3475.64L9488.26,3475.62L9488.22,3475.6L9488.19,3475.58L9488.16,3475.56L9488.13,3475.54L9488.1,3475.51L9488.07,3475.49L9488.04,3475.47L9488.01,3475.45L9487.98,3475.43L9487.95,3475.4L9487.92,3475.38L9487.9,3475.36L9487.87,3475.33L9487.84,3475.31L9487.81,3475.28L9487.78,3475.26L9487.76,3475.23L9487.73,3475.21L9487.7,3475.18L9487.68,3475.15L9487.65,3475.13L9487.63,3475.1L9487.6,3475.07L9487.58,3475.05L9487.55,3475.02L9487.53,3474.99L9487.51,3474.96L9487.48,3474.93L9487.46,3474.9L9487.43,3474.87L9487.41,3474.84L9487.39,3474.81L9487.37,3474.78L9487.35,3474.75L9487.33,3474.72L9487.31,3474.69L9487.29,3474.66L9487.27,3474.63L9487.25,3474.6L9487.23,3474.57L9487.21,3474.53L9487.19,3474.5L9487.17,3474.47L9487.15,3474.43L9487.14,3474.4L9487.12,3474.37L9487.1,3474.33L9487.09,3474.3L9487.07,3474.27L9487.06,3474.23L9487.04,3474.2L9487.03,3474.16L9487.01,3474.13L9487,3474.09L9486.99,3474.06L9486.97,3474.02L9486.96,3473.99L9486.95,3473.95L9486.94,3473.91L9486.93,3473.88L9486.92,3473.84L9486.91,3473.8L9486.9,3473.77L9486.89,3473.73L9486.88,3473.69L9486.87,3473.66L9486.86,3473.62L9486.85,3473.58L9486.85,3473.54L9486.84,3473.5L9486.83,3473.47L9486.83,3473.43L9486.82,3473.39L9486.82,3473.35L9486.81,3473.31L9486.81,3473.27L9486.81,3473.23L9486.81,3473.19L9486.8,3473.15L9486.8,3473.11L9486.8,3473.07L9486.8,3473.03L9486.8,3472.99L9486.8,3472.95L9486.8,3472.91L9486.8,3472.88L9486.8,3472.84L9486.81,3472.8L9486.81,3472.76L9486.81,3472.72L9486.81,3472.68L9486.82,3472.64L9486.82,3472.6L9486.83,3472.56L9486.83,3472.52L9486.84,3472.49L9486.85,3472.45L9486.85,3472.41L9486.86,3472.37L9486.87,3472.33L9486.88,3472.3L9486.89,3472.26L9486.9,3472.22L9486.91,3472.18L9486.92,3472.15L9486.93,3472.11L9486.94,3472.08L9486.95,3472.04L9486.96,3472L9486.97,3471.97L9486.99,3471.93L9487,3471.9L9487.01,3471.86L9487.03,3471.83L9487.04,3471.79L9487.06,3471.76L9487.07,3471.72L9487.09,3471.69L9487.1,3471.66L9487.12,3471.62L9487.14,3471.59L9487.15,3471.55L9487.17,3471.52L9487.19,3471.49L9487.21,3471.46L9487.23,3471.42L9487.25,3471.39L9487.27,3471.36L9487.29,3471.33L9487.31,3471.3L9487.33,3471.27L9487.35,3471.24L9487.37,3471.2L9487.39,3471.18L9487.41,3471.14L9487.43,3471.12L9487.46,3471.09L9487.48,3471.06L9487.51,3471.03L9487.53,3471L9487.55,3470.97L9487.58,3470.94L9487.6,3470.92L9487.63,3470.89L9487.65,3470.86L9487.68,3470.84L9487.7,3470.81L9487.73,3470.78L9487.76,3470.76L9487.78,3470.73L9487.81,3470.71L9487.84,3470.68L9487.87,3470.66L9487.9,3470.63L9487.92,3470.61L9487.95,3470.59L9487.98,3470.56L9488.01,3470.54L9488.04,3470.52L9488.07,3470.49L9488.1,3470.47L9488.13,3470.45L9488.16,3470.43L9488.19,3470.41L9488.22,3470.39L9488.26,3470.37L9488.29,3470.35L9488.32,3470.33L9488.35,3470.31L9488.38,3470.29L9488.42,3470.28L9488.45,3470.26L9488.48,3470.24L9488.52,3470.22L9488.55,3470.21L9488.58,3470.19L9488.62,3470.18L9488.65,3470.16L9488.69,3470.15L9488.72,3470.13L9488.76,3470.12L9488.79,3470.1L9488.83,3470.09L9488.86,3470.08L9488.9,3470.07L9488.93,3470.05L9488.97,3470.04L9489.01,3470.03L9489.04,3470.02L9489.08,3470.01L9489.12,3470L9489.16,3469.99L9489.19,3469.98L9489.23,3469.97L9489.27,3469.97L9489.31,3469.96L9489.34,3469.95L9489.38,3469.95L9489.42,3469.94L9489.46,3469.93L9489.5,3469.93L9489.53,3469.92L9489.57,3469.92L9489.61,3469.91L9489.65,3469.91L9489.69,3469.91L9489.73,3469.91L9489.77,3469.91L9489.81,3469.9L9489.85,3469.9L9489.89,3469.9L9489.93,3469.9ZM9489.87,3471.24L9489.84,3471.24L9489.82,3471.24L9489.8,3471.24L9489.78,3471.24L9489.75,3471.24L9489.73,3471.24L9489.71,3471.24L9489.69,3471.25L9489.67,3471.25L9489.64,3471.25L9489.62,3471.26L9489.6,3471.26L9489.58,3471.26L9489.56,3471.27L9489.53,3471.27L9489.51,3471.28L9489.49,3471.28L9489.47,3471.29L9489.45,3471.29L9489.43,3471.3L9489.41,3471.3L9489.39,3471.31L9489.37,3471.32L9489.35,3471.32L9489.33,3471.33L9489.31,3471.34L9489.29,3471.34L9489.27,3471.35L9489.25,3471.36L9489.23,3471.37L9489.21,3471.37L9489.19,3471.38L9489.17,3471.39L9489.15,3471.4L9489.13,3471.41L9489.11,3471.42L9489.09,3471.43L9489.07,3471.44L9489.05,3471.45L9489.03,3471.46L9489.02,3471.47L9489,3471.48L9488.98,3471.49L9488.96,3471.5L9488.94,3471.51L9488.93,3471.52L9488.91,3471.54L9488.89,3471.55L9488.87,3471.56L9488.86,3471.57L9488.84,3471.59L9488.82,3471.6L9488.81,3471.61L9488.79,3471.62L9488.77,3471.64L9488.76,3471.65L9488.74,3471.66L9488.72,3471.68L9488.71,3471.69L9488.69,3471.71L9488.68,3471.72L9488.66,3471.74L9488.65,3471.75L9488.63,3471.77L9488.62,3471.78L9488.6,3471.8L9488.59,3471.81L9488.57,3471.83L9488.56,3471.85L9488.55,3471.86L9488.53,3471.88L9488.52,3471.89L9488.51,3471.91L9488.49,3471.93L9488.48,3471.94L9488.47,3471.96L9488.45,3471.98L9488.44,3471.99L9488.43,3472.01L9488.42,3472.03L9488.41,3472.05L9488.4,3472.07L9488.39,3472.08L9488.38,3472.1L9488.36,3472.12L9488.35,3472.14L9488.34,3472.16L9488.33,3472.18L9488.32,3472.2L9488.31,3472.21L9488.3,3472.23L9488.3,3472.25L9488.29,3472.27L9488.28,3472.29L9488.27,3472.31L9488.26,3472.33L9488.25,3472.35L9488.25,3472.37L9488.24,3472.39L9488.23,3472.41L9488.22,3472.43L9488.22,3472.45L9488.21,3472.47L9488.2,3472.49L9488.2,3472.51L9488.19,3472.53L9488.19,3472.56L9488.18,3472.58L9488.18,3472.6L9488.17,3472.62L9488.17,3472.64L9488.16,3472.66L9488.16,3472.68L9488.16,3472.7L9488.15,3472.72L9488.15,3472.75L9488.15,3472.77L9488.14,3472.79L9488.14,3472.81L9488.14,3472.84L9488.14,3472.86L9488.14,3472.88L9488.13,3472.9L9488.13,3472.93L9488.13,3472.95L9488.13,3472.97L9488.13,3472.99L9488.13,3473.02L9488.13,3473.04L9488.13,3473.06L9488.13,3473.09L9488.14,3473.11L9488.14,3473.13L9488.14,3473.15L9488.14,3473.18L9488.14,3473.2L9488.15,3473.22L9488.15,3473.24L9488.15,3473.26L9488.16,3473.28L9488.16,3473.31L9488.16,3473.33L9488.17,3473.35L9488.17,3473.37L9488.18,3473.39L9488.18,3473.41L9488.19,3473.43L9488.19,3473.45L9488.2,3473.48L9488.2,3473.5L9488.21,3473.52L9488.22,3473.54L9488.22,3473.56L9488.23,3473.58L9488.24,3473.6L9488.25,3473.62L9488.25,3473.64L9488.26,3473.66L9488.27,3473.68L9488.28,3473.7L9488.29,3473.72L9488.3,3473.74L9488.3,3473.76L9488.31,3473.77L9488.32,3473.79L9488.33,3473.81L9488.34,3473.83L9488.35,3473.85L9488.36,3473.87L9488.38,3473.89L9488.39,3473.9L9488.4,3473.92L9488.41,3473.94L9488.42,3473.96L9488.43,3473.98L9488.44,3473.99L9488.45,3474.01L9488.47,3474.03L9488.48,3474.05L9488.49,3474.06L9488.51,3474.08L9488.52,3474.1L9488.53,3474.11L9488.55,3474.13L9488.56,3474.14L9488.57,3474.16L9488.59,3474.18L9488.6,3474.19L9488.62,3474.21L9488.63,3474.22L9488.65,3474.24L9488.66,3474.25L9488.68,3474.27L9488.69,3474.28L9488.71,3474.3L9488.72,3474.31L9488.74,3474.32L9488.76,3474.34L9488.77,3474.35L9488.79,3474.37L9488.81,3474.38L9488.82,3474.39L9488.84,3474.4L9488.86,3474.42L9488.87,3474.43L9488.89,3474.44L9488.91,3474.45L9488.93,3474.47L9488.94,3474.48L9488.96,3474.49L9488.98,3474.5L9489,3474.51L9489.02,3474.52L9489.03,3474.53L9489.05,3474.54L9489.07,3474.55L9489.09,3474.56L9489.11,3474.57L9489.13,3474.58L9489.15,3474.59L9489.17,3474.6L9489.19,3474.61L9489.21,3474.62L9489.23,3474.62L9489.25,3474.63L9489.27,3474.64L9489.29,3474.65L9489.31,3474.65L9489.33,3474.66L9489.35,3474.67L9489.37,3474.67L9489.39,3474.68L9489.41,3474.69L9489.43,3474.69L9489.45,3474.7L9489.47,3474.7L9489.49,3474.71L9489.51,3474.71L9489.53,3474.72L9489.56,3474.72L9489.58,3474.72L9489.6,3474.73L9489.62,3474.73L9489.64,3474.74L9489.67,3474.74L9489.69,3474.74L9489.71,3474.74L9489.73,3474.75L9489.75,3474.75L9489.78,3474.75L9489.8,3474.75L9489.82,3474.75L9489.84,3474.75L9489.87,3474.75L9489.89,3474.75L9489.91,3474.75L9489.94,3474.75L9489.96,3474.75L9489.98,3474.75L9490,3474.75L9490.03,3474.75L9490.05,3474.75L9490.07,3474.74L9490.09,3474.74L9490.11,3474.74L9490.14,3474.74L9490.16,3474.73L9490.18,3474.73L9490.2,3474.72L9490.22,3474.72L9490.25,3474.72L9490.27,3474.71L9490.29,3474.71L9490.31,3474.7L9490.33,3474.7L9490.35,3474.69L9490.37,3474.69L9490.39,3474.68L9490.41,3474.67L9490.43,3474.67L9490.45,3474.66L9490.47,3474.65L9490.49,3474.65L9490.51,3474.64L9490.53,3474.63L9490.55,3474.62L9490.57,3474.62L9490.59,3474.61L9490.61,3474.6L9490.63,3474.59L9490.65,3474.58L9490.67,3474.57L9490.69,3474.56L9490.71,3474.55L9490.73,3474.54L9490.75,3474.53L9490.76,3474.52L9490.78,3474.51L9490.8,3474.5L9490.82,3474.49L9490.84,3474.48L9490.85,3474.47L9490.87,3474.45L9490.89,3474.44L9490.91,3474.43L9490.92,3474.42L9490.94,3474.4L9490.96,3474.39L9490.97,3474.38L9490.99,3474.37L9491.01,3474.35L9491.02,3474.34L9491.04,3474.32L9491.06,3474.31L9491.07,3474.3L9491.09,3474.28L9491.1,3474.27L9491.12,3474.25L9491.13,3474.24L9491.15,3474.22L9491.16,3474.21L9491.18,3474.19L9491.19,3474.18L9491.2,3474.16L9491.22,3474.14L9491.23,3474.13L9491.25,3474.11L9491.26,3474.1L9491.27,3474.08L9491.29,3474.06L9491.3,3474.05L9491.31,3474.03L9491.32,3474.01L9491.34,3473.99L9491.35,3473.98L9491.36,3473.96L9491.37,3473.94L9491.38,3473.92L9491.39,3473.9L9491.41,3473.89L9491.42,3473.87L9491.43,3473.85L9491.44,3473.83L9491.45,3473.81L9491.46,3473.79L9491.47,3473.77L9491.48,3473.76L9491.48,3473.74L9491.49,3473.72L9491.5,3473.7L9491.51,3473.68L9491.52,3473.66L9491.53,3473.64L9491.53,3473.62L9491.54,3473.6L9491.55,3473.58L9491.56,3473.56L9491.56,3473.54L9491.57,3473.52L9491.58,3473.5L9491.58,3473.48L9491.59,3473.45L9491.59,3473.43L9491.6,3473.41L9491.6,3473.39L9491.61,3473.37L9491.61,3473.35L9491.62,3473.33L9491.62,3473.31L9491.62,3473.28L9491.63,3473.26L9491.63,3473.24L9491.63,3473.22L9491.64,3473.2L9491.64,3473.18L9491.64,3473.15L9491.64,3473.13L9491.64,3473.11L9491.65,3473.09L9491.65,3473.06L9491.65,3473.04L9491.65,3473.02L9491.65,3472.99L9491.65,3472.97L9491.65,3472.95L9491.65,3472.93L9491.65,3472.9L9491.64,3472.88L9491.64,3472.86L9491.64,3472.84L9491.64,3472.81L9491.64,3472.79L9491.63,3472.77L9491.63,3472.75L9491.63,3472.72L9491.62,3472.7L9491.62,3472.68L9491.62,3472.66L9491.61,3472.64L9491.61,3472.62L9491.6,3472.6L9491.6,3472.58L9491.59,3472.56L9491.59,3472.53L9491.58,3472.51L9491.58,3472.49L9491.57,3472.47L9491.56,3472.45L9491.56,3472.43L9491.55,3472.41L9491.54,3472.39L9491.53,3472.37L9491.53,3472.35L9491.52,3472.33L9491.51,3472.31L9491.5,3472.29L9491.49,3472.27L9491.48,3472.25L9491.48,3472.23L9491.47,3472.21L9491.46,3472.2L9491.45,3472.18L9491.44,3472.16L9491.43,3472.14L9491.42,3472.12L9491.41,3472.1L9491.39,3472.08L9491.38,3472.07L9491.37,3472.05L9491.36,3472.03L9491.35,3472.01L9491.34,3471.99L9491.32,3471.98L9491.31,3471.96L9491.3,3471.94L9491.29,3471.93L9491.27,3471.91L9491.26,3471.89L9491.25,3471.88L9491.23,3471.86L9491.22,3471.85L9491.2,3471.83L9491.19,3471.81L9491.18,3471.8L9491.16,3471.78L9491.15,3471.77L9491.13,3471.75L9491.12,3471.74L9491.1,3471.72L9491.09,3471.71L9491.07,3471.69L9491.06,3471.68L9491.04,3471.66L9491.02,3471.65L9491.01,3471.64L9490.99,3471.62L9490.97,3471.61L9490.96,3471.6L9490.94,3471.59L9490.92,3471.57L9490.91,3471.56L9490.89,3471.55L9490.87,3471.54L9490.85,3471.52L9490.84,3471.51L9490.82,3471.5L9490.8,3471.49L9490.78,3471.48L9490.76,3471.47L9490.75,3471.46L9490.73,3471.45L9490.71,3471.44L9490.69,3471.43L9490.67,3471.42L9490.65,3471.41L9490.63,3471.4L9490.61,3471.39L9490.59,3471.38L9490.57,3471.37L9490.55,3471.37L9490.53,3471.36L9490.51,3471.35L9490.49,3471.34L9490.47,3471.34L9490.45,3471.33L9490.43,3471.32L9490.41,3471.32L9490.39,3471.31L9490.37,3471.3L9490.35,3471.3L9490.33,3471.29L9490.31,3471.29L9490.29,3471.28L9490.27,3471.28L9490.25,3471.27L9490.22,3471.27L9490.2,3471.26L9490.18,3471.26L9490.16,3471.26L9490.14,3471.25L9490.11,3471.25L9490.09,3471.25L9490.07,3471.24L9490.05,3471.24L9490.03,3471.24L9490,3471.24L9489.98,3471.24L9489.96,3471.24L9489.94,3471.24L9489.91,3471.24L9489.89,3471.24L9489.87,3471.24Z" style="fill:white;"/>
        </g>
    </g>
</svg>
