<?xml version="1.0" encoding="UTF-8" standalone="no"?>
<!DOCTYPE svg PUBLIC "-//W3C//DTD SVG 1.1//EN" "http://www.w3.org/Graphics/SVG/1.1/DTD/svg11.dtd">
<svg width="100%" height="100%" viewBox="0 0 512 512" version="1.1" xmlns="http://www.w3.org/2000/svg" xmlns:xlink="http://www.w3.org/1999/xlink" xml:space="preserve" xmlns:serif="http://www.serif.com/" style="fill-rule:evenodd;clip-rule:evenodd;stroke-linejoin:round;stroke-miterlimit:2;">
    <g id="AimStarIcon" transform="matrix(3.94308,0,0,3.74193,-19304.9,-2455.65)">
        <g transform="matrix(0.957992,0,0,1.00949,3582.13,-2911.1)">
            <path d="M1435.81,3641.61C1436.91,3641.7 1438.02,3641.74 1439.14,3641.74C1440.26,3641.74 1441.37,3641.7 1442.46,3641.61L1441.29,3649.9C1440.58,3649.93 1439.86,3649.95 1439.14,3649.95C1438.42,3649.95 1437.7,3649.93 1436.99,3649.9L1435.81,3641.61ZM1487.08,3608.01C1484.22,3629.57 1467.12,3646.66 1445.55,3649.53L1446.76,3641.02C1462.82,3637.93 1475.48,3625.27 1478.58,3609.21L1487.08,3608.01ZM1391.19,3607.99L1399.7,3609.2C1402.79,3625.26 1415.46,3637.93 1431.52,3641.02L1432.72,3649.53C1411.15,3646.66 1394.06,3629.56 1391.19,3607.99ZM1479.17,3598.29L1487.46,3599.47C1487.49,3600.17 1487.51,3600.88 1487.51,3601.58C1487.51,3602.31 1487.49,3603.02 1487.46,3603.74L1479.16,3604.91C1479.26,3603.82 1479.3,3602.7 1479.3,3601.58C1479.3,3600.47 1479.26,3599.38 1479.17,3598.29ZM1399.11,3598.29C1399.02,3599.38 1398.98,3600.47 1398.98,3601.58C1398.98,3602.7 1399.03,3603.81 1399.11,3604.9L1390.82,3603.72C1390.79,3603.01 1390.77,3602.3 1390.77,3601.58C1390.77,3600.87 1390.79,3600.15 1390.82,3599.44L1399.11,3598.29ZM1445.57,3553.64C1467.14,3556.51 1484.24,3573.62 1487.09,3595.2L1478.58,3593.99C1475.5,3577.92 1462.84,3565.24 1446.77,3562.15L1445.57,3553.64ZM1432.71,3553.64L1431.51,3562.15C1415.44,3565.24 1402.77,3577.93 1399.69,3594L1391.19,3595.18C1394.05,3573.61 1411.15,3556.51 1432.71,3553.64ZM1436.98,3553.26C1437.7,3553.23 1438.42,3553.22 1439.14,3553.22C1439.86,3553.22 1440.58,3553.23 1441.3,3553.26L1442.47,3561.56C1441.38,3561.47 1440.26,3561.42 1439.14,3561.42C1438.02,3561.42 1436.9,3561.47 1435.8,3561.56L1436.98,3553.26Z" style="fill:white;"/>
        </g>
        <g transform="matrix(0.957992,0,0,1.00949,3582.13,-2911.1)">
            <path d="M1446.13,3587.84L1463.24,3577.48L1452.88,3594.59L1502.74,3601.58L1452.88,3608.58L1463.24,3625.69L1446.13,3615.33L1439.14,3665.18L1432.14,3615.33L1415.04,3625.69L1425.4,3608.58L1375.54,3601.58L1425.4,3594.59L1415.04,3577.48L1432.14,3587.84L1439.14,3537.99L1446.13,3587.84ZM1439.14,3594.96C1442.8,3594.96 1445.77,3597.93 1445.77,3601.58C1445.77,3605.24 1442.8,3608.21 1439.14,3608.21C1435.48,3608.21 1432.51,3605.24 1432.51,3601.58C1432.51,3597.93 1435.48,3594.96 1439.14,3594.96Z" style="fill:white;"/>
        </g>
    </g>
</svg>
