<?xml version="1.0" encoding="UTF-8" standalone="no"?>
<!DOCTYPE svg PUBLIC "-//W3C//DTD SVG 1.1//EN" "http://www.w3.org/Graphics/SVG/1.1/DTD/svg11.dtd">
<svg width="100%" height="100%" viewBox="0 0 512 512" version="1.1" xmlns="http://www.w3.org/2000/svg" xmlns:xlink="http://www.w3.org/1999/xlink" xml:space="preserve" xmlns:serif="http://www.serif.com/" style="fill-rule:evenodd;clip-rule:evenodd;stroke-linejoin:round;stroke-miterlimit:2;">
    <g id="AlarmDisabledIcon" transform="matrix(7.27534,0,0,7.27534,-10304.6,-4714.43)">
        <path d="M1447.29,703.878C1448.97,706.616 1451.21,708.978 1453.85,710.804C1453.33,714.133 1450.41,716.684 1446.9,716.684C1443.01,716.684 1439.86,713.566 1439.86,709.726C1439.86,709.691 1439.86,709.655 1439.86,709.619L1421.06,709.619C1419.46,709.619 1418.16,708.333 1418.16,706.749C1418.16,705.164 1419.46,703.878 1421.06,703.878L1447.29,703.878ZM1467.03,674.413C1476.93,674.413 1484.96,682.342 1484.96,692.123C1484.96,701.905 1476.93,709.834 1467.03,709.834C1457.13,709.834 1449.11,701.905 1449.11,692.123C1449.11,682.342 1457.13,674.413 1467.03,674.413ZM1445.68,700.706L1423.64,700.706L1427.71,679.192C1427.71,679.192 1428.64,662.512 1443.64,660.261L1443.64,656.067L1440.38,656.067C1439.5,656.067 1438.77,655.353 1438.77,654.474L1438.77,651.287C1438.77,650.408 1439.5,649.694 1440.38,649.694L1453.41,649.694C1454.3,649.694 1455.02,650.408 1455.02,651.287L1455.02,654.474C1455.02,655.353 1454.3,656.067 1453.41,656.067L1450.15,656.067L1450.15,660.199C1457.39,661.126 1461.44,665.356 1463.7,669.589C1452.55,671.184 1443.99,680.666 1443.99,692.123C1443.99,695.16 1444.59,698.057 1445.68,700.706ZM1467.03,688.489L1470.6,684.963C1471.62,683.96 1473.26,683.96 1474.28,684.963C1475.29,685.966 1475.29,687.594 1474.28,688.597L1470.71,692.123L1474.28,695.65C1475.29,696.652 1475.29,698.281 1474.28,699.284C1473.26,700.286 1471.62,700.286 1470.6,699.284L1467.03,695.757L1463.46,699.284C1462.45,700.286 1460.8,700.286 1459.79,699.284C1458.77,698.281 1458.77,696.652 1459.79,695.65L1463.36,692.123L1459.79,688.597C1458.77,687.594 1458.77,685.966 1459.79,684.963C1460.8,683.96 1462.45,683.96 1463.46,684.963L1467.03,688.489Z" style="fill:white;"/>
    </g>
</svg>
