<?xml version="1.0" encoding="UTF-8" standalone="no"?>
<!DOCTYPE svg PUBLIC "-//W3C//DTD SVG 1.1//EN" "http://www.w3.org/Graphics/SVG/1.1/DTD/svg11.dtd">
<svg width="100%" height="100%" viewBox="0 0 512 512" version="1.1" xmlns="http://www.w3.org/2000/svg" xmlns:xlink="http://www.w3.org/1999/xlink" xml:space="preserve" xmlns:serif="http://www.serif.com/" style="fill-rule:evenodd;clip-rule:evenodd;stroke-linejoin:round;stroke-miterlimit:2;">
    <g id="Alert" transform="matrix(1.93208,0,0,1.93208,0,0)">
        <path d="M132.5,0C205.629,0 265,59.371 265,132.5C265,205.629 205.629,265 132.5,265C59.371,265 0,205.629 0,132.5C0,59.371 59.371,0 132.5,0ZM186.323,175.544C189.611,175.544 192.295,178.22 192.295,181.517C192.295,184.813 189.611,187.489 186.323,187.489L147.147,187.489L147.147,187.711C147.147,195.7 140.572,202.188 132.5,202.188C124.407,202.188 117.853,195.7 117.853,187.711L117.853,187.489L78.677,187.489C75.369,187.489 72.705,184.813 72.705,181.517C72.705,178.22 75.369,175.544 78.677,175.544L186.323,175.544ZM146.086,62.812C147.917,62.812 149.394,64.298 149.394,66.127L149.394,72.757C149.394,74.586 147.917,76.072 146.086,76.072L139.262,76.072L139.262,84.669C171.385,88.784 173.341,124.184 173.341,124.184L180.893,168.945L84.107,168.945L92.575,124.184C92.575,124.184 94.509,89.481 125.717,84.797L125.717,76.072L118.914,76.072C117.083,76.072 115.585,74.586 115.585,72.757L115.585,66.127C115.585,64.298 117.083,62.812 118.914,62.812L146.086,62.812Z" style="fill:white;"/>
    </g>
</svg>
