<?xml version="1.0" encoding="UTF-8" standalone="no"?>
<!DOCTYPE svg PUBLIC "-//W3C//DTD SVG 1.1//EN" "http://www.w3.org/Graphics/SVG/1.1/DTD/svg11.dtd">
<svg width="100%" height="100%" viewBox="0 0 512 512" version="1.1" xmlns="http://www.w3.org/2000/svg" xmlns:xlink="http://www.w3.org/1999/xlink" xml:space="preserve" xmlns:serif="http://www.serif.com/" style="fill-rule:evenodd;clip-rule:evenodd;stroke-linejoin:round;stroke-miterlimit:2;">
    <g id="AlarmIcon" transform="matrix(7.27534,0,0,7.27534,-9538.63,-4714.43)">
        <path d="M1372.15,703.878C1373.73,703.878 1375.02,705.164 1375.02,706.749C1375.02,708.333 1373.73,709.619 1372.15,709.619L1353.32,709.619C1353.32,709.655 1353.32,709.691 1353.32,709.726C1353.32,713.566 1350.16,716.684 1346.28,716.684C1342.39,716.684 1339.24,713.566 1339.24,709.726C1339.24,709.691 1339.24,709.655 1339.24,709.619L1320.41,709.619C1318.82,709.619 1317.54,708.333 1317.54,706.749C1317.54,705.164 1318.82,703.878 1320.41,703.878L1372.15,703.878ZM1352.81,649.694C1353.69,649.694 1354.4,650.408 1354.4,651.287L1354.4,654.474C1354.4,655.353 1353.69,656.067 1352.81,656.067L1349.53,656.067L1349.53,660.199C1364.97,662.177 1365.91,679.192 1365.91,679.192L1369.54,700.706L1323.02,700.706L1327.09,679.192C1327.09,679.192 1328.02,662.512 1343.02,660.261L1343.02,656.067L1339.75,656.067C1338.87,656.067 1338.15,655.353 1338.15,654.474L1338.15,651.287C1338.15,650.408 1338.87,649.694 1339.75,649.694L1352.81,649.694Z" style="fill:white;"/>
    </g>
</svg>
