<?xml version="1.0" encoding="UTF-8" standalone="no"?>
<!DOCTYPE svg PUBLIC "-//W3C//DTD SVG 1.1//EN" "http://www.w3.org/Graphics/SVG/1.1/DTD/svg11.dtd">
<svg width="100%" height="100%" viewBox="0 0 512 512" version="1.1" xmlns="http://www.w3.org/2000/svg" xmlns:xlink="http://www.w3.org/1999/xlink" xml:space="preserve" xmlns:serif="http://www.serif.com/" style="fill-rule:evenodd;clip-rule:evenodd;stroke-linejoin:round;stroke-miterlimit:2;">
    <g id="AmuletIcon" transform="matrix(2.92212,0,0,2.92212,-452.322,-412.285)">
        <path d="M257.855,215.228C257.855,215.228 275.531,225.433 281.214,228.714C282.288,229.334 282.95,230.48 282.95,231.721C282.95,239.396 282.95,266.861 282.95,274.536C282.95,275.777 282.288,276.923 281.214,277.543C274.567,281.381 250.781,295.114 244.134,298.952C243.06,299.572 241.736,299.572 240.662,298.952C234.015,295.114 210.229,281.381 203.582,277.543C202.508,276.923 201.846,275.777 201.846,274.536C201.846,266.861 201.846,239.396 201.846,231.721C201.846,230.48 202.508,229.334 203.582,228.714C209.265,225.433 226.941,215.228 226.941,215.228C228.177,217.511 230.593,219.063 233.37,219.063L251.426,219.063C254.203,219.063 256.619,217.511 257.855,215.228ZM240.662,224.771C241.736,224.151 243.06,224.151 244.134,224.771C248.778,227.452 261.445,234.766 266.089,237.447C267.163,238.067 267.825,239.213 267.825,240.454C267.825,245.816 267.825,260.442 267.825,265.804C267.825,267.045 267.163,268.191 266.089,268.811C261.445,271.492 248.778,278.806 244.134,281.487C243.06,282.107 241.736,282.107 240.662,281.487C236.018,278.806 223.351,271.492 218.707,268.811C217.633,268.191 216.971,267.045 216.971,265.804C216.971,260.442 216.971,245.816 216.971,240.454C216.971,239.213 217.633,238.067 218.707,237.447C223.351,234.766 236.018,227.452 240.662,224.771ZM240.662,240.48C241.736,239.86 243.06,239.86 244.134,240.48C246.373,241.773 250.245,244.008 252.484,245.301C253.558,245.921 254.22,247.067 254.22,248.308C254.22,250.893 254.22,255.364 254.22,257.949C254.22,259.19 253.558,260.336 252.484,260.956C250.245,262.249 246.373,264.484 244.134,265.777C243.06,266.397 241.736,266.397 240.662,265.777C238.423,264.484 234.551,262.249 232.312,260.956C231.238,260.336 230.576,259.19 230.576,257.949C230.576,255.364 230.576,250.893 230.576,248.308C230.576,247.067 231.238,245.921 232.312,245.301C234.551,244.008 238.423,241.773 240.662,240.48ZM245.744,188.523C247.591,188.523 249.091,190.022 249.091,191.869L249.091,208.886C249.091,210.733 247.591,212.232 245.744,212.232L239.052,212.232C237.205,212.232 235.705,210.733 235.705,208.886L235.705,191.869C235.705,190.022 237.205,188.523 239.052,188.523L245.744,188.523ZM226.065,205.63C201.01,201.496 179.092,188.012 164.019,168.886C163.054,167.645 163.045,165.909 163.998,164.658C165.448,162.761 166.969,160.921 168.552,159.138C169.247,158.361 170.253,157.938 171.294,157.985C172.334,158.031 173.299,158.542 173.921,159.377C186.501,175.88 204.911,187.701 226.065,191.769L226.065,205.63ZM258.731,191.769C279.885,187.701 298.295,175.88 310.883,159.383C311.503,158.55 312.465,158.04 313.503,157.993C314.541,157.947 315.545,158.369 316.237,159.144C317.827,160.921 319.348,162.761 320.801,164.656C321.756,165.908 321.748,167.647 320.781,168.89C305.704,188.012 283.786,201.496 258.731,205.63L258.731,191.769Z" style="fill:white;"/>
    </g>
</svg>
