<?xml version="1.0" encoding="UTF-8" standalone="no"?>
<!DOCTYPE svg PUBLIC "-//W3C//DTD SVG 1.1//EN" "http://www.w3.org/Graphics/SVG/1.1/DTD/svg11.dtd">
<svg width="100%" height="100%" viewBox="0 0 512 512" version="1.1" xmlns="http://www.w3.org/2000/svg" xmlns:xlink="http://www.w3.org/1999/xlink" xml:space="preserve" xmlns:serif="http://www.serif.com/" style="fill-rule:evenodd;clip-rule:evenodd;stroke-linejoin:round;stroke-miterlimit:2;">
    <g id="AngelIcon" transform="matrix(1.97903,0,0,1.97903,-489.702,-491.526)">
        <path d="M422.221,395.986C448.526,407.758 463.883,428.898 465.666,447.002C467.627,466.911 443.986,474.744 382.797,476.038C380.78,476.081 378.781,476.095 376.801,476.082C374.821,476.095 372.822,476.081 370.805,476.038C309.616,474.744 285.976,466.911 287.936,447.002C289.709,428.995 304.911,407.986 330.957,396.177C342.103,412.515 358.837,422.751 376.523,422.751C394.278,422.751 411.074,412.435 422.221,395.986ZM278.177,441.436C268.239,431.461 261.934,418.268 263.823,404.181C253.363,396.006 253.482,381.632 265.282,368.64C259.963,360.048 269.188,332.823 291.103,335.694C287.165,346.443 283.058,363.139 314.373,378.33C319.423,380.78 323.915,383.397 327.866,386.157C301.332,397.37 282.342,417.638 278.177,441.436ZM475.425,441.436C485.364,431.461 491.669,418.268 489.779,404.181C500.239,396.006 500.12,381.632 488.32,368.64C493.639,360.048 484.414,332.823 462.499,335.694C466.438,346.443 470.544,363.139 439.229,378.33C434.179,380.78 429.687,383.397 425.736,386.157C452.27,397.37 471.26,417.638 475.425,441.436ZM421.625,330.02C423.225,336.433 423.928,343.575 423.928,351.228C423.928,384.306 401.712,409.956 377.172,409.956C352.631,409.956 330.417,384.306 330.417,351.228C330.417,343.759 331.087,336.782 332.606,330.497C343.209,337.327 392.795,344.152 421.625,330.02ZM376.801,279.359C411.305,279.359 439.317,290.053 439.317,303.224C439.317,316.396 411.305,327.09 376.801,327.09C342.297,327.09 314.285,316.396 314.285,303.224C314.285,290.053 342.297,279.359 376.801,279.359ZM376.801,287.014C399.217,287.014 417.416,292.538 417.416,299.342C417.416,306.146 399.217,311.67 376.801,311.67C354.385,311.67 336.186,306.146 336.186,299.342C336.186,292.538 354.385,287.014 376.801,287.014ZM355.792,301.62C361.669,299.254 368.739,297.969 377.172,297.956C385.464,297.943 392.437,299.171 398.256,301.457C393.2,302.999 385.441,303.987 376.746,303.987C368.364,303.987 360.851,303.068 355.792,301.62Z" style="fill:white;"/>
    </g>
</svg>
