<?xml version="1.0" encoding="UTF-8" standalone="no"?>
<!DOCTYPE svg PUBLIC "-//W3C//DTD SVG 1.1//EN" "http://www.w3.org/Graphics/SVG/1.1/DTD/svg11.dtd">
<svg width="100%" height="100%" viewBox="0 0 512 512" version="1.1" xmlns="http://www.w3.org/2000/svg" xmlns:xlink="http://www.w3.org/1999/xlink" xml:space="preserve" xmlns:serif="http://www.serif.com/" style="fill-rule:evenodd;clip-rule:evenodd;stroke-linejoin:round;stroke-miterlimit:2;">
    <g id="AppleIcon" transform="matrix(5.09808,0,0,6.2082,4550.2,-36225.6)">
        <g transform="matrix(1.32549,0,0,1.08847,-13484,1909.92)">
            <path d="M9564.81,3625.65C9569.45,3630.3 9572.12,3637.26 9572.12,3645.47C9572.12,3664.64 9561.53,3680.21 9537.39,3680.21C9513.24,3680.21 9502.65,3664.64 9502.65,3645.47C9502.65,3626.3 9518.23,3613.94 9537.38,3621.92C9537.93,3622.38 9547.54,3630.33 9557.41,3628.69C9560.16,3628.24 9562.64,3627.09 9564.81,3625.65ZM9518.52,3628.88C9522.33,3628.88 9525.42,3631.97 9525.42,3635.78C9525.42,3639.59 9522.33,3642.68 9518.52,3642.68C9514.71,3642.68 9511.62,3639.59 9511.62,3635.78C9511.62,3631.97 9514.71,3628.88 9518.52,3628.88Z" style="fill:white;"/>
        </g>
        <g transform="matrix(0.210574,1.0421,-1.26902,0.17292,230.932,4849.33)">
            <path d="M800.028,945.45C800.028,945.45 807.422,951.644 807.422,959.274C807.422,966.904 800.028,973.098 800.028,973.098C800.028,973.098 792.634,966.904 792.634,959.274C792.634,951.644 800.028,945.45 800.028,945.45Z" style="fill:white;"/>
        </g>
        <g transform="matrix(1.191,0,0,0.752308,-1213.89,1443.15)">
            <path d="M314.431,5843.66C314.431,5841.91 313.334,5840.48 311.984,5840.48C310.633,5840.48 309.537,5841.91 309.537,5843.66L309.537,5855.32C309.537,5857.08 310.633,5858.51 311.984,5858.51C313.334,5858.51 314.431,5857.08 314.431,5855.32L314.431,5843.66Z" style="fill:white;"/>
        </g>
    </g>
</svg>
