<?xml version="1.0" encoding="UTF-8" standalone="no"?>
<!DOCTYPE svg PUBLIC "-//W3C//DTD SVG 1.1//EN" "http://www.w3.org/Graphics/SVG/1.1/DTD/svg11.dtd">
<svg width="100%" height="100%" viewBox="0 0 512 512" version="1.1" xmlns="http://www.w3.org/2000/svg" xmlns:xlink="http://www.w3.org/1999/xlink" xml:space="preserve" xmlns:serif="http://www.serif.com/" style="fill-rule:evenodd;clip-rule:evenodd;stroke-linejoin:round;stroke-miterlimit:2;">
    <g id="ArmorIcon" transform="matrix(2.78379,0,0,3.38997,-1395.15,-20147.7)">
        <g transform="matrix(1.94334,0,0,1.59584,-18167.2,-795.631)">
            <path d="M9653.64,4268.93C9657.25,4268.93 9660.18,4271.86 9660.18,4275.48C9660.18,4279.09 9657.25,4282.02 9653.64,4282.02C9650.03,4282.02 9647.09,4279.09 9647.09,4275.48C9647.09,4271.86 9650.03,4268.93 9653.64,4268.93ZM9653.64,4272.43C9655.32,4272.43 9656.69,4273.79 9656.69,4275.48C9656.69,4277.16 9655.32,4278.52 9653.64,4278.52C9651.96,4278.52 9650.59,4277.16 9650.59,4275.48C9650.59,4273.79 9651.96,4272.43 9653.64,4272.43Z" style="fill:white;"/>
        </g>
        <g>
            <g>
                <g transform="matrix(-1.31032,0,0,1.07602,2593.56,-433.464)">
                    <path d="M1510.24,5950.77C1510.24,5948.24 1508.18,5946.18 1505.65,5946.18L1499.79,5946.18C1481.32,5946.18 1466.32,5961.18 1466.32,5979.65L1466.32,5985.61C1466.32,5988.09 1468.33,5990.11 1470.81,5990.11L1499.79,5990.11C1505.56,5990.11 1510.24,5985.42 1510.24,5979.65L1510.24,5950.77Z" style="fill:white;"/>
                </g>
                <g transform="matrix(-1.31032,0,0,1.07602,2593.56,-433.464)">
                    <path d="M1510.24,5950.77C1510.24,5948.24 1508.18,5946.18 1505.65,5946.18L1499.79,5946.18C1481.32,5946.18 1466.32,5961.18 1466.32,5979.65L1466.32,5985.61C1466.32,5988.09 1468.33,5990.11 1470.81,5990.11L1499.79,5990.11C1505.56,5990.11 1510.24,5985.42 1510.24,5979.65L1510.24,5950.77Z" style="fill:white;"/>
                </g>
                <g transform="matrix(-1.03144,-0.489015,-0.5955,0.847,5703.32,1630.3)">
                    <path d="M1466.61,5961.28C1466.61,5958.58 1464.41,5956.38 1461.71,5956.38C1459.01,5956.38 1456.82,5958.58 1456.82,5961.28L1456.82,5979.37C1456.82,5982.07 1459.01,5984.27 1461.71,5984.27C1464.41,5984.27 1466.61,5982.07 1466.61,5979.37L1466.61,5961.28Z" style="fill:white;"/>
                </g>
                <g transform="matrix(-0.308253,-0.944705,-1.15042,0.253133,7982.23,5862.13)">
                    <path d="M1466.61,5961.28C1466.61,5958.58 1464.41,5956.38 1461.71,5956.38C1459.01,5956.38 1456.82,5958.58 1456.82,5961.28L1456.82,5979.37C1456.82,5982.07 1459.01,5984.27 1461.71,5984.27C1464.41,5984.27 1466.61,5982.07 1466.61,5979.37L1466.61,5961.28Z" style="fill:white;"/>
                </g>
            </g>
            <g transform="matrix(-1,0,0,1,1186.26,0)">
                <g transform="matrix(-1.31032,0,0,1.07602,2593.56,-433.464)">
                    <path d="M1510.24,5950.77C1510.24,5948.24 1508.18,5946.18 1505.65,5946.18L1499.79,5946.18C1481.32,5946.18 1466.32,5961.18 1466.32,5979.65L1466.32,5985.61C1466.32,5988.09 1468.33,5990.11 1470.81,5990.11L1499.79,5990.11C1505.56,5990.11 1510.24,5985.42 1510.24,5979.65L1510.24,5950.77Z" style="fill:white;"/>
                </g>
                <g transform="matrix(-1.03144,-0.489015,-0.5955,0.847,5703.32,1630.3)">
                    <path d="M1466.61,5961.28C1466.61,5958.58 1464.41,5956.38 1461.71,5956.38C1459.01,5956.38 1456.82,5958.58 1456.82,5961.28L1456.82,5979.37C1456.82,5982.07 1459.01,5984.27 1461.71,5984.27C1464.41,5984.27 1466.61,5982.07 1466.61,5979.37L1466.61,5961.28Z" style="fill:white;"/>
                </g>
                <g transform="matrix(-0.308253,-0.944705,-1.15042,0.253133,7982.23,5862.13)">
                    <path d="M1466.61,5961.28C1466.61,5958.58 1464.41,5956.38 1461.71,5956.38C1459.01,5956.38 1456.82,5958.58 1456.82,5961.28L1456.82,5979.37C1456.82,5982.07 1459.01,5984.27 1461.71,5984.27C1464.41,5984.27 1466.61,5982.07 1466.61,5979.37L1466.61,5961.28Z" style="fill:white;"/>
                </g>
                <g transform="matrix(-1.31032,0,0,1.07602,2593.56,-433.464)">
                    <path d="M1510.24,5950.77C1510.24,5948.24 1508.18,5946.18 1505.65,5946.18L1499.79,5946.18C1481.32,5946.18 1466.32,5961.18 1466.32,5979.65L1466.32,5985.61C1466.32,5988.09 1468.33,5990.11 1470.81,5990.11L1499.79,5990.11C1505.56,5990.11 1510.24,5985.42 1510.24,5979.65L1510.24,5950.77Z" style="fill:white;"/>
                </g>
                <g transform="matrix(-1.94334,0,0,1.59584,19353.5,-795.631)">
                    <path d="M9636.55,4301.72C9636.74,4301.62 9636.94,4301.47 9637.12,4301.29L9653.64,4284.77L9670.16,4301.29C9670.34,4301.47 9670.54,4301.62 9670.73,4301.72L9669.7,4304.87C9669.2,4306.37 9667.8,4307.39 9666.22,4307.39L9657.29,4307.39L9641.06,4307.39C9639.48,4307.39 9638.08,4306.37 9637.58,4304.87L9636.55,4301.72ZM9668.96,4269.44C9669.82,4269.69 9670.72,4269.83 9671.62,4269.84C9673.86,4269.86 9676.1,4269.88 9678.34,4269.89L9679.34,4271.59C9679.88,4272.5 9680,4273.6 9679.67,4274.6L9675.27,4287.94C9675.13,4287.72 9674.97,4287.51 9674.79,4287.33L9662.93,4275.48L9668.96,4269.44ZM9638.32,4269.45L9644.34,4275.48L9632.49,4287.33C9632.31,4287.51 9632.15,4287.72 9632.01,4287.94L9627.61,4274.6C9627.28,4273.6 9627.4,4272.5 9627.93,4271.59L9628.95,4269.87C9631.19,4269.87 9633.42,4269.86 9635.66,4269.84C9636.58,4269.83 9637.47,4269.69 9638.32,4269.45ZM9660.72,4259.1L9653.64,4266.18L9646.56,4259.1C9646.56,4259.05 9646.56,4258.99 9646.56,4258.94C9646.6,4255.04 9646.61,4251.14 9646.61,4247.23C9651.27,4248.34 9655.94,4248.44 9660.6,4247.37C9660.61,4251.21 9660.68,4255.05 9660.72,4258.94L9660.72,4259.07L9660.72,4259.1ZM9630.02,4265.88L9627.59,4255.95L9634.3,4250.1C9634.2,4250.28 9634.12,4250.48 9634.05,4250.69L9631.46,4258.48C9630.9,4260.19 9631.36,4262.49 9632.49,4263.62L9634.72,4265.85C9633.16,4265.86 9631.59,4265.87 9630.02,4265.88ZM9672.56,4265.85L9674.79,4263.62C9675.92,4262.49 9676.39,4260.19 9675.82,4258.48L9673.23,4250.69C9673.16,4250.48 9673.08,4250.28 9672.98,4250.1L9679.69,4255.95L9677.26,4265.88C9675.69,4265.87 9674.12,4265.86 9672.56,4265.85ZM9642.59,4255.13L9637.12,4249.66C9636.59,4249.13 9636,4248.95 9635.46,4249.09L9640.09,4245.06C9640.93,4245.42 9641.77,4245.75 9642.61,4246.05C9642.62,4249.07 9642.6,4252.1 9642.59,4255.13ZM9664.67,4246.13C9665.51,4245.81 9666.35,4245.46 9667.19,4245.06L9671.82,4249.09C9671.28,4248.95 9670.69,4249.13 9670.16,4249.66L9664.69,4255.13C9664.68,4252.13 9664.66,4249.13 9664.67,4246.13Z" style="fill:white;"/>
                </g>
            </g>
        </g>
    </g>
</svg>
