<?xml version="1.0" encoding="UTF-8" standalone="no"?>
<!DOCTYPE svg PUBLIC "-//W3C//DTD SVG 1.1//EN" "http://www.w3.org/Graphics/SVG/1.1/DTD/svg11.dtd">
<svg width="100%" height="100%" viewBox="0 0 512 512" version="1.1" xmlns="http://www.w3.org/2000/svg" xmlns:xlink="http://www.w3.org/1999/xlink" xml:space="preserve" xmlns:serif="http://www.serif.com/" style="fill-rule:evenodd;clip-rule:evenodd;stroke-linejoin:round;stroke-miterlimit:2;">
    <g id="Arrow---Turn-Left--Bottom-" serif:id="Arrow - Turn Left (Bottom)" transform="matrix(-603.285,0,0,603.285,561.324,537.611)">
        <path d="M0.91,-0.361L0.699,-0.572L0.699,-0.397L0.332,-0.397C0.288,-0.397 0.251,-0.413 0.22,-0.443C0.19,-0.474 0.175,-0.511 0.175,-0.554C0.175,-0.597 0.19,-0.634 0.22,-0.665C0.251,-0.696 0.288,-0.711 0.332,-0.711L0.332,-0.783C0.268,-0.783 0.214,-0.761 0.169,-0.716C0.125,-0.671 0.103,-0.617 0.103,-0.554C0.103,-0.491 0.125,-0.437 0.169,-0.392C0.214,-0.348 0.268,-0.325 0.332,-0.325L0.699,-0.325L0.699,-0.15L0.91,-0.361Z" style="fill:white;fill-rule:nonzero;"/>
    </g>
</svg>
