<?xml version="1.0" encoding="UTF-8" standalone="no"?>
<!DOCTYPE svg PUBLIC "-//W3C//DTD SVG 1.1//EN" "http://www.w3.org/Graphics/SVG/1.1/DTD/svg11.dtd">
<svg width="100%" height="100%" viewBox="0 0 512 512" version="1.1" xmlns="http://www.w3.org/2000/svg" xmlns:xlink="http://www.w3.org/1999/xlink" xml:space="preserve" xmlns:serif="http://www.serif.com/" style="fill-rule:evenodd;clip-rule:evenodd;stroke-linejoin:round;stroke-miterlimit:2;">
    <g id="Arrow---Turn-Right--Bottom---Round-" serif:id="Arrow - Turn Right (Bottom) (Round)" transform="matrix(603.285,0,0,603.285,-49.3245,537.611)">
        <path d="M0.903,-0.355C0.905,-0.357 0.906,-0.359 0.906,-0.361C0.906,-0.364 0.905,-0.366 0.903,-0.368C0.874,-0.397 0.757,-0.514 0.714,-0.557C0.712,-0.559 0.708,-0.56 0.704,-0.559C0.701,-0.557 0.699,-0.554 0.699,-0.55L0.699,-0.397L0.332,-0.397C0.288,-0.397 0.251,-0.413 0.22,-0.443C0.19,-0.474 0.175,-0.511 0.175,-0.554C0.175,-0.597 0.19,-0.634 0.22,-0.665C0.245,-0.689 0.273,-0.704 0.305,-0.709C0.32,-0.711 0.331,-0.725 0.331,-0.74C0.332,-0.74 0.332,-0.74 0.332,-0.74C0.332,-0.752 0.326,-0.763 0.317,-0.771C0.308,-0.778 0.296,-0.781 0.284,-0.779C0.241,-0.77 0.202,-0.749 0.169,-0.716C0.125,-0.671 0.103,-0.617 0.103,-0.554C0.103,-0.491 0.125,-0.437 0.169,-0.392C0.214,-0.348 0.268,-0.325 0.332,-0.325L0.699,-0.325L0.699,-0.172C0.699,-0.169 0.701,-0.165 0.704,-0.164C0.708,-0.163 0.712,-0.163 0.714,-0.166C0.757,-0.209 0.874,-0.326 0.903,-0.355Z" style="fill:white;fill-rule:nonzero;"/>
    </g>
</svg>
