<?xml version="1.0" encoding="UTF-8" standalone="no"?>
<!DOCTYPE svg PUBLIC "-//W3C//DTD SVG 1.1//EN" "http://www.w3.org/Graphics/SVG/1.1/DTD/svg11.dtd">
<svg width="100%" height="100%" viewBox="0 0 512 512" version="1.1" xmlns="http://www.w3.org/2000/svg" xmlns:xlink="http://www.w3.org/1999/xlink" xml:space="preserve" xmlns:serif="http://www.serif.com/" style="fill-rule:evenodd;clip-rule:evenodd;stroke-linejoin:round;stroke-miterlimit:2;">
    <g id="ArrowLeftIcon" transform="matrix(20.1513,0,0,19.9128,-8066.48,-62837.4)">
        <path d="M423.5,3169.99L406.132,3169.99L412.542,3176.4C413.135,3176.99 413.135,3177.95 412.542,3178.54C411.949,3179.14 410.988,3179.14 410.395,3178.54L401.442,3169.6C401.138,3169.29 400.992,3168.89 401,3168.49C401,3168.49 401,3168.49 401,3168.49C401,3168.49 401,3168.49 401,3168.49C400.992,3168.09 401.138,3167.69 401.442,3167.39L410.395,3158.44C410.988,3157.85 411.949,3157.85 412.542,3158.44C413.135,3159.03 413.135,3160 412.542,3160.59L406.132,3166.99L423.5,3166.99C424.329,3166.99 425,3167.66 425,3168.49C425,3169.32 424.329,3169.99 423.5,3169.99Z" style="fill:white;"/>
    </g>
</svg>
