<?xml version="1.0" encoding="UTF-8" standalone="no"?>
<!DOCTYPE svg PUBLIC "-//W3C//DTD SVG 1.1//EN" "http://www.w3.org/Graphics/SVG/1.1/DTD/svg11.dtd">
<svg width="100%" height="100%" viewBox="0 0 512 512" version="1.1" xmlns="http://www.w3.org/2000/svg" xmlns:xlink="http://www.w3.org/1999/xlink" xml:space="preserve" xmlns:serif="http://www.serif.com/" style="fill-rule:evenodd;clip-rule:evenodd;stroke-linejoin:round;stroke-miterlimit:2;">
    <g id="Arrow---Rounded---Right" serif:id="Arrow - Rounded - Right" transform="matrix(1.29042e-16,-2.10742,-2.10742,-1.29042e-16,516.465,459.299)">
        <g transform="matrix(8.71906,0,0,11.7712,-1.83849,-77.1627)">
            <path d="M15.547,15.447C15.547,13.631 13.557,12.157 11.106,12.157C8.655,12.157 6.665,13.631 6.665,15.447L6.665,23.759C6.665,25.575 8.655,27.049 11.106,27.049C13.557,27.049 15.547,25.575 15.547,23.759L15.547,15.447Z" style="fill:white;"/>
        </g>
        <g transform="matrix(11.4558,0,0,11.4558,-32.6946,-26.3774)">
            <path d="M9.163,3.892C9.657,3.22 10.441,2.822 11.275,2.822C12.109,2.822 12.893,3.22 13.387,3.892C14.887,5.938 16.926,8.717 18.604,11.005C19.187,11.801 19.274,12.857 18.828,13.738C18.382,14.618 17.479,15.173 16.492,15.173L6.058,15.173C5.071,15.173 4.168,14.618 3.722,13.738C3.276,12.857 3.363,11.801 3.946,11.005C5.624,8.717 7.663,5.938 9.163,3.892Z" style="fill:white;"/>
        </g>
    </g>
</svg>
