<?xml version="1.0" encoding="UTF-8" standalone="no"?>
<!DOCTYPE svg PUBLIC "-//W3C//DTD SVG 1.1//EN" "http://www.w3.org/Graphics/SVG/1.1/DTD/svg11.dtd">
<svg width="100%" height="100%" viewBox="0 0 512 512" version="1.1" xmlns="http://www.w3.org/2000/svg" xmlns:xlink="http://www.w3.org/1999/xlink" xml:space="preserve" xmlns:serif="http://www.serif.com/" style="fill-rule:evenodd;clip-rule:evenodd;stroke-linejoin:round;stroke-miterlimit:2;">
    <g id="ArrowBoldUp" transform="matrix(17.6789,0,0,16.777,-82971.3,-7092.8)">
        <g id="Rectangle" transform="matrix(0.445512,-1.0631e-17,1.00886e-17,-0.55627,4184.42,2286.08)">
            <path d="M1184.06,3315.96C1184.06,3313.74 1181.93,3311.95 1179.31,3311.95L1169.95,3311.95C1167.32,3311.95 1165.19,3313.74 1165.19,3315.96L1165.19,3344.12C1165.19,3346.34 1167.32,3348.13 1169.95,3348.13L1179.31,3348.13C1181.93,3348.13 1184.06,3346.34 1184.06,3344.12L1184.06,3315.96Z" style="fill:white;"/>
        </g>
        <g id="Triangle" transform="matrix(0.489039,1.53122e-18,-1.45311e-18,-0.502825,4133.33,2107.04)">
            <path d="M1174.29,3290.95C1174.35,3290.86 1174.45,3290.82 1174.56,3290.82C1174.66,3290.82 1174.76,3290.86 1174.83,3290.95C1177.35,3294.15 1196.85,3318.88 1200.09,3323C1200.17,3323.1 1200.19,3323.25 1200.13,3323.37C1200.08,3323.5 1199.95,3323.58 1199.82,3323.58C1194.01,3323.58 1155.1,3323.58 1149.29,3323.58C1149.16,3323.58 1149.03,3323.5 1148.98,3323.37C1148.92,3323.25 1148.93,3323.1 1149.02,3323C1152.26,3318.88 1171.76,3294.15 1174.29,3290.95Z" style="fill:white;"/>
        </g>
    </g>
</svg>
