<?xml version="1.0" encoding="UTF-8" standalone="no"?>
<!DOCTYPE svg PUBLIC "-//W3C//DTD SVG 1.1//EN" "http://www.w3.org/Graphics/SVG/1.1/DTD/svg11.dtd">
<svg width="100%" height="100%" viewBox="0 0 512 512" version="1.1" xmlns="http://www.w3.org/2000/svg" xmlns:xlink="http://www.w3.org/1999/xlink" xml:space="preserve" xmlns:serif="http://www.serif.com/" style="fill-rule:evenodd;clip-rule:evenodd;stroke-linejoin:round;stroke-miterlimit:2;">
    <g id="ArrowPinIcon" transform="matrix(3.38679,-2.07381e-16,2.07381e-16,3.38679,-3918.61,-2723.95)">
        <g transform="matrix(1,0,0,1,-284.817,-116.845)">
            <g transform="matrix(1,0,0,1,-2.04084,0)">
                <path d="M1515.32,932.936C1515.45,930.739 1517.27,929.025 1519.47,929.025C1519.47,929.025 1519.47,929.025 1519.47,929.025C1521.67,929.025 1523.49,930.739 1523.62,932.936C1524.56,948.512 1527.96,1005.28 1527.96,1005.28L1510.99,1005.28C1510.99,1005.28 1514.39,948.512 1515.32,932.936Z" style="fill:white;"/>
            </g>
            <g transform="matrix(1,0,0,1,0.65207,0)">
                <rect x="1508.21" y="1009.75" width="17.137" height="25.649" style="fill:white;"/>
            </g>
            <g transform="matrix(1,0,0,1,0.318471,0)">
                <path d="M1525.83,1038.93L1508.39,1038.93L1508.39,1044.15C1508.39,1045.11 1509.17,1045.88 1510.13,1045.88L1524.1,1045.88C1525.06,1045.88 1525.83,1045.11 1525.83,1044.15L1525.83,1038.93Z" style="fill:white;"/>
            </g>
            <g transform="matrix(1,0,0,-1,0.335947,2109.67)">
                <path d="M1517.1,1041.97L1520.45,1066.64L1513.74,1066.64L1517.1,1041.97Z" style="fill:white;"/>
            </g>
        </g>
        <g transform="matrix(1,0,0,1,-285.057,-116.845)">
            <path d="M1509.47,929.688L1507.38,972.751C1507.38,972.751 1495.35,959.624 1491.9,955.861C1491.31,955.216 1490.96,954.39 1490.89,953.517C1490.58,949.452 1489.63,937.152 1489.08,929.957C1488.98,928.705 1489.49,927.483 1490.45,926.671C1491.41,925.859 1492.7,925.556 1493.92,925.856C1500.08,927.375 1509.47,929.688 1509.47,929.688Z" style="fill:white;"/>
        </g>
        <g transform="matrix(-1,0,0,1,2750.28,-116.845)">
            <path d="M1509.47,929.688L1507.38,972.751C1507.38,972.751 1495.35,959.624 1491.9,955.861C1491.31,955.216 1490.96,954.39 1490.89,953.517C1490.58,949.452 1489.63,937.152 1489.08,929.957C1488.98,928.705 1489.49,927.483 1490.45,926.671C1491.41,925.859 1492.7,925.556 1493.92,925.856C1500.08,927.375 1509.47,929.688 1509.47,929.688Z" style="fill:white;"/>
        </g>
    </g>
</svg>
