<?xml version="1.0" encoding="UTF-8" standalone="no"?>
<!DOCTYPE svg PUBLIC "-//W3C//DTD SVG 1.1//EN" "http://www.w3.org/Graphics/SVG/1.1/DTD/svg11.dtd">
<svg width="100%" height="100%" viewBox="0 0 512 512" version="1.1" xmlns="http://www.w3.org/2000/svg" xmlns:xlink="http://www.w3.org/1999/xlink" xml:space="preserve" xmlns:serif="http://www.serif.com/" style="fill-rule:evenodd;clip-rule:evenodd;stroke-linejoin:round;stroke-miterlimit:2;">
    <g id="AsteroidesIcon" transform="matrix(6.61286,0,0,6.61286,-10749.5,-3331.4)">
        <g transform="matrix(1,0,0,1,32.3412,-197.632)">
            <g transform="matrix(1,0,0,1,1.154,-131.487)">
                <path d="M1605.75,879.079C1606.1,878.92 1606.49,878.831 1606.88,878.817C1607.9,878.78 1609.95,878.707 1610.72,878.679C1610.91,878.672 1611.1,878.684 1611.3,878.714C1612.42,878.892 1616.54,879.542 1618.5,879.851C1619.18,879.958 1619.81,880.295 1620.27,880.805C1621.09,881.711 1622.42,883.168 1623.09,883.908C1623.37,884.213 1623.58,884.571 1623.71,884.961C1624.13,886.183 1625.09,888.979 1625.53,890.267C1625.68,890.709 1625.73,891.18 1625.66,891.643C1625.47,893.104 1625.03,896.466 1624.81,898.119C1624.73,898.739 1624.45,899.318 1624.03,899.776C1623.39,900.465 1622.48,901.456 1622.18,901.773C1622.12,901.841 1622.06,901.911 1622.01,901.985C1621.68,902.413 1620.46,903.998 1619.6,905.119C1619.04,905.856 1618.16,906.292 1617.23,906.302C1616.38,906.311 1615.34,906.323 1614.67,906.33C1614.21,906.335 1613.75,906.445 1613.34,906.652C1612.03,907.314 1609.09,908.79 1609.09,908.79C1609.09,908.79 1602.62,905.594 1600.46,904.526C1600,904.3 1599.61,903.964 1599.32,903.547C1598.55,902.446 1596.97,900.183 1596.13,898.978C1595.76,898.46 1595.57,897.842 1595.58,897.209C1595.6,895.385 1595.65,891.49 1595.67,889.902C1595.67,889.444 1595.78,888.994 1595.99,888.584C1596.62,887.321 1598.06,884.445 1598.81,882.936C1599.12,882.311 1599.64,881.814 1600.28,881.529C1601.78,880.858 1604.58,879.604 1605.75,879.079ZM1601.58,892.507C1601.88,891.342 1602.84,890.463 1604.03,890.269C1604.47,890.197 1604.94,890.12 1605.39,890.048C1606.61,889.848 1607.83,890.416 1608.47,891.482C1608.57,891.655 1608.68,891.832 1608.79,892.007C1609.47,893.156 1609.32,894.62 1608.41,895.605C1608.12,895.923 1607.81,896.258 1607.51,896.585C1606.48,897.706 1604.78,897.886 1603.54,897.003C1603.22,896.781 1602.9,896.555 1602.6,896.34C1601.58,895.616 1601.12,894.339 1601.42,893.128C1601.48,892.921 1601.53,892.712 1601.58,892.507ZM1614.4,893.653C1614.8,892.687 1615.75,892.063 1616.8,892.078C1616.97,892.081 1617.15,892.083 1617.33,892.086C1618.31,892.1 1619.19,892.701 1619.56,893.612C1619.56,893.612 1619.56,893.612 1619.56,893.612C1619.87,894.374 1619.76,895.243 1619.27,895.902C1619.2,895.998 1619.12,896.097 1619.05,896.198C1618.61,896.78 1617.97,897.163 1617.25,897.263C1616.53,897.362 1615.8,897.169 1615.22,896.728C1615.22,896.727 1615.22,896.727 1615.22,896.727C1614.28,896.008 1613.95,894.748 1614.4,893.656C1614.4,893.655 1614.4,893.654 1614.4,893.653ZM1613.29,883.067C1613.52,883.014 1613.75,883.047 1613.95,883.158C1614.35,883.381 1615.06,883.773 1615.56,884.047C1615.9,884.236 1616.1,884.601 1616.08,884.991C1616.08,884.991 1616.08,884.991 1616.08,884.991C1616.06,885.537 1615.81,886.048 1615.39,886.4C1614.98,886.753 1614.43,886.915 1613.89,886.846C1613.54,886.802 1613.18,886.757 1612.87,886.718C1612.22,886.636 1611.67,886.171 1611.49,885.536C1611.49,885.536 1611.49,885.536 1611.49,885.536C1611.35,885.035 1611.42,884.498 1611.68,884.05C1611.95,883.601 1612.38,883.28 1612.89,883.161C1613.04,883.126 1613.18,883.094 1613.29,883.067Z" style="fill:white;"/>
            </g>
            <g transform="matrix(1,0,0,1,1.154,-131.487)">
                <path d="M1611.27,875.217C1617.92,868.94 1625.85,861.124 1625.85,861.124L1623.03,869.768L1659.66,836.815L1629.92,876.152L1643.24,868.65L1629.25,890.294C1629.25,890.294 1627.41,884.926 1626.73,882.937C1626.56,882.455 1626.3,882.013 1625.96,881.636C1625.13,880.726 1623.51,878.936 1622.49,877.821C1621.92,877.191 1621.15,876.775 1620.31,876.643C1617.53,876.205 1611.27,875.217 1611.27,875.217Z" style="fill:white;"/>
            </g>
        </g>
        <g transform="matrix(0.567463,0,0,0.567463,722.461,100.81)">
            <g transform="matrix(1,0,0,1,1.154,-131.487)">
                <path d="M1605.34,879.263C1605.97,878.982 1606.64,878.825 1607.33,878.801C1608.31,878.766 1609.74,878.714 1610.49,878.687C1610.84,878.675 1611.18,878.696 1611.52,878.749C1612.7,878.937 1615.72,879.412 1617.7,879.725C1618.9,879.914 1620,880.507 1620.82,881.406C1621.46,882.114 1622.22,882.951 1622.77,883.555C1623.26,884.093 1623.63,884.724 1623.87,885.412C1624.27,886.594 1624.93,888.517 1625.35,889.755C1625.62,890.533 1625.7,891.363 1625.59,892.179C1625.41,893.573 1625.11,895.842 1624.9,897.393C1624.76,898.485 1624.28,899.505 1623.53,900.314C1623.04,900.849 1622.52,901.415 1622.26,901.695C1622.15,901.815 1622.04,901.939 1621.94,902.069C1621.65,902.455 1620.95,903.358 1620.28,904.23C1619.29,905.528 1617.75,906.297 1616.11,906.314C1615.8,906.318 1615.49,906.321 1615.2,906.324C1614.39,906.333 1613.59,906.527 1612.86,906.892C1612.45,907.102 1611.95,907.35 1611.47,907.596C1609.97,908.348 1608.21,908.354 1606.71,907.613C1604.88,906.711 1602.44,905.503 1600.99,904.787C1600.19,904.39 1599.5,903.797 1598.98,903.063C1598.3,902.08 1597.29,900.645 1596.55,899.586C1595.91,898.673 1595.58,897.582 1595.59,896.468C1595.61,894.703 1595.64,891.994 1595.66,890.432C1595.67,889.625 1595.86,888.832 1596.22,888.11C1596.81,886.932 1597.76,885.044 1598.44,883.672C1598.99,882.571 1599.91,881.695 1601.03,881.192C1602.39,880.583 1604.24,879.757 1605.34,879.263ZM1601.52,892.77C1601.85,891.445 1602.94,890.446 1604.3,890.226C1604.59,890.177 1604.89,890.128 1605.19,890.08C1606.53,889.861 1607.88,890.484 1608.57,891.653C1608.57,891.653 1608.57,891.653 1608.57,891.653C1609.38,893.012 1609.21,894.744 1608.13,895.909C1608.12,895.926 1608.1,895.944 1608.09,895.961C1606.73,897.439 1604.48,897.676 1602.85,896.512C1602.85,896.512 1602.85,896.512 1602.85,896.512C1601.68,895.684 1601.14,894.225 1601.5,892.84C1601.5,892.817 1601.51,892.793 1601.52,892.77ZM1614.46,893.506C1614.83,892.628 1615.69,892.062 1616.64,892.076C1616.91,892.08 1617.2,892.084 1617.48,892.088C1618.37,892.101 1619.17,892.646 1619.51,893.473C1619.57,893.622 1619.63,893.771 1619.69,893.913C1619.92,894.488 1619.84,895.144 1619.47,895.642C1619.36,895.782 1619.25,895.934 1619.13,896.093C1618.67,896.702 1617.99,897.104 1617.24,897.208C1616.49,897.312 1615.72,897.11 1615.12,896.647C1615.12,896.647 1615.12,896.647 1615.12,896.647C1614.24,895.975 1613.92,894.798 1614.35,893.778C1614.39,893.687 1614.42,893.596 1614.46,893.506ZM1612.92,883.153C1613.38,883.045 1613.87,883.112 1614.28,883.341C1614.47,883.446 1614.68,883.565 1614.9,883.684C1615.64,884.095 1616.09,884.892 1616.05,885.741C1616.05,885.741 1616.05,885.741 1616.05,885.741C1616.04,886.094 1615.88,886.424 1615.61,886.652C1615.34,886.88 1614.98,886.984 1614.63,886.94C1614.35,886.905 1614.05,886.867 1613.76,886.83C1612.57,886.68 1611.58,885.831 1611.25,884.673C1611.25,884.673 1611.25,884.673 1611.25,884.673C1611.17,884.397 1611.21,884.102 1611.35,883.855C1611.5,883.608 1611.74,883.431 1612.02,883.366C1612.32,883.294 1612.65,883.218 1612.92,883.153Z" style="fill:white;"/>
            </g>
            <g transform="matrix(1,0,0,1,1.154,-131.487)">
                <path d="M1611.27,875.217C1617.92,868.94 1625.85,861.124 1625.85,861.124L1623.03,869.768L1656.63,844.3L1629.92,876.152L1643.24,868.65L1629.25,890.294C1629.25,890.294 1627.7,885.775 1626.92,883.493C1626.63,882.645 1626.17,881.864 1625.56,881.201C1624.89,880.459 1623.96,879.433 1623.17,878.563C1622.16,877.453 1620.8,876.72 1619.32,876.487C1616.28,876.006 1611.27,875.217 1611.27,875.217Z" style="fill:white;"/>
            </g>
        </g>
        <g transform="matrix(0.585195,0,0,0.585195,732.161,122.025)">
            <g transform="matrix(1,0,0,1,1.154,-131.487)">
                <path d="M1605.37,879.25C1605.98,878.978 1606.63,878.826 1607.3,878.802C1608.28,878.767 1609.75,878.714 1610.51,878.687C1610.84,878.675 1611.17,878.695 1611.5,878.747C1612.69,878.934 1615.77,879.42 1617.76,879.733C1618.92,879.917 1619.99,880.492 1620.78,881.364C1621.44,882.091 1622.23,882.963 1622.79,883.58C1623.26,884.101 1623.63,884.714 1623.85,885.38C1624.26,886.57 1624.94,888.544 1625.36,889.791C1625.62,890.546 1625.7,891.35 1625.6,892.142C1625.41,893.547 1625.11,895.878 1624.9,897.444C1624.76,898.503 1624.29,899.492 1623.57,900.276C1623.06,900.825 1622.52,901.415 1622.25,901.701C1622.14,901.817 1622.04,901.937 1621.95,902.063C1621.65,902.455 1620.92,903.397 1620.24,904.292C1619.27,905.551 1617.78,906.296 1616.19,906.313C1615.83,906.317 1615.48,906.321 1615.16,906.324C1614.38,906.333 1613.6,906.521 1612.9,906.876C1612.45,907.099 1611.92,907.368 1611.39,907.632C1609.94,908.361 1608.24,908.367 1606.78,907.649C1604.93,906.735 1602.41,905.491 1600.95,904.769C1600.17,904.384 1599.5,903.809 1599.01,903.097C1598.31,902.1 1597.27,900.619 1596.52,899.543C1595.9,898.658 1595.58,897.601 1595.59,896.52C1595.61,894.742 1595.64,891.966 1595.66,890.395C1595.67,889.613 1595.86,888.843 1596.21,888.143C1596.8,886.953 1597.78,885.009 1598.47,883.62C1599,882.553 1599.89,881.704 1600.98,881.216C1602.36,880.599 1604.25,879.749 1605.37,879.25ZM1601.52,892.775C1601.85,891.447 1602.95,890.446 1604.3,890.225C1604.59,890.178 1604.89,890.129 1605.18,890.082C1606.53,889.861 1607.88,890.488 1608.58,891.663C1608.58,891.664 1608.58,891.664 1608.58,891.664C1609.39,893.017 1609.21,894.74 1608.14,895.9C1608.12,895.927 1608.09,895.955 1608.07,895.982C1606.72,897.448 1604.49,897.682 1602.87,896.529C1602.87,896.529 1602.87,896.529 1602.87,896.529C1601.69,895.691 1601.15,894.214 1601.51,892.813C1601.51,892.8 1601.51,892.788 1601.52,892.775ZM1614.5,893.402C1614.84,892.587 1615.64,892.061 1616.52,892.074C1616.8,892.078 1617.09,892.083 1617.37,892.087C1618.33,892.101 1619.18,892.684 1619.55,893.569C1619.59,893.687 1619.64,893.805 1619.69,893.918C1619.92,894.49 1619.84,895.142 1619.47,895.637C1619.36,895.779 1619.25,895.933 1619.13,896.093C1618.67,896.702 1617.99,897.104 1617.24,897.208C1616.49,897.312 1615.72,897.11 1615.12,896.647C1615.12,896.647 1615.12,896.647 1615.12,896.647C1614.24,895.975 1613.92,894.798 1614.35,893.778C1614.4,893.652 1614.45,893.525 1614.5,893.402ZM1612.96,883.145C1613.39,883.042 1613.86,883.106 1614.25,883.325C1614.45,883.434 1614.67,883.558 1614.9,883.682C1615.64,884.095 1616.09,884.893 1616.05,885.744C1616.05,885.744 1616.05,885.744 1616.05,885.744C1616.04,886.096 1615.88,886.426 1615.61,886.653C1615.34,886.88 1614.99,886.984 1614.64,886.94C1614.36,886.905 1614.06,886.867 1613.76,886.83C1612.57,886.68 1611.58,885.831 1611.25,884.673C1611.25,884.673 1611.25,884.673 1611.25,884.673C1611.17,884.397 1611.21,884.102 1611.35,883.855C1611.5,883.608 1611.74,883.431 1612.02,883.366C1612.33,883.292 1612.67,883.212 1612.96,883.145Z" style="fill:white;"/>
            </g>
            <g transform="matrix(1,0,0,1,1.154,-131.487)">
                <path d="M1611.27,875.217C1617.92,868.94 1625.85,861.124 1625.85,861.124L1623.03,869.768L1652.69,840.055L1629.92,876.152L1643.24,868.65L1629.25,890.294C1629.25,890.294 1627.68,885.723 1626.9,883.454C1626.62,882.631 1626.17,881.875 1625.59,881.231C1624.9,880.473 1623.93,879.403 1623.12,878.511C1622.14,877.434 1620.83,876.724 1619.39,876.498C1616.35,876.019 1611.27,875.217 1611.27,875.217Z" style="fill:white;"/>
            </g>
        </g>
    </g>
</svg>
