<?xml version="1.0" encoding="UTF-8" standalone="no"?>
<!DOCTYPE svg PUBLIC "-//W3C//DTD SVG 1.1//EN" "http://www.w3.org/Graphics/SVG/1.1/DTD/svg11.dtd">
<svg width="100%" height="100%" viewBox="0 0 512 512" version="1.1" xmlns="http://www.w3.org/2000/svg" xmlns:xlink="http://www.w3.org/1999/xlink" xml:space="preserve" xmlns:serif="http://www.serif.com/" style="fill-rule:evenodd;clip-rule:evenodd;stroke-linejoin:round;stroke-miterlimit:2;">
    <g id="AsteroideIcon" transform="matrix(7.40148,0,0,7.40148,-11778.3,-5260.74)">
        <g transform="matrix(1,0,0,1,1.154,-131.487)">
            <path d="M1605.81,879.054C1606.12,878.911 1606.47,878.832 1606.81,878.819C1607.82,878.783 1610,878.705 1610.75,878.678C1610.92,878.672 1611.09,878.683 1611.26,878.71C1612.36,878.883 1616.68,879.564 1618.62,879.869C1619.22,879.965 1619.78,880.265 1620.19,880.721C1621.03,881.638 1622.46,883.212 1623.13,883.957C1623.38,884.229 1623.57,884.55 1623.69,884.898C1624.1,886.106 1625.12,889.064 1625.55,890.338C1625.69,890.733 1625.73,891.154 1625.67,891.568C1625.48,893.014 1625.01,896.58 1624.8,898.221C1624.72,898.774 1624.48,899.291 1624.1,899.701C1623.46,900.399 1622.47,901.468 1622.17,901.784C1622.12,901.844 1622.07,901.908 1622.02,901.973C1621.69,902.398 1620.38,904.109 1619.51,905.244C1619,905.902 1618.22,906.292 1617.39,906.301C1616.48,906.31 1615.3,906.323 1614.59,906.331C1614.18,906.335 1613.78,906.434 1613.41,906.619C1612.65,906.999 1611.29,907.685 1610.3,908.185C1609.54,908.566 1608.64,908.569 1607.88,908.193C1605.87,907.2 1601.91,905.244 1600.39,904.489C1599.98,904.288 1599.63,903.987 1599.37,903.615C1598.6,902.516 1596.91,900.098 1596.07,898.893C1595.74,898.431 1595.57,897.878 1595.58,897.313C1595.6,895.509 1595.65,891.394 1595.67,889.828C1595.67,889.419 1595.77,889.016 1595.95,888.651C1596.58,887.396 1598.11,884.336 1598.86,882.833C1599.14,882.275 1599.61,881.831 1600.17,881.576C1601.67,880.907 1604.64,879.574 1605.81,879.054ZM1601.63,892.303C1601.9,891.261 1602.76,890.476 1603.82,890.303C1604.39,890.21 1605.03,890.106 1605.6,890.012C1606.7,889.834 1607.79,890.342 1608.36,891.293C1608.54,891.594 1608.73,891.909 1608.91,892.214C1609.52,893.24 1609.39,894.548 1608.58,895.428C1608.18,895.864 1607.74,896.344 1607.32,896.794C1606.4,897.796 1604.88,897.956 1603.77,897.167C1603.32,896.849 1602.85,896.515 1602.42,896.212C1601.51,895.565 1601.09,894.424 1601.37,893.342C1601.46,893 1601.55,892.642 1601.63,892.303ZM1614.39,893.668C1614.8,892.693 1615.76,892.063 1616.81,892.078C1616.99,892.081 1617.17,892.084 1617.35,892.086C1618.32,892.1 1619.19,892.694 1619.56,893.594C1619.56,893.594 1619.56,893.594 1619.56,893.594C1619.87,894.367 1619.76,895.249 1619.26,895.917C1619.18,896.019 1619.1,896.125 1619.02,896.232C1618.6,896.805 1617.96,897.182 1617.25,897.28C1616.54,897.378 1615.82,897.188 1615.26,896.753C1615.24,896.742 1615.23,896.731 1615.21,896.719C1614.28,896.005 1613.94,894.753 1614.39,893.668C1614.39,893.668 1614.39,893.668 1614.39,893.668ZM1613.33,883.058C1613.53,883.011 1613.74,883.04 1613.92,883.139C1614.33,883.369 1615.12,883.806 1615.63,884.089C1615.92,884.252 1616.1,884.569 1616.09,884.906C1616.09,884.906 1616.09,884.906 1616.09,884.906C1616.06,885.474 1615.8,886.005 1615.37,886.372C1614.93,886.738 1614.37,886.907 1613.8,886.836C1613.44,886.79 1613.08,886.745 1612.77,886.705C1612.17,886.631 1611.68,886.21 1611.52,885.636C1611.52,885.636 1611.52,885.636 1611.52,885.636C1611.37,885.109 1611.44,884.544 1611.72,884.072C1612,883.6 1612.46,883.262 1612.99,883.137C1613.12,883.107 1613.23,883.081 1613.33,883.058Z" style="fill:white;"/>
        </g>
        <g transform="matrix(1,0,0,1,1.154,-131.487)">
            <path d="M1611.27,875.217C1617.92,868.94 1625.85,861.124 1625.85,861.124L1623.03,869.768L1653.98,844.898L1629.92,876.152L1643.24,868.65L1629.25,890.294C1629.25,890.294 1627.52,885.263 1626.8,883.137C1626.59,882.523 1626.25,881.959 1625.82,881.479C1625.03,880.609 1623.69,879.139 1622.74,878.088C1622.01,877.285 1621.03,876.756 1619.95,876.587C1617.03,876.126 1611.27,875.217 1611.27,875.217Z" style="fill:white;"/>
        </g>
    </g>
</svg>
