<?xml version="1.0" encoding="UTF-8" standalone="no"?>
<!DOCTYPE svg PUBLIC "-//W3C//DTD SVG 1.1//EN" "http://www.w3.org/Graphics/SVG/1.1/DTD/svg11.dtd">
<svg width="100%" height="100%" viewBox="0 0 512 512" version="1.1" xmlns="http://www.w3.org/2000/svg" xmlns:xlink="http://www.w3.org/1999/xlink" xml:space="preserve" xmlns:serif="http://www.serif.com/" style="fill-rule:evenodd;clip-rule:evenodd;stroke-linejoin:round;stroke-miterlimit:2;">
    <g id="AvatarSilhouette" transform="matrix(0.256842,0,0,0.248289,-151.213,-117.876)">
        <g transform="matrix(1.00591,0,0,1.00591,-2157.63,268.954)">
            <path d="M3569.08,587.632C3531.19,607.925 3542.02,731.879 3583.7,743.949C3605.07,750.135 3702.87,719.304 3742.72,718.86C3782.57,718.416 3898.59,573.219 3890.47,569.556C3882.35,565.892 3862.11,552.254 3849.51,549.458C3836.9,546.663 3582.98,580.189 3569.08,587.632Z" style="fill:white;"/>
        </g>
        <g transform="matrix(1.00591,0,0,1.00591,-2157.63,268.954)">
            <path d="M3730.84,1348.8C3733.62,1368.35 3740.15,1473.42 3752.54,1489.85C3764.92,1506.29 3754.49,1511.82 3761.32,1529.74C3768.15,1547.67 3774.02,1546.31 3778.11,1558.15C3782.19,1569.99 3778.78,1569.24 3781.68,1584.91C3784.58,1600.59 3785.09,1596.77 3790.53,1614.36C3795.97,1631.94 3794.51,1630.61 3797.59,1649.12C3800.67,1667.63 3792.91,1672.04 3810.17,1681.14C3827.43,1690.24 3842,1696.08 3873.95,1694.29C3905.91,1692.49 3923.92,1700.34 3936.65,1690.87C3949.39,1681.4 3952.97,1687.02 3959.84,1670.66C3966.72,1654.29 3969.54,1642.31 3956.54,1626.35C3943.53,1610.4 3938.72,1625.6 3937.89,1599.73C3937.07,1573.87 3938.19,1555.7 3931.83,1533.9C3925.46,1512.1 3836.01,1412.23 3836.01,1412.23L3776.6,1396.7C3776.6,1396.7 3728.06,1329.25 3730.84,1348.8Z" style="fill:white;"/>
        </g>
        <g transform="matrix(1.00591,0,0,1.00591,-2157.63,268.954)">
            <path d="M3485.46,695.491C3474.86,711.9 3473.19,715.241 3472.42,749.108C3471.66,782.974 3497.7,807.622 3485.74,849.732C3473.79,891.841 3425.51,953.512 3411.56,1010.62C3397.6,1067.72 3502.66,1060.37 3502.66,1060.37C3502.66,1060.37 3544.41,1017.05 3549.96,978.907C3555.5,940.768 3561.63,710.138 3561.63,710.138C3561.63,710.138 3496.06,679.082 3485.46,695.491Z" style="fill:white;"/>
        </g>
        <g transform="matrix(1.00591,0,0,1.06613,-2157.63,204.389)">
            <path d="M3860.4,1072.48C3884.59,1067.51 3906.59,1123.58 3931.08,1177.55C3956.42,1233.41 3999.99,1296.55 4010.87,1335.51C4021.75,1374.47 4010.74,1402.07 4085.38,1487.4C4106,1510.97 3997.89,1462.92 3970.51,1504.84C3943.13,1546.77 3934.69,1553.13 3915.53,1572.29C3896.37,1591.44 3889.21,1592.64 3889.21,1592.64C3889.21,1592.64 3887.74,1576.55 3858.98,1538.32C3830.23,1500.1 3811.38,1489.07 3785.68,1451.19C3759.97,1413.3 3711.54,1355.89 3702.72,1309.34C3693.91,1262.78 3685.72,1153.73 3685.72,1153.73L3860.4,1072.48Z" style="fill:white;"/>
        </g>
        <g transform="matrix(1.00591,0,0,1.00591,-2157.63,268.954)">
            <path d="M3823.38,679.751C3823.38,679.751 3754.88,752.808 3687.08,803.54C3611.87,859.81 3536.71,894.93 3539.58,908.471C3545.02,934.22 3550.75,919.35 3547.13,935.931C3543.5,952.511 3547.2,954.628 3546.18,977.972C3545.17,1001.32 3544.62,1011.28 3554.25,1024.18C3563.89,1037.08 3552,1097.98 3548.36,1109.11C3544.72,1120.24 3477.77,1182.5 3439.82,1275.98C3375.89,1433.46 3376.68,1533.79 3371.99,1571.18C3367.3,1608.57 3362.8,1635.77 3368.95,1635.54C3375.11,1635.31 3390.1,1585.8 3408.92,1568.98C3427.75,1552.17 3496.2,1547.47 3524.22,1541.34C3552.23,1535.2 3669.95,1107.21 3695.31,1110.15C3720.66,1113.08 3861.22,1067.12 3860.1,1048.62C3858.98,1030.11 3857.23,1028.56 3859.48,1016.75C3861.73,1004.94 3865.48,911.64 3873.73,905.378C3881.98,899.116 3889.58,896.108 3888.12,884.358C3886.65,872.608 3897.7,868.883 3897.27,846.177C3896.85,823.47 3879.52,731.041 3879.52,731.041L3826.1,632.197L3823.38,679.751Z" style="fill:white;"/>
        </g>
        <g transform="matrix(1.00591,0,0,1.00591,-2157.63,268.954)">
            <path d="M3560.44,1368.78C3552.31,1379.86 3459.8,1441.67 3457.14,1456.1C3454.49,1470.53 3453.13,1500.45 3460.14,1515.08C3467.14,1529.71 3478.86,1537.54 3480.07,1550.72C3481.28,1563.9 3471.69,1579.68 3477.89,1598.2C3484.08,1616.72 3487.15,1622.82 3492.14,1645.8C3497.13,1668.79 3499.51,1682.39 3512.39,1688.24C3525.27,1694.08 3571.11,1716.03 3598.37,1717.17C3625.62,1718.32 3653.63,1693.6 3658.62,1678.2C3663.61,1662.8 3654.49,1656.72 3650.61,1644.32C3646.73,1631.92 3643.17,1623.67 3633.55,1616.92C3623.92,1610.17 3626.06,1602.43 3628.97,1584.41C3631.88,1566.4 3646.76,1533.85 3637.08,1500.14C3627.39,1466.44 3568.57,1357.69 3560.44,1368.78Z" style="fill:white;"/>
        </g>
        <g transform="matrix(1.00591,0,0,1.00591,-2157.63,268.954)">
            <path d="M3551.86,1011.41C3551.86,1011.41 3547.06,1008.8 3546.2,1019.37C3545.35,1029.93 3548.73,1043.69 3546.28,1061.07C3543.83,1078.44 3542.32,1097.56 3543.7,1108.83C3545.08,1120.1 3537.89,1118.72 3555.86,1126.2C3573.84,1133.69 3599.38,1150.9 3605.23,1146.74C3611.09,1142.58 3604.31,1126.85 3604.68,1108.33C3605.04,1089.81 3615.82,1072.69 3608.22,1063.71C3600.64,1054.72 3590.72,1054.78 3578.35,1044.92C3565.99,1035.07 3553.09,1022.18 3553.09,1022.18L3551.86,1011.41Z" style="fill:white;"/>
        </g>
        <g transform="matrix(1.00591,0,0,1.00591,-2157.63,268.954)">
            <path d="M3672.09,1066.53C3678.66,1061.08 3690.04,1059.71 3721.55,1053.06C3753.06,1046.41 3746.84,1049.25 3787.59,1035.79C3828.34,1022.34 3855.99,1011.38 3858.08,1010.93C3863.65,1009.74 3862.18,1013.48 3867.22,1035.96C3872.26,1058.44 3877.18,1069.52 3866.33,1082.94C3855.47,1096.35 3847.38,1100.39 3814.68,1110.4C3781.98,1120.41 3763.85,1135.15 3738.93,1140.23C3714.01,1145.31 3667.04,1170.88 3659.07,1151.5C3651.11,1132.12 3665.52,1071.98 3672.09,1066.53Z" style="fill:white;"/>
        </g>
        <g transform="matrix(1.00591,0,0,1.00591,-2157.63,268.954)">
            <path d="M3526.43,771.096C3530.82,786.464 3534.43,801.75 3534.73,824.715C3535.03,847.679 3524.93,883.015 3536.26,896.194C3547.6,909.372 3836.68,660.118 3836.68,660.118L3874.55,630.81C3767.49,662.515 3662.41,675.745 3564.43,623.132C3564.43,623.132 3522.04,755.728 3526.43,771.096Z" style="fill:white;"/>
        </g>
        <g transform="matrix(1.00591,0,0,1.00591,-2157.63,268.954)">
            <path d="M3532.45,895.857C3552.45,883.425 3747.14,753.282 3807.18,668.023C3867.22,582.765 3857.75,640.916 3857.75,640.916L3872.45,685.899C3872.45,685.899 3714.43,849.753 3541.5,940.597C3539.17,941.822 3522.87,901.816 3532.45,895.857Z" style="fill:white;"/>
        </g>
        <g transform="matrix(1.00591,0,0,1.00591,-2157.63,268.954)">
            <path d="M3875.96,784.601C3887.3,819.409 3898.8,851.313 3913.9,873.611C3929,895.91 3936.86,890.287 3940.99,921.999C3945.13,953.712 3952.29,1016.23 3968.06,1041.12C3983.83,1066.01 4082.22,1030.77 4082.22,1030.77C4082.22,1030.77 4092.38,968.328 4074.23,933.728C4056.07,899.129 4036.85,890.095 4028.32,858.335C4019.8,826.575 4017.66,746.374 3990.01,716.794C3962.36,687.213 3864.63,749.794 3875.96,784.601Z" style="fill:white;"/>
        </g>
        <g transform="matrix(1.00591,0,0,1.00591,-2157.63,268.954)">
            <path d="M3921.16,557.715C3887.12,554.651 3839.59,554.868 3821.95,622.52C3804.32,690.173 3838.12,795.364 3852.63,805.132C3867.13,814.901 3918.16,816.686 3923.2,806.355C3928.24,796.023 3935.53,755.768 3940.54,755.987C3945.56,756.206 4032.58,733.67 4034.59,720.274C4036.6,706.878 4019.03,566.527 3921.16,557.715Z" style="fill:white;"/>
        </g>
        <g transform="matrix(1.00591,0,0,0.908196,-2157.63,367.432)">
            <path d="M3549.31,580.792L3568.21,577.122C3568.21,577.122 3589.86,679.569 3651.51,749.887C3713.16,820.206 3864.76,903.623 3870.93,905.061C3877.1,906.499 3883.51,923.015 3878.58,938.987C3873.66,954.959 3875.79,947.497 3872.94,966.576C3870.1,985.656 3879.9,1008.44 3858.07,1007.79C3836.23,1007.14 3598.43,950.682 3533.78,761.376C3469.14,572.07 3549.31,580.792 3549.31,580.792Z" style="fill:white;"/>
        </g>
        <g transform="matrix(1.00591,0,0,1.00591,-2157.63,268.954)">
            <path d="M3402.43,989.412C3409.02,984.879 3519.93,1026.32 3527.37,1042.05C3534.82,1057.79 3486.71,1096.56 3469.84,1119.75C3452.96,1142.93 3441.99,1160.59 3446.87,1180.96C3451.74,1201.33 3373.83,1186.75 3375.61,1174.26C3377.38,1161.77 3369.49,1012.08 3402.43,989.412Z" style="fill:white;"/>
        </g>
        <g transform="matrix(1.00591,0,0,1.00591,-2154.4,267.192)">
            <path d="M3562.7,577.588C3564.21,568.097 3501.01,561.088 3478.86,603.092C3456.71,645.095 3460.47,672.233 3463.74,683.674C3475.72,725.508 3499.45,715.107 3503.87,723.236C3508.29,731.365 3516.21,774.465 3520.24,776.207C3524.27,777.949 3530.04,784.78 3533.72,775.79C3537.4,766.799 3538.79,721.725 3552.35,689.014C3565.92,656.302 3581.48,639.819 3577.17,635.032C3572.87,630.245 3557.65,609.478 3562.7,577.588Z" style="fill:white;"/>
        </g>
        <g transform="matrix(1.00591,0,0,1.00591,-2157.63,268.954)">
            <path d="M3751.76,484.428C3751.76,484.428 3821.45,485.518 3835.62,507.323C3846.32,523.774 3835.12,532.419 3835.12,532.419C3835.12,532.419 3851.83,534.264 3854.01,542.44C3856.18,550.615 3855.14,554.375 3855.14,554.375C3855.14,554.375 3826.99,590.036 3792.85,610.113C3758.7,630.189 3741.51,643.29 3725.4,658.507C3709.28,673.724 3697.55,684.144 3682.93,681.657C3668.32,679.169 3646.52,656.488 3621.99,641.734C3597.47,626.98 3570.18,606.501 3567.36,589.492C3564.53,572.482 3566.23,566.103 3570.51,565.859C3574.78,565.614 3570.5,548.286 3575.22,546.5C3579.93,544.713 3567.84,542.8 3584.67,527.798C3601.5,512.795 3619.1,474.899 3751.76,484.428Z" style="fill:white;"/>
        </g>
        <g transform="matrix(1.00591,0,0,1.00591,-2157.63,268.954)">
            <path d="M3747.7,488.487C3747.7,488.487 3792.1,483.743 3792.27,503.973C3792.45,524.202 3733.96,571.864 3709.7,585.595C3685.43,599.325 3673.56,627.045 3654.28,610.933C3634.99,594.82 3644.98,600.367 3631.22,584.738C3617.46,569.109 3589.14,539.328 3603.34,521.135C3617.55,502.943 3633.95,502.421 3633.95,502.421L3747.7,488.487Z" style="fill:white;"/>
        </g>
        <g transform="matrix(1.00591,0,0,1.00591,-2157.63,268.954)">
            <path d="M3754.23,484.698C3755.73,494.005 3764.38,516.93 3749.68,529.439C3734.98,541.948 3694.47,577.035 3679.89,574.564C3639.14,567.661 3630.42,515.554 3630.4,501.342C3630.38,487.13 3752.72,475.39 3754.23,484.698Z" style="fill:white;"/>
        </g>
        <g transform="matrix(1.00591,0,0,1.00591,-2155.78,268.954)">
            <path d="M3600.56,394.45C3600.56,394.45 3589.44,385.222 3581.33,393.837C3573.21,402.452 3581.11,413.118 3584,420.322C3586.88,427.526 3587.54,432.203 3592.12,441.562C3596.7,450.921 3608.07,466.894 3613.76,457.995C3619.44,449.095 3600.56,394.45 3600.56,394.45Z" style="fill:white;"/>
        </g>
        <g transform="matrix(-1.00591,0,0,1.00591,5255.73,268.954)">
            <path d="M3600.56,394.45C3600.56,394.45 3589.44,385.222 3581.33,393.837C3573.21,402.452 3581.11,413.118 3584,420.322C3586.88,427.526 3587.54,432.203 3592.12,441.562C3596.7,450.921 3608.07,466.894 3613.76,457.995C3619.44,449.095 3600.56,394.45 3600.56,394.45Z" style="fill:white;"/>
        </g>
        <g transform="matrix(1.00591,0,0,1.00591,-2157.63,268.954)">
            <path d="M3686.34,323.202C3686.42,321.507 3686.46,320.585 3686.46,320.585C3686.46,320.585 3690.62,321.086 3694.4,318.396C3700.4,314.122 3708.83,308.3 3715.44,308.584C3726.2,309.047 3745.03,319.92 3749.23,333.756C3753.42,347.592 3744.87,363.221 3748.62,368.886C3752.37,374.552 3769.5,390.017 3768.82,408.501C3768.13,426.984 3758.82,453.857 3752.12,460.046C3741.3,470.054 3736.78,469.836 3739.2,472.13C3748.9,481.325 3724.56,536.381 3710.33,529.732C3705.68,527.56 3666.63,526.121 3662.4,529.013C3645.01,540.875 3627.32,482.437 3632.81,473.706C3634.58,470.882 3629.74,464.701 3618.91,454.693C3612.22,448.504 3604.56,426.984 3603.87,408.501C3603.18,390.017 3620.32,374.552 3624.07,368.886C3627.82,363.221 3619.27,347.592 3623.46,333.756C3627.66,319.92 3646.49,309.047 3657.25,308.584C3663.86,308.3 3672.29,314.122 3678.29,318.396C3682.07,321.086 3686.23,320.585 3686.23,320.585C3686.23,320.585 3686.27,321.507 3686.34,323.202Z" style="fill:white;"/>
        </g>
        <g transform="matrix(1.00591,0,0,1.00591,-2157.63,268.954)">
            <path d="M3672.56,390.288C3674.58,393.353 3670.29,397.534 3666.62,397.959C3662.94,398.384 3649.03,392.438 3639.95,391.182C3630.87,389.926 3620.82,392.567 3620.82,392.567C3620.82,392.567 3626.43,380.259 3638.05,380.389C3649.67,380.519 3670.55,387.223 3672.56,390.288Z" style="fill:white;"/>
        </g>
        <g transform="matrix(-1.00591,0,0,1.00591,5260.11,268.954)">
            <path d="M3672.56,390.288C3674.58,393.353 3670.29,397.534 3666.62,397.959C3662.94,398.384 3649.03,392.438 3639.95,391.182C3630.87,389.926 3620.82,392.567 3620.82,392.567C3620.82,392.567 3626.43,380.259 3638.05,380.389C3649.67,380.519 3670.55,387.223 3672.56,390.288Z" style="fill:white;"/>
        </g>
        <g transform="matrix(0.997085,0,0,1.00452,-2124.84,269.716)">
            <path d="M3686.14,460.97C3691.97,460.716 3693.23,457.42 3706.43,460.246C3720.92,463.349 3726.54,473.998 3729.59,472.095C3732.65,470.192 3734.81,463.314 3741.18,463.212C3747.54,463.111 3760.41,445.689 3762.76,437.98C3765.11,430.271 3768.43,419.729 3768.43,419.729C3768.43,419.729 3757.79,480.393 3751.46,492.761C3745.13,505.129 3724.01,542.077 3708.46,545.762C3697.68,548.315 3691.45,539.4 3686.14,539.041C3680.82,539.4 3677.25,548.217 3663.82,545.762C3642.58,541.879 3627.15,505.129 3620.82,492.761C3614.48,480.393 3603.84,419.729 3603.84,419.729C3603.84,419.729 3607.17,430.271 3609.52,437.98C3611.87,445.689 3624.74,463.111 3631.1,463.212C3637.46,463.314 3639.63,470.192 3642.68,472.095C3645.74,473.998 3651.36,463.349 3665.85,460.246C3679.05,457.42 3680.3,460.716 3686.14,460.97ZM3676.08,497.125C3678.23,492.664 3695.96,493.447 3697.56,496.884C3698.55,498.997 3700.64,520.697 3707.43,519.71C3729.61,516.481 3736.18,491.815 3727.74,481.748C3722.86,475.921 3710.73,466.906 3701.24,467.208C3695.68,467.385 3693.18,466.519 3691.08,467.467C3687.31,469.166 3682.97,468.265 3681.2,467.467C3679.09,466.519 3676.45,465.905 3671.04,467.208C3660.13,469.833 3646.07,479.95 3643.65,487.225C3636.83,507.715 3653.52,519.249 3664.85,519.71C3671.69,519.988 3675.07,499.226 3676.08,497.125Z" style="fill:white;"/>
        </g>
        <g transform="matrix(1.00591,0,0,1.00591,-2157.63,268.954)">
            <path d="M3604.95,421.311C3605.75,432.413 3586.97,340.063 3598.86,317.091C3610.75,294.12 3629.61,284.537 3637.39,279.966C3645.16,275.395 3658.44,308.924 3658.44,308.924C3658.44,308.924 3627.86,316.744 3625.34,332.993C3622.83,349.242 3629.4,360.757 3625.47,368.264C3621.53,375.77 3602.65,389.218 3604.95,421.311Z" style="fill:white;"/>
        </g>
        <g transform="matrix(-0.979509,0,0,1.00591,5162.95,268.954)">
            <path d="M3604.95,421.311C3605.75,432.413 3586.97,340.063 3598.86,317.091C3610.75,294.12 3629.61,284.537 3637.39,279.966C3645.16,275.395 3658.44,308.924 3658.44,308.924C3658.44,308.924 3627.86,316.744 3625.34,332.993C3622.83,349.242 3629.4,360.757 3625.47,368.264C3621.53,375.77 3602.65,389.218 3604.95,421.311Z" style="fill:white;"/>
        </g>
        <g transform="matrix(1.09544,0,0,1.00591,-2483.43,268.954)">
            <path d="M3639.73,277.311C3648.44,226.171 3773.73,220.389 3815.82,285.849L3793.95,282.015L3843.68,310.982L3811.59,305.096L3845.3,351.63C3845.3,351.63 3768.41,312.655 3718.88,330.794C3645.91,357.513 3637.46,290.622 3639.73,277.311Z" style="fill:white;"/>
        </g>
        <g transform="matrix(1.00591,0,0,0.886081,-2157.63,405.054)">
            <path d="M3594.39,1145.43C3587.54,1159.33 3512.84,1275.3 3534.6,1494.37C3539.3,1541.68 3734.69,1550.66 3745.16,1504.31C3770.29,1393.07 3691.88,1136.72 3691.88,1136.72C3691.88,1136.72 3601.24,1131.52 3594.39,1145.43Z" style="fill:white;"/>
        </g>
        <g transform="matrix(0.675344,0.0328309,0,0.698817,-948.867,487.337)">
            <ellipse cx="3634.32" cy="1106.79" rx="64.497" ry="69.699" style="fill:white;"/>
        </g>
        <g transform="matrix(1.00591,0,0,1.00591,-7.06283,15.4998)">
            <path d="M1842.53,1419.59C1837.32,1424.53 1838.29,1437.73 1828.92,1446.09C1819.55,1454.45 1808.57,1465.6 1804.98,1479.06C1801.39,1492.52 1807.5,1509.57 1808.03,1524.57C1808.56,1539.56 1810.26,1552.98 1810.08,1557.16C1809.9,1561.35 1833.41,1568.16 1836.57,1549.14C1839.72,1530.12 1833.37,1510.35 1836.85,1502.83C1840.33,1495.31 1839.73,1494.67 1844.21,1501.49C1848.68,1508.3 1856.03,1532.2 1857.97,1543.88C1859.91,1555.56 1866.16,1572.63 1860.66,1584.23C1855.16,1595.84 1845.3,1624.31 1849,1628.93C1852.7,1633.56 1871.13,1633.34 1874.94,1624.91C1878.74,1616.49 1880.37,1610.44 1880.37,1610.44C1880.37,1610.44 1881.3,1612.89 1893.56,1607.02C1905.82,1601.16 1910.15,1592.67 1911.07,1588.77C1912,1584.88 1918.38,1587.6 1922.4,1583.92C1926.41,1580.24 1928.11,1573.71 1928.11,1573.71C1928.11,1573.71 1942.32,1566.13 1950.27,1556.27C1958.23,1546.4 1956.61,1538.27 1956.8,1523.59C1956.99,1508.91 1948.25,1489.95 1946.31,1477.46C1944.38,1464.96 1943.85,1432.51 1938.95,1424.73C1916.95,1389.83 1847.74,1414.65 1842.53,1419.59Z" style="fill:white;"/>
        </g>
        <g transform="matrix(1.00591,0,0,1.00591,-7.06283,15.4998)">
            <path d="M1811.06,1464.39C1817.99,1460.06 1807.57,1475.36 1819.99,1483.26C1832.4,1491.16 1830.75,1494.03 1841.39,1492.86C1852.04,1491.69 1854.99,1487.38 1882.99,1482.21C1910.99,1477.04 1941.08,1467.68 1947.55,1475.74C1954.03,1483.8 1957.37,1483.64 1958.54,1495.7C1959.72,1507.76 1957.52,1509.25 1956.04,1517.21C1954.56,1525.18 1953.58,1532.42 1948.24,1534.96C1942.9,1537.51 1946.05,1536.73 1937.73,1543.02C1929.4,1549.3 1929.77,1556.07 1922.95,1557.47C1916.12,1558.86 1916.55,1558.33 1908.3,1560.81C1900.04,1563.28 1894.21,1559.7 1889.97,1561.64C1885.72,1563.59 1889.51,1567.1 1879.76,1568.67C1870,1570.24 1863.62,1579.03 1858.68,1564.8C1853.74,1550.57 1857.36,1549.62 1853.73,1535.49C1850.09,1521.36 1845.42,1505.07 1840.23,1505.79C1835.04,1506.52 1838.27,1516.97 1835.77,1521.84C1833.26,1526.7 1805.98,1526.84 1804.59,1514.02C1803.2,1501.2 1798.2,1472.41 1811.06,1464.39Z" style="fill:white;"/>
        </g>
        <g transform="matrix(1.00591,0,0,1.00591,-2157.63,268.954)">
            <path d="M3950.37,1003.46C3955.4,995.112 3977.89,981.217 4019.68,980.358C4061.46,979.499 4083.75,986.871 4089.45,992.774C4095.15,998.678 4077.21,1051.6 4074.84,1096.24C4072.46,1140.88 4082.5,1145.32 4081.57,1173.18C4081.03,1189.32 4070.87,1160.75 4030.01,1157.28C3990.02,1153.89 3976.38,1179.27 3975,1171.67C3972.03,1155.27 3996.42,1116.95 3976.94,1076.32C3957.46,1035.69 3940.94,1019.1 3950.37,1003.46Z" style="fill:white;"/>
        </g>
        <g transform="matrix(1.00591,0,0,1.00591,-2157.63,268.954)">
            <path d="M3512.93,1766.38C3506.69,1790.14 3498.86,1790.17 3505.84,1843.61C3512.82,1897.06 3525.16,1966.37 3502.78,1999.22C3480.41,2032.07 3464.48,2031.6 3431.65,2059.08C3398.82,2086.55 3400.87,2069.26 3378.64,2093.28C3356.42,2117.3 3342.65,2148.67 3390.14,2154.34C3437.62,2160.01 3444.8,2157.24 3512.66,2139.01C3580.53,2120.79 3602.47,2124.48 3610.81,2100.96C3619.14,2077.45 3599.84,2010.39 3604.58,1979.25C3609.31,1948.1 3698.03,1800.72 3669,1771.39C3639.97,1742.06 3519.17,1742.61 3512.93,1766.38Z" style="fill:white;"/>
        </g>
        <g transform="matrix(1.00591,0,0,1.00591,-2157.63,268.954)">
            <path d="M3825.95,1761.72C3820.74,1777.35 3815.37,1777.56 3833.83,1818.74C3852.29,1859.92 3877.74,1895.96 3889.96,1934.3C3902.18,1972.63 3909.23,1978.47 3901.53,1999.99C3893.83,2021.52 3895.52,2022.53 3896.58,2055.38C3897.65,2088.23 3894.08,2124.06 3904.13,2152.74C3914.18,2181.41 3939.29,2224.71 3992.59,2221.12C4041.23,2217.84 4057.36,2181.35 4050.82,2146.49C4044.28,2111.64 4030.4,2094.11 4017.04,2070.16C4003.67,2046.22 3983.82,2003.5 3984.13,1974.75C3984.43,1945.99 4009.9,1804.72 3970.85,1764.17C3931.81,1723.63 3831.17,1746.1 3825.95,1761.72Z" style="fill:white;"/>
        </g>
        <g transform="matrix(1.00591,0,0,1.00591,-2157.63,268.954)">
            <path d="M3804.49,1675.46C3789.28,1666.02 3792.56,1685.79 3795.82,1712.53C3799.08,1739.26 3793.53,1760.4 3815.66,1770.06C3837.79,1779.72 3880.64,1809.34 3914.59,1806.43C3948.53,1803.52 3958.55,1802.61 3974.41,1781.28C3990.27,1759.94 3998.21,1775.4 3993.07,1745.11C3987.93,1714.82 3975.04,1668.25 3963.35,1670.79C3951.65,1673.33 3950.77,1680.9 3931.51,1686.62C3912.25,1692.34 3896.16,1689.76 3871.98,1689.85C3847.8,1689.93 3815.74,1682.45 3804.49,1675.46Z" style="fill:white;"/>
        </g>
        <g transform="matrix(1.00591,0,0,1.00591,-2157.63,268.954)">
            <path d="M3504.31,1684.51C3495.92,1690.98 3486.44,1715.91 3490.14,1741.51C3493.85,1767.11 3521.4,1792.14 3549.48,1799.82C3577.57,1807.5 3663.89,1786.41 3678.18,1776.36C3692.46,1766.31 3673.74,1683.5 3658.74,1681.35C3643.74,1679.2 3633.35,1702.62 3609.66,1701.96C3585.96,1701.3 3580.54,1703.98 3553.99,1697.87C3527.45,1691.77 3512.69,1678.04 3504.31,1684.51Z" style="fill:white;"/>
        </g>
        <g transform="matrix(1.00591,0,0,1.00591,-7.06283,15.4998)">
            <path d="M1241.38,1428.47C1238.95,1436.57 1217.46,1501.57 1214.61,1524.19C1211.75,1546.82 1218.31,1562.15 1223.38,1573.3C1228.45,1584.45 1234.33,1596.39 1238.86,1601.97C1243.39,1607.56 1261.14,1613.76 1273.58,1619.68C1277.59,1621.59 1283.44,1614.23 1279.97,1604.84C1276.49,1595.45 1260.46,1589.24 1260.46,1589.24C1260.46,1589.24 1275.6,1591.45 1286.08,1590.11C1296.47,1588.78 1297.16,1580 1293.31,1577.44C1289.47,1574.89 1282.55,1573.32 1282.55,1573.32C1282.55,1573.32 1302.65,1572.28 1303.28,1567.96C1306.14,1548.55 1272.81,1555.89 1272.81,1555.89L1263.26,1542.8L1282.79,1511.22C1282.79,1511.22 1286.6,1527.65 1289.98,1531.24C1293.36,1534.83 1302.03,1536.98 1306.46,1543.83C1310.9,1550.68 1315.85,1561.2 1323.61,1563.72C1331.37,1566.24 1342.43,1550.88 1338.1,1539.34C1333.77,1527.8 1333.12,1527.78 1328.58,1520.07C1324.05,1512.36 1322.13,1495.64 1321.05,1488.42C1319.97,1481.21 1333.42,1461 1307.5,1438.18C1294.18,1426.45 1243.81,1420.38 1241.38,1428.47Z" style="fill:white;"/>
        </g>
        <g transform="matrix(1.00591,0,0,1.00591,-7.06283,15.4998)">
            <path d="M1326.01,1489.98C1329.76,1484.46 1314.04,1476.81 1301.76,1479.91C1289.49,1483 1286.72,1501.32 1277.66,1495.45C1268.61,1489.58 1260.68,1481.96 1250.85,1475.62C1241.02,1469.28 1233.77,1464.83 1227.64,1471.12C1221.52,1477.42 1217.8,1489.46 1214.56,1502.82C1211.32,1516.18 1205.36,1531.49 1208.19,1537.07C1211.01,1542.64 1208.14,1546.96 1213.75,1553.89C1219.36,1560.82 1219.27,1562.24 1228.23,1563.49C1237.18,1564.73 1243.08,1566.14 1248.17,1564C1253.26,1561.87 1251.57,1558.47 1256.03,1554.36C1260.49,1550.25 1262.05,1551.38 1264.95,1544.4C1267.85,1537.42 1276.55,1509.59 1280.26,1510.71C1283.98,1511.84 1282.94,1524.95 1286.58,1529.53C1290.22,1534.11 1288.48,1540.18 1299.36,1539.15C1310.24,1538.13 1331.87,1527.84 1329.85,1519.25C1327.83,1510.65 1319.99,1498.83 1326.01,1489.98Z" style="fill:white;"/>
        </g>
    </g>
</svg>
