<?xml version="1.0" encoding="UTF-8" standalone="no"?>
<!DOCTYPE svg PUBLIC "-//W3C//DTD SVG 1.1//EN" "http://www.w3.org/Graphics/SVG/1.1/DTD/svg11.dtd">
<svg width="100%" height="100%" viewBox="0 0 512 512" version="1.1" xmlns="http://www.w3.org/2000/svg" xmlns:xlink="http://www.w3.org/1999/xlink" xml:space="preserve" xmlns:serif="http://www.serif.com/" style="fill-rule:evenodd;clip-rule:evenodd;stroke-linejoin:round;stroke-miterlimit:2;">
    <g id="AvatarCartoonSilhouette" transform="matrix(0.891194,0,0,0.891194,-65.8211,-461.623)">
        <g id="Legs" transform="matrix(1,0,0,1,1.30642,0)">
            <g id="Lwg">
                <g transform="matrix(-0.866896,0.0585949,0.0581013,0.859593,1215.49,-313.284)">
                    <path d="M1094.87,1292.82L1057.18,1292.82C1062.97,1356.36 1055.81,1415.03 1059.76,1468.92L1093.56,1468.91C1091.66,1412.98 1091.87,1355.61 1094.87,1292.82Z" style="fill:white;"/>
                </g>
                <g transform="matrix(-2.7784,0,0,2.91289,2262.59,-2869.43)">
                    <path d="M675.996,1327.26C673.998,1330.11 676.193,1343.95 676.193,1343.95C672.746,1344.99 662.094,1347.27 664.557,1350.61C667.02,1353.95 685.484,1352.22 686.526,1350.53C687.568,1348.84 689.933,1330.73 688.178,1326.85C686.503,1323.15 677.994,1324.41 675.996,1327.26Z" style="fill:white;"/>
                </g>
                <g transform="matrix(-0.738919,0.064226,0.0394774,0.454187,1577.36,425.874)">
                    <path d="M1664.8,898.528C1665.88,890.925 1713.5,885.592 1714.37,896.428C1715.77,914.068 1717.74,961.879 1716.63,966.237C1713.61,978.114 1664.66,986.161 1664.93,973.942C1665.21,961.723 1663.94,904.591 1664.8,898.528Z" style="fill:white;"/>
                </g>
            </g>
            <g id="Leg">
                <g transform="matrix(0.866896,0.0585949,-0.0581013,0.859593,-543.398,-313.284)">
                    <path d="M1094.87,1292.82L1057.18,1292.82C1062.97,1356.36 1055.81,1415.03 1059.76,1468.92L1093.56,1468.91C1091.66,1412.98 1091.87,1355.61 1094.87,1292.82Z" style="fill:white;"/>
                </g>
                <g transform="matrix(2.7784,0,0,2.91289,-1590.49,-2869.43)">
                    <path d="M676.165,1327.26C674.139,1330.11 676.193,1343.95 676.193,1343.95C672.746,1344.99 662.094,1347.27 664.557,1350.61C667.02,1353.95 685.484,1352.22 686.526,1350.53C687.568,1348.84 690.074,1330.73 688.347,1326.85C686.694,1323.14 678.19,1324.41 676.165,1327.26Z" style="fill:white;"/>
                </g>
                <g transform="matrix(0.71352,0.0620182,-0.0381204,0.438575,-862.604,444.66)">
                    <path d="M1664.8,898.528C1665.88,890.925 1713.5,885.592 1714.37,896.428C1715.77,914.068 1717.74,961.879 1716.63,966.237C1713.61,978.114 1664.66,986.161 1664.93,973.942C1665.21,961.723 1663.94,904.591 1664.8,898.528Z" style="fill:white;"/>
                </g>
            </g>
            <g id="Pelvis" transform="matrix(1.06654,0,0,0.714519,-837.81,-18.6494)">
                <rect x="1081.1" y="1251.79" width="39.047" height="33.951" style="fill:white;"/>
            </g>
        </g>
        <g id="Arrows" transform="matrix(0.909066,0.164272,-0.164272,0.909066,-493.837,-455.531)">
            <g transform="matrix(0.617143,0.255599,-0.255599,0.617143,862.454,276.138)">
                <g transform="matrix(1,0,0,1.25936,1.19678,-244.996)">
                    <path d="M931.961,948.5C931.961,946.353 929.766,944.61 927.062,944.61C924.358,944.61 922.162,946.353 922.162,948.5L922.162,1277.57C922.162,1279.72 924.358,1281.46 927.062,1281.46C929.766,1281.46 931.961,1279.72 931.961,1277.57L931.961,948.5Z" style="fill:white;"/>
                </g>
                <g transform="matrix(0.661449,0,0,1,318.129,-1.2582)">
                    <path d="M918.465,904.71C919.101,903.635 920.668,902.928 922.414,902.928C924.16,902.928 925.727,903.635 926.363,904.71C935.381,919.96 956.719,956.038 956.719,956.038L888.109,956.038C888.109,956.038 909.447,919.96 918.465,904.71Z" style="fill:white;"/>
                </g>
            </g>
            <g transform="matrix(0.576566,0.337295,-0.337295,0.576566,1023.49,207.119)">
                <g transform="matrix(1,-1.11022e-16,-1.66533e-16,1.30368,1.19678,-286.856)">
                    <path d="M931.961,948.368C931.961,946.293 929.766,944.61 927.062,944.61C924.358,944.61 922.162,946.293 922.162,948.368L922.162,1277.7C922.162,1279.78 924.358,1281.46 927.062,1281.46C929.766,1281.46 931.961,1279.78 931.961,1277.7L931.961,948.368Z" style="fill:white;"/>
                </g>
                <g transform="matrix(0.661449,0,0,1,318.129,-1.2582)">
                    <path d="M918.465,904.71C919.101,903.635 920.668,902.928 922.414,902.928C924.16,902.928 925.727,903.635 926.363,904.71C935.381,919.96 956.719,956.038 956.719,956.038L888.109,956.038C888.109,956.038 909.447,919.96 918.465,904.71Z" style="fill:white;"/>
                </g>
            </g>
            <g transform="matrix(0.465211,0.479348,-0.479348,0.465211,1260.02,245.202)">
                <g transform="matrix(1,-5.55112e-17,0,1.1708,1.19678,-161.34)">
                    <path d="M931.961,948.794C931.961,946.485 929.766,944.61 927.062,944.61C924.358,944.61 922.162,946.485 922.162,948.794L922.162,1277.28C922.162,1279.59 924.358,1281.46 927.062,1281.46C929.766,1281.46 931.961,1279.59 931.961,1277.28L931.961,948.794Z" style="fill:white;"/>
                </g>
                <g transform="matrix(0.661449,0,0,1,318.129,-1.2582)">
                    <path d="M918.465,904.71C919.101,903.635 920.668,902.928 922.414,902.928C924.16,902.928 925.727,903.635 926.363,904.71C935.381,919.96 956.719,956.038 956.719,956.038L888.109,956.038C888.109,956.038 909.447,919.96 918.465,904.71Z" style="fill:white;"/>
                </g>
            </g>
        </g>
        <g id="Body">
            <g transform="matrix(0.718699,0,0,3.63233,-455.57,-3743.35)">
                <path d="M1153.15,1239.96C1137.3,1235.44 1065.47,1235.44 1049.62,1239.96C1052.17,1241.08 1052.03,1243.8 1053.88,1247C1061.12,1259.55 1049.62,1267.05 1049.62,1267.05L1153.15,1267.05C1153.15,1267.05 1145.59,1257.52 1150.65,1247.07C1150.86,1243.96 1151.58,1241.32 1153.15,1239.96Z" style="fill:white;"/>
            </g>
            <g transform="matrix(0.817065,0,0,1.24653,-562.664,-695.514)">
                <path d="M1146.96,1239.61C1142.7,1238.51 1053.83,1239.96 1053.83,1239.96L1051.05,1267.05C1051.05,1267.05 1150.01,1268.12 1151.72,1267.05C1153.44,1265.99 1151.23,1240.71 1146.96,1239.61Z" style="fill:white;"/>
            </g>
            <g transform="matrix(0.637725,0.368191,-0.645011,1.11719,391.14,-930.675)">
                <path d="M1122.67,1140.36C1123.75,1137.57 1089.8,1140.2 1089.51,1143.49L1095.89,1227.77C1093.62,1229.81 1129.88,1267.83 1131.2,1261.28L1122.67,1140.36Z" style="fill:white;"/>
            </g>
        </g>
        <g id="Arms">
            <g id="Arm">
                <g transform="matrix(0.776496,0,0,0.776496,-521.452,-123.365)">
                    <path d="M1007.88,1340.98C1004.19,1331.25 1004.02,1325.79 1004.06,1318.7C1004.15,1303.83 1009.04,1250.29 1009.04,1250.29L1012.4,1222.23L1028.1,1184.42L1052.91,1197.7C1047.35,1209.47 1041.91,1221.62 1036.77,1231.4C1035.7,1240.54 1034.79,1252.43 1032.61,1264.04C1028.32,1286.97 1023.46,1309.34 1023.46,1309.34C1023.46,1309.34 1040.36,1329.43 1035.45,1333.85C1033.42,1335.67 1030.84,1336.06 1026.49,1332.26C1023.78,1342.74 1036.04,1358.71 1029.96,1361.21C1022.08,1364.45 1013.45,1355.64 1007.88,1340.98Z" style="fill:white;"/>
                </g>
                <g transform="matrix(-0.750512,0,0,0.681387,1152.17,-5.54799)">
                    <path d="M1131.25,1118.08C1146.48,1129.4 1168.73,1181.28 1168.73,1181.28L1143.49,1200.62C1137.3,1190.48 1134.61,1177.29 1130.79,1164.7C1119.06,1152.1 1121.09,1125.07 1131.25,1118.08Z" style="fill:white;"/>
                </g>
                <g transform="matrix(0.871415,0,0,0.871415,-621.169,-238.275)">
                    <path d="M1014.65,1216.54L1043.82,1225.53C1042.79,1234.62 1039.04,1252.75 1036.01,1264.73L1008.73,1260.4C1008.27,1252.42 1012.1,1228.02 1014.65,1216.54Z" style="fill:white;"/>
                </g>
            </g>
            <g id="Arm1" serif:id="Arm">
                <g transform="matrix(-0.776496,0,0,0.776496,1194.99,-123.365)">
                    <path d="M1007.88,1340.98C1004.19,1331.25 1004.02,1325.79 1004.06,1318.7C1004.15,1303.83 1009.04,1250.29 1009.04,1250.29L1012.4,1222.23L1028.1,1184.42L1047.76,1197.91C1042.2,1209.68 1041.91,1221.62 1036.77,1231.4C1035.7,1240.54 1034.79,1252.43 1032.61,1264.04C1028.32,1286.97 1023.46,1309.34 1023.46,1309.34C1023.46,1309.34 1040.36,1329.43 1035.45,1333.85C1033.42,1335.67 1030.84,1336.06 1026.49,1332.26C1023.78,1342.74 1036.04,1358.71 1029.96,1361.21C1022.08,1364.45 1013.45,1355.64 1007.88,1340.98Z" style="fill:white;"/>
                </g>
                <g transform="matrix(0.736381,0,0,0.736381,-479.827,-72.3439)">
                    <path d="M1191.74,1338.27L1215.27,1342.14C1214.92,1347.14 1211.97,1353.44 1209.66,1356.33L1189.24,1351.77C1190.66,1347.49 1191.67,1343.05 1191.74,1338.27Z" style="fill:white;"/>
                </g>
                <g transform="matrix(0.750512,0,0,0.681387,-478.614,-5.44075)">
                    <path d="M1130.25,1119.11C1151.23,1129.39 1182.43,1216.91 1182.43,1216.91L1188.38,1253.35L1158.2,1258.06L1155.83,1228.52C1146.72,1209.36 1139.52,1188.95 1131.65,1163.8C1119.93,1151.2 1120.1,1126.1 1130.25,1119.11Z" style="fill:white;"/>
                </g>
            </g>
        </g>
        <g id="Neck" transform="matrix(0.620779,0,0,0.657651,-120.922,569.242)">
            <path d="M747.454,241.994L728.978,241.994C728.978,241.994 724.416,269.782 725.978,278.704C727.485,287.309 748.938,287.07 750.454,278.704C752.093,269.66 747.454,241.994 747.454,241.994Z" style="fill:white;"/>
        </g>
        <g id="Head" transform="matrix(1,0,0,1,0,-2.64395)">
            <g transform="matrix(5.19866,4.70915,-4.70915,5.19866,-154.173,-178.398)">
                <path d="M127.8,26.05C124.589,27.763 122.761,30.279 123.33,33.816C123.145,34.871 122.143,34.747 122.4,35.95C120.5,30.983 122.3,27.683 127.8,26.05Z" style="fill:white;fill-rule:nonzero;"/>
            </g>
            <g transform="matrix(4.08794,5.70008,5.70008,-4.08794,-350.715,-7.91495)">
                <path d="M127.8,26.05C123.3,28.45 121.5,31.75 122.4,35.95C120.5,30.983 122.3,27.683 127.8,26.05Z" style="fill:white;fill-rule:nonzero;"/>
            </g>
            <g>
                <g transform="matrix(1.3564,-0.3643,0.33138,1.2227,-267.7,112.987)">
                    <ellipse cx="259.912" cy="540.499" rx="13.381" ry="18.3" style="fill:white;"/>
                </g>
                <g transform="matrix(-1.36817,-0.367462,-0.33138,1.2227,945.32,113.766)">
                    <ellipse cx="259.912" cy="540.499" rx="13.381" ry="18.3" style="fill:white;"/>
                </g>
            </g>
            <g transform="matrix(0.967468,0,0,0.794891,-5201.76,-3949.59)">
                <ellipse cx="5725.37" cy="5819.53" rx="72.444" ry="79.409" style="fill:white;"/>
            </g>
            <g transform="matrix(1.03777,0,0,0.691938,-5604.17,-3412.3)">
                <path d="M5725.37,5740.13C5765.35,5740.13 5794.99,5771.56 5797.81,5819.53C5800.33,5862.32 5794.65,5919.02 5780.48,5933.52C5767.53,5946.77 5744.46,5898.94 5725.37,5898.94C5698.68,5898.94 5677.42,5945.71 5664.85,5922.12C5658.6,5910.38 5648.16,5878.67 5652.93,5819.53C5656.84,5770.91 5685.39,5740.13 5725.37,5740.13Z" style="fill:white;"/>
            </g>
        </g>
    </g>
</svg>
