<?xml version="1.0" encoding="UTF-8" standalone="no"?>
<!DOCTYPE svg PUBLIC "-//W3C//DTD SVG 1.1//EN" "http://www.w3.org/Graphics/SVG/1.1/DTD/svg11.dtd">
<svg width="100%" height="100%" viewBox="0 0 512 512" version="1.1" xmlns="http://www.w3.org/2000/svg" xmlns:xlink="http://www.w3.org/1999/xlink" xml:space="preserve" xmlns:serif="http://www.serif.com/" style="fill-rule:evenodd;clip-rule:evenodd;stroke-linecap:round;stroke-linejoin:round;stroke-miterlimit:1.5;">
    <g id="Avatar---Green" serif:id="Avatar - Green" transform="matrix(2.04734,0,0,2.04734,18.2059,20.414)">
        <g transform="matrix(1.59746,0,0,1.32888,17.7873,-5.38756)">
            <path d="M94.664,149.771C94.664,128.524 80.314,111.274 62.639,111.274L60.507,111.274C42.832,111.274 28.482,128.524 28.482,149.771L28.482,167.517C28.482,173.891 32.787,179.066 38.09,179.066L85.057,179.066C90.359,179.066 94.664,173.891 94.664,167.517L94.664,149.771Z" style="fill:rgb(12,166,120);"/>
            <clipPath id="_clip1">
                <path d="M94.664,149.771C94.664,128.524 80.314,111.274 62.639,111.274L60.507,111.274C42.832,111.274 28.482,128.524 28.482,149.771L28.482,167.517C28.482,173.891 32.787,179.066 38.09,179.066L85.057,179.066C90.359,179.066 94.664,173.891 94.664,167.517L94.664,149.771Z"/>
            </clipPath>
            <g clip-path="url(#_clip1)">
                <g transform="matrix(1.26905,0,0,0.855881,-29.7746,40.6839)">
                    <rect x="71.605" y="68.144" width="47.788" height="113.524" style="fill:rgb(9,146,104);"/>
                </g>
            </g>
        </g>
        <g transform="matrix(4.09561,0,0,2.8918,-339.27,-198.447)">
            <ellipse cx="111.197" cy="98.495" rx="18.158" ry="26.273" style="fill:rgb(150,242,215);"/>
            <clipPath id="_clip2">
                <ellipse cx="111.197" cy="98.495" rx="18.158" ry="26.273"/>
            </clipPath>
            <g clip-path="url(#_clip2)">
                <g transform="matrix(0.687557,0,0,0.508563,61.7054,35.2337)">
                    <rect x="71.605" y="68.144" width="47.788" height="113.524" style="fill:rgb(99,230,190);"/>
                </g>
            </g>
        </g>
        <g transform="matrix(0.640275,0,0,0.640275,32.3011,21.4297)">
            <path d="M167.058,123.458C163.074,139.696 148.411,151.755 130.955,151.755C113.498,151.755 98.836,139.696 94.851,123.458" style="fill:none;stroke:rgb(9,146,104);stroke-width:14.24px;"/>
        </g>
        <g transform="matrix(2.42822,0,0,1.83445,-1118.4,-1731.96)">
            <g transform="matrix(0.295322,0.0566518,-0.0427988,0.390911,471.108,930.269)">
                <path d="M138.229,34.341C138.229,34.341 140.307,22.284 131.941,13.599C128.464,9.99 123.167,6.89 115.008,5.661C113.046,5.365 111.213,6.718 110.918,8.68C110.622,10.642 111.975,12.475 113.937,12.771C120.081,13.696 124.144,15.869 126.763,18.588C132.619,24.667 131.144,33.113 131.144,33.113C130.806,35.068 132.118,36.931 134.073,37.269C136.028,37.608 137.89,36.296 138.229,34.341Z" style="fill:rgb(99,230,190);"/>
            </g>
            <g transform="matrix(0.295322,0.0566518,-0.0427988,0.390911,471.497,930.426)">
                <path d="M137.809,31.944C137.809,31.944 131.953,21.604 119.674,16.758C111.627,13.583 100.779,12.668 86.995,18.855C85.185,19.668 84.375,21.797 85.188,23.607C86.001,25.418 88.13,26.227 89.94,25.415C98.567,21.542 105.801,20.876 111.717,21.937C125.15,24.346 131.565,35.509 131.565,35.509C132.548,37.233 134.746,37.833 136.469,36.849C138.192,35.865 138.793,33.668 137.809,31.944Z" style="fill:rgb(99,230,190);"/>
            </g>
        </g>
    </g>
</svg>
