<?xml version="1.0" encoding="UTF-8" standalone="no"?>
<!DOCTYPE svg PUBLIC "-//W3C//DTD SVG 1.1//EN" "http://www.w3.org/Graphics/SVG/1.1/DTD/svg11.dtd">
<svg width="100%" height="100%" viewBox="0 0 512 512" version="1.1" xmlns="http://www.w3.org/2000/svg" xmlns:xlink="http://www.w3.org/1999/xlink" xml:space="preserve" xmlns:serif="http://www.serif.com/" style="fill-rule:evenodd;clip-rule:evenodd;stroke-linejoin:round;stroke-miterlimit:2;">
    <g id="Avatar-Neutal---Light" serif:id="Avatar Neutal - Light" transform="matrix(2.09983,0,0,2.09983,12.1093,-27.3136)">
        <g transform="matrix(2.01603,0,0,1.67709,-7.98593,-63.2513)">
            <path d="M94.664,149.771C94.664,128.524 80.314,111.274 62.639,111.274L60.507,111.274C42.832,111.274 28.482,128.524 28.482,149.771L28.482,176.72C28.482,183.094 32.787,188.269 38.09,188.269L85.057,188.269C90.359,188.269 94.664,183.094 94.664,176.72L94.664,149.771Z" style="fill:rgb(74,188,185);"/>
            <clipPath id="_clip1">
                <path d="M94.664,149.771C94.664,128.524 80.314,111.274 62.639,111.274L60.507,111.274C42.832,111.274 28.482,128.524 28.482,149.771L28.482,176.72C28.482,183.094 32.787,188.269 38.09,188.269L85.057,188.269C90.359,188.269 94.664,183.094 94.664,176.72L94.664,149.771Z"/>
            </clipPath>
            <g clip-path="url(#_clip1)">
                <g transform="matrix(1.26905,0,0,0.855881,-29.7746,40.6839)">
                    <rect x="71.605" y="68.144" width="47.788" height="113.524" style="fill:rgb(54,147,146);"/>
                </g>
            </g>
        </g>
        <g transform="matrix(3.72107,0,0,2.62735,-297.623,-172.4)">
            <ellipse cx="111.197" cy="98.495" rx="18.158" ry="26.273" style="fill:rgb(249,190,148);"/>
            <clipPath id="_clip2">
                <ellipse cx="111.197" cy="98.495" rx="18.158" ry="26.273"/>
            </clipPath>
            <g clip-path="url(#_clip2)">
                <g transform="matrix(0.687557,0,0,0.508563,61.7054,35.2337)">
                    <rect x="71.605" y="68.144" width="47.788" height="113.524" style="fill:rgb(244,174,127);"/>
                </g>
            </g>
        </g>
        <g transform="matrix(2.2307,0,0,2.2307,-50.0469,-149.303)">
            <path d="M47.713,104.865C46.207,104.865 44.78,104.192 43.823,103.03C42.866,101.868 42.478,100.339 42.766,98.862C45.685,84 58.794,72.776 74.504,72.776C90.213,72.776 103.322,84 106.241,98.862C106.528,100.339 106.141,101.868 105.183,103.03C104.226,104.191 102.8,104.864 101.294,104.864C89.069,104.865 59.938,104.865 47.713,104.865Z" style="fill:rgb(75,50,42);"/>
            <clipPath id="_clip3">
                <path d="M47.713,104.865C46.207,104.865 44.78,104.192 43.823,103.03C42.866,101.868 42.478,100.339 42.766,98.862C45.685,84 58.794,72.776 74.504,72.776C90.213,72.776 103.322,84 106.241,98.862C106.528,100.339 106.141,101.868 105.183,103.03C104.226,104.191 102.8,104.864 101.294,104.864C89.069,104.865 59.938,104.865 47.713,104.865Z"/>
            </clipPath>
            <g clip-path="url(#_clip3)">
                <g transform="matrix(1.09746,0,0,0.340166,-4.49317,46.8435)">
                    <rect x="71.605" y="68.144" width="47.788" height="113.524" style="fill:rgb(58,38,33);"/>
                </g>
            </g>
        </g>
    </g>
</svg>
