<?xml version="1.0" encoding="UTF-8" standalone="no"?>
<!DOCTYPE svg PUBLIC "-//W3C//DTD SVG 1.1//EN" "http://www.w3.org/Graphics/SVG/1.1/DTD/svg11.dtd">
<svg width="100%" height="100%" viewBox="0 0 512 512" version="1.1" xmlns="http://www.w3.org/2000/svg" xmlns:xlink="http://www.w3.org/1999/xlink" xml:space="preserve" xmlns:serif="http://www.serif.com/" style="fill-rule:evenodd;clip-rule:evenodd;stroke-linejoin:round;stroke-miterlimit:2;">
    <g id="AxeIcon" transform="matrix(7.13195,0,0,7.13195,-6362.43,-4287.84)">
        <path d="M937.932,645.564L937.932,669.902C937.932,670.592 937.372,671.152 936.682,671.152L934.182,671.152C933.492,671.152 932.932,670.592 932.932,669.902L932.932,645.564L935.432,646.353L937.932,645.564Z" style="fill:white;"/>
        <g transform="matrix(4.40256e-17,0.812427,-0.526485,2.97908e-17,1274.74,-99.9299)">
            <path d="M901.714,621.702C901.714,620.391 901.025,619.328 900.176,619.328L897.099,619.328C896.249,619.328 895.56,620.391 895.56,621.702L895.56,667.249C895.56,668.56 896.249,669.623 897.099,669.623L900.176,669.623C901.025,669.623 901.714,668.56 901.714,667.249L901.714,621.702Z" style="fill:white;"/>
        </g>
        <g transform="matrix(0.574752,0,0,0.755348,102.567,533.985)">
            <path d="M1449.09,140.065L1463.1,143.428L1449.09,146.79L1435.07,143.428L1449.09,140.065Z" style="fill:white;"/>
        </g>
        <g transform="matrix(1,0,0,1,-14.5397,-1.0561)">
            <path d="M947.472,624.734L952.472,624.734L952.472,641.845L949.972,641.056L947.472,641.845L947.472,624.734Z" style="fill:white;"/>
        </g>
        <g transform="matrix(0.696492,0,0,2.14217,-57.2744,322.901)">
            <path d="M1449.09,140.065L1463.1,143.428L1449.09,146.79L1435.07,143.428L1449.09,140.065Z" style="fill:white;"/>
        </g>
        <g transform="matrix(5.47211e-17,-0.893664,2.7486,1.68304e-16,541.206,1910.59)">
            <path d="M1449.09,140.065L1463.1,143.428L1449.09,146.79L1435.07,143.428L1449.09,140.065Z" style="fill:white;"/>
        </g>
        <g transform="matrix(1,0,0,1,-5.75667,-4.87163)">
            <path d="M900.129,632.694C900.939,623.484 904.92,614.338 912.054,608.178L935.269,635.019L912.054,661.861C904.292,656.679 900.279,647.276 899.991,637.366L915.388,635.019L900.129,632.694Z" style="fill:white;"/>
        </g>
    </g>
</svg>
