<?xml version="1.0" encoding="UTF-8" standalone="no"?>
<!DOCTYPE svg PUBLIC "-//W3C//DTD SVG 1.1//EN" "http://www.w3.org/Graphics/SVG/1.1/DTD/svg11.dtd">
<svg width="100%" height="100%" viewBox="0 0 512 512" version="1.1" xmlns="http://www.w3.org/2000/svg" xmlns:xlink="http://www.w3.org/1999/xlink" xml:space="preserve" xmlns:serif="http://www.serif.com/" style="fill-rule:evenodd;clip-rule:evenodd;stroke-linejoin:round;stroke-miterlimit:2;">
    <g id="BackwardIcon" transform="matrix(21.1588,0,0,20.9084,-8493.27,-70581.4)">
        <path d="M424.615,3394.88C424.366,3395.03 424.082,3395.02 423.834,3394.88L414.007,3389.04L414.007,3394.2C414.007,3394.49 413.865,3394.74 413.615,3394.88C413.366,3395.03 413.082,3395.02 412.834,3394.88L402.388,3388.67C402.142,3388.53 402.003,3388.28 402.003,3387.99C402.003,3387.7 402.142,3387.46 402.388,3387.31L412.834,3381.11C413.082,3380.96 413.366,3380.96 413.615,3381.11C413.865,3381.25 414.007,3381.5 414.007,3381.79L414.007,3386.94L423.834,3381.11C424.082,3380.96 424.366,3380.96 424.615,3381.11C424.865,3381.25 425.007,3381.5 425.007,3381.79L425.007,3394.2C425.007,3394.49 424.865,3394.74 424.615,3394.88Z" style="fill:white;"/>
    </g>
</svg>
