<?xml version="1.0" encoding="UTF-8" standalone="no"?>
<!DOCTYPE svg PUBLIC "-//W3C//DTD SVG 1.1//EN" "http://www.w3.org/Graphics/SVG/1.1/DTD/svg11.dtd">
<svg width="100%" height="100%" viewBox="0 0 512 512" version="1.1" xmlns="http://www.w3.org/2000/svg" xmlns:xlink="http://www.w3.org/1999/xlink" xml:space="preserve" xmlns:serif="http://www.serif.com/" style="fill-rule:evenodd;clip-rule:evenodd;stroke-linejoin:round;stroke-miterlimit:2;">
    <g id="BagIcon" transform="matrix(2.42842,0,0,2.95721,331.987,-16136.4)">
        <g transform="matrix(1.191,0,0,0.978031,-4471.66,154.652)">
            <path d="M3802.2,5518.15L3802.2,5571.05C3802.2,5580.58 3794.46,5588.32 3784.93,5588.32L3671.62,5588.32C3662.08,5588.32 3654.35,5580.58 3654.35,5571.05L3654.35,5518.15L3675.7,5518.15L3675.7,5530.2L3703.19,5530.2L3703.19,5518.15L3753.36,5518.15L3753.36,5530.2L3780.84,5530.2L3780.84,5518.15L3802.2,5518.15ZM3780.84,5549.09L3780.84,5553.01C3780.84,5560.6 3774.68,5566.75 3767.1,5566.75C3759.51,5566.75 3753.36,5560.6 3753.36,5553.01L3753.36,5549.09L3780.84,5549.09ZM3703.19,5549.09L3703.19,5553.01C3703.19,5560.6 3697.03,5566.75 3689.45,5566.75C3681.86,5566.75 3675.7,5560.6 3675.7,5553.01L3675.7,5549.09L3703.19,5549.09ZM3785.82,5545.43C3787.42,5545.43 3788.71,5544.13 3788.71,5542.54L3788.71,5536.76C3788.71,5535.16 3787.42,5533.87 3785.82,5533.87L3748.38,5533.87C3746.78,5533.87 3745.49,5535.16 3745.49,5536.76L3745.49,5542.54C3745.49,5544.13 3746.78,5545.43 3748.38,5545.43L3785.82,5545.43ZM3708.17,5545.43C3709.77,5545.43 3711.06,5544.13 3711.06,5542.54L3711.06,5536.76C3711.06,5535.16 3709.77,5533.87 3708.17,5533.87L3670.72,5533.87C3669.13,5533.87 3667.83,5535.16 3667.83,5536.76L3667.83,5542.54C3667.83,5544.13 3669.13,5545.43 3670.72,5545.43L3708.17,5545.43Z" style="fill:white;"/>
        </g>
        <g transform="matrix(1.191,0,0,0.978031,-4471.66,154.652)">
            <path d="M3675.7,5511.99L3666.96,5511.99C3662.98,5511.99 3659.17,5510.41 3656.35,5507.6C3654.68,5505.92 3652.77,5504.02 3651.1,5502.34C3648.28,5499.53 3646.7,5495.71 3646.7,5491.73C3646.7,5481.53 3646.7,5461.32 3646.7,5451.11C3646.7,5447.13 3648.28,5443.32 3651.1,5440.51C3652.77,5438.83 3654.68,5436.92 3656.35,5435.25C3659.17,5432.43 3662.98,5430.85 3666.96,5430.85C3689.53,5430.85 3767.02,5430.85 3789.59,5430.85C3793.56,5430.85 3797.38,5432.43 3800.19,5435.25C3801.87,5436.92 3803.78,5438.83 3805.45,5440.51C3808.26,5443.32 3809.84,5447.13 3809.84,5451.11C3809.84,5461.32 3809.84,5481.53 3809.84,5491.73C3809.84,5495.71 3808.26,5499.53 3805.45,5502.34C3803.78,5504.02 3801.87,5505.92 3800.19,5507.6C3797.38,5510.41 3793.56,5511.99 3789.59,5511.99L3780.84,5511.99L3780.84,5501.57C3780.84,5493.98 3774.68,5487.82 3767.1,5487.82C3759.51,5487.82 3753.36,5493.98 3753.36,5501.57L3753.36,5511.99L3703.19,5511.99L3703.19,5501.57C3703.19,5493.98 3697.03,5487.82 3689.45,5487.82C3681.86,5487.82 3675.7,5493.98 3675.7,5501.57L3675.7,5511.99ZM3767.1,5493.34C3770.17,5493.34 3772.67,5495.84 3772.67,5498.91C3772.67,5501.98 3770.17,5504.48 3767.1,5504.48C3764.03,5504.48 3761.53,5501.98 3761.53,5498.91C3761.53,5495.84 3764.03,5493.34 3767.1,5493.34ZM3689.45,5493.34C3692.52,5493.34 3695.01,5495.84 3695.01,5498.91C3695.01,5501.98 3692.52,5504.48 3689.45,5504.48C3686.37,5504.48 3683.88,5501.98 3683.88,5498.91C3683.88,5495.84 3686.37,5493.34 3689.45,5493.34Z" style="fill:white;"/>
        </g>
        <g transform="matrix(1.191,0,0,0.978031,-4471.31,154.199)">
            <circle cx="3767" cy="5499.32" r="5.795" style="fill:white;"/>
        </g>
        <g transform="matrix(1.191,0,0,0.978031,-4564.03,154.199)">
            <circle cx="3767" cy="5499.32" r="5.795" style="fill:white;"/>
        </g>
    </g>
</svg>
