<?xml version="1.0" encoding="UTF-8" standalone="no"?>
<!DOCTYPE svg PUBLIC "-//W3C//DTD SVG 1.1//EN" "http://www.w3.org/Graphics/SVG/1.1/DTD/svg11.dtd">
<svg width="100%" height="100%" viewBox="0 0 512 512" version="1.1" xmlns="http://www.w3.org/2000/svg" xmlns:xlink="http://www.w3.org/1999/xlink" xml:space="preserve" xmlns:serif="http://www.serif.com/" style="fill-rule:evenodd;clip-rule:evenodd;stroke-linejoin:round;stroke-miterlimit:2;">
    <g transform="matrix(0.346229,0,0,0.328231,29.133,13.5254)">
        <g id="BalloonsIcon" transform="matrix(17.9311,0,0,18.9143,-8299.98,-16087)">
            <g transform="matrix(1,0,0,1,24.904,10.4814)">
                <g transform="matrix(1,0,0,1,-49.9838,30.9339)">
                    <path d="M536.957,853.731C536.957,853.731 540.5,860.817 542.564,864.945C542.874,865.565 542.841,866.302 542.476,866.891C542.112,867.481 541.468,867.84 540.775,867.84C538.485,867.84 535.428,867.84 533.138,867.84C532.445,867.84 531.801,867.481 531.437,866.891C531.072,866.302 531.039,865.565 531.349,864.945C533.414,860.817 536.957,853.731 536.957,853.731Z" style="fill:white;"/>
                </g>
                <g transform="matrix(1,0,0,1,-24.904,-10.4814)">
                    <path d="M509.754,861.732C510.451,861.661 511.16,861.624 511.877,861.624C523.222,861.624 532.432,870.834 532.432,882.179C532.432,893.524 523.222,902.734 511.877,902.734C505.358,902.734 499.544,899.693 495.776,894.953C505.159,891.394 511.834,882.319 511.834,871.698C511.834,868.155 511.092,864.784 509.754,861.732Z" style="fill:white;"/>
                </g>
                <g transform="matrix(0.500859,0,0,0.500859,218.493,466.778)">
                    <path d="M533.475,862.006C532.885,864.115 531.757,866.251 531.062,868.366C530.456,870.207 530.147,872.04 530.403,873.832C530.666,875.671 531.768,877.425 533.168,879.128C533.923,880.047 534.759,880.964 535.437,881.935C535.898,882.594 536.302,883.266 536.397,884.023C536.606,885.687 536.122,887.577 535.547,889.536C534.842,891.934 533.951,894.406 533.439,896.732C533.123,898.167 534.031,899.588 535.466,899.905C536.9,900.221 538.322,899.313 538.638,897.878C539.232,895.183 540.365,892.289 541.065,889.554C541.627,887.362 541.918,885.251 541.68,883.359C541.372,880.91 539.793,878.732 538.076,876.696C537.045,875.473 535.861,874.388 535.674,873.078C535.485,871.761 535.944,870.427 536.463,869.07C537.179,867.195 538.081,865.304 538.602,863.439C538.998,862.024 538.17,860.555 536.755,860.159C535.34,859.763 533.87,860.591 533.475,862.006Z" style="fill:white;"/>
                </g>
            </g>
            <g>
                <g transform="matrix(1.21193,0,0,1.21193,-159.084,-143.309)">
                    <circle cx="533.08" cy="837.51" r="16.961" style="fill:white;"/>
                </g>
                <g transform="matrix(1,0,0,1,-49.9838,30.9339)">
                    <path d="M536.957,853.731C536.957,853.731 540.5,860.817 542.564,864.945C542.874,865.565 542.841,866.302 542.476,866.891C542.112,867.481 541.468,867.84 540.775,867.84C538.485,867.84 535.428,867.84 533.138,867.84C532.445,867.84 531.801,867.481 531.437,866.891C531.072,866.302 531.039,865.565 531.349,864.945C533.414,860.817 536.957,853.731 536.957,853.731Z" style="fill:white;"/>
                </g>
                <g transform="matrix(0.500859,0,0,0.500859,218.493,466.778)">
                    <path d="M533.475,862.006C532.885,864.115 531.757,866.251 531.062,868.366C530.456,870.207 530.147,872.04 530.403,873.832C530.666,875.671 531.768,877.425 533.168,879.128C533.923,880.047 534.759,880.964 535.437,881.935C535.898,882.594 536.302,883.266 536.397,884.023C536.606,885.687 536.122,887.577 535.547,889.536C534.842,891.934 533.951,894.406 533.439,896.732C533.123,898.167 534.031,899.588 535.466,899.905C536.9,900.221 538.322,899.313 538.638,897.878C539.232,895.183 540.365,892.289 541.065,889.554C541.627,887.362 541.918,885.251 541.68,883.359C541.372,880.91 539.793,878.732 538.076,876.696C537.045,875.473 535.861,874.388 535.674,873.078C535.485,871.761 535.944,870.427 536.463,869.07C537.179,867.195 538.081,865.304 538.602,863.439C538.998,862.024 538.17,860.555 536.755,860.159C535.34,859.763 533.87,860.591 533.475,862.006Z" style="fill:white;"/>
                </g>
            </g>
        </g>
    </g>
</svg>
