<?xml version="1.0" encoding="UTF-8" standalone="no"?>
<!DOCTYPE svg PUBLIC "-//W3C//DTD SVG 1.1//EN" "http://www.w3.org/Graphics/SVG/1.1/DTD/svg11.dtd">
<svg width="100%" height="100%" viewBox="0 0 512 512" version="1.1" xmlns="http://www.w3.org/2000/svg" xmlns:xlink="http://www.w3.org/1999/xlink" xml:space="preserve" xmlns:serif="http://www.serif.com/" style="fill-rule:evenodd;clip-rule:evenodd;stroke-linejoin:round;stroke-miterlimit:2;">
    <g transform="matrix(0.346229,0,0,0.328231,29.133,13.5254)">
        <g id="BalloonsOutlineIcon" transform="matrix(12.4146,0,0,13.0953,-7210.11,-11260.3)">
            <g>
                <path d="M648.549,875.565C649.589,875.457 650.643,875.402 651.709,875.402C668.504,875.402 682.139,889.038 682.139,905.833C682.139,919.875 672.606,931.708 659.666,935.209L661.253,938.384C661.992,939.861 661.913,941.616 661.045,943.021C660.176,944.426 658.642,945.282 656.99,945.282C653.824,945.282 649.594,945.282 646.428,945.282C644.776,945.282 643.242,944.426 642.373,943.021C641.505,941.616 641.426,939.861 642.165,938.384L643.752,935.209C637.27,933.456 631.643,929.611 627.64,924.445C628.951,923.974 630.227,923.431 631.465,922.818C635.363,927.458 640.824,930.74 647.035,931.85C647.656,931.961 648.188,932.358 648.471,932.922C648.754,933.485 648.754,934.149 648.472,934.713C648.472,934.713 645.742,940.173 645.742,940.173C645.624,940.41 645.636,940.692 645.776,940.918C645.916,941.144 646.162,941.282 646.428,941.282C649.594,941.282 653.824,941.282 656.99,941.282C657.256,941.282 657.503,941.144 657.642,940.918C657.782,940.692 657.794,940.41 657.676,940.173L654.946,934.713C654.664,934.149 654.664,933.485 654.947,932.922C655.23,932.358 655.762,931.961 656.383,931.85C668.745,929.641 678.139,918.825 678.139,905.833C678.139,891.245 666.296,879.402 651.709,879.402C651.142,879.402 650.578,879.42 650.02,879.456C649.603,878.124 649.111,876.826 648.549,875.565Z" style="fill:white;"/>
                <g transform="matrix(0.723418,0,0,0.723418,263.929,320.784)">
                    <path d="M533.475,862.006C532.885,864.115 531.757,866.251 531.062,868.366C530.456,870.207 530.147,872.04 530.403,873.832C530.666,875.671 531.768,877.425 533.168,879.128C533.923,880.047 534.759,880.964 535.437,881.935C535.898,882.594 536.302,883.266 536.397,884.023C536.606,885.687 536.122,887.577 535.547,889.536C534.842,891.934 533.951,894.406 533.439,896.732C533.123,898.167 534.031,899.588 535.466,899.905C536.9,900.221 538.322,899.313 538.638,897.878C539.232,895.183 540.365,892.289 541.065,889.554C541.627,887.362 541.918,885.251 541.68,883.359C541.372,880.91 539.793,878.732 538.076,876.696C537.045,875.473 535.861,874.388 535.674,873.078C535.485,871.761 535.944,870.427 536.463,869.07C537.179,867.195 538.081,865.304 538.602,863.439C538.998,862.024 538.17,860.555 536.755,860.159C535.34,859.763 533.87,860.591 533.475,862.006Z" style="fill:white;"/>
                </g>
            </g>
            <g transform="matrix(1.44436,0,0,1.44436,-87.9557,-368.078)">
                <g transform="matrix(0.662988,0,0,0.662988,78.9658,281.138)">
                    <path d="M607.097,921.642C593.584,917.986 583.629,905.629 583.629,890.964C583.629,873.426 597.868,859.186 615.407,859.186C632.945,859.186 647.184,873.426 647.184,890.964C647.184,905.629 637.229,917.986 623.716,921.642L625.374,924.957C626.145,926.5 626.063,928.333 625.156,929.8C624.249,931.267 622.647,932.16 620.922,932.16C617.615,932.16 613.198,932.16 609.891,932.16C608.166,932.16 606.564,931.267 605.658,929.8C604.751,928.333 604.668,926.5 605.44,924.957L607.097,921.642ZM612.026,921.124C612.321,920.535 612.32,919.842 612.025,919.253C611.73,918.665 611.174,918.25 610.526,918.134C597.616,915.827 587.806,904.532 587.806,890.964C587.806,875.731 600.173,863.364 615.407,863.364C630.64,863.364 643.007,875.731 643.007,890.964C643.007,904.532 633.197,915.827 620.288,918.134C619.639,918.25 619.084,918.665 618.788,919.253C618.493,919.842 618.493,920.535 618.787,921.124L621.638,926.825C621.762,927.073 621.748,927.368 621.603,927.604C621.457,927.84 621.199,927.983 620.922,927.983C617.615,927.983 613.198,927.983 609.891,927.983C609.614,927.983 609.357,927.84 609.211,927.604C609.065,927.368 609.052,927.073 609.176,926.825C609.176,926.825 612.026,921.124 612.026,921.124Z" style="fill:white;"/>
                </g>
                <g transform="matrix(0.500859,0,0,0.500859,218.493,466.778)">
                    <path d="M533.475,862.006C532.885,864.115 531.757,866.251 531.062,868.366C530.456,870.207 530.147,872.04 530.403,873.832C530.666,875.671 531.768,877.425 533.168,879.128C533.923,880.047 534.759,880.964 535.437,881.935C535.898,882.594 536.302,883.266 536.397,884.023C536.606,885.687 536.122,887.577 535.547,889.536C534.842,891.934 533.951,894.406 533.439,896.732C533.123,898.167 534.031,899.588 535.466,899.905C536.9,900.221 538.322,899.313 538.638,897.878C539.232,895.183 540.365,892.289 541.065,889.554C541.627,887.362 541.918,885.251 541.68,883.359C541.372,880.91 539.793,878.732 538.076,876.696C537.045,875.473 535.861,874.388 535.674,873.078C535.485,871.761 535.944,870.427 536.463,869.07C537.179,867.195 538.081,865.304 538.602,863.439C538.998,862.024 538.17,860.555 536.755,860.159C535.34,859.763 533.87,860.591 533.475,862.006Z" style="fill:white;"/>
                </g>
            </g>
        </g>
    </g>
</svg>
