<?xml version="1.0" encoding="UTF-8" standalone="no"?>
<!DOCTYPE svg PUBLIC "-//W3C//DTD SVG 1.1//EN" "http://www.w3.org/Graphics/SVG/1.1/DTD/svg11.dtd">
<svg width="100%" height="100%" viewBox="0 0 512 512" version="1.1" xmlns="http://www.w3.org/2000/svg" xmlns:xlink="http://www.w3.org/1999/xlink" xml:space="preserve" xmlns:serif="http://www.serif.com/" style="fill-rule:evenodd;clip-rule:evenodd;stroke-linejoin:round;stroke-miterlimit:2;">
    <g id="BatIcon" transform="matrix(4.55395,0,0,4.55395,-8641.08,-3935.05)">
        <g>
            <path d="M1953.71,904.033C1961.9,904.033 1968.56,913.271 1968.56,924.649C1968.56,936.028 1961.9,945.265 1953.71,945.265C1945.51,945.265 1938.85,936.028 1938.85,924.649C1938.85,913.271 1945.51,904.033 1953.71,904.033ZM1958.35,914.06C1960.01,914.06 1961.4,915.415 1961.45,917.085C1961.51,918.754 1960.2,920.11 1958.54,920.11C1956.87,920.11 1955.48,918.754 1955.43,917.085C1955.38,915.415 1956.69,914.06 1958.35,914.06ZM1948.88,914.06C1950.54,914.06 1951.93,915.415 1951.98,917.085C1952.03,918.754 1950.72,920.11 1949.06,920.11C1947.4,920.11 1946.01,918.754 1945.96,917.085C1945.91,915.415 1947.22,914.06 1948.88,914.06Z" style="fill:white;"/>
        </g>
        <g transform="matrix(-0.600201,-2.37124e-17,0.018534,0.613917,2138.72,-546.749)">
            <path d="M382.675,2365.84L364.941,2379.34C354.631,2371.47 349.425,2346.85 351.917,2345.19C354.409,2343.53 364.015,2364.29 382.675,2365.84Z" style="fill:white;"/>
        </g>
        <g transform="matrix(0.600201,2.37124e-17,0.018534,0.613917,1681.03,-546.454)">
            <path d="M382.675,2365.84L364.941,2379.34C354.631,2371.47 349.425,2346.85 351.917,2345.19C354.409,2343.53 364.015,2364.29 382.675,2365.84Z" style="fill:white;"/>
        </g>
        <g transform="matrix(-0.23461,0.147105,0.15312,0.267754,1673.38,219.856)">
            <path d="M411.523,2383.13C445.711,2370.03 450.704,2346.49 448.07,2324.66C470.658,2316.55 524.569,2324.93 555.769,2355.43C517.109,2346.55 496.634,2371.28 504.347,2390.46C488.38,2386.45 462.622,2398.95 457.073,2415.22C450.719,2403.75 432.046,2395.85 408.321,2401C400.549,2402.68 403.576,2386.17 411.523,2383.13Z" style="fill:white;"/>
        </g>
        <g transform="matrix(0.23461,0.147105,-0.15312,0.267754,2234.04,219.856)">
            <path d="M411.523,2383.13C445.711,2370.03 450.704,2346.49 448.07,2324.66C470.658,2316.55 524.569,2324.93 555.769,2355.43C517.109,2346.55 496.634,2371.28 504.347,2390.46C488.38,2386.45 462.622,2398.95 457.073,2415.22C450.719,2403.75 432.046,2395.85 408.321,2401C400.549,2402.68 403.576,2386.17 411.523,2383.13Z" style="fill:white;"/>
        </g>
        <g transform="matrix(1,0,0,1,0.390951,0)">
            <ellipse cx="1953.32" cy="913.729" rx="10.217" ry="3.08" style="fill:white;"/>
        </g>
        <g transform="matrix(1,0,0,1,1.02431,0)">
            <g transform="matrix(1,0,0,-1,-0.359066,1888.21)">
                <path d="M1949.25,940.928C1949.33,940.693 1949.56,940.538 1949.81,940.538C1950.06,940.538 1950.28,940.693 1950.37,940.928C1951.49,943.928 1953.88,950.354 1953.88,950.354L1945.73,950.354C1945.73,950.354 1948.13,943.928 1949.25,940.928Z" style="fill:white;"/>
            </g>
            <g transform="matrix(1,0,0,-1,6.10689,1888.21)">
                <path d="M1949.25,940.928C1949.33,940.693 1949.56,940.538 1949.81,940.538C1950.06,940.538 1950.28,940.693 1950.37,940.928C1951.49,943.928 1953.88,950.354 1953.88,950.354L1945.73,950.354C1945.73,950.354 1948.13,943.928 1949.25,940.928Z" style="fill:white;"/>
            </g>
        </g>
    </g>
</svg>
