<?xml version="1.0" encoding="UTF-8" standalone="no"?>
<!DOCTYPE svg PUBLIC "-//W3C//DTD SVG 1.1//EN" "http://www.w3.org/Graphics/SVG/1.1/DTD/svg11.dtd">
<svg width="100%" height="100%" viewBox="0 0 512 512" version="1.1" xmlns="http://www.w3.org/2000/svg" xmlns:xlink="http://www.w3.org/1999/xlink" xml:space="preserve" xmlns:serif="http://www.serif.com/" style="fill-rule:evenodd;clip-rule:evenodd;stroke-linejoin:round;stroke-miterlimit:2;">
    <g id="Bell" transform="matrix(3.1906,0,0,3.1906,559.282,550.229)">
        <g transform="matrix(1,0,0,1,-177.737,-224.365)">
            <circle cx="82.682" cy="186.937" r="18.143" style="fill:rgb(200,159,53);"/>
        </g>
        <g transform="matrix(1,0,0,1,-2.50689,0)">
            <path d="M-73.427,-146.029C-73.427,-156.582 -81.995,-165.149 -92.548,-165.149C-103.101,-165.149 -111.669,-156.582 -111.669,-146.029C-111.669,-146.029 -111.669,-113.978 -111.669,-113.978C-111.669,-103.425 -103.101,-94.858 -92.548,-94.858C-81.995,-94.858 -73.427,-103.425 -73.427,-113.978C-73.427,-113.978 -73.427,-146.029 -73.427,-146.029ZM-82.094,-146.029L-82.094,-113.978C-82.094,-108.208 -86.778,-103.524 -92.548,-103.524C-98.318,-103.524 -103.002,-108.208 -103.002,-113.978L-103.002,-146.029C-103.002,-151.799 -98.318,-156.483 -92.548,-156.483C-86.778,-156.483 -82.094,-151.799 -82.094,-146.029Z" style="fill:rgb(250,199,71);"/>
        </g>
        <g transform="matrix(1,0,0,1,-282.999,-255.657)">
            <path d="M147.828,197.161L147.828,152.218C147.828,130.077 165.803,112.102 187.944,112.102C210.085,112.102 228.06,130.077 228.06,152.218L228.06,197.161C234.045,198.701 238.474,204.139 238.474,210.603C238.474,218.263 232.255,224.482 224.595,224.482L151.293,224.482C143.633,224.482 137.414,218.263 137.414,210.603C137.414,204.139 141.843,198.701 147.828,197.161Z" style="fill:rgb(250,199,71);"/>
        </g>
        <g transform="matrix(0.888881,0,0,0.258913,-164.278,-105.879)">
            <path d="M128.406,174.637C128.406,166.977 126.595,160.758 124.364,160.758L31.389,160.758C29.158,160.758 27.346,166.977 27.346,174.637C27.346,182.297 29.158,188.516 31.389,188.516L124.364,188.516C126.595,188.516 128.406,182.297 128.406,174.637Z" style="fill:rgb(200,159,53);"/>
        </g>
        <g transform="matrix(0.65705,0,0,0.65705,-39.0378,-41.5364)">
            <circle cx="-110.28" cy="-110.045" r="18.471" style="fill:rgb(253,229,167);"/>
        </g>
    </g>
</svg>
