<?xml version="1.0" encoding="UTF-8" standalone="no"?>
<!DOCTYPE svg PUBLIC "-//W3C//DTD SVG 1.1//EN" "http://www.w3.org/Graphics/SVG/1.1/DTD/svg11.dtd">
<svg width="100%" height="100%" viewBox="0 0 512 512" version="1.1" xmlns="http://www.w3.org/2000/svg" xmlns:xlink="http://www.w3.org/1999/xlink" xml:space="preserve" xmlns:serif="http://www.serif.com/" style="fill-rule:evenodd;clip-rule:evenodd;stroke-linejoin:round;stroke-miterlimit:2;">
    <g id="BlenderIcon" transform="matrix(3.54426,0,0,3.36345,-17559,-5626.29)">
        <g transform="matrix(1.82413,0,0,1.92219,-12284.5,-4636.39)">
            <path d="M9489.29,3309.47L9500.66,3289.76C9502.43,3286.7 9506.35,3285.65 9509.41,3287.42C9512.47,3289.18 9513.51,3293.1 9511.75,3296.16L9504.07,3309.47L9489.29,3309.47Z" style="fill:white;"/>
        </g>
        <g transform="matrix(1.82413,0,0,1.92219,-12284.5,-4636.39)">
            <path d="M9523.69,3324.62C9521.51,3334.92 9514.75,3343.54 9505.65,3348.24L9505.65,3354C9505.65,3355.77 9504.22,3357.2 9502.45,3357.2L9475.85,3357.2C9474.09,3357.2 9472.66,3355.77 9472.66,3354L9472.66,3347.57C9464.18,3342.74 9457.93,3334.44 9455.85,3324.62L9523.69,3324.62Z" style="fill:white;"/>
        </g>
        <g transform="matrix(1.82413,0,0,1.92219,3683.47,-5124.78)">
            <path d="M773.031,3570.17C773.031,3569.34 772.357,3568.67 771.528,3568.67L700.935,3568.67C700.106,3568.67 699.432,3569.34 699.432,3570.17L699.432,3573.18C699.432,3574.01 700.106,3574.68 700.935,3574.68L771.528,3574.68C772.357,3574.68 773.031,3574.01 773.031,3573.18L773.031,3570.17Z" style="fill:white;"/>
        </g>
    </g>
</svg>
