<?xml version="1.0" encoding="UTF-8" standalone="no"?>
<!DOCTYPE svg PUBLIC "-//W3C//DTD SVG 1.1//EN" "http://www.w3.org/Graphics/SVG/1.1/DTD/svg11.dtd">
<svg width="100%" height="100%" viewBox="0 0 512 512" version="1.1" xmlns="http://www.w3.org/2000/svg" xmlns:xlink="http://www.w3.org/1999/xlink" xml:space="preserve" xmlns:serif="http://www.serif.com/" style="fill-rule:evenodd;clip-rule:evenodd;stroke-linejoin:round;stroke-miterlimit:2;">
    <g id="BodyIcon" transform="matrix(7.76216,0,0,7.76216,-4473.75,-1202.58)">
        <path d="M634.538,172.588C636.207,172.588 637.562,173.944 637.562,175.613C637.562,177.282 636.207,178.638 634.538,178.638L619.047,178.638L619.047,216.071C619.047,217.966 617.508,219.505 615.613,219.505C613.717,219.505 612.178,217.966 612.178,216.071L612.178,200.499L606.491,200.499L606.491,216.071C606.491,217.966 604.952,219.505 603.057,219.505C601.161,219.505 599.622,217.966 599.622,216.071L599.622,178.638L584.132,178.638C582.462,178.638 581.107,177.282 581.107,175.613C581.107,173.944 582.462,172.588 584.132,172.588L634.538,172.588ZM609.335,156.312C613.114,156.312 616.183,159.345 616.183,163.08C616.183,166.815 613.114,169.847 609.335,169.847C605.555,169.847 602.486,166.815 602.486,163.08C602.486,159.345 605.555,156.312 609.335,156.312Z" style="fill:white;"/>
    </g>
</svg>
