<?xml version="1.0" encoding="UTF-8" standalone="no"?>
<!DOCTYPE svg PUBLIC "-//W3C//DTD SVG 1.1//EN" "http://www.w3.org/Graphics/SVG/1.1/DTD/svg11.dtd">
<svg width="100%" height="100%" viewBox="0 0 512 512" version="1.1" xmlns="http://www.w3.org/2000/svg" xmlns:xlink="http://www.w3.org/1999/xlink" xml:space="preserve" xmlns:serif="http://www.serif.com/" style="fill-rule:evenodd;clip-rule:evenodd;stroke-linejoin:round;stroke-miterlimit:2;">
    <g id="BombParachuteIcon" transform="matrix(10.1939,0,0,10.1939,-18709.5,-10265.7)">
        <g>
            <path d="M1861.12,1008.74L1861.12,1025.63C1864.25,1025.13 1867.27,1025.15 1870.18,1025.79C1869.06,1019.34 1866.34,1013.22 1861.12,1008.74Z" style="fill:white;"/>
            <g transform="matrix(-1,0,0,1,3720.75,0)">
                <path d="M1861.12,1008.74L1861.12,1025.63C1864.25,1025.13 1867.27,1025.15 1870.18,1025.79C1869.06,1019.34 1866.34,1013.22 1861.12,1008.74Z" style="fill:white;"/>
            </g>
            <g transform="matrix(1,0,0,1,0.188844,0)">
                <path d="M1864.08,1009.24C1871.59,1012.67 1877.82,1017.64 1880.38,1025.66C1877.77,1024.89 1875.01,1024.64 1871.92,1025.66C1870.98,1019.88 1869.02,1014.1 1864.08,1009.24Z" style="fill:white;"/>
            </g>
            <g transform="matrix(-1,0,0,1,3720.75,0)">
                <path d="M1864.08,1009.24C1871.59,1012.67 1877.82,1017.64 1880.38,1025.66C1877.77,1024.89 1875.01,1024.64 1871.92,1025.66C1870.98,1019.88 1869.02,1014.1 1864.08,1009.24Z" style="fill:white;"/>
            </g>
        </g>
        <g transform="matrix(1,0,0,1,-0.260619,0)">
            <g transform="matrix(0.819075,-0.573686,0.725456,1.03576,-424.667,1017.97)">
                <path d="M1851.21,1035.23C1851.21,1034.99 1850.96,1034.79 1850.65,1034.79C1850.35,1034.79 1850.1,1034.99 1850.1,1035.23L1850.1,1060.24C1850.1,1060.48 1850.35,1060.68 1850.65,1060.68C1850.96,1060.68 1851.21,1060.48 1851.21,1060.24L1851.21,1035.23Z" style="fill:white;"/>
            </g>
            <g transform="matrix(-0.819075,-0.573686,-0.725456,1.03576,4146.13,1018.09)">
                <path d="M1851.21,1035.23C1851.21,1034.99 1850.96,1034.79 1850.65,1034.79C1850.35,1034.79 1850.1,1034.99 1850.1,1035.23L1850.1,1060.24C1850.1,1060.48 1850.35,1060.68 1850.65,1060.68C1850.96,1060.68 1851.21,1060.48 1851.21,1060.24L1851.21,1035.23Z" style="fill:white;"/>
            </g>
            <g transform="matrix(-0.939273,-0.343172,-0.369256,1.01067,3990.53,617.573)">
                <path d="M1851.21,1035.31C1851.21,1035.03 1850.96,1034.79 1850.65,1034.79C1850.35,1034.79 1850.1,1035.03 1850.1,1035.31L1850.1,1060.16C1850.1,1060.45 1850.35,1060.68 1850.65,1060.68C1850.96,1060.68 1851.21,1060.45 1851.21,1060.16L1851.21,1035.31Z" style="fill:white;"/>
            </g>
            <g transform="matrix(0.939273,-0.343172,0.369256,1.01067,-269.15,617.616)">
                <path d="M1851.21,1035.31C1851.21,1035.03 1850.96,1034.79 1850.65,1034.79C1850.35,1034.79 1850.1,1035.03 1850.1,1035.31L1850.1,1060.16C1850.1,1060.45 1850.35,1060.68 1850.65,1060.68C1850.96,1060.68 1851.21,1060.45 1851.21,1060.16L1851.21,1035.31Z" style="fill:white;"/>
            </g>
            <g transform="matrix(1,0,0,1.038,10.2471,-45.8384)">
                <path d="M1851.21,1035.33C1851.21,1035.03 1850.96,1034.79 1850.65,1034.79C1850.35,1034.79 1850.1,1035.03 1850.1,1035.33L1850.1,1060.14C1850.1,1060.44 1850.35,1060.68 1850.65,1060.68C1850.96,1060.68 1851.21,1060.44 1851.21,1060.14L1851.21,1035.33Z" style="fill:white;"/>
            </g>
        </g>
        <g transform="matrix(0.712326,0,0,0.712326,1279.51,787.444)">
            <path d="M822.912,368.9L822.922,368.901L822.932,368.901L822.941,368.902L822.95,368.903L822.96,368.905L822.969,368.906L822.978,368.908L822.987,368.91L822.996,368.912L823.005,368.914L823.014,368.917L823.023,368.92L823.032,368.923L823.04,368.926L823.049,368.93L823.057,368.933L823.065,368.937L823.073,368.941L823.089,368.95L823.105,368.959L823.12,368.969L823.134,368.98L823.148,368.992L823.161,369.004L823.174,369.017L823.186,369.03L823.198,369.044L823.209,369.058L823.219,369.073L823.228,369.089L823.237,369.105L823.241,369.113L823.245,369.121L823.248,369.129L823.252,369.138L823.255,369.146L823.258,369.155L823.261,369.164L823.264,369.173L823.266,369.182L823.268,369.191L823.27,369.2L823.272,369.209L823.273,369.218L823.275,369.228L823.276,369.237L823.277,369.246L823.277,369.256L823.278,369.266L823.278,369.275L823.278,376.027L823.278,376.037L823.277,376.047L823.277,376.056L823.276,376.066L823.275,376.075L823.273,376.084L823.272,376.094L823.27,376.103L823.268,376.112L823.266,376.121L823.264,376.13L823.261,376.139L823.258,376.148L823.255,376.156L823.252,376.165L823.248,376.173L823.245,376.182L823.241,376.19L823.237,376.198L823.232,376.206L823.228,376.214L823.223,376.222L823.219,376.23L823.214,376.237L823.209,376.244L823.203,376.252L823.198,376.259L823.192,376.266L823.186,376.273L823.18,376.28L823.174,376.286L823.168,376.293L823.161,376.299L823.155,376.305L823.148,376.311L823.141,376.317L823.134,376.322L823.127,376.328L823.12,376.333L823.112,376.338L823.105,376.343L823.097,376.348L823.089,376.353L823.081,376.357L823.073,376.361L823.065,376.365L823.057,376.369L823.049,376.373L823.04,376.376L823.032,376.38L823.023,376.383L823.014,376.386L823.005,376.388L822.996,376.391L822.987,376.393L822.978,376.395L822.969,376.397L822.96,376.398L822.95,376.399L822.941,376.401L822.932,376.401L822.922,376.402L822.912,376.402L822.903,376.402L808.271,376.402L808.261,376.402L808.252,376.402L808.242,376.401L808.233,376.401L808.223,376.399L808.214,376.398L808.205,376.397L808.196,376.395L808.186,376.393L808.177,376.391L808.168,376.388L808.16,376.386L808.151,376.383L808.142,376.38L808.134,376.376L808.125,376.373L808.117,376.369L808.109,376.365L808.1,376.361L808.092,376.357L808.084,376.353L808.077,376.348L808.069,376.343L808.061,376.338L808.054,376.333L808.047,376.328L808.04,376.322L808.033,376.317L808.026,376.311L808.019,376.305L808.012,376.299L808.006,376.293L808,376.286L807.994,376.28L807.988,376.273L807.982,376.266L807.976,376.259L807.971,376.252L807.965,376.244L807.96,376.237L807.955,376.23L807.95,376.222L807.946,376.214L807.941,376.206L807.937,376.198L807.933,376.19L807.929,376.182L807.926,376.173L807.922,376.165L807.919,376.156L807.916,376.148L807.913,376.139L807.91,376.13L807.908,376.121L807.906,376.112L807.904,376.103L807.902,376.094L807.9,376.084L807.899,376.075L807.898,376.066L807.897,376.056L807.896,376.047L807.896,376.037L807.896,376.027L807.896,369.275L807.896,369.266L807.896,369.256L807.897,369.246L807.898,369.237L807.899,369.228L807.9,369.218L807.902,369.209L807.904,369.2L807.906,369.191L807.908,369.182L807.91,369.173L807.913,369.164L807.916,369.155L807.919,369.146L807.922,369.138L807.926,369.129L807.929,369.121L807.933,369.113L807.937,369.105L807.941,369.097L807.946,369.089L807.95,369.081L807.955,369.073L807.96,369.066L807.965,369.058L807.971,369.051L807.976,369.044L807.982,369.037L807.988,369.03L807.994,369.023L808,369.017L808.006,369.01L808.012,369.004L808.019,368.998L808.026,368.992L808.033,368.986L808.04,368.98L808.047,368.975L808.054,368.969L808.061,368.964L808.069,368.959L808.077,368.955L808.084,368.95L808.092,368.945L808.1,368.941L808.109,368.937L808.117,368.933L808.125,368.93L808.134,368.926L808.142,368.923L808.151,368.92L808.16,368.917L808.168,368.914L808.177,368.912L808.186,368.91L808.196,368.908L808.205,368.906L808.214,368.905L808.223,368.903L808.233,368.902L808.242,368.901L808.252,368.901L808.261,368.9L808.271,368.9L822.903,368.9L822.912,368.9Z" style="fill:white;"/>
        </g>
    </g>
</svg>
