<?xml version="1.0" encoding="UTF-8" standalone="no"?>
<!DOCTYPE svg PUBLIC "-//W3C//DTD SVG 1.1//EN" "http://www.w3.org/Graphics/SVG/1.1/DTD/svg11.dtd">
<svg width="100%" height="100%" viewBox="0 0 512 512" version="1.1" xmlns="http://www.w3.org/2000/svg" xmlns:xlink="http://www.w3.org/1999/xlink" xml:space="preserve" xmlns:serif="http://www.serif.com/" style="fill-rule:evenodd;clip-rule:evenodd;stroke-linejoin:round;stroke-miterlimit:2;">
    <g id="BombExplosionIcon" transform="matrix(6.99435,0,0,6.99435,-6951.29,-2152.54)">
        <g transform="matrix(1.14706,0,0,1.14706,-906.464,-1073.97)">
            <path d="M1683.7,1209.9C1684.87,1207.67 1687.21,1206.14 1689.9,1206.14C1692.61,1206.14 1694.96,1207.68 1696.12,1209.94C1697.13,1209.42 1698.28,1209.12 1699.5,1209.12C1703.57,1209.12 1706.88,1212.43 1706.88,1216.5C1706.88,1217.95 1706.46,1219.3 1705.74,1220.44C1708.2,1222.16 1709.81,1225.02 1709.81,1228.25C1709.81,1233.5 1705.55,1237.77 1700.3,1237.77C1698.44,1237.77 1696.7,1237.23 1695.24,1236.31C1694.04,1238.78 1691.51,1240.48 1688.59,1240.48C1685.66,1240.48 1683.13,1238.78 1681.94,1236.31C1680.48,1237.23 1678.74,1237.77 1676.88,1237.77C1671.63,1237.77 1667.37,1233.5 1667.37,1228.25C1667.37,1224.74 1669.27,1221.66 1672.11,1220.02C1671.72,1219.07 1671.51,1218.04 1671.51,1216.96C1671.51,1212.46 1675.16,1208.82 1679.65,1208.82C1681.13,1208.82 1682.51,1209.21 1683.7,1209.9ZM1692.58,1233.51C1693.48,1233.59 1693.01,1235.27 1692.06,1236.37C1690.75,1237.89 1688.63,1238.59 1686.67,1238.02C1686.03,1237.79 1686.18,1236.62 1687.23,1236.85C1689.25,1237.26 1691.32,1235.97 1691.94,1233.94C1692.08,1233.57 1692.16,1233.5 1692.58,1233.51ZM1706.36,1226.34C1708.1,1226.51 1707.01,1232.2 1703.21,1233.25C1702.7,1233.38 1702.65,1233.2 1702.52,1233C1702.07,1232.34 1703.39,1231.99 1704.22,1231.38C1705.54,1230.4 1705.86,1228.64 1705.68,1227.02C1705.66,1226.65 1705.95,1226.32 1706.36,1226.34ZM1673.65,1223.65C1674.34,1223.7 1674.35,1224.45 1673.45,1225.18C1671.95,1226.38 1671.59,1228.59 1672.51,1230.33C1672.68,1230.72 1672.55,1230.84 1672.46,1230.98C1672.16,1231.39 1671.56,1231.31 1671.2,1230.57C1670.06,1228.19 1670.98,1224.83 1673.38,1223.71C1673.47,1223.67 1673.56,1223.65 1673.65,1223.65ZM1687.55,1222.7C1688.34,1222.76 1688.29,1223.88 1687.11,1223.99C1685.14,1224.21 1683.59,1225.95 1683.52,1228C1683.46,1228.72 1682.16,1228.98 1682.27,1227.56C1682.47,1224.95 1684.83,1222.64 1687.55,1222.7ZM1691.49,1217.45C1694.18,1217.5 1696.61,1219.86 1696.68,1222.58C1696.7,1223.44 1695.52,1223.69 1695.39,1222.3C1695.17,1220.33 1693.43,1218.78 1691.38,1218.71C1690.71,1218.66 1690.48,1217.44 1691.49,1217.45ZM1679.82,1211.74C1680.58,1211.79 1680.61,1212.91 1679.38,1213.02C1677.41,1213.25 1675.86,1214.99 1675.79,1217.04C1675.73,1217.76 1674.44,1218.01 1674.54,1216.6C1674.74,1214.04 1677.04,1211.82 1679.66,1211.74C1679.71,1211.74 1679.77,1211.74 1679.82,1211.74ZM1699.02,1211.93C1701.36,1212 1703.77,1213.71 1704.04,1215.94C1704.08,1216.59 1703.06,1216.98 1702.74,1215.97C1702.1,1214.08 1700.05,1212.84 1698.05,1213.3C1697.21,1213.49 1696.58,1212.31 1697.84,1212.05C1698.21,1211.97 1698.33,1211.93 1699.02,1211.93ZM1690.61,1208.57C1691.39,1208.6 1692.18,1208.71 1692.25,1209.27C1692.31,1209.73 1691.88,1210.06 1691.26,1209.92C1689.24,1209.52 1687.18,1210.8 1686.55,1212.83C1686.47,1213.06 1686.4,1213.1 1686.27,1213.18C1685.79,1213.46 1685.12,1213.04 1685.46,1212.08C1686.17,1210.06 1688.17,1208.62 1690.35,1208.57C1690.48,1208.57 1690.48,1208.57 1690.61,1208.57Z" style="fill:white;"/>
        </g>
        <g transform="matrix(1,0,0,1,0.303021,0)">
            <g transform="matrix(-1.35602,-0.363344,-0.248536,0.927548,3808.99,60.0146)">
                <path d="M1851.21,1035.6C1851.21,1035.16 1850.96,1034.79 1850.65,1034.79C1850.35,1034.79 1850.1,1035.16 1850.1,1035.6C1850.1,1035.6 1850.35,1060.68 1850.65,1060.68C1850.96,1060.68 1851.21,1035.6 1851.21,1035.6Z" style="fill:white;"/>
            </g>
            <g transform="matrix(-1.39004,-0.196453,-0.134378,0.950819,3748.01,-269.568)">
                <path d="M1851.21,1035.6C1851.21,1035.16 1850.96,1034.79 1850.65,1034.79C1850.35,1034.79 1850.1,1035.16 1850.1,1035.6C1850.1,1035.6 1850.35,1060.68 1850.65,1060.68C1850.96,1060.68 1851.21,1035.6 1851.21,1035.6Z" style="fill:white;"/>
            </g>
            <g transform="matrix(1.35602,-0.363344,0.248536,0.927548,-1748.94,60.0146)">
                <path d="M1851.21,1035.6C1851.21,1035.16 1850.96,1034.79 1850.65,1034.79C1850.35,1034.79 1850.1,1035.16 1850.1,1035.6C1850.1,1035.6 1850.35,1060.68 1850.65,1060.68C1850.96,1060.68 1851.21,1035.6 1851.21,1035.6Z" style="fill:white;"/>
            </g>
            <g transform="matrix(1.39004,-0.196453,0.134378,0.950819,-1687.32,-269.568)">
                <path d="M1851.21,1035.6C1851.21,1035.16 1850.96,1034.79 1850.65,1034.79C1850.35,1034.79 1850.1,1035.16 1850.1,1035.6C1850.1,1035.6 1850.35,1060.68 1850.65,1060.68C1850.96,1060.68 1851.21,1035.6 1851.21,1035.6Z" style="fill:white;"/>
            </g>
            <g transform="matrix(1.40385,0,0,0.960268,-1567.58,-639.369)">
                <path d="M1851.21,1033.83C1851.21,1033.38 1850.96,1033.02 1850.65,1033.02C1850.35,1033.02 1850.1,1033.38 1850.1,1033.83C1850.1,1033.83 1850.35,1060.68 1850.65,1060.68C1850.96,1060.68 1851.21,1033.83 1851.21,1033.83Z" style="fill:white;"/>
            </g>
        </g>
    </g>
</svg>
