<?xml version="1.0" encoding="UTF-8" standalone="no"?>
<!DOCTYPE svg PUBLIC "-//W3C//DTD SVG 1.1//EN" "http://www.w3.org/Graphics/SVG/1.1/DTD/svg11.dtd">
<svg width="100%" height="100%" viewBox="0 0 512 512" version="1.1" xmlns="http://www.w3.org/2000/svg" xmlns:xlink="http://www.w3.org/1999/xlink" xml:space="preserve" xmlns:serif="http://www.serif.com/" style="fill-rule:evenodd;clip-rule:evenodd;stroke-linejoin:round;stroke-miterlimit:2;">
    <g id="BombIcon" transform="matrix(6.50423,0,0,6.50423,-4375.64,-3526.27)">
        <path d="M732.942,574.513C734.245,572.759 737.292,568.126 735.623,565.133C732.759,560 727.738,561.465 722.645,563.354C717.553,565.242 713.673,566.48 707.9,565.411C704.846,564.845 701.745,563.253 700.828,562.529C700.202,562.122 699.957,561.312 700.283,560.622C700.641,559.864 701.555,559.537 702.322,559.891L703.645,560.502C703.692,560.524 703.736,560.547 703.779,560.572C705.038,561.089 707.037,562.256 711.797,562.383C717.368,562.531 721.208,559.38 727.864,558.213C732.541,557.393 738.957,560.11 739.618,566.918C739.999,570.844 737.105,575.176 735.442,576.983L738.059,579.57C738.53,580.035 738.53,580.79 738.059,581.254L734.697,584.577C739.487,593.328 738.142,604.501 730.661,611.893C721.541,620.905 706.732,620.905 697.611,611.893C688.491,602.88 688.491,588.246 697.611,579.234C705.091,571.842 716.398,570.513 725.255,575.246L728.616,571.923C729.087,571.459 729.851,571.458 730.321,571.923L732.942,574.513ZM696.615,591.905C696.908,588.372 700.196,582.815 705.005,579.692C708.993,577.101 714.269,576.485 717.562,577.374C719.596,577.923 719.411,580.388 717.352,580.153C715.64,579.958 710.223,579.829 706.32,582.549C701.247,586.084 700.349,590.536 699.654,592.537C698.982,594.475 696.443,593.982 696.615,591.905ZM692.316,574.803C691.804,575.679 692.104,576.8 692.986,577.303C693.868,577.806 695,577.503 695.512,576.626L699.378,570.009C699.891,569.132 699.591,568.012 698.709,567.509C697.827,567.006 696.695,567.309 696.183,568.186L692.316,574.803ZM685.892,564.145C684.918,564.403 684.342,565.401 684.605,566.373C684.869,567.345 685.873,567.925 686.847,567.667L694.374,565.674C695.347,565.417 695.924,564.418 695.66,563.446C695.397,562.474 694.392,561.894 693.419,562.152L685.892,564.145ZM688.879,552.093C688.003,551.592 686.878,551.894 686.368,552.765C685.859,553.637 686.158,554.75 687.034,555.251L693.769,559.093C694.646,559.593 695.771,559.291 696.28,558.42C696.789,557.548 696.491,556.435 695.614,555.935L688.879,552.093ZM711.67,548.791C712.183,547.914 711.882,546.794 711.001,546.291C710.119,545.787 708.987,546.091 708.475,546.967L704.608,553.585C704.096,554.461 704.396,555.582 705.278,556.085C706.16,556.588 707.292,556.285 707.804,555.408L711.67,548.791ZM699.683,545.735C699.417,544.753 698.402,544.167 697.418,544.428C696.435,544.688 695.852,545.697 696.118,546.679L698.116,554.044C698.382,555.026 699.397,555.612 700.38,555.352C701.364,555.091 701.946,554.083 701.68,553.101L699.683,545.735Z" style="fill:white;"/>
    </g>
</svg>
