<?xml version="1.0" encoding="UTF-8" standalone="no"?>
<!DOCTYPE svg PUBLIC "-//W3C//DTD SVG 1.1//EN" "http://www.w3.org/Graphics/SVG/1.1/DTD/svg11.dtd">
<svg width="100%" height="100%" viewBox="0 0 512 512" version="1.1" xmlns="http://www.w3.org/2000/svg" xmlns:xlink="http://www.w3.org/1999/xlink" xml:space="preserve" xmlns:serif="http://www.serif.com/" style="fill-rule:evenodd;clip-rule:evenodd;stroke-linejoin:round;stroke-miterlimit:2;">
    <g transform="matrix(3.66712,0,0,3.66712,-36472.3,-9752.07)">
        <g id="BookIcon">
            <path d="M10059.5,2794.93L9982.31,2794.93C9971.82,2794.93 9963.31,2786.42 9963.31,2775.93L9963.31,2682.18C9963.31,2671.79 9971.75,2663.35 9982.14,2663.35L10048.6,2663.35C10054,2663.35 10058.3,2667.68 10058.3,2673.01L10058.3,2691.37L10059.5,2691.37C10064.1,2691.37 10067.8,2695.08 10067.8,2699.65L10067.8,2786.65C10067.8,2791.22 10064.1,2794.93 10059.5,2794.93ZM10011,2742.22C10012.7,2742.45 10013.9,2737.24 10018.3,2740.14C10023.7,2743.75 10016.1,2754.61 10004.6,2749.53C9993.1,2744.46 9998.28,2730.46 10003.8,2725.29C10009.2,2720.25 10026.3,2716.59 10034.3,2729.37C10041.4,2740.93 10034.8,2759.98 10022.1,2763.85C10009.4,2767.72 9999.41,2764.76 10001.7,2760.72C10004,2756.68 10018.9,2763.81 10026.4,2747.64C10030,2739.93 10029.3,2729.15 10017.1,2728.46C10007.9,2727.93 10001.9,2741.03 10011,2742.22ZM10048.7,2671.99C10048.7,2671.96 10048.7,2671.92 10048.7,2671.9C10048.7,2671.87 10048.6,2671.86 10048.6,2671.86L9981.78,2671.86C9976.4,2671.86 9972.04,2676.22 9972.04,2681.59C9972.04,2686.97 9976.4,2691.33 9981.78,2691.33L10048.7,2691.33C10048.7,2691.33 10048.7,2673.72 10048.7,2671.99Z" style="fill:white;"/>
        </g>
    </g>
</svg>
