<?xml version="1.0" encoding="UTF-8" standalone="no"?>
<!DOCTYPE svg PUBLIC "-//W3C//DTD SVG 1.1//EN" "http://www.w3.org/Graphics/SVG/1.1/DTD/svg11.dtd">
<svg width="100%" height="100%" viewBox="0 0 512 512" version="1.1" xmlns="http://www.w3.org/2000/svg" xmlns:xlink="http://www.w3.org/1999/xlink" xml:space="preserve" xmlns:serif="http://www.serif.com/" style="fill-rule:evenodd;clip-rule:evenodd;stroke-linejoin:round;stroke-miterlimit:2;">
    <g id="Book-2" serif:id="Book 2" transform="matrix(2.4969,0,0,2.4969,-36.8627,-15.9062)">
        <g transform="matrix(0.837117,0,0,0.884098,6.31603,1.20099)">
            <path d="M208.289,30.814C208.289,19.526 198.611,10.362 186.689,10.362L60.376,10.362C48.455,10.362 38.777,19.526 38.777,30.814L38.777,214.259C38.777,225.547 48.455,234.711 60.376,234.711L191.338,234.711C200.694,234.711 208.289,227.519 208.289,218.66L208.289,30.814Z" style="fill:rgb(205,132,43);"/>
        </g>
        <g transform="matrix(0.837117,0,0,0.158425,6.4233,7.44515)">
            <path d="M208.289,32.797C208.289,20.415 206.387,10.362 204.043,10.362L60.006,10.362C48.289,10.362 38.777,60.626 38.777,122.536C38.777,184.447 48.289,234.711 60.006,234.711L208.289,234.711L208.289,32.797Z" style="fill:rgb(205,132,43);"/>
        </g>
        <g transform="matrix(1.20467,0,0,0.996244,-40.0747,0.582452)">
            <path d="M195.805,45.951C195.805,40.8 192.347,36.619 188.087,36.619L95.448,36.619L95.448,208.911L188.087,208.911C192.347,208.911 195.805,204.729 195.805,199.578L195.805,45.951Z" style="fill:rgb(253,192,80);"/>
        </g>
        <g transform="matrix(0.516913,0,0,0.803486,32.4582,6.27571)">
            <rect x="62.288" y="37.986" width="20.887" height="213.904" style="fill:rgb(255,169,77);"/>
        </g>
        <g transform="matrix(0.725736,0,0,0.0907154,20.4614,15.742)">
            <path d="M208.289,10.362L52.798,10.362C45.059,10.362 38.777,60.626 38.777,122.536C38.777,184.447 45.059,234.711 52.798,234.711L208.289,234.711L208.289,10.362Z" style="fill:white;"/>
        </g>
        <g transform="matrix(0.800994,0,0,0.800994,14.7634,6.37037)">
            <path d="M187.58,19.181C187.58,18.066 186.674,17.161 185.56,17.161L56.846,17.161C55.731,17.161 54.826,18.066 54.826,19.181C54.826,20.296 55.731,21.201 56.846,21.201L185.56,21.201C186.674,21.201 187.58,20.296 187.58,19.181Z" style="fill:rgb(233,236,239);"/>
        </g>
        <g transform="matrix(0.800994,0,0,0.800994,14.7634,14.0701)">
            <path d="M187.58,19.181C187.58,18.066 186.674,17.161 185.56,17.161L56.846,17.161C55.731,17.161 54.826,18.066 54.826,19.181C54.826,20.296 55.731,21.201 56.846,21.201L185.56,21.201C186.674,21.201 187.58,20.296 187.58,19.181Z" style="fill:rgb(233,236,239);"/>
        </g>
        <g transform="matrix(1,0,0,1,0,16.4747)">
            <g transform="matrix(0.965565,0,0,0.592432,37.6891,110.432)">
                <path d="M144.86,50.229C144.86,46.517 143.012,43.504 140.734,43.504L61.567,43.504C59.29,43.504 57.441,46.517 57.441,50.229C57.441,53.94 59.29,56.954 61.567,56.954L140.734,56.954C143.012,56.954 144.86,53.94 144.86,50.229Z" style="fill:rgb(214,140,66);"/>
            </g>
            <g transform="matrix(0.716702,0,0,0.592432,62.8618,132.013)">
                <path d="M144.86,50.229C144.86,46.517 142.37,43.504 139.302,43.504L63,43.504C59.932,43.504 57.441,46.517 57.441,50.229C57.441,53.94 59.932,56.954 63,56.954L139.302,56.954C142.37,56.954 144.86,53.94 144.86,50.229Z" style="fill:rgb(214,140,66);"/>
            </g>
            <g transform="matrix(1,0,0,1,0,-6.60283)">
                <g transform="matrix(0.65141,0,0,0.65141,43.5933,42.2976)">
                    <path d="M168.86,59.37C170.334,62.59 172.465,67.236 174.473,71.614C178.16,79.654 180.069,88.395 180.069,97.241C180.069,101.614 180.069,106.211 180.069,109.603C180.069,111.048 179.495,112.433 178.473,113.455C177.452,114.476 176.066,115.05 174.622,115.05L107.116,115.05C105.671,115.05 104.286,114.476 103.264,113.455C102.243,112.433 101.669,111.048 101.669,109.603C101.669,106.179 101.669,101.594 101.669,97.241C101.669,88.395 103.577,79.654 107.264,71.614C109.273,67.236 111.403,62.59 112.877,59.37C113.232,58.596 114.005,58.099 114.857,58.099C115.709,58.099 116.482,58.596 116.836,59.37C120.476,67.319 127.863,83.449 127.863,83.449C127.863,83.449 135.249,59.819 138.889,51.871C139.244,51.096 140.017,50.6 140.869,50.6C141.72,50.6 142.494,51.096 142.848,51.871C146.488,59.819 153.875,83.449 153.875,83.449C153.875,83.449 161.261,67.319 164.901,59.37C165.256,58.596 166.029,58.099 166.881,58.099C167.732,58.099 168.505,58.596 168.86,59.37Z" style="fill:rgb(214,140,66);"/>
                </g>
                <g transform="matrix(0.800994,0,0,0.800994,1.8116,30.5954)">
                    <path d="M125.085,49.451L127.664,56.42L134.633,58.999L127.664,61.578L125.085,68.547L122.506,61.578L115.537,58.999L122.506,56.42L125.085,49.451Z" style="fill:rgb(214,140,66);"/>
                </g>
                <g transform="matrix(0.800994,0,0,0.800994,35.1643,14.0611)">
                    <path d="M125.085,49.451L127.664,56.42L134.633,58.999L127.664,61.578L125.085,68.547L122.506,61.578L115.537,58.999L122.506,56.42L125.085,49.451Z" style="fill:rgb(214,140,66);"/>
                </g>
                <g transform="matrix(0.800994,0,0,0.800994,68.5169,30.5954)">
                    <path d="M125.085,49.451L127.664,56.42L134.633,58.999L127.664,61.578L125.085,68.547L122.506,61.578L115.537,58.999L122.506,56.42L125.085,49.451Z" style="fill:rgb(214,140,66);"/>
                </g>
            </g>
        </g>
    </g>
</svg>
