<?xml version="1.0" encoding="UTF-8" standalone="no"?>
<!DOCTYPE svg PUBLIC "-//W3C//DTD SVG 1.1//EN" "http://www.w3.org/Graphics/SVG/1.1/DTD/svg11.dtd">
<svg width="100%" height="100%" viewBox="0 0 512 512" version="1.1" xmlns="http://www.w3.org/2000/svg" xmlns:xlink="http://www.w3.org/1999/xlink" xml:space="preserve" xmlns:serif="http://www.serif.com/" style="fill-rule:evenodd;clip-rule:evenodd;stroke-linejoin:round;stroke-miterlimit:2;">
    <g transform="matrix(-3.12702e-16,4.09581,-4.09581,-2.9675e-15,2037.33,-6715.45)">
        <g id="BowAndArrowIcon">
            <g id="BowIcon">
                <g transform="matrix(1,0,0,1,-0.56183,5.71432)">
                    <g transform="matrix(0.707107,-0.707107,0.80002,0.80002,-35.4776,1148.79)">
                        <rect x="1699.09" y="605.764" width="2.803" height="64.884" style="fill:white;"/>
                    </g>
                    <g transform="matrix(-0.707107,-0.707107,-0.80002,0.80002,3440.5,1148.79)">
                        <rect x="1699.09" y="605.764" width="2.803" height="64.884" style="fill:white;"/>
                    </g>
                </g>
                <g transform="matrix(-9.54605e-16,-1.31757,1.31757,-1.00592e-16,-2517.36,13001.1)">
                    <path d="M9564.32,3215.28C9561.26,3223.02 9554.83,3229.58 9546.44,3234.1C9541.58,3236.73 9536.37,3239.59 9535.94,3246.02C9535.94,3246.02 9535.79,3247.49 9534.8,3247.49C9533.8,3247.49 9533.56,3246.33 9533.56,3246.33C9533.14,3243.15 9533.65,3239.85 9535.47,3237.03C9540.57,3229.11 9547.18,3226.27 9550.63,3216.28C9550.75,3215.95 9550.86,3215.62 9550.96,3215.28L9564.32,3215.28ZM9550.93,3189.63C9550.76,3189.05 9550.58,3188.51 9550.4,3188C9546.12,3175.91 9532.13,3171.3 9533.53,3158.79C9533.53,3158.79 9533.69,3157.43 9534.79,3157.43C9535.9,3157.43 9535.93,3158.66 9535.93,3158.66C9536.41,3166.7 9547.12,3169.2 9553.58,3174.56C9558.25,3178.43 9562.08,3183.69 9564.31,3189.63L9550.93,3189.63Z" style="fill:white;"/>
                </g>
                <g transform="matrix(1,0,0,1,-1.11638,0)">
                    <g transform="matrix(1.48667,-1.11022e-16,-5.4031e-17,1.48667,-880.453,-479.747)">
                        <g transform="matrix(1,1.02028,-9.86076e-32,1,-1.26231,-1774.82)">
                            <rect x="1741.78" y="623.206" width="7.311" height="22.648" style="fill:white;"/>
                        </g>
                        <g transform="matrix(-1,1.02028,-9.86076e-32,1,3476.85,-1774.82)">
                            <rect x="1741.78" y="623.206" width="7.311" height="22.648" style="fill:white;"/>
                        </g>
                    </g>
                    <g transform="matrix(0.935316,-4.07486e-17,-4.07847e-16,1.11117,77.5377,-205.234)">
                        <rect x="1736.13" y="561.981" width="3.632" height="59.721" style="fill:white;"/>
                    </g>
                    <g transform="matrix(1.04895,0,0,1.04895,-120.112,-205.372)">
                        <path d="M1737.3,553.715C1737.45,553.415 1737.77,553.228 1738.1,553.228C1738.44,553.228 1738.75,553.415 1738.91,553.715C1740.72,557.117 1745.05,565.286 1746.76,568.511C1746.91,568.795 1746.9,569.136 1746.73,569.411C1746.57,569.686 1746.27,569.855 1745.95,569.855C1742.43,569.855 1733.77,569.855 1730.26,569.855C1729.94,569.855 1729.64,569.686 1729.48,569.411C1729.31,569.136 1729.3,568.795 1729.45,568.511C1731.16,565.286 1735.49,557.117 1737.3,553.715Z" style="fill:white;"/>
                    </g>
                </g>
                <g transform="matrix(1.67844,-1.47581e-16,7.40765e-16,1.59899,-395.257,-7584.75)">
                    <path d="M1256.99,4993.15C1256.99,4992.1 1256.17,4991.25 1255.17,4991.25L1244.02,4991.25C1243.02,4991.25 1242.2,4992.1 1242.2,4993.15L1242.2,5002.15C1242.2,5003.19 1243.02,5004.05 1244.02,5004.05L1255.17,5004.05C1256.17,5004.05 1256.99,5003.19 1256.99,5002.15L1256.99,4993.15Z" style="fill:white;"/>
                </g>
                <g transform="matrix(1,0,0,1,0.257323,7.17601)">
                    <path d="M1652.29,427.541C1652.29,426.591 1651.52,425.82 1650.57,425.82L1650.31,425.82C1649.36,425.82 1648.59,426.591 1648.59,427.541L1648.59,432.457C1648.59,433.407 1649.36,434.178 1650.31,434.178L1650.57,434.178C1651.52,434.178 1652.29,433.407 1652.29,432.457L1652.29,427.541Z" style="fill:white;"/>
                </g>
                <g transform="matrix(1,0,0,1,103.465,7.17601)">
                    <path d="M1652.29,427.541C1652.29,426.591 1651.52,425.82 1650.57,425.82L1650.31,425.82C1649.36,425.82 1648.59,426.591 1648.59,427.541L1648.59,432.457C1648.59,433.407 1649.36,434.178 1650.31,434.178L1650.57,434.178C1651.52,434.178 1652.29,433.407 1652.29,432.457L1652.29,427.541Z" style="fill:white;"/>
                </g>
            </g>
        </g>
    </g>
</svg>
