<?xml version="1.0" encoding="UTF-8" standalone="no"?>
<!DOCTYPE svg PUBLIC "-//W3C//DTD SVG 1.1//EN" "http://www.w3.org/Graphics/SVG/1.1/DTD/svg11.dtd">
<svg width="100%" height="100%" viewBox="0 0 512 512" version="1.1" xmlns="http://www.w3.org/2000/svg" xmlns:xlink="http://www.w3.org/1999/xlink" xml:space="preserve" xmlns:serif="http://www.serif.com/" style="fill-rule:evenodd;clip-rule:evenodd;stroke-linejoin:round;stroke-miterlimit:2;">
    <g id="Box---Purple" serif:id="Box - Purple" transform="matrix(32.4038,0,0,39.1696,-6663.76,-127280)">
        <g transform="matrix(0.194569,0,0,0.148224,-648.285,2114.45)">
            <path d="M4461.97,7686.24L4396.23,7686.24L4396.23,7724.05C4396.23,7731.01 4401.43,7736.65 4407.84,7736.65L4450.36,7736.65C4456.77,7736.65 4461.97,7731.01 4461.97,7724.05L4461.97,7686.24Z" style="fill:rgb(132,94,247);"/>
            <clipPath id="_clip1">
                <path d="M4461.97,7686.24L4396.23,7686.24L4396.23,7724.05C4396.23,7731.01 4401.43,7736.65 4407.84,7736.65L4450.36,7736.65C4456.77,7736.65 4461.97,7731.01 4461.97,7724.05L4461.97,7686.24Z"/>
            </clipPath>
            <g clip-path="url(#_clip1)">
                <g transform="matrix(0.357873,0,0,0.419746,4383.63,7681.66)">
                    <rect x="127.428" y="20.131" width="140.323" height="115.347" style="fill:rgb(116,74,242);"/>
                </g>
                <g transform="matrix(0.357873,0,0,0.148846,4346.37,7680.3)">
                    <rect x="127.428" y="20.131" width="140.323" height="115.347" style="fill:rgb(116,74,242);"/>
                </g>
            </g>
        </g>
        <g transform="matrix(0.194569,0,0,0.148224,-648.285,2112.95)">
            <path d="M4469.15,7683.38C4469.15,7679.64 4466.36,7676.61 4462.92,7676.61L4395.96,7676.61C4392.52,7676.61 4389.73,7679.64 4389.73,7683.38L4389.73,7696.91C4389.73,7700.64 4392.52,7703.68 4395.96,7703.68L4462.92,7703.68C4466.36,7703.68 4469.15,7700.64 4469.15,7696.91L4469.15,7683.38Z" style="fill:rgb(151,117,250);"/>
            <clipPath id="_clip2">
                <path d="M4469.15,7683.38C4469.15,7679.64 4466.36,7676.61 4462.92,7676.61L4395.96,7676.61C4392.52,7676.61 4389.73,7679.64 4389.73,7683.38L4389.73,7696.91C4389.73,7700.64 4392.52,7703.68 4395.96,7703.68L4462.92,7703.68C4466.36,7703.68 4469.15,7700.64 4469.15,7696.91L4469.15,7683.38Z"/>
            </clipPath>
            <g clip-path="url(#_clip2)">
                <g transform="matrix(0.357873,0,0,0.388626,4383.63,7661.96)">
                    <rect x="127.428" y="20.131" width="140.323" height="115.347" style="fill:rgb(132,94,247);"/>
                </g>
            </g>
        </g>
        <g id="Star-Yellow---Rounded" serif:id="Star Yellow - Rounded" transform="matrix(0.0165843,0,0,0.0137197,211.344,3256.22)">
            <path d="M106.799,18.92C110.317,9.804 119.081,3.793 128.851,3.793C138.622,3.793 147.386,9.804 150.904,18.92L171.536,72.389L228.764,75.489C238.521,76.018 246.946,82.495 249.966,91.787C252.985,101.08 249.976,111.272 242.393,117.435L197.917,153.58L212.653,208.965C215.165,218.408 211.609,228.422 203.704,234.166C195.799,239.909 185.176,240.196 176.972,234.889L128.851,203.759L80.731,234.889C72.527,240.196 61.903,239.909 53.999,234.166C46.094,228.422 42.538,218.408 45.05,208.965L59.786,153.58L15.31,117.435C7.727,111.272 4.718,101.08 7.737,91.787C10.757,82.495 19.182,76.018 28.939,75.489L86.167,72.389L106.799,18.92Z" style="fill:rgb(255,212,59);"/>
            <clipPath id="_clip3">
                <path d="M106.799,18.92C110.317,9.804 119.081,3.793 128.851,3.793C138.622,3.793 147.386,9.804 150.904,18.92L171.536,72.389L228.764,75.489C238.521,76.018 246.946,82.495 249.966,91.787C252.985,101.08 249.976,111.272 242.393,117.435L197.917,153.58L212.653,208.965C215.165,218.408 211.609,228.422 203.704,234.166C195.799,239.909 185.176,240.196 176.972,234.889L128.851,203.759L80.731,234.889C72.527,240.196 61.903,239.909 53.999,234.166C46.094,228.422 42.538,218.408 45.05,208.965L59.786,153.58L15.31,117.435C7.727,111.272 4.718,101.08 7.737,91.787C10.757,82.495 19.182,76.018 28.939,75.489L86.167,72.389L106.799,18.92Z"/>
            </clipPath>
            <g clip-path="url(#_clip3)">
                <g transform="matrix(0.964326,0,0,0.964326,5.41769,-2.19757)">
                    <rect x="127.73" y="-13.151" width="171.579" height="281.807" style="fill:rgb(252,196,25);"/>
                </g>
            </g>
        </g>
    </g>
</svg>
