<?xml version="1.0" encoding="UTF-8" standalone="no"?>
<!DOCTYPE svg PUBLIC "-//W3C//DTD SVG 1.1//EN" "http://www.w3.org/Graphics/SVG/1.1/DTD/svg11.dtd">
<svg width="100%" height="100%" viewBox="0 0 512 512" version="1.1" xmlns="http://www.w3.org/2000/svg" xmlns:xlink="http://www.w3.org/1999/xlink" xml:space="preserve" xmlns:serif="http://www.serif.com/" style="fill-rule:evenodd;clip-rule:evenodd;stroke-linejoin:round;stroke-miterlimit:2;">
    <g id="BrainIcon" transform="matrix(6.95274,0,0,6.95274,-6075.6,-5293.39)">
        <path d="M910.663,767.993C912.513,765.23 915.828,763.388 919.605,763.388C923.224,763.388 926.417,765.079 928.306,767.651C927.191,768.58 926.262,769.754 925.615,771.057C925.615,771.057 925.348,771.839 925.805,772.319C926.797,773.362 928.007,771.187 930.074,769.517C936.807,769.059 947.09,777.258 942.623,789.415C940.703,788.143 938.006,787.959 935.507,787.96C934.143,787.972 932.78,788.088 931.44,788.338C930.992,788.422 930.546,788.521 930.104,788.636C929.729,788.733 929.357,788.843 928.989,788.965C926.664,789.741 924.344,791.135 923.221,793.417C923.221,793.417 922.905,794.396 923.522,794.86C924.836,795.846 926.338,792.447 928.779,791.42C932.843,789.709 938.104,789.433 941.336,791.258C941.477,791.338 941.612,791.411 941.74,791.476L941.684,791.589C947.054,794.419 948.774,805.978 942.091,812.113C941.823,811.933 941.405,811.892 940.821,812.112C938.198,813.049 935.338,812.245 932.974,810.646C932.974,810.646 932.783,810.46 932.311,810.474C930.011,810.676 933.336,814.755 931.91,818.32C931.91,818.32 931.755,819.176 932.268,819.579C933.59,820.617 935.166,817.205 934.507,814.168C934.507,814.168 938.395,815.371 941.587,814.201C941.88,814.094 942.105,813.887 942.254,813.64C942.304,814.024 942.33,814.414 942.33,814.809C942.33,818.708 939.826,822.073 936.221,823.607C935.815,826.28 933.322,828.339 930.313,828.339C930.153,828.339 929.994,828.334 929.837,828.322C927.987,831.087 924.671,832.931 920.893,832.931C915.916,832.931 911.744,829.733 910.663,825.446C909.582,829.733 905.409,832.931 900.433,832.931C896.654,832.931 893.339,831.087 891.488,828.322C891.332,828.334 891.173,828.339 891.013,828.339C888.003,828.339 885.511,826.28 885.104,823.607C881.499,822.073 878.995,818.708 878.995,814.809C878.995,814.414 879.021,814.024 879.071,813.64C879.22,813.887 879.445,814.094 879.739,814.201C882.931,815.371 886.819,814.168 886.819,814.168C886.16,817.205 887.735,820.617 889.058,819.579C889.571,819.176 889.415,818.32 889.415,818.32C887.99,814.755 891.314,810.676 889.014,810.474C888.543,810.46 888.352,810.646 888.352,810.646C885.987,812.245 883.128,813.049 880.504,812.112C879.92,811.892 879.503,811.933 879.235,812.113C872.551,805.978 874.271,794.419 879.641,791.589L879.585,791.476C879.714,791.411 879.848,791.338 879.989,791.258C883.222,789.433 888.483,789.709 892.546,791.42C894.987,792.447 896.49,795.846 897.803,794.86C898.42,794.396 898.104,793.417 898.104,793.417C896.982,791.135 894.661,789.741 892.336,788.965C891.969,788.843 891.597,788.733 891.222,788.636C890.78,788.521 890.334,788.422 889.885,788.338C888.546,788.088 887.183,787.972 885.819,787.96C883.319,787.959 880.622,788.143 878.702,789.415C874.235,777.258 884.519,769.059 891.251,769.517C893.318,771.187 894.528,773.362 895.521,772.319C895.977,771.839 895.711,771.057 895.711,771.057C895.063,769.754 894.135,768.58 893.019,767.651C894.908,765.079 898.102,763.388 901.721,763.388C905.498,763.388 908.812,765.23 910.663,767.993ZM899.973,820.558C899.11,819.781 898.445,818.836 898.136,817.764C897.944,817.1 898.479,816.329 899.252,816.344C899.729,816.376 900.074,816.725 900.312,817.189C901.355,819.125 903.469,820.178 905.569,820.674C906.829,821.034 906.831,823.37 903.924,822.633C903.257,822.464 902.589,822.216 901.954,821.897C901.139,823.634 899.278,825.726 897.047,826.546C895.841,826.988 894.727,825.191 896.666,824.292C898.216,823.542 899.146,821.787 899.973,820.558ZM921.353,820.558C922.216,819.781 922.881,818.836 923.19,817.764C923.381,817.1 922.846,816.329 922.073,816.344C921.597,816.376 921.252,816.725 921.013,817.189C919.97,819.125 917.856,820.178 915.756,820.674C914.497,821.034 914.495,823.37 917.402,822.633C918.068,822.464 918.736,822.216 919.371,821.897C920.186,823.634 922.048,825.726 924.279,826.546C925.484,826.988 926.598,825.191 924.66,824.292C923.11,823.542 922.179,821.787 921.353,820.558ZM910.663,823.486C911.458,823.433 912.087,822.771 912.087,821.963L912.087,773.88C912.137,773.831 912.189,773.779 912.242,773.723C914.667,771.191 918.342,769.79 921.74,770.375C921.74,770.375 925.804,767.997 920.256,768.035C916.896,768.087 913.525,769.428 911.13,771.687C910.984,771.628 910.341,771.628 910.196,771.687C907.801,769.428 904.429,768.087 901.07,768.035C895.522,767.997 899.586,770.375 899.586,770.375C902.983,769.79 906.658,771.191 909.084,773.723C909.136,773.779 909.188,773.831 909.239,773.88L909.239,821.963C909.239,822.771 909.868,823.433 910.663,823.486ZM890.679,799.43C894.981,799.512 898.899,802.317 901.138,805.8C901.138,805.8 900.893,809.337 898.962,806.548C896.543,803.118 892.28,800.692 888.121,802.05C888.121,802.05 884.787,800.652 887.922,799.785C888.82,799.537 889.748,799.424 890.679,799.43ZM930.647,799.43C926.344,799.512 922.427,802.317 920.187,805.8C920.187,805.8 920.433,809.337 922.363,806.548C924.782,803.118 929.046,800.692 933.204,802.05C933.204,802.05 936.539,800.652 933.403,799.785C932.505,799.537 931.577,799.424 930.647,799.43ZM921.54,775.68C919.547,775.718 919.333,778.004 921.355,777.911C924.403,777.812 927.666,779.473 928.646,782.678C928.93,783.605 929.151,783.555 929.409,783.647C931.124,784.255 930.842,779.941 927.768,777.608C926.001,776.267 923.762,775.669 921.54,775.68ZM899.786,775.68C901.778,775.718 901.992,778.004 899.97,777.911C896.923,777.812 893.66,779.473 892.68,782.678C892.396,783.605 892.174,783.555 891.916,783.647C890.202,784.255 890.484,779.941 893.558,777.608C895.325,776.267 897.564,775.669 899.786,775.68Z" style="fill:white;"/>
    </g>
</svg>
