<?xml version="1.0" encoding="UTF-8" standalone="no"?>
<!DOCTYPE svg PUBLIC "-//W3C//DTD SVG 1.1//EN" "http://www.w3.org/Graphics/SVG/1.1/DTD/svg11.dtd">
<svg width="100%" height="100%" viewBox="0 0 512 512" version="1.1" xmlns="http://www.w3.org/2000/svg" xmlns:xlink="http://www.w3.org/1999/xlink" xml:space="preserve" xmlns:serif="http://www.serif.com/" style="fill-rule:evenodd;clip-rule:evenodd;stroke-linejoin:round;stroke-miterlimit:2;">
    <g id="Bread" transform="matrix(2.20029,0,0,2.20029,-1401.29,-239.187)">
        <path d="M753.214,165.941C753.755,165.935 754.293,165.933 754.831,165.933C808.555,165.933 869.406,199.858 863.407,248.249C857.988,291.966 808.555,283.523 754.831,283.523C754.363,283.523 753.895,283.524 753.426,283.525L753.426,283.527L753.214,283.526L753.002,283.527L753.002,283.525C752.533,283.524 752.065,283.523 751.597,283.523C697.873,283.523 648.44,291.966 643.021,248.249C637.022,199.858 697.873,165.933 751.597,165.933C752.135,165.933 752.674,165.935 753.214,165.941Z" style="fill:rgb(253,189,0);"/>
        <clipPath id="_clip1">
            <path d="M753.214,165.941C753.755,165.935 754.293,165.933 754.831,165.933C808.555,165.933 869.406,199.858 863.407,248.249C857.988,291.966 808.555,283.523 754.831,283.523C754.363,283.523 753.895,283.524 753.426,283.525L753.426,283.527L753.214,283.526L753.002,283.527L753.002,283.525C752.533,283.524 752.065,283.523 751.597,283.523C697.873,283.523 648.44,291.966 643.021,248.249C637.022,199.858 697.873,165.933 751.597,165.933C752.135,165.933 752.674,165.935 753.214,165.941Z"/>
        </clipPath>
        <g clip-path="url(#_clip1)">
            <g transform="matrix(1,0,0,1,-0.703935,16.0409)">
                <g transform="matrix(1,0,0,1,-1.87297,-14.5472)">
                    <path d="M765.64,159.298C765.64,153.862 761.227,149.449 755.791,149.449C750.355,149.449 745.942,153.862 745.942,159.298L745.942,211.756C745.942,217.192 750.355,221.605 755.791,221.605C761.227,221.605 765.64,217.192 765.64,211.756L765.64,159.298Z" style="fill:rgb(255,155,0);"/>
                </g>
                <g transform="matrix(1,0,0,1,-49.5631,-21.8394)">
                    <path d="M765.64,159.298C765.64,153.862 761.227,149.449 755.791,149.449C750.355,149.449 745.942,153.862 745.942,159.298L745.942,211.756C745.942,217.192 750.355,221.605 755.791,221.605C761.227,221.605 765.64,217.192 765.64,211.756L765.64,159.298Z" style="fill:rgb(255,155,0);"/>
                </g>
                <g transform="matrix(1,0,0,1,45.8172,-21.8394)">
                    <path d="M765.64,159.298C765.64,153.862 761.227,149.449 755.791,149.449C750.355,149.449 745.942,153.862 745.942,159.298L745.942,211.756C745.942,217.192 750.355,221.605 755.791,221.605C761.227,221.605 765.64,217.192 765.64,211.756L765.64,159.298Z" style="fill:rgb(255,155,0);"/>
                </g>
            </g>
            <path d="M676.375,187.959C670.151,198.267 667.162,209.912 668.728,222.542C674.147,266.259 723.58,257.816 777.304,257.816C777.772,257.816 778.24,257.817 778.709,257.818L778.709,257.82L779.133,257.82L779.133,257.818C779.602,257.817 780.07,257.816 780.538,257.816C811.87,257.816 841.742,260.688 862.272,254.411C853.044,291.144 805.874,283.523 754.831,283.523C754.363,283.523 753.895,283.524 753.426,283.525L753.426,283.527L753.002,283.527L753.002,283.525C752.533,283.524 752.065,283.523 751.597,283.523C697.873,283.523 648.44,291.966 643.021,248.249C639.953,223.502 654.369,202.538 676.375,187.959Z" style="fill:rgb(255,155,0);"/>
            <g transform="matrix(1,0,0,1,14.3737,7.48043)">
                <circle cx="673.864" cy="225.386" r="4.766" style="fill:rgb(255,155,0);"/>
            </g>
            <g transform="matrix(1,0,0,1,-8.83498,35.1187)">
                <circle cx="673.864" cy="225.386" r="4.766" style="fill:rgb(253,189,0);"/>
            </g>
            <g transform="matrix(1,0,0,1,145.802,43.0333)">
                <circle cx="673.864" cy="225.386" r="4.766" style="fill:rgb(253,189,0);"/>
            </g>
            <g transform="matrix(1,0,0,1,-17.274,6.91181)">
                <circle cx="673.864" cy="225.386" r="4.766" style="fill:rgb(253,189,0);"/>
            </g>
            <g transform="matrix(1,0,0,1,46.1486,12.4274)">
                <circle cx="673.864" cy="225.386" r="4.766" style="fill:rgb(255,155,0);"/>
            </g>
            <g transform="matrix(1,0,0,1,159.106,0.725969)">
                <circle cx="673.864" cy="225.386" r="4.766" style="fill:rgb(255,155,0);"/>
            </g>
            <g transform="matrix(1,0,0,1,171.35,21.0462)">
                <circle cx="673.864" cy="225.386" r="4.766" style="fill:rgb(255,155,0);"/>
            </g>
            <g transform="matrix(1,0,0,1,97.9247,19.2231)">
                <circle cx="673.864" cy="225.386" r="4.766" style="fill:rgb(255,155,0);"/>
            </g>
        </g>
    </g>
</svg>
