<?xml version="1.0" encoding="UTF-8" standalone="no"?>
<!DOCTYPE svg PUBLIC "-//W3C//DTD SVG 1.1//EN" "http://www.w3.org/Graphics/SVG/1.1/DTD/svg11.dtd">
<svg width="100%" height="100%" viewBox="0 0 512 512" version="1.1" xmlns="http://www.w3.org/2000/svg" xmlns:xlink="http://www.w3.org/1999/xlink" xml:space="preserve" xmlns:serif="http://www.serif.com/" style="fill-rule:evenodd;clip-rule:evenodd;stroke-linejoin:round;stroke-miterlimit:2;">
    <g id="BulletStarIcon" transform="matrix(10.0186,0,0,10.0186,-5391.04,-1624.25)">
        <path d="M557.083,198.137L550.649,203.759L555.891,191.499L546.63,191.39L554.058,185.858L542.611,179.02L555.891,180.217L553.133,171.376L560.689,176.73L563.655,163.731L566.621,176.73L574.177,171.376L571.419,180.217L584.699,179.02L573.252,185.858L580.68,191.39L571.419,191.499L576.661,203.759L570.227,198.137L570.227,197.118C570.227,187.935 565.888,183.276 563.835,183.276C561.781,183.276 557.083,187.189 557.083,197.118L557.083,198.137Z" style="fill:white;"/>
        <g transform="matrix(1.71163,0,0,1.99364,-732.822,-1118.17)">
            <path d="M760.372,665.364C760.372,665.197 760.214,665.062 760.019,665.062L754.882,665.062C754.688,665.062 754.53,665.197 754.53,665.364L754.53,666.715C754.53,666.881 754.688,667.017 754.882,667.017L760.019,667.017C760.214,667.017 760.372,666.881 760.372,666.715L760.372,665.364Z" style="fill:white;"/>
        </g>
        <g transform="matrix(0.617961,0,0,0.617961,-659.678,98.1333)">
            <path d="M1973.05,175.32L1973.07,154.969C1973.43,145.825 1978.06,141.77 1980.04,141.77C1982.01,141.77 1985.87,146.485 1986.19,154.969L1986.21,175.32C1986.21,175.535 1986.13,175.741 1985.98,175.893C1985.82,176.044 1985.62,176.13 1985.4,176.13C1983.05,176.13 1976.21,176.13 1973.86,176.13C1973.64,176.13 1973.44,176.044 1973.29,175.893C1973.13,175.741 1973.05,175.535 1973.05,175.32Z" style="fill:white;"/>
        </g>
    </g>
</svg>
