<?xml version="1.0" encoding="UTF-8" standalone="no"?>
<!DOCTYPE svg PUBLIC "-//W3C//DTD SVG 1.1//EN" "http://www.w3.org/Graphics/SVG/1.1/DTD/svg11.dtd">
<svg width="100%" height="100%" viewBox="0 0 512 512" version="1.1" xmlns="http://www.w3.org/2000/svg" xmlns:xlink="http://www.w3.org/1999/xlink" xml:space="preserve" xmlns:serif="http://www.serif.com/" style="fill-rule:evenodd;clip-rule:evenodd;stroke-linejoin:round;stroke-miterlimit:2;">
    <g id="BulletsPackICon" transform="matrix(10.6192,0,0,10.6192,-7920.41,-6763.2)">
        <g transform="matrix(1,0,0,1,346.206,465.194)">
            <path d="M444.333,177.761C445.544,177.761 446.527,178.744 446.527,179.954L446.527,211.643C446.527,212.853 445.544,213.836 444.333,213.836L403.187,213.836C401.977,213.836 400.994,212.853 400.994,211.643L400.994,179.954C400.994,178.744 401.977,177.761 403.187,177.761L444.333,177.761ZM414.491,202.811L407.751,202.811C407.495,202.811 407.288,203.018 407.288,203.274L407.288,205.337C407.288,205.592 407.496,205.799 407.751,205.799L414.491,205.799C414.746,205.799 414.953,205.592 414.953,205.337L414.953,203.274C414.953,203.018 414.746,202.811 414.491,202.811ZM427.131,202.811L420.39,202.811C420.135,202.811 419.928,203.018 419.928,203.274L419.928,205.337C419.928,205.592 420.135,205.799 420.39,205.799L427.131,205.799C427.386,205.799 427.593,205.592 427.593,205.337L427.593,203.274C427.593,203.018 427.386,202.811 427.131,202.811ZM439.77,202.811L433.03,202.811C432.774,202.811 432.567,203.018 432.567,203.274L432.567,205.337C432.567,205.592 432.774,205.799 433.03,205.799L439.77,205.799C440.025,205.799 440.232,205.592 440.232,205.337L440.232,203.274C440.232,203.018 440.025,202.811 439.77,202.811ZM426.878,192.588C426.878,188.231 424.929,185.797 423.954,185.797C422.98,185.797 420.642,187.877 420.642,192.588L420.642,201.575C420.642,201.707 420.695,201.834 420.789,201.928C420.883,202.022 421.01,202.075 421.142,202.075C422.311,202.075 425.21,202.075 426.378,202.075C426.511,202.075 426.638,202.022 426.732,201.928C426.826,201.834 426.878,201.707 426.878,201.575C426.878,199.88 426.878,194.364 426.878,192.588ZM439.518,192.588C439.518,188.231 437.568,185.797 436.594,185.797C435.62,185.797 433.282,187.877 433.282,192.588L433.282,201.575C433.282,201.707 433.334,201.834 433.428,201.928C433.522,202.022 433.649,202.075 433.782,202.075C434.95,202.075 437.849,202.075 439.018,202.075C439.15,202.075 439.278,202.022 439.371,201.928C439.465,201.834 439.518,201.707 439.518,201.575C439.518,199.88 439.518,194.364 439.518,192.588ZM414.239,192.588C414.239,188.231 412.289,185.797 411.315,185.797C410.341,185.797 408.003,187.877 408.003,192.588L408.003,201.575C408.003,201.707 408.055,201.834 408.149,201.928C408.243,202.022 408.37,202.075 408.503,202.075C409.671,202.075 412.57,202.075 413.739,202.075C413.871,202.075 413.999,202.022 414.092,201.928C414.186,201.834 414.239,201.707 414.239,201.575C414.239,199.88 414.239,194.364 414.239,192.588Z" style="fill:white;"/>
        </g>
    </g>
</svg>
