<?xml version="1.0" encoding="UTF-8" standalone="no"?>
<!DOCTYPE svg PUBLIC "-//W3C//DTD SVG 1.1//EN" "http://www.w3.org/Graphics/SVG/1.1/DTD/svg11.dtd">
<svg width="100%" height="100%" viewBox="0 0 512 512" version="1.1" xmlns="http://www.w3.org/2000/svg" xmlns:xlink="http://www.w3.org/1999/xlink" xml:space="preserve" xmlns:serif="http://www.serif.com/" style="fill-rule:evenodd;clip-rule:evenodd;stroke-linejoin:round;stroke-miterlimit:2;">
    <g id="Camera-Circle" serif:id="Camera Circle" transform="matrix(2,0,0,2,0,0)">
        <path d="M128,0.486C198.377,0.486 255.514,57.623 255.514,128C255.514,198.377 198.377,255.514 128,255.514C57.623,255.514 0.486,198.377 0.486,128C0.486,57.623 57.623,0.486 128,0.486ZM95.911,89.489L95.911,83.168C95.911,74.387 103.04,67.257 111.821,67.257C111.821,67.257 144.179,67.257 144.179,67.257C152.96,67.257 160.089,74.387 160.089,83.168L160.089,89.489L165.03,89.489C180.286,89.489 192.672,101.875 192.672,117.131C192.672,117.131 192.672,161.101 192.672,161.101C192.672,176.357 180.286,188.743 165.03,188.743L90.97,188.743C75.714,188.743 63.328,176.357 63.328,161.101L63.328,117.131C63.328,101.875 75.714,89.489 90.97,89.489L95.911,89.489ZM102.718,103.103C106.477,103.103 109.525,100.056 109.525,96.296L109.525,83.168C109.525,81.901 110.554,80.872 111.821,80.872L144.179,80.872C145.446,80.872 146.475,81.901 146.475,83.168C146.475,83.168 146.475,96.296 146.475,96.296C146.475,100.056 149.523,103.103 153.282,103.103L165.03,103.103C172.772,103.103 179.057,109.389 179.057,117.131L179.057,161.101C179.057,168.843 172.772,175.128 165.03,175.128C165.03,175.128 90.97,175.128 90.97,175.128C83.228,175.128 76.943,168.843 76.943,161.101C76.943,161.101 76.943,117.131 76.943,117.131C76.943,109.389 83.228,103.103 90.97,103.103C90.97,103.103 102.718,103.103 102.718,103.103ZM128,109.441C143.424,109.441 155.946,121.963 155.946,137.387C155.946,152.811 143.424,165.333 128,165.333C112.576,165.333 100.054,152.811 100.054,137.387C100.054,121.963 112.576,109.441 128,109.441ZM128,121.42C136.813,121.42 143.968,128.574 143.968,137.387C143.968,146.2 136.813,153.355 128,153.355C119.187,153.355 112.032,146.2 112.032,137.387C112.032,128.574 119.187,121.42 128,121.42ZM128,128.591C132.855,128.591 136.796,132.533 136.796,137.387C136.796,142.242 132.855,146.183 128,146.183C123.145,146.183 119.204,142.242 119.204,137.387C119.204,132.533 123.145,128.591 128,128.591Z" style="fill:white;"/>
    </g>
</svg>
