<?xml version="1.0" encoding="UTF-8" standalone="no"?>
<!DOCTYPE svg PUBLIC "-//W3C//DTD SVG 1.1//EN" "http://www.w3.org/Graphics/SVG/1.1/DTD/svg11.dtd">
<svg width="100%" height="100%" viewBox="0 0 512 512" version="1.1" xmlns="http://www.w3.org/2000/svg" xmlns:xlink="http://www.w3.org/1999/xlink" xml:space="preserve" xmlns:serif="http://www.serif.com/" style="fill-rule:evenodd;clip-rule:evenodd;stroke-linejoin:round;stroke-miterlimit:2;">
    <g id="CandleIcon" transform="matrix(7.4224,0,0,7.4224,-13220.2,-6720.87)">
        <g transform="matrix(0.843674,0,0,0.61566,200.179,336.419)">
            <path d="M1924.83,991.043C1924.83,990.282 1924.37,989.664 1923.82,989.664L1905.7,989.664C1905.15,989.664 1904.69,990.282 1904.69,991.043L1904.69,1028.8C1904.69,1029.57 1905.15,1030.18 1905.7,1030.18L1923.82,1030.18C1924.37,1030.18 1924.83,1029.57 1924.83,1028.8L1924.83,991.043Z" style="fill:white;"/>
        </g>
        <g transform="matrix(1,0,0,1,-99.295,-44.7126)">
            <path d="M1915.61,983.677C1915.61,983.29 1915.29,982.976 1914.91,982.976C1914.52,982.976 1914.2,983.29 1914.2,983.677L1914.2,992.683C1914.2,993.07 1914.52,993.384 1914.91,993.384C1915.29,993.384 1915.61,993.07 1915.61,992.683L1915.61,983.677Z" style="fill:white;"/>
        </g>
        <g transform="matrix(1,0,0,1,0,-2.06949)">
            <path d="M1810.14,943.557C1798.65,933.298 1810.22,913.159 1821.94,911.357C1815.28,925.64 1824.81,926.937 1825.7,934.523C1826.36,940.071 1824.12,942.973 1820.93,944.294C1821.47,943.394 1821.77,942.344 1821.77,941.223C1821.77,937.884 1819.06,935.174 1815.72,935.174C1812.38,935.174 1809.67,937.884 1809.67,941.223C1809.67,942.05 1809.84,942.839 1810.14,943.557Z" style="fill:white;"/>
        </g>
    </g>
</svg>
