<?xml version="1.0" encoding="UTF-8" standalone="no"?>
<!DOCTYPE svg PUBLIC "-//W3C//DTD SVG 1.1//EN" "http://www.w3.org/Graphics/SVG/1.1/DTD/svg11.dtd">
<svg width="100%" height="100%" viewBox="0 0 512 512" version="1.1" xmlns="http://www.w3.org/2000/svg" xmlns:xlink="http://www.w3.org/1999/xlink" xml:space="preserve" xmlns:serif="http://www.serif.com/" style="fill-rule:evenodd;clip-rule:evenodd;stroke-linejoin:round;stroke-miterlimit:2;">
    <g id="CanonIcon" transform="matrix(6.61123,0,0,6.61123,-5151.83,-3612.62)">
        <path d="M815.698,587.07C824.25,587.07 831.193,593.932 831.193,602.383C831.193,610.834 824.25,617.695 815.698,617.695C807.145,617.695 800.202,610.834 800.202,602.383C800.202,593.932 807.145,587.07 815.698,587.07ZM835.112,599.12C835.529,599.073 847.996,590.5 849.004,589.284C849.735,591.06 850.137,593.002 850.137,595.037C850.137,603.488 843.194,610.349 834.641,610.349C834.521,610.349 834.402,610.348 834.282,610.345C835.122,608.179 835.583,605.828 835.583,603.371C835.583,601.911 835.42,600.488 835.112,599.12ZM815.698,598.274C817.993,598.274 819.856,600.115 819.856,602.383C819.856,604.651 817.993,606.492 815.698,606.492C813.403,606.492 811.539,604.651 811.539,602.383C811.539,600.115 813.403,598.274 815.698,598.274ZM790.458,570.762L789.384,572.138L788.199,568.499L782.967,571.033L785.693,565.944L782.048,564.66L785.185,562.422L781.13,558.288L786.869,559.277L786.978,555.456L790.102,557.711L792.827,552.623L793.649,558.322L797.361,557.244L796.155,560.877L801.895,561.866L796.663,564.399L798.848,567.555L794.979,567.544L795.801,573.244L793.201,570.594C792.697,573.996 794.619,577.319 797.831,578.621C798.489,577.993 799.205,577.406 799.976,576.869L822.804,560.956C826.164,558.614 830.058,557.568 833.875,557.715C834.212,556.826 834.739,556.103 835.464,555.598C838.936,553.178 845.634,556.649 850.413,563.343C855.192,570.038 856.254,577.438 852.783,579.857C852.113,580.324 851.324,580.572 850.452,580.619C849.336,584.309 847.008,587.669 843.58,590.059L834.466,596.412C831.913,588.577 824.47,582.902 815.698,582.902C804.894,582.902 796.109,591.508 795.985,602.155C795.867,602.001 795.752,601.844 795.638,601.685C791.024,595.222 791.382,586.757 795.935,580.746C792.265,578.83 790.075,574.88 790.458,570.762ZM840.452,559.541C841.497,558.813 844.429,561.142 846.997,564.739C849.565,568.336 850.802,571.848 849.757,572.576C848.713,573.304 845.78,570.974 843.213,567.377C840.645,563.78 839.408,560.269 840.452,559.541Z" style="fill:white;"/>
    </g>
</svg>
