<?xml version="1.0" encoding="UTF-8" standalone="no"?>
<!DOCTYPE svg PUBLIC "-//W3C//DTD SVG 1.1//EN" "http://www.w3.org/Graphics/SVG/1.1/DTD/svg11.dtd">
<svg width="100%" height="100%" viewBox="0 0 512 512" version="1.1" xmlns="http://www.w3.org/2000/svg" xmlns:xlink="http://www.w3.org/1999/xlink" xml:space="preserve" xmlns:serif="http://www.serif.com/" style="fill-rule:evenodd;clip-rule:evenodd;stroke-linejoin:round;stroke-miterlimit:2;">
    <g id="CastleIcon" transform="matrix(2.88552,0,0,2.88552,-4169.15,-2681.35)">
        <g transform="matrix(1,0,0,1,-0.399399,0)">
            <path d="M1536.38,935.093C1536.38,934.429 1535.84,933.89 1535.17,933.89L1532.77,933.89C1532.1,933.89 1531.56,934.429 1531.56,935.093L1531.56,973.971C1531.56,974.635 1532.1,975.174 1532.77,975.174L1535.17,975.174C1535.84,975.174 1536.38,974.635 1536.38,973.971L1536.38,935.093Z" style="fill:white;"/>
        </g>
        <g transform="matrix(1,0,0,1,-1,0)">
            <path d="M1497.13,1077.35L1462.14,1077.35L1462,1014.37L1475.66,1014.37L1475.66,1025.29C1475.66,1029.53 1479.11,1032.98 1483.35,1032.98C1487.59,1032.98 1491.04,1029.53 1491.04,1025.29L1491.04,1014.37L1500.62,1014.37L1497.13,1077.35Z" style="fill:white;"/>
            <g transform="matrix(1,0,0,1,546.267,40.625)">
                <path d="M950.806,1038.01L950.087,1038.01C946.536,1038.01 943.653,1040.89 943.653,1044.44L943.653,1054.99L913.061,1054.99C910.345,1054.99 908.139,1052.78 908.139,1050.07L908.139,1040.22C908.139,1037.51 910.344,1035.3 913.061,1035.3L950.956,1035.3L950.806,1038.01Z" style="fill:white;"/>
            </g>
        </g>
        <g transform="matrix(-1,0,0,1,3068.14,0)">
            <path d="M1497.13,1077.35L1462.14,1077.35L1462,1014.37L1475.66,1014.37L1475.66,1025.29C1475.66,1029.53 1479.11,1032.98 1483.35,1032.98C1487.59,1032.98 1491.04,1029.53 1491.04,1025.29L1491.04,1014.37L1500.62,1014.37L1497.13,1077.35Z" style="fill:white;"/>
            <g transform="matrix(1,0,0,1,546.267,40.625)">
                <path d="M950.806,1038.01L950.087,1038.01C946.536,1038.01 943.653,1040.89 943.653,1044.44L943.653,1054.99L913.061,1054.99C910.345,1054.99 908.139,1052.78 908.139,1050.07L908.139,1040.22C908.139,1037.51 910.344,1035.3 913.061,1035.3L950.956,1035.3L950.806,1038.01Z" style="fill:white;"/>
            </g>
        </g>
        <g transform="matrix(0.971907,0,0,1,45.3064,-0.737308)">
            <path d="M1578.87,945.297C1568.58,936.36 1546.32,944.483 1533.3,938.728L1533.3,956.344C1544.56,962.841 1563.19,944.178 1578.87,945.297Z" style="fill:white;"/>
        </g>
        <g transform="matrix(1,0,0,1,-0.670986,0)">
            <path d="M1542.33,979.001L1542.33,986.368C1542.33,990.224 1545.46,993.355 1549.31,993.355C1553.17,993.355 1556.3,990.224 1556.3,986.368L1556.3,979.001L1572.76,979.001L1572.76,994.144L1552.14,1022.53L1516.49,1022.53L1495.87,994.144L1495.87,979.001L1512.33,979.001L1512.33,986.368C1512.33,990.224 1515.46,993.355 1519.31,993.355C1523.17,993.355 1526.3,990.224 1526.3,986.368L1526.3,979.001L1542.33,979.001Z" style="fill:white;"/>
            <path d="M1560.71,1006.49L1565.71,1096.78L1501.92,1096.78L1506.92,1006.49L1560.71,1006.49ZM1542.34,1035.85C1542.34,1031.14 1538.52,1027.32 1533.82,1027.32C1529.11,1027.32 1525.29,1031.14 1525.29,1035.85L1525.29,1058.91L1542.34,1058.91L1542.34,1035.85Z" style="fill:white;"/>
            <path d="M1571.9,1087.27C1571.9,1084.55 1569.7,1082.35 1566.98,1082.35L1500.65,1082.35C1497.93,1082.35 1495.73,1084.55 1495.73,1087.27L1495.73,1097.11C1495.73,1099.83 1497.93,1102.03 1500.65,1102.03L1566.98,1102.03C1569.7,1102.03 1571.9,1099.83 1571.9,1097.11L1571.9,1087.27Z" style="fill:white;"/>
        </g>
    </g>
</svg>
