<?xml version="1.0" encoding="UTF-8" standalone="no"?>
<!DOCTYPE svg PUBLIC "-//W3C//DTD SVG 1.1//EN" "http://www.w3.org/Graphics/SVG/1.1/DTD/svg11.dtd">
<svg width="100%" height="100%" viewBox="0 0 512 512" version="1.1" xmlns="http://www.w3.org/2000/svg" xmlns:xlink="http://www.w3.org/1999/xlink" xml:space="preserve" xmlns:serif="http://www.serif.com/" style="fill-rule:evenodd;clip-rule:evenodd;stroke-linejoin:round;stroke-miterlimit:2;">
    <g id="CauldronIcon" transform="matrix(2.44336,0,0,2.97541,-1349.19,-17645.9)">
        <g transform="matrix(1,0,0,1,0,-6.19456)">
            <g transform="matrix(1.79594,0.851477,-0.908118,1.29165,3820.69,-3073.14)">
                <path d="M1330.59,6175.91C1330.59,6173.88 1329.14,6172.23 1327.36,6172.23L1312.28,6172.23C1310.5,6172.23 1309.06,6173.88 1309.06,6175.91C1309.06,6177.94 1310.5,6179.59 1312.28,6179.59L1327.36,6179.59C1329.14,6179.59 1330.59,6177.94 1330.59,6175.91Z" style="fill:white;"/>
            </g>
            <g transform="matrix(-1.70465,0.808193,0.908118,1.29165,-2626.28,-3016.48)">
                <path d="M1330.59,6175.91C1330.59,6173.88 1329.06,6172.23 1327.19,6172.23L1312.45,6172.23C1310.58,6172.23 1309.06,6173.88 1309.06,6175.91C1309.06,6177.94 1310.58,6179.59 1312.45,6179.59L1327.19,6179.59C1329.06,6179.59 1330.59,6177.94 1330.59,6175.91Z" style="fill:white;"/>
            </g>
        </g>
        <g transform="matrix(2.29163,0,0,1.88185,-22928.3,-2005.18)">
            <path d="M10300.4,4246.3C10314.8,4246.3 10326.5,4258.02 10326.5,4272.45C10326.5,4286.88 10314.8,4298.6 10300.4,4298.6L10283.5,4298.6C10269.1,4298.6 10257.3,4286.88 10257.3,4272.45C10257.3,4258.02 10269.1,4246.3 10283.5,4246.3L10300.4,4246.3ZM10270.7,4259.1C10273,4259.1 10274.9,4261 10274.9,4263.35C10274.9,4265.7 10273,4267.61 10270.7,4267.61C10268.3,4267.61 10266.4,4265.7 10266.4,4263.35C10266.4,4261 10268.3,4259.1 10270.7,4259.1Z" style="fill:white;"/>
        </g>
        <g transform="matrix(2.29163,0,0,1.88185,-22928.3,-2005.18)">
            <path d="M10268.7,4238.43C10269.8,4234.61 10273.3,4231.82 10277.5,4231.82C10279.6,4231.82 10281.5,4232.52 10283.1,4233.7C10284.1,4229.75 10287.7,4226.84 10291.9,4226.84C10296.2,4226.84 10299.8,4229.75 10300.8,4233.7C10302.3,4232.52 10304.3,4231.82 10306.3,4231.82C10310.5,4231.82 10314,4234.61 10315.1,4238.43L10268.7,4238.43Z" style="fill:white;"/>
        </g>
        <g transform="matrix(1.191,0,0,0.978031,-1063.45,158.683)">
            <path d="M1508.76,5961.67C1508.76,5955.7 1503.92,5950.86 1497.95,5950.86L1391.07,5950.86C1385.1,5950.86 1380.25,5955.7 1380.25,5961.67C1380.25,5967.64 1385.1,5972.49 1391.07,5972.49L1497.95,5972.49C1503.92,5972.49 1508.76,5967.64 1508.76,5961.67Z" style="fill:white;"/>
        </g>
    </g>
</svg>
