<?xml version="1.0" encoding="UTF-8" standalone="no"?>
<!DOCTYPE svg PUBLIC "-//W3C//DTD SVG 1.1//EN" "http://www.w3.org/Graphics/SVG/1.1/DTD/svg11.dtd">
<svg width="100%" height="100%" viewBox="0 0 512 512" version="1.1" xmlns="http://www.w3.org/2000/svg" xmlns:xlink="http://www.w3.org/1999/xlink" xml:space="preserve" xmlns:serif="http://www.serif.com/" style="fill-rule:evenodd;clip-rule:evenodd;stroke-linejoin:round;stroke-miterlimit:2;">
    <g transform="matrix(0.346229,0,0,0.328231,29.133,13.5254)">
        <g id="ChampagneIcon" transform="matrix(9.44513,0,0,9.96303,-7210.77,-9084.81)">
            <g transform="matrix(1,0,0,1,0.957203,8.22939)">
                <g transform="matrix(0.780857,0,0,1,119.993,-43.6769)">
                    <path d="M916.765,952.324C916.765,950.116 914.47,948.324 911.642,948.324C908.815,948.324 906.52,950.116 906.52,952.324L906.52,969.631C906.52,971.839 908.815,973.631 911.642,973.631C914.47,973.631 916.765,971.839 916.765,969.631L916.765,952.324Z" style="fill:white;"/>
                </g>
                <g transform="matrix(0.676242,0.390429,-0.5,0.866025,712.379,-263.647)">
                    <path d="M916.765,952.324C916.765,950.116 914.47,948.324 911.642,948.324C908.815,948.324 906.52,950.116 906.52,952.324L906.52,969.631C906.52,971.839 908.815,973.631 911.642,973.631C914.47,973.631 916.765,971.839 916.765,969.631L916.765,952.324Z" style="fill:white;"/>
                </g>
                <g transform="matrix(-0.676242,0.390429,0.5,0.866025,951.332,-263.647)">
                    <path d="M916.765,952.324C916.765,950.116 914.47,948.324 911.642,948.324C908.815,948.324 906.52,950.116 906.52,952.324L906.52,969.631C906.52,971.839 908.815,973.631 911.642,973.631C914.47,973.631 916.765,971.839 916.765,969.631L916.765,952.324Z" style="fill:white;"/>
                </g>
            </g>
            <g transform="matrix(0.965926,0.258819,-0.258819,0.965926,285.593,-170.297)">
                <g transform="matrix(0.859476,5.55112e-17,2.77556e-17,0.921719,38.7135,39.5755)">
                    <path d="M900.339,986.962C900.339,983.986 897.747,981.57 894.555,981.57C894.555,981.57 852.67,981.57 852.67,981.57C849.478,981.57 846.886,983.986 846.886,986.962L846.886,1049.89C846.886,1063.64 858.862,1074.81 873.612,1074.81C888.363,1074.81 900.339,1063.64 900.339,1049.89C900.339,1049.89 900.339,986.962 900.339,986.962ZM853.799,988.015L853.799,1049.89C853.799,1060.09 862.677,1068.36 873.612,1068.36C884.548,1068.36 893.426,1060.09 893.426,1049.89L893.426,988.015L853.799,988.015Z" style="fill:white;"/>
                </g>
                <g transform="matrix(0.77111,2.77556e-17,0,1,115.839,-41.207)">
                    <path d="M850.436,1028.11L896.976,1028.11C898.448,1028.11 899.643,1026.91 899.643,1025.44C899.643,1023.97 898.448,1022.77 896.976,1022.77L850.436,1022.77C848.965,1022.77 847.77,1023.97 847.77,1025.44C847.77,1026.91 848.965,1028.11 850.436,1028.11Z" style="fill:white;"/>
                </g>
                <g transform="matrix(0.75314,2.77556e-17,0,0.816116,130.378,158.038)">
                    <path d="M880.559,1064.51C880.559,1063.16 879.369,1062.06 877.904,1062.06L872.593,1062.06C871.127,1062.06 869.937,1063.16 869.937,1064.51L869.937,1091.98C869.937,1093.33 871.127,1094.43 872.593,1094.43L877.904,1094.43C879.369,1094.43 880.559,1093.33 880.559,1091.98L880.559,1064.51Z" style="fill:white;"/>
                </g>
                <g transform="matrix(1,0,0,0.74694,-85.8904,234.281)">
                    <path d="M894.098,1096.31C894.098,1093.36 892.306,1090.95 890.098,1090.95L860.808,1090.95C858.6,1090.95 856.808,1093.36 856.808,1096.31C856.808,1099.27 858.6,1101.67 860.808,1101.67L890.098,1101.67C892.306,1101.67 894.098,1099.27 894.098,1096.31Z" style="fill:white;"/>
                </g>
                <g transform="matrix(1,0,0,1,-81.3073,-36.737)">
                    <circle cx="863.428" cy="1045.65" r="4.957" style="fill:white;"/>
                </g>
                <g transform="matrix(1,0,0,1,-69.0539,-48.9915)">
                    <circle cx="863.428" cy="1045.65" r="4.957" style="fill:white;"/>
                </g>
                <g transform="matrix(1,0,0,1,-83.0452,-38.7429)">
                    <path d="M866.448,996.149C866.448,993.863 864.591,992.006 862.305,992.006C860.018,992.006 858.162,993.863 858.162,996.149L858.162,1009.94C858.162,1012.23 860.018,1014.08 862.305,1014.08C864.591,1014.08 866.448,1012.23 866.448,1009.94L866.448,996.149Z" style="fill:white;"/>
                </g>
            </g>
            <g transform="matrix(-0.965926,0.258819,0.258819,0.965926,1380.03,-170.297)">
                <g transform="matrix(0.859476,2.77556e-17,2.77556e-17,0.921719,38.7135,39.5755)">
                    <path d="M900.339,986.962L900.339,1049.89C900.339,1063.64 888.363,1074.81 873.612,1074.81C858.862,1074.81 846.886,1063.64 846.886,1049.89C846.886,1049.89 846.886,986.962 846.886,986.962C846.886,983.986 849.478,981.57 852.67,981.57C852.67,981.57 894.555,981.57 894.555,981.57C897.747,981.57 900.339,983.986 900.339,986.962ZM853.799,988.015L893.426,988.015L893.426,1049.89C893.426,1060.09 884.548,1068.36 873.612,1068.36C862.677,1068.36 853.799,1060.09 853.799,1049.89L853.799,988.015Z" style="fill:white;"/>
                </g>
                <g transform="matrix(0.77111,0,5.55112e-17,1,115.839,-41.207)">
                    <path d="M850.436,1022.77L896.976,1022.77C898.448,1022.77 899.643,1023.97 899.643,1025.44C899.643,1026.91 898.448,1028.11 896.976,1028.11L850.436,1028.11C848.965,1028.11 847.77,1026.91 847.77,1025.44C847.77,1023.97 848.965,1022.77 850.436,1022.77Z" style="fill:white;"/>
                </g>
                <g transform="matrix(0.75314,8.32667e-17,6.79553e-17,0.816116,130.378,158.038)">
                    <path d="M880.559,1064.51C880.559,1063.16 879.369,1062.06 877.904,1062.06L872.593,1062.06C871.127,1062.06 869.937,1063.16 869.937,1064.51L869.937,1091.98C869.937,1093.33 871.127,1094.43 872.593,1094.43L877.904,1094.43C879.369,1094.43 880.559,1093.33 880.559,1091.98L880.559,1064.51Z" style="fill:white;"/>
                </g>
                <g transform="matrix(1,-5.55112e-17,-5.55112e-17,0.74694,-85.8904,234.281)">
                    <path d="M894.098,1096.31C894.098,1093.36 892.306,1090.95 890.098,1090.95L860.808,1090.95C858.6,1090.95 856.808,1093.36 856.808,1096.31C856.808,1099.27 858.6,1101.67 860.808,1101.67L890.098,1101.67C892.306,1101.67 894.098,1099.27 894.098,1096.31Z" style="fill:white;"/>
                </g>
                <g transform="matrix(1,0,0,1,-81.3073,-36.737)">
                    <circle cx="863.428" cy="1045.65" r="4.957" style="fill:white;"/>
                </g>
                <g transform="matrix(1,0,0,1,-69.0539,-48.9915)">
                    <circle cx="863.428" cy="1045.65" r="4.957" style="fill:white;"/>
                </g>
                <g transform="matrix(1,0,0,1,-83.0452,-38.7429)">
                    <path d="M866.448,996.149C866.448,993.863 864.591,992.006 862.305,992.006C860.018,992.006 858.162,993.863 858.162,996.149L858.162,1009.94C858.162,1012.23 860.018,1014.08 862.305,1014.08C864.591,1014.08 866.448,1012.23 866.448,1009.94L866.448,996.149Z" style="fill:white;"/>
                </g>
            </g>
        </g>
    </g>
</svg>
