<?xml version="1.0" encoding="UTF-8" standalone="no"?>
<!DOCTYPE svg PUBLIC "-//W3C//DTD SVG 1.1//EN" "http://www.w3.org/Graphics/SVG/1.1/DTD/svg11.dtd">
<svg width="100%" height="100%" viewBox="0 0 512 512" version="1.1" xmlns="http://www.w3.org/2000/svg" xmlns:xlink="http://www.w3.org/1999/xlink" xml:space="preserve" xmlns:serif="http://www.serif.com/" style="fill-rule:evenodd;clip-rule:evenodd;stroke-linejoin:round;stroke-miterlimit:2;">
    <g transform="matrix(0.346229,0,0,0.328231,29.133,13.5254)">
        <g id="ChampagneOutlineIcon" transform="matrix(9.44513,0,0,9.96303,-7210.77,-9084.81)">
            <g transform="matrix(1,0,0,1,0.957203,8.22939)">
                <g transform="matrix(0.780857,0,0,1,119.993,-43.6769)">
                    <path d="M916.765,952.324C916.765,950.116 914.47,948.324 911.642,948.324C908.815,948.324 906.52,950.116 906.52,952.324L906.52,969.631C906.52,971.839 908.815,973.631 911.642,973.631C914.47,973.631 916.765,971.839 916.765,969.631L916.765,952.324Z" style="fill:white;"/>
                </g>
                <g transform="matrix(0.676242,0.390429,-0.5,0.866025,712.379,-263.647)">
                    <path d="M916.765,952.324C916.765,950.116 914.47,948.324 911.642,948.324C908.815,948.324 906.52,950.116 906.52,952.324L906.52,969.631C906.52,971.839 908.815,973.631 911.642,973.631C914.47,973.631 916.765,971.839 916.765,969.631L916.765,952.324Z" style="fill:white;"/>
                </g>
                <g transform="matrix(-0.676242,0.390429,0.5,0.866025,951.332,-263.647)">
                    <path d="M916.765,952.324C916.765,950.116 914.47,948.324 911.642,948.324C908.815,948.324 906.52,950.116 906.52,952.324L906.52,969.631C906.52,971.839 908.815,973.631 911.642,973.631C914.47,973.631 916.765,971.839 916.765,969.631L916.765,952.324Z" style="fill:white;"/>
                </g>
            </g>
            <g transform="matrix(0.965926,0.258819,-0.258819,0.965926,285.593,-170.297)">
                <g transform="matrix(0.75314,2.77556e-17,0,0.816116,130.378,158.038)">
                    <path d="M880.559,1064.51C880.559,1063.16 879.369,1062.06 877.904,1062.06L872.593,1062.06C871.127,1062.06 869.937,1063.16 869.937,1064.51L869.937,1091.98C869.937,1093.33 871.127,1094.43 872.593,1094.43L877.904,1094.43C879.369,1094.43 880.559,1093.33 880.559,1091.98L880.559,1064.51Z" style="fill:white;"/>
                </g>
                <g transform="matrix(1,0,0,0.74694,-85.8904,234.281)">
                    <path d="M894.098,1096.31C894.098,1093.36 892.306,1090.95 890.098,1090.95L860.808,1090.95C858.6,1090.95 856.808,1093.36 856.808,1096.31C856.808,1099.27 858.6,1101.67 860.808,1101.67L890.098,1101.67C892.306,1101.67 894.098,1099.27 894.098,1096.31Z" style="fill:white;"/>
                </g>
                <g transform="matrix(0.965926,-0.258819,0.258819,0.965926,-352.338,152.484)">
                    <path d="M918.953,1071.13C919.663,1068.49 918.089,1065.76 915.439,1065.05C915.439,1065.05 880.665,1055.73 880.665,1055.73C878.016,1055.02 875.288,1056.59 874.578,1059.24C874.578,1059.24 859.566,1115.27 859.566,1115.27C856.285,1127.51 863.563,1140.12 875.809,1143.4C888.055,1146.68 900.661,1139.4 903.942,1127.16C903.942,1127.16 918.953,1071.13 918.953,1071.13ZM875.425,1116.08C878.067,1116.79 879.638,1119.51 878.93,1122.15C878.222,1124.79 875.501,1126.37 872.859,1125.66C870.216,1124.95 868.645,1122.23 869.353,1119.59C870.061,1116.94 872.782,1115.37 875.425,1116.08ZM890.432,1107.41C893.075,1108.12 894.646,1110.84 893.938,1113.49C893.229,1116.13 890.509,1117.7 887.866,1116.99C885.223,1116.28 883.653,1113.56 884.361,1110.92C885.069,1108.28 887.789,1106.71 890.432,1107.41ZM871.96,1091.97L904.859,1100.78L912.964,1070.53L880.065,1061.72L871.96,1091.97Z" style="fill:white;"/>
                </g>
                <g transform="matrix(1,0,0,1,-83.0452,-38.7429)">
                    <path d="M866.448,996.149C866.448,993.863 864.591,992.006 862.305,992.006C860.018,992.006 858.162,993.863 858.162,996.149L858.162,1009.94C858.162,1012.23 860.018,1014.08 862.305,1014.08C864.591,1014.08 866.448,1012.23 866.448,1009.94L866.448,996.149Z" style="fill:white;"/>
                </g>
            </g>
            <g transform="matrix(-0.965926,0.258819,0.258819,0.965926,1380.03,-170.297)">
                <g transform="matrix(0.75314,8.32667e-17,6.79553e-17,0.816116,130.378,158.038)">
                    <path d="M880.559,1064.51C880.559,1063.16 879.369,1062.06 877.904,1062.06L872.593,1062.06C871.127,1062.06 869.937,1063.16 869.937,1064.51L869.937,1091.98C869.937,1093.33 871.127,1094.43 872.593,1094.43L877.904,1094.43C879.369,1094.43 880.559,1093.33 880.559,1091.98L880.559,1064.51Z" style="fill:white;"/>
                </g>
                <g transform="matrix(1,-5.55112e-17,-5.55112e-17,0.74694,-85.8904,234.281)">
                    <path d="M894.098,1096.31C894.098,1093.36 892.306,1090.95 890.098,1090.95L860.808,1090.95C858.6,1090.95 856.808,1093.36 856.808,1096.31C856.808,1099.27 858.6,1101.67 860.808,1101.67L890.098,1101.67C892.306,1101.67 894.098,1099.27 894.098,1096.31Z" style="fill:white;"/>
                </g>
                <g transform="matrix(-0.965926,0.258819,0.258819,0.965926,1438.52,-327.375)">
                    <path d="M935.081,1071.13L950.093,1127.16C953.374,1139.4 965.98,1146.68 978.226,1143.4C990.472,1140.12 997.75,1127.51 994.468,1115.27C994.468,1115.27 979.457,1059.24 979.457,1059.24C978.747,1056.59 976.019,1055.02 973.369,1055.73C973.369,1055.73 938.596,1065.05 938.596,1065.05C935.946,1065.76 934.371,1068.49 935.081,1071.13ZM978.61,1116.08C975.967,1116.79 974.397,1119.51 975.105,1122.15C975.813,1124.79 978.533,1126.37 981.176,1125.66C983.819,1124.95 985.39,1122.23 984.681,1119.59C983.973,1116.94 981.253,1115.37 978.61,1116.08ZM963.603,1107.41C960.96,1108.12 959.389,1110.84 960.097,1113.49C960.805,1116.13 963.526,1117.7 966.169,1116.99C968.811,1116.28 970.382,1113.56 969.674,1110.92C968.966,1108.28 966.245,1106.71 963.603,1107.41ZM982.075,1091.97L973.97,1061.72L941.071,1070.53L949.176,1100.78L982.075,1091.97Z" style="fill:white;"/>
                </g>
                <g transform="matrix(1,0,0,1,-83.0452,-38.7429)">
                    <path d="M866.448,996.149C866.448,993.863 864.591,992.006 862.305,992.006C860.018,992.006 858.162,993.863 858.162,996.149L858.162,1009.94C858.162,1012.23 860.018,1014.08 862.305,1014.08C864.591,1014.08 866.448,1012.23 866.448,1009.94L866.448,996.149Z" style="fill:white;"/>
                </g>
            </g>
        </g>
    </g>
</svg>
