<?xml version="1.0" encoding="UTF-8" standalone="no"?>
<!DOCTYPE svg PUBLIC "-//W3C//DTD SVG 1.1//EN" "http://www.w3.org/Graphics/SVG/1.1/DTD/svg11.dtd">
<svg width="100%" height="100%" viewBox="0 0 512 512" version="1.1" xmlns="http://www.w3.org/2000/svg" xmlns:xlink="http://www.w3.org/1999/xlink" xml:space="preserve" xmlns:serif="http://www.serif.com/" style="fill-rule:evenodd;clip-rule:evenodd;stroke-linejoin:round;stroke-miterlimit:2;">
    <g id="ChatSilencedIcon" transform="matrix(8.99736,0,0,8.99736,-17546.9,-9078.7)">
        <path d="M1978.68,1056.23C1980.47,1056.23 1982.22,1056.08 1983.9,1055.8C1983.92,1055.8 1999.41,1062.69 1999.41,1062.69C1999.41,1062.69 1994.3,1052.02 1994.27,1052.03C2000.93,1048.04 2005.29,1041.58 2005.29,1034.26C2005.29,1022.13 1993.38,1012.3 1978.68,1012.3C1963.99,1012.3 1952.08,1022.13 1952.08,1034.26C1952.08,1046.39 1963.99,1056.23 1978.68,1056.23ZM1978.73,1031.38L1972.87,1025.53C1972.48,1025.14 1971.85,1025.14 1971.46,1025.53L1970.05,1026.94C1969.65,1027.33 1969.65,1027.96 1970.05,1028.35L1975.9,1034.21L1970.05,1040.06C1969.65,1040.45 1969.65,1041.08 1970.05,1041.47L1971.46,1042.89C1971.85,1043.28 1972.48,1043.28 1972.87,1042.89L1978.73,1037.04L1984.58,1042.89C1984.97,1043.28 1985.6,1043.28 1985.99,1042.89L1987.41,1041.47C1987.8,1041.08 1987.8,1040.45 1987.41,1040.06L1981.55,1034.21L1987.41,1028.35C1987.8,1027.96 1987.8,1027.33 1987.41,1026.94L1985.99,1025.53C1985.6,1025.14 1984.97,1025.14 1984.58,1025.53L1978.73,1031.38Z" style="fill:white;"/>
    </g>
</svg>
