<?xml version="1.0" encoding="UTF-8" standalone="no"?>
<!DOCTYPE svg PUBLIC "-//W3C//DTD SVG 1.1//EN" "http://www.w3.org/Graphics/SVG/1.1/DTD/svg11.dtd">
<svg width="100%" height="100%" viewBox="0 0 512 512" version="1.1" xmlns="http://www.w3.org/2000/svg" xmlns:xlink="http://www.w3.org/1999/xlink" xml:space="preserve" xmlns:serif="http://www.serif.com/" style="fill-rule:evenodd;clip-rule:evenodd;stroke-linejoin:round;stroke-miterlimit:2;">
    <g id="Chat" transform="matrix(-1.72003,0,0,1.72003,480.387,33.3986)">
        <g id="Bubble-Icon" serif:id="Bubble Icon" transform="matrix(-8.10388,0,0,8.10388,5272.3,-21948.7)">
            <path d="M631,2737.05C630.194,2737.05 629.407,2736.99 628.646,2736.86C626.77,2738.6 624.341,2739.75 621.651,2740.01C622.96,2738.76 623.819,2737.05 623.969,2735.14C620.963,2733.32 619,2730.37 619,2727.03C619,2722.42 622.726,2718.53 627.799,2717.36C628.284,2717.25 630.127,2722.29 633.63,2723.89C637.482,2725.66 643,2724.13 643,2727.03C643,2732.57 637.627,2737.05 631,2737.05Z" style="fill:rgb(18,117,163);"/>
            <clipPath id="_clip1">
                <path d="M631,2737.05C630.194,2737.05 629.407,2736.99 628.646,2736.86C626.77,2738.6 624.341,2739.75 621.651,2740.01C622.96,2738.76 623.819,2737.05 623.969,2735.14C620.963,2733.32 619,2730.37 619,2727.03C619,2722.42 622.726,2718.53 627.799,2717.36C628.284,2717.25 630.127,2722.29 633.63,2723.89C637.482,2725.66 643,2724.13 643,2727.03C643,2732.57 637.627,2737.05 631,2737.05Z"/>
            </clipPath>
            <g clip-path="url(#_clip1)">
                <g id="Bubble-Icon1" serif:id="Bubble Icon" transform="matrix(-0.123398,0,0,0.123398,647.678,2710.99)">
                    <path d="M97.247,162.515C90.713,162.515 84.34,161.96 78.167,160.935C62.965,175.028 43.282,184.338 21.482,186.42C32.092,176.347 39.052,162.494 40.268,147.006C15.907,132.238 0,108.33 0,81.252C0,36.379 43.539,0 97.247,0C150.955,0 194.493,36.379 194.493,81.252C194.493,126.134 150.955,162.515 97.247,162.515ZM60.243,70.519C65.994,70.519 70.664,75.188 70.664,80.939C70.664,86.69 65.994,91.359 60.243,91.359C54.492,91.359 49.823,86.69 49.823,80.939C49.823,75.188 54.492,70.519 60.243,70.519ZM97.473,70.519C103.224,70.519 107.893,75.188 107.893,80.939C107.893,86.69 103.224,91.359 97.473,91.359C91.722,91.359 87.053,86.69 87.053,80.939C87.053,75.188 91.722,70.519 97.473,70.519ZM134.703,70.519C140.454,70.519 145.123,75.188 145.123,80.939C145.123,86.69 140.454,91.359 134.703,91.359C128.952,91.359 124.283,86.69 124.283,80.939C124.283,75.188 128.952,70.519 134.703,70.519Z" style="fill:rgb(33,37,41);fill-opacity:0.19;"/>
                </g>
            </g>
        </g>
        <g transform="matrix(1,0,0,1,-5.83305,0.816173)">
            <g id="Bubble-Icon2" serif:id="Bubble Icon" transform="matrix(1,0,0,1,10.7441,4.01061)">
                <path d="M97.247,162.515C90.713,162.515 84.34,161.96 78.167,160.935C62.965,175.028 43.282,184.338 21.482,186.42C32.092,176.347 39.052,162.494 40.268,147.006C15.907,132.238 0,108.33 0,81.252C0,36.379 43.539,0 97.247,0C150.955,0 194.493,36.379 194.493,81.252C194.493,126.134 150.955,162.515 97.247,162.515Z" style="fill:rgb(0,200,255);"/>
            </g>
            <g>
                <g transform="matrix(-0.951232,0,0,0.951232,261.227,-1.16779)">
                    <circle cx="121.14" cy="90.774" r="11.661" style="fill:rgb(24,100,171);"/>
                </g>
                <g transform="matrix(-0.951232,0,0,0.951232,223.236,-1.16779)">
                    <circle cx="121.14" cy="90.774" r="11.661" style="fill:rgb(24,100,171);"/>
                </g>
                <g transform="matrix(-0.951232,0,0,0.951232,186.676,-1.16779)">
                    <circle cx="121.14" cy="90.774" r="11.661" style="fill:rgb(24,100,171);"/>
                </g>
            </g>
        </g>
        <g transform="matrix(0.5,0.866025,-0.866025,0.5,147.229,-160.489)">
            <g transform="matrix(-0.305904,-0.529842,0.722667,-0.417232,238.423,155.212)">
                <path d="M238.565,15.441C238.565,11.473 234.17,8.251 228.758,8.251L186.806,8.251C181.394,8.251 176.999,11.473 176.999,15.441C176.999,19.409 181.394,22.631 186.806,22.631L228.758,22.631C234.17,22.631 238.565,19.409 238.565,15.441Z" style="fill:rgb(0,200,255);"/>
            </g>
            <g transform="matrix(-0.305904,0.529842,0.722667,0.417232,290.367,-77.856)">
                <path d="M238.565,15.441C238.565,11.473 234.17,8.251 228.758,8.251L186.806,8.251C181.394,8.251 176.999,11.473 176.999,15.441C176.999,19.409 181.394,22.631 186.806,22.631L228.758,22.631C234.17,22.631 238.565,19.409 238.565,15.441Z" style="fill:rgb(0,200,255);"/>
            </g>
            <g transform="matrix(-5.01124e-18,-0.611809,0.834464,2.00982e-16,199.107,151.989)">
                <path d="M238.565,15.441C238.565,11.473 234.17,8.251 228.758,8.251L186.806,8.251C181.394,8.251 176.999,11.473 176.999,15.441C176.999,19.409 181.394,22.631 186.806,22.631L228.758,22.631C234.17,22.631 238.565,19.409 238.565,15.441Z" style="fill:rgb(0,200,255);"/>
            </g>
        </g>
    </g>
</svg>
