<?xml version="1.0" encoding="UTF-8" standalone="no"?>
<!DOCTYPE svg PUBLIC "-//W3C//DTD SVG 1.1//EN" "http://www.w3.org/Graphics/SVG/1.1/DTD/svg11.dtd">
<svg width="100%" height="100%" viewBox="0 0 512 512" version="1.1" xmlns="http://www.w3.org/2000/svg" xmlns:xlink="http://www.w3.org/1999/xlink" xml:space="preserve" xmlns:serif="http://www.serif.com/" style="fill-rule:evenodd;clip-rule:evenodd;stroke-linejoin:round;stroke-miterlimit:2;">
    <g id="ChatTalkIcon" transform="matrix(7.96636,0,0,9.70106,7304.09,-61527.7)">
        <g transform="matrix(1.09603,0,0,0.90004,-1187.07,623.445)">
            <path d="M291.679,6372.34C297.667,6375.01 301.738,6380.25 301.738,6386.27C301.738,6391.43 298.693,6396.26 293.578,6399.23L295.994,6410L287.552,6401.55C285.934,6401.91 284.266,6402.09 282.591,6402.09C274.299,6402.09 267.231,6397.72 264.571,6391.62C265.932,6391.83 267.315,6391.93 268.701,6391.93C281.389,6391.93 291.69,6383.42 291.69,6372.94C291.69,6372.74 291.686,6372.54 291.679,6372.34Z" style="fill:white;"/>
        </g>
        <g transform="matrix(1.09603,0,0,0.929717,-1206.25,430.715)">
            <path d="M305.751,6376.51C305.751,6368.06 297.171,6361.19 286.604,6361.19C276.036,6361.19 267.456,6368.06 267.456,6376.51C267.456,6381.51 270.502,6386.19 275.616,6389.06L273.2,6399.49L281.642,6391.31C283.26,6391.65 284.928,6391.83 286.604,6391.83C297.171,6391.83 305.751,6384.97 305.751,6376.51Z" style="fill:white;"/>
        </g>
    </g>
</svg>
