<?xml version="1.0" encoding="UTF-8" standalone="no"?>
<!DOCTYPE svg PUBLIC "-//W3C//DTD SVG 1.1//EN" "http://www.w3.org/Graphics/SVG/1.1/DTD/svg11.dtd">
<svg width="100%" height="100%" viewBox="0 0 512 512" version="1.1" xmlns="http://www.w3.org/2000/svg" xmlns:xlink="http://www.w3.org/1999/xlink" xml:space="preserve" xmlns:serif="http://www.serif.com/" style="fill-rule:evenodd;clip-rule:evenodd;stroke-linejoin:round;stroke-miterlimit:2;">
    <g id="ChatPointsIcon" transform="matrix(-8.99736,0,0,8.99736,18071.2,-11238.4)">
        <path d="M1980.05,1296.26C1978.26,1296.26 1976.52,1296.11 1974.83,1295.83C1974.81,1295.83 1959.32,1302.72 1959.32,1302.72C1959.32,1302.72 1964.43,1292.05 1964.46,1292.07C1957.8,1288.07 1953.44,1281.61 1953.44,1274.29C1953.44,1262.16 1965.35,1252.33 1980.05,1252.33C1994.74,1252.33 2006.65,1262.16 2006.65,1274.29C2006.65,1286.42 1994.74,1296.26 1980.05,1296.26ZM1966.51,1271.46C1968.81,1271.46 1970.68,1273.33 1970.68,1275.63C1970.68,1277.94 1968.81,1279.81 1966.51,1279.81C1964.2,1279.81 1962.33,1277.94 1962.33,1275.63C1962.33,1273.33 1964.2,1271.46 1966.51,1271.46ZM1980.05,1271.46C1982.35,1271.46 1984.22,1273.33 1984.22,1275.63C1984.22,1277.94 1982.35,1279.81 1980.05,1279.81C1977.74,1279.81 1975.87,1277.94 1975.87,1275.63C1975.87,1273.33 1977.74,1271.46 1980.05,1271.46ZM1993.58,1271.46C1995.89,1271.46 1997.76,1273.33 1997.76,1275.63C1997.76,1277.94 1995.89,1279.81 1993.58,1279.81C1991.28,1279.81 1989.4,1277.94 1989.4,1275.63C1989.4,1273.33 1991.28,1271.46 1993.58,1271.46Z" style="fill:white;"/>
    </g>
</svg>
