<?xml version="1.0" encoding="UTF-8" standalone="no"?>
<!DOCTYPE svg PUBLIC "-//W3C//DTD SVG 1.1//EN" "http://www.w3.org/Graphics/SVG/1.1/DTD/svg11.dtd">
<svg width="100%" height="100%" viewBox="0 0 512 512" version="1.1" xmlns="http://www.w3.org/2000/svg" xmlns:xlink="http://www.w3.org/1999/xlink" xml:space="preserve" xmlns:serif="http://www.serif.com/" style="fill-rule:evenodd;clip-rule:evenodd;stroke-linejoin:round;stroke-miterlimit:2;">
    <g id="Checkmark----Curved" serif:id="Checkmark -  Curved" transform="matrix(682.667,0,0,682.667,-4.66667,496.667)">
        <path d="M0.309,0.018C0.278,-0.037 0.255,-0.077 0.239,-0.103L0.213,-0.143L0.193,-0.173C0.151,-0.239 0.106,-0.294 0.06,-0.337C0.086,-0.359 0.111,-0.37 0.134,-0.37C0.162,-0.37 0.187,-0.36 0.208,-0.339C0.23,-0.319 0.258,-0.28 0.291,-0.222C0.329,-0.345 0.377,-0.461 0.435,-0.571C0.467,-0.631 0.496,-0.671 0.521,-0.692C0.546,-0.713 0.58,-0.723 0.622,-0.723C0.644,-0.723 0.671,-0.72 0.704,-0.713C0.62,-0.646 0.553,-0.565 0.503,-0.473C0.453,-0.38 0.388,-0.216 0.309,0.018Z" style="fill:white;fill-rule:nonzero;"/>
    </g>
</svg>
