<?xml version="1.0" encoding="UTF-8" standalone="no"?>
<!DOCTYPE svg PUBLIC "-//W3C//DTD SVG 1.1//EN" "http://www.w3.org/Graphics/SVG/1.1/DTD/svg11.dtd">
<svg width="100%" height="100%" viewBox="0 0 512 512" version="1.1" xmlns="http://www.w3.org/2000/svg" xmlns:xlink="http://www.w3.org/1999/xlink" xml:space="preserve" xmlns:serif="http://www.serif.com/" style="fill-rule:evenodd;clip-rule:evenodd;stroke-linejoin:round;stroke-miterlimit:2;">
    <g id="ChestIcon" transform="matrix(4.58393,0,0,4.35008,-19445.5,-6684.23)">
        <g transform="matrix(1.07303,0,0,1.13071,-5901.48,-3218.17)">
            <path d="M9522.06,4211.42C9524.25,4211.42 9526.02,4213.19 9526.02,4215.38L9526.02,4216.83L9489.59,4216.83L9489.59,4215.38C9489.59,4213.19 9491.37,4211.42 9493.56,4211.42L9522.06,4211.42Z" style="fill:white;"/>
        </g>
        <g transform="matrix(1.07303,0,0,1.13071,-5901.48,-3218.17)">
            <path d="M9515.66,4246.13C9517.15,4246.13 9518.35,4247.34 9518.35,4248.82L9518.35,4270.18C9518.35,4271.66 9517.15,4272.87 9515.66,4272.87L9494.91,4272.87C9493.42,4272.87 9492.22,4271.66 9492.22,4270.18L9492.22,4248.82C9492.22,4247.34 9493.42,4246.13 9494.91,4246.13L9515.66,4246.13ZM9505.28,4255.25C9507.63,4255.25 9509.53,4257.15 9509.53,4259.5C9509.53,4261.85 9507.63,4263.75 9505.28,4263.75C9502.94,4263.75 9501.03,4261.85 9501.03,4259.5C9501.03,4257.15 9502.94,4255.25 9505.28,4255.25Z" style="fill:white;"/>
        </g>
        <g transform="matrix(1.07303,0,0,1.13071,-5901.48,-3218.17)">
            <path d="M9456.6,4288.75L9456.67,4288.75C9464.72,4288.75 9471.32,4294.97 9471.93,4302.86L9459.21,4302.86C9457.77,4302.86 9456.6,4301.69 9456.6,4300.25L9456.6,4288.75ZM9456.6,4282.42L9456.6,4253.32C9456.6,4251.88 9457.77,4250.71 9459.21,4250.71L9487.32,4250.71L9487.32,4274.18C9487.32,4276.23 9488.98,4277.88 9491.02,4277.88L9519.55,4277.88C9521.59,4277.88 9523.25,4276.23 9523.25,4274.18L9523.25,4250.71L9551.35,4250.71C9552.79,4250.71 9553.96,4251.88 9553.96,4253.32L9553.96,4282.42C9542.45,4282.45 9533.03,4291.49 9532.41,4302.86L9478.28,4302.86C9477.66,4291.48 9468.21,4282.42 9456.67,4282.42L9456.6,4282.42ZM9553.96,4288.75L9553.96,4300.25C9553.96,4301.69 9552.8,4302.86 9551.35,4302.86L9538.76,4302.86C9539.37,4294.99 9545.94,4288.78 9553.96,4288.75ZM9487.32,4246.13L9456.72,4246.13C9458.04,4231.7 9470.19,4220.37 9484.97,4220.37L9525.6,4220.37C9540.38,4220.37 9552.53,4231.7 9553.84,4246.13L9523.25,4246.13L9523.25,4244.82C9523.25,4242.78 9521.59,4241.12 9519.55,4241.12L9491.02,4241.12C9488.98,4241.12 9487.32,4242.78 9487.32,4244.82L9487.32,4246.13Z" style="fill:white;"/>
        </g>
    </g>
</svg>
