<?xml version="1.0" encoding="UTF-8" standalone="no"?>
<!DOCTYPE svg PUBLIC "-//W3C//DTD SVG 1.1//EN" "http://www.w3.org/Graphics/SVG/1.1/DTD/svg11.dtd">
<svg width="100%" height="100%" viewBox="0 0 512 512" version="1.1" xmlns="http://www.w3.org/2000/svg" xmlns:xlink="http://www.w3.org/1999/xlink" xml:space="preserve" xmlns:serif="http://www.serif.com/" style="fill-rule:evenodd;clip-rule:evenodd;stroke-linejoin:round;stroke-miterlimit:2;">
    <g id="CleaveIcon" transform="matrix(2.34223,0,0,2.34223,-6923.12,-1479.98)">
        <g transform="matrix(1,0,0,1,0,-5.84437)">
            <path d="M3080.1,757.864L3080.1,787.661L3055.35,787.661L3055.35,761.674C3062.41,761.641 3069.63,760.71 3076.85,758.795C3077.94,758.504 3079.03,758.194 3080.1,757.864Z" style="fill:white;"/>
        </g>
        <path d="M3068.79,843.525L3034.46,818.586L3047.57,778.234L3090,778.234L3103.12,818.586L3068.79,843.525ZM3068.79,794.668C3075.98,794.668 3081.82,800.507 3081.82,807.699C3081.82,814.891 3075.98,820.73 3068.79,820.73C3061.6,820.73 3055.76,814.891 3055.76,807.699C3055.76,800.507 3061.6,794.668 3068.79,794.668Z" style="fill:white;"/>
        <path d="M3045.19,720.672C3054.89,743.553 3105.2,714.967 3095.91,683.608C3089.35,661.442 3061.71,648.352 3031.57,655.71C3022.72,657.871 3014.74,661.485 3008.03,666.081C3012.32,660.516 3017.71,655.56 3023.97,651.515C3030.41,646.934 3037.9,643.36 3046.18,641.164C3079.27,632.378 3112.56,648.936 3120.45,678.116C3128.34,707.296 3107.88,738.119 3074.78,746.904C3064.69,749.581 3054.59,749.905 3045.19,748.236L3045.19,720.672Z" style="fill:white;"/>
    </g>
</svg>
