<?xml version="1.0" encoding="UTF-8" standalone="no"?>
<!DOCTYPE svg PUBLIC "-//W3C//DTD SVG 1.1//EN" "http://www.w3.org/Graphics/SVG/1.1/DTD/svg11.dtd">
<svg width="100%" height="100%" viewBox="0 0 512 512" version="1.1" xmlns="http://www.w3.org/2000/svg" xmlns:xlink="http://www.w3.org/1999/xlink" xml:space="preserve" xmlns:serif="http://www.serif.com/" style="fill-rule:evenodd;clip-rule:evenodd;stroke-linejoin:round;stroke-miterlimit:2;">
    <g id="ClipIcon" transform="matrix(19.9285,0,0,19.6926,-23179.8,-70804.5)">
        <path d="M1185.95,3609.82L1177.47,3618.22C1177.08,3618.61 1176.44,3618.61 1176.05,3618.22C1175.66,3617.84 1175.66,3617.21 1176.05,3616.82L1181.08,3611.85L1184.54,3608.42C1186.49,3606.49 1186.49,3603.36 1184.54,3601.43C1182.59,3599.49 1179.42,3599.49 1177.47,3601.43L1174.01,3604.85L1169.67,3609.14L1166.86,3611.92C1165.69,3613.08 1165.69,3614.96 1166.86,3616.12C1168.03,3617.28 1169.93,3617.28 1171.1,3616.12L1173.91,3613.34L1175.35,3611.92L1178.3,3609L1180.3,3607.03C1180.69,3606.64 1180.69,3606.01 1180.3,3605.62C1179.9,3605.24 1179.27,3605.24 1178.88,3605.62L1176.89,3607.6L1171.81,3612.62C1171.42,3613.01 1170.79,3613.01 1170.4,3612.62C1170.01,3612.24 1170.01,3611.61 1170.4,3611.22L1177.47,3604.22C1178.64,3603.07 1180.54,3603.07 1181.71,3604.22C1182.88,3605.39 1182.88,3607.26 1181.71,3608.42L1172.52,3617.52C1170.57,3619.45 1167.4,3619.45 1165.45,3617.52C1163.49,3615.59 1163.49,3612.46 1165.45,3610.52L1176.05,3600.03C1178.79,3597.32 1183.22,3597.32 1185.95,3600.03C1188.69,3602.73 1188.69,3607.12 1185.95,3609.82Z" style="fill:white;"/>
    </g>
</svg>
