<?xml version="1.0" encoding="UTF-8" standalone="no"?>
<!DOCTYPE svg PUBLIC "-//W3C//DTD SVG 1.1//EN" "http://www.w3.org/Graphics/SVG/1.1/DTD/svg11.dtd">
<svg width="100%" height="100%" viewBox="0 0 512 512" version="1.1" xmlns="http://www.w3.org/2000/svg" xmlns:xlink="http://www.w3.org/1999/xlink" xml:space="preserve" xmlns:serif="http://www.serif.com/" style="fill-rule:evenodd;clip-rule:evenodd;stroke-linejoin:round;stroke-miterlimit:2;">
    <g id="CloseCircle" transform="matrix(21.4207,0,0,21.4207,-10914.9,-79375.3)">
        <path d="M521.5,3729C515.149,3729 510,3723.85 510,3717.5C510,3711.15 515.149,3706 521.5,3706C527.851,3706 533,3711.15 533,3717.5C533,3723.85 527.851,3729 521.5,3729ZM525.57,3713.41C525.012,3712.86 524.108,3712.86 523.55,3713.41L521.491,3715.47L519.432,3713.41C518.874,3712.86 517.97,3712.86 517.412,3713.41C516.854,3713.97 516.854,3714.87 517.412,3715.43L519.471,3717.49L517.412,3719.55C516.854,3720.11 516.854,3721.01 517.412,3721.57C517.97,3722.13 518.874,3722.13 519.432,3721.57L521.491,3719.51L523.55,3721.57C524.108,3722.13 525.012,3722.13 525.569,3721.57C526.127,3721.01 526.127,3720.11 525.569,3719.55L523.51,3717.49L525.569,3715.43C526.127,3714.87 526.127,3713.97 525.57,3713.41Z" style="fill:white;"/>
    </g>
</svg>
