<?xml version="1.0" encoding="UTF-8" standalone="no"?>
<!DOCTYPE svg PUBLIC "-//W3C//DTD SVG 1.1//EN" "http://www.w3.org/Graphics/SVG/1.1/DTD/svg11.dtd">
<svg width="100%" height="100%" viewBox="0 0 512 512" version="1.1" xmlns="http://www.w3.org/2000/svg" xmlns:xlink="http://www.w3.org/1999/xlink" xml:space="preserve" xmlns:serif="http://www.serif.com/" style="fill-rule:evenodd;clip-rule:evenodd;stroke-linejoin:round;stroke-miterlimit:2;">
    <g id="CoffinIcon" transform="matrix(19.5452,0,0,19.5452,-37925.7,-16977.6)">
        <g transform="matrix(0.806746,0,0,0.806746,324.416,126.184)">
            <path d="M2033.25,942.188C2033.31,941.998 2033.29,941.786 2033.17,941.621C2033.06,941.455 2032.87,941.356 2032.66,941.356C2028.32,941.356 2010.35,941.356 2006.01,941.356C2005.81,941.356 2005.62,941.455 2005.5,941.621C2005.39,941.786 2005.36,941.998 2005.43,942.188C2006.23,944.389 2007.88,949.799 2008.47,951.406C2008.56,951.65 2008.79,951.813 2009.05,951.813L2029.62,951.813C2029.88,951.813 2030.11,951.65 2030.2,951.406C2030.79,949.799 2032.44,944.389 2033.25,942.188Z" style="fill:white;"/>
        </g>
        <g transform="matrix(0.806746,0,0,-0.211385,324.416,1083.17)">
            <path d="M2033.05,944.854C2033.22,944.17 2033.27,943.16 2033.17,942.289C2033.07,941.417 2032.85,940.851 2032.6,940.851C2027.59,940.851 2011.08,940.851 2006.07,940.851C2005.82,940.851 2005.6,941.417 2005.5,942.289C2005.4,943.16 2005.45,944.17 2005.62,944.854C2006.58,948.664 2007.95,954.097 2008.44,956.043C2008.55,956.508 2008.72,956.771 2008.88,956.771C2011.17,956.771 2027.51,956.771 2029.79,956.771C2029.96,956.771 2030.12,956.508 2030.24,956.043C2030.73,954.097 2032.09,948.664 2033.05,944.854Z" style="fill:white;"/>
        </g>
        <g transform="matrix(0.673694,0,0,0.832542,593.421,102.403)">
            <path d="M2019.81,921.659C2019.81,921.445 2019.6,921.271 2019.33,921.271L2018.37,921.271C2018.1,921.271 2017.89,921.445 2017.89,921.659L2017.89,936.929C2017.89,937.143 2018.1,937.318 2018.37,937.318L2019.33,937.318C2019.6,937.318 2019.81,937.143 2019.81,936.929L2019.81,921.659Z" style="fill:white;"/>
        </g>
        <g transform="matrix(4.12518e-17,0.673694,-0.487456,2.9848e-17,2406.5,-487.367)">
            <path d="M2019.81,921.935C2019.81,921.568 2019.6,921.271 2019.33,921.271L2018.37,921.271C2018.1,921.271 2017.89,921.568 2017.89,921.935L2017.89,936.654C2017.89,937.02 2018.1,937.318 2018.37,937.318L2019.33,937.318C2019.6,937.318 2019.81,937.02 2019.81,936.654L2019.81,921.935Z" style="fill:white;"/>
        </g>
    </g>
</svg>
