<?xml version="1.0" encoding="UTF-8" standalone="no"?>
<!DOCTYPE svg PUBLIC "-//W3C//DTD SVG 1.1//EN" "http://www.w3.org/Graphics/SVG/1.1/DTD/svg11.dtd">
<svg width="100%" height="100%" viewBox="0 0 512 512" version="1.1" xmlns="http://www.w3.org/2000/svg" xmlns:xlink="http://www.w3.org/1999/xlink" xml:space="preserve" xmlns:serif="http://www.serif.com/" style="fill-rule:evenodd;clip-rule:evenodd;stroke-linejoin:round;stroke-miterlimit:2;">
    <g id="CoinsSack" transform="matrix(2.63472,0,0,2.50031,-11375.1,-1164.42)">
        <g transform="matrix(0.939664,0,0,0.990178,-5109.7,-2718.45)">
            <path d="M10132.4,3287.84C10132.6,3288.15 10134.2,3289.96 10135,3290.79C10148.3,3305.99 10154.5,3340.49 10150.2,3359.73C10149.2,3364.12 10151.6,3368.31 10155.5,3367.96C10158.8,3367.66 10160.3,3363.5 10160.3,3363.5C10164.6,3345.89 10161.5,3313.58 10152.9,3297.88C10163.4,3305.49 10170.1,3331.82 10173,3344.8C10173,3344.94 10173.1,3345.07 10173.1,3345.21C10173.8,3348.73 10177.5,3350.72 10180.5,3349.43C10183.1,3348.32 10184,3345.25 10183.4,3342.51C10179.8,3325.97 10170.5,3296.88 10157.7,3288.11C10185.6,3290.89 10221,3349.75 10214.2,3377.63C10206.3,3409.84 10170.9,3417.78 10134.7,3417.66C10098.9,3417.55 10062.6,3406.07 10057.3,3377.41C10050.9,3343.32 10088.3,3287.84 10118.9,3287.84L10132.4,3287.84Z" style="fill:white;"/>
        </g>
        <g transform="matrix(1.96493,0,0,1.94002,1299.13,-222.426)">
            <path d="M1572.71,360.428C1576.12,358.418 1580.58,357.199 1585.47,357.199C1590.35,357.199 1594.81,358.418 1598.22,360.428L1592.53,379.238L1602.03,366.13C1602.79,366.537 1603.6,367.07 1604.44,367.766C1607.62,370.417 1608.19,374.471 1608.19,374.471C1608.19,374.471 1600.79,382.469 1597.84,385.654C1597.08,386.477 1596.04,386.94 1594.96,386.94L1575.97,386.94C1574.89,386.94 1573.85,386.477 1573.09,385.654C1570.14,382.469 1562.74,374.471 1562.74,374.471C1562.74,374.471 1563.31,370.417 1566.49,367.766C1567.33,367.07 1568.14,366.537 1568.9,366.13L1578.4,379.238L1572.71,360.428Z" style="fill:white;"/>
        </g>
    </g>
</svg>
