<?xml version="1.0" encoding="UTF-8" standalone="no"?>
<!DOCTYPE svg PUBLIC "-//W3C//DTD SVG 1.1//EN" "http://www.w3.org/Graphics/SVG/1.1/DTD/svg11.dtd">
<svg width="100%" height="100%" viewBox="0 0 512 512" version="1.1" xmlns="http://www.w3.org/2000/svg" xmlns:xlink="http://www.w3.org/1999/xlink" xml:space="preserve" xmlns:serif="http://www.serif.com/" style="fill-rule:evenodd;clip-rule:evenodd;stroke-linejoin:round;stroke-miterlimit:2;">
    <g id="Coins6" transform="matrix(2.68161,0,0,2.54481,-11578.3,-1284.35)">
        <g transform="matrix(0.957992,0,0,1.00949,-4814.27,-3584.25)">
            <path d="M9612.78,4192.8C9618.51,4194.73 9625.05,4195.83 9632,4195.83C9638.36,4195.83 9644.38,4194.91 9649.74,4193.27L9649.74,4208.44C9644.62,4209.99 9638.54,4210.9 9632.03,4210.9C9624.85,4210.9 9618.21,4209.8 9612.78,4207.94L9612.78,4192.8ZM9612.78,4173.27C9618.51,4175.2 9625.05,4176.3 9632,4176.3C9638.36,4176.3 9644.38,4175.38 9649.74,4173.74L9649.74,4188.91C9644.62,4190.46 9638.54,4191.37 9632.03,4191.37C9624.85,4191.37 9618.21,4190.27 9612.78,4188.41L9612.78,4173.27ZM9651.93,4153.49C9650.51,4155.44 9649.74,4157.52 9649.74,4159.69L9649.74,4159.86L9649.74,4159.86L9649.74,4169.38C9644.62,4170.94 9638.54,4171.84 9632.03,4171.84C9624.85,4171.84 9618.21,4170.74 9612.78,4168.88L9612.78,4153.74C9618.51,4155.67 9625.05,4156.77 9632,4156.77C9639.24,4156.77 9646.05,4155.58 9651.93,4153.49ZM9609.5,4132.97C9615.94,4135.67 9623.68,4137.24 9632,4137.24C9645.64,4137.24 9657.71,4133.02 9665.06,4126.55C9665.06,4126.55 9665.11,4136.19 9665.11,4136.48C9665.11,4145.22 9650.29,4152.31 9632.03,4152.31C9624.85,4152.31 9618.21,4151.21 9612.78,4149.35L9612.78,4140.66L9612.78,4140.66L9612.78,4140.49C9612.78,4137.82 9611.61,4135.28 9609.5,4132.97ZM9665.06,4107.02C9665.06,4107.02 9665.11,4116.65 9665.11,4116.95C9665.11,4125.69 9650.29,4132.78 9632.03,4132.78C9613.77,4132.78 9598.94,4125.69 9598.94,4116.95C9598.94,4116.86 9598.94,4107.02 9598.94,4107.02C9606.29,4113.49 9618.36,4117.71 9632,4117.71C9645.64,4117.71 9657.71,4113.49 9665.06,4107.02ZM9665.06,4087.49C9665.06,4087.49 9665.11,4097.13 9665.11,4097.42C9665.11,4106.16 9650.29,4113.25 9632.03,4113.25C9613.77,4113.25 9598.94,4106.16 9598.94,4097.42C9598.94,4097.33 9598.94,4087.49 9598.94,4087.49C9606.29,4093.96 9618.36,4098.18 9632,4098.18C9645.64,4098.18 9657.71,4093.96 9665.06,4087.49ZM9632,4062.06C9650.25,4062.06 9665.06,4069.16 9665.06,4077.89C9665.06,4086.63 9650.25,4093.72 9632,4093.72C9613.76,4093.72 9598.94,4086.63 9598.94,4077.89C9598.94,4069.16 9613.76,4062.06 9632,4062.06Z" style="fill:white;"/>
        </g>
        <g transform="matrix(1.26687,0,0,1.33498,3929.29,-101.222)">
            <g transform="matrix(1,0,0,1,-9055.54,-3270.64)">
                <path d="M9508.32,3816.43C9508.32,3816.43 9508.36,3823.72 9508.36,3823.94C9508.36,3830.55 9497.15,3835.91 9483.34,3835.91C9469.53,3835.91 9458.32,3830.55 9458.32,3823.94C9458.32,3823.88 9458.32,3816.43 9458.32,3816.43C9463.88,3821.33 9473.01,3824.52 9483.32,3824.52C9493.63,3824.52 9502.76,3821.33 9508.32,3816.43Z" style="fill:white;"/>
            </g>
            <g transform="matrix(0.892133,0,0,0.949611,-220.163,-3314.88)">
                <ellipse cx="726.292" cy="4057.9" rx="28.021" ry="12.604" style="fill:white;"/>
            </g>
            <g transform="matrix(1,0,0,1,-9055.54,-3255.87)">
                <path d="M9508.32,3816.43C9508.32,3816.43 9508.36,3823.72 9508.36,3823.94C9508.36,3830.55 9497.15,3835.91 9483.34,3835.91C9469.53,3835.91 9458.32,3830.55 9458.32,3823.94C9458.32,3823.88 9458.32,3816.43 9458.32,3816.43C9463.88,3821.33 9473.01,3824.52 9483.32,3824.52C9493.63,3824.52 9502.76,3821.33 9508.32,3816.43Z" style="fill:white;"/>
            </g>
            <g transform="matrix(1,0,0,1,-9055.54,-3241.1)">
                <path d="M9508.32,3816.43C9508.32,3816.43 9508.36,3823.72 9508.36,3823.94C9508.36,3830.55 9497.15,3835.91 9483.34,3835.91C9469.53,3835.91 9458.32,3830.55 9458.32,3823.94C9458.32,3823.88 9458.32,3816.43 9458.32,3816.43C9463.88,3821.33 9473.01,3824.52 9483.32,3824.52C9493.63,3824.52 9502.76,3821.33 9508.32,3816.43Z" style="fill:white;"/>
            </g>
        </g>
        <g transform="matrix(1.26687,0,0,1.33498,3813.03,-119.554)">
            <g transform="matrix(1,0,0,1,-9055.54,-3270.64)">
                <path d="M9508.32,3816.43C9508.32,3816.43 9508.36,3823.72 9508.36,3823.94C9508.36,3830.55 9497.15,3835.91 9483.34,3835.91C9469.53,3835.91 9458.32,3830.55 9458.32,3823.94C9458.32,3823.88 9458.32,3816.43 9458.32,3816.43C9463.88,3821.33 9473.01,3824.52 9483.32,3824.52C9493.63,3824.52 9502.76,3821.33 9508.32,3816.43Z" style="fill:white;"/>
            </g>
            <g transform="matrix(0.892133,0,0,0.949611,-220.163,-3314.88)">
                <ellipse cx="726.292" cy="4057.9" rx="28.021" ry="12.604" style="fill:white;"/>
            </g>
            <g transform="matrix(1,0,0,1,-9055.54,-3255.87)">
                <path d="M9508.32,3816.43C9508.32,3816.43 9508.36,3823.72 9508.36,3823.94C9508.36,3830.55 9497.15,3835.91 9483.34,3835.91C9469.53,3835.91 9458.32,3830.55 9458.32,3823.94C9458.32,3823.88 9458.32,3816.43 9458.32,3816.43C9463.88,3821.33 9473.01,3824.52 9483.32,3824.52C9493.63,3824.52 9502.76,3821.33 9508.32,3816.43Z" style="fill:white;"/>
            </g>
            <g transform="matrix(1,0,0,1,-9055.54,-3241.1)">
                <path d="M9508.32,3816.43C9508.32,3816.43 9508.36,3823.72 9508.36,3823.94C9508.36,3830.55 9497.15,3835.91 9483.34,3835.91C9469.53,3835.91 9458.32,3830.55 9458.32,3823.94C9458.32,3823.88 9458.32,3816.43 9458.32,3816.43C9463.88,3821.33 9473.01,3824.52 9483.32,3824.52C9493.63,3824.52 9502.76,3821.33 9508.32,3816.43Z" style="fill:white;"/>
            </g>
            <g transform="matrix(1,0,0,1,-9055.54,-3226.33)">
                <path d="M9508.32,3816.43C9508.32,3816.43 9508.36,3823.72 9508.36,3823.94C9508.36,3830.55 9497.15,3835.91 9483.34,3835.91C9469.53,3835.91 9458.32,3830.55 9458.32,3823.94C9458.32,3823.88 9458.32,3816.43 9458.32,3816.43C9463.88,3821.33 9473.01,3824.52 9483.32,3824.52C9493.63,3824.52 9502.76,3821.33 9508.32,3816.43Z" style="fill:white;"/>
            </g>
        </g>
    </g>
</svg>
