<?xml version="1.0" encoding="UTF-8" standalone="no"?>
<!DOCTYPE svg PUBLIC "-//W3C//DTD SVG 1.1//EN" "http://www.w3.org/Graphics/SVG/1.1/DTD/svg11.dtd">
<svg width="100%" height="100%" viewBox="0 0 512 512" version="1.1" xmlns="http://www.w3.org/2000/svg" xmlns:xlink="http://www.w3.org/1999/xlink" xml:space="preserve" xmlns:serif="http://www.serif.com/" style="fill-rule:evenodd;clip-rule:evenodd;stroke-linejoin:round;stroke-miterlimit:2;">
    <g id="Coin-Polygon" serif:id="Coin Polygon" transform="matrix(1.93208,0,0,1.93208,0,0)">
        <g transform="matrix(3.24531e-16,5.3,-5.3,3.24531e-16,265,0)">
            <path d="M25,0L46.651,12.5L46.651,37.5L25,50L3.349,37.5L3.349,12.5L25,0ZM7.349,35.191L25,45.381L42.651,35.191L42.651,14.809L25,4.619L7.349,14.809L7.349,35.191Z" style="fill:white;"/>
        </g>
        <g transform="matrix(5.3,0,0,5.3,0,0)">
            <path d="M41,25L33,38.856L17,38.856L9,25L17,11.144L33,11.144L41,25ZM30.69,31.076C30.672,31.162 30.594,31.214 30.516,31.214L19.492,31.214C19.405,31.214 19.336,31.162 19.318,31.076C19.093,30.018 17.611,23.145 17.23,21.36C17.212,21.29 17.247,21.212 17.299,21.178C17.36,21.134 17.438,21.134 17.498,21.178C18.426,21.802 20.861,23.466 21.485,23.891C21.52,23.917 21.572,23.925 21.615,23.917C21.667,23.908 21.702,23.873 21.728,23.839C22.196,23.085 24.267,19.782 24.839,18.864C24.865,18.82 24.926,18.786 24.987,18.786C25.039,18.786 25.099,18.82 25.125,18.864C25.706,19.782 27.803,23.093 28.271,23.839C28.297,23.882 28.341,23.908 28.384,23.917C28.436,23.925 28.479,23.917 28.523,23.891C29.147,23.466 31.582,21.802 32.51,21.178C32.57,21.134 32.64,21.134 32.7,21.178C32.761,21.212 32.787,21.29 32.77,21.36C32.388,23.145 30.915,30.018 30.69,31.076Z" style="fill:white;"/>
        </g>
    </g>
</svg>
