<?xml version="1.0" encoding="UTF-8" standalone="no"?>
<!DOCTYPE svg PUBLIC "-//W3C//DTD SVG 1.1//EN" "http://www.w3.org/Graphics/SVG/1.1/DTD/svg11.dtd">
<svg width="100%" height="100%" viewBox="0 0 512 512" version="1.1" xmlns="http://www.w3.org/2000/svg" xmlns:xlink="http://www.w3.org/1999/xlink" xml:space="preserve" xmlns:serif="http://www.serif.com/" style="fill-rule:evenodd;clip-rule:evenodd;stroke-linejoin:round;stroke-miterlimit:2;">
    <g id="CoinIcon" transform="matrix(4.02337,0,0,3.81812,-17589.5,-5791.63)">
        <g id="Border" transform="matrix(1.87452,0,0,1.97529,-13425.4,-4334.59)">
            <path d="M9528.23,2965.41C9545.27,2965.41 9559.11,2979.24 9559.11,2996.28C9559.11,3013.32 9545.27,3027.16 9528.23,3027.16C9511.19,3027.16 9497.36,3013.32 9497.36,2996.28C9497.36,2979.24 9511.19,2965.41 9528.23,2965.41ZM9528.23,2971.93C9541.68,2971.93 9552.59,2982.84 9552.59,2996.28C9552.59,3009.72 9541.68,3020.64 9528.23,3020.64C9514.79,3020.64 9503.88,3009.72 9503.88,2996.28C9503.88,2982.84 9514.79,2971.93 9528.23,2971.93Z" style="fill:white;"/>
        </g>
        <g id="Circle" transform="matrix(2.22598,0,0,2.34565,-16651.6,-5425.48)">
            <path d="M9473.16,2971.71C9482.29,2971.71 9489.71,2979.13 9489.71,2988.26C9489.71,2997.4 9482.29,3004.81 9473.16,3004.81C9464.02,3004.81 9456.61,2997.4 9456.61,2988.26C9456.61,2979.13 9464.02,2971.71 9473.16,2971.71ZM9479.72,2995.36C9479.7,2995.46 9479.61,2995.52 9479.52,2995.52C9478.13,2995.52 9468.19,2995.52 9466.8,2995.52C9466.7,2995.52 9466.62,2995.46 9466.6,2995.36C9466.34,2994.14 9464.63,2986.21 9464.19,2984.15C9464.17,2984.07 9464.21,2983.98 9464.27,2983.94C9464.34,2983.89 9464.43,2983.89 9464.5,2983.94C9465.57,2984.66 9468.38,2986.58 9469.1,2987.07C9469.14,2987.1 9469.2,2987.11 9469.25,2987.1C9469.31,2987.09 9469.35,2987.05 9469.38,2987.01C9469.92,2986.14 9472.31,2982.33 9472.97,2981.27C9473,2981.22 9473.07,2981.18 9473.14,2981.18C9473.2,2981.18 9473.27,2981.22 9473.3,2981.27C9473.97,2982.33 9476.39,2986.15 9476.93,2987.01C9476.96,2987.06 9477.01,2987.09 9477.06,2987.1C9477.12,2987.11 9477.17,2987.1 9477.22,2987.07C9477.94,2986.58 9480.75,2984.66 9481.82,2983.94C9481.89,2983.89 9481.97,2983.89 9482.04,2983.94C9482.11,2983.98 9482.14,2984.07 9482.12,2984.15C9481.68,2986.21 9479.98,2994.14 9479.72,2995.36Z" style="fill:white;"/>
        </g>
    </g>
</svg>
