<?xml version="1.0" encoding="UTF-8" standalone="no"?>
<!DOCTYPE svg PUBLIC "-//W3C//DTD SVG 1.1//EN" "http://www.w3.org/Graphics/SVG/1.1/DTD/svg11.dtd">
<svg width="100%" height="100%" viewBox="0 0 512 512" version="1.1" xmlns="http://www.w3.org/2000/svg" xmlns:xlink="http://www.w3.org/1999/xlink" xml:space="preserve" xmlns:serif="http://www.serif.com/" style="fill-rule:evenodd;clip-rule:evenodd;stroke-linejoin:round;stroke-miterlimit:2;">
    <g id="CoinsChest" transform="matrix(2.42866,0,0,2.42866,-3240.12,-2134.33)">
        <g transform="matrix(1.28209,0,0,1.28209,-10932.5,-3292.38)">
            <path d="M9618.13,3310.48L9618.13,3324.99L9576.11,3324.99C9574.73,3324.99 9573.6,3323.86 9573.6,3322.48L9573.6,3312.99C9573.6,3311.61 9574.73,3310.48 9576.11,3310.48L9618.13,3310.48ZM9681.57,3310.48L9723.58,3310.48C9724.97,3310.48 9726.09,3311.61 9726.09,3312.99L9726.09,3322.48C9726.09,3323.86 9724.97,3324.99 9723.58,3324.99L9681.57,3324.99L9681.57,3310.48ZM9618.13,3304.85L9578.28,3304.85L9578.28,3292.73C9578.28,3281.48 9587.41,3272.36 9598.66,3272.36L9700.94,3272.36C9712.24,3272.36 9721.41,3281.53 9721.41,3292.82L9721.41,3304.85L9681.57,3304.85L9681.57,3302.88C9681.57,3301.23 9680.23,3299.89 9678.58,3299.89L9620.82,3299.89C9619.34,3299.89 9618.13,3301.1 9618.13,3302.59L9618.13,3304.85Z" style="fill:white;"/>
        </g>
        <g transform="matrix(1.30992,0,0,1.30992,-11419.6,-3380.9)">
            <path d="M9880.56,3327.45C9882.41,3327.45 9883.91,3328.95 9883.91,3330.79L9883.91,3390.96C9883.91,3392.81 9882.41,3394.3 9880.56,3394.3L9753.01,3394.3C9751.17,3394.3 9749.67,3392.81 9749.67,3390.96L9749.67,3330.79C9749.67,3328.95 9751.17,3327.45 9753.01,3327.45L9785.54,3327.45L9785.54,3338.62C9785.54,3346.24 9791.73,3352.42 9799.35,3352.42L9834.22,3352.42C9841.84,3352.42 9848.03,3346.24 9848.03,3338.62L9848.03,3327.45L9880.56,3327.45Z" style="fill:white;"/>
        </g>
        <g transform="matrix(1.45658,0,0,1.45658,-12617.2,-3873.35)">
            <path d="M9670.78,3308.32C9671.94,3308.32 9672.89,3309.26 9672.89,3310.43L9672.89,3338.01C9672.89,3343.47 9668.45,3347.91 9662.99,3347.91L9637.99,3347.91C9632.53,3347.91 9628.09,3343.47 9628.09,3338.01L9628.09,3310.22C9628.09,3309.17 9628.95,3308.32 9630,3308.32L9670.78,3308.32ZM9650.49,3320.52C9654.68,3320.52 9658.09,3323.92 9658.09,3328.11C9658.09,3332.31 9654.68,3335.71 9650.49,3335.71C9646.3,3335.71 9642.89,3332.31 9642.89,3328.11C9642.89,3323.92 9646.3,3320.52 9650.49,3320.52Z" style="fill:white;"/>
        </g>
    </g>
</svg>
