<?xml version="1.0" encoding="UTF-8" standalone="no"?>
<!DOCTYPE svg PUBLIC "-//W3C//DTD SVG 1.1//EN" "http://www.w3.org/Graphics/SVG/1.1/DTD/svg11.dtd">
<svg width="100%" height="100%" viewBox="0 0 512 512" version="1.1" xmlns="http://www.w3.org/2000/svg" xmlns:xlink="http://www.w3.org/1999/xlink" xml:space="preserve" xmlns:serif="http://www.serif.com/" style="fill-rule:evenodd;clip-rule:evenodd;stroke-linejoin:round;stroke-miterlimit:2;">
    <g id="Coins5" transform="matrix(3.69541,0,0,3.50689,-15945.6,-1866.11)">
        <g transform="matrix(0.957992,0,0,1.00949,-4814.27,-3584.25)">
            <path d="M9609.5,4132.97C9615.94,4135.67 9623.68,4137.24 9632,4137.24C9645.64,4137.24 9657.71,4133.02 9665.06,4126.55C9665.06,4126.55 9665.11,4136.19 9665.11,4136.48C9665.11,4145.22 9650.29,4152.31 9632.03,4152.31C9624.85,4152.31 9618.21,4151.21 9612.78,4149.35L9612.78,4140.66L9612.78,4140.66L9612.78,4140.49C9612.78,4137.82 9611.61,4135.28 9609.5,4132.97ZM9665.06,4107.02C9665.06,4107.02 9665.11,4116.65 9665.11,4116.95C9665.11,4125.69 9650.29,4132.78 9632.03,4132.78C9613.77,4132.78 9598.94,4125.69 9598.94,4116.95C9598.94,4116.86 9598.94,4107.02 9598.94,4107.02C9606.29,4113.49 9618.36,4117.71 9632,4117.71C9645.64,4117.71 9657.71,4113.49 9665.06,4107.02ZM9632.04,4081.26C9650.29,4081.26 9665.1,4088.35 9665.1,4097.09C9665.1,4105.82 9650.29,4112.92 9632.04,4112.92C9613.8,4112.92 9598.98,4105.82 9598.98,4097.09C9598.98,4088.35 9613.8,4081.26 9632.04,4081.26Z" style="fill:white;"/>
        </g>
        <g transform="matrix(1.91977,0,0,2.02297,-13846.8,-7297.97)">
            <path d="M9501.93,3908.41C9504.83,3909.42 9508.17,3910 9511.72,3910C9518.53,3910 9524.55,3907.89 9528.22,3904.66C9528.22,3904.66 9528.25,3909.47 9528.25,3909.62C9528.25,3913.98 9520.85,3917.52 9511.74,3917.52C9508.06,3917.52 9504.67,3916.94 9501.93,3915.97L9501.93,3908.41Z" style="fill:white;"/>
        </g>
        <g transform="matrix(1.91977,0,0,2.02297,-13846.8,-7278.24)">
            <path d="M9501.93,3908.41C9504.83,3909.42 9508.17,3910 9511.72,3910C9518.53,3910 9524.55,3907.89 9528.22,3904.66C9528.22,3904.66 9528.25,3909.47 9528.25,3909.62C9528.25,3913.98 9520.85,3917.52 9511.74,3917.52C9508.06,3917.52 9504.67,3916.94 9501.93,3915.97L9501.93,3908.41Z" style="fill:white;"/>
        </g>
        <g transform="matrix(1.26687,0,0,1.33498,3813.03,-119.554)">
            <g transform="matrix(1,0,0,1,-9055.54,-3270.64)">
                <path d="M9508.32,3816.43C9508.32,3816.43 9508.36,3823.72 9508.36,3823.94C9508.36,3830.55 9497.15,3835.91 9483.34,3835.91C9469.53,3835.91 9458.32,3830.55 9458.32,3823.94C9458.32,3823.88 9458.32,3816.43 9458.32,3816.43C9463.88,3821.33 9473.01,3824.52 9483.32,3824.52C9493.63,3824.52 9502.76,3821.33 9508.32,3816.43Z" style="fill:white;"/>
            </g>
            <g transform="matrix(0.892133,0,0,0.949611,-220.163,-3314.88)">
                <ellipse cx="726.292" cy="4057.9" rx="28.021" ry="12.604" style="fill:white;"/>
            </g>
            <g transform="matrix(1,0,0,1,-9055.54,-3255.87)">
                <path d="M9508.32,3816.43C9508.32,3816.43 9508.36,3823.72 9508.36,3823.94C9508.36,3830.55 9497.15,3835.91 9483.34,3835.91C9469.53,3835.91 9458.32,3830.55 9458.32,3823.94C9458.32,3823.88 9458.32,3816.43 9458.32,3816.43C9463.88,3821.33 9473.01,3824.52 9483.32,3824.52C9493.63,3824.52 9502.76,3821.33 9508.32,3816.43Z" style="fill:white;"/>
            </g>
            <g transform="matrix(1,0,0,1,-9055.54,-3241.1)">
                <path d="M9508.32,3816.43C9508.32,3816.43 9508.36,3823.72 9508.36,3823.94C9508.36,3830.55 9497.15,3835.91 9483.34,3835.91C9469.53,3835.91 9458.32,3830.55 9458.32,3823.94C9458.32,3823.88 9458.32,3816.43 9458.32,3816.43C9463.88,3821.33 9473.01,3824.52 9483.32,3824.52C9493.63,3824.52 9502.76,3821.33 9508.32,3816.43Z" style="fill:white;"/>
            </g>
        </g>
    </g>
</svg>
