<?xml version="1.0" encoding="UTF-8" standalone="no"?>
<!DOCTYPE svg PUBLIC "-//W3C//DTD SVG 1.1//EN" "http://www.w3.org/Graphics/SVG/1.1/DTD/svg11.dtd">
<svg width="100%" height="100%" viewBox="0 0 512 512" version="1.1" xmlns="http://www.w3.org/2000/svg" xmlns:xlink="http://www.w3.org/1999/xlink" xml:space="preserve" xmlns:serif="http://www.serif.com/" style="fill-rule:evenodd;clip-rule:evenodd;stroke-linejoin:round;stroke-miterlimit:2;">
    <g id="CompassIcon" transform="matrix(3.83468,0,0,3.63905,-16243.3,-872.31)">
        <g transform="matrix(0.930651,0,0,0.98068,3603.9,-2816.75)">
            <path d="M750.833,3121.71C757.221,3121.71 762.407,3126.9 762.407,3133.29C762.407,3139.67 757.221,3144.86 750.833,3144.86C744.446,3144.86 739.26,3139.67 739.26,3133.29C739.26,3126.9 744.446,3121.71 750.833,3121.71ZM750.833,3127.5C754.027,3127.5 756.62,3130.09 756.62,3133.29C756.62,3136.48 754.027,3139.07 750.833,3139.07C747.639,3139.07 745.046,3136.48 745.046,3133.29C745.046,3130.09 747.639,3127.5 750.833,3127.5Z" style="fill:white;"/>
        </g>
        <g transform="matrix(1.49081,0,0,1.57096,2286.02,-851.518)">
            <path d="M1352.71,704.788C1373.76,704.788 1390.84,721.871 1390.84,742.913C1390.84,763.954 1373.76,781.037 1352.71,781.037C1331.67,781.037 1314.59,763.954 1314.59,742.913C1314.59,721.871 1331.67,704.788 1352.71,704.788ZM1352.71,712.911C1369.15,712.911 1382.5,726.258 1382.5,742.697C1382.5,759.136 1369.15,772.482 1352.71,772.482C1336.28,772.482 1322.93,759.136 1322.93,742.697C1322.93,726.258 1336.28,712.911 1352.71,712.911Z" style="fill:white;"/>
        </g>
        <g transform="matrix(0.763324,0,0,0.763324,1018.34,74.6064)">
            <g>
                <g transform="matrix(0.957992,0,0,-1.00949,3582.07,3424.58)">
                    <path d="M751.105,3133.06C751.322,3132.66 751.742,3132.41 752.198,3132.41C752.654,3132.41 753.074,3132.66 753.291,3133.06C755.362,3136.88 759.652,3144.79 759.652,3144.79L744.744,3144.79C744.744,3144.79 749.034,3136.88 751.105,3133.06Z" style="fill:white;"/>
                </g>
                <g transform="matrix(0.957992,0,0,1.00949,3582.07,-2794.13)">
                    <path d="M751.105,3133.06C751.322,3132.66 751.742,3132.41 752.198,3132.41C752.654,3132.41 753.074,3132.66 753.291,3133.06C755.362,3136.88 759.652,3144.79 759.652,3144.79L744.744,3144.79C744.744,3144.79 749.034,3136.88 751.105,3133.06Z" style="fill:white;"/>
                </g>
            </g>
            <g transform="matrix(6.12323e-17,1.05376,-0.948985,6.12323e-17,4601.81,-4218.74)">
                <g transform="matrix(0.957992,1.23627e-16,1.1732e-16,-1.00949,3582.07,3424.58)">
                    <path d="M751.105,3133.06C751.322,3132.66 751.742,3132.41 752.198,3132.41C752.654,3132.41 753.074,3132.66 753.291,3133.06C755.362,3136.88 759.652,3144.79 759.652,3144.79L744.744,3144.79C744.744,3144.79 749.034,3136.88 751.105,3133.06Z" style="fill:white;"/>
                </g>
                <g transform="matrix(0.957992,1.23627e-16,-1.1732e-16,1.00949,3582.07,-2794.13)">
                    <path d="M751.105,3133.06C751.322,3132.66 751.742,3132.41 752.198,3132.41C752.654,3132.41 753.074,3132.66 753.291,3133.06C755.362,3136.88 759.652,3144.79 759.652,3144.79L744.744,3144.79C744.744,3144.79 749.034,3136.88 751.105,3133.06Z" style="fill:white;"/>
                </g>
            </g>
        </g>
        <g transform="matrix(1.47739,0,0,1.55681,2304.18,-841.011)">
            <path d="M1352.71,719.762C1365.37,719.762 1375.65,730.039 1375.65,742.697C1375.65,755.355 1365.37,765.631 1352.71,765.631C1340.06,765.631 1329.78,755.355 1329.78,742.697C1329.78,730.039 1340.06,719.762 1352.71,719.762ZM1358.44,740.148L1363.17,725.033C1363.2,724.931 1363.16,724.821 1363.07,724.768C1362.97,724.715 1362.86,724.733 1362.79,724.811L1352.06,736.463C1348.91,736.792 1346.45,739.459 1346.45,742.697C1346.45,743.604 1346.64,744.466 1346.99,745.245L1342.26,760.361C1342.23,760.462 1342.27,760.572 1342.36,760.625C1342.46,760.678 1342.57,760.66 1342.64,760.582L1353.37,748.93C1356.52,748.602 1358.98,745.934 1358.98,742.697C1358.98,741.789 1358.79,740.927 1358.44,740.148Z" style="fill:rgb(246,248,248);"/>
        </g>
    </g>
</svg>
