<?xml version="1.0" encoding="UTF-8" standalone="no"?>
<!DOCTYPE svg PUBLIC "-//W3C//DTD SVG 1.1//EN" "http://www.w3.org/Graphics/SVG/1.1/DTD/svg11.dtd">
<svg width="100%" height="100%" viewBox="0 0 512 512" version="1.1" xmlns="http://www.w3.org/2000/svg" xmlns:xlink="http://www.w3.org/1999/xlink" xml:space="preserve" xmlns:serif="http://www.serif.com/" style="fill-rule:evenodd;clip-rule:evenodd;stroke-linejoin:round;stroke-miterlimit:2;">
    <g id="Cooking-Pot-Icon" serif:id="Cooking Pot Icon" transform="matrix(7.01667,0,0,7.01667,-12883.9,-2452.58)">
        <path d="M1867,420.725L1863.02,420.725L1864.99,413.453C1865.9,413.795 1867.78,414.066 1868.75,414.257L1867,420.725ZM1889.4,420.725L1885.42,420.725L1883.66,414.25C1884.64,414.057 1886.52,413.784 1887.42,413.44L1889.4,420.725ZM1880.65,412.796L1871.77,412.796C1863.19,412.796 1856.23,405.914 1856.23,397.438L1856.23,383.693L1896.19,383.693L1896.19,397.438C1896.19,405.914 1889.23,412.796 1880.65,412.796ZM1899.22,375.633C1899.78,375.633 1900.24,376.087 1900.24,376.646L1900.24,380.673C1900.24,381.232 1899.78,381.687 1899.22,381.687L1853.66,381.687C1853.1,381.687 1852.65,381.232 1852.65,380.673L1852.65,376.646C1852.65,376.087 1853.1,375.633 1853.66,375.633L1899.22,375.633ZM1863.68,373.655L1860.2,373.655L1845.28,358.905C1845.04,358.668 1845.04,358.284 1845.28,358.047L1846.14,357.189C1846.38,356.952 1846.77,356.952 1847.01,357.189L1863.68,373.655ZM1866.43,362.846C1868.84,362.846 1870.8,364.779 1870.8,367.16C1870.8,369.541 1868.84,371.473 1866.43,371.473C1864.02,371.473 1862.07,369.541 1862.07,367.16C1862.07,364.779 1864.02,362.846 1866.43,362.846ZM1884.61,364.679C1886.41,364.679 1887.88,366.127 1887.88,367.91C1887.88,369.693 1886.41,371.141 1884.61,371.141C1882.81,371.141 1881.34,369.693 1881.34,367.91C1881.34,366.127 1882.81,364.679 1884.61,364.679ZM1876.54,365.12C1877.55,365.12 1878.37,365.931 1878.37,366.929C1878.37,367.928 1877.55,368.738 1876.54,368.738C1875.53,368.738 1874.71,367.928 1874.71,366.929C1874.71,365.931 1875.53,365.12 1876.54,365.12ZM1874.48,356.414C1875.56,356.414 1876.43,357.279 1876.43,358.343C1876.43,359.408 1875.56,360.272 1874.48,360.272C1873.4,360.272 1872.53,359.408 1872.53,358.343C1872.53,357.279 1873.4,356.414 1874.48,356.414ZM1883.26,351.316C1884.84,351.316 1886.12,352.582 1886.12,354.141C1886.12,355.701 1884.84,356.967 1883.26,356.967C1881.68,356.967 1880.4,355.701 1880.4,354.141C1880.4,352.582 1881.68,351.316 1883.26,351.316Z" style="fill:white;"/>
    </g>
</svg>
