<?xml version="1.0" encoding="UTF-8" standalone="no"?>
<!DOCTYPE svg PUBLIC "-//W3C//DTD SVG 1.1//EN" "http://www.w3.org/Graphics/SVG/1.1/DTD/svg11.dtd">
<svg width="100%" height="100%" viewBox="0 0 512 512" version="1.1" xmlns="http://www.w3.org/2000/svg" xmlns:xlink="http://www.w3.org/1999/xlink" xml:space="preserve" xmlns:serif="http://www.serif.com/" style="fill-rule:evenodd;clip-rule:evenodd;stroke-linejoin:round;stroke-miterlimit:2;">
    <g transform="matrix(0.346229,0,0,0.328231,29.133,13.5254)">
        <g id="CreditCardIcon" transform="matrix(9.58153,0,0,10.1069,-8160.04,-12450.8)">
            <g transform="matrix(0.600857,0,0,0.591612,333.01,646.751)">
                <path d="M1094.31,1064.52C1094.31,1046.14 1079.62,1031.22 1061.53,1031.22L892.418,1031.22C874.323,1031.22 859.632,1046.14 859.632,1064.52L859.632,1160.77C859.632,1179.15 874.323,1194.07 892.418,1194.07C892.418,1194.07 1061.53,1194.07 1061.53,1194.07C1079.62,1194.07 1094.31,1179.15 1094.31,1160.77C1094.31,1160.77 1094.31,1064.52 1094.31,1064.52ZM1079.68,1064.52L1079.68,1160.77C1079.68,1170.94 1071.54,1179.2 1061.53,1179.2L892.418,1179.2C882.402,1179.2 874.269,1170.94 874.269,1160.77C874.269,1160.77 874.269,1064.52 874.269,1064.52C874.269,1054.35 882.402,1046.09 892.418,1046.09C892.418,1046.09 1061.53,1046.09 1061.53,1046.09C1071.54,1046.09 1079.68,1054.35 1079.68,1064.52Z" style="fill:white;"/>
            </g>
            <g transform="matrix(0.629865,0,0,0.629865,304.808,604.814)">
                <rect x="873.101" y="1074.25" width="205.905" height="21.279" style="fill:white;"/>
            </g>
            <g transform="matrix(0.629865,0,0,0.629865,304.808,604.814)">
                <path d="M942.846,1148.67C942.846,1146.44 941.041,1144.64 938.819,1144.64L897.542,1144.64C895.319,1144.64 893.515,1146.44 893.515,1148.67L893.515,1156.72C893.515,1158.94 895.319,1160.75 897.542,1160.75L938.819,1160.75C941.041,1160.75 942.846,1158.94 942.846,1156.72L942.846,1148.67Z" style="fill:white;"/>
            </g>
            <g transform="matrix(0.629865,0,0,0.629865,304.808,604.814)">
                <circle cx="1016.58" cy="1139.83" r="19.605" style="fill:white;"/>
            </g>
            <g transform="matrix(0.629865,0,0,0.629865,319.479,604.814)">
                <circle cx="1016.58" cy="1139.83" r="19.605" style="fill:white;"/>
            </g>
        </g>
    </g>
</svg>
