<?xml version="1.0" encoding="UTF-8" standalone="no"?>
<!DOCTYPE svg PUBLIC "-//W3C//DTD SVG 1.1//EN" "http://www.w3.org/Graphics/SVG/1.1/DTD/svg11.dtd">
<svg width="100%" height="100%" viewBox="0 0 512 512" version="1.1" xmlns="http://www.w3.org/2000/svg" xmlns:xlink="http://www.w3.org/1999/xlink" xml:space="preserve" xmlns:serif="http://www.serif.com/" style="fill-rule:evenodd;clip-rule:evenodd;stroke-linejoin:round;stroke-miterlimit:2;">
    <g id="CrossingIcon" transform="matrix(11.3603,0,0,11.3603,-20511.7,-4948.25)">
        <path d="M1816.28,469.469C1816.66,456.619 1827.15,447.287 1840.06,447.144L1840.06,442.058L1849.62,451.17L1840.06,460.281L1840.06,454.588C1831.21,454.73 1824.03,460.806 1823.72,469.615C1823.73,469.712 1823.68,470.415 1823.68,470.415C1823.57,472.334 1822.06,474.154 1819.99,474.154C1817.93,474.154 1816.25,472.479 1816.25,470.415C1816.25,470.415 1816.26,469.613 1816.28,469.469ZM1832.44,469.49C1832.3,466.234 1831.23,464.219 1829.47,461.709C1830.32,460.302 1833.51,457.901 1835.66,457.566C1838.27,461.36 1839.83,464.804 1839.89,469.743L1839.89,470.415C1839.89,472.479 1838.22,474.154 1836.16,474.154C1834.09,474.154 1832.48,472.479 1832.48,470.415C1832.48,470.415 1832.42,469.627 1832.44,469.49ZM1819.57,455.008C1818.46,454.751 1817.3,454.607 1816.11,454.588L1816.11,460.281L1806.55,451.17L1816.11,442.058L1816.11,447.144C1819.55,447.182 1822.82,447.944 1825.77,449.284C1823.18,450.467 1820.64,453.317 1819.57,455.008Z" style="fill:white;"/>
    </g>
</svg>
