<?xml version="1.0" encoding="UTF-8" standalone="no"?>
<!DOCTYPE svg PUBLIC "-//W3C//DTD SVG 1.1//EN" "http://www.w3.org/Graphics/SVG/1.1/DTD/svg11.dtd">
<svg width="100%" height="100%" viewBox="0 0 512 512" version="1.1" xmlns="http://www.w3.org/2000/svg" xmlns:xlink="http://www.w3.org/1999/xlink" xml:space="preserve" xmlns:serif="http://www.serif.com/" style="fill-rule:evenodd;clip-rule:evenodd;stroke-linejoin:round;stroke-miterlimit:2;">
    <g id="CrystalBallIcon" transform="matrix(6.23408,0,0,5.91605,-26462.6,-5778.19)">
        <g transform="matrix(1.12759,0,0,1.1882,-6350.9,-3644.43)">
            <path d="M9416.55,3942.62C9421.32,3945.82 9427.06,3947.69 9433.23,3947.69C9439.4,3947.69 9445.13,3945.82 9449.9,3942.62L9449.9,3952.99C9449.9,3955.81 9447.61,3958.11 9444.79,3958.11L9421.66,3958.11C9418.84,3958.11 9416.55,3955.81 9416.55,3952.99L9416.55,3942.62Z" style="fill:white;"/>
        </g>
        <g transform="matrix(0.957992,0,0,1.00949,-4805.23,-2943.26)">
            <path d="M9489.77,3886.35C9506.51,3886.35 9520.1,3899.94 9520.1,3916.68C9520.1,3933.42 9506.51,3947.01 9489.77,3947.01C9473.03,3947.01 9459.44,3933.42 9459.44,3916.68C9459.44,3899.94 9473.03,3886.35 9489.77,3886.35ZM9489.92,3892.57C9491.86,3892.73 9491.87,3893.39 9492.19,3894.21C9492.86,3895.91 9491.46,3897.7 9489.16,3897.76C9479.48,3898.1 9470.85,3906.82 9470.85,3916.68C9470.85,3916.68 9470.78,3918.01 9469.83,3918.74C9468.2,3920 9465.61,3918.88 9465.66,3916.07C9466.04,3903.71 9476.76,3892.69 9489.62,3892.56C9489.77,3892.56 9489.77,3892.56 9489.92,3892.57Z" style="fill:white;"/>
        </g>
        <g transform="matrix(0.957992,0,0,0.937393,3583.73,-2623.16)">
            <path d="M756.351,3924.65C756.351,3922.19 754.495,3920.19 752.21,3920.19L713.679,3920.19C711.393,3920.19 709.538,3922.19 709.538,3924.65C709.538,3927.11 711.393,3929.11 713.679,3929.11L752.21,3929.11C754.495,3929.11 756.351,3927.11 756.351,3924.65Z" style="fill:white;"/>
        </g>
    </g>
</svg>
