<?xml version="1.0" encoding="UTF-8" standalone="no"?>
<!DOCTYPE svg PUBLIC "-//W3C//DTD SVG 1.1//EN" "http://www.w3.org/Graphics/SVG/1.1/DTD/svg11.dtd">
<svg width="100%" height="100%" viewBox="0 0 512 512" version="1.1" xmlns="http://www.w3.org/2000/svg" xmlns:xlink="http://www.w3.org/1999/xlink" xml:space="preserve" xmlns:serif="http://www.serif.com/" style="fill-rule:evenodd;clip-rule:evenodd;stroke-linejoin:round;stroke-miterlimit:2;">
    <g id="CubeIcon" transform="matrix(5.19553,0,0,5.18702,-5342.71,-5837.34)">
        <g transform="matrix(0.582756,-0.337007,0.582756,0.337007,-236.687,1118.51)">
            <path d="M1112.04,1143.37C1112.04,1143.16 1111.91,1143.04 1111.71,1143.04L1048.23,1143.04C1048.02,1143.04 1047.77,1143.16 1047.57,1143.37C1047.36,1143.57 1047.24,1143.82 1047.24,1144.03L1047.24,1207.51C1047.24,1207.71 1047.36,1207.84 1047.57,1207.84L1111.05,1207.84C1111.25,1207.84 1111.5,1207.71 1111.71,1207.51C1111.91,1207.3 1112.04,1207.05 1112.04,1206.85L1112.04,1143.37Z" style="fill:white;"/>
        </g>
        <g transform="matrix(0.582756,0.337007,0,0.674014,426.286,31.6406)">
            <path d="M1112.04,1143.37C1112.04,1143.16 1111.91,1143.04 1111.71,1143.04L1048.23,1143.04C1048.02,1143.04 1047.77,1143.16 1047.57,1143.37C1047.36,1143.57 1047.24,1143.82 1047.24,1144.03L1047.24,1207.51C1047.24,1207.71 1047.36,1207.84 1047.57,1207.84L1111.05,1207.84C1111.25,1207.84 1111.5,1207.71 1111.71,1207.51C1111.91,1207.3 1112.04,1207.05 1112.04,1206.85L1112.04,1143.37Z" style="fill:white;"/>
        </g>
        <g transform="matrix(-0.582756,0.337007,0,0.674014,1728.92,31.6406)">
            <path d="M1112.04,1143.37C1112.04,1143.16 1111.91,1143.04 1111.71,1143.04L1048.23,1143.04C1048.02,1143.04 1047.77,1143.16 1047.57,1143.37C1047.36,1143.57 1047.24,1143.82 1047.24,1144.03L1047.24,1207.51C1047.24,1207.71 1047.36,1207.84 1047.57,1207.84L1111.05,1207.84C1111.25,1207.84 1111.5,1207.71 1111.71,1207.51C1111.91,1207.3 1112.04,1207.05 1112.04,1206.85L1112.04,1143.37Z" style="fill:white;"/>
        </g>
    </g>
</svg>
