<?xml version="1.0" encoding="UTF-8" standalone="no"?>
<!DOCTYPE svg PUBLIC "-//W3C//DTD SVG 1.1//EN" "http://www.w3.org/Graphics/SVG/1.1/DTD/svg11.dtd">
<svg width="100%" height="100%" viewBox="0 0 512 512" version="1.1" xmlns="http://www.w3.org/2000/svg" xmlns:xlink="http://www.w3.org/1999/xlink" xml:space="preserve" xmlns:serif="http://www.serif.com/" style="fill-rule:evenodd;clip-rule:evenodd;stroke-linejoin:round;stroke-miterlimit:2;">
    <g id="CupIcon" transform="matrix(2.75889,0,0,2.81123,-2804.98,-1257.48)">
        <g transform="matrix(0.792071,0,0,0.599241,229.632,220.677)">
            <path d="M1125.6,552.725C1125.6,552.57 1125.5,552.445 1125.38,552.445L1101.04,552.445C1100.92,552.445 1100.82,552.57 1100.82,552.725L1100.82,621.582C1100.82,621.736 1100.92,621.862 1101.04,621.862L1125.38,621.862C1125.5,621.862 1125.6,621.736 1125.6,621.582L1125.6,552.725Z" style="fill:white;"/>
        </g>
        <g transform="matrix(0.483565,0,0,-0.295979,572.885,795.252)">
            <path d="M1178.52,596.867C1178.52,596.512 1178.34,596.223 1178.12,596.223L1046.4,596.223C1046.18,596.223 1046,596.512 1046,596.867L1046,659.593C1046,659.948 1046.18,660.236 1046.4,660.236L1178.12,660.236C1178.34,660.236 1178.52,659.948 1178.52,659.593L1178.52,596.867Z" style="fill:white;"/>
        </g>
        <g transform="matrix(3.92532,0,0,3.85224,-36259.2,-17162.6)">
            <path d="M9535.19,4578.64C9535.82,4578.65 9536.46,4578.65 9537.1,4578.66C9539.76,4578.76 9542.06,4581.02 9542.16,4583.73C9542.24,4589.99 9538.57,4596.06 9532.67,4597.06C9533.26,4596.2 9533.76,4595.28 9534.16,4594.31C9535.07,4593.99 9535.91,4593.54 9536.67,4592.92C9539.18,4590.84 9539.97,4587.58 9539.92,4583.78C9539.86,4582.27 9538.56,4580.96 9537.04,4580.9C9536.42,4580.9 9535.81,4580.89 9535.19,4580.88L9535.19,4578.64ZM9505.13,4578.64L9505.13,4580.9C9504.4,4580.9 9503.66,4580.9 9502.93,4580.9C9501.38,4580.93 9500.02,4582.23 9499.96,4583.78C9499.91,4588.47 9502.2,4593.08 9506.24,4594.51C9506.61,4595.39 9507.07,4596.22 9507.61,4597C9505.43,4596.68 9503.43,4596.01 9501.79,4594.65C9498.62,4592.03 9497.29,4587.8 9497.75,4583.33C9498,4580.86 9500.23,4578.76 9502.78,4578.66C9503.57,4578.65 9504.35,4578.64 9505.13,4578.64Z" style="fill:white;"/>
        </g>
        <g transform="matrix(0.933477,0,0,0.878299,52.7754,54.1064)">
            <path d="M1187.24,472.943L1078.9,472.943L1078.9,525.707C1078.9,555.603 1103.17,579.874 1133.07,579.874C1162.96,579.874 1187.24,555.603 1187.24,525.707L1187.24,472.943Z" style="fill:white;"/>
        </g>
        <g transform="matrix(0.4258,0,0,0.440168,807.358,358.828)">
            <path d="M835.302,225.612C835.302,225.386 835.109,225.203 834.871,225.203L584.852,225.203C584.614,225.203 584.421,225.386 584.421,225.612L584.421,242.926C584.421,243.152 584.614,243.335 584.852,243.335L834.871,243.335C835.109,243.335 835.302,243.152 835.302,242.926L835.302,225.612Z" style="fill:white;"/>
        </g>
    </g>
</svg>
