<?xml version="1.0" encoding="UTF-8" standalone="no"?>
<!DOCTYPE svg PUBLIC "-//W3C//DTD SVG 1.1//EN" "http://www.w3.org/Graphics/SVG/1.1/DTD/svg11.dtd">
<svg width="100%" height="100%" viewBox="0 0 512 512" version="1.1" xmlns="http://www.w3.org/2000/svg" xmlns:xlink="http://www.w3.org/1999/xlink" xml:space="preserve" xmlns:serif="http://www.serif.com/" style="fill-rule:evenodd;clip-rule:evenodd;stroke-linejoin:round;stroke-miterlimit:2;">
    <g id="CupIcon" transform="matrix(8.16156,0,0,7.7452,-39420.5,-2664.72)">
        <g transform="matrix(1.08342,0,0,1.14167,4309.73,-4936.97)">
            <path d="M526.465,4638.11C529.03,4638.13 531.595,4638.17 534.16,4638.17C535.654,4638.22 535.93,4639.95 535.93,4639.95C536.064,4644.88 534.795,4650.28 531.602,4654.31C528.924,4657.69 525.121,4659.41 521.083,4659.95C521.937,4658.73 522.663,4657.37 523.278,4655.9C527.354,4654.43 530.392,4650.7 531.545,4646.56C531.643,4646.21 531.733,4645.85 531.814,4645.5C532.097,4644.25 532.28,4642.98 532.356,4641.71L526.263,4641.71C526.356,4640.51 526.421,4639.3 526.465,4638.11ZM491.883,4638.11C491.924,4639.31 491.987,4640.51 492.077,4641.71L485.999,4641.71C486.076,4642.98 486.259,4644.25 486.542,4645.5C486.623,4645.85 486.713,4646.21 486.811,4646.56C487.96,4650.69 490.977,4654.4 495.027,4655.88C495.642,4657.35 496.368,4658.72 497.224,4659.95C493.204,4659.4 489.421,4657.68 486.754,4654.31C483.561,4650.28 482.292,4644.88 482.426,4639.95C482.426,4639.95 482.701,4638.22 484.196,4638.17C486.758,4638.17 489.321,4638.13 491.883,4638.11Z" style="fill:white;"/>
        </g>
        <g transform="matrix(0.579258,0,0,0.756877,4045.78,-2085.21)">
            <rect x="1403.45" y="3265.78" width="9.157" height="10.647" style="fill:white;"/>
        </g>
        <g transform="matrix(0.876302,0,0,2.0057,3627.28,-6174.9)">
            <path d="M1425.73,3254.29C1426.28,3254.29 1426.72,3254.49 1426.73,3254.74C1426.99,3261.84 1425.3,3271.79 1408.31,3271.79C1391.33,3271.79 1389.6,3261.97 1389.9,3254.74C1389.91,3254.49 1390.35,3254.29 1390.9,3254.29C1396.11,3254.29 1420.52,3254.29 1425.73,3254.29Z" style="fill:white;"/>
        </g>
        <g transform="matrix(0.873357,0,0,0.920307,3631.38,-2619.87)">
            <path d="M1421.31,3280.49C1421.31,3278.81 1419.95,3277.46 1418.28,3277.46L1398.46,3277.46C1396.79,3277.46 1395.44,3278.81 1395.44,3280.49C1395.44,3282.16 1396.79,3283.51 1398.46,3283.51L1418.28,3283.51C1419.95,3283.51 1421.31,3282.16 1421.31,3280.49Z" style="fill:white;"/>
        </g>
    </g>
</svg>
