<?xml version="1.0" encoding="UTF-8" standalone="no"?>
<!DOCTYPE svg PUBLIC "-//W3C//DTD SVG 1.1//EN" "http://www.w3.org/Graphics/SVG/1.1/DTD/svg11.dtd">
<svg width="100%" height="100%" viewBox="0 0 512 512" version="1.1" xmlns="http://www.w3.org/2000/svg" xmlns:xlink="http://www.w3.org/1999/xlink" xml:space="preserve" xmlns:serif="http://www.serif.com/" style="fill-rule:evenodd;clip-rule:evenodd;stroke-linejoin:round;stroke-miterlimit:2;">
    <g id="DemonIcon" transform="matrix(4.075,0,0,4.02677,-691.081,-2574.39)">
        <path d="M253.673,682.179C260.397,687.092 272.002,686.87 275.648,680.773C278.281,676.372 277.597,668.725 280.905,666.776C286.996,663.188 295.243,688.126 282.836,699.673C275.732,706.284 267.173,707.605 261.153,707.527C259.1,715.826 253.038,722.696 244.981,726.254L244.981,737.475C244.981,738.517 244.135,739.364 243.093,739.364L239.316,739.364C238.274,739.364 237.428,738.517 237.428,737.475L237.428,733.415L236.189,733.415L236.189,737.475C236.189,738.517 235.343,739.364 234.301,739.364L230.524,739.364C229.482,739.364 228.636,738.517 228.636,737.475L228.636,733.415L227.397,733.415L227.397,737.475C227.397,738.517 226.551,739.364 225.508,739.364L221.732,739.364C220.689,739.364 219.843,738.517 219.843,737.475L219.843,726.254C211.786,722.696 205.724,715.826 203.672,707.527C197.652,707.605 189.093,706.284 181.989,699.673C169.581,688.126 177.829,663.188 183.919,666.776C187.228,668.725 186.544,676.372 189.177,680.773C192.823,686.87 204.427,687.092 211.152,682.179C216.521,676.958 224.064,673.708 232.412,673.708C240.761,673.708 248.304,676.958 253.673,682.179ZM228.676,721.63L236.149,721.63L232.412,715.757L228.676,721.63ZM211.299,706.367C211.263,706.538 211.244,706.63 211.244,706.63C211.244,706.63 211.146,706.656 210.96,706.7C211.11,709.876 214.088,713.011 218.335,714.149C222.771,715.338 227.098,713.947 228.662,711.019L211.299,706.367ZM253.525,706.367L236.163,711.019C237.727,713.947 242.053,715.338 246.49,714.149C250.736,713.011 253.714,709.876 253.865,706.7C253.679,706.656 253.581,706.63 253.581,706.63C253.581,706.63 253.561,706.538 253.525,706.367Z" style="fill:white;"/>
    </g>
</svg>
