<?xml version="1.0" encoding="UTF-8" standalone="no"?>
<!DOCTYPE svg PUBLIC "-//W3C//DTD SVG 1.1//EN" "http://www.w3.org/Graphics/SVG/1.1/DTD/svg11.dtd">
<svg width="100%" height="100%" viewBox="0 0 512 512" version="1.1" xmlns="http://www.w3.org/2000/svg" xmlns:xlink="http://www.w3.org/1999/xlink" xml:space="preserve" xmlns:serif="http://www.serif.com/" style="fill-rule:evenodd;clip-rule:evenodd;stroke-linejoin:round;stroke-miterlimit:2;">
    <g id="DiceIcon" transform="matrix(8.60876,0,0,8.60876,-1389.55,-9100.82)">
        <path d="M166.035,1101.37C166.035,1101.98 166.357,1102.53 166.878,1102.84C170.103,1104.7 181.728,1111.41 186.916,1114.4C187.438,1114.7 188.082,1114.7 188.604,1114.4C189.125,1114.1 189.447,1113.55 189.447,1112.94L189.447,1089.98C189.447,1089.38 189.125,1088.82 188.604,1088.52C185.379,1086.65 173.754,1079.94 168.565,1076.95C168.044,1076.65 167.4,1076.65 166.878,1076.95C166.357,1077.25 166.035,1077.81 166.035,1078.41L166.035,1101.37ZM213.718,1076.84C214.239,1076.54 214.882,1076.54 215.404,1076.84C215.926,1077.14 216.248,1077.7 216.248,1078.3C216.251,1084.26 216.259,1097.55 216.261,1101.26C216.261,1101.86 215.939,1102.42 215.417,1102.72C212.172,1104.59 200.417,1111.38 195.197,1114.39C194.675,1114.69 194.032,1114.69 193.51,1114.39C192.988,1114.09 192.667,1113.54 192.666,1112.93C192.661,1106.98 192.651,1093.68 192.648,1089.98C192.647,1089.38 192.969,1088.82 193.492,1088.52C196.738,1086.64 208.496,1079.86 213.718,1076.84ZM185.465,1105.34C184.556,1103.56 182.811,1102.62 181.57,1103.23C180.33,1103.84 180.062,1105.77 180.971,1107.55C181.88,1109.32 183.625,1110.27 184.865,1109.66C186.106,1109.05 186.374,1107.11 185.465,1105.34ZM196.099,1104.68C197.008,1102.91 198.753,1101.96 199.994,1102.57C201.234,1103.18 201.502,1105.12 200.593,1106.89C199.684,1108.67 197.939,1109.62 196.698,1109.01C195.458,1108.39 195.19,1106.46 196.099,1104.68ZM173.06,1099.17C172.15,1097.4 170.405,1096.45 169.165,1097.06C167.925,1097.67 167.656,1099.61 168.566,1101.38C169.475,1103.16 171.22,1104.1 172.46,1103.49C173.7,1102.88 173.969,1100.95 173.06,1099.17ZM202.154,1094.55C203.063,1092.77 204.808,1091.83 206.048,1092.43C207.288,1093.05 207.557,1094.98 206.648,1096.76C205.738,1098.53 203.993,1099.48 202.753,1098.87C201.513,1098.26 201.244,1096.32 202.154,1094.55ZM178.592,1094.38C177.683,1092.6 175.938,1091.66 174.698,1092.27C173.458,1092.88 173.189,1094.82 174.099,1096.59C175.008,1098.37 176.753,1099.31 177.993,1098.7C179.233,1098.09 179.502,1096.15 178.592,1094.38ZM186.02,1090.77C185.11,1088.99 183.365,1088.05 182.125,1088.65C180.885,1089.27 180.617,1091.2 181.526,1092.98C182.435,1094.75 184.18,1095.7 185.42,1095.09C186.66,1094.48 186.929,1092.54 186.02,1090.77ZM208.323,1084.44C209.232,1082.66 210.977,1081.72 212.217,1082.33C213.457,1082.94 213.726,1084.88 212.817,1086.65C211.907,1088.42 210.162,1089.37 208.922,1088.76C207.682,1088.15 207.414,1086.21 208.323,1084.44ZM173.132,1083.81C172.223,1082.04 170.478,1081.09 169.237,1081.7C167.997,1082.31 167.729,1084.25 168.638,1086.03C169.547,1087.8 171.292,1088.75 172.532,1088.14C173.773,1087.53 174.041,1085.59 173.132,1083.81ZM212.293,1071.03C212.818,1071.33 213.142,1071.89 213.142,1072.5C213.142,1073.1 212.819,1073.66 212.294,1073.96C207.009,1076.99 195.106,1083.8 191.845,1085.67C191.325,1085.97 190.685,1085.97 190.166,1085.67C186.918,1083.8 175.099,1077.01 169.842,1073.99C169.318,1073.69 168.995,1073.13 168.996,1072.52C168.997,1071.92 169.32,1071.36 169.845,1071.06C175.12,1068.04 186.998,1061.25 190.251,1059.38C190.77,1059.09 191.408,1059.09 191.927,1059.38C195.176,1061.24 207.022,1068.02 212.293,1071.03ZM191.047,1070.07C193.073,1070.07 194.719,1071.17 194.719,1072.53C194.719,1073.89 193.073,1074.99 191.047,1074.99C189.021,1074.99 187.375,1073.89 187.375,1072.53C187.375,1071.17 189.021,1070.07 191.047,1070.07Z" style="fill:white;"/>
    </g>
</svg>
