<?xml version="1.0" encoding="UTF-8" standalone="no"?>
<!DOCTYPE svg PUBLIC "-//W3C//DTD SVG 1.1//EN" "http://www.w3.org/Graphics/SVG/1.1/DTD/svg11.dtd">
<svg width="100%" height="100%" viewBox="0 0 512 512" version="1.1" xmlns="http://www.w3.org/2000/svg" xmlns:xlink="http://www.w3.org/1999/xlink" xml:space="preserve" xmlns:serif="http://www.serif.com/" style="fill-rule:evenodd;clip-rule:evenodd;stroke-linejoin:round;stroke-miterlimit:2;">
    <g id="DifficultyIcon" transform="matrix(13.0519,0,0,15.894,6517.06,-102110)">
        <g transform="matrix(0.525339,0,0,0.4314,-10463.9,3517.72)">
            <path d="M19005.7,6755.29C19023.8,6755.57 19040.3,6771.16 19040.4,6790.43C19040.4,6790.43 19039.6,6794.37 19036.7,6794.92C19034.2,6795.38 19031.7,6793.87 19031.3,6790.79C19030.4,6764.24 19003.4,6758.48 18988.9,6770.12C18982.9,6774.91 18979.3,6782.32 18979.2,6790.1C18979.1,6798.37 18970,6795.3 18970.1,6790C18970.1,6789.25 18970.1,6788.5 18970.2,6787.75C18971.5,6770.09 18987,6755.15 19005.7,6755.29Z" style="fill:white;"/>
        </g>
        <g transform="matrix(0.525339,0,2.498e-16,0.4314,-10443.9,3468.24)">
            <path d="M18963.2,6903.11C18963.2,6899.37 18965.9,6884.17 18965.9,6884.17C18966,6883.48 18966.5,6882.99 18967.1,6882.99C18967.7,6882.99 18968.2,6883.48 18968.3,6884.17C18968.3,6884.17 18971.3,6899.55 18971.3,6903.11C18971.3,6905.19 18969.4,6906.86 18967.2,6906.86C18965,6906.86 18963.3,6905.19 18963.2,6903.11Z" style="fill:white;"/>
        </g>
    </g>
</svg>
