<?xml version="1.0" encoding="UTF-8" standalone="no"?>
<!DOCTYPE svg PUBLIC "-//W3C//DTD SVG 1.1//EN" "http://www.w3.org/Graphics/SVG/1.1/DTD/svg11.dtd">
<svg width="100%" height="100%" viewBox="0 0 512 512" version="1.1" xmlns="http://www.w3.org/2000/svg" xmlns:xlink="http://www.w3.org/1999/xlink" xml:space="preserve" xmlns:serif="http://www.serif.com/" style="fill-rule:evenodd;clip-rule:evenodd;stroke-linejoin:round;stroke-miterlimit:2;">
    <g id="DifficultyIcon" transform="matrix(12.8456,0,0,12.8456,-5058.77,-14212.6)">
        <g transform="matrix(1,0,0,1,-18374.9,-5816.67)">
            <path d="M18790.2,6945.55C18789.7,6945.47 18789.2,6945.43 18788.6,6945.43C18783.7,6945.43 18779.6,6949.25 18779.1,6954.12C18779.1,6954.46 18778.8,6954.72 18778.5,6954.72C18776.8,6954.72 18772,6954.72 18770.2,6954.72C18770,6954.72 18769.9,6954.65 18769.7,6954.52C18769.6,6954.4 18769.5,6954.22 18769.6,6954.05C18770,6943.93 18778.4,6935.87 18788.6,6935.87C18790.9,6935.87 18793.1,6936.27 18795.1,6936.99L18790.2,6945.55ZM18802.4,6941.72C18805.5,6944.95 18807.5,6949.27 18807.7,6954.05C18807.7,6954.22 18807.7,6954.4 18807.6,6954.52C18807.4,6954.65 18807.3,6954.72 18807.1,6954.72C18805.3,6954.72 18800.5,6954.72 18798.8,6954.72C18798.5,6954.72 18798.2,6954.46 18798.2,6954.13C18798.1,6952.91 18797.7,6951.77 18797.2,6950.73L18802.4,6941.72Z" style="fill:white;"/>
        </g>
        <g transform="matrix(0.568812,0.328404,-0.328404,0.568812,-8088.17,-8899.95)">
            <path d="M18855.4,6723.81C18855.4,6722.58 18854.4,6721.59 18853.2,6721.59C18852,6721.59 18851,6722.58 18851,6723.81L18851,6759.82C18851,6761.05 18852,6762.04 18853.2,6762.04C18854.4,6762.04 18855.4,6761.05 18855.4,6759.82L18855.4,6723.81Z" style="fill:white;"/>
        </g>
    </g>
</svg>
