<?xml version="1.0" encoding="UTF-8" standalone="no"?>
<!DOCTYPE svg PUBLIC "-//W3C//DTD SVG 1.1//EN" "http://www.w3.org/Graphics/SVG/1.1/DTD/svg11.dtd">
<svg width="100%" height="100%" viewBox="0 0 512 512" version="1.1" xmlns="http://www.w3.org/2000/svg" xmlns:xlink="http://www.w3.org/1999/xlink" xml:space="preserve" xmlns:serif="http://www.serif.com/" style="fill-rule:evenodd;clip-rule:evenodd;stroke-linejoin:round;stroke-miterlimit:2;">
    <g id="Discord" transform="matrix(1.74316,0,0,1.74316,32.875,1)">
        <path d="M226.011,0L29.989,0C13.458,0 0,13.458 0,30.135L0,227.913C0,244.59 13.458,258.048 29.989,258.048L195.877,258.048L188.123,230.985L206.848,248.393L224.549,264.777L256,292.571L256,30.135C256,13.458 242.542,0 226.011,0ZM169.545,191.049C169.545,191.049 164.279,184.759 159.89,179.2C179.054,173.787 186.368,161.792 186.368,161.792C180.37,165.742 174.665,168.521 169.545,170.423C162.231,173.495 155.209,175.543 148.334,176.713C134.29,179.346 121.417,178.615 110.446,176.567C102.107,174.958 94.939,172.617 88.942,170.277C85.577,168.96 81.92,167.351 78.263,165.303C77.824,165.01 77.385,164.864 76.946,164.571C76.654,164.425 76.507,164.279 76.361,164.133C73.728,162.67 72.265,161.646 72.265,161.646C72.265,161.646 79.287,173.349 97.865,178.907C93.477,184.466 88.064,191.049 88.064,191.049C55.735,190.025 43.447,168.814 43.447,168.814C43.447,121.71 64.512,83.529 64.512,83.529C85.577,67.73 105.618,68.169 105.618,68.169L107.081,69.925C80.75,77.531 68.608,89.088 68.608,89.088C68.608,89.088 71.826,87.333 77.239,84.846C92.891,77.97 105.326,76.069 110.446,75.63C111.323,75.483 112.055,75.337 112.933,75.337C121.856,74.167 131.95,73.874 142.482,75.045C156.379,76.654 171.301,80.75 186.514,89.088C186.514,89.088 174.958,78.117 150.089,70.51L152.137,68.169C152.137,68.169 172.178,67.73 193.243,83.529C193.243,83.529 214.309,121.71 214.309,168.814C214.309,168.814 201.874,190.025 169.545,191.049ZM101.522,122.734C93.184,122.734 86.601,130.048 86.601,138.971C86.601,147.895 93.33,155.209 101.522,155.209C109.861,155.209 116.443,147.895 116.443,138.971C116.59,130.048 109.861,122.734 101.522,122.734M154.917,122.734C146.578,122.734 139.995,130.048 139.995,138.971C139.995,147.895 146.725,155.209 154.917,155.209C163.255,155.209 169.838,147.895 169.838,138.971C169.838,130.048 163.255,122.734 154.917,122.734" style="fill:white;fill-rule:nonzero;"/>
    </g>
</svg>
