<?xml version="1.0" encoding="UTF-8" standalone="no"?>
<!DOCTYPE svg PUBLIC "-//W3C//DTD SVG 1.1//EN" "http://www.w3.org/Graphics/SVG/1.1/DTD/svg11.dtd">
<svg width="100%" height="100%" viewBox="0 0 512 512" version="1.1" xmlns="http://www.w3.org/2000/svg" xmlns:xlink="http://www.w3.org/1999/xlink" xml:space="preserve" xmlns:serif="http://www.serif.com/" style="fill-rule:evenodd;clip-rule:evenodd;stroke-linejoin:round;stroke-miterlimit:2;">
    <g id="DoubleAxeIcon" transform="matrix(6.49751,7.23443e-16,-3.81166e-16,7.91237,-3867.82,-47439.1)">
        <g transform="matrix(0.698693,-6.38828e-17,5.04158e-17,0.859407,-6444.23,2487.47)">
            <path d="M10139.3,4088.29C10139.3,4087.39 10138.2,4086.66 10136.9,4086.66L10126.4,4086.66C10125.1,4086.66 10124,4087.39 10124,4088.29L10124,4151C10124,4151.89 10125.1,4152.62 10126.4,4152.62L10136.9,4152.62C10138.2,4152.62 10139.3,4151.89 10139.3,4151L10139.3,4088.29Z" style="fill:white;"/>
        </g>
        <g>
            <g transform="matrix(0.834864,-3.78044e-17,-3.68393e-17,0.685577,-596.309,5635.94)">
                <path d="M1464.72,563.303C1454.71,565.767 1443.58,571.889 1437.5,579.69C1437.43,579.775 1437.33,579.828 1437.23,579.833C1437.12,579.839 1437.01,579.796 1436.94,579.718C1427.76,569.766 1425.49,542.685 1437.22,530.801C1437.3,530.725 1437.4,530.686 1437.51,530.693C1437.62,530.701 1437.71,530.755 1437.78,530.841C1443.74,538.695 1455.21,544.114 1464.72,546.821L1464.72,563.303Z" style="fill:white;"/>
            </g>
            <g transform="matrix(-0.834864,3.78044e-17,-3.68393e-17,0.685577,1865.66,5636.31)">
                <path d="M1464.72,563.303C1454.71,565.767 1443.58,571.889 1437.5,579.69C1437.43,579.775 1437.33,579.828 1437.23,579.833C1437.12,579.839 1437.01,579.796 1436.94,579.718C1427.76,569.766 1425.49,542.685 1437.22,530.801C1437.3,530.725 1437.4,530.686 1437.51,530.693C1437.62,530.701 1437.71,530.755 1437.78,530.841C1443.74,538.695 1455.21,544.114 1464.72,546.821L1464.72,563.303Z" style="fill:white;"/>
            </g>
        </g>
    </g>
</svg>
