<?xml version="1.0" encoding="UTF-8" standalone="no"?>
<!DOCTYPE svg PUBLIC "-//W3C//DTD SVG 1.1//EN" "http://www.w3.org/Graphics/SVG/1.1/DTD/svg11.dtd">
<svg width="100%" height="100%" viewBox="0 0 512 512" version="1.1" xmlns="http://www.w3.org/2000/svg" xmlns:xlink="http://www.w3.org/1999/xlink" xml:space="preserve" xmlns:serif="http://www.serif.com/" style="fill-rule:evenodd;clip-rule:evenodd;stroke-linejoin:round;stroke-miterlimit:2;">
    <g id="DoubleAxeIconRound" transform="matrix(5.58899,6.22286e-16,-3.27869e-16,6.806,-3286.92,-40790.1)">
        <g transform="matrix(0.733138,-6.70322e-17,3.53179e-17,0.602042,397.951,5846.05)">
            <path d="M309.963,302.909C308.325,302.987 306.77,303.671 305.606,304.836C304.367,306.075 303.671,307.754 303.671,309.506C303.671,312.355 303.671,315.046 303.671,315.046C303.671,316.502 303.093,317.898 302.064,318.927C301.035,319.957 299.639,320.535 298.183,320.535C298.183,320.535 298.183,320.535 298.182,320.535C280.194,320.535 265.589,305.93 265.589,287.941C265.589,269.952 280.194,255.348 298.182,255.348C298.183,255.348 298.183,255.348 298.183,255.348C301.214,255.348 303.671,257.805 303.671,260.836C303.671,260.836 303.671,263.528 303.671,266.377C303.671,268.128 304.367,269.808 305.606,271.047C306.77,272.211 308.325,272.896 309.963,272.974L309.963,302.909ZM333.737,272.974C335.375,272.896 336.93,272.211 338.094,271.047C339.333,269.808 340.029,268.128 340.029,266.377C340.029,263.528 340.029,260.836 340.029,260.836C340.029,257.805 342.486,255.348 345.517,255.348C345.517,255.348 345.517,255.348 345.518,255.348C363.506,255.348 378.111,269.952 378.111,287.941C378.111,305.93 363.506,320.535 345.518,320.535C345.517,320.535 345.517,320.535 345.517,320.535C344.061,320.535 342.665,319.957 341.636,318.927C340.607,317.898 340.029,316.502 340.029,315.046C340.029,315.046 340.029,312.355 340.029,309.506C340.029,307.754 339.333,306.075 338.094,304.836C336.93,303.671 335.375,302.987 333.737,302.909L333.737,272.974Z" style="fill:white;"/>
        </g>
        <g transform="matrix(1.09827,-1.63295e-16,7.71165e-16,9.0072,-1563.51,526.656)">
            <path d="M2006.07,608.659C2006.07,608.368 2003.71,608.132 2000.81,608.132C1997.9,608.132 1995.54,608.368 1995.54,608.659L1995.54,614.014C1995.54,614.305 1997.9,614.542 2000.81,614.542C2003.71,614.542 2006.07,614.305 2006.07,614.014L2006.07,608.659Z" style="fill:white;"/>
        </g>
    </g>
</svg>
