<?xml version="1.0" encoding="UTF-8" standalone="no"?>
<!DOCTYPE svg PUBLIC "-//W3C//DTD SVG 1.1//EN" "http://www.w3.org/Graphics/SVG/1.1/DTD/svg11.dtd">
<svg width="100%" height="100%" viewBox="0 0 512 512" version="1.1" xmlns="http://www.w3.org/2000/svg" xmlns:xlink="http://www.w3.org/1999/xlink" xml:space="preserve" xmlns:serif="http://www.serif.com/" style="fill-rule:evenodd;clip-rule:evenodd;stroke-linejoin:round;stroke-miterlimit:2;">
    <g id="DungeonIcon" transform="matrix(4.5887,0,0,4.35461,-21775.5,-6150.49)">
        <g transform="matrix(0.957992,0,0,1.00949,-13997.3,-3349.27)">
            <path d="M19663,4823.93C19663,4827.44 19660.2,4830.3 19656.6,4830.3C19653.1,4830.3 19650.3,4827.44 19650.3,4823.93L19650.4,4760.06C19650.4,4744.92 19638.1,4732.64 19623,4732.64C19607.9,4732.64 19595.6,4744.92 19595.6,4760.06L19595.6,4823.93C19595.6,4827.44 19592.8,4830.3 19589.2,4830.3C19585.7,4830.3 19582.9,4827.44 19582.9,4823.93L19582.8,4760.08C19582.8,4737.96 19600.8,4720 19622.9,4720C19645,4720 19663,4737.96 19663,4760.08L19663,4823.93Z" style="fill:white;"/>
        </g>
        <g transform="matrix(0.71139,0,0,0.79597,4733.97,1323.55)">
            <path d="M124.52,168.95C124.52,152.425 111.104,138.689 94.579,138.689C78.053,138.689 64.637,152.425 64.637,168.95L64.637,245.868L124.52,245.868L124.52,168.95ZM99.428,156.046L90.291,156.046C82.185,156.046 75.603,162.627 75.603,170.733C75.603,178.84 82.185,185.421 90.291,185.421L99.428,185.421C107.534,185.421 114.115,178.84 114.115,170.733C114.115,162.627 107.534,156.046 99.428,156.046Z" style="fill:white;"/>
        </g>
        <g transform="matrix(0.547414,0,0,0.818991,-6072.46,-2193.02)">
            <rect x="19849.5" y="4441.33" width="6.677" height="38.009" style="fill:white;"/>
        </g>
        <g transform="matrix(0.547414,0,0,0.818991,-6060.06,-2193.02)">
            <rect x="19849.5" y="4441.33" width="6.677" height="38.009" style="fill:white;"/>
        </g>
    </g>
</svg>
