<?xml version="1.0" encoding="UTF-8" standalone="no"?>
<!DOCTYPE svg PUBLIC "-//W3C//DTD SVG 1.1//EN" "http://www.w3.org/Graphics/SVG/1.1/DTD/svg11.dtd">
<svg width="100%" height="100%" viewBox="0 0 512 512" version="1.1" xmlns="http://www.w3.org/2000/svg" xmlns:xlink="http://www.w3.org/1999/xlink" xml:space="preserve" xmlns:serif="http://www.serif.com/" style="fill-rule:evenodd;clip-rule:evenodd;stroke-linecap:round;stroke-linejoin:round;stroke-miterlimit:1.5;">
    <g id="Emoji---Smile" serif:id="Emoji - Smile" transform="matrix(5.11965,0,0,5.11965,-799.875,-543.451)">
        <circle cx="206.24" cy="156.153" r="45.707" style="fill:url(#_Linear1);"/>
        <g transform="matrix(0.450357,0,0,-0.450357,-489.072,565.07)">
            <path d="M1516.52,898.094C1522.59,889.497 1532.6,883.878 1543.91,883.878C1555.23,883.878 1565.24,889.497 1571.3,898.094" style="fill:none;stroke:rgb(106,57,9);stroke-width:8.93px;"/>
        </g>
        <g transform="matrix(1,0,0,1,-3.64414,-7.24317)">
            <circle cx="193.154" cy="153.537" r="6.843" style="fill:rgb(106,57,9);"/>
            <g transform="matrix(1,0,0,1,33.4588,0)">
                <circle cx="193.154" cy="153.537" r="6.843" style="fill:rgb(106,57,9);"/>
            </g>
        </g>
        <g transform="matrix(0.390652,0,0,0.390652,156.036,106.15)">
            <ellipse cx="48.642" cy="142.507" rx="20.505" ry="18.232" style="fill:rgb(255,150,150);"/>
            <g transform="matrix(1,0,0,1,159.741,0)">
                <ellipse cx="48.642" cy="142.507" rx="20.505" ry="18.232" style="fill:rgb(255,150,150);"/>
            </g>
        </g>
    </g>
    <defs>
        <linearGradient id="_Linear1" x1="0" y1="0" x2="1" y2="0" gradientUnits="userSpaceOnUse" gradientTransform="matrix(5.34275e-15,87.2537,-87.2537,5.34275e-15,208.917,112.155)"><stop offset="0" style="stop-color:rgb(255,211,72);stop-opacity:1"/><stop offset="1" style="stop-color:rgb(255,199,59);stop-opacity:1"/></linearGradient>
    </defs>
</svg>
