<?xml version="1.0" encoding="UTF-8" standalone="no"?>
<!DOCTYPE svg PUBLIC "-//W3C//DTD SVG 1.1//EN" "http://www.w3.org/Graphics/SVG/1.1/DTD/svg11.dtd">
<svg width="100%" height="100%" viewBox="0 0 512 512" version="1.1" xmlns="http://www.w3.org/2000/svg" xmlns:xlink="http://www.w3.org/1999/xlink" xml:space="preserve" xmlns:serif="http://www.serif.com/" style="fill-rule:evenodd;clip-rule:evenodd;stroke-linejoin:round;stroke-miterlimit:2;">
    <g id="EvilSkullIcon" transform="matrix(2.90854,0,0,3.54188,2113.92,-20580.8)">
        <g transform="matrix(1.27082,0,0,1.04358,-26103.9,-790.972)">
            <path d="M20068,6362.94C20077.1,6355.19 20083.8,6344.01 20086.7,6336.81C20089.7,6329.59 20098.3,6329.88 20099.1,6337.36C20101,6355.6 20093.5,6373.44 20081.5,6386.91C20079.6,6377.51 20074.8,6369.18 20068,6362.94ZM19995.1,6386.91C19983,6373.44 19975.5,6355.6 19977.5,6337.36C19978.2,6329.88 19986.9,6329.59 19989.8,6336.81C19992.8,6344.01 19999.5,6355.19 20008.5,6362.94C20001.7,6369.18 19996.9,6377.51 19995.1,6386.91Z" style="fill:white;"/>
        </g>
        <g transform="matrix(1.10047,0,0,0.903687,-21142.1,110.452)">
            <path d="M18618,6446.77L18618,6456.29C18618,6459.04 18615.8,6461.27 18613,6461.27C18610.3,6461.27 18608.1,6459.04 18608.1,6456.29L18608.1,6433.45L18599.2,6433.45C18588.8,6433.45 18580.4,6425.05 18580.4,6414.7C18580.4,6409.26 18582.8,6404.36 18586.5,6400.93C18585.3,6396.91 18584.7,6392.67 18584.7,6388.29C18584.7,6362.49 18605.7,6341.55 18631.5,6341.55C18657.3,6341.55 18678.2,6362.49 18678.2,6388.29C18678.2,6392.67 18677.6,6396.91 18676.5,6400.93C18680.2,6404.36 18682.5,6409.26 18682.5,6414.7C18682.5,6425.05 18674.1,6433.45 18663.8,6433.45L18654.9,6433.45L18654.9,6456.28C18654.9,6459.04 18652.7,6461.27 18649.9,6461.27C18647.1,6461.27 18644.9,6459.04 18644.9,6456.28L18644.9,6446.77L18642.6,6446.77L18642.6,6448.11C18642.6,6450.86 18640.4,6453.1 18637.6,6453.1C18634.9,6453.1 18632.6,6450.86 18632.6,6448.11L18632.6,6446.77L18630.3,6446.77L18630.3,6448.11C18630.3,6450.86 18628.1,6453.1 18625.3,6453.1C18622.6,6453.1 18620.3,6450.86 18620.3,6448.11L18620.3,6446.77L18618,6446.77ZM18630.5,6420.15C18630.7,6419.76 18631,6419.52 18631.5,6419.52C18631.9,6419.52 18632.3,6419.76 18632.5,6420.15C18633.4,6422.08 18634.9,6424.98 18635.8,6426.77C18636,6427.12 18635.9,6427.54 18635.7,6427.87C18635.5,6428.2 18635.2,6428.4 18634.8,6428.4C18632.9,6428.4 18630,6428.4 18628.2,6428.4C18627.8,6428.4 18627.4,6428.2 18627.2,6427.87C18627,6427.54 18627,6427.12 18627.1,6426.77C18628,6424.98 18629.5,6422.08 18630.5,6420.15ZM18598.4,6401.55C18605.1,6405.36 18615.4,6407.97 18627.3,6408.48C18626,6415.32 18619.9,6420.51 18612.7,6420.51C18604.5,6420.51 18597.9,6413.86 18597.9,6405.67C18597.9,6404.24 18598.1,6402.86 18598.4,6401.55ZM18664.5,6401.55C18664.9,6402.86 18665.1,6404.24 18665.1,6405.67C18665.1,6413.86 18658.4,6420.51 18650.2,6420.51C18643,6420.51 18637,6415.32 18635.7,6408.48C18647.5,6407.97 18657.8,6405.36 18664.5,6401.55Z" style="fill:white;"/>
        </g>
    </g>
</svg>
