<?xml version="1.0" encoding="UTF-8" standalone="no"?>
<!DOCTYPE svg PUBLIC "-//W3C//DTD SVG 1.1//EN" "http://www.w3.org/Graphics/SVG/1.1/DTD/svg11.dtd">
<svg width="100%" height="100%" viewBox="0 0 512 512" version="1.1" xmlns="http://www.w3.org/2000/svg" xmlns:xlink="http://www.w3.org/1999/xlink" xml:space="preserve" xmlns:serif="http://www.serif.com/" style="fill-rule:evenodd;clip-rule:evenodd;stroke-linejoin:round;stroke-miterlimit:2;">
    <g id="ExitRightIcon" transform="matrix(20.1364,0,0,19.898,-19034.6,-73724.8)">
        <path d="M947.5,3730L960.5,3730C961.328,3730 962,3729.33 962,3728.5L962,3728L962,3727L962,3726.5C962,3725.67 961.328,3725 960.5,3725C959.672,3725 959,3725.67 959,3726.5L959,3727L952.5,3727L949,3727L949,3709L959,3709L959,3709.5C959,3710.33 959.672,3711 960.5,3711C961.328,3711 962,3710.33 962,3709.5L962,3709L962,3708L962,3707.5C962,3706.67 961.328,3706 960.5,3706L947.5,3706C946.672,3706 946,3706.67 946,3707.5L946,3728.5C946,3729.33 946.672,3730 947.5,3730ZM966.579,3716.99L958,3716.99C957.448,3716.99 957,3717.43 957,3717.99C957,3718.54 957.448,3718.99 958,3718.99L966.579,3718.99L963.305,3722.26C962.91,3722.66 962.91,3723.3 963.305,3723.7C963.701,3724.09 964.342,3724.09 964.737,3723.7L969.705,3718.72C969.908,3718.52 970.005,3718.26 970,3717.99C970,3717.99 970,3717.99 970,3717.99L970,3717.99C970.005,3717.72 969.908,3717.45 969.705,3717.25L964.737,3712.28C964.342,3711.88 963.701,3711.88 963.305,3712.28C962.91,3712.68 962.91,3713.32 963.305,3713.71L966.579,3716.99Z" style="fill:white;"/>
    </g>
</svg>
