<?xml version="1.0" encoding="UTF-8" standalone="no"?>
<!DOCTYPE svg PUBLIC "-//W3C//DTD SVG 1.1//EN" "http://www.w3.org/Graphics/SVG/1.1/DTD/svg11.dtd">
<svg width="100%" height="100%" viewBox="0 0 512 512" version="1.1" xmlns="http://www.w3.org/2000/svg" xmlns:xlink="http://www.w3.org/1999/xlink" xml:space="preserve" xmlns:serif="http://www.serif.com/" style="fill-rule:evenodd;clip-rule:evenodd;stroke-linejoin:round;stroke-miterlimit:2;">
    <g id="False-Rounded--Bold-" serif:id="False Rounded (Bold)" transform="matrix(18.9583,0,0,18.9583,-123.847,-11.1544)">
        <g transform="matrix(-0.707107,-0.707107,-1.46364,1.46364,49.1103,-5.12826)">
            <path d="M10.591,10.142C10.591,9.176 8.967,8.392 6.968,8.392C4.969,8.392 3.345,9.176 3.345,10.142L3.345,22.854C3.345,23.82 4.969,24.604 6.968,24.604C8.967,24.604 10.591,23.82 10.591,22.854L10.591,10.142Z" style="fill:white;"/>
        </g>
        <g transform="matrix(0.707107,-0.707107,1.46364,1.46364,-9.0383,-5.12826)">
            <path d="M10.591,10.142C10.591,9.176 8.967,8.392 6.968,8.392C4.969,8.392 3.345,9.176 3.345,10.142L3.345,22.854C3.345,23.82 4.969,24.604 6.968,24.604C8.967,24.604 10.591,23.82 10.591,22.854L10.591,10.142Z" style="fill:white;"/>
        </g>
    </g>
</svg>
