<?xml version="1.0" encoding="UTF-8" standalone="no"?>
<!DOCTYPE svg PUBLIC "-//W3C//DTD SVG 1.1//EN" "http://www.w3.org/Graphics/SVG/1.1/DTD/svg11.dtd">
<svg width="100%" height="100%" viewBox="0 0 512 512" version="1.1" xmlns="http://www.w3.org/2000/svg" xmlns:xlink="http://www.w3.org/1999/xlink" xml:space="preserve" xmlns:serif="http://www.serif.com/" style="fill-rule:evenodd;clip-rule:evenodd;stroke-linejoin:round;stroke-miterlimit:2;">
    <g id="FeatherIcon" transform="matrix(1.43909,1.43909,-1.43909,1.43909,-1303.15,-4033.7)">
        <g transform="matrix(0.104086,0,0,1,1821.27,46.8171)">
            <path d="M2006.72,973.977C2024.31,974.862 2045.8,974.931 2059.47,973.96C2059.47,973.96 2042.88,1021.79 2033.94,1021.79C2025.05,1021.79 2006.72,973.977 2006.72,973.977Z" style="fill:white;"/>
        </g>
        <path d="M2030.14,1020.85C2025.77,1018.62 2021.04,1012.53 2016.67,1003.64C2019.68,1005.84 2022.73,1007.12 2025.83,1007.28C2021.71,1005.47 2017.88,1001.96 2014.13,998.039C2011.55,991.895 2009.17,984.766 2007.17,976.902C2013.46,981.543 2018.43,982.989 2022.86,983.139C2017.92,981.579 2011.93,976.35 2005.42,969.359C2003.09,958.351 2001.53,946.187 2001.14,933.45C2009.46,940.521 2016.79,942.563 2023.68,942.412C2015.73,938.817 2008.18,932.879 2001.07,924.542C2001.25,911.053 2002.8,897.089 2006.19,883.31C2010.65,895.967 2016.88,903.737 2024.79,906.846C2018.32,897.214 2013.56,884.674 2010.11,869.92C2015.02,855.507 2022.17,841.542 2032.12,828.81L2032.12,828.806L2032.12,828.808L2032.12,828.806L2032.12,828.81C2049.16,850.63 2058,876.069 2061.44,901.181C2056.98,911.399 2049.26,917.801 2041.47,924.127C2048.27,922.199 2055.09,920.064 2062.5,910.813C2063.27,919.874 2063.36,928.826 2062.93,937.479L2044.71,958.618L2062.19,947.435C2061.43,955.102 2060.28,962.458 2058.82,969.359L2041.38,983.139L2057.07,976.902C2055.03,984.888 2052.61,992.115 2049.98,998.323C2047.41,1000.94 2044.23,1003.76 2038.41,1007.47C2041.31,1007.25 2044.29,1006.42 2047.44,1003.88C2043.74,1012.89 2038.58,1019.66 2035.67,1020.67C2036.58,978.973 2036.41,918.028 2032.98,873.613C2029.19,918.33 2029.11,979.098 2030.14,1020.85Z" style="fill:white;"/>
    </g>
</svg>
