<?xml version="1.0" encoding="UTF-8" standalone="no"?>
<!DOCTYPE svg PUBLIC "-//W3C//DTD SVG 1.1//EN" "http://www.w3.org/Graphics/SVG/1.1/DTD/svg11.dtd">
<svg width="100%" height="100%" viewBox="0 0 512 512" version="1.1" xmlns="http://www.w3.org/2000/svg" xmlns:xlink="http://www.w3.org/1999/xlink" xml:space="preserve" xmlns:serif="http://www.serif.com/" style="fill-rule:evenodd;clip-rule:evenodd;stroke-linejoin:round;stroke-miterlimit:2;">
    <g id="FeatherIcon" transform="matrix(17.6212,0,0,17.6212,-591.647,-3521.03)">
        <path d="M46.502,207.085C46.502,207.085 51.129,196.196 57.589,202.453C62.062,206.785 49.202,209.937 49.202,209.937C50.103,211.077 54.369,211.276 55.271,211.03C53.613,213.761 50.166,215.926 45.263,216.191C46.289,217.682 49.666,218.149 51.047,217.877C49.1,221.558 44.945,222.952 40.618,222.331C38.184,220.33 36.534,216.677 38.635,210.082C38.896,212.083 39.596,214.107 40.862,214.805C39.977,209.319 42.248,202.713 47.734,200.934C46.249,202.798 46.157,206.359 46.502,207.085Z" style="fill:white;"/>
        <g transform="matrix(0.986031,0.166562,-0.166562,0.986031,36.7746,-4.46814)">
            <path d="M42.695,220.745L40.833,220.745C40.247,223.237 40.306,225.679 40.717,228.096C40.78,228.461 41.097,228.729 41.468,228.729C41.57,228.729 41.678,228.729 41.785,228.729C42.009,228.729 42.221,228.631 42.366,228.461C42.511,228.29 42.573,228.065 42.538,227.845C42.125,225.285 42.121,222.894 42.695,220.745Z" style="fill:white;"/>
        </g>
    </g>
</svg>
