<?xml version="1.0" encoding="UTF-8" standalone="no"?>
<!DOCTYPE svg PUBLIC "-//W3C//DTD SVG 1.1//EN" "http://www.w3.org/Graphics/SVG/1.1/DTD/svg11.dtd">
<svg width="100%" height="100%" viewBox="0 0 512 512" version="1.1" xmlns="http://www.w3.org/2000/svg" xmlns:xlink="http://www.w3.org/1999/xlink" xml:space="preserve" xmlns:serif="http://www.serif.com/" style="fill-rule:evenodd;clip-rule:evenodd;stroke-linejoin:round;stroke-miterlimit:2;">
    <g id="FieldGlassesIcon" transform="matrix(3.48844,0,0,3.48844,-6932.12,-2781.64)">
        <g>
            <g transform="matrix(0.722705,0,0,1.14646,588.845,-338.788)">
                <path d="M2021.03,1000.09C2021.03,999.028 2019.66,998.165 2017.97,998.165L1981.5,998.165C1979.82,998.165 1978.45,999.028 1978.45,1000.09L1978.45,1015.5C1978.45,1016.56 1979.82,1017.42 1981.5,1017.42L2017.97,1017.42C2019.66,1017.42 2021.03,1016.56 2021.03,1015.5L2021.03,1000.09Z" style="fill:white;"/>
            </g>
            <g transform="matrix(0.489661,0,0,2.3447,1058.07,-1509.88)">
                <path d="M2021.03,999.054C2021.03,998.564 2019.12,998.165 2016.77,998.165L1982.7,998.165C1980.35,998.165 1978.45,998.564 1978.45,999.054L1978.45,1016.53C1978.45,1017.02 1980.35,1017.42 1982.7,1017.42L2016.77,1017.42C2019.12,1017.42 2021.03,1017.02 2021.03,1016.53L2021.03,999.054Z" style="fill:white;"/>
            </g>
            <g transform="matrix(0.895626,0,-0.74162,2.52512,973.494,-1689.97)">
                <path d="M2021.03,999.675C2021.03,998.842 2019.12,998.165 2016.77,998.165L1982.7,998.165C1980.35,998.165 1978.45,998.842 1978.45,999.675L1978.45,1015.91C1978.45,1016.75 1980.35,1017.42 1982.7,1017.42L2016.77,1017.42C2019.12,1017.42 2021.03,1016.75 2021.03,1015.91L2021.03,999.675Z" style="fill:white;"/>
            </g>
            <g transform="matrix(1.00575,0,0,2.13694,1.99939,-1260.53)">
                <path d="M2021.03,1000.09C2021.03,999.028 2019.19,998.165 2016.93,998.165L1982.54,998.165C1980.28,998.165 1978.45,999.028 1978.45,1000.09L1978.45,1015.5C1978.45,1016.56 1980.28,1017.42 1982.54,1017.42L2016.93,1017.42C2019.19,1017.42 2021.03,1016.56 2021.03,1015.5L2021.03,1000.09Z" style="fill:white;"/>
            </g>
            <g transform="matrix(1.00575,0,0,0.92276,1.99939,-2.8599)">
                <path d="M2021.03,1000.09C2021.03,999.028 2020.23,998.165 2019.26,998.165L1980.21,998.165C1979.24,998.165 1978.45,999.028 1978.45,1000.09L1978.45,1015.5C1978.45,1016.56 1979.24,1017.42 1980.21,1017.42L2019.26,1017.42C2020.23,1017.42 2021.03,1016.56 2021.03,1015.5L2021.03,1000.09Z" style="fill:white;"/>
            </g>
        </g>
        <g transform="matrix(0.373013,0,0,1.63844,1314.63,-801.211)">
            <path d="M2021.03,999.134C2021.03,998.599 2019.12,998.165 2016.77,998.165L1982.7,998.165C1980.35,998.165 1978.45,998.599 1978.45,999.134L1978.45,1016.45C1978.45,1016.99 1980.35,1017.42 1982.7,1017.42L2016.77,1017.42C2019.12,1017.42 2021.03,1016.99 2021.03,1016.45L2021.03,999.134Z" style="fill:white;"/>
        </g>
        <g transform="matrix(1,0,0,1,-11.3414,0)">
            <g transform="matrix(-0.722705,0,0,1.14646,3543.6,-338.788)">
                <path d="M2021.03,1000.09C2021.03,999.028 2019.66,998.165 2017.97,998.165L1981.5,998.165C1979.82,998.165 1978.45,999.028 1978.45,1000.09L1978.45,1015.5C1978.45,1016.56 1979.82,1017.42 1981.5,1017.42L2017.97,1017.42C2019.66,1017.42 2021.03,1016.56 2021.03,1015.5L2021.03,1000.09Z" style="fill:white;"/>
            </g>
            <g transform="matrix(-0.489661,0,0,2.3447,3074.38,-1509.88)">
                <path d="M2021.03,999.054C2021.03,998.564 2019.12,998.165 2016.77,998.165L1982.7,998.165C1980.35,998.165 1978.45,998.564 1978.45,999.054L1978.45,1016.53C1978.45,1017.02 1980.35,1017.42 1982.7,1017.42L2016.77,1017.42C2019.12,1017.42 2021.03,1017.02 2021.03,1016.53L2021.03,999.054Z" style="fill:white;"/>
            </g>
            <g transform="matrix(-0.895626,0,0.74162,2.52512,3158.95,-1689.97)">
                <path d="M2021.03,999.675C2021.03,998.842 2019.12,998.165 2016.77,998.165L1982.7,998.165C1980.35,998.165 1978.45,998.842 1978.45,999.675L1978.45,1015.91C1978.45,1016.75 1980.35,1017.42 1982.7,1017.42L2016.77,1017.42C2019.12,1017.42 2021.03,1016.75 2021.03,1015.91L2021.03,999.675Z" style="fill:white;"/>
            </g>
            <g transform="matrix(-1.00575,0,0,2.13694,4130.45,-1260.53)">
                <path d="M2021.03,1000.09C2021.03,999.028 2019.19,998.165 2016.93,998.165L1982.54,998.165C1980.28,998.165 1978.45,999.028 1978.45,1000.09L1978.45,1015.5C1978.45,1016.56 1980.28,1017.42 1982.54,1017.42L2016.93,1017.42C2019.19,1017.42 2021.03,1016.56 2021.03,1015.5L2021.03,1000.09Z" style="fill:white;"/>
            </g>
            <g transform="matrix(-1.00575,0,0,0.92276,4130.45,-2.8599)">
                <path d="M2021.03,1000.09C2021.03,999.028 2020.23,998.165 2019.26,998.165L1980.21,998.165C1979.24,998.165 1978.45,999.028 1978.45,1000.09L1978.45,1015.5C1978.45,1016.56 1979.24,1017.42 1980.21,1017.42L2019.26,1017.42C2020.23,1017.42 2021.03,1016.56 2021.03,1015.5L2021.03,1000.09Z" style="fill:white;"/>
            </g>
        </g>
    </g>
</svg>
