<?xml version="1.0" encoding="UTF-8" standalone="no"?>
<!DOCTYPE svg PUBLIC "-//W3C//DTD SVG 1.1//EN" "http://www.w3.org/Graphics/SVG/1.1/DTD/svg11.dtd">
<svg width="100%" height="100%" viewBox="0 0 512 512" version="1.1" xmlns="http://www.w3.org/2000/svg" xmlns:xlink="http://www.w3.org/1999/xlink" xml:space="preserve" xmlns:serif="http://www.serif.com/" style="fill-rule:evenodd;clip-rule:evenodd;stroke-linejoin:round;stroke-miterlimit:2;">
    <g id="Fight-Axe-Scythe-Icon" serif:id="Fight Axe Scythe Icon" transform="matrix(6.06014,0,0,6.06014,-1522.66,-3884.22)">
        <path d="M301.301,687.161L312.844,706.917C313.417,707.898 313.081,709.152 312.095,709.715L308.519,711.755C307.532,712.318 306.265,711.979 305.692,710.998L296.533,695.321L301.301,687.161ZM301.068,682.288L284.394,710.826C283.821,711.807 282.554,712.147 281.568,711.584L277.992,709.543C277.005,708.98 276.669,707.727 277.242,706.746L307.144,655.568C307.717,654.587 308.983,654.248 309.97,654.811L313.546,656.851C314.533,657.414 314.868,658.668 314.295,659.649L313.755,660.573L316.783,662.345L319.674,660.515C319.674,660.515 327.408,663.748 330.91,672.399C334.412,681.05 333.108,689.979 328.235,691.906C328.168,691.932 328.1,691.957 328.032,691.981C327.855,689.366 326.169,686.506 325.035,683.626C321.037,673.466 312.789,670.2 309.09,668.558L303.301,678.466L310.519,682.584C311.049,682.886 311.23,683.56 310.922,684.087L309.805,685.998C309.497,686.526 308.816,686.708 308.286,686.405L301.068,682.288ZM276.865,661.659L275.581,659.46C275.008,658.479 275.343,657.226 276.33,656.663L279.906,654.623C280.893,654.06 282.16,654.399 282.733,655.38L293.433,673.695L288.665,681.855L281.793,670.093L280.369,670.906L281.296,672.492C281.296,672.492 272.145,674.787 269.395,688.383C261.959,684.907 254.245,676.535 254.115,663.421C268.831,666.794 274.113,660.197 274.113,660.197L275.441,662.471L276.865,661.659Z" style="fill:white;"/>
    </g>
</svg>
