<?xml version="1.0" encoding="UTF-8" standalone="no"?>
<!DOCTYPE svg PUBLIC "-//W3C//DTD SVG 1.1//EN" "http://www.w3.org/Graphics/SVG/1.1/DTD/svg11.dtd">
<svg width="100%" height="100%" viewBox="0 0 512 512" version="1.1" xmlns="http://www.w3.org/2000/svg" xmlns:xlink="http://www.w3.org/1999/xlink" xml:space="preserve" xmlns:serif="http://www.serif.com/" style="fill-rule:evenodd;clip-rule:evenodd;stroke-linejoin:round;stroke-miterlimit:2;">
    <g id="FileIcon" transform="matrix(19.0652,0,0,18.8395,-20096.1,-59427.5)">
        <path d="M1071,3156L1078,3163L1071,3163L1071,3156ZM1069,3162C1069,3163.66 1070.34,3165 1072,3165L1078,3165L1078,3177C1078,3178.66 1076.66,3180 1075,3180L1060,3180C1059.17,3180 1058.46,3179.71 1057.88,3179.12C1057.29,3178.54 1057,3177.83 1057,3177L1057,3159C1057,3157.34 1058.34,3156 1060,3156L1069,3156L1069,3162Z" style="fill:white;"/>
    </g>
</svg>
