<?xml version="1.0" encoding="UTF-8" standalone="no"?>
<!DOCTYPE svg PUBLIC "-//W3C//DTD SVG 1.1//EN" "http://www.w3.org/Graphics/SVG/1.1/DTD/svg11.dtd">
<svg width="100%" height="100%" viewBox="0 0 512 512" version="1.1" xmlns="http://www.w3.org/2000/svg" xmlns:xlink="http://www.w3.org/1999/xlink" xml:space="preserve" xmlns:serif="http://www.serif.com/" style="fill-rule:evenodd;clip-rule:evenodd;stroke-linejoin:round;stroke-miterlimit:2;">
    <g transform="matrix(2.47913,0,0,2.47913,-4343.39,-134.759)">
        <g id="FilmrollIcon">
            <g>
                <path d="M1855.24,62.305C1907.85,62.305 1950.55,105.014 1950.55,157.619C1950.55,210.225 1907.85,252.934 1855.24,252.934C1802.63,252.934 1759.92,210.225 1759.92,157.619C1759.92,105.014 1802.63,62.305 1855.24,62.305ZM1855.74,196.111C1866.99,196.111 1876.13,205.245 1876.13,216.495C1876.13,227.746 1866.99,236.88 1855.74,236.88C1844.49,236.88 1835.36,227.746 1835.36,216.495C1835.36,205.245 1844.49,196.111 1855.74,196.111ZM1794.32,169.413C1804.37,164.361 1816.63,168.419 1821.69,178.471C1826.74,188.523 1822.68,200.786 1812.63,205.839C1802.58,210.892 1790.32,206.833 1785.26,196.781C1780.21,186.729 1784.27,174.466 1794.32,169.413ZM1915.94,169.145C1905.89,164.092 1893.63,168.151 1888.58,178.203C1883.52,188.255 1887.58,200.518 1897.63,205.571C1907.69,210.623 1919.95,206.565 1925,196.513C1930.05,186.461 1926,174.198 1915.94,169.145ZM1855.24,135.831C1843.21,135.831 1833.45,145.594 1833.45,157.619C1833.45,169.644 1843.21,179.407 1855.24,179.407C1867.27,179.407 1877.03,169.644 1877.03,157.619C1877.03,145.594 1867.27,135.831 1855.24,135.831ZM1855.24,144.844C1848.19,144.844 1842.46,150.568 1842.46,157.619C1842.46,164.67 1848.19,170.395 1855.24,170.395C1862.29,170.395 1868.02,164.67 1868.02,157.619C1868.02,150.568 1862.29,144.844 1855.24,144.844ZM1895.85,111.219C1886.43,117.365 1883.77,130.005 1889.91,139.428C1896.06,148.852 1908.7,151.512 1918.12,145.366C1927.55,139.22 1930.21,126.58 1924.06,117.157C1917.92,107.733 1905.28,105.073 1895.85,111.219ZM1815.31,111.031C1824.73,117.177 1827.39,129.818 1821.25,139.241C1815.1,148.664 1802.46,151.325 1793.04,145.179C1783.61,139.033 1780.95,126.393 1787.1,116.969C1793.25,107.546 1805.88,104.885 1815.31,111.031ZM1855.54,78.359C1866.79,78.359 1875.92,87.493 1875.92,98.743C1875.92,109.994 1866.79,119.128 1855.54,119.128C1844.29,119.128 1835.16,109.994 1835.16,98.743C1835.16,87.493 1844.29,78.359 1855.54,78.359Z" style="fill:white;"/>
            </g>
        </g>
    </g>
</svg>
