<?xml version="1.0" encoding="UTF-8" standalone="no"?>
<!DOCTYPE svg PUBLIC "-//W3C//DTD SVG 1.1//EN" "http://www.w3.org/Graphics/SVG/1.1/DTD/svg11.dtd">
<svg width="100%" height="100%" viewBox="0 0 512 512" version="1.1" xmlns="http://www.w3.org/2000/svg" xmlns:xlink="http://www.w3.org/1999/xlink" xml:space="preserve" xmlns:serif="http://www.serif.com/" style="fill-rule:evenodd;clip-rule:evenodd;stroke-linejoin:round;stroke-miterlimit:2;">
    <g id="FingerIcon" transform="matrix(4.01666,0,0,3.96912,-275.223,-1617.87)">
        <path d="M120.72,517.616L87.728,483.466C83.955,479.561 84.063,473.327 87.968,469.555C91.873,465.782 98.106,465.89 101.878,469.795L111.625,479.883L111.625,424.585C111.625,419.605 115.668,415.562 120.648,415.562C125.628,415.562 129.671,419.605 129.671,424.585L129.671,446.348C131.42,444.428 133.939,443.222 136.739,443.222C142.013,443.222 146.295,447.504 146.295,452.779L146.295,453.917C148.044,451.996 150.563,450.79 153.362,450.79C158.637,450.79 162.919,455.072 162.919,460.347L162.919,461.172C164.667,459.252 167.187,458.046 169.986,458.046C175.261,458.046 179.543,462.328 179.543,467.602L179.513,494.862C179.513,513.518 164.366,528.665 145.71,528.665C135.813,528.665 126.904,524.403 120.72,517.616Z" style="fill:white;"/>
    </g>
</svg>
