<?xml version="1.0" encoding="UTF-8" standalone="no"?>
<!DOCTYPE svg PUBLIC "-//W3C//DTD SVG 1.1//EN" "http://www.w3.org/Graphics/SVG/1.1/DTD/svg11.dtd">
<svg width="100%" height="100%" viewBox="0 0 512 512" version="1.1" xmlns="http://www.w3.org/2000/svg" xmlns:xlink="http://www.w3.org/1999/xlink" xml:space="preserve" xmlns:serif="http://www.serif.com/" style="fill-rule:evenodd;clip-rule:evenodd;stroke-linejoin:round;stroke-miterlimit:2;">
    <g id="FireplaceIcon" transform="matrix(4.2357,0,0,4.01962,-17996.4,-2695.52)">
        <g transform="matrix(-0.63046,0,0,0.63046,7024.87,271.297)">
            <g transform="matrix(-1.51951,0,0,1.6012,18751.1,-4471.19)">
                <path d="M9525.06,3271.13C9522.38,3273.48 9520.68,3276.93 9520.68,3280.77C9520.68,3284.62 9522.38,3288.07 9525.06,3290.42L9477.27,3290.42L9477.27,3290.42C9472.01,3290.35 9467.76,3286.06 9467.76,3280.77C9467.76,3275.49 9472.01,3271.2 9477.27,3271.13L9477.27,3271.13L9525.06,3271.13Z" style="fill:white;"/>
            </g>
            <g transform="matrix(0.957992,0,0,1.01064,3582.13,-2919.07)">
                <circle cx="712.649" cy="3662.08" r="15.283" style="fill:white;"/>
            </g>
            <g transform="matrix(1.51951,0,0,1.6012,-10136.2,-4436.86)">
                <path d="M9525.06,3271.13C9522.38,3273.48 9520.68,3276.93 9520.68,3280.77C9520.68,3284.62 9522.38,3288.07 9525.06,3290.42L9477.27,3290.42L9477.27,3290.42C9472.01,3290.35 9467.76,3286.06 9467.76,3280.77C9467.76,3275.49 9472.01,3271.2 9477.27,3271.13L9477.27,3271.13L9525.06,3271.13Z" style="fill:white;"/>
            </g>
            <g transform="matrix(-0.957992,0,0,1.01064,5032.8,-2884.74)">
                <circle cx="712.649" cy="3662.08" r="15.283" style="fill:white;"/>
            </g>
        </g>
        <g transform="matrix(0.957992,0,0,1.00949,-4796.96,-2545.39)">
            <path d="M9490.22,3263.6C9479.28,3259.28 9471.78,3250.28 9471.6,3239.88C9471.41,3228.36 9481.03,3218.43 9482.18,3210.07C9486.59,3214.1 9485.6,3222.61 9485.6,3222.61C9485.6,3222.61 9499.88,3211.05 9500.1,3188.01C9519.15,3195.6 9521.03,3216.21 9521.03,3216.21C9521.03,3216.21 9524.98,3212.04 9523.43,3202.36C9532.53,3211.81 9542.01,3225.17 9538.57,3240.73C9536.29,3251.08 9529.23,3259.88 9518.5,3263.93C9526.82,3243.23 9521.1,3228.95 9506.58,3219.11C9508.62,3232.9 9499.98,3239.95 9499.98,3239.95C9499.98,3239.95 9501.55,3234.33 9497.45,3228.92C9497.21,3243.59 9481.73,3241.57 9490.22,3263.6Z" style="fill:white;"/>
        </g>
    </g>
</svg>
