<?xml version="1.0" encoding="UTF-8" standalone="no"?>
<!DOCTYPE svg PUBLIC "-//W3C//DTD SVG 1.1//EN" "http://www.w3.org/Graphics/SVG/1.1/DTD/svg11.dtd">
<svg width="100%" height="100%" viewBox="0 0 512 512" version="1.1" xmlns="http://www.w3.org/2000/svg" xmlns:xlink="http://www.w3.org/1999/xlink" xml:space="preserve" xmlns:serif="http://www.serif.com/" style="fill-rule:evenodd;clip-rule:evenodd;stroke-linejoin:round;stroke-miterlimit:2;">
    <g id="FistIcon" transform="matrix(6.84975,0,0,6.84975,-11129,-5102.18)">
        <path d="M1668.2,806.321C1669.62,806.321 1670.77,807.473 1670.77,808.892L1670.77,814.034C1670.77,815.453 1669.62,816.606 1668.2,816.606L1639.03,816.606C1637.62,816.606 1636.46,815.453 1636.46,814.034L1636.46,808.892C1636.46,807.473 1637.62,806.321 1639.03,806.321L1668.2,806.321ZM1676.16,777.785L1669.79,763.898C1668.32,760.703 1669.74,756.943 1672.94,755.505C1676.15,754.068 1679.95,755.495 1681.41,758.69L1690.22,777.875C1691.43,780.525 1690.67,783.565 1688.54,785.344L1671.27,803.437L1640.07,803.437C1636.4,803.437 1633.41,800.529 1633.41,796.948L1633.41,774.907C1633.41,774.755 1635.29,778.687 1639.53,778.454C1642.09,778.314 1644.28,776.904 1645.17,774.715C1646.06,776.904 1648.25,778.454 1650.81,778.454C1653.37,778.454 1655.56,776.904 1656.45,774.715C1657.33,776.904 1659.52,778.454 1662.08,778.454C1664.64,778.454 1666.84,776.904 1667.72,774.715C1668.61,776.904 1670.8,778.454 1673.36,778.454C1674.37,778.454 1675.32,778.212 1676.16,777.785ZM1671.42,774.547C1669.51,774.095 1667.97,772.742 1667.26,770.973C1666.38,773.161 1664.22,774.711 1661.69,774.711C1659.17,774.711 1657.01,773.161 1656.13,770.973C1655.26,773.161 1653.1,774.711 1650.57,774.711C1648.05,774.711 1645.89,773.161 1645.01,770.973C1644.13,773.161 1641.97,774.711 1639.45,774.711C1636.15,774.711 1633.47,772.064 1633.47,768.804L1633.47,753.791C1633.47,750.531 1636.15,747.884 1639.45,747.884C1641.97,747.884 1644.13,749.434 1645.01,751.623C1645.89,749.434 1648.05,747.884 1650.57,747.884C1653.1,747.884 1655.26,749.434 1656.13,751.623C1657.01,749.434 1659.17,747.884 1661.69,747.884C1664.22,747.884 1666.38,749.434 1667.26,751.623C1668.13,749.434 1670.29,747.884 1672.82,747.884C1675.59,747.884 1677.92,749.747 1678.6,752.271C1676.42,751.563 1673.99,751.628 1671.74,752.635C1666.99,754.764 1664.88,760.304 1667.03,764.998L1671.42,774.547Z" style="fill:white;"/>
    </g>
</svg>
