<?xml version="1.0" encoding="UTF-8" standalone="no"?>
<!DOCTYPE svg PUBLIC "-//W3C//DTD SVG 1.1//EN" "http://www.w3.org/Graphics/SVG/1.1/DTD/svg11.dtd">
<svg width="100%" height="100%" viewBox="0 0 512 512" version="1.1" xmlns="http://www.w3.org/2000/svg" xmlns:xlink="http://www.w3.org/1999/xlink" xml:space="preserve" xmlns:serif="http://www.serif.com/" style="fill-rule:evenodd;clip-rule:evenodd;stroke-linejoin:round;stroke-miterlimit:2;">
    <g id="FlagIcon" transform="matrix(8.08188,0,0,8.08188,-8971.86,-5701.73)">
        <g transform="matrix(1,0,0,1,4.7286,-0.169949)">
            <path d="M1159.3,712.888C1159.31,712.869 1159.31,712.844 1159.3,712.823C1159.29,712.803 1159.27,712.79 1159.25,712.79L1125.85,712.79C1125.82,712.79 1125.79,712.817 1125.79,712.851C1125.79,714.189 1125.79,736.795 1125.79,738.133C1125.79,738.167 1125.82,738.194 1125.85,738.194C1127.39,738.194 1157.12,738.194 1159.25,738.194C1159.27,738.194 1159.29,738.181 1159.3,738.161C1159.32,738.14 1159.31,738.115 1159.3,738.097C1158.49,736.953 1150.79,726.159 1150.28,725.454C1150.27,725.432 1150.27,725.403 1150.28,725.382C1150.79,724.683 1158.48,714.025 1159.3,712.888Z" style="fill:white;"/>
        </g>
        <g transform="matrix(1,0,0,0.867834,7.16162,94.6234)">
            <path d="M1119.65,708.496C1119.65,707.332 1118.83,706.387 1117.82,706.387L1114.16,706.387C1113.15,706.387 1112.33,707.332 1112.33,708.496L1112.33,772.313C1112.33,773.476 1113.15,774.421 1114.16,774.421L1117.82,774.421C1118.83,774.421 1119.65,773.476 1119.65,772.313L1119.65,708.496Z" style="fill:white;"/>
        </g>
    </g>
</svg>
