<?xml version="1.0" encoding="UTF-8" standalone="no"?>
<!DOCTYPE svg PUBLIC "-//W3C//DTD SVG 1.1//EN" "http://www.w3.org/Graphics/SVG/1.1/DTD/svg11.dtd">
<svg width="100%" height="100%" viewBox="0 0 512 512" version="1.1" xmlns="http://www.w3.org/2000/svg" xmlns:xlink="http://www.w3.org/1999/xlink" xml:space="preserve" xmlns:serif="http://www.serif.com/" style="fill-rule:evenodd;clip-rule:evenodd;stroke-linejoin:round;stroke-miterlimit:2;">
    <g id="Flower-Sun" serif:id="Flower Sun" transform="matrix(2.25016,0,0,2.25016,-960.227,-105.399)">
        <g transform="matrix(0.582337,0,0,1.08537,-428.217,-816.66)">
            <path d="M1673.15,896.807C1673.15,893.953 1668.83,891.636 1663.51,891.636C1658.19,891.636 1653.87,893.953 1653.87,896.807L1653.87,996.52C1653.87,999.374 1658.19,1001.69 1663.51,1001.69C1668.83,1001.69 1673.15,999.374 1673.15,996.52L1673.15,896.807Z" style="fill:rgb(12,166,86);"/>
        </g>
        <g transform="matrix(0.589475,0,0,0.589475,133.476,100.814)">
            <g transform="matrix(-0.5,0.866025,0.866025,0.5,900.892,-531.987)">
                <g transform="matrix(-0.694215,-3.21038e-16,-1.94742e-16,0.406226,1910.05,-208.906)">
                    <path d="M1673.15,899.871C1673.15,895.326 1670.99,891.636 1668.33,891.636L1658.69,891.636C1656.03,891.636 1653.87,895.326 1653.87,899.871L1653.87,993.456C1653.87,998.001 1656.03,1001.69 1658.69,1001.69L1668.33,1001.69C1670.99,1001.69 1673.15,998.001 1673.15,993.456L1673.15,899.871Z" style="fill:rgb(12,166,86);"/>
                </g>
                <g transform="matrix(-0.892112,1.48567e-16,1.48567e-16,0.892112,874.289,75.969)">
                    <ellipse cx="133.651" cy="50.597" rx="38.097" ry="50.174" style="fill:rgb(12,166,86);"/>
                    <clipPath id="_clip1">
                        <ellipse cx="133.651" cy="50.597" rx="38.097" ry="50.174"/>
                    </clipPath>
                    <g clip-path="url(#_clip1)">
                        <g transform="matrix(0.853451,0,0,0.852146,-1286.43,-697.124)">
                            <rect x="1662.74" y="814.242" width="55.864" height="126.083" style="fill:rgb(50,215,54);"/>
                        </g>
                    </g>
                </g>
            </g>
            <g transform="matrix(0.5,0.866025,-0.866025,0.5,480.103,-531.987)">
                <g transform="matrix(-0.694215,-3.21038e-16,-1.94742e-16,0.406226,1910.05,-208.906)">
                    <path d="M1673.15,899.871C1673.15,895.326 1670.99,891.636 1668.33,891.636L1658.69,891.636C1656.03,891.636 1653.87,895.326 1653.87,899.871L1653.87,993.456C1653.87,998.001 1656.03,1001.69 1658.69,1001.69L1668.33,1001.69C1670.99,1001.69 1673.15,998.001 1673.15,993.456L1673.15,899.871Z" style="fill:rgb(12,166,86);"/>
                </g>
                <g transform="matrix(-0.892112,1.48567e-16,1.48567e-16,0.892112,874.289,75.969)">
                    <ellipse cx="133.651" cy="50.597" rx="38.097" ry="50.174" style="fill:rgb(12,166,86);"/>
                    <clipPath id="_clip2">
                        <ellipse cx="133.651" cy="50.597" rx="38.097" ry="50.174"/>
                    </clipPath>
                    <g clip-path="url(#_clip2)">
                        <g transform="matrix(0.853451,0,0,0.852146,-1286.43,-697.124)">
                            <rect x="1662.74" y="814.242" width="55.864" height="126.083" style="fill:rgb(50,215,54);"/>
                        </g>
                    </g>
                </g>
            </g>
        </g>
        <g transform="matrix(1.02703,0,0,1.02703,-1025.39,-759.174)">
            <path d="M1510.79,810.742C1510.79,798.483 1517.01,788.531 1524.68,788.531C1532.34,788.531 1538.56,798.483 1538.56,810.742C1545.77,800.825 1556.65,796.43 1562.86,800.936C1569.06,805.441 1568.24,817.151 1561.04,827.069C1572.69,823.28 1584.08,826.123 1586.45,833.413C1588.82,840.703 1581.28,849.696 1569.62,853.485C1581.28,857.273 1588.82,866.267 1586.45,873.557C1584.08,880.846 1572.69,883.689 1561.04,879.901C1568.24,889.819 1569.06,901.528 1562.86,906.034C1556.65,910.539 1545.77,906.145 1538.56,896.227C1538.56,908.486 1532.34,918.439 1524.68,918.439C1517.01,918.439 1510.79,908.486 1510.79,896.227C1503.58,906.145 1492.7,910.539 1486.5,906.034C1480.3,901.528 1481.11,889.819 1488.32,879.901C1476.66,883.689 1465.27,880.846 1462.9,873.557C1460.53,866.267 1468.08,857.273 1479.74,853.485C1468.08,849.696 1460.53,840.703 1462.9,833.413C1465.27,826.123 1476.66,823.28 1488.32,827.069C1481.11,817.151 1480.3,805.441 1486.5,800.936C1492.7,796.43 1503.58,800.825 1510.79,810.742Z" style="fill:rgb(255,217,64);"/>
            <clipPath id="_clip3">
                <path d="M1510.79,810.742C1510.79,798.483 1517.01,788.531 1524.68,788.531C1532.34,788.531 1538.56,798.483 1538.56,810.742C1545.77,800.825 1556.65,796.43 1562.86,800.936C1569.06,805.441 1568.24,817.151 1561.04,827.069C1572.69,823.28 1584.08,826.123 1586.45,833.413C1588.82,840.703 1581.28,849.696 1569.62,853.485C1581.28,857.273 1588.82,866.267 1586.45,873.557C1584.08,880.846 1572.69,883.689 1561.04,879.901C1568.24,889.819 1569.06,901.528 1562.86,906.034C1556.65,910.539 1545.77,906.145 1538.56,896.227C1538.56,908.486 1532.34,918.439 1524.68,918.439C1517.01,918.439 1510.79,908.486 1510.79,896.227C1503.58,906.145 1492.7,910.539 1486.5,906.034C1480.3,901.528 1481.11,889.819 1488.32,879.901C1476.66,883.689 1465.27,880.846 1462.9,873.557C1460.53,866.267 1468.08,857.273 1479.74,853.485C1468.08,849.696 1460.53,840.703 1462.9,833.413C1465.27,826.123 1476.66,823.28 1488.32,827.069C1481.11,817.151 1480.3,805.441 1486.5,800.936C1492.7,796.43 1503.58,800.825 1510.79,810.742Z"/>
            </clipPath>
            <g clip-path="url(#_clip3)">
                <g transform="matrix(0.656275,0,0,0.845151,502.149,142.823)">
                    <rect x="1558.36" y="757.806" width="97.198" height="162.475" style="fill:rgb(252,191,41);"/>
                </g>
            </g>
        </g>
        <g transform="matrix(1.03399,0,0,1.03399,-1027.13,-775.548)">
            <circle cx="1516.11" cy="863.577" r="33.475" style="fill:rgb(191,96,21);"/>
            <clipPath id="_clip4">
                <circle cx="1516.11" cy="863.577" r="33.475"/>
            </clipPath>
            <g clip-path="url(#_clip4)">
                <g transform="matrix(0.399741,0,0,0.529577,893.349,418.062)">
                    <rect x="1558.36" y="757.806" width="97.198" height="162.475" style="fill:rgb(153,76,16);"/>
                </g>
            </g>
        </g>
    </g>
</svg>
