<?xml version="1.0" encoding="UTF-8" standalone="no"?>
<!DOCTYPE svg PUBLIC "-//W3C//DTD SVG 1.1//EN" "http://www.w3.org/Graphics/SVG/1.1/DTD/svg11.dtd">
<svg width="100%" height="100%" viewBox="0 0 512 512" version="1.1" xmlns="http://www.w3.org/2000/svg" xmlns:xlink="http://www.w3.org/1999/xlink" xml:space="preserve" xmlns:serif="http://www.serif.com/" style="fill-rule:evenodd;clip-rule:evenodd;stroke-linejoin:round;stroke-miterlimit:2;">
    <g id="Flower-Red" serif:id="Flower Red" transform="matrix(2.25016,0,0,2.25016,-960.227,-89.2295)">
        <g transform="matrix(0.783302,0,0,1.08537,-762.525,-837.211)">
            <path d="M1673.15,898.592C1673.15,894.753 1668.83,891.636 1663.51,891.636C1658.19,891.636 1653.87,894.753 1653.87,898.592L1653.87,994.736C1653.87,998.574 1658.19,1001.69 1663.51,1001.69C1668.83,1001.69 1673.15,998.574 1673.15,994.736L1673.15,898.592Z" style="fill:rgb(0,102,90);"/>
        </g>
        <g transform="matrix(0.69889,0,0,0.69889,57.9255,70.9744)">
            <g transform="matrix(-0.5,0.866025,0.866025,0.5,900.892,-531.987)">
                <g transform="matrix(-0.694215,-3.21038e-16,-1.94742e-16,0.406226,1910.05,-208.906)">
                    <path d="M1673.15,899.871C1673.15,895.326 1670.99,891.636 1668.33,891.636L1658.69,891.636C1656.03,891.636 1653.87,895.326 1653.87,899.871L1653.87,993.456C1653.87,998.001 1656.03,1001.69 1658.69,1001.69L1668.33,1001.69C1670.99,1001.69 1673.15,998.001 1673.15,993.456L1673.15,899.871Z" style="fill:rgb(0,102,90);"/>
                </g>
                <g transform="matrix(-0.892112,1.48567e-16,1.48567e-16,0.892112,874.289,75.969)">
                    <ellipse cx="133.651" cy="50.597" rx="38.097" ry="50.174" style="fill:rgb(51,199,120);"/>
                    <clipPath id="_clip1">
                        <ellipse cx="133.651" cy="50.597" rx="38.097" ry="50.174"/>
                    </clipPath>
                    <g clip-path="url(#_clip1)">
                        <g transform="matrix(0.853451,0,0,0.852146,-1286.43,-697.124)">
                            <rect x="1662.74" y="814.242" width="55.864" height="126.083" style="fill:rgb(30,168,97);"/>
                        </g>
                    </g>
                </g>
            </g>
            <g transform="matrix(0.5,0.866025,-0.866025,0.5,480.103,-531.987)">
                <g transform="matrix(-0.694215,-3.21038e-16,-1.94742e-16,0.406226,1910.05,-208.906)">
                    <path d="M1673.15,899.871C1673.15,895.326 1670.99,891.636 1668.33,891.636L1658.69,891.636C1656.03,891.636 1653.87,895.326 1653.87,899.871L1653.87,993.456C1653.87,998.001 1656.03,1001.69 1658.69,1001.69L1668.33,1001.69C1670.99,1001.69 1673.15,998.001 1673.15,993.456L1673.15,899.871Z" style="fill:rgb(0,102,90);"/>
                </g>
                <g transform="matrix(-0.892112,1.48567e-16,1.48567e-16,0.892112,874.289,75.969)">
                    <ellipse cx="133.651" cy="50.597" rx="38.097" ry="50.174" style="fill:rgb(51,199,120);"/>
                    <clipPath id="_clip2">
                        <ellipse cx="133.651" cy="50.597" rx="38.097" ry="50.174"/>
                    </clipPath>
                    <g clip-path="url(#_clip2)">
                        <g transform="matrix(0.853451,0,0,0.852146,-1286.43,-697.124)">
                            <rect x="1662.74" y="814.242" width="55.864" height="126.083" style="fill:rgb(30,168,97);"/>
                        </g>
                    </g>
                </g>
            </g>
        </g>
        <g transform="matrix(0.93191,0,0,0.93191,-880.354,-677.988)">
            <path d="M1498.41,807.987C1501.24,796.991 1512.05,788.531 1524.68,788.531C1537.31,788.531 1548.12,796.991 1550.94,807.987C1561.88,804.939 1574.61,810.071 1580.93,821.008C1587.24,831.945 1585.32,845.537 1577.21,853.485C1585.32,861.433 1587.24,875.025 1580.93,885.962C1574.61,896.899 1561.88,902.03 1550.94,898.983C1548.12,909.978 1537.31,918.439 1524.68,918.439C1512.05,918.439 1501.24,909.978 1498.41,898.983C1487.47,902.03 1474.74,896.899 1468.42,885.962C1462.11,875.025 1464.03,861.433 1472.14,853.485C1464.03,845.537 1462.11,831.945 1468.42,821.008C1474.74,810.071 1487.47,804.939 1498.41,807.987Z" style="fill:rgb(255,107,107);"/>
            <clipPath id="_clip3">
                <path d="M1498.41,807.987C1501.24,796.991 1512.05,788.531 1524.68,788.531C1537.31,788.531 1548.12,796.991 1550.94,807.987C1561.88,804.939 1574.61,810.071 1580.93,821.008C1587.24,831.945 1585.32,845.537 1577.21,853.485C1585.32,861.433 1587.24,875.025 1580.93,885.962C1574.61,896.899 1561.88,902.03 1550.94,898.983C1548.12,909.978 1537.31,918.439 1524.68,918.439C1512.05,918.439 1501.24,909.978 1498.41,898.983C1487.47,902.03 1474.74,896.899 1468.42,885.962C1462.11,875.025 1464.03,861.433 1472.14,853.485C1464.03,845.537 1462.11,831.945 1468.42,821.008C1474.74,810.071 1487.47,804.939 1498.41,807.987Z"/>
            </clipPath>
            <g clip-path="url(#_clip3)">
                <g transform="matrix(0.672944,0,0,0.857792,548.22,82.8344)">
                    <rect x="1449.9" y="820.108" width="98.677" height="156.655" style="fill:rgb(250,82,82);"/>
                </g>
            </g>
        </g>
        <g transform="matrix(0.853311,0,0,0.853311,-753.202,-619.516)">
            <circle cx="1516.11" cy="863.577" r="33.475" style="fill:rgb(250,176,5);"/>
            <clipPath id="_clip4">
                <circle cx="1516.11" cy="863.577" r="33.475"/>
            </clipPath>
            <g clip-path="url(#_clip4)">
                <g transform="matrix(0.413315,0,0,0.48958,916.014,423.004)">
                    <rect x="1449.9" y="820.108" width="98.677" height="156.655" style="fill:rgb(245,159,0);"/>
                </g>
            </g>
        </g>
    </g>
</svg>
