<?xml version="1.0" encoding="UTF-8" standalone="no"?>
<!DOCTYPE svg PUBLIC "-//W3C//DTD SVG 1.1//EN" "http://www.w3.org/Graphics/SVG/1.1/DTD/svg11.dtd">
<svg width="100%" height="100%" viewBox="0 0 512 512" version="1.1" xmlns="http://www.w3.org/2000/svg" xmlns:xlink="http://www.w3.org/1999/xlink" xml:space="preserve" xmlns:serif="http://www.serif.com/" style="fill-rule:evenodd;clip-rule:evenodd;stroke-linejoin:round;stroke-miterlimit:2;">
    <g id="ForwardIcon" transform="matrix(21.1588,0,0,20.9084,-10799.4,-70581.2)">
        <path d="M533.612,3388.67L523.166,3394.88C522.918,3395.02 522.635,3395.03 522.385,3394.88C522.135,3394.74 521.993,3394.49 521.993,3394.2L521.993,3389.03L512.166,3394.88C511.918,3395.02 511.635,3395.03 511.385,3394.88C511.135,3394.74 510.993,3394.49 510.993,3394.2L510.993,3381.78C510.993,3381.48 511.135,3381.24 511.385,3381.09C511.635,3380.94 511.918,3380.95 512.166,3381.09L521.993,3386.93L521.993,3381.78C521.993,3381.48 522.135,3381.24 522.385,3381.09C522.635,3380.94 522.918,3380.95 523.166,3381.09L533.612,3387.3C533.858,3387.45 533.998,3387.7 533.998,3387.99C533.998,3388.27 533.858,3388.52 533.612,3388.67Z" style="fill:white;"/>
    </g>
</svg>
