<?xml version="1.0" encoding="UTF-8" standalone="no"?>
<!DOCTYPE svg PUBLIC "-//W3C//DTD SVG 1.1//EN" "http://www.w3.org/Graphics/SVG/1.1/DTD/svg11.dtd">
<svg width="100%" height="100%" viewBox="0 0 512 512" version="1.1" xmlns="http://www.w3.org/2000/svg" xmlns:xlink="http://www.w3.org/1999/xlink" xml:space="preserve" xmlns:serif="http://www.serif.com/" style="fill-rule:evenodd;clip-rule:evenodd;stroke-linejoin:round;stroke-miterlimit:2;">
    <g id="FreezeIcon" transform="matrix(7.69593,0,0,7.69593,-12542.9,-4226.52)">
        <path d="M1665.09,558.67L1672.11,551.737L1674.96,554.555L1665.09,564.307L1665.09,579.002L1677.97,571.654L1681.58,558.333L1685.48,559.364L1682.91,568.836L1687.71,566.096L1689.73,569.548L1684.93,572.288L1694.51,574.826L1693.47,578.676L1679.99,575.107L1667.11,582.454L1679.99,589.801L1693.47,586.231L1694.51,590.081L1684.93,592.619L1690.53,595.817L1688.52,599.269L1682.91,596.071L1685.48,605.543L1681.58,606.574L1677.97,593.253L1665.09,585.906L1665.09,600.6L1674.96,610.352L1672.11,613.171L1665.09,606.237L1665.09,612.633L1661.06,612.633L1661.06,606.237L1654.04,613.171L1651.19,610.352L1661.06,600.6L1661.06,585.906L1648.18,593.253L1644.57,606.574L1640.67,605.543L1643.24,596.071L1637.63,599.269L1635.62,595.817L1641.22,592.619L1631.64,590.081L1632.68,586.231L1646.16,589.801L1659.04,582.454L1646.16,575.107L1632.68,578.676L1631.64,574.826L1641.22,572.288L1636.42,569.548L1638.44,566.096L1643.24,568.836L1640.67,559.364L1644.57,558.333L1648.18,571.654L1661.06,579.002L1661.06,564.307L1651.19,554.555L1654.04,551.737L1661.06,558.67L1661.06,553.191L1665.09,553.191L1665.09,558.67Z" style="fill:white;"/>
    </g>
</svg>
