<?xml version="1.0" encoding="UTF-8" standalone="no"?>
<!DOCTYPE svg PUBLIC "-//W3C//DTD SVG 1.1//EN" "http://www.w3.org/Graphics/SVG/1.1/DTD/svg11.dtd">
<svg width="100%" height="100%" viewBox="0 0 512 512" version="1.1" xmlns="http://www.w3.org/2000/svg" xmlns:xlink="http://www.w3.org/1999/xlink" xml:space="preserve" xmlns:serif="http://www.serif.com/" style="fill-rule:evenodd;clip-rule:evenodd;stroke-linejoin:round;stroke-miterlimit:2;">
    <g id="FriendsIcon" transform="matrix(6.54114,0,0,6.54114,-6490.16,-2269.02)">
        <path d="M1036.73,390.845C1044.88,394.493 1049.64,401.043 1050.19,406.653C1050.8,412.821 1043.48,415.249 1024.52,415.649C1023.89,415.663 1023.27,415.667 1022.66,415.663C1022.05,415.667 1021.43,415.663 1020.8,415.649C1001.84,415.249 994.517,412.821 995.124,406.653C995.673,401.073 1000.38,394.563 1008.45,390.904C1011.91,395.967 1017.09,399.138 1022.57,399.138C1028.07,399.138 1033.28,395.942 1036.73,390.845ZM1047.8,392.798C1050.21,391.365 1052.37,389.299 1054.08,386.76C1062.25,390.395 1067.01,396.948 1067.56,402.56C1068,407.017 1064.3,409.52 1055.06,410.718C1055.34,409.763 1055.42,408.718 1055.32,407.576C1054.89,402.704 1052.29,397.296 1047.8,392.798ZM1022.77,395.174C1015.17,395.174 1008.29,387.226 1008.29,376.977C1008.29,367.434 1011.82,360.488 1022.77,360.47C1033.73,360.453 1037.26,367.434 1037.26,376.977C1037.26,387.226 1030.38,395.174 1022.77,395.174ZM1032.28,358.095C1034.32,356.992 1036.9,356.382 1040.14,356.377C1051.1,356.36 1054.63,363.341 1054.63,372.884C1054.63,381.003 1050.31,387.678 1044.73,390.101C1043.37,389.052 1041.88,388.084 1040.27,387.222C1041.37,384.307 1042,381.059 1042,377.608C1042,368.536 1039.45,361.264 1032.28,358.095Z" style="fill:white;"/>
    </g>
</svg>
