<?xml version="1.0" encoding="UTF-8" standalone="no"?>
<!DOCTYPE svg PUBLIC "-//W3C//DTD SVG 1.1//EN" "http://www.w3.org/Graphics/SVG/1.1/DTD/svg11.dtd">
<svg width="100%" height="100%" viewBox="0 0 512 512" version="1.1" xmlns="http://www.w3.org/2000/svg" xmlns:xlink="http://www.w3.org/1999/xlink" xml:space="preserve" xmlns:serif="http://www.serif.com/" style="fill-rule:evenodd;clip-rule:evenodd;stroke-linejoin:round;stroke-miterlimit:2;">
    <g id="FullscreenIcon" transform="matrix(7.7626,-7.7626,7.7626,7.7626,-23130.4,22.6211)">
        <g transform="matrix(1.14691,-1.11022e-16,1.11022e-16,1.14691,-216.821,-217.666)">
            <g transform="matrix(1,7.17944e-17,3.95364e-16,0.901056,-0.662138,148.987)">
                <path d="M1493.1,1502.87C1493.1,1502.49 1492.83,1502.18 1492.49,1502.18L1487.53,1502.18C1487.19,1502.18 1486.91,1502.49 1486.91,1502.87L1486.91,1514.76C1486.91,1515.14 1487.19,1515.45 1487.53,1515.45L1492.49,1515.45C1492.83,1515.45 1493.1,1515.14 1493.1,1514.76L1493.1,1502.87Z" style="fill:white;"/>
            </g>
            <g transform="matrix(0.784077,0,0,0.921669,321.772,117.854)">
                <path d="M1489.02,1495.95C1489.04,1495.93 1489.07,1495.91 1489.11,1495.91C1489.14,1495.91 1489.17,1495.93 1489.19,1495.95C1490.09,1496.94 1498.09,1505.75 1499.22,1506.98C1499.24,1507.01 1499.25,1507.05 1499.23,1507.08C1499.21,1507.11 1499.17,1507.13 1499.13,1507.13L1479.08,1507.13C1479.04,1507.13 1479,1507.11 1478.99,1507.08C1478.97,1507.05 1478.97,1507.01 1479,1506.98C1480.12,1505.75 1488.12,1496.94 1489.02,1495.95Z" style="fill:white;"/>
            </g>
        </g>
        <g transform="matrix(-1.14691,2.22045e-16,-2.22045e-16,-1.14691,3199.46,3260.44)">
            <g transform="matrix(1,7.17944e-17,3.95364e-16,0.901056,-0.662138,148.987)">
                <path d="M1493.1,1502.87C1493.1,1502.49 1492.83,1502.18 1492.49,1502.18L1487.53,1502.18C1487.19,1502.18 1486.91,1502.49 1486.91,1502.87L1486.91,1514.76C1486.91,1515.14 1487.19,1515.45 1487.53,1515.45L1492.49,1515.45C1492.83,1515.45 1493.1,1515.14 1493.1,1514.76L1493.1,1502.87Z" style="fill:white;"/>
            </g>
            <g transform="matrix(0.784077,0,0,0.921669,321.772,117.854)">
                <path d="M1489.02,1495.95C1489.04,1495.93 1489.07,1495.91 1489.11,1495.91C1489.14,1495.91 1489.17,1495.93 1489.19,1495.95C1490.09,1496.94 1498.09,1505.75 1499.22,1506.98C1499.24,1507.01 1499.25,1507.05 1499.23,1507.08C1499.21,1507.11 1499.17,1507.13 1499.13,1507.13L1479.08,1507.13C1479.04,1507.13 1479,1507.11 1478.99,1507.08C1478.97,1507.05 1478.97,1507.01 1479,1506.98C1480.12,1505.75 1488.12,1496.94 1489.02,1495.95Z" style="fill:white;"/>
            </g>
        </g>
    </g>
</svg>
