<?xml version="1.0" encoding="UTF-8" standalone="no"?>
<!DOCTYPE svg PUBLIC "-//W3C//DTD SVG 1.1//EN" "http://www.w3.org/Graphics/SVG/1.1/DTD/svg11.dtd">
<svg width="100%" height="100%" viewBox="0 0 512 512" version="1.1" xmlns="http://www.w3.org/2000/svg" xmlns:xlink="http://www.w3.org/1999/xlink" xml:space="preserve" xmlns:serif="http://www.serif.com/" style="fill-rule:evenodd;clip-rule:evenodd;stroke-linejoin:round;stroke-miterlimit:2;">
    <g id="GameIcon" transform="matrix(2.81683,0,-3.06122e-32,2.81683,-3553.56,-8921.68)">
        <path d="M1369.71,3218.93C1373.73,3218.93 1377.69,3217.9 1381.21,3215.94C1383.15,3214.6 1385.35,3213.71 1387.67,3213.08C1407.17,3207.86 1428.41,3223.82 1435.07,3248.69C1441.74,3273.57 1431.32,3298 1411.83,3303.23C1399.23,3306.6 1385.91,3301.14 1376.26,3290.14C1371.81,3285.14 1365.43,3282.27 1358.73,3282.27C1354.69,3282.11 1350.17,3282.11 1346.13,3282.11C1339.38,3282.11 1332.95,3284.99 1328.47,3290.04C1318.94,3301.14 1305.62,3306.6 1293.03,3303.23C1273.53,3298 1263.12,3273.57 1269.78,3248.69C1276.45,3223.82 1297.69,3207.86 1317.18,3213.08C1319.51,3213.71 1321.71,3214.6 1323.76,3215.74C1327.24,3217.68 1331.16,3218.7 1335.15,3218.7C1344.29,3218.93 1360.56,3218.93 1369.71,3218.93ZM1400.19,3265.99C1404.16,3265.99 1407.38,3269.21 1407.38,3273.18C1407.38,3277.14 1404.16,3280.36 1400.19,3280.36C1396.23,3280.36 1393.01,3277.14 1393.01,3273.18C1393.01,3269.21 1396.23,3265.99 1400.19,3265.99ZM1309.35,3251.44L1309.35,3239.24C1309.35,3237.78 1308.17,3236.59 1306.7,3236.59L1301.4,3236.59C1299.94,3236.59 1298.76,3237.78 1298.76,3239.24L1298.76,3251.44L1286.55,3251.44C1285.09,3251.44 1283.9,3252.63 1283.9,3254.09L1283.9,3259.39C1283.9,3260.85 1285.09,3262.04 1286.55,3262.04L1298.76,3262.04L1298.76,3274.24C1298.76,3275.7 1299.94,3276.89 1301.4,3276.89L1306.7,3276.89C1308.17,3276.89 1309.35,3275.7 1309.35,3274.24L1309.35,3262.04L1321.56,3262.04C1323.02,3262.04 1324.21,3260.85 1324.21,3259.39L1324.21,3254.09C1324.21,3252.63 1323.02,3251.44 1321.56,3251.44L1309.35,3251.44ZM1424.04,3256.51C1424.04,3260.48 1420.82,3263.7 1416.86,3263.7C1412.89,3263.7 1409.67,3260.48 1409.67,3256.51C1409.67,3252.55 1412.89,3249.33 1416.86,3249.33C1420.82,3249.33 1424.04,3252.55 1424.04,3256.51ZM1390.71,3256.51C1390.71,3260.48 1387.49,3263.7 1383.53,3263.7C1379.56,3263.7 1376.34,3260.48 1376.34,3256.51C1376.34,3252.55 1379.56,3249.33 1383.53,3249.33C1387.49,3249.33 1390.71,3252.55 1390.71,3256.51ZM1400.19,3232.66C1404.16,3232.66 1407.38,3235.88 1407.38,3239.85C1407.38,3243.81 1404.16,3247.03 1400.19,3247.03C1396.23,3247.03 1393.01,3243.81 1393.01,3239.85C1393.01,3235.88 1396.23,3232.66 1400.19,3232.66Z" style="fill:white;"/>
    </g>
</svg>
