<?xml version="1.0" encoding="UTF-8" standalone="no"?>
<!DOCTYPE svg PUBLIC "-//W3C//DTD SVG 1.1//EN" "http://www.w3.org/Graphics/SVG/1.1/DTD/svg11.dtd">
<svg width="100%" height="100%" viewBox="0 0 512 512" version="1.1" xmlns="http://www.w3.org/2000/svg" xmlns:xlink="http://www.w3.org/1999/xlink" xml:space="preserve" xmlns:serif="http://www.serif.com/" style="fill-rule:evenodd;clip-rule:evenodd;stroke-linecap:round;stroke-linejoin:round;stroke-miterlimit:1.5;">
    <g id="Game-Controller" serif:id="Game Controller" transform="matrix(2.1386,0,0,2.1386,-2605.8,-487.001)">
        <g transform="matrix(1,0,0,1,139.356,127.961)">
            <g transform="matrix(0.750726,0,0,1,293.862,3.69879)">
                <path d="M1309.51,194.32C1309.51,182.741 1296.99,173.341 1281.57,173.341L1129.45,173.341C1114.02,173.341 1101.5,182.741 1101.5,194.32L1101.5,236.279C1101.5,247.858 1114.02,257.259 1129.45,257.259L1281.57,257.259C1296.99,257.259 1309.51,247.858 1309.51,236.279L1309.51,194.32Z" style="fill:rgb(174,188,194);"/>
            </g>
            <g transform="matrix(1,0,0,1,-2.8188,-2.93387)">
                <circle cx="1144.41" cy="235.263" r="55.29" style="fill:rgb(174,188,194);"/>
            </g>
            <g transform="matrix(1,0,0,1,111.61,-2.93387)">
                <circle cx="1144.41" cy="235.263" r="55.29" style="fill:rgb(174,188,194);"/>
            </g>
        </g>
        <g transform="matrix(0.935192,0,0,0.935192,1218.46,231.053)">
            <path d="M128.996,101.149L128.996,54.849C128.996,46.053 136.127,38.923 144.922,38.923C144.923,38.923 144.924,38.923 144.925,38.923C153.721,38.923 160.851,31.792 160.851,22.997L160.851,5.724" style="fill:none;stroke:rgb(83,101,125);stroke-width:7.37px;"/>
        </g>
        <g transform="matrix(1,0,0,1,139.356,117.416)">
            <g transform="matrix(0.750726,0,0,1,293.862,3.69879)">
                <path d="M1309.51,194.32C1309.51,182.741 1296.99,173.341 1281.57,173.341L1129.45,173.341C1114.02,173.341 1101.5,182.741 1101.5,194.32L1101.5,236.279C1101.5,247.858 1114.02,257.259 1129.45,257.259L1281.57,257.259C1296.99,257.259 1309.51,247.858 1309.51,236.279L1309.51,194.32Z" style="fill:rgb(223,230,238);"/>
            </g>
            <g transform="matrix(1,0,0,1,-2.8188,-2.93387)">
                <circle cx="1144.41" cy="235.263" r="55.29" style="fill:rgb(223,230,238);"/>
            </g>
            <g transform="matrix(1,0,0,1,111.61,-2.93387)">
                <circle cx="1144.41" cy="235.263" r="55.29" style="fill:rgb(223,230,238);"/>
            </g>
        </g>
        <g transform="matrix(0.915228,0,0,0.915228,282.349,227.24)">
            <g transform="matrix(0.750455,0,0,1,209.481,-40.665)">
                <path d="M1185.69,155.917C1185.69,151.395 1180.8,147.723 1174.77,147.723C1168.75,147.723 1163.85,151.395 1163.85,155.917L1163.85,193.117C1163.85,197.64 1168.75,201.311 1174.77,201.311C1180.8,201.311 1185.69,197.64 1185.69,193.117L1185.69,155.917Z" style="fill:rgb(73,80,87);"/>
            </g>
            <g transform="matrix(4.59521e-17,0.750455,-1,6.12323e-17,1265.61,-747.763)">
                <path d="M1185.69,155.917C1185.69,151.395 1180.8,147.723 1174.77,147.723C1168.75,147.723 1163.85,151.395 1163.85,155.917L1163.85,193.117C1163.85,197.64 1168.75,201.311 1174.77,201.311C1180.8,201.311 1185.69,197.64 1185.69,193.117L1185.69,155.917Z" style="fill:rgb(73,80,87);"/>
            </g>
        </g>
        <g transform="matrix(0.866771,0,0,0.866771,227.202,198.442)">
            <g transform="matrix(1,0,0,1,-14.4568,-6.06563)">
                <circle cx="1362.19" cy="159.078" r="10.995" style="fill:rgb(209,51,91);"/>
            </g>
            <g transform="matrix(1,0,0,1,-14.4568,37.029)">
                <circle cx="1362.19" cy="159.078" r="10.995" style="fill:rgb(0,129,213);"/>
            </g>
            <g transform="matrix(6.12323e-17,1,-1,6.12323e-17,1528.36,-1187.63)">
                <circle cx="1362.19" cy="159.078" r="10.995" style="fill:rgb(3,189,91);"/>
            </g>
            <g transform="matrix(6.12323e-17,1,-1,6.12323e-17,1485.27,-1187.63)">
                <circle cx="1362.19" cy="159.078" r="10.995" style="fill:rgb(255,153,71);"/>
            </g>
        </g>
    </g>
</svg>
