<?xml version="1.0" encoding="UTF-8" standalone="no"?>
<!DOCTYPE svg PUBLIC "-//W3C//DTD SVG 1.1//EN" "http://www.w3.org/Graphics/SVG/1.1/DTD/svg11.dtd">
<svg width="100%" height="100%" viewBox="0 0 512 512" version="1.1" xmlns="http://www.w3.org/2000/svg" xmlns:xlink="http://www.w3.org/1999/xlink" xml:space="preserve" xmlns:serif="http://www.serif.com/" style="fill-rule:evenodd;clip-rule:evenodd;stroke-linejoin:round;stroke-miterlimit:2;">
    <g id="GemIcon1" transform="matrix(4.76246,0,0,4.76246,-57.8114,-735.436)">
        <path d="M23.593,234.331L64.393,210.775L64.393,257.887C63.708,257.735 63.04,257.479 62.415,257.118C54.167,252.356 33.495,240.421 25.247,235.659C24.622,235.298 24.067,234.849 23.593,234.331ZM67.393,257.887L67.393,210.775L108.192,234.331C107.719,234.849 107.163,235.298 106.538,235.659C98.29,240.421 77.618,252.356 69.37,257.118C68.745,257.479 68.078,257.735 67.393,257.887ZM22.093,184.622L62.893,208.177L22.093,231.733C21.882,231.064 21.77,230.358 21.77,229.636L21.77,186.718C21.77,185.996 21.882,185.29 22.093,184.622ZM109.692,184.622C109.904,185.29 110.016,185.996 110.016,186.718L110.016,229.636C110.016,230.358 109.904,231.064 109.692,231.733L68.893,208.177L109.692,184.622ZM64.393,158.468L64.393,205.579L23.593,182.024C24.067,181.506 24.622,181.056 25.247,180.695C33.495,175.933 54.167,163.998 62.415,159.236C63.04,158.875 63.708,158.619 64.393,158.468ZM67.393,158.468C68.078,158.619 68.745,158.875 69.37,159.236C77.618,163.998 98.29,175.933 106.538,180.695C107.163,181.056 107.719,181.506 108.192,182.024L67.393,205.579L67.393,158.468Z" style="fill:white;"/>
    </g>
</svg>
