<?xml version="1.0" encoding="UTF-8" standalone="no"?>
<!DOCTYPE svg PUBLIC "-//W3C//DTD SVG 1.1//EN" "http://www.w3.org/Graphics/SVG/1.1/DTD/svg11.dtd">
<svg width="100%" height="100%" viewBox="0 0 512 512" version="1.1" xmlns="http://www.w3.org/2000/svg" xmlns:xlink="http://www.w3.org/1999/xlink" xml:space="preserve" xmlns:serif="http://www.serif.com/" style="fill-rule:evenodd;clip-rule:evenodd;stroke-linejoin:round;stroke-miterlimit:2;">
    <g id="GemIcon" transform="matrix(5.2205,0,0,4.95418,-24962.3,-1946.86)">
        <g transform="matrix(0.591463,0,0,0.623259,-996.844,-1456.96)">
            <path d="M9815.67,3076.97C9815.75,3076.92 9815.85,3076.92 9815.93,3076.97C9818.07,3078.2 9846.11,3094.39 9848.26,3095.63C9848.34,3095.68 9848.39,3095.76 9848.39,3095.85C9848.39,3098.06 9848.39,3124.03 9848.39,3127.77C9848.39,3127.86 9848.34,3127.95 9848.26,3127.99C9848.18,3128.04 9848.08,3128.04 9848,3127.99C9843.08,3125.15 9792.95,3096.22 9788.03,3093.37C9787.95,3093.33 9787.9,3093.24 9787.9,3093.15C9787.9,3093.06 9787.95,3092.97 9788.03,3092.92C9791.27,3091.05 9813.76,3078.07 9815.67,3076.97ZM9889.58,3076.82C9889.66,3076.77 9889.76,3076.77 9889.84,3076.82C9891.76,3077.92 9914.24,3090.9 9917.48,3092.78C9917.56,3092.82 9917.61,3092.91 9917.61,3093C9917.61,3093.09 9917.56,3093.18 9917.48,3093.22C9912.57,3096.06 9862.69,3124.86 9857.77,3127.7C9857.69,3127.74 9857.6,3127.74 9857.52,3127.7C9857.44,3127.65 9857.39,3127.57 9857.39,3127.47C9857.39,3123.73 9857.39,3097.76 9857.39,3095.56C9857.39,3095.46 9857.44,3095.38 9857.52,3095.33C9859.65,3094.1 9887.45,3078.05 9889.58,3076.82ZM9811.72,3031.71C9811.8,3031.76 9811.85,3031.85 9811.85,3031.94C9811.85,3034.39 9811.85,3066.18 9811.85,3068.63C9811.85,3068.72 9811.8,3068.81 9811.72,3068.85C9809.81,3069.96 9787.32,3082.94 9784.08,3084.81C9784,3084.86 9783.9,3084.86 9783.82,3084.81C9783.74,3084.76 9783.69,3084.68 9783.69,3084.59C9783.69,3078.93 9783.69,3021.63 9783.69,3015.98C9783.69,3015.89 9783.74,3015.8 9783.82,3015.76C9783.9,3015.71 9784,3015.71 9784.08,3015.76C9787.32,3017.63 9809.81,3030.61 9811.72,3031.71ZM9893.4,3032.24C9893.4,3032.14 9893.45,3032.06 9893.53,3032.01C9895.44,3030.91 9917.93,3017.93 9921.17,3016.05C9921.25,3016.01 9921.35,3016.01 9921.43,3016.05C9921.51,3016.1 9921.56,3016.18 9921.56,3016.28C9921.56,3021.91 9921.56,3078.66 9921.56,3084.29C9921.56,3084.38 9921.51,3084.47 9921.43,3084.51C9921.35,3084.56 9921.25,3084.56 9921.17,3084.51C9917.93,3082.64 9895.44,3069.66 9893.53,3068.55C9893.45,3068.51 9893.4,3068.42 9893.4,3068.33C9893.4,3065.9 9893.4,3034.67 9893.4,3032.24ZM9857.52,3006.81C9857.44,3006.76 9857.39,3006.68 9857.39,3006.58C9857.39,3004.38 9857.39,2978.41 9857.39,2974.67C9857.39,2974.57 9857.44,2974.49 9857.52,2974.44C9857.6,2974.4 9857.69,2974.4 9857.77,2974.44C9862.62,2977.24 9911.27,3005.33 9916.12,3008.13C9916.2,3008.18 9916.25,3008.26 9916.25,3008.35C9916.25,3008.45 9916.2,3008.53 9916.12,3008.58C9912.88,3010.45 9890.39,3023.43 9888.48,3024.54C9888.4,3024.58 9888.3,3024.58 9888.22,3024.54C9886.14,3023.33 9859.6,3008.01 9857.52,3006.81ZM9848.39,3006.29C9848.39,3006.38 9848.34,3006.46 9848.26,3006.51C9846.16,3007.72 9819.39,3023.18 9817.29,3024.39C9817.21,3024.43 9817.11,3024.43 9817.03,3024.39C9815.12,3023.28 9792.64,3010.3 9789.39,3008.43C9789.31,3008.38 9789.26,3008.3 9789.26,3008.2C9789.26,3008.11 9789.31,3008.03 9789.39,3007.98C9794.25,3005.17 9843.14,2976.95 9848,2974.14C9848.08,2974.1 9848.18,2974.1 9848.26,2974.14C9848.34,2974.19 9848.39,2974.28 9848.39,2974.37C9848.39,2978.11 9848.39,3004.08 9848.39,3006.29Z" style="fill:white;"/>
        </g>
        <g transform="matrix(0.591463,0,0,0.623259,-995.286,-1458.28)">
            <path d="M9849.86,3015.54C9849.94,3015.49 9850.04,3015.49 9850.12,3015.54C9852.27,3016.78 9880.38,3033.01 9882.53,3034.25C9882.61,3034.3 9882.66,3034.38 9882.66,3034.47C9882.66,3036.95 9882.66,3069.42 9882.66,3071.89C9882.66,3071.99 9882.61,3072.07 9882.53,3072.12C9880.38,3073.36 9852.27,3089.59 9850.12,3090.83C9850.04,3090.88 9849.94,3090.88 9849.86,3090.83C9847.72,3089.59 9819.6,3073.36 9817.46,3072.12C9817.38,3072.07 9817.33,3071.99 9817.33,3071.89C9817.33,3069.42 9817.33,3036.95 9817.33,3034.47C9817.33,3034.38 9817.38,3034.3 9817.46,3034.25C9819.6,3033.01 9847.72,3016.78 9849.86,3015.54Z" style="fill:white;"/>
        </g>
    </g>
</svg>
