<?xml version="1.0" encoding="UTF-8" standalone="no"?>
<!DOCTYPE svg PUBLIC "-//W3C//DTD SVG 1.1//EN" "http://www.w3.org/Graphics/SVG/1.1/DTD/svg11.dtd">
<svg width="100%" height="100%" viewBox="0 0 512 512" version="1.1" xmlns="http://www.w3.org/2000/svg" xmlns:xlink="http://www.w3.org/1999/xlink" xml:space="preserve" xmlns:serif="http://www.serif.com/" style="fill-rule:evenodd;clip-rule:evenodd;stroke-linejoin:round;stroke-miterlimit:2;">
    <g id="GemIcon4" transform="matrix(4.00615,0,0,3.80178,-16959.6,-1582.49)">
        <g transform="matrix(0.308545,0,0,0.325191,4235.18,302.849)">
            <g id="GemIcon">
                <path id="GemIcon1" serif:id="GemIcon" d="M310.786,661.084C310.765,661.152 310.702,661.2 310.631,661.2C310.559,661.2 310.496,661.152 310.476,661.084C308.001,652.75 276.721,547.418 275.144,542.109C275.13,542.06 275.139,542.007 275.17,541.966C275.2,541.925 275.249,541.901 275.3,541.901C279.449,541.901 341.812,541.901 345.962,541.901C346.013,541.901 346.061,541.925 346.092,541.966C346.122,542.007 346.132,542.06 346.117,542.109C344.54,547.418 313.261,652.75 310.786,661.084ZM296.207,646.692C296.23,646.768 296.195,646.849 296.125,646.884C296.054,646.919 295.968,646.899 295.922,646.835C289.131,637.567 223.212,547.599 219.226,542.158C219.19,542.109 219.184,542.044 219.212,541.99C219.24,541.935 219.295,541.901 219.356,541.901C223.258,541.901 261.67,541.901 264.093,541.901C264.164,541.901 264.227,541.948 264.248,542.016C265.369,545.689 293.119,636.577 296.207,646.692ZM325.34,646.835C325.293,646.899 325.207,646.919 325.137,646.884C325.066,646.849 325.031,646.768 325.055,646.692C328.143,636.577 355.892,545.689 357.014,542.016C357.035,541.948 357.097,541.901 357.169,541.901L401.905,541.901C401.966,541.901 402.022,541.935 402.05,541.99C402.077,542.044 402.072,542.109 402.036,542.158C398.05,547.599 332.131,637.567 325.34,646.835ZM346.117,532.904C346.132,532.953 346.122,533.006 346.092,533.047C346.061,533.088 346.013,533.112 345.962,533.112C341.812,533.112 279.449,533.112 275.3,533.112C275.249,533.112 275.2,533.088 275.17,533.047C275.139,533.006 275.13,532.953 275.144,532.904C275.999,530.026 285.453,498.192 286.095,496.027C286.116,495.959 286.179,495.912 286.251,495.912C288.845,495.912 332.416,495.912 335.011,495.912C335.083,495.912 335.146,495.959 335.166,496.027C335.809,498.192 345.262,530.026 346.117,532.904ZM264.248,532.997C264.227,533.065 264.164,533.112 264.093,533.112C261.67,533.112 223.258,533.112 219.356,533.112C219.295,533.112 219.24,533.078 219.212,533.023C219.184,532.969 219.19,532.904 219.226,532.855C221.572,529.653 245.035,497.629 246.245,495.978C246.276,495.936 246.324,495.912 246.376,495.912C247.985,495.912 272.761,495.912 275.352,495.912C275.403,495.912 275.451,495.936 275.482,495.977C275.512,496.018 275.522,496.072 275.507,496.121C274.626,499.007 264.905,530.844 264.248,532.997ZM402.036,532.855C402.072,532.904 402.077,532.969 402.05,533.023C402.022,533.078 401.966,533.112 401.905,533.112C398.003,533.112 359.592,533.112 357.169,533.112C357.097,533.112 357.035,533.065 357.014,532.997C356.356,530.844 346.636,499.007 345.755,496.121C345.74,496.072 345.749,496.018 345.78,495.977C345.81,495.936 345.858,495.912 345.91,495.912C348.5,495.912 373.276,495.912 374.886,495.912C374.937,495.912 374.986,495.936 375.016,495.978C376.226,497.629 399.69,529.653 402.036,532.855Z" style="fill:white;"/>
            </g>
        </g>
        <g id="GemIcon2" serif:id="GemIcon" transform="matrix(0.957992,0,0,1.00949,-4813.43,-3705.2)">
            <path d="M9520.99,4130.14L9511.22,4143.38C9510.99,4143.69 9510.99,4144.13 9511.22,4144.44L9515.64,4150.48L9510.42,4168.05C9510.4,4168.14 9510.32,4168.19 9510.23,4168.19C9510.14,4168.19 9510.07,4168.14 9510.04,4168.05L9504.82,4150.48L9509.24,4144.44C9509.47,4144.13 9509.47,4143.69 9509.24,4143.38L9499.47,4130.14L9520.99,4130.14ZM9502.47,4153.69L9505.33,4163.06C9505.36,4163.15 9505.32,4163.25 9505.23,4163.3C9505.14,4163.34 9505.04,4163.32 9504.98,4163.24L9500.23,4156.75L9502.47,4153.69ZM9517.99,4153.69L9520.24,4156.75L9515.49,4163.24C9515.43,4163.32 9515.32,4163.34 9515.24,4163.3C9515.15,4163.25 9515.1,4163.15 9515.13,4163.06L9517.99,4153.69ZM9539.5,4126.99C9539.55,4127.05 9539.56,4127.13 9539.52,4127.2C9539.49,4127.26 9539.42,4127.31 9539.34,4127.31C9537.17,4127.31 9526.7,4127.31 9525.33,4127.31C9525.25,4127.31 9525.17,4127.25 9525.14,4127.16C9524.77,4125.94 9522.1,4117.2 9521.6,4115.58C9521.59,4115.52 9521.6,4115.45 9521.64,4115.4C9521.67,4115.35 9521.73,4115.32 9521.8,4115.32C9523.23,4115.32 9529.95,4115.32 9530.86,4115.32C9530.92,4115.32 9530.98,4115.35 9531.02,4115.4C9531.71,4116.35 9538.19,4125.19 9539.5,4126.99ZM9521.61,4127.05C9521.62,4127.11 9521.61,4127.18 9521.58,4127.23C9521.54,4127.28 9521.48,4127.31 9521.42,4127.31C9519.03,4127.31 9501.44,4127.31 9499.05,4127.31C9498.99,4127.31 9498.93,4127.28 9498.89,4127.23C9498.85,4127.18 9498.84,4127.11 9498.86,4127.05C9499.34,4125.43 9501.93,4116.69 9502.3,4115.47C9502.32,4115.38 9502.4,4115.32 9502.49,4115.32C9504,4115.32 9516.47,4115.32 9517.98,4115.32C9518.06,4115.32 9518.14,4115.38 9518.17,4115.47C9518.53,4116.69 9521.13,4125.43 9521.61,4127.05ZM9495.32,4127.16C9495.3,4127.25 9495.22,4127.31 9495.13,4127.31C9493.76,4127.31 9483.29,4127.31 9481.12,4127.31C9481.05,4127.31 9480.98,4127.26 9480.94,4127.2C9480.91,4127.13 9480.92,4127.05 9480.96,4126.99C9482.28,4125.19 9488.76,4116.35 9489.45,4115.4C9489.48,4115.35 9489.54,4115.32 9489.61,4115.32C9490.51,4115.32 9497.23,4115.32 9498.67,4115.32C9498.73,4115.32 9498.79,4115.35 9498.83,4115.4C9498.87,4115.45 9498.88,4115.52 9498.86,4115.58C9498.36,4117.2 9495.69,4125.94 9495.32,4127.16Z" style="fill:white;"/>
        </g>
        <g transform="matrix(-0.308545,0,0,0.325191,4359.4,302.849)">
            <g id="GemIcon3" serif:id="GemIcon">
                <path id="GemIcon5" serif:id="GemIcon" d="M310.786,661.084C310.765,661.152 310.702,661.2 310.631,661.2C310.559,661.2 310.496,661.152 310.476,661.084C308.001,652.75 276.721,547.418 275.144,542.109C275.13,542.06 275.139,542.007 275.17,541.966C275.2,541.925 275.249,541.901 275.3,541.901C279.449,541.901 341.812,541.901 345.962,541.901C346.013,541.901 346.061,541.925 346.092,541.966C346.122,542.007 346.132,542.06 346.117,542.109C344.54,547.418 313.261,652.75 310.786,661.084ZM296.207,646.692C296.23,646.768 296.195,646.849 296.125,646.884C296.054,646.919 295.968,646.899 295.922,646.835C289.131,637.567 223.212,547.599 219.226,542.158C219.19,542.109 219.184,542.044 219.212,541.99C219.24,541.935 219.295,541.901 219.356,541.901C223.258,541.901 261.67,541.901 264.093,541.901C264.164,541.901 264.227,541.948 264.248,542.016C265.369,545.689 293.119,636.577 296.207,646.692ZM325.34,646.835C325.293,646.899 325.207,646.919 325.137,646.884C325.066,646.849 325.031,646.768 325.055,646.692C328.143,636.577 355.892,545.689 357.014,542.016C357.035,541.948 357.097,541.901 357.169,541.901L401.905,541.901C401.966,541.901 402.022,541.935 402.05,541.99C402.077,542.044 402.072,542.109 402.036,542.158C398.05,547.599 332.131,637.567 325.34,646.835ZM346.117,532.904C346.132,532.953 346.122,533.006 346.092,533.047C346.061,533.088 346.013,533.112 345.962,533.112C341.812,533.112 279.449,533.112 275.3,533.112C275.249,533.112 275.2,533.088 275.17,533.047C275.139,533.006 275.13,532.953 275.144,532.904C275.999,530.026 285.453,498.192 286.095,496.027C286.116,495.959 286.179,495.912 286.251,495.912C288.845,495.912 332.416,495.912 335.011,495.912C335.083,495.912 335.146,495.959 335.166,496.027C335.809,498.192 345.262,530.026 346.117,532.904ZM264.248,532.997C264.227,533.065 264.164,533.112 264.093,533.112C261.67,533.112 223.258,533.112 219.356,533.112C219.295,533.112 219.24,533.078 219.212,533.023C219.184,532.969 219.19,532.904 219.226,532.855C221.572,529.653 245.035,497.629 246.245,495.978C246.276,495.936 246.324,495.912 246.376,495.912C247.985,495.912 272.761,495.912 275.352,495.912C275.403,495.912 275.451,495.936 275.482,495.977C275.512,496.018 275.522,496.072 275.507,496.121C274.626,499.007 264.905,530.844 264.248,532.997ZM402.036,532.855C402.072,532.904 402.077,532.969 402.05,533.023C402.022,533.078 401.966,533.112 401.905,533.112C398.003,533.112 359.592,533.112 357.169,533.112C357.097,533.112 357.035,533.065 357.014,532.997C356.356,530.844 346.636,499.007 345.755,496.121C345.74,496.072 345.749,496.018 345.78,495.977C345.81,495.936 345.858,495.912 345.91,495.912C348.5,495.912 373.276,495.912 374.886,495.912C374.937,495.912 374.986,495.936 375.016,495.978C376.226,497.629 399.69,529.653 402.036,532.855Z" style="fill:white;"/>
            </g>
        </g>
    </g>
</svg>
