<?xml version="1.0" encoding="UTF-8" standalone="no"?>
<!DOCTYPE svg PUBLIC "-//W3C//DTD SVG 1.1//EN" "http://www.w3.org/Graphics/SVG/1.1/DTD/svg11.dtd">
<svg width="100%" height="100%" viewBox="0 0 512 512" version="1.1" xmlns="http://www.w3.org/2000/svg" xmlns:xlink="http://www.w3.org/1999/xlink" xml:space="preserve" xmlns:serif="http://www.serif.com/" style="fill-rule:evenodd;clip-rule:evenodd;stroke-linejoin:round;stroke-miterlimit:2;">
    <g id="GemIcon5" transform="matrix(5.40377,0,0,5.1281,-22908.1,-2223.75)">
        <g transform="matrix(0.957992,0,0,1.00949,-4806.73,-3934.44)">
            <g id="GemIcon">
                <path id="GemIcon1" serif:id="GemIcon" d="M9484.96,4357.2L9475.18,4370.45C9474.95,4370.76 9474.95,4371.18 9475.18,4371.5L9479.95,4378.01L9474.87,4395.11C9474.85,4395.2 9474.77,4395.26 9474.68,4395.26C9474.59,4395.26 9474.51,4395.2 9474.49,4395.11C9473.07,4390.33 9464.22,4360.53 9463.31,4357.45C9463.29,4357.39 9463.3,4357.33 9463.34,4357.28C9463.38,4357.23 9463.43,4357.2 9463.5,4357.2L9484.96,4357.2ZM9469.78,4390.12C9469.81,4390.21 9469.77,4390.31 9469.68,4390.36C9469.59,4390.4 9469.49,4390.37 9469.43,4390.3C9465.65,4385.13 9447.67,4360.6 9445.41,4357.51C9445.36,4357.45 9445.36,4357.37 9445.39,4357.31C9445.43,4357.24 9445.5,4357.2 9445.57,4357.2C9447.74,4357.2 9458.21,4357.2 9459.58,4357.2C9459.67,4357.2 9459.75,4357.25 9459.77,4357.34C9460.42,4359.45 9468.06,4384.47 9469.78,4390.12ZM9482.3,4381.21L9484.45,4384.14L9479.93,4390.3C9479.88,4390.37 9479.77,4390.4 9479.68,4390.36C9479.6,4390.31 9479.55,4390.21 9479.58,4390.12L9482.3,4381.21ZM9503.95,4354.05C9504,4354.11 9504.01,4354.19 9503.97,4354.26C9503.94,4354.32 9503.87,4354.36 9503.79,4354.36C9501.62,4354.36 9491.15,4354.36 9489.78,4354.36C9489.69,4354.36 9489.62,4354.31 9489.59,4354.22C9489.22,4353 9486.55,4344.26 9486.06,4342.64C9486.04,4342.58 9486.05,4342.51 9486.09,4342.46C9486.12,4342.41 9486.18,4342.38 9486.25,4342.38C9487.68,4342.38 9494.4,4342.38 9495.31,4342.38C9495.37,4342.38 9495.43,4342.41 9495.47,4342.46C9496.16,4343.41 9502.64,4352.25 9503.95,4354.05ZM9486.06,4354.11C9486.08,4354.17 9486.06,4354.23 9486.02,4354.28C9485.99,4354.34 9485.93,4354.36 9485.86,4354.36C9483.48,4354.36 9465.89,4354.36 9463.5,4354.36C9463.43,4354.36 9463.38,4354.34 9463.34,4354.28C9463.3,4354.23 9463.29,4354.17 9463.31,4354.11C9463.79,4352.49 9466.38,4343.75 9466.75,4342.52C9466.77,4342.44 9466.85,4342.38 9466.94,4342.38C9468.45,4342.38 9480.92,4342.38 9482.43,4342.38C9482.51,4342.38 9482.59,4342.44 9482.62,4342.52C9482.98,4343.75 9485.58,4352.49 9486.06,4354.11ZM9459.77,4354.22C9459.75,4354.31 9459.67,4354.36 9459.58,4354.36C9458.21,4354.36 9447.74,4354.36 9445.57,4354.36C9445.5,4354.36 9445.43,4354.32 9445.39,4354.26C9445.36,4354.19 9445.36,4354.11 9445.41,4354.05C9446.73,4352.25 9453.2,4343.41 9453.9,4342.46C9453.93,4342.41 9453.99,4342.38 9454.06,4342.38C9454.97,4342.38 9461.68,4342.38 9463.12,4342.38C9463.18,4342.38 9463.24,4342.41 9463.28,4342.46C9463.32,4342.51 9463.33,4342.58 9463.31,4342.64C9462.81,4344.26 9460.15,4353 9459.77,4354.22Z" style="fill:white;"/>
            </g>
        </g>
        <g transform="matrix(0.308545,0,0,0.325191,4207.35,302.823)">
            <g id="GemIcon2" serif:id="GemIcon">
                <path id="GemIcon3" serif:id="GemIcon" d="M310.746,661.219C310.731,661.27 310.684,661.305 310.631,661.305C310.578,661.305 310.531,661.27 310.516,661.219C308.357,653.948 276.502,546.68 275.129,542.055C275.118,542.019 275.125,541.98 275.147,541.949C275.17,541.919 275.206,541.901 275.243,541.901C278.862,541.901 342.399,541.901 346.018,541.901C346.056,541.901 346.091,541.919 346.114,541.949C346.137,541.98 346.144,542.019 346.133,542.055C344.759,546.68 312.905,653.948 310.746,661.219ZM296.279,646.928C296.296,646.984 296.27,647.044 296.218,647.07C296.166,647.097 296.102,647.081 296.068,647.034C290.12,638.917 222.66,546.846 219.177,542.092C219.15,542.055 219.146,542.007 219.167,541.967C219.187,541.927 219.229,541.901 219.274,541.901C222.691,541.901 262.006,541.901 264.124,541.901C264.177,541.901 264.223,541.936 264.239,541.986C265.217,545.191 293.575,638.073 296.279,646.928ZM325.194,647.034C325.159,647.081 325.096,647.097 325.043,647.07C324.991,647.044 324.965,646.984 324.982,646.928C327.686,638.073 356.044,545.191 357.023,541.986C357.038,541.936 357.085,541.901 357.138,541.901C359.255,541.901 398.571,541.901 401.988,541.901C402.033,541.901 402.074,541.927 402.095,541.967C402.115,542.007 402.111,542.055 402.085,542.092C398.601,546.846 331.141,638.917 325.194,647.034ZM346.133,532.958C346.144,532.994 346.137,533.033 346.114,533.064C346.091,533.094 346.056,533.112 346.018,533.112C342.399,533.112 278.862,533.112 275.243,533.112C275.206,533.112 275.17,533.094 275.147,533.064C275.125,533.033 275.118,532.994 275.129,532.958C275.876,530.44 285.543,497.889 286.104,495.998C286.119,495.947 286.166,495.912 286.219,495.912C288.479,495.912 332.782,495.912 335.042,495.912C335.095,495.912 335.142,495.947 335.157,495.998C335.719,497.889 345.385,530.44 346.133,532.958ZM264.239,533.027C264.223,533.077 264.177,533.112 264.124,533.112C262.006,533.112 222.691,533.112 219.274,533.112C219.229,533.112 219.187,533.087 219.167,533.046C219.146,533.006 219.15,532.958 219.177,532.921C221.229,530.12 245.202,497.402 246.258,495.961C246.28,495.93 246.316,495.912 246.354,495.912C247.762,495.912 273.139,495.912 275.408,495.912C275.446,495.912 275.482,495.93 275.505,495.96C275.527,495.991 275.534,496.03 275.523,496.067C274.752,498.591 264.813,531.145 264.239,533.027ZM402.085,532.921C402.111,532.958 402.115,533.006 402.095,533.046C402.074,533.087 402.033,533.112 401.988,533.112C398.571,533.112 359.255,533.112 357.138,533.112C357.085,533.112 357.038,533.077 357.023,533.027C356.448,531.145 346.509,498.591 345.738,496.067C345.727,496.03 345.734,495.991 345.757,495.96C345.779,495.93 345.815,495.912 345.853,495.912C348.123,495.912 373.5,495.912 374.907,495.912C374.945,495.912 374.981,495.93 375.004,495.961C376.06,497.402 400.032,530.12 402.085,532.921Z" style="fill:white;"/>
            </g>
        </g>
    </g>
</svg>
