<?xml version="1.0" encoding="UTF-8" standalone="no"?>
<!DOCTYPE svg PUBLIC "-//W3C//DTD SVG 1.1//EN" "http://www.w3.org/Graphics/SVG/1.1/DTD/svg11.dtd">
<svg width="100%" height="100%" viewBox="0 0 512 512" version="1.1" xmlns="http://www.w3.org/2000/svg" xmlns:xlink="http://www.w3.org/1999/xlink" xml:space="preserve" xmlns:serif="http://www.serif.com/" style="fill-rule:evenodd;clip-rule:evenodd;stroke-linejoin:round;stroke-miterlimit:2;">
    <g transform="matrix(2.69747,0,0,2.69747,-581.916,-1305.18)">
        <g id="GemIcon6">
            <path id="GemIcon" d="M310.702,661.367C310.692,661.398 310.664,661.42 310.631,661.42C310.598,661.42 310.569,661.398 310.56,661.367C308.833,655.552 276.208,545.689 275.111,541.996C275.104,541.974 275.109,541.95 275.123,541.931C275.137,541.912 275.159,541.901 275.182,541.901C278.075,541.901 343.187,541.901 346.079,541.901C346.103,541.901 346.125,541.912 346.139,541.931C346.153,541.95 346.157,541.974 346.15,541.996C345.054,545.689 312.429,655.552 310.702,661.367ZM296.358,647.186C296.368,647.221 296.352,647.258 296.32,647.274C296.288,647.291 296.249,647.281 296.227,647.252C291.447,640.728 221.916,545.83 219.124,542.019C219.107,541.997 219.105,541.967 219.117,541.942C219.13,541.917 219.155,541.901 219.183,541.901C221.93,541.901 262.46,541.901 264.158,541.901C264.19,541.901 264.219,541.922 264.229,541.954C265.011,544.516 294.186,640.072 296.358,647.186ZM325.034,647.252C325.013,647.281 324.974,647.291 324.941,647.274C324.909,647.258 324.893,647.221 324.904,647.186C327.076,640.072 356.25,544.516 357.033,541.954C357.042,541.922 357.071,541.901 357.104,541.901C358.801,541.901 399.332,541.901 402.078,541.901C402.106,541.901 402.132,541.917 402.144,541.942C402.157,541.967 402.154,541.997 402.138,542.019C399.346,545.83 329.814,640.728 325.034,647.252ZM346.15,533.017C346.157,533.039 346.153,533.063 346.139,533.082C346.125,533.101 346.103,533.112 346.079,533.112C343.187,533.112 278.075,533.112 275.182,533.112C275.159,533.112 275.137,533.101 275.123,533.082C275.109,533.063 275.104,533.039 275.111,533.017C275.711,530.996 285.664,497.481 286.114,495.965C286.123,495.933 286.152,495.912 286.185,495.912C287.988,495.912 333.273,495.912 335.076,495.912C335.109,495.912 335.138,495.933 335.147,495.965C335.598,497.481 345.55,530.996 346.15,533.017ZM264.229,533.059C264.219,533.091 264.19,533.112 264.158,533.112C262.46,533.112 221.93,533.112 219.183,533.112C219.155,533.112 219.13,533.096 219.117,533.071C219.105,533.046 219.107,533.016 219.124,532.994C220.771,530.746 245.427,497.095 246.271,495.942C246.285,495.923 246.308,495.912 246.331,495.912C247.46,495.912 273.645,495.912 275.47,495.912C275.494,495.912 275.516,495.923 275.53,495.942C275.544,495.961 275.548,495.985 275.541,496.008C274.922,498.034 264.689,531.551 264.229,533.059ZM402.138,532.994C402.154,533.016 402.157,533.046 402.144,533.071C402.132,533.096 402.106,533.112 402.078,533.112C399.332,533.112 358.801,533.112 357.104,533.112C357.071,533.112 357.042,533.091 357.033,533.059C356.572,531.551 346.339,498.034 345.72,496.008C345.713,495.985 345.718,495.961 345.732,495.942C345.746,495.923 345.768,495.912 345.791,495.912C347.617,495.912 373.802,495.912 374.93,495.912C374.954,495.912 374.976,495.923 374.99,495.942C375.835,497.095 400.49,530.746 402.138,532.994Z" style="fill:white;"/>
        </g>
    </g>
</svg>
