<?xml version="1.0" encoding="UTF-8" standalone="no"?>
<!DOCTYPE svg PUBLIC "-//W3C//DTD SVG 1.1//EN" "http://www.w3.org/Graphics/SVG/1.1/DTD/svg11.dtd">
<svg width="100%" height="100%" viewBox="0 0 512 512" version="1.1" xmlns="http://www.w3.org/2000/svg" xmlns:xlink="http://www.w3.org/1999/xlink" xml:space="preserve" xmlns:serif="http://www.serif.com/" style="fill-rule:evenodd;clip-rule:evenodd;stroke-linejoin:round;stroke-miterlimit:2;">
    <g id="GiftUploadIcon" transform="matrix(7.38074e-16,12.0537,-11.4387,7.00421e-16,23693.7,-51258.6)">
        <g transform="matrix(5.86601e-17,-1.00949,0.957992,6.18135e-17,-192.256,7472.18)">
            <path d="M5370.72,4651.7L5370.72,4656.2C5370.72,4656.61 5371.06,4656.95 5371.47,4656.95L5372.97,4656.95C5373.39,4656.95 5373.72,4656.61 5373.72,4656.2L5373.72,4651.7L5385.06,4651.7C5387.66,4651.7 5389.78,4653.82 5389.78,4656.42L5389.78,4665.11L5382.63,4665.11C5382.22,4665.11 5381.88,4665.45 5381.88,4665.86L5381.88,4667.36C5381.88,4667.77 5382.22,4668.11 5382.63,4668.11L5389.78,4668.11L5389.78,4676.8C5389.78,4679.4 5387.66,4681.52 5385.06,4681.52L5373.72,4681.52L5373.72,4677.02C5373.72,4676.61 5373.39,4676.27 5372.97,4676.27L5371.47,4676.27C5371.06,4676.27 5370.72,4676.61 5370.72,4677.02L5370.72,4681.52L5359.39,4681.52C5356.78,4681.52 5354.66,4679.4 5354.66,4676.8L5354.66,4668.11L5361.81,4668.11C5362.23,4668.11 5362.56,4667.77 5362.56,4667.36L5362.56,4665.86C5362.56,4665.45 5362.23,4665.11 5361.81,4665.11L5354.66,4665.11L5354.66,4656.42C5354.66,4653.82 5356.78,4651.7 5359.39,4651.7L5370.72,4651.7ZM5375,4668.16L5377.34,4668.16C5377.83,4668.16 5378.28,4667.88 5378.49,4667.44C5378.71,4667 5378.66,4666.47 5378.36,4666.08C5376.82,4664.1 5374.54,4661.16 5373.24,4659.48C5373,4659.16 5372.62,4658.98 5372.22,4658.98C5371.82,4658.98 5371.45,4659.16 5371.21,4659.48C5369.9,4661.16 5367.63,4664.1 5366.09,4666.08C5365.79,4666.47 5365.74,4667 5365.95,4667.44C5366.17,4667.88 5366.62,4668.16 5367.11,4668.16L5369.44,4668.16L5369.44,4673.12C5369.44,4673.89 5370.07,4674.51 5370.83,4674.51L5373.61,4674.51C5374.38,4674.51 5375,4673.89 5375,4673.12L5375,4668.16Z" style="fill:white;"/>
        </g>
        <g transform="matrix(1,1.2326e-32,0,1,9.09495e-13,0.0884833)">
            <g transform="matrix(-0.396849,-0.654366,0.439488,-0.758021,4347.2,9079.68)">
                <path d="M5364.85,4634.42C5367.83,4637.26 5367.73,4644.94 5361.32,4646.47C5354.01,4648.2 5352.59,4634.13 5361.37,4633.24C5362.92,4633.08 5363.84,4633.48 5364.85,4634.42ZM5363.04,4635.69C5362.92,4635.59 5362.79,4635.48 5362.65,4635.39C5362.54,4635.33 5362.42,4635.26 5362.31,4635.2C5361.09,4634.62 5358.27,4635.47 5357.49,4638.07C5355.98,4643.14 5362.58,4648.29 5364.52,4641.74C5365.27,4639.24 5364.74,4637.17 5363.04,4635.69Z" style="fill:white;"/>
            </g>
            <g transform="matrix(-0.396849,0.654366,0.439488,0.758021,4347.2,-4981.91)">
                <path d="M5364.85,4634.42C5367.83,4637.26 5367.73,4644.94 5361.32,4646.47C5354.01,4648.2 5352.59,4634.13 5361.37,4633.24C5362.92,4633.08 5363.84,4633.48 5364.85,4634.42ZM5363.04,4635.69C5362.92,4635.59 5362.79,4635.48 5362.65,4635.39C5362.54,4635.33 5362.42,4635.26 5362.31,4635.2C5361.09,4634.62 5358.27,4635.47 5357.49,4638.07C5355.98,4643.14 5362.58,4648.29 5364.52,4641.74C5365.27,4639.24 5364.74,4637.17 5363.04,4635.69Z" style="fill:white;"/>
            </g>
        </g>
    </g>
</svg>
