<?xml version="1.0" encoding="UTF-8" standalone="no"?>
<!DOCTYPE svg PUBLIC "-//W3C//DTD SVG 1.1//EN" "http://www.w3.org/Graphics/SVG/1.1/DTD/svg11.dtd">
<svg width="100%" height="100%" viewBox="0 0 512 512" version="1.1" xmlns="http://www.w3.org/2000/svg" xmlns:xlink="http://www.w3.org/1999/xlink" xml:space="preserve" xmlns:serif="http://www.serif.com/" style="fill-rule:evenodd;clip-rule:evenodd;stroke-linejoin:round;stroke-miterlimit:2;">
    <g id="GiftIcon" transform="matrix(7.94802,0,0,7.94802,-16286.4,-5944.77)">
        <path d="M2077.45,783.756L2077.45,809.066L2058.29,809.066C2056.59,809.066 2055.21,807.702 2055.21,806.022L2055.21,783.756L2077.45,783.756ZM2085.21,783.756L2107.45,783.756L2107.45,806.022C2107.45,807.702 2106.07,809.065 2104.37,809.066L2085.21,809.066L2085.21,783.756ZM2077.45,765.356L2077.45,778.404L2052.44,778.404L2052.44,768.316C2052.44,766.683 2053.79,765.356 2055.44,765.356L2077.45,765.356ZM2085.21,765.356L2107.21,765.356C2108.87,765.356 2110.21,766.683 2110.21,768.316L2110.21,778.404L2085.21,778.404L2085.21,765.356ZM2081.33,759.819C2083.04,757.274 2086.41,753.422 2091.95,751.599C2098.97,749.291 2104.49,759.694 2098.67,761.893C2092.86,764.089 2084.6,763.07 2081.33,762.533C2078.06,763.07 2069.79,764.089 2063.98,761.893C2058.16,759.694 2063.68,749.291 2070.7,751.599C2076.24,753.422 2079.61,757.274 2081.33,759.819ZM2070.76,754.263C2076.45,756.368 2078.82,760.827 2078.82,760.827C2078.82,760.827 2070.75,761.928 2066.31,759.95C2062.18,758.109 2066.5,752.685 2070.76,754.263ZM2091.89,754.263C2086.2,756.368 2083.83,760.827 2083.83,760.827C2083.83,760.827 2091.9,761.928 2096.34,759.95C2100.47,758.109 2096.15,752.685 2091.89,754.263Z" style="fill:white;"/>
    </g>
</svg>
