<?xml version="1.0" encoding="UTF-8" standalone="no"?>
<!DOCTYPE svg PUBLIC "-//W3C//DTD SVG 1.1//EN" "http://www.w3.org/Graphics/SVG/1.1/DTD/svg11.dtd">
<svg width="100%" height="100%" viewBox="0 0 512 512" version="1.1" xmlns="http://www.w3.org/2000/svg" xmlns:xlink="http://www.w3.org/1999/xlink" xml:space="preserve" xmlns:serif="http://www.serif.com/" style="fill-rule:evenodd;clip-rule:evenodd;stroke-linejoin:round;stroke-miterlimit:2;">
    <g id="GlobeIcon" transform="matrix(2.03715,0,0,2.03715,-2775,-1839.9)">
        <path d="M1487.86,916.723C1549.74,916.723 1599.97,966.959 1599.97,1028.84C1599.97,1090.71 1549.74,1140.95 1487.86,1140.95C1425.98,1140.95 1375.75,1090.71 1375.75,1028.84C1375.75,966.959 1425.98,916.723 1487.86,916.723ZM1494.35,1091.59L1494.35,1126.84C1507.19,1124.01 1518.63,1112.62 1526.97,1095.83C1516.86,1093.47 1505.88,1092 1494.35,1091.59ZM1480.4,1091.63C1469.38,1092.07 1458.85,1093.5 1449.13,1095.74C1457.17,1111.97 1468.1,1123.17 1480.4,1126.49L1480.4,1091.63ZM1436.14,1099.37C1431.06,1101.06 1426.28,1102.99 1421.87,1105.14C1431.01,1113.06 1441.59,1119.36 1453.15,1123.6C1446.69,1117.13 1440.94,1108.92 1436.14,1099.37ZM1539.94,1099.5C1535.22,1108.87 1529.58,1116.95 1523.24,1123.35C1534.55,1119.11 1544.89,1112.9 1553.85,1105.14C1549.54,1103.05 1544.89,1101.16 1539.94,1099.5ZM1430.69,1086.82C1425.17,1072.07 1421.69,1055.04 1420.91,1036.8L1387.27,1036.8C1389.02,1059.18 1398.09,1079.52 1412.08,1095.43C1417.75,1092.18 1423.99,1089.29 1430.69,1086.82ZM1563.79,1095.26C1577.7,1079.38 1586.71,1059.1 1588.45,1036.8L1555.24,1036.8C1554.45,1055.04 1550.98,1072.07 1545.46,1086.82C1552.05,1089.25 1558.19,1092.08 1563.79,1095.26ZM1532.47,1082.71C1537.16,1069.31 1540.15,1053.64 1540.86,1036.8L1494.35,1036.8L1494.35,1077.19C1507.84,1077.65 1520.69,1079.58 1532.47,1082.71ZM1480.4,1077.25L1480.4,1036.8L1435.29,1036.8C1435.99,1053.64 1438.98,1069.31 1443.68,1082.71C1455.06,1079.69 1467.42,1077.79 1480.4,1077.25ZM1411.78,962.582C1397.55,978.908 1388.48,999.851 1387.13,1022.85L1420.83,1022.85C1421.44,1004.05 1424.9,986.476 1430.52,971.298C1423.76,968.798 1417.49,965.873 1411.78,962.582ZM1532.49,975.457C1520.7,978.597 1507.85,980.525 1494.35,980.984L1494.35,1022.85L1540.92,1022.85C1540.34,1005.45 1537.32,989.259 1532.49,975.457ZM1564.08,962.746C1558.45,965.97 1552.27,968.84 1545.63,971.298C1551.25,986.476 1554.71,1004.05 1555.32,1022.85L1588.59,1022.85C1587.25,999.927 1578.23,979.048 1564.08,962.746ZM1443.66,975.458C1438.83,989.259 1435.81,1005.45 1435.23,1022.85L1480.4,1022.85L1480.4,980.931C1467.41,980.391 1455.04,978.488 1443.66,975.458ZM1494.35,966.585C1505.89,966.18 1516.89,964.704 1527.01,962.341C1518.66,945.512 1507.21,934.097 1494.35,931.268L1494.35,966.585ZM1480.4,966.549L1480.4,931.61C1468.09,934.94 1457.14,946.166 1449.1,962.434C1458.83,964.679 1469.36,966.104 1480.4,966.549ZM1435.92,958.736C1440.76,949.004 1446.58,940.648 1453.13,934.081C1441.41,938.382 1430.71,944.794 1421.49,952.857C1425.95,955.044 1430.78,957.014 1435.92,958.736ZM1554.22,952.85C1545.18,944.946 1534.72,938.628 1523.27,934.332C1529.69,940.83 1535.4,949.053 1540.16,958.607C1545.17,956.914 1549.87,954.986 1554.22,952.85Z" style="fill:white;"/>
    </g>
</svg>
