<?xml version="1.0" encoding="UTF-8" standalone="no"?>
<!DOCTYPE svg PUBLIC "-//W3C//DTD SVG 1.1//EN" "http://www.w3.org/Graphics/SVG/1.1/DTD/svg11.dtd">
<svg width="100%" height="100%" viewBox="0 0 512 512" version="1.1" xmlns="http://www.w3.org/2000/svg" xmlns:xlink="http://www.w3.org/1999/xlink" xml:space="preserve" xmlns:serif="http://www.serif.com/" style="fill-rule:evenodd;clip-rule:evenodd;stroke-linejoin:round;stroke-miterlimit:2;">
    <g id="GlobeIcon" transform="matrix(4.73852,0,0,4.73852,-413.825,-307.057)">
        <g transform="matrix(1.05143,0,0,1.05143,-107.972,20.9211)">
            <circle cx="240.716" cy="80.411" r="33.977" style="fill:white;"/>
        </g>
        <g transform="matrix(0.967227,-0.967227,0.967227,0.967227,-165.606,261.126)">
            <path d="M242.753,44.886C244.094,46.83 242.268,48.919 239.5,49.016C226.375,49.557 214.103,59.105 210.49,71.813C207.518,82.268 210.466,94.204 217.978,102.082C223.827,108.217 232.251,111.802 240.724,111.829C240.724,111.829 242.565,112.064 243.105,113.471C243.772,115.209 242.275,116.998 239.774,116.934C223.658,116.525 208.495,104.172 205.017,88.213C202.546,76.874 205.875,64.432 213.677,55.849C220.287,48.577 229.916,44.137 239.774,43.887C240.864,43.86 241.951,43.926 242.753,44.886Z" style="fill:white;"/>
        </g>
        <g transform="matrix(1,0,0,1,-97.198,23.015)">
            <path d="M245.633,129.385L239.01,129.385L239.01,141.296C239.01,142.21 239.752,142.952 240.666,142.952L243.977,142.952C244.891,142.952 245.633,142.21 245.633,141.296L245.633,129.385Z" style="fill:white;"/>
        </g>
        <g transform="matrix(1,0,0,1,-97.3164,23.015)">
            <path d="M258.066,141.331C258.066,140.467 257.365,139.765 256.501,139.765L228.379,139.765C227.515,139.765 226.814,140.467 226.814,141.331L226.814,144.461C226.814,145.325 227.515,146.027 228.379,146.027L256.501,146.027C257.365,146.027 258.066,145.325 258.066,144.461L258.066,141.331Z" style="fill:white;"/>
        </g>
    </g>
</svg>
