<?xml version="1.0" encoding="UTF-8" standalone="no"?>
<!DOCTYPE svg PUBLIC "-//W3C//DTD SVG 1.1//EN" "http://www.w3.org/Graphics/SVG/1.1/DTD/svg11.dtd">
<svg width="100%" height="100%" viewBox="0 0 512 512" version="1.1" xmlns="http://www.w3.org/2000/svg" xmlns:xlink="http://www.w3.org/1999/xlink" xml:space="preserve" xmlns:serif="http://www.serif.com/" style="fill-rule:evenodd;clip-rule:evenodd;stroke-linejoin:round;stroke-miterlimit:2;">
    <g id="GloveIcon" transform="matrix(1.362,0,0,1.362,-3903.74,-7539.89)">
        <path d="M2991.9,5685.56C2992.24,5683.4 2993.09,5679.59 2993.09,5676.38C2993.09,5671.9 2991.32,5617.95 2990.94,5611.03C2990.57,5604.11 2999.13,5549.14 3003.81,5547.98C3013.47,5545.6 3020.66,5554.78 3023.56,5566.09C3026.47,5577.4 3025.28,5606.66 3024.53,5613.69C3023.77,5620.72 3033.98,5651.1 3033.98,5651.1C3033.98,5651.1 3042.68,5603.86 3044.58,5597.16C3046.47,5590.46 3064.45,5552.11 3067.72,5549.46C3075.73,5542.96 3085.72,5551.3 3085.67,5558.7C3085.62,5565.28 3075.66,5597.85 3075.28,5602.01C3074.9,5606.17 3074.9,5610.33 3072.53,5616.88C3070.17,5623.44 3072.19,5650.01 3072.19,5650.01C3072.19,5650.01 3088.12,5606.57 3089.96,5605.09C3091.81,5603.6 3110.36,5572.52 3117.24,5572.9C3123.57,5573.24 3130.73,5579.01 3128.96,5589.75C3127.2,5600.5 3113.37,5620.81 3110.36,5624.05C3107.35,5627.28 3107.96,5639.96 3107.96,5639.96C3107.96,5639.96 3113.72,5627.79 3121.21,5621.94C3135.15,5611.06 3147,5602.8 3154.71,5601.76C3158,5601.32 3160.73,5605.29 3159.61,5612.64C3158.59,5619.38 3141.17,5638.93 3136.25,5642.28C3131.33,5645.63 3123.88,5662.01 3120.49,5665.13C3117.1,5668.24 3117.49,5672.16 3117.87,5679.9C3118.21,5686.8 3112.01,5688.18 3109.6,5690.27C3085.13,5682.08 3059.47,5676.62 3033.67,5676.44C3030.9,5676.43 3028.11,5676.49 3025.34,5676.65C3020.55,5676.93 3015.08,5677.18 3015.79,5679.67C3016.14,5680.89 3017.72,5680.94 3017.72,5680.94C3044.79,5677.27 3073.31,5683.24 3100.24,5691.08C3102.77,5691.82 3105.6,5692.85 3107.86,5693.38C3107.28,5695 3106.99,5696.52 3106.04,5698.4C3105.83,5698.81 3105.69,5699.18 3105.6,5699.54C3084.53,5696.2 3063.07,5693.92 3041.66,5693.84C3034.55,5693.81 3027.39,5694.06 3020.35,5695.06C3019.27,5695.21 3018.14,5695.48 3017.83,5696.4C3017.05,5698.72 3020.49,5698.61 3020.49,5698.61C3048.82,5694.49 3077.57,5698.55 3105.79,5703.14C3106.08,5704.63 3106.49,5706.69 3106.8,5709.93C3107.19,5714.09 3106.34,5716.63 3105.43,5718.1C3104.91,5717.91 3104.43,5717.9 3104.43,5717.9C3082.95,5715.31 3061.43,5713.2 3039.85,5713.12C3036.35,5713.11 3032.86,5713.17 3029.37,5713.39C3024.95,5713.66 3019.08,5714.15 3020.09,5716.67C3020.62,5718 3022.54,5717.67 3022.54,5717.67C3024.88,5717.28 3027.23,5717.06 3029.59,5716.91C3054.39,5715.36 3079.39,5718.3 3104.04,5721.41C3105.16,5726.87 3108.85,5746.09 3108.85,5762.04C3108.85,5780.84 3095.58,5787.43 3095.58,5787.43C3095.58,5787.43 3095.39,5788.8 3095.16,5790.87C3093.36,5790.61 3090.76,5790.88 3088.3,5790.88C3061.6,5790.85 3034.87,5790.39 3008.28,5792.33C3005.11,5792.56 3005.46,5795.7 3007.42,5795.93C3007.42,5795.93 3009.62,5795.77 3011.84,5795.66C3037.16,5794.45 3062.79,5794.37 3088.3,5794.41C3090.64,5794.41 3093.05,5794.53 3094.82,5794.35C3094.44,5798.51 3094.14,5803.66 3094.52,5807.1L3094.3,5807.12C3085.43,5808.03 3076.54,5808.82 3067.65,5809.51C3047.68,5811.06 3027.35,5813.03 3007.47,5810.87C3005.14,5810.61 3004.05,5812.33 3004.94,5813.56C3005.48,5814.3 3006.77,5814.35 3006.77,5814.35C3009.68,5814.67 3012.59,5814.85 3015.51,5814.96C3042.3,5815.95 3068.91,5813.37 3095.55,5810.54L3095.55,5810.55C3118.66,5835.33 3127.49,5882.66 3112.51,5894.23C3108.22,5897.54 3082.2,5900.69 3068.72,5886.71C3029.27,5911.74 2967.16,5896.16 2966.09,5891.23C2964.6,5884.33 2987.23,5811.08 2987.99,5806.11C2988.75,5801.15 2984,5788.25 2984,5780.87C2984,5773.49 2966.24,5741.63 2963.34,5733.54C2960.43,5725.45 2964.1,5699.72 2959.55,5687.14C2955.01,5674.56 2945.87,5641.05 2949.06,5639.05C2957.34,5633.88 2973.28,5645.61 2978.94,5652.06C2984.6,5658.52 2986.51,5672.63 2987.65,5680.35C2987.77,5681.22 2987.93,5681.98 2988.1,5682.65C2988.09,5682.76 2988.08,5682.83 2988.08,5682.83C2988.84,5697.64 2999.32,5710.13 3010.07,5721.14C3016.81,5728.05 3024.96,5731.74 3032.86,5736.65C3041.07,5741.75 3046.55,5749.32 3049.64,5758.1C3051.35,5762.96 3051.99,5769.53 3054.55,5768.14C3055.51,5767.62 3055.45,5766.25 3055.45,5766.25C3053.76,5756.18 3049.33,5745.49 3041.33,5738.34C3032.7,5730.61 3021.56,5727.55 3014.23,5720.33C3004.38,5710.58 2993.91,5699.13 2991.9,5685.56ZM3036.31,5800.83C3034.61,5800.83 3033.22,5802.22 3033.22,5803.92C3033.22,5805.63 3034.61,5807.01 3036.31,5807.01C3038.02,5807.01 3039.4,5805.63 3039.4,5803.92C3039.4,5802.22 3038.02,5800.83 3036.31,5800.83ZM3017.51,5800.41C3015.8,5800.41 3014.42,5801.8 3014.42,5803.5C3014.42,5805.21 3015.8,5806.59 3017.51,5806.59C3019.21,5806.59 3020.6,5805.21 3020.6,5803.5C3020.6,5801.8 3019.21,5800.41 3017.51,5800.41ZM3054.3,5799.83C3052.7,5799.83 3051.4,5801.25 3051.4,5802.99C3051.4,5804.73 3052.7,5806.15 3054.3,5806.15C3055.9,5806.15 3057.2,5804.73 3057.2,5802.99C3057.2,5801.25 3055.9,5799.83 3054.3,5799.83ZM3070.91,5798.8C3069.4,5798.8 3068.17,5800.18 3068.17,5801.89C3068.17,5803.59 3069.4,5804.98 3070.91,5804.98C3072.42,5804.98 3073.65,5803.59 3073.65,5801.89C3073.65,5800.18 3072.42,5798.8 3070.91,5798.8ZM3087.81,5797.82C3086.36,5797.82 3085.18,5799.2 3085.18,5800.91C3085.18,5802.61 3086.36,5803.99 3087.81,5803.99C3089.26,5803.99 3090.44,5802.61 3090.44,5800.91C3090.44,5799.2 3089.26,5797.82 3087.81,5797.82Z" style="fill:white;"/>
    </g>
</svg>
