<?xml version="1.0" encoding="UTF-8" standalone="no"?>
<!DOCTYPE svg PUBLIC "-//W3C//DTD SVG 1.1//EN" "http://www.w3.org/Graphics/SVG/1.1/DTD/svg11.dtd">
<svg width="100%" height="100%" viewBox="0 0 512 512" version="1.1" xmlns="http://www.w3.org/2000/svg" xmlns:xlink="http://www.w3.org/1999/xlink" xml:space="preserve" xmlns:serif="http://www.serif.com/" style="fill-rule:evenodd;clip-rule:evenodd;stroke-linejoin:round;stroke-miterlimit:2;">
    <g id="GuardianAngelIcon" transform="matrix(3.58813,0,0,3.40509,-17240.2,-6558.51)">
        <g id="Heart" transform="matrix(1.99045,0,0,1.95059,4259.33,-6622.51)">
            <path d="M309.88,4414.4C314.125,4406.37 322.614,4406.37 326.859,4410.39C331.104,4414.4 331.104,4422.44 326.859,4430.47C323.888,4436.49 316.247,4442.52 309.88,4446.53C303.513,4442.52 295.872,4436.49 292.901,4430.47C288.656,4422.44 288.656,4414.4 292.901,4410.39C297.146,4406.37 305.635,4406.37 309.88,4414.4Z" style="fill:white;"/>
        </g>
        <g id="Lines" transform="matrix(0.804359,0,0,1.03217,3979.32,-4478.39)">
            <g transform="matrix(0.821998,-0.180869,0.268215,0.821998,-1491.91,1323.05)">
                <g transform="matrix(1.00212,0,0,0.978031,-857.462,143.891)">
                    <path d="M1906.28,6273.75C1906.28,6272.8 1905.36,6272.03 1904.23,6272.03L1883.37,6272.03C1882.24,6272.03 1881.32,6272.8 1881.32,6273.75L1881.32,6274.87C1881.32,6275.82 1882.24,6276.6 1883.37,6276.6L1904.23,6276.6C1905.36,6276.6 1906.28,6275.82 1906.28,6274.87L1906.28,6273.75Z" style="fill:white;"/>
                </g>
                <g transform="matrix(0.660482,0.313142,-0.5955,0.847,3538.04,359.329)">
                    <path d="M1906.28,6273.75C1906.28,6272.8 1905.07,6272.03 1903.58,6272.03L1884.02,6272.03C1882.53,6272.03 1881.32,6272.8 1881.32,6273.75L1881.32,6274.87C1881.32,6275.82 1882.53,6276.6 1884.02,6276.6L1903.58,6276.6C1905.07,6276.6 1906.28,6275.82 1906.28,6274.87L1906.28,6273.75Z" style="fill:white;"/>
                </g>
                <g transform="matrix(0.660482,-0.313142,-0.5955,-0.847,3538.04,12201.4)">
                    <path d="M1906.28,6273.75C1906.28,6272.8 1905.07,6272.03 1903.58,6272.03L1884.02,6272.03C1882.53,6272.03 1881.32,6272.8 1881.32,6273.75L1881.32,6274.87C1881.32,6275.82 1882.53,6276.6 1884.02,6276.6L1903.58,6276.6C1905.07,6276.6 1906.28,6275.82 1906.28,6274.87L1906.28,6273.75Z" style="fill:white;"/>
                </g>
            </g>
            <g transform="matrix(-0.821998,-0.180869,-0.268215,0.821998,3721.77,1323.05)">
                <g transform="matrix(1.00212,0,0,0.978031,-857.462,143.891)">
                    <path d="M1906.28,6273.75C1906.28,6272.8 1905.36,6272.03 1904.23,6272.03L1883.37,6272.03C1882.24,6272.03 1881.32,6272.8 1881.32,6273.75L1881.32,6274.87C1881.32,6275.82 1882.24,6276.6 1883.37,6276.6L1904.23,6276.6C1905.36,6276.6 1906.28,6275.82 1906.28,6274.87L1906.28,6273.75Z" style="fill:white;"/>
                </g>
                <g transform="matrix(0.660482,0.313142,-0.5955,0.847,3538.04,359.329)">
                    <path d="M1906.28,6273.75C1906.28,6272.8 1905.07,6272.03 1903.58,6272.03L1884.02,6272.03C1882.53,6272.03 1881.32,6272.8 1881.32,6273.75L1881.32,6274.87C1881.32,6275.82 1882.53,6276.6 1884.02,6276.6L1903.58,6276.6C1905.07,6276.6 1906.28,6275.82 1906.28,6274.87L1906.28,6273.75Z" style="fill:white;"/>
                </g>
                <g transform="matrix(0.660482,-0.313142,-0.5955,-0.847,3538.04,12201.4)">
                    <path d="M1906.28,6273.75C1906.28,6272.8 1905.07,6272.03 1903.58,6272.03L1884.02,6272.03C1882.53,6272.03 1881.32,6272.8 1881.32,6273.75L1881.32,6274.87C1881.32,6275.82 1882.53,6276.6 1884.02,6276.6L1903.58,6276.6C1905.07,6276.6 1906.28,6275.82 1906.28,6274.87L1906.28,6273.75Z" style="fill:white;"/>
                </g>
            </g>
        </g>
        <g transform="matrix(1.38007,0,0,1.45426,-8220.4,-2609.5)">
            <path d="M9489.78,3136.43C9501.17,3136.43 9507.87,3139.11 9507.87,3142.41C9507.87,3145.7 9501.63,3148.38 9489.78,3148.38C9477.94,3148.38 9471.69,3145.7 9471.69,3142.41C9471.69,3138.92 9478.4,3136.43 9489.78,3136.43ZM9489.78,3139.11C9498.74,3139.11 9505.14,3141.29 9505.14,3142.41C9505.14,3143.53 9499.16,3145.71 9489.78,3145.71C9480.41,3145.71 9474.43,3143.54 9474.43,3142.41C9474.43,3141.27 9480.83,3139.11 9489.78,3139.11Z" style="fill:white;"/>
        </g>
    </g>
</svg>
