<?xml version="1.0" encoding="UTF-8" standalone="no"?>
<!DOCTYPE svg PUBLIC "-//W3C//DTD SVG 1.1//EN" "http://www.w3.org/Graphics/SVG/1.1/DTD/svg11.dtd">
<svg width="100%" height="100%" viewBox="0 0 512 512" version="1.1" xmlns="http://www.w3.org/2000/svg" xmlns:xlink="http://www.w3.org/1999/xlink" xml:space="preserve" xmlns:serif="http://www.serif.com/" style="fill-rule:evenodd;clip-rule:evenodd;stroke-linejoin:round;stroke-miterlimit:2;">
    <g id="GunIcon" transform="matrix(3.81595,-3.75081e-16,-3.0801e-16,3.62128,-17780.4,-6751.54)">
        <g transform="matrix(1.34043,1.38838e-16,1.14011e-16,1.41249,-8427.35,-3883.45)">
            <path d="M9814.9,4121.1C9815.19,4122.2 9815.35,4123.36 9815.35,4124.55C9815.35,4131.91 9809.38,4137.88 9802.02,4137.88C9796.85,4137.88 9792.36,4134.93 9790.15,4130.63L9792.39,4129.11C9794.1,4132.71 9797.77,4135.21 9802.02,4135.21C9807.9,4135.21 9812.67,4130.43 9812.67,4124.55C9812.67,4123.36 9812.47,4122.21 9812.11,4121.13L9814.9,4121.1Z" style="fill:white;"/>
        </g>
        <g transform="matrix(1.00164,1.69788e-19,-1.32314e-19,1,-7.85365,3.77276)">
            <g transform="matrix(0.951507,-1.88435e-17,1.5474e-17,1.19436,3634.8,-3681.12)">
                <path d="M1187.17,4676.25C1187.17,4676.25 1194.29,4669.14 1196.3,4667.13C1196.63,4666.79 1197.09,4666.6 1197.57,4666.6C1198.62,4666.6 1200.58,4666.6 1202.02,4666.6C1203.01,4666.6 1203.81,4667.4 1203.81,4668.39C1203.81,4671.55 1203.81,4677.77 1203.81,4677.77L1187.17,4676.25Z" style="fill:white;"/>
            </g>
            <g transform="matrix(0.594316,-3.90782e-17,3.20904e-17,1.02383,4033.42,-2981.99)">
                <path d="M1274.73,4770.85C1274.73,4768.76 1271.95,4767.06 1268.54,4767.06L1194.05,4767.06L1194.05,4782.23L1268.54,4782.23C1271.95,4782.23 1274.73,4780.53 1274.73,4778.44L1274.73,4770.85Z" style="fill:white;"/>
            </g>
            <g transform="matrix(0.335603,-6.58749e-17,5.40954e-17,1.02383,4342.34,-2963.4)">
                <path d="M1274.73,4770.85C1274.73,4768.76 1269.82,4767.06 1263.76,4767.06L1194.05,4767.06L1194.05,4782.23L1263.76,4782.23C1269.82,4782.23 1274.73,4780.53 1274.73,4778.44L1274.73,4770.85Z" style="fill:white;"/>
            </g>
        </g>
        <g transform="matrix(1.34043,1.38838e-16,1.14011e-16,1.41249,-8427.35,-3883.45)">
            <path d="M9778.45,4112.94C9780.73,4120.5 9787.09,4126.29 9794.96,4127.75L9785.38,4144.35C9782.39,4149.53 9775.75,4151.31 9770.56,4148.32C9765.37,4145.32 9763.59,4138.68 9766.59,4133.49L9778.45,4112.94Z" style="fill:white;"/>
        </g>
        <g>
            <g transform="matrix(0.957992,-1.18082e-32,1.24429e-32,1.00949,3581.46,-2910.44)">
                <path d="M1142.65,4766.04C1141.39,4765.96 1140.31,4766.89 1140.19,4768.14C1140.03,4769.55 1139.86,4771.39 1139.72,4772.82C1139.61,4774 1140.4,4775.08 1141.56,4775.33C1144.61,4776.02 1150.24,4778.53 1152.77,4787.66C1156.33,4800.51 1157.45,4776.12 1157.45,4776.12C1157.45,4776.12 1154.88,4766.73 1142.65,4766.04Z" style="fill:white;"/>
            </g>
            <g transform="matrix(0.87947,-0.535058,0.656884,1.19892,516.8,-3188.33)">
                <path d="M1179.62,4800.19C1179.62,4799.28 1178.67,4798.54 1177.5,4798.54L1176.67,4798.54C1175.5,4798.54 1174.55,4799.28 1174.55,4800.19L1174.55,4811.89C1174.55,4812.8 1175.5,4813.53 1176.67,4813.53L1177.5,4813.53C1178.67,4813.53 1179.62,4812.8 1179.62,4811.89L1179.62,4800.19Z" style="fill:white;"/>
            </g>
            <g transform="matrix(1.34043,1.38838e-16,1.14011e-16,1.41249,-8427.35,-3883.45)">
                <g>
                    <path d="M9821.24,4088.95L9821.24,4123.34L9799.4,4123.34C9789.91,4123.34 9782.21,4115.64 9782.21,4106.15C9782.21,4096.65 9789.91,4088.95 9799.4,4088.95L9821.24,4088.95ZM9810.51,4106.97L9800.28,4106.97C9798.67,4106.97 9797.36,4108.28 9797.36,4109.89C9797.36,4111.51 9798.67,4112.82 9800.28,4112.82L9810.51,4112.82C9812.13,4112.82 9813.44,4111.51 9813.44,4109.89C9813.44,4108.28 9812.13,4106.97 9810.51,4106.97ZM9810.51,4099.47L9800.28,4099.47C9798.67,4099.47 9797.36,4100.78 9797.36,4102.4C9797.36,4104.01 9798.67,4105.32 9800.28,4105.32L9810.51,4105.32C9812.13,4105.32 9813.44,4104.01 9813.44,4102.4C9813.44,4100.78 9812.13,4099.47 9810.51,4099.47Z" style="fill:white;"/>
                </g>
            </g>
        </g>
    </g>
</svg>
