<?xml version="1.0" encoding="UTF-8" standalone="no"?>
<!DOCTYPE svg PUBLIC "-//W3C//DTD SVG 1.1//EN" "http://www.w3.org/Graphics/SVG/1.1/DTD/svg11.dtd">
<svg width="100%" height="100%" viewBox="0 0 512 512" version="1.1" xmlns="http://www.w3.org/2000/svg" xmlns:xlink="http://www.w3.org/1999/xlink" xml:space="preserve" xmlns:serif="http://www.serif.com/" style="fill-rule:evenodd;clip-rule:evenodd;stroke-linejoin:round;stroke-miterlimit:2;">
    <g id="GunIcon" transform="matrix(3.45737,0,0,4.21022,1517.2,-25794.6)">
        <g transform="matrix(1.191,0,0,0.347884,-1207.35,3998.77)">
            <path d="M687.739,6144.89C687.739,6143.86 687.443,6143.03 687.078,6143.03L667.075,6143.03C666.71,6143.03 666.414,6143.86 666.414,6144.89L666.414,6158.76L687.739,6158.76L687.739,6144.89Z" style="fill:white;"/>
        </g>
        <g transform="matrix(0.578976,0,0,1.16979,-754.337,-1051.51)">
            <path d="M744.669,6149.46C744.669,6148.13 742.013,6147.05 738.743,6147.05L726.89,6147.05C723.619,6147.05 720.964,6148.13 720.964,6149.46L720.964,6154.73C720.964,6156.06 723.619,6157.14 726.89,6157.14L738.743,6157.14C742.013,6157.14 744.669,6156.06 744.669,6154.73L744.669,6149.46Z" style="fill:white;"/>
        </g>
        <g transform="matrix(1.191,0,0,0.52203,-1183.27,2929.76)">
            <path d="M709.597,6144.1C709.597,6143.49 709.333,6143 709.009,6143L705.261,6143C704.936,6143 704.673,6143.49 704.673,6144.1L704.673,6169.43L709.597,6169.43L709.597,6144.1Z" style="fill:white;"/>
        </g>
        <g transform="matrix(1.72016,0,0,1.41257,-17519.6,155.366)">
            <path d="M9987.46,4261.38C9987.77,4262.42 9987.93,4263.52 9987.93,4264.65C9987.93,4271.07 9982.72,4276.27 9976.31,4276.27C9974.73,4276.27 9973.22,4275.96 9971.84,4275.38L9971.84,4272C9973.14,4272.8 9974.67,4273.25 9976.31,4273.25C9981.06,4273.25 9984.91,4269.4 9984.91,4264.65C9984.91,4263.5 9984.68,4262.39 9984.27,4261.38L9987.46,4261.38Z" style="fill:white;"/>
        </g>
        <g transform="matrix(0.662191,0.543781,-0.684003,0.561693,3405.91,2307.46)">
            <path d="M727.681,6200.06C727.681,6198.19 726.114,6196.68 724.184,6196.68L709.048,6196.68C707.118,6196.68 705.551,6198.19 705.551,6200.06C705.551,6201.93 707.118,6203.45 709.048,6203.45L724.184,6203.45C726.114,6203.45 727.681,6201.93 727.681,6200.06Z" style="fill:white;"/>
        </g>
        <g transform="matrix(1.191,0,0,0.511564,-1212.72,3041)">
            <path d="M707.798,6214.81L688.082,6214.81L688.082,6242.42C688.082,6247.51 690.239,6251.63 692.897,6251.63L702.983,6251.63C705.64,6251.63 707.798,6247.51 707.798,6242.42L707.798,6214.81Z" style="fill:white;"/>
        </g>
        <g transform="matrix(1.191,0,0,0.748597,-1212.72,1553.89)">
            <path d="M713.085,6174.99L682.65,6174.99L682.65,6218.76C682.65,6224.24 686.059,6228.7 690.258,6228.7L705.476,6228.7C709.676,6228.7 713.085,6224.24 713.085,6218.76L713.085,6174.99Z" style="fill:white;"/>
        </g>
        <g transform="matrix(0.122024,0,0,0.317236,-386.887,4202.54)">
            <path d="M752.639,6160.18C752.639,6156.19 742.388,6152.95 729.762,6152.95L661.13,6152.95L661.13,6188.89L729.762,6188.89C742.388,6188.89 752.639,6185.65 752.639,6181.66L752.639,6160.18Z" style="fill:white;"/>
        </g>
        <g transform="matrix(0.163179,0,0,0.595528,-431.426,2485.22)">
            <path d="M752.639,6158.1C752.639,6155.26 742.388,6152.95 729.762,6152.95L684.008,6152.95C671.381,6152.95 661.13,6155.26 661.13,6158.1L661.13,6183.74C661.13,6186.59 671.381,6188.89 684.008,6188.89L729.762,6188.89C742.388,6188.89 752.639,6186.59 752.639,6183.74L752.639,6158.1Z" style="fill:white;"/>
        </g>
        <g transform="matrix(1.72016,0,0,1.41257,-17519.6,155.366)">
            <path d="M9996.16,4263.42L9943.82,4263.42C9940.88,4263.42 9938.41,4261.37 9937.76,4258.63L9936.07,4258.63C9933.95,4258.63 9932.24,4256.91 9932.24,4254.8L9932.24,4247.15C9932.24,4245.04 9933.95,4243.32 9936.07,4243.32L9937.76,4243.32C9938.41,4240.58 9940.88,4238.53 9943.82,4238.53L9996.16,4238.53C9999.59,4238.53 10002.4,4241.32 10002.4,4244.76L10002.4,4257.2C10002.4,4260.63 9999.59,4263.42 9996.16,4263.42ZM9992.26,4251.29L9950.12,4251.29C9949,4251.29 9948.09,4252.2 9948.09,4253.33C9948.09,4254.45 9949,4255.36 9950.12,4255.36L9992.26,4255.36C9993.38,4255.36 9994.3,4254.45 9994.3,4253.33C9994.3,4252.2 9993.38,4251.29 9992.26,4251.29ZM9937.99,4249.24C9938.95,4249.24 9939.73,4250.02 9939.73,4250.98C9939.73,4251.94 9938.95,4252.71 9937.99,4252.71C9937.03,4252.71 9936.26,4251.94 9936.26,4250.98C9936.26,4250.02 9937.03,4249.24 9937.99,4249.24ZM9992.26,4244.48L9950.12,4244.48C9949,4244.48 9948.09,4245.39 9948.09,4246.51C9948.09,4247.64 9949,4248.55 9950.12,4248.55L9992.26,4248.55C9993.38,4248.55 9994.3,4247.64 9994.3,4246.51C9994.3,4245.39 9993.38,4244.48 9992.26,4244.48Z" style="fill:white;"/>
        </g>
    </g>
</svg>
