<?xml version="1.0" encoding="UTF-8" standalone="no"?>
<!DOCTYPE svg PUBLIC "-//W3C//DTD SVG 1.1//EN" "http://www.w3.org/Graphics/SVG/1.1/DTD/svg11.dtd">
<svg width="100%" height="100%" viewBox="0 0 512 512" version="1.1" xmlns="http://www.w3.org/2000/svg" xmlns:xlink="http://www.w3.org/1999/xlink" xml:space="preserve" xmlns:serif="http://www.serif.com/" style="fill-rule:evenodd;clip-rule:evenodd;stroke-linejoin:round;stroke-miterlimit:2;">
    <g id="HammerIcon" transform="matrix(4.69517,0,-3.2366e-16,4.69517,-5118.38,-5034.41)">
        <g transform="matrix(1.18965,0,8.20083e-17,1.18965,-10201.5,-3032.82)">
            <path d="M9529.01,3512.44L9544.67,3521.48L9529.01,3521.48L9529.01,3512.44ZM9546.12,3513.94L9546.12,3519.44L9529.01,3509.56L9529.01,3504.06L9546.12,3513.94ZM9546.12,3505.56L9546.12,3511.06L9529.01,3501.18L9529.01,3495.68L9546.12,3505.56ZM9546.12,3502.68L9531.9,3494.47L9546.12,3494.47L9546.12,3502.68Z" style="fill:white;"/>
        </g>
        <path d="M1181.83,1084.33C1181.83,1079.13 1177.61,1074.91 1172.4,1074.91L1116.92,1074.91C1111.71,1074.91 1107.49,1079.13 1107.49,1084.33L1107.49,1112.65C1107.49,1117.85 1111.71,1122.08 1116.92,1122.08L1172.4,1122.08C1177.61,1122.08 1181.83,1117.85 1181.83,1112.65L1181.83,1084.33Z" style="fill:white;"/>
        <g transform="matrix(2.37294,-3.25389e-16,6.19265e-16,9.37728,-3602.57,-4584.08)">
            <path d="M2006.07,612.426L1995.54,612.426L1995.54,613.881C1995.54,614.245 1996.71,614.542 1998.15,614.542L2003.46,614.542C2004.9,614.542 2006.07,614.245 2006.07,613.881L2006.07,612.426Z" style="fill:white;"/>
        </g>
    </g>
</svg>
