<?xml version="1.0" encoding="UTF-8" standalone="no"?>
<!DOCTYPE svg PUBLIC "-//W3C//DTD SVG 1.1//EN" "http://www.w3.org/Graphics/SVG/1.1/DTD/svg11.dtd">
<svg width="100%" height="100%" viewBox="0 0 512 512" version="1.1" xmlns="http://www.w3.org/2000/svg" xmlns:xlink="http://www.w3.org/1999/xlink" xml:space="preserve" xmlns:serif="http://www.serif.com/" style="fill-rule:evenodd;clip-rule:evenodd;stroke-linejoin:round;stroke-miterlimit:2;">
    <g id="HandcuffsIcon" transform="matrix(1.137,0,0,1.137,-1710.54,-943.853)">
        <path d="M1700.21,943.712C1703.74,943.713 1706.61,946.58 1706.61,950.111L1706.61,1016.99C1739.85,1038.57 1761.86,1076.03 1761.86,1118.58C1761.86,1185.37 1707.63,1239.6 1640.83,1239.6C1574.04,1239.6 1519.81,1185.37 1519.81,1118.58C1519.81,1076.03 1541.82,1038.57 1575.06,1016.99L1575.06,950.111C1575.06,946.579 1577.93,943.712 1581.46,943.712L1629.23,943.712L1629.23,941.731C1614.11,937.439 1603.02,923.519 1603.02,907.029C1603.02,887.123 1619.18,870.962 1639.09,870.962C1655.44,870.962 1669.27,881.869 1673.68,896.799L1682.29,877.277C1683.72,874.045 1687.5,872.579 1690.73,874.004L1751.92,900.996C1785.09,879.29 1828.23,874.268 1867.17,891.441C1928.28,918.397 1956.01,989.898 1929.06,1051.01C1904.65,1106.33 1843.76,1134.3 1787.1,1119.11C1787.1,1118.81 1787.1,1118.51 1787.1,1118.2C1787.1,1101.12 1783.85,1084.8 1777.94,1069.81C1780.68,1071.44 1783.54,1072.93 1786.53,1074.25C1826.31,1091.79 1872.85,1073.74 1890.4,1033.96C1907.95,994.183 1889.89,947.641 1850.12,930.095C1810.34,912.549 1763.8,930.6 1746.25,970.38C1739.36,985.99 1737.96,1002.64 1741.2,1018.17C1736.67,1014.27 1731.87,1010.67 1726.84,1007.4L1726.84,934.447C1726.84,930.595 1723.71,927.468 1719.86,927.467L1668.8,927.467C1664.92,933.093 1659.49,937.566 1653.12,940.261L1653.12,943.712L1700.21,943.712ZM1640.83,1039.8C1684.31,1039.8 1719.61,1075.1 1719.61,1118.58C1719.61,1162.05 1684.31,1197.35 1640.83,1197.35C1597.36,1197.35 1562.06,1162.05 1562.06,1118.58C1562.06,1075.1 1597.36,1039.8 1640.83,1039.8ZM1631.05,1013.84L1652.28,1013.84L1646.73,991.897C1652.03,989.88 1655.81,984.831 1655.81,978.88C1655.81,971.155 1649.48,964.897 1641.66,964.897C1633.85,964.897 1627.51,971.155 1627.51,978.88C1627.51,984.831 1631.3,989.88 1636.6,991.897L1631.05,1013.84ZM1651.37,920.23C1654.91,916.937 1657.12,912.24 1657.12,907.029C1657.12,897.076 1649.04,888.995 1639.09,888.995C1629.14,888.995 1621.06,897.076 1621.06,907.029C1621.06,913.505 1624.48,919.188 1629.61,922.369C1630.45,920.1 1632.64,918.482 1635.2,918.482L1647.15,918.482C1648.8,918.482 1650.29,919.151 1651.37,920.23Z" style="fill:white;"/>
    </g>
</svg>
