<?xml version="1.0" encoding="UTF-8" standalone="no"?>
<!DOCTYPE svg PUBLIC "-//W3C//DTD SVG 1.1//EN" "http://www.w3.org/Graphics/SVG/1.1/DTD/svg11.dtd">
<svg width="100%" height="100%" viewBox="0 0 512 512" version="1.1" xmlns="http://www.w3.org/2000/svg" xmlns:xlink="http://www.w3.org/1999/xlink" xml:space="preserve" xmlns:serif="http://www.serif.com/" style="fill-rule:evenodd;clip-rule:evenodd;stroke-linejoin:round;stroke-miterlimit:2;">
    <g id="HandsIcon" transform="matrix(6.61338,0,0,6.61338,-6592.11,-2446.8)">
        <path d="M1047.86,377.156C1049.66,374.153 1062.36,375.531 1067.13,384.206C1067.41,384.714 1060.62,386.878 1060.62,386.878C1060.62,386.878 1068.25,386.909 1068.43,387.561C1071.16,397.326 1065.8,408.33 1065.8,408.33L1060,408.583C1060,408.583 1065.62,411.766 1066.03,413.365C1068.74,423.95 1072.42,439.854 1071.8,441.506C1064.25,442.751 1047.49,436.331 1046.48,425.709C1046.09,421.576 1046.74,414.875 1047.56,409.016C1047.65,408.318 1047.74,407.711 1047.81,407.225C1047.93,406.408 1048.01,405.93 1048.01,405.93C1048.01,405.93 1043.24,394.575 1043.32,392.086C1043.41,389.597 1047.22,385.243 1048.86,386.163C1050.5,387.082 1048.89,392.089 1048.89,392.089L1052.43,395.394C1052.43,395.394 1054.84,388.809 1053.89,387.545C1052.94,386.28 1046.11,380.068 1047.86,377.156ZM1037.95,381.87C1036.93,378.519 1024.28,376.776 1017.55,384.036C1017.15,384.461 1023.21,388.207 1023.21,388.207C1023.21,388.207 1015.8,386.387 1015.47,386.975C1010.45,395.788 1012.98,407.762 1012.98,407.762L1018.56,409.415C1018.56,409.415 1012.33,411.141 1011.55,412.593C1006.35,422.205 998.922,436.741 999.121,438.495C1006.14,441.532 1023.96,439.367 1027.51,429.307C1028.9,425.393 1029.9,418.735 1030.52,412.852C1030.59,412.151 1030.65,411.541 1030.7,411.052C1030.79,410.231 1030.83,409.749 1030.83,409.749C1030.83,409.749 1038.21,399.889 1038.73,397.454C1039.25,395.018 1036.61,389.87 1034.79,390.364C1032.98,390.858 1033.33,396.106 1033.33,396.106L1029.09,398.455C1029.09,398.455 1028.35,391.482 1029.58,390.486C1030.81,389.49 1038.95,385.119 1037.95,381.87Z" style="fill:white;"/>
    </g>
</svg>
