<?xml version="1.0" encoding="UTF-8" standalone="no"?>
<!DOCTYPE svg PUBLIC "-//W3C//DTD SVG 1.1//EN" "http://www.w3.org/Graphics/SVG/1.1/DTD/svg11.dtd">
<svg width="100%" height="100%" viewBox="0 0 512 512" version="1.1" xmlns="http://www.w3.org/2000/svg" xmlns:xlink="http://www.w3.org/1999/xlink" xml:space="preserve" xmlns:serif="http://www.serif.com/" style="fill-rule:evenodd;clip-rule:evenodd;stroke-linejoin:round;stroke-miterlimit:2;">
    <g id="HandGrenadeIcon" transform="matrix(2.2375,0,0,2.12335,-10239.4,-3521.07)">
        <g transform="matrix(1.57126,0,0,1.00949,2818.37,-2911)">
            <path d="M1194.04,4542.35C1222.04,4542.76 1248.37,4581.64 1249.13,4630.98C1249.19,4634.88 1248.41,4639.1 1246.02,4640.33C1243.05,4641.86 1240.28,4637.54 1240.19,4631.36C1239.51,4592.06 1218.15,4557.02 1193.32,4557.02C1193.32,4557.02 1190.08,4556.25 1189.15,4552.32C1188.15,4548.07 1190.1,4542.69 1193.02,4542.37C1193.36,4542.33 1193.7,4542.35 1194.04,4542.35Z" style="fill:white;"/>
        </g>
        <g transform="matrix(2.63591,0,0,2.77761,-22013.2,-10066.6)">
            <path d="M10152.1,4283.23C10150.9,4296.26 10139.9,4306.48 10126.6,4306.48C10113.3,4306.48 10102.3,4296.26 10101.1,4283.23L10152.1,4283.23ZM10101.1,4268.64C10102.3,4255.61 10113.3,4245.39 10126.6,4245.39C10139.9,4245.39 10150.9,4255.61 10152.1,4268.64L10101.1,4268.64ZM10112.5,4256.94C10114.7,4256.94 10116.5,4258.72 10116.5,4260.9C10116.5,4263.09 10114.7,4264.87 10112.5,4264.87C10110.3,4264.87 10108.6,4263.09 10108.6,4260.9C10108.6,4258.72 10110.3,4256.94 10112.5,4256.94Z" style="fill:white;"/>
        </g>
        <g transform="matrix(0.90305,0,0,1.00949,3645.08,-2911.57)">
            <path d="M1233.42,4677.47C1233.42,4670.83 1227.7,4665.43 1220.65,4665.43L1070.54,4665.43C1063.49,4665.43 1057.77,4670.83 1057.77,4677.47C1057.77,4684.11 1063.49,4689.51 1070.54,4689.51L1220.65,4689.51C1227.7,4689.51 1233.42,4684.11 1233.42,4677.47Z" style="fill:white;"/>
        </g>
        <g transform="matrix(0.71192,0,0,0.813766,3860.26,-2057.72)">
            <path d="M1175.16,4578.36C1175.16,4574.64 1171.89,4571.62 1167.86,4571.62L1133.91,4571.62C1129.88,4571.62 1126.6,4574.64 1126.6,4578.36L1126.6,4609.81L1175.16,4609.81L1175.16,4578.36Z" style="fill:white;"/>
        </g>
        <g transform="matrix(0.957992,0,0,0.869448,3577.06,-2274.26)">
            <path d="M1175.16,4573.6C1175.16,4572.51 1174.4,4571.62 1173.46,4571.62L1128.31,4571.62C1127.37,4571.62 1126.6,4572.51 1126.6,4573.6L1126.6,4607.84C1126.6,4608.93 1127.37,4609.81 1128.31,4609.81L1173.46,4609.81C1174.4,4609.81 1175.16,4608.93 1175.16,4607.84L1175.16,4573.6Z" style="fill:white;"/>
        </g>
    </g>
</svg>
