<?xml version="1.0" encoding="UTF-8" standalone="no"?>
<!DOCTYPE svg PUBLIC "-//W3C//DTD SVG 1.1//EN" "http://www.w3.org/Graphics/SVG/1.1/DTD/svg11.dtd">
<svg width="100%" height="100%" viewBox="0 0 512 512" version="1.1" xmlns="http://www.w3.org/2000/svg" xmlns:xlink="http://www.w3.org/1999/xlink" xml:space="preserve" xmlns:serif="http://www.serif.com/" style="fill-rule:evenodd;clip-rule:evenodd;stroke-linejoin:round;stroke-miterlimit:2;">
    <g id="HandIcon" transform="matrix(2.16085,0,0,2.13527,-543.35,-786.259)">
        <path d="M363.561,472.377L363.561,389.665C363.561,382.456 369.414,376.603 376.624,376.603C383.833,376.603 389.686,382.456 389.686,389.665L389.686,472.377L389.692,472.377C390.004,474.289 391.665,475.751 393.664,475.751C395.651,475.751 397.303,474.309 397.63,472.415L397.63,398.103C397.63,390.893 403.483,385.04 410.693,385.04C417.902,385.04 423.755,390.893 423.755,398.103L423.755,480.917L423.756,480.917C424.067,482.83 425.728,484.291 427.728,484.291C429.725,484.291 431.384,482.833 431.699,480.925L431.699,423.649C431.699,416.44 437.552,410.587 444.761,410.587C451.971,410.587 457.824,416.44 457.824,423.649L457.824,536.496C457.824,537.063 457.788,537.621 457.717,538.169L457.717,538.186C457.717,572.096 434.504,599.627 400.594,599.627L378.245,599.627C355.672,599.627 335.926,587.429 325.246,569.27L284.629,507.351C279.814,500.01 281.864,490.141 289.205,485.326C296.545,480.511 306.414,482.561 311.23,489.902L329.493,517.742L329.493,406.833C329.493,399.624 335.346,393.771 342.555,393.771C349.764,393.771 355.618,399.624 355.618,406.833L355.618,472.415C355.945,474.309 357.597,475.751 359.583,475.751C361.583,475.751 363.244,474.289 363.556,472.377L363.561,472.377Z" style="fill:white;"/>
    </g>
</svg>
