<?xml version="1.0" encoding="UTF-8" standalone="no"?>
<!DOCTYPE svg PUBLIC "-//W3C//DTD SVG 1.1//EN" "http://www.w3.org/Graphics/SVG/1.1/DTD/svg11.dtd">
<svg width="100%" height="100%" viewBox="0 0 512 512" version="1.1" xmlns="http://www.w3.org/2000/svg" xmlns:xlink="http://www.w3.org/1999/xlink" xml:space="preserve" xmlns:serif="http://www.serif.com/" style="fill-rule:evenodd;clip-rule:evenodd;stroke-linejoin:round;stroke-miterlimit:2;">
    <g id="HatAwardIcon" transform="matrix(4.72696,0,0,4.72696,-4787.78,-265.299)">
        <g transform="matrix(1,0,0,1,-120.186,-3.64865)">
            <path d="M1213.94,126.936C1214.33,126.706 1214.83,126.737 1215.2,127.016C1215.56,127.294 1215.73,127.765 1215.61,128.209C1214.71,131.686 1213.18,137.561 1212.74,139.242C1212.67,139.538 1212.48,139.79 1212.21,139.943C1209.29,141.629 1191.89,151.675 1191.89,151.675C1189.36,153.132 1184.94,152.956 1182.01,151.282C1182.01,151.282 1165.02,141.573 1162.58,140.177C1162.39,140.068 1162.23,139.907 1162.13,139.713C1161.32,138.151 1157.5,130.803 1155.19,126.362C1154.96,125.913 1155.05,125.364 1155.41,125.014C1155.78,124.664 1156.33,124.595 1156.77,124.846C1164.33,129.167 1182.01,139.271 1182.01,139.271C1184.94,140.945 1189.36,141.121 1191.89,139.664C1191.89,139.664 1207.81,130.469 1213.94,126.936Z" style="fill:white;"/>
        </g>
        <path d="M1106.82,107.831C1107.92,118.665 1108.09,128.961 1107.15,138.633C1106.97,140.35 1105.52,141.655 1103.8,141.655C1103.8,141.655 1103.8,141.655 1103.8,141.653C1103.04,141.653 1102.32,141.331 1101.82,140.768C1101.31,140.205 1101.07,139.454 1101.16,138.703C1102.06,130.228 1102.12,121.079 1101.16,111.097L1106.82,107.831Z" style="fill:white;"/>
        <path d="M1101.13,111.112L1071.7,128.103C1069.18,129.56 1064.75,129.384 1061.82,127.71L1019.37,103.445C1016.44,101.771 1016.11,99.229 1018.63,97.773L1062.35,72.538C1064.87,71.081 1069.3,71.257 1072.23,72.931L1114.68,97.196C1117.61,98.87 1117.94,101.412 1115.41,102.868L1106.78,107.851L1078.41,99.366C1078.08,96.325 1073.51,93.911 1067.93,93.911C1062.14,93.911 1057.43,96.513 1057.43,99.718C1057.43,102.923 1062.14,105.525 1067.93,105.525C1070.31,105.525 1072.51,105.085 1074.27,104.345L1101.13,111.112Z" style="fill:white;"/>
    </g>
</svg>
