<?xml version="1.0" encoding="UTF-8" standalone="no"?>
<!DOCTYPE svg PUBLIC "-//W3C//DTD SVG 1.1//EN" "http://www.w3.org/Graphics/SVG/1.1/DTD/svg11.dtd">
<svg width="100%" height="100%" viewBox="0 0 512 512" version="1.1" xmlns="http://www.w3.org/2000/svg" xmlns:xlink="http://www.w3.org/1999/xlink" xml:space="preserve" xmlns:serif="http://www.serif.com/" style="fill-rule:evenodd;clip-rule:evenodd;stroke-linejoin:round;stroke-miterlimit:2;">
    <g transform="matrix(2.57382,0,0,2.57382,-1707.61,-1552.37)">
        <g id="HeadphonesIcon">
            <g id="Icon">
                <g transform="matrix(0.925108,0,0,0.925108,43.4378,36.1489)">
                    <path d="M687.327,742.153C687.125,739.684 687.022,737.187 687.022,734.666L687.022,724.618C687.022,674.558 727.664,633.916 777.724,633.916C827.784,633.916 868.426,674.558 868.426,724.618L868.426,734.666C868.426,737.187 868.323,739.684 868.121,742.153L855.081,742.153C855.365,739.457 855.51,736.72 855.51,733.95L855.51,725.334C855.51,682.402 820.655,647.548 777.724,647.548C734.793,647.548 699.938,682.402 699.938,725.334L699.938,733.95C699.938,736.72 700.084,739.457 700.367,742.153L687.327,742.153Z" style="fill:rgb(248,248,249);"/>
                </g>
                <g>
                    <g transform="matrix(0.782504,0,0,0.782504,-665.728,109.836)">
                        <g transform="matrix(-0.959703,0,0,0.959703,3522.11,91.7726)">
                            <path d="M1685,693.766L1685,790.623C1660.1,788.525 1640.52,767.628 1640.52,742.194C1640.52,716.76 1660.1,695.864 1685,693.766Z" style="fill:white;"/>
                        </g>
                        <g transform="matrix(-1.04017,0,0,0.971544,3648.17,85.3103)">
                            <path d="M1706.47,693.945C1706.47,687.603 1701.66,682.454 1695.73,682.454L1692.18,682.454C1686.25,682.454 1681.44,687.603 1681.44,693.945L1681.44,785.655C1681.44,791.998 1686.25,797.147 1692.18,797.147L1695.73,797.147C1701.66,797.147 1706.47,791.998 1706.47,785.655L1706.47,693.945Z" style="fill:white;"/>
                        </g>
                    </g>
                    <g transform="matrix(-0.782504,0,0,0.782504,2191.56,109.836)">
                        <g transform="matrix(-0.959703,0,0,0.959703,3522.11,91.7726)">
                            <path d="M1685,693.766L1685,790.623C1660.1,788.525 1640.52,767.628 1640.52,742.194C1640.52,716.76 1660.1,695.864 1685,693.766Z" style="fill:white;"/>
                        </g>
                        <g transform="matrix(-1.04017,0,0,0.971544,3648.17,85.3103)">
                            <path d="M1706.47,693.945C1706.47,687.603 1701.66,682.454 1695.73,682.454L1692.18,682.454C1686.25,682.454 1681.44,687.603 1681.44,693.945L1681.44,785.655C1681.44,791.998 1686.25,797.147 1692.18,797.147L1695.73,797.147C1701.66,797.147 1706.47,791.998 1706.47,785.655L1706.47,693.945Z" style="fill:white;"/>
                        </g>
                    </g>
                </g>
            </g>
        </g>
    </g>
</svg>
