<?xml version="1.0" encoding="UTF-8" standalone="no"?>
<!DOCTYPE svg PUBLIC "-//W3C//DTD SVG 1.1//EN" "http://www.w3.org/Graphics/SVG/1.1/DTD/svg11.dtd">
<svg width="100%" height="100%" viewBox="0 0 512 512" version="1.1" xmlns="http://www.w3.org/2000/svg" xmlns:xlink="http://www.w3.org/1999/xlink" xml:space="preserve" xmlns:serif="http://www.serif.com/" style="fill-rule:evenodd;clip-rule:evenodd;stroke-linejoin:round;stroke-miterlimit:2;">
    <g id="HealthIcon" transform="matrix(19.8134,0,0,19.8134,-224317,-783.593)">
        <path d="M11346.2,48.048C11346.2,55.458 11334.4,63.277 11334.4,63.277C11334.4,63.277 11322.6,55.458 11322.6,48.048C11322.6,44.521 11325.5,41.661 11329,41.661C11331.3,41.661 11333.3,42.851 11334.4,44.643C11335.5,42.851 11337.5,41.661 11339.8,41.661C11343.3,41.661 11346.2,44.521 11346.2,48.048L11346.2,48.048ZM11335.5,51.479L11335.5,48.339C11335.5,48.176 11335.3,48.044 11335.2,48.044L11333.8,48.044C11333.6,48.044 11333.5,48.176 11333.5,48.339L11333.5,51.479L11330.3,51.479C11330.2,51.479 11330,51.611 11330,51.774L11330,53.184C11330,53.347 11330.2,53.479 11330.3,53.479L11333.5,53.479L11333.5,56.619C11333.5,56.782 11333.6,56.915 11333.8,56.915L11335.2,56.915C11335.3,56.915 11335.5,56.782 11335.5,56.619L11335.5,53.479L11338.6,53.479C11338.8,53.479 11338.9,53.347 11338.9,53.184L11338.9,51.774C11338.9,51.611 11338.8,51.479 11338.6,51.479L11335.5,51.479Z" style="fill:white;fill-rule:nonzero;"/>
    </g>
</svg>
