<?xml version="1.0" encoding="UTF-8" standalone="no"?>
<!DOCTYPE svg PUBLIC "-//W3C//DTD SVG 1.1//EN" "http://www.w3.org/Graphics/SVG/1.1/DTD/svg11.dtd">
<svg width="100%" height="100%" viewBox="0 0 512 512" version="1.1" xmlns="http://www.w3.org/2000/svg" xmlns:xlink="http://www.w3.org/1999/xlink" xml:space="preserve" xmlns:serif="http://www.serif.com/" style="fill-rule:evenodd;clip-rule:evenodd;stroke-linejoin:round;stroke-miterlimit:2;">
    <g id="HeartShineIcon" transform="matrix(6.49009,0,0,6.49009,-9.42778,-61.4025)">
        <g transform="matrix(0.745818,0,0,0.756923,-829.215,-1324)">
            <path d="M1166.65,1797.1C1172.26,1786.57 1183.47,1786.57 1189.07,1791.84C1194.68,1797.1 1194.68,1807.63 1189.07,1818.16C1185.15,1826.06 1175.06,1833.95 1166.65,1839.22C1158.25,1833.95 1148.16,1826.06 1144.24,1818.16C1138.63,1807.63 1138.63,1797.1 1144.24,1791.84C1149.84,1786.57 1161.05,1786.57 1166.65,1797.1Z" style="fill:white;"/>
        </g>
        <g>
            <g transform="matrix(0.734627,0.424137,-0.410674,0.711308,412.85,-1449.37)">
                <path d="M472.487,1809.58C472.487,1808.59 471.714,1807.8 470.761,1807.8L460.134,1807.8C459.181,1807.8 458.407,1808.59 458.407,1809.58C458.407,1810.56 459.181,1811.36 460.134,1811.36L470.761,1811.36C471.714,1811.36 472.487,1810.56 472.487,1809.58Z" style="fill:white;"/>
            </g>
            <g transform="matrix(0.734627,-0.424137,-0.410674,-0.711308,417.167,1546.89)">
                <path d="M472.487,1809.58C472.487,1808.59 471.714,1807.8 470.761,1807.8L460.134,1807.8C459.181,1807.8 458.407,1808.59 458.407,1809.58C458.407,1810.56 459.181,1811.36 460.134,1811.36L470.761,1811.36C471.714,1811.36 472.487,1810.56 472.487,1809.58Z" style="fill:white;"/>
            </g>
            <g transform="matrix(0.848274,0,-3.33067e-16,0.821347,-386.262,-1437.53)">
                <path d="M472.487,1809.58C472.487,1808.59 471.714,1807.8 470.761,1807.8L460.134,1807.8C459.181,1807.8 458.407,1808.59 458.407,1809.58C458.407,1810.56 459.181,1811.36 460.134,1811.36L470.761,1811.36C471.714,1811.36 472.487,1810.56 472.487,1809.58Z" style="fill:white;"/>
            </g>
            <g transform="matrix(-0.734627,0.424137,0.410674,0.711308,-331.055,-1449.37)">
                <path d="M472.487,1809.58C472.487,1808.59 471.714,1807.8 470.761,1807.8L460.134,1807.8C459.181,1807.8 458.407,1808.59 458.407,1809.58C458.407,1810.56 459.181,1811.36 460.134,1811.36L470.761,1811.36C471.714,1811.36 472.487,1810.56 472.487,1809.58Z" style="fill:white;"/>
            </g>
            <g transform="matrix(-0.734627,-0.424137,0.410674,-0.711308,-335.372,1546.89)">
                <path d="M472.487,1809.58C472.487,1808.59 471.714,1807.8 470.761,1807.8L460.134,1807.8C459.181,1807.8 458.407,1808.59 458.407,1809.58C458.407,1810.56 459.181,1811.36 460.134,1811.36L470.761,1811.36C471.714,1811.36 472.487,1810.56 472.487,1809.58Z" style="fill:white;"/>
            </g>
            <g transform="matrix(-0.848274,0,3.33067e-16,0.821347,468.057,-1437.53)">
                <path d="M472.487,1809.58C472.487,1808.59 471.714,1807.8 470.761,1807.8L460.134,1807.8C459.181,1807.8 458.407,1808.59 458.407,1809.58C458.407,1810.56 459.181,1811.36 460.134,1811.36L470.761,1811.36C471.714,1811.36 472.487,1810.56 472.487,1809.58Z" style="fill:white;"/>
            </g>
        </g>
    </g>
</svg>
