<?xml version="1.0" encoding="UTF-8" standalone="no"?>
<!DOCTYPE svg PUBLIC "-//W3C//DTD SVG 1.1//EN" "http://www.w3.org/Graphics/SVG/1.1/DTD/svg11.dtd">
<svg width="100%" height="100%" viewBox="0 0 512 512" version="1.1" xmlns="http://www.w3.org/2000/svg" xmlns:xlink="http://www.w3.org/1999/xlink" xml:space="preserve" xmlns:serif="http://www.serif.com/" style="fill-rule:evenodd;clip-rule:evenodd;stroke-linejoin:round;stroke-miterlimit:2;">
    <g id="HelicopterIcon" transform="matrix(5.39926,0,0,5.12382,-22879.8,-4244.11)">
        <g transform="matrix(0.410234,0,0,0.396737,3980.29,-628.898)">
            <rect x="739.822" y="3703.11" width="43.919" height="8.48" style="fill:white;"/>
        </g>
        <g transform="matrix(0.365629,0,0,0.396737,3997.67,-628.898)">
            <rect x="739.822" y="3703.11" width="43.919" height="8.48" style="fill:white;"/>
        </g>
        <g transform="matrix(2.37966e-17,0.409519,-0.376497,2.42931e-17,5680.8,538.709)">
            <rect x="739.822" y="3703.11" width="43.919" height="8.48" style="fill:white;"/>
        </g>
        <g transform="matrix(0.957992,0,0,1.00949,3581.95,-2910.75)">
            <path d="M737.592,3714.77C737.592,3713.74 736.757,3712.91 735.73,3712.91L732.005,3712.91C730.977,3712.91 730.143,3713.74 730.143,3714.77L730.143,3720.62C730.143,3721.64 730.977,3722.48 732.005,3722.48L735.73,3722.48C736.757,3722.48 737.592,3721.64 737.592,3720.62L737.592,3714.77Z" style="fill:white;"/>
        </g>
        <g transform="matrix(1.23536,0,0,1.23536,-1008.35,-202.897)">
            <g transform="matrix(0.430272,0,0,0.453402,3884.57,-823.902)">
                <path d="M897.38,3777.99C901.64,3778.25 903.298,3784.92 897.505,3786.75C890.035,3789.2 885.739,3797.22 885.064,3805.04C885.064,3805.04 883.628,3809.26 880.375,3808.99C872.211,3808.28 878.287,3786.82 890.396,3780.37C891.728,3779.66 893.122,3779.07 894.554,3778.6C895.476,3778.29 895.939,3777.96 897.38,3777.99Z" style="fill:white;"/>
            </g>
            <g transform="matrix(0.542262,0,0,0.571413,3786.28,-1273.45)">
                <circle cx="877.668" cy="3809.38" r="8.745" style="fill:white;"/>
            </g>
            <g transform="matrix(-0.430272,0,0,0.453402,4684.23,-823.902)">
                <path d="M896.991,3777.99C886.167,3778.78 877.646,3791.04 876.472,3803.8C876.024,3808.67 884.414,3811.64 885.143,3804.18C885.952,3796.81 889.841,3789.12 897.715,3786.68C900.881,3785.7 900.761,3785.05 901.202,3784C902.334,3781.31 900.604,3777.89 896.991,3777.99Z" style="fill:white;"/>
            </g>
            <g transform="matrix(-0.542262,0,0,0.571413,4782.52,-1273.45)">
                <circle cx="877.668" cy="3809.38" r="8.745" style="fill:white;"/>
            </g>
            <g transform="matrix(0.80562,0,0,0.848928,-3360.27,-2200.66)">
                <path d="M9499.28,3653.59L9480.44,3653.59C9476.25,3653.59 9472.84,3650.18 9472.84,3645.99C9472.84,3645.81 9472.85,3645.64 9472.86,3645.47C9466.65,3640.47 9462.67,3632.81 9462.67,3624.23C9462.67,3609.19 9474.88,3596.98 9489.91,3596.98C9504.95,3596.98 9517.16,3609.19 9517.16,3624.23C9517.16,3632.86 9513.14,3640.55 9506.87,3645.55C9506.88,3645.69 9506.88,3645.84 9506.88,3645.99C9506.88,3650.18 9503.47,3653.59 9499.28,3653.59ZM9491.61,3603.38C9503.07,3604.21 9508.2,3613.42 9508.2,3621.26C9508.2,3629 9500.91,3632.64 9491.61,3633.03L9491.61,3603.38ZM9488.22,3603.38L9488.22,3633.03C9478.92,3632.64 9471.63,3629 9471.63,3621.26C9471.63,3613.42 9476.76,3604.21 9488.22,3603.38Z" style="fill:white;"/>
            </g>
        </g>
        <g>
            <g transform="matrix(0.765824,0,0,1.00949,3728.32,-2900.56)">
                <path d="M783.741,3704.81C783.741,3703.87 782.79,3703.11 781.619,3703.11L741.943,3703.11C740.772,3703.11 739.822,3703.87 739.822,3704.81L739.822,3709.89C739.822,3710.83 740.772,3711.59 741.943,3711.59L781.619,3711.59C782.79,3711.59 783.741,3710.83 783.741,3709.89L783.741,3704.81Z" style="fill:white;"/>
            </g>
            <g transform="matrix(0.765824,0,0,1.00949,3674.88,-2900.56)">
                <path d="M783.741,3704.81C783.741,3703.87 782.79,3703.11 781.619,3703.11L741.943,3703.11C740.772,3703.11 739.822,3703.87 739.822,3704.81L739.822,3709.89C739.822,3710.83 740.772,3711.59 741.943,3711.59L781.619,3711.59C782.79,3711.59 783.741,3710.83 783.741,3709.89L783.741,3704.81Z" style="fill:white;"/>
            </g>
        </g>
    </g>
</svg>
