<?xml version="1.0" encoding="UTF-8" standalone="no"?>
<!DOCTYPE svg PUBLIC "-//W3C//DTD SVG 1.1//EN" "http://www.w3.org/Graphics/SVG/1.1/DTD/svg11.dtd">
<svg width="100%" height="100%" viewBox="0 0 512 512" version="1.1" xmlns="http://www.w3.org/2000/svg" xmlns:xlink="http://www.w3.org/1999/xlink" xml:space="preserve" xmlns:serif="http://www.serif.com/" style="fill-rule:evenodd;clip-rule:evenodd;stroke-linejoin:round;stroke-miterlimit:2;">
    <g id="HelpIcon" transform="matrix(13.3554,0,0,12.674,-55626,-27669)">
        <g id="Icon" transform="matrix(45.9836,0,0,48.4555,4170.97,2220.59)">
            <path d="M0.044,-0.527C0.044,-0.558 0.054,-0.586 0.074,-0.618C0.094,-0.65 0.123,-0.676 0.161,-0.697C0.199,-0.718 0.243,-0.728 0.294,-0.728C0.341,-0.728 0.383,-0.719 0.419,-0.702C0.455,-0.684 0.483,-0.661 0.503,-0.631C0.522,-0.601 0.532,-0.568 0.532,-0.533C0.532,-0.506 0.527,-0.481 0.515,-0.46C0.504,-0.44 0.491,-0.422 0.475,-0.406C0.46,-0.391 0.432,-0.366 0.392,-0.33C0.381,-0.32 0.372,-0.311 0.365,-0.303C0.359,-0.296 0.354,-0.289 0.351,-0.282C0.347,-0.276 0.345,-0.27 0.343,-0.263C0.341,-0.257 0.339,-0.246 0.335,-0.23C0.329,-0.196 0.309,-0.179 0.277,-0.179C0.26,-0.179 0.246,-0.185 0.234,-0.196C0.223,-0.207 0.217,-0.223 0.217,-0.245C0.217,-0.272 0.221,-0.296 0.229,-0.316C0.238,-0.336 0.249,-0.354 0.263,-0.369C0.277,-0.384 0.296,-0.402 0.32,-0.423C0.341,-0.441 0.356,-0.455 0.365,-0.464C0.374,-0.473 0.382,-0.484 0.388,-0.495C0.395,-0.507 0.398,-0.519 0.398,-0.532C0.398,-0.558 0.388,-0.58 0.369,-0.598C0.35,-0.616 0.325,-0.625 0.294,-0.625C0.258,-0.625 0.236,-0.611 0.215,-0.598C0.135,-0.545 0.16,-0.479 0.113,-0.475C0.057,-0.47 0.044,-0.503 0.044,-0.527ZM0.282,0.011C0.262,0.011 0.245,0.005 0.23,-0.008C0.215,-0.021 0.208,-0.039 0.208,-0.062C0.208,-0.083 0.215,-0.1 0.229,-0.114C0.244,-0.128 0.261,-0.135 0.282,-0.135C0.303,-0.135 0.32,-0.128 0.334,-0.114C0.348,-0.1 0.355,-0.083 0.355,-0.062C0.355,-0.039 0.348,-0.021 0.333,-0.008C0.318,0.005 0.301,0.011 0.282,0.011Z" style="fill:white;fill-rule:nonzero;"/>
        </g>
        <g transform="matrix(0.964464,0,0,1.01631,3622.92,82.5693)">
            <circle cx="581.706" cy="2100.79" r="3.655" style="fill:white;"/>
        </g>
    </g>
</svg>
