<?xml version="1.0" encoding="UTF-8" standalone="no"?>
<!DOCTYPE svg PUBLIC "-//W3C//DTD SVG 1.1//EN" "http://www.w3.org/Graphics/SVG/1.1/DTD/svg11.dtd">
<svg width="100%" height="100%" viewBox="0 0 512 512" version="1.1" xmlns="http://www.w3.org/2000/svg" xmlns:xlink="http://www.w3.org/1999/xlink" xml:space="preserve" xmlns:serif="http://www.serif.com/" style="fill-rule:evenodd;clip-rule:evenodd;stroke-linejoin:round;stroke-miterlimit:2;">
    <g id="Question" transform="matrix(1.93208,0,0,1.93208,0,0)">
        <path d="M132.5,0C205.629,0 265,59.371 265,132.5C265,205.629 205.629,265 132.5,265C59.371,265 0,205.629 0,132.5C0,59.371 59.371,0 132.5,0ZM132.5,173C142.159,173 150,180.841 150,190.5C150,200.159 142.159,208 132.5,208C122.841,208 115,200.159 115,190.5C115,180.841 122.841,173 132.5,173ZM121.624,101.479C121.624,92.577 128.861,88.069 135.804,87.727C141.957,87.423 148.413,90.713 148.376,98.604C148.357,102.759 146.192,105.09 143.802,107.161C140.232,110.256 136.14,112.936 132.428,116.055C123.1,123.897 115.566,133.664 115.566,151C115.566,159.279 122.288,166 130.566,166C138.845,166 145.566,159.279 145.566,151C145.566,144.54 148.945,141.268 152.474,138.408C155.325,136.098 158.347,133.995 161.16,131.738C170.794,124.01 178.3,114.836 178.376,98.744C178.51,70.188 156.593,56.664 134.325,57.763C112.847,58.823 91.624,73.937 91.624,101.479C91.624,109.758 98.345,116.479 106.624,116.479C114.903,116.479 121.624,109.758 121.624,101.479Z" style="fill:white;"/>
    </g>
</svg>
