<?xml version="1.0" encoding="UTF-8" standalone="no"?>
<!DOCTYPE svg PUBLIC "-//W3C//DTD SVG 1.1//EN" "http://www.w3.org/Graphics/SVG/1.1/DTD/svg11.dtd">
<svg width="100%" height="100%" viewBox="0 0 512 512" version="1.1" xmlns="http://www.w3.org/2000/svg" xmlns:xlink="http://www.w3.org/1999/xlink" xml:space="preserve" xmlns:serif="http://www.serif.com/" style="fill-rule:evenodd;clip-rule:evenodd;stroke-linejoin:round;stroke-miterlimit:2;">
    <g id="HomeIcon" transform="matrix(7.03448,0,0,7.03448,-1026.42,-5923.29)">
        <path d="M176.541,906.103L161.449,906.103C160.588,906.103 159.889,905.412 159.889,904.561L159.889,881.305L182.385,864.685L182.385,864.684L182.385,864.685L182.385,864.684L182.385,864.685L204.882,881.305L204.882,904.561C204.882,905.412 204.183,906.103 203.321,906.103L188.229,906.103L188.229,893.006L176.541,893.006L176.541,906.103ZM194.028,859.195L194.028,851.249C194.028,850.977 194.251,850.756 194.527,850.756L203.507,850.756C203.783,850.756 204.006,850.977 204.006,851.249L204.006,866.554L215.467,875.007C215.881,875.312 215.967,875.893 215.657,876.303L211.171,882.243C210.861,882.653 210.273,882.737 209.858,882.432L182.305,862.11L154.752,882.432C154.337,882.737 153.749,882.653 153.439,882.243L148.953,876.303C148.643,875.893 148.729,875.312 149.143,875.007L181.676,851.012C181.855,850.88 182.067,850.821 182.275,850.829C182.5,850.807 182.733,850.864 182.929,851.008L194.028,859.195Z" style="fill:white;"/>
    </g>
</svg>
