<?xml version="1.0" encoding="UTF-8" standalone="no"?>
<!DOCTYPE svg PUBLIC "-//W3C//DTD SVG 1.1//EN" "http://www.w3.org/Graphics/SVG/1.1/DTD/svg11.dtd">
<svg width="100%" height="100%" viewBox="0 0 512 512" version="1.1" xmlns="http://www.w3.org/2000/svg" xmlns:xlink="http://www.w3.org/1999/xlink" xml:space="preserve" xmlns:serif="http://www.serif.com/" style="fill-rule:evenodd;clip-rule:evenodd;stroke-linejoin:round;stroke-miterlimit:2;">
    <g id="HoodedManIcon" transform="matrix(2.63576,0,0,3.20971,1925.36,-18670.9)">
        <g transform="matrix(1.10047,0,0,0.903687,-21142.1,110.452)">
            <path d="M18582.1,6399.63C18582.5,6357.95 18614.8,6318.73 18636.4,6318.5L18636.4,6318.5L18636.4,6318.5L18636.4,6318.5L18636.4,6318.5C18658,6318.73 18690.3,6357.95 18690.7,6399.63C18686.9,6384.83 18673.5,6373.88 18657.5,6373.88L18615.3,6373.88C18599.3,6373.88 18585.9,6384.83 18582.1,6399.63Z" style="fill:white;"/>
        </g>
        <g transform="matrix(1.10047,0,0,0.903687,-21142.1,110.452)">
            <path d="M18589.3,6430.54C18595.6,6437.84 18604.9,6442.46 18615.3,6442.46L18657.5,6442.46C18667.9,6442.46 18677.2,6437.84 18683.5,6430.54C18692.8,6436.58 18698.5,6444.43 18698.5,6453.01C18698.5,6472.06 18670.7,6487.52 18636.4,6487.52C18602.2,6487.52 18574.3,6472.06 18574.3,6453.01C18574.3,6444.43 18580,6436.58 18589.3,6430.54Z" style="fill:white;"/>
        </g>
        <g transform="matrix(1.10047,0,0,0.903687,-21142,110.452)">
            <path d="M18657.5,6379.88C18673.1,6379.88 18685.8,6392.56 18685.8,6408.18C18685.8,6423.8 18673.1,6436.48 18657.5,6436.48L18615.3,6436.48C18599.7,6436.48 18587,6423.8 18587,6408.18C18587,6392.56 18599.7,6379.88 18615.3,6379.88L18657.5,6379.88ZM18612.4,6394.93C18613.3,6391.53 18629,6394.6 18629.7,6399.57C18630.2,6403.06 18624.2,6404.7 18619.4,6403.42C18614.6,6402.14 18611.5,6398.34 18612.4,6394.93ZM18660.4,6394.93C18659.5,6391.53 18643.8,6394.6 18643.1,6399.57C18642.6,6403.06 18648.6,6404.7 18653.4,6403.42C18658.2,6402.14 18661.3,6398.34 18660.4,6394.93Z" style="fill:white;"/>
        </g>
    </g>
</svg>
