<?xml version="1.0" encoding="UTF-8" standalone="no"?>
<!DOCTYPE svg PUBLIC "-//W3C//DTD SVG 1.1//EN" "http://www.w3.org/Graphics/SVG/1.1/DTD/svg11.dtd">
<svg width="100%" height="100%" viewBox="0 0 512 512" version="1.1" xmlns="http://www.w3.org/2000/svg" xmlns:xlink="http://www.w3.org/1999/xlink" xml:space="preserve" xmlns:serif="http://www.serif.com/" style="fill-rule:evenodd;clip-rule:evenodd;stroke-linejoin:round;stroke-miterlimit:2;">
    <g id="HourglassIcon" transform="matrix(4.87759,0,0,4.87759,523.147,-242.553)">
        <g transform="matrix(1,0,0,1.03691,-182.818,-14.6302)">
            <path d="M162.485,65.685C162.485,64.795 161.736,64.073 160.814,64.073L95.283,64.073C94.36,64.073 93.611,64.795 93.611,65.685L93.611,68.909C93.611,69.799 94.36,70.521 95.283,70.521L160.814,70.521C161.736,70.521 162.485,69.799 162.485,68.909L162.485,65.685Z" style="fill:white;"/>
        </g>
        <g transform="matrix(1,0,0,-1.03691,-182.818,219.056)">
            <path d="M162.485,65.685C162.485,64.795 161.736,64.073 160.814,64.073L95.283,64.073C94.36,64.073 93.611,64.795 93.611,65.685L93.611,68.909C93.611,69.799 94.36,70.521 95.283,70.521L160.814,70.521C161.736,70.521 162.485,69.799 162.485,68.909L162.485,65.685Z" style="fill:white;"/>
        </g>
        <g transform="matrix(1,0,0,1,25.6527,19.6046)">
            <path d="M-108.461,35.897L-101.775,35.897L-101.775,62.383C-101.775,63.179 -101.459,63.942 -100.896,64.504C-98.054,67.347 -89.054,76.348 -84.914,80.488C-83.743,81.66 -83.743,83.559 -84.914,84.731C-89.054,88.871 -98.054,97.87 -100.896,100.712C-101.459,101.275 -101.775,102.038 -101.775,102.834C-101.775,108.225 -101.775,129.32 -101.775,129.32L-108.461,129.32L-108.461,100.064C-108.461,99.268 -108.145,98.505 -107.582,97.942C-105.096,95.457 -97.962,88.323 -94.369,84.73C-93.807,84.167 -93.491,83.404 -93.491,82.608C-93.491,81.813 -93.807,81.05 -94.369,80.487C-97.962,76.894 -105.096,69.76 -107.582,67.275C-108.145,66.712 -108.461,65.949 -108.461,65.153C-108.461,59.431 -108.461,35.897 -108.461,35.897ZM-52.281,65.153C-52.281,65.949 -52.597,66.712 -53.159,67.275C-55.645,69.76 -62.779,76.894 -66.372,80.487C-66.935,81.05 -67.251,81.813 -67.251,82.608C-67.251,83.404 -66.935,84.167 -66.372,84.73C-62.779,88.323 -55.645,95.457 -53.159,97.942C-52.597,98.505 -52.281,99.268 -52.281,100.064C-52.281,105.786 -52.281,129.32 -52.281,129.32L-58.967,129.32L-58.967,102.834C-58.967,102.038 -59.283,101.275 -59.846,100.712C-62.688,97.87 -71.688,88.87 -75.829,84.729C-76.391,84.167 -76.707,83.404 -76.707,82.608C-76.707,81.812 -76.391,81.049 -75.829,80.487C-71.688,76.347 -62.688,67.347 -59.846,64.504C-59.283,63.942 -58.967,63.179 -58.967,62.383C-58.967,56.992 -58.967,35.897 -58.967,35.897L-52.281,35.897L-52.281,65.153Z" style="fill:white;"/>
        </g>
        <g transform="matrix(1,0,0,1,-182.611,-12.2)">
            <path d="M143.974,86.01C143.974,84.354 142.63,83.01 140.974,83.01C134.883,83.01 121.13,83.01 115.039,83.01C113.382,83.01 112.039,84.354 112.039,86.01C112.039,86.642 112.039,87.28 112.039,87.82C112.039,88.713 112.437,89.56 113.125,90.13C115.798,92.346 122.728,98.09 126.113,100.896C127.224,101.817 128.835,101.816 129.945,100.893C133.321,98.086 140.227,92.345 142.892,90.129C143.577,89.56 143.974,88.714 143.974,87.823C143.974,87.283 143.974,86.643 143.974,86.01Z" style="fill:white;"/>
        </g>
        <g transform="matrix(1,0,0,1,-182.611,-12.2)">
            <path d="M142.962,139.08C143.605,139.649 143.974,140.467 143.974,141.327L143.974,149.014C143.974,150.671 142.63,152.014 140.974,152.014C134.883,152.014 121.13,152.014 115.039,152.014C113.382,152.014 112.039,150.671 112.039,149.014C112.039,146.534 112.039,143.132 112.039,141.29C112.039,140.452 112.389,139.652 113.005,139.084C114.485,137.72 117.29,135.133 118.704,133.828C119.258,133.317 119.984,133.034 120.738,133.034C123.794,133.034 131.977,133.034 134.993,133.034C135.725,133.034 136.432,133.302 136.981,133.787C138.438,135.076 141.402,137.699 142.962,139.08Z" style="fill:white;"/>
        </g>
    </g>
</svg>
