<?xml version="1.0" encoding="UTF-8" standalone="no"?>
<!DOCTYPE svg PUBLIC "-//W3C//DTD SVG 1.1//EN" "http://www.w3.org/Graphics/SVG/1.1/DTD/svg11.dtd">
<svg width="100%" height="100%" viewBox="0 0 512 512" version="1.1" xmlns="http://www.w3.org/2000/svg" xmlns:xlink="http://www.w3.org/1999/xlink" xml:space="preserve" xmlns:serif="http://www.serif.com/" style="fill-rule:evenodd;clip-rule:evenodd;stroke-linejoin:round;stroke-miterlimit:2;">
    <g id="InfinityIcon" transform="matrix(12.3497,0,0,12.3497,-345.762,-724.942)">
        <g transform="matrix(0.712405,-0.712405,0.559612,0.559612,-22.2355,63.3735)">
            <rect x="36.665" y="68.517" width="3.745" height="18.296" style="fill:white;"/>
        </g>
        <g transform="matrix(1,0,0,1,2.19837,2.76503)">
            <path d="M43.717,81.816C43.745,81.844 43.749,81.888 43.727,81.92C42.063,84.3 39.302,85.858 36.18,85.858C31.101,85.858 26.978,81.735 26.978,76.656C26.978,71.578 31.101,67.455 36.18,67.455C41.258,67.455 45.382,71.578 45.382,76.656C45.382,77.139 45.344,77.612 45.273,78.075L40.067,72.869C39.08,71.857 37.703,71.228 36.18,71.228C33.184,71.228 30.752,73.66 30.752,76.656C30.752,79.652 33.184,82.085 36.18,82.085C38.251,82.085 40.053,80.922 40.968,79.215C40.98,79.192 41.002,79.176 41.027,79.173C41.052,79.169 41.078,79.177 41.096,79.195C41.505,79.603 43.392,81.491 43.717,81.816Z" style="fill:white;"/>
        </g>
        <g transform="matrix(1,0,0,1,0.11402,-0.662314)">
            <path d="M51.421,74.946C51.393,74.919 51.389,74.875 51.411,74.843C53.075,72.46 55.838,70.9 58.961,70.9C64.04,70.9 68.163,75.023 68.163,80.102C68.163,85.18 64.04,89.304 58.961,89.304C55.815,89.304 53.036,87.721 51.376,85.309C51.376,85.309 54.855,83.654 54.899,83.7C55.947,84.819 57.353,85.53 58.961,85.53C61.957,85.531 64.39,83.098 64.39,80.102C64.39,77.106 61.957,74.673 58.961,74.673C57.438,74.673 56.061,75.302 55.075,76.314C55.075,76.314 54.22,77.168 53.989,77.4C53.974,77.415 53.953,77.424 53.932,77.424C53.91,77.424 53.889,77.415 53.874,77.4C53.53,77.055 51.737,75.263 51.421,74.946Z" style="fill:white;"/>
        </g>
    </g>
</svg>
