<?xml version="1.0" encoding="UTF-8" standalone="no"?>
<!DOCTYPE svg PUBLIC "-//W3C//DTD SVG 1.1//EN" "http://www.w3.org/Graphics/SVG/1.1/DTD/svg11.dtd">
<svg width="100%" height="100%" viewBox="0 0 512 512" version="1.1" xmlns="http://www.w3.org/2000/svg" xmlns:xlink="http://www.w3.org/1999/xlink" xml:space="preserve" xmlns:serif="http://www.serif.com/" style="fill-rule:evenodd;clip-rule:evenodd;stroke-linejoin:round;stroke-miterlimit:2;">
    <g id="InstagramIcon" transform="matrix(19.0652,0,0,18.8395,-13852.2,-71861.6)">
        <path d="M748.25,3840L731.75,3840C729.679,3840 728,3838.32 728,3836.25L728,3819.75C728,3817.68 729.679,3816 731.75,3816L748.25,3816C750.321,3816 752,3817.68 752,3819.75L752,3836.25C752,3838.32 750.321,3840 748.25,3840ZM740,3824C737.791,3824 736,3825.79 736,3828C736,3830.21 737.791,3832 740,3832C742.209,3832 744,3830.21 744,3828C744,3825.79 742.209,3824 740,3824ZM749,3820.5C749,3819.67 748.328,3819 747.5,3819L746.5,3819C745.672,3819 745,3819.67 745,3820.5L745,3821.5C745,3822.33 745.672,3823 746.5,3823L747.5,3823C748.328,3823 749,3822.33 749,3821.5L749,3820.5ZM749,3826L746.675,3826C746.866,3826.64 747,3827.3 747,3828C747,3831.87 743.866,3835 740,3835C736.134,3835 733,3831.87 733,3828C733,3827.3 733.134,3826.64 733.325,3826L731,3826L731,3835.5C731,3836.33 731.672,3837 732.5,3837L747.5,3837C748.328,3837 749,3836.33 749,3835.5L749,3826Z" style="fill:white;"/>
    </g>
</svg>
