<?xml version="1.0" encoding="UTF-8" standalone="no"?>
<!DOCTYPE svg PUBLIC "-//W3C//DTD SVG 1.1//EN" "http://www.w3.org/Graphics/SVG/1.1/DTD/svg11.dtd">
<svg width="100%" height="100%" viewBox="0 0 512 512" version="1.1" xmlns="http://www.w3.org/2000/svg" xmlns:xlink="http://www.w3.org/1999/xlink" xml:space="preserve" xmlns:serif="http://www.serif.com/" style="fill-rule:evenodd;clip-rule:evenodd;stroke-linejoin:round;stroke-miterlimit:2;">
    <g id="IntelligenceIcon" transform="matrix(5.4508,0,0,5.4508,-7656.14,-1848.12)">
        <path d="M1462.12,393.786C1471.24,397.866 1476.56,405.193 1477.18,411.467C1477.86,418.367 1469.67,421.082 1448.46,421.53C1447.76,421.545 1447.07,421.55 1446.38,421.545C1445.7,421.55 1445.01,421.545 1444.31,421.53C1423.1,421.082 1414.91,418.367 1415.59,411.467C1416.2,405.227 1421.47,397.945 1430.5,393.853C1434.36,399.515 1440.16,403.062 1446.29,403.062C1452.44,403.062 1458.26,399.487 1462.12,393.786ZM1446.51,398.628C1438.01,398.628 1430.31,389.738 1430.31,378.275C1430.31,367.601 1434.26,359.831 1446.51,359.812C1458.77,359.793 1462.72,367.601 1462.72,378.275C1462.72,389.738 1455.02,398.628 1446.51,398.628ZM1484.26,378.934L1486.01,385.36L1492.51,387.09L1486.01,388.82L1484.26,395.246L1482.51,388.82L1476,387.09L1482.51,385.36L1484.26,378.934ZM1476.03,350.495L1478.84,360.809L1489.28,363.586L1478.84,366.363L1476.03,376.677L1473.22,366.363L1462.78,363.586L1473.22,360.809L1476.03,350.495ZM1418.85,358.681L1420.6,365.107L1427.11,366.837L1420.6,368.567L1418.85,374.993L1417.1,368.567L1410.6,366.837L1417.1,365.107L1418.85,358.681Z" style="fill:white;"/>
    </g>
</svg>
