<?xml version="1.0" encoding="UTF-8" standalone="no"?>
<!DOCTYPE svg PUBLIC "-//W3C//DTD SVG 1.1//EN" "http://www.w3.org/Graphics/SVG/1.1/DTD/svg11.dtd">
<svg width="100%" height="100%" viewBox="0 0 512 512" version="1.1" xmlns="http://www.w3.org/2000/svg" xmlns:xlink="http://www.w3.org/1999/xlink" xml:space="preserve" xmlns:serif="http://www.serif.com/" style="fill-rule:evenodd;clip-rule:evenodd;stroke-linejoin:round;stroke-miterlimit:2;">
    <g id="InventoryIcon" transform="matrix(7.01689,0,0,7.01689,-5013.49,-6794.39)">
        <path d="M762.034,998.743L784.876,998.743L784.876,1027.05C784.876,1030.93 781.724,1034.08 777.842,1034.08L724.102,1034.08C720.22,1034.08 717.069,1030.93 717.069,1027.05L717.069,998.743L739.91,998.743L739.91,1004.69C739.91,1006.6 741.461,1008.15 743.37,1008.15L758.574,1008.15C760.484,1008.15 762.034,1006.6 762.034,1004.69L762.034,998.743ZM784.876,993.355L717.069,993.355L717.069,982.496C717.069,978.614 720.22,975.462 724.102,975.462L777.842,975.462C781.724,975.462 784.876,978.614 784.876,982.496L784.876,993.355Z" style="fill:white;"/>
    </g>
</svg>
