<?xml version="1.0" encoding="UTF-8" standalone="no"?>
<!DOCTYPE svg PUBLIC "-//W3C//DTD SVG 1.1//EN" "http://www.w3.org/Graphics/SVG/1.1/DTD/svg11.dtd">
<svg width="100%" height="100%" viewBox="0 0 512 512" version="1.1" xmlns="http://www.w3.org/2000/svg" xmlns:xlink="http://www.w3.org/1999/xlink" xml:space="preserve" xmlns:serif="http://www.serif.com/" style="fill-rule:evenodd;clip-rule:evenodd;stroke-linejoin:round;stroke-miterlimit:2;">
    <g id="KeyIcon" transform="matrix(4.85349,0,0,4.85349,-4947.33,-1658.19)">
        <g transform="matrix(1.18422,0,0,1.18422,-202.213,-80.4275)">
            <rect x="1073.97" y="420.4" width="10.399" height="16.473" style="fill:white;"/>
        </g>
        <g transform="matrix(1.34792,0,0,1.18422,-380.787,-80.4886)">
            <path d="M1090.86,421.754C1090.86,420.99 1090.32,420.37 1089.65,420.37L1075.83,420.37C1075.16,420.37 1074.61,420.99 1074.61,421.754L1074.61,425.884C1074.61,426.648 1075.16,427.267 1075.83,427.267L1089.65,427.267C1090.32,427.267 1090.86,426.648 1090.86,425.884L1090.86,421.754Z" style="fill:white;"/>
        </g>
        <g transform="matrix(1.18422,0,0,1.18422,-202.213,-80.4886)">
            <path d="M1088,432.565C1088,431.961 1087.51,431.471 1086.91,431.471L1078.13,431.471C1077.53,431.471 1077.04,431.961 1077.04,432.565L1077.04,435.831C1077.04,436.435 1077.53,436.925 1078.13,436.925L1086.91,436.925C1087.51,436.925 1088,436.435 1088,435.831L1088,432.565Z" style="fill:white;"/>
        </g>
        <g transform="matrix(1.20016,0,0,1.20016,-10317.2,-5039.87)">
            <path d="M9485.59,4541.49C9486.95,4541.69 9488.35,4541.8 9489.77,4541.8C9491.19,4541.8 9492.59,4541.69 9493.96,4541.49L9493.96,4565.17C9493.96,4567.48 9492.08,4567.86 9489.77,4567.86C9487.46,4567.86 9485.59,4567.48 9485.59,4565.17L9485.59,4541.49Z" style="fill:white;"/>
        </g>
        <g transform="matrix(1.02707,-5.08354e-17,5.08354e-17,1.02707,-33.9635,-1.39893)">
            <path d="M1076.89,338.729C1093.09,338.729 1106.23,351.876 1106.23,368.069C1106.23,384.263 1093.09,397.409 1076.89,397.409C1060.7,397.409 1047.55,384.263 1047.55,368.069C1047.55,351.876 1060.7,338.729 1076.89,338.729ZM1076.89,347.572C1088.2,347.572 1097.39,356.757 1097.39,368.069C1097.39,379.382 1088.2,388.566 1076.89,388.566C1065.58,388.566 1056.39,379.382 1056.39,368.069C1056.39,356.757 1065.58,347.572 1076.89,347.572Z" style="fill:white;"/>
        </g>
    </g>
</svg>
