<?xml version="1.0" encoding="UTF-8" standalone="no"?>
<!DOCTYPE svg PUBLIC "-//W3C//DTD SVG 1.1//EN" "http://www.w3.org/Graphics/SVG/1.1/DTD/svg11.dtd">
<svg width="100%" height="100%" viewBox="0 0 512 512" version="1.1" xmlns="http://www.w3.org/2000/svg" xmlns:xlink="http://www.w3.org/1999/xlink" xml:space="preserve" xmlns:serif="http://www.serif.com/" style="fill-rule:evenodd;clip-rule:evenodd;stroke-linejoin:round;stroke-miterlimit:2;">
    <g id="KeyModernIcon" transform="matrix(3.89229,0,0,3.89229,-1083.12,-40.3882)">
        <g transform="matrix(1,0,0,1,190.674,-34.9397)">
            <path d="M153.37,47.394C170.612,47.394 184.61,61.392 184.61,78.633C184.61,95.875 170.612,109.872 153.37,109.872C136.129,109.872 122.131,95.875 122.131,78.633C122.131,61.392 136.129,47.394 153.37,47.394ZM153.37,56.605C158.999,56.605 163.569,61.175 163.569,66.804C163.569,72.433 158.999,77.003 153.37,77.003C147.742,77.003 143.172,72.433 143.172,66.804C143.172,61.175 147.742,56.605 153.37,56.605Z" style="fill:white;"/>
        </g>
        <g transform="matrix(1,0,0,0.932051,188.454,-27.1182)">
            <path d="M172.315,100.858L147.993,103.348C147.993,103.348 142.588,114.715 140.597,118.903C140.172,119.796 140.38,120.885 141.097,121.526C144.077,124.192 151.454,130.794 151.454,130.794C151.454,130.794 145.671,138.098 143.048,141.412C142.344,142.301 142.431,143.632 143.245,144.406C146.783,147.772 155.503,156.068 155.503,156.068C155.503,156.068 151.111,162.134 148.982,165.073C148.344,165.955 148.442,167.215 149.209,167.97C151.767,170.491 157.287,175.931 159.96,178.565C160.357,178.956 160.885,179.159 161.423,179.127C161.961,179.095 162.465,178.832 162.819,178.396C165.245,175.415 170.238,169.28 171.821,167.334C172.14,166.943 172.315,166.442 172.315,165.923L172.315,100.858Z" style="fill:white;"/>
        </g>
    </g>
</svg>
