<?xml version="1.0" encoding="UTF-8" standalone="no"?>
<!DOCTYPE svg PUBLIC "-//W3C//DTD SVG 1.1//EN" "http://www.w3.org/Graphics/SVG/1.1/DTD/svg11.dtd">
<svg width="100%" height="100%" viewBox="0 0 512 512" version="1.1" xmlns="http://www.w3.org/2000/svg" xmlns:xlink="http://www.w3.org/1999/xlink" xml:space="preserve" xmlns:serif="http://www.serif.com/" style="fill-rule:evenodd;clip-rule:evenodd;stroke-linejoin:round;stroke-miterlimit:2;">
    <g id="KnightHat2" transform="matrix(1.27989,0,0,1.02979,-6266.06,-564.811)">
        <g transform="matrix(4.77381,0,0,5.9332,-39936.6,-21594.1)">
            <path d="M9430.29,3750.09C9427.43,3750.38 9424.72,3751.08 9422.24,3752.1L9420.67,3748.96C9419.22,3746.07 9419.38,3742.65 9421.07,3739.9C9422.77,3737.16 9425.76,3735.49 9428.99,3735.49C9431.77,3735.49 9434.68,3735.49 9437.46,3735.49C9440.69,3735.49 9443.68,3737.16 9445.38,3739.9C9447.08,3742.65 9447.23,3746.07 9445.79,3748.96L9444.22,3752.1C9441.73,3751.08 9439.02,3750.38 9436.16,3750.09L9437.78,3744.1C9437.89,3743.71 9437.78,3743.29 9437.49,3742.97C9436.81,3742.21 9435.51,3740.74 9434.51,3739.63C9434.21,3739.29 9433.73,3739.09 9433.23,3739.09C9432.72,3739.09 9432.24,3739.29 9431.94,3739.63C9430.95,3740.74 9429.64,3742.21 9428.96,3742.97C9428.67,3743.29 9428.57,3743.71 9428.67,3744.1L9430.29,3750.09Z" style="fill:white;"/>
        </g>
        <g transform="matrix(4.36734,0,0,5.42802,-36353.9,-19692.5)">
            <path d="M9467.16,3768.45C9467.98,3759.6 9478.27,3751.03 9490.82,3751.03C9503.37,3751.03 9513.66,3759.6 9514.48,3768.45L9490.82,3755.6L9467.16,3768.45Z" style="fill:white;"/>
        </g>
        <g transform="matrix(0.924853,0,0,0.974571,3634.49,-2758.12)">
            <path d="M1563.17,3678.79L1529.6,3669.79C1512.13,3665.11 1494.14,3675.5 1489.46,3692.97C1484.78,3710.43 1495.17,3728.42 1512.64,3733.1L1544.72,3744.23L1544.72,3881.7L1433.35,3798.02L1461.58,3635.74L1580.03,3559.84L1698.51,3635.74L1726.74,3798.02L1615.37,3881.7L1615.37,3744.23L1647.45,3733.1C1664.92,3728.42 1675.3,3710.43 1670.62,3692.97C1665.94,3675.5 1647.96,3665.11 1630.49,3669.79L1596.92,3678.79L1596.92,3751.84C1596.92,3752.04 1596.88,3752.24 1596.79,3752.43C1595.57,3755.2 1584.93,3777.71 1581.35,3785.8C1581.12,3786.32 1580.61,3786.66 1580.04,3786.67C1579.48,3786.68 1578.95,3786.35 1578.71,3785.84C1574.85,3777.81 1564.68,3755.3 1563.31,3752.45C1563.22,3752.25 1563.17,3752.03 1563.17,3751.82L1563.17,3678.79Z" style="fill:white;"/>
        </g>
    </g>
</svg>
