<?xml version="1.0" encoding="UTF-8" standalone="no"?>
<!DOCTYPE svg PUBLIC "-//W3C//DTD SVG 1.1//EN" "http://www.w3.org/Graphics/SVG/1.1/DTD/svg11.dtd">
<svg width="100%" height="100%" viewBox="0 0 512 512" version="1.1" xmlns="http://www.w3.org/2000/svg" xmlns:xlink="http://www.w3.org/1999/xlink" xml:space="preserve" xmlns:serif="http://www.serif.com/" style="fill-rule:evenodd;clip-rule:evenodd;stroke-linejoin:round;stroke-miterlimit:2;">
    <g id="Knights-Hat-Icon" serif:id="Knights Hat Icon" transform="matrix(2.20884,0,0,2.20884,-510.872,-1024.47)">
        <path d="M357.468,497.662C386.701,502.566 409.007,528.015 409.007,558.632L409.007,568.884C410.837,615.169 429.412,630.627 429.412,630.627C417.856,663.586 385.524,687.338 347.489,687.338L347.197,687.337L347.197,683.836L347.183,683.836L347.17,683.836L347.17,687.337L346.877,687.338C308.842,687.338 276.511,663.586 264.954,630.627C264.954,630.627 283.375,619.101 285.36,568.879L285.36,558.632C285.36,526.309 310.22,499.746 341.847,497.037L349.561,472.064L357.468,497.662ZM297.892,571.696C300.987,566.702 339.648,582.448 337.63,590.597C335.278,600.099 320.023,605.447 312.842,602.735C302.242,598.732 294.969,576.411 297.892,571.696ZM396.475,571.696C393.379,566.702 354.718,582.448 356.736,590.597C359.089,600.099 374.343,605.447 381.524,602.735C392.124,598.732 399.397,576.411 396.475,571.696Z" style="fill:white;"/>
    </g>
</svg>
