<?xml version="1.0" encoding="UTF-8" standalone="no"?>
<!DOCTYPE svg PUBLIC "-//W3C//DTD SVG 1.1//EN" "http://www.w3.org/Graphics/SVG/1.1/DTD/svg11.dtd">
<svg width="100%" height="100%" viewBox="0 0 512 512" version="1.1" xmlns="http://www.w3.org/2000/svg" xmlns:xlink="http://www.w3.org/1999/xlink" xml:space="preserve" xmlns:serif="http://www.serif.com/" style="fill-rule:evenodd;clip-rule:evenodd;stroke-linejoin:round;stroke-miterlimit:2;">
    <g id="KnightHat" transform="matrix(1.05148,0,0,0.923436,38.5108,-2.77306)">
        <path d="M205.396,185.831L384.149,199.961L392.669,201.071L392.669,272.247L248.348,275.254L232.563,515.957L207.831,548.51L181.12,515.957L165.335,275.254L21.014,272.247L21.014,201.071L29.533,199.961L205.396,185.831ZM30.074,300.33L14.883,420.246L14.15,426.035L149.86,509.921L135.58,301.085L30.074,300.33ZM383.608,300.33L399.533,426.035L263.823,509.921L278.102,301.085L383.608,300.33ZM123.314,441.248C130.379,441.248 136.116,446.984 136.116,454.049C136.116,461.115 130.379,466.851 123.314,466.851C116.249,466.851 110.512,461.115 110.512,454.049C110.512,446.984 116.249,441.248 123.314,441.248ZM290.369,441.248C283.303,441.248 277.567,446.984 277.567,454.049C277.567,461.115 283.303,466.851 290.369,466.851C297.434,466.851 303.17,461.115 303.17,454.049C303.17,446.984 297.434,441.248 290.369,441.248ZM65.104,398.337C72.17,398.337 77.906,404.074 77.906,411.139C77.906,418.205 72.17,423.941 65.104,423.941C58.039,423.941 52.303,418.205 52.303,411.139C52.303,404.074 58.039,398.337 65.104,398.337ZM115.729,398.337C122.795,398.337 128.531,404.074 128.531,411.139C128.531,418.205 122.795,423.941 115.729,423.941C108.664,423.941 102.928,418.205 102.928,411.139C102.928,404.074 108.664,398.337 115.729,398.337ZM348.578,398.337C341.513,398.337 335.777,404.074 335.777,411.139C335.777,418.205 341.513,423.941 348.578,423.941C355.644,423.941 361.38,418.205 361.38,411.139C361.38,404.074 355.644,398.337 348.578,398.337ZM297.953,398.337C290.888,398.337 285.152,404.074 285.152,411.139C285.152,418.205 290.888,423.941 297.953,423.941C305.019,423.941 310.755,418.205 310.755,411.139C310.755,404.074 305.019,398.337 297.953,398.337ZM59.372,355.427C66.438,355.427 72.174,361.163 72.174,368.229C72.174,375.294 66.438,381.03 59.372,381.03C52.307,381.03 46.571,375.294 46.571,368.229C46.571,361.163 52.307,355.427 59.372,355.427ZM109.997,355.427C117.063,355.427 122.799,361.163 122.799,368.229C122.799,375.294 117.063,381.03 109.997,381.03C102.932,381.03 97.196,375.294 97.196,368.229C97.196,361.163 102.932,355.427 109.997,355.427ZM354.31,355.427C347.245,355.427 341.509,361.163 341.509,368.229C341.509,375.294 347.245,381.03 354.31,381.03C361.376,381.03 367.112,375.294 367.112,368.229C367.112,361.163 361.376,355.427 354.31,355.427ZM303.685,355.427C296.62,355.427 290.884,361.163 290.884,368.229C290.884,375.294 296.62,381.03 303.685,381.03C310.751,381.03 316.487,375.294 316.487,368.229C316.487,361.163 310.751,355.427 303.685,355.427ZM54.532,312.517C61.598,312.517 67.334,318.253 67.334,325.319C67.334,332.384 61.598,338.12 54.532,338.12C47.467,338.12 41.731,332.384 41.731,325.319C41.731,318.253 47.467,312.517 54.532,312.517ZM105.157,312.517C112.223,312.517 117.959,318.253 117.959,325.319C117.959,332.384 112.223,338.12 105.157,338.12C98.092,338.12 92.356,332.384 92.356,325.319C92.356,318.253 98.092,312.517 105.157,312.517ZM359.15,312.517C352.085,312.517 346.349,318.253 346.349,325.319C346.349,332.384 352.085,338.12 359.15,338.12C366.216,338.12 371.952,332.384 371.952,325.319C371.952,318.253 366.216,312.517 359.15,312.517ZM308.525,312.517C301.46,312.517 295.724,318.253 295.724,325.319C295.724,332.384 301.46,338.12 308.525,338.12C315.591,338.12 321.327,332.384 321.327,325.319C321.327,318.253 315.591,312.517 308.525,312.517ZM61.3,212.347L61.3,246.358L165.45,246.358L165.45,231.739L61.3,212.347ZM352.382,246.358L352.382,212.347L248.232,231.739L248.232,246.358L352.382,246.358ZM41.865,171.371C55.365,143.089 102.861,45.276 156.313,32.073L139.08,163.173L137.102,163.495L41.865,171.371ZM371.817,171.371C358.318,143.089 310.822,45.276 257.37,32.073L274.603,163.173L276.58,163.495L371.817,171.371ZM224.825,11.947L246.272,160.989L205.17,156.488L167.41,160.989L183.857,11.947L224.825,11.947Z" style="fill:white;"/>
    </g>
</svg>
