<?xml version="1.0" encoding="UTF-8" standalone="no"?>
<!DOCTYPE svg PUBLIC "-//W3C//DTD SVG 1.1//EN" "http://www.w3.org/Graphics/SVG/1.1/DTD/svg11.dtd">
<svg width="100%" height="100%" viewBox="0 0 512 512" version="1.1" xmlns="http://www.w3.org/2000/svg" xmlns:xlink="http://www.w3.org/1999/xlink" xml:space="preserve" xmlns:serif="http://www.serif.com/" style="fill-rule:evenodd;clip-rule:evenodd;stroke-linejoin:round;stroke-miterlimit:2;">
    <g id="LeaderboardSharpIcon" transform="matrix(6.06582,3.72507e-31,2.94399e-31,6.05588,-4989.44,-6837.9)">
        <g transform="matrix(0.766262,-5.44231e-32,-4.18669e-32,1.19372,205.061,-240.676)">
            <path d="M835.763,1171.33C835.763,1169.23 833.112,1167.52 829.847,1167.52L818.014,1167.52C814.748,1167.52 812.097,1169.23 812.097,1171.33L812.097,1209.91C812.097,1212.01 814.748,1213.71 818.014,1213.71L829.847,1213.71C833.112,1213.71 835.763,1212.01 835.763,1209.91L835.763,1171.33Z" style="fill:white;"/>
        </g>
        <g transform="matrix(0.766262,-4.14588e-32,-6.58189e-32,1.59116,233.407,-723.058)">
            <path d="M835.763,1170.38C835.763,1168.8 833.112,1167.52 829.847,1167.52L818.014,1167.52C814.748,1167.52 812.097,1168.8 812.097,1170.38L812.097,1210.86C812.097,1212.43 814.748,1213.71 818.014,1213.71L829.847,1213.71C833.112,1213.71 835.763,1212.43 835.763,1210.86L835.763,1170.38Z" style="fill:white;"/>
        </g>
        <g transform="matrix(0.766262,-3.37247e-32,-3.00453e-32,0.796204,261.753,241.793)">
            <path d="M835.763,1173.23C835.763,1170.08 833.112,1167.52 829.847,1167.52L818.014,1167.52C814.748,1167.52 812.097,1170.08 812.097,1173.23L812.097,1208.01C812.097,1211.15 814.748,1213.71 818.014,1213.71L829.847,1213.71C833.112,1213.71 835.763,1211.15 835.763,1208.01L835.763,1173.23Z" style="fill:white;"/>
        </g>
    </g>
</svg>
