<?xml version="1.0" encoding="UTF-8" standalone="no"?>
<!DOCTYPE svg PUBLIC "-//W3C//DTD SVG 1.1//EN" "http://www.w3.org/Graphics/SVG/1.1/DTD/svg11.dtd">
<svg width="100%" height="100%" viewBox="0 0 512 512" version="1.1" xmlns="http://www.w3.org/2000/svg" xmlns:xlink="http://www.w3.org/1999/xlink" xml:space="preserve" xmlns:serif="http://www.serif.com/" style="fill-rule:evenodd;clip-rule:evenodd;stroke-linejoin:round;stroke-miterlimit:2;">
    <g id="LeaderboardRoundIcon" transform="matrix(6.06582,3.72507e-31,2.94399e-31,6.05588,-4989.44,-6837.9)">
        <g transform="matrix(0.865756,-6.05432e-32,-3.97804e-32,1.19372,123.085,-240.676)">
            <path d="M835.763,1176.12C835.763,1171.37 830.461,1167.52 823.93,1167.52C817.399,1167.52 812.097,1171.37 812.097,1176.12L812.097,1205.11C812.097,1209.86 817.399,1213.71 823.93,1213.71C830.461,1213.71 835.763,1209.86 835.763,1205.11L835.763,1176.12Z" style="fill:white;"/>
        </g>
        <g transform="matrix(0.865756,-3.98447e-32,-2.89289e-32,0.796204,179.777,241.793)">
            <path d="M835.763,1180.41C835.763,1173.3 830.461,1167.52 823.93,1167.52C817.399,1167.52 812.097,1173.3 812.097,1180.41L812.097,1200.82C812.097,1207.93 817.399,1213.71 823.93,1213.71C830.461,1213.71 835.763,1207.93 835.763,1200.82L835.763,1180.41Z" style="fill:white;"/>
        </g>
        <g transform="matrix(0.865756,-4.75789e-32,-6.43378e-32,1.59116,151.431,-723.058)">
            <path d="M835.763,1173.97C835.763,1170.41 830.461,1167.52 823.93,1167.52C817.399,1167.52 812.097,1170.41 812.097,1173.97L812.097,1207.26C812.097,1210.82 817.399,1213.71 823.93,1213.71C830.461,1213.71 835.763,1210.82 835.763,1207.26L835.763,1173.97Z" style="fill:white;"/>
        </g>
    </g>
</svg>
