<?xml version="1.0" encoding="UTF-8" standalone="no"?>
<!DOCTYPE svg PUBLIC "-//W3C//DTD SVG 1.1//EN" "http://www.w3.org/Graphics/SVG/1.1/DTD/svg11.dtd">
<svg width="100%" height="100%" viewBox="0 0 512 512" version="1.1" xmlns="http://www.w3.org/2000/svg" xmlns:xlink="http://www.w3.org/1999/xlink" xml:space="preserve" xmlns:serif="http://www.serif.com/" style="fill-rule:evenodd;clip-rule:evenodd;stroke-linejoin:round;stroke-miterlimit:2;">
    <g id="LeavesIcon" transform="matrix(7.40902,0,0,7.40902,-8938.59,-1136.22)">
        <path d="M1260.21,167.725C1285.04,201.823 1258.52,217.743 1251.19,219.393C1258.81,205.552 1258.82,194.373 1257.45,188.045C1256.24,203.786 1249.94,216.663 1246.15,217.651C1239.21,200.514 1244.11,181.972 1260.21,167.725ZM1215.06,156.424C1231.89,161.328 1244.14,171.857 1247.53,176.843C1246.12,180.695 1243.11,187.9 1241.13,194.774C1237.94,189.155 1235.36,181.631 1225.43,172.194C1233.12,184.548 1239.82,199.314 1240.53,219.063C1233.7,218.047 1200.48,207.976 1215.06,156.424Z" style="fill:white;"/>
    </g>
</svg>
