<?xml version="1.0" encoding="UTF-8" standalone="no"?>
<!DOCTYPE svg PUBLIC "-//W3C//DTD SVG 1.1//EN" "http://www.w3.org/Graphics/SVG/1.1/DTD/svg11.dtd">
<svg width="100%" height="100%" viewBox="0 0 512 512" version="1.1" xmlns="http://www.w3.org/2000/svg" xmlns:xlink="http://www.w3.org/1999/xlink" xml:space="preserve" xmlns:serif="http://www.serif.com/" style="fill-rule:evenodd;clip-rule:evenodd;stroke-linejoin:round;stroke-miterlimit:2;">
    <g id="LeavesIcon" transform="matrix(5.30136,0,0,5.30136,-5226.49,-3178.16)">
        <g id="LeafIcon" transform="matrix(0.535484,-0.143482,0.136163,0.508166,-1331.31,1060.06)">
            <g transform="matrix(0.957992,0,0,0.443768,3578.12,-1027.01)">
                <path d="M736.263,3286.47L732.834,3286.47L732.834,3313.32C732.834,3315.47 733.602,3317.22 734.548,3317.22C735.495,3317.22 736.263,3315.47 736.263,3313.32L736.263,3286.47Z" style="fill:white;"/>
            </g>
            <g transform="matrix(1.74237,0.491965,-0.466868,1.83604,2817.02,-1290.98)">
                <path d="M1022.7,662.7C1021.7,663.164 1020.6,663.576 1019.4,663.933C1015.45,649.211 1010.05,631.12 1009.63,631.231C1009.22,631.342 1013.95,649.615 1017.89,664.338C991.319,670.699 993.086,629.606 1008.3,625.529C1013.35,624.176 1019.16,627.097 1023.7,631.887C1018.24,642.102 1016.61,653.927 1022.7,662.7Z" style="fill:white;"/>
            </g>
        </g>
        <g id="LeafIcon1" serif:id="LeafIcon" transform="matrix(0.717232,0.192182,-0.182378,0.680643,-1957.74,-442.911)">
            <g transform="matrix(0.957992,0,0,0.443768,3584.85,-1034.47)">
                <path d="M736.263,3286.47L732.834,3286.47L732.834,3313.32C732.834,3315.47 733.602,3317.22 734.548,3317.22C735.495,3317.22 736.263,3315.47 736.263,3313.32L736.263,3286.47Z" style="fill:white;"/>
            </g>
            <g transform="matrix(1.10763,0,0,1.16717,-6222.61,-4540.48)">
                <path d="M9488.5,4251.78C9444.02,4250.59 9464.12,4186.69 9489.77,4186.69C9515.42,4186.69 9535.52,4250.59 9491.05,4251.78C9491.04,4226.96 9490.17,4196.22 9489.47,4196.22C9488.77,4196.22 9488.5,4226.96 9488.5,4251.78Z" style="fill:white;"/>
            </g>
        </g>
    </g>
</svg>
