<?xml version="1.0" encoding="UTF-8" standalone="no"?>
<!DOCTYPE svg PUBLIC "-//W3C//DTD SVG 1.1//EN" "http://www.w3.org/Graphics/SVG/1.1/DTD/svg11.dtd">
<svg width="100%" height="100%" viewBox="0 0 512 512" version="1.1" xmlns="http://www.w3.org/2000/svg" xmlns:xlink="http://www.w3.org/1999/xlink" xml:space="preserve" xmlns:serif="http://www.serif.com/" style="fill-rule:evenodd;clip-rule:evenodd;stroke-linejoin:round;stroke-miterlimit:2;">
    <g id="LegsIcon" transform="matrix(5.62532,0,0,4.81239,-3277.38,-4497.36)">
        <path d="M618.931,968.038C618.822,972.569 618.678,974.925 618.49,977.541C618.05,983.659 614.268,1001.52 614.617,1004.79C614.827,1006.76 616.359,1007.95 615.927,1009.93C615.652,1011.19 614.603,1013.11 614.603,1013.11C614.603,1013.11 618.162,1017.86 617.525,1027.21C617.391,1029.18 612.705,1035.63 606.649,1035.6C600.756,1035.58 596.22,1029.18 596.075,1027.26C595.781,1023.37 601.95,1012.94 601.95,1012.94C601.95,1012.94 600.697,1011.19 600.421,1009.93C599.989,1007.95 601.521,1006.76 601.732,1004.79C602.08,1001.52 598.298,983.659 597.858,977.541C597.678,975.036 597.539,972.914 597.431,968.611L607.667,974.319L618.931,968.038ZM637.308,968.038C637.418,972.569 637.562,974.925 637.75,977.541C638.19,983.659 641.971,1001.52 641.623,1004.79C641.413,1006.76 639.881,1007.95 640.313,1009.93C640.588,1011.19 641.637,1013.11 641.637,1013.11C641.637,1013.11 638.078,1017.86 638.715,1027.21C638.849,1029.18 643.535,1035.63 649.591,1035.6C655.484,1035.58 660.019,1029.18 660.165,1027.26C660.459,1023.37 654.289,1012.94 654.289,1012.94C654.289,1012.94 655.543,1011.19 655.819,1009.93C656.25,1007.95 654.718,1006.76 654.508,1004.79C654.16,1001.52 657.942,983.659 658.381,977.541C658.561,975.036 658.701,972.914 658.809,968.611L648.573,974.319L637.308,968.038ZM607.667,964.944L618.543,958.88L618.543,964.148L607.667,970.082L596.79,964.148L596.79,958.88L607.667,964.944ZM648.573,964.944L637.697,958.88L637.697,964.148L648.573,970.082L659.449,964.148L659.449,958.88L648.573,964.944ZM607.667,939.868L619.755,945.802L619.755,955.16L607.667,961.094L595.578,955.16L595.578,945.802L607.667,939.868ZM648.573,939.868L636.484,945.802L636.484,955.16L648.573,961.094L660.662,955.16L660.662,945.802L648.573,939.868Z" style="fill:white;"/>
    </g>
</svg>
