<?xml version="1.0" encoding="UTF-8" standalone="no"?>
<!DOCTYPE svg PUBLIC "-//W3C//DTD SVG 1.1//EN" "http://www.w3.org/Graphics/SVG/1.1/DTD/svg11.dtd">
<svg width="100%" height="100%" viewBox="0 0 512 512" version="1.1" xmlns="http://www.w3.org/2000/svg" xmlns:xlink="http://www.w3.org/1999/xlink" xml:space="preserve" xmlns:serif="http://www.serif.com/" style="fill-rule:evenodd;clip-rule:evenodd;stroke-linejoin:round;stroke-miterlimit:2;">
    <g id="Lens---Zoom-In" serif:id="Lens - Zoom In" transform="matrix(1.93208,0,0,1.93208,0,0)">
        <g id="Lens" transform="matrix(10.9221,0,0,10.9221,-5568.75,-30864.3)">
            <path d="M533.544,2849.55C532.954,2850.14 531.997,2850.14 531.406,2849.55L526.77,2844.91C525.019,2846.22 522.854,2847 520.5,2847C514.701,2847 510,2842.3 510,2836.5C510,2830.7 514.701,2826 520.5,2826C526.299,2826 531,2830.7 531,2836.5C531,2838.85 530.216,2841.02 528.908,2842.77L533.544,2847.41C534.135,2848 534.135,2848.95 533.544,2849.55ZM520.5,2829C516.358,2829 513,2832.36 513,2836.5C513,2840.64 516.358,2844 520.5,2844C524.642,2844 528,2840.64 528,2836.5C528,2832.36 524.642,2829 520.5,2829Z" style="fill:white;"/>
        </g>
        <g transform="matrix(0.892857,0,0,1.12644,13.3214,-9.5977)">
            <path d="M129,79.097C129,72.972 122.727,68 115,68C107.273,68 101,72.972 101,79.097L101,143.903C101,150.028 107.273,155 115,155C122.727,155 129,150.028 129,143.903L129,79.097Z" style="fill:white;"/>
        </g>
        <g transform="matrix(5.46717e-17,0.892857,-1.12644,6.89744e-17,241.598,13.3214)">
            <path d="M129,79.097C129,72.972 122.727,68 115,68C107.273,68 101,72.972 101,79.097L101,143.903C101,150.028 107.273,155 115,155C122.727,155 129,150.028 129,143.903L129,79.097Z" style="fill:white;"/>
        </g>
    </g>
</svg>
