<?xml version="1.0" encoding="UTF-8" standalone="no"?>
<!DOCTYPE svg PUBLIC "-//W3C//DTD SVG 1.1//EN" "http://www.w3.org/Graphics/SVG/1.1/DTD/svg11.dtd">
<svg width="100%" height="100%" viewBox="0 0 512 512" version="1.1" xmlns="http://www.w3.org/2000/svg" xmlns:xlink="http://www.w3.org/1999/xlink" xml:space="preserve" xmlns:serif="http://www.serif.com/" style="fill-rule:evenodd;clip-rule:evenodd;stroke-linejoin:round;stroke-miterlimit:2;">
    <g id="Level" transform="matrix(2.70875,0,0,2.70875,-3638.77,-912.913)">
        <g>
            <g transform="matrix(0.970691,0,0,0.80098,1315.44,320.064)">
                <path d="M217.178,89.838C217.178,81.156 211.362,74.108 204.198,74.108L87.924,74.108C80.76,74.108 74.944,81.156 74.944,89.838C74.944,98.52 80.76,105.569 87.924,105.569L204.198,105.569C211.362,105.569 217.178,98.52 217.178,89.838Z" style="fill:rgb(21,170,191);"/>
            </g>
            <g transform="matrix(1.14032,0,0,1.14032,-260.504,-50.9371)">
                <circle cx="1422.89" cy="388.453" r="11.05" style="fill:rgb(21,170,191);"/>
            </g>
            <g transform="matrix(0.970691,0,0,0.80098,1315.44,317.025)">
                <path d="M217.178,89.838C217.178,81.156 211.362,74.108 204.198,74.108L87.924,74.108C80.76,74.108 74.944,81.156 74.944,89.838C74.944,98.52 80.76,105.569 87.924,105.569L204.198,105.569C211.362,105.569 217.178,98.52 217.178,89.838Z" style="fill:rgb(59,201,219);"/>
            </g>
            <g transform="matrix(1.14032,0,0,1.14032,-260.504,-53.9769)">
                <circle cx="1422.89" cy="388.453" r="11.05" style="fill:rgb(59,201,219);"/>
            </g>
        </g>
        <g transform="matrix(1,0,0,1,0,41.0286)">
            <g transform="matrix(0.970691,0,0,0.80098,1315.44,320.064)">
                <path d="M217.178,89.838C217.178,81.156 211.362,74.108 204.198,74.108L87.924,74.108C80.76,74.108 74.944,81.156 74.944,89.838C74.944,98.52 80.76,105.569 87.924,105.569L204.198,105.569C211.362,105.569 217.178,98.52 217.178,89.838Z" style="fill:rgb(21,170,191);"/>
            </g>
            <g transform="matrix(1.14032,0,0,1.14032,-260.504,-50.9371)">
                <circle cx="1422.89" cy="388.453" r="11.05" style="fill:rgb(21,170,191);"/>
            </g>
            <g transform="matrix(0.970691,0,0,0.80098,1315.44,317.025)">
                <path d="M217.178,89.838C217.178,81.156 211.362,74.108 204.198,74.108L87.924,74.108C80.76,74.108 74.944,81.156 74.944,89.838C74.944,98.52 80.76,105.569 87.924,105.569L204.198,105.569C211.362,105.569 217.178,98.52 217.178,89.838Z" style="fill:rgb(59,201,219);"/>
            </g>
            <g transform="matrix(1.14032,0,0,1.14032,-260.504,-53.9769)">
                <circle cx="1422.89" cy="388.453" r="11.05" style="fill:rgb(59,201,219);"/>
            </g>
        </g>
        <g transform="matrix(1,0,0,1,0,82.0572)">
            <g transform="matrix(0.970691,0,0,0.80098,1315.44,320.064)">
                <path d="M217.178,89.838C217.178,81.156 211.362,74.108 204.198,74.108L87.924,74.108C80.76,74.108 74.944,81.156 74.944,89.838C74.944,98.52 80.76,105.569 87.924,105.569L204.198,105.569C211.362,105.569 217.178,98.52 217.178,89.838Z" style="fill:rgb(21,170,191);"/>
            </g>
            <g transform="matrix(1.14032,0,0,1.14032,-260.504,-50.9371)">
                <circle cx="1422.89" cy="388.453" r="11.05" style="fill:rgb(21,170,191);"/>
            </g>
            <g transform="matrix(0.970691,0,0,0.80098,1315.44,317.025)">
                <path d="M217.178,89.838C217.178,81.156 211.362,74.108 204.198,74.108L87.924,74.108C80.76,74.108 74.944,81.156 74.944,89.838C74.944,98.52 80.76,105.569 87.924,105.569L204.198,105.569C211.362,105.569 217.178,98.52 217.178,89.838Z" style="fill:rgb(59,201,219);"/>
            </g>
            <g transform="matrix(1.14032,0,0,1.14032,-260.504,-53.9769)">
                <circle cx="1422.89" cy="388.453" r="11.05" style="fill:rgb(59,201,219);"/>
            </g>
        </g>
    </g>
</svg>
