<?xml version="1.0" encoding="UTF-8" standalone="no"?>
<!DOCTYPE svg PUBLIC "-//W3C//DTD SVG 1.1//EN" "http://www.w3.org/Graphics/SVG/1.1/DTD/svg11.dtd">
<svg width="100%" height="100%" viewBox="0 0 512 512" version="1.1" xmlns="http://www.w3.org/2000/svg" xmlns:xlink="http://www.w3.org/1999/xlink" xml:space="preserve" xmlns:serif="http://www.serif.com/" style="fill-rule:evenodd;clip-rule:evenodd;stroke-linejoin:round;stroke-miterlimit:2;">
    <g id="LifeGiftIcon" transform="matrix(7.18212,0,0,8.74605,6586.12,-54355.9)">
        <g transform="matrix(2.0566,0,0,1.68885,-4239.21,-3945.6)">
            <path d="M1630.98,6022.78C1632.7,6019.96 1636.14,6019.96 1637.86,6021.37C1639.58,6022.78 1639.58,6025.6 1637.86,6028.41C1636.66,6030.53 1633.56,6032.64 1630.98,6034.05C1628.4,6032.64 1625.31,6030.53 1624.1,6028.41C1622.38,6025.6 1622.38,6022.78 1624.1,6021.37C1625.82,6019.96 1629.26,6019.96 1630.98,6022.78Z" style="fill:white;"/>
        </g>
        <g transform="matrix(1.191,0,0,0.978031,-1209.54,125.495)">
            <path d="M272.614,6266.92L272.614,6267.89L286.827,6267.89C288.992,6267.89 290.75,6266.13 290.75,6263.97C290.75,6261.8 288.992,6260.04 286.827,6260.04L274.247,6260.04L285.128,6253.76C286.657,6252.88 288.615,6253.4 289.498,6254.93C289.75,6255.37 289.887,6255.84 289.919,6256.31L291.501,6255.4C293.03,6254.51 294.988,6255.04 295.871,6256.57C296.615,6257.86 296.36,6259.45 295.346,6260.45L298.603,6258.57C300.132,6257.68 302.09,6258.21 302.973,6259.74C303.856,6261.27 303.331,6263.22 301.802,6264.11L277.545,6278.11C277.41,6278.19 277.272,6278.26 277.131,6278.31C275.998,6279.06 274.494,6279.16 273.24,6278.43L260.641,6271.16L253.978,6272.94C252.088,6273.45 250.142,6272.33 249.636,6270.44L247.8,6263.59C247.294,6261.7 248.417,6259.75 250.307,6259.25L262.052,6256.1C262.943,6255.86 263.847,6255.98 264.606,6256.38C264.704,6256.42 264.8,6256.48 264.896,6256.53L272.614,6260.99L272.614,6261.01C272.659,6261.01 272.704,6261.01 272.749,6261.01L286.711,6261.01C288.345,6261.01 289.672,6262.33 289.672,6263.97C289.672,6265.6 288.345,6266.93 286.711,6266.93L272.749,6266.93C272.704,6266.93 272.659,6266.93 272.614,6266.92Z" style="fill:white;"/>
        </g>
    </g>
</svg>
