<?xml version="1.0" encoding="UTF-8" standalone="no"?>
<!DOCTYPE svg PUBLIC "-//W3C//DTD SVG 1.1//EN" "http://www.w3.org/Graphics/SVG/1.1/DTD/svg11.dtd">
<svg width="100%" height="100%" viewBox="0 0 512 512" version="1.1" xmlns="http://www.w3.org/2000/svg" xmlns:xlink="http://www.w3.org/1999/xlink" xml:space="preserve" xmlns:serif="http://www.serif.com/" style="fill-rule:evenodd;clip-rule:evenodd;stroke-linejoin:round;stroke-miterlimit:2;">
    <g id="LightBulbIcon" transform="matrix(4.90926,0,0,4.90926,-346.297,-279.445)">
        <g transform="matrix(1.53421,0,0,1.53421,-2913,-1634.89)">
            <path d="M1990.26,1157.73C1990.26,1157.07 1989.72,1156.54 1989.06,1156.54L1968.27,1156.54C1967.61,1156.54 1967.08,1157.07 1967.08,1157.73L1967.08,1160.13C1967.08,1160.79 1967.61,1161.32 1968.27,1161.32L1989.06,1161.32C1989.72,1161.32 1990.26,1160.79 1990.26,1160.13L1990.26,1157.73Z" style="fill:white;"/>
        </g>
        <g transform="matrix(1.53421,0,0,0.916835,-2912.42,-917.425)">
            <path d="M1983.08,1165.67L1973.51,1165.67L1973.51,1170.77C1973.51,1171.71 1973.96,1172.47 1974.52,1172.47L1982.06,1172.47C1982.62,1172.47 1983.08,1171.71 1983.08,1170.77L1983.08,1165.67Z" style="fill:white;"/>
        </g>
        <path d="M139.861,134.991L105.511,134.991L105.511,134.99C105.511,132.092 104.082,129.381 101.693,127.743C92.08,121.12 85.802,110.028 85.802,97.482C85.802,77.125 102.329,60.598 122.686,60.598C143.043,60.598 159.57,77.125 159.57,97.482C159.57,110.028 153.292,121.12 143.709,127.784C141.333,129.413 139.912,132.11 139.912,134.991L139.861,134.991ZM125.797,71.602C138.003,71.718 149.207,82.263 149.449,94.951C149.515,98.408 144.271,101.269 142.011,97.448C141.233,96.133 141.509,94.43 141.24,92.805C140.031,85.521 131.58,79.423 126.537,79.337C124.094,79.295 120.855,78.239 121.765,74.625C122.217,72.826 123.621,71.595 125.797,71.602Z" style="fill:white;"/>
    </g>
</svg>
