<?xml version="1.0" encoding="UTF-8" standalone="no"?>
<!DOCTYPE svg PUBLIC "-//W3C//DTD SVG 1.1//EN" "http://www.w3.org/Graphics/SVG/1.1/DTD/svg11.dtd">
<svg width="100%" height="100%" viewBox="0 0 512 512" version="1.1" xmlns="http://www.w3.org/2000/svg" xmlns:xlink="http://www.w3.org/1999/xlink" xml:space="preserve" xmlns:serif="http://www.serif.com/" style="fill-rule:evenodd;clip-rule:evenodd;stroke-linejoin:round;stroke-miterlimit:2;">
    <g id="LinkIcon" transform="matrix(19.9285,0,0,19.6926,-21007.4,-70794.7)">
        <path d="M1078.1,3604.04L1073.8,3608.34C1072.61,3609.53 1070.68,3609.53 1069.5,3608.34L1071.13,3606.71C1071.8,3606.89 1072.55,3606.72 1073.08,3606.19L1075.95,3603.32C1076.74,3602.53 1076.74,3601.24 1075.95,3600.45L1074.52,3599.02C1073.72,3598.22 1072.44,3598.22 1071.65,3599.02L1068.78,3601.89C1068.25,3602.42 1068.08,3603.16 1068.26,3603.84L1066.62,3605.47C1065.44,3604.28 1065.44,3602.36 1066.62,3601.17L1070.93,3596.87C1072.12,3595.68 1074.05,3595.68 1075.23,3596.87L1078.1,3599.73C1079.29,3600.92 1079.29,3602.85 1078.1,3604.04ZM1063.04,3611.93C1062.64,3611.53 1062.64,3610.89 1063.04,3610.49L1069.5,3604.04C1069.89,3603.64 1070.53,3603.64 1070.93,3604.04C1071.33,3604.43 1071.33,3605.08 1070.93,3605.47L1064.47,3611.93C1064.08,3612.33 1063.43,3612.33 1063.04,3611.93ZM1060.89,3609.78L1058.02,3612.65C1057.22,3613.44 1057.22,3614.72 1058.02,3615.52L1059.45,3616.95C1060.24,3617.74 1061.53,3617.74 1062.32,3616.95L1065.19,3614.08C1065.72,3613.55 1065.89,3612.8 1065.71,3612.13L1067.34,3610.49C1068.53,3611.68 1068.53,3613.61 1067.34,3614.8L1063.04,3619.1C1061.85,3620.29 1059.92,3620.29 1058.73,3619.1L1055.87,3616.23C1054.68,3615.05 1054.68,3613.12 1055.87,3611.93L1060.17,3607.63C1061.36,3606.44 1063.29,3606.44 1064.47,3607.63L1062.84,3609.26C1062.16,3609.08 1061.42,3609.25 1060.89,3609.78Z" style="fill:white;"/>
    </g>
</svg>
