<?xml version="1.0" encoding="UTF-8" standalone="no"?>
<!DOCTYPE svg PUBLIC "-//W3C//DTD SVG 1.1//EN" "http://www.w3.org/Graphics/SVG/1.1/DTD/svg11.dtd">
<svg width="100%" height="100%" viewBox="0 0 512 512" version="1.1" xmlns="http://www.w3.org/2000/svg" xmlns:xlink="http://www.w3.org/1999/xlink" xml:space="preserve" xmlns:serif="http://www.serif.com/" style="fill-rule:evenodd;clip-rule:evenodd;stroke-linejoin:round;stroke-miterlimit:2;">
    <g id="ListIcon" transform="matrix(8.68842,0,0,8.68842,-16014.5,-5679.83)">
        <path d="M1895.05,693.859C1897.56,693.859 1899.59,695.892 1899.59,698.397C1899.59,700.901 1897.56,702.934 1895.05,702.934L1850.28,702.934C1847.78,702.934 1845.74,700.901 1845.74,698.397C1845.74,695.892 1847.78,693.859 1850.28,693.859L1895.05,693.859ZM1895.05,678.651C1897.56,678.651 1899.59,680.685 1899.59,683.189C1899.59,685.693 1897.56,687.726 1895.05,687.726L1850.28,687.726C1847.78,687.726 1845.74,685.693 1845.74,683.189C1845.74,680.685 1847.78,678.651 1850.28,678.651L1895.05,678.651ZM1895.05,663.444C1897.56,663.444 1899.59,665.477 1899.59,667.981C1899.59,670.485 1897.56,672.519 1895.05,672.519L1850.28,672.519C1847.78,672.519 1845.74,670.485 1845.74,667.981C1845.74,665.477 1847.78,663.444 1850.28,663.444L1895.05,663.444Z" style="fill:white;"/>
    </g>
</svg>
