<?xml version="1.0" encoding="UTF-8" standalone="no"?>
<!DOCTYPE svg PUBLIC "-//W3C//DTD SVG 1.1//EN" "http://www.w3.org/Graphics/SVG/1.1/DTD/svg11.dtd">
<svg width="100%" height="100%" viewBox="0 0 512 512" version="1.1" xmlns="http://www.w3.org/2000/svg" xmlns:xlink="http://www.w3.org/1999/xlink" xml:space="preserve" xmlns:serif="http://www.serif.com/" style="fill-rule:evenodd;clip-rule:evenodd;stroke-linejoin:round;stroke-miterlimit:2;">
    <g id="List-Icon" serif:id="List Icon" transform="matrix(31.1899,0,0,31.1899,-7635.05,-52704.5)">
        <path d="M260,1701L250,1701C249.448,1701 249,1700.55 249,1700C249,1699.45 249.448,1699 250,1699L260,1699C260.552,1699 261,1699.45 261,1700C261,1700.55 260.552,1701 260,1701ZM260,1697L250,1697C249.448,1697 249,1696.55 249,1696C249,1695.45 249.448,1695 250,1695L260,1695C260.552,1695 261,1695.45 261,1696C261,1696.55 260.552,1697 260,1697ZM260,1693L250,1693C249.448,1693 249,1692.55 249,1692C249,1691.45 249.448,1691 250,1691L260,1691C260.552,1691 261,1691.45 261,1692C261,1692.55 260.552,1693 260,1693ZM246,1705C245.448,1705 245,1704.55 245,1704C245,1703.45 245.448,1703 246,1703C246.552,1703 247,1703.45 247,1704C247,1704.55 246.552,1705 246,1705ZM246,1701C245.448,1701 245,1700.55 245,1700C245,1699.45 245.448,1699 246,1699C246.552,1699 247,1699.45 247,1700C247,1700.55 246.552,1701 246,1701ZM246,1697C245.448,1697 245,1696.55 245,1696C245,1695.45 245.448,1695 246,1695C246.552,1695 247,1695.45 247,1696C247,1696.55 246.552,1697 246,1697ZM246,1693C245.448,1693 245,1692.55 245,1692C245,1691.45 245.448,1691 246,1691C246.552,1691 247,1691.45 247,1692C247,1692.55 246.552,1693 246,1693ZM250,1703L260,1703C260.552,1703 261,1703.45 261,1704C261,1704.55 260.552,1705 260,1705L250,1705C249.448,1705 249,1704.55 249,1704C249,1703.45 249.448,1703 250,1703Z" style="fill:white;"/>
    </g>
</svg>
