<?xml version="1.0" encoding="UTF-8" standalone="no"?>
<!DOCTYPE svg PUBLIC "-//W3C//DTD SVG 1.1//EN" "http://www.w3.org/Graphics/SVG/1.1/DTD/svg11.dtd">
<svg width="100%" height="100%" viewBox="0 0 512 512" version="1.1" xmlns="http://www.w3.org/2000/svg" xmlns:xlink="http://www.w3.org/1999/xlink" xml:space="preserve" xmlns:serif="http://www.serif.com/" style="fill-rule:evenodd;clip-rule:evenodd;stroke-linejoin:round;stroke-miterlimit:2;">
    <g id="LockSciFiIcon" transform="matrix(7.70453,0,0,7.70453,-118124,-25683.3)">
        <path d="M15381.3,3335.49L15396.3,3350.49L15396.3,3383.03L15381.3,3398.03L15348.8,3398.03L15333.8,3383.03L15333.8,3350.49L15348.8,3335.49L15381.3,3335.49ZM15368.3,3372.84C15372.3,3371.46 15375.1,3367.74 15375.1,3363.36C15375.1,3357.82 15370.6,3353.32 15365,3353.32C15359.5,3353.32 15355,3357.82 15355,3363.36C15355,3367.74 15357.8,3371.46 15361.7,3372.84L15361.7,3382.22L15365,3385.54L15368.3,3382.22L15368.3,3372.84Z" style="fill:white;"/>
    </g>
</svg>
