<?xml version="1.0" encoding="UTF-8" standalone="no"?>
<!DOCTYPE svg PUBLIC "-//W3C//DTD SVG 1.1//EN" "http://www.w3.org/Graphics/SVG/1.1/DTD/svg11.dtd">
<svg width="100%" height="100%" viewBox="0 0 512 512" version="1.1" xmlns="http://www.w3.org/2000/svg" xmlns:xlink="http://www.w3.org/1999/xlink" xml:space="preserve" xmlns:serif="http://www.serif.com/" style="fill-rule:evenodd;clip-rule:evenodd;stroke-linejoin:round;stroke-miterlimit:2;">
    <g id="LockOpenedIcon" transform="matrix(12.3428,0,0,11.7131,-62629.5,-480.511)">
        <g transform="matrix(0.957992,0,0,1.00949,1615.5,-27.2022)">
            <path d="M3642.85,106.487L3621.17,106.487C3619.56,106.487 3618.25,105.177 3618.25,103.563L3618.25,89.619C3618.25,88.005 3619.56,86.695 3621.17,86.695L3642.85,86.695C3644.47,86.695 3645.78,88.005 3645.78,89.619L3645.78,103.563C3645.78,105.177 3644.47,106.487 3642.85,106.487ZM3632.01,93.35C3633.8,93.35 3635.25,94.802 3635.25,96.591C3635.25,98.38 3633.8,99.832 3632.01,99.832C3630.22,99.832 3628.77,98.38 3628.77,96.591C3628.77,94.802 3630.22,93.35 3632.01,93.35Z" style="fill:white;"/>
        </g>
        <g transform="matrix(0.286768,0.523397,-0.496696,0.302184,5320.07,-707.257)">
            <path d="M881.736,981.1C880.769,981.1 879.976,980.335 879.94,979.369C879.749,974.453 879.631,969.593 880.969,965.64C883.141,959.224 889.625,954.576 896.541,954.622C904.897,954.777 912.382,961.907 912.55,970.632C912.571,974.087 912.852,977.666 912.86,981.1L906.15,981.1C906.272,977.283 906.423,973.459 905.996,969.723C905.454,964.994 901.232,961.082 896.208,961.114C891.206,961.209 886.707,965.539 886.608,970.714C886.59,973.568 886.421,976.457 886.379,979.319C886.37,980.305 885.568,981.1 884.582,981.1C883.691,981.1 882.618,981.1 881.736,981.1Z" style="fill:white;"/>
        </g>
    </g>
</svg>
