<?xml version="1.0" encoding="UTF-8" standalone="no"?>
<!DOCTYPE svg PUBLIC "-//W3C//DTD SVG 1.1//EN" "http://www.w3.org/Graphics/SVG/1.1/DTD/svg11.dtd">
<svg width="100%" height="100%" viewBox="0 0 512 512" version="1.1" xmlns="http://www.w3.org/2000/svg" xmlns:xlink="http://www.w3.org/1999/xlink" xml:space="preserve" xmlns:serif="http://www.serif.com/" style="fill-rule:evenodd;clip-rule:evenodd;stroke-linejoin:round;stroke-miterlimit:2;">
    <g id="LockClassicIcon" transform="matrix(10.2457,0,0,10.2457,-163462,-37004.5)">
        <path d="M15970.1,3612.7L15988.2,3612.7C15989.1,3617.99 15991.7,3621.16 15996.8,3621.25C15999.3,3657.17 15979.2,3660.69 15979.2,3660.69C15979.2,3660.69 15959.4,3657.33 15961.5,3621.25C15966.6,3621.16 15969.2,3617.99 15970.1,3612.7ZM15981.8,3638.06C15984.5,3637.02 15986.5,3634.35 15986.5,3631.23C15986.5,3627.2 15983.2,3623.92 15979.2,3623.92C15975.1,3623.92 15971.9,3627.2 15971.9,3631.23C15971.9,3634.35 15973.8,3637.02 15976.6,3638.06L15976.6,3645.55L15979.2,3648.12L15981.8,3645.55L15981.8,3638.06Z" style="fill:white;"/>
    </g>
</svg>
