<?xml version="1.0" encoding="UTF-8" standalone="no"?>
<!DOCTYPE svg PUBLIC "-//W3C//DTD SVG 1.1//EN" "http://www.w3.org/Graphics/SVG/1.1/DTD/svg11.dtd">
<svg width="100%" height="100%" viewBox="0 0 512 512" version="1.1" xmlns="http://www.w3.org/2000/svg" xmlns:xlink="http://www.w3.org/1999/xlink" xml:space="preserve" xmlns:serif="http://www.serif.com/" style="fill-rule:evenodd;clip-rule:evenodd;stroke-linejoin:round;stroke-miterlimit:2;">
    <g id="Lock-2" serif:id="Lock 2" transform="matrix(1.12601,0,0,1.12601,-31.4103,-32.2125)">
        <g id="Lock-Icon" serif:id="Lock Icon" transform="matrix(1.45458,0,0,1.45458,-117.126,-116.372)">
            <path d="M359.422,402.006L152.58,402.006C142.5,402.006 134.329,393.837 134.329,383.755L134.329,237.752C134.329,227.67 142.5,219.501 152.58,219.501L182.999,219.501L182.999,183.002C182.999,142.681 215.683,109.994 256,109.994C296.32,109.994 329.004,142.681 329.004,183.002L329.004,219.501L359.422,219.501C369.501,219.501 377.671,227.67 377.671,237.752L377.671,383.755C377.671,393.837 369.501,402.006 359.422,402.006ZM265.179,319.202C274.208,315.562 280.589,306.713 280.589,296.386C280.589,282.815 269.571,271.797 256,271.797C242.429,271.797 231.411,282.815 231.411,296.386C231.411,306.713 237.792,315.562 246.821,319.202L246.821,347.803C246.821,352.868 250.934,356.981 256,356.981C261.066,356.981 265.179,352.868 265.179,347.803L265.179,319.202ZM304.67,183.002C304.67,156.123 282.879,134.33 256,134.33C229.123,134.33 207.333,156.123 207.333,183.002L207.333,219.501L304.67,219.501L304.67,183.002Z" style="fill:white;"/>
        </g>
        <g transform="matrix(1,0,0,1,-1.0276,0)">
            <path d="M149.98,218.729L149.98,149.833C149.98,91.168 197.609,43.54 256.274,43.54C314.938,43.54 362.567,91.168 362.567,149.833L362.567,218.729L326.567,218.729L326.567,149.833C326.567,111.037 295.07,79.54 256.274,79.54C217.478,79.54 185.98,111.037 185.98,149.833L185.98,218.729L149.98,218.729Z" style="fill:white;"/>
        </g>
    </g>
</svg>
