<?xml version="1.0" encoding="UTF-8" standalone="no"?>
<!DOCTYPE svg PUBLIC "-//W3C//DTD SVG 1.1//EN" "http://www.w3.org/Graphics/SVG/1.1/DTD/svg11.dtd">
<svg width="100%" height="100%" viewBox="0 0 512 512" version="1.1" xmlns="http://www.w3.org/2000/svg" xmlns:xlink="http://www.w3.org/1999/xlink" xml:space="preserve" xmlns:serif="http://www.serif.com/" style="fill-rule:evenodd;clip-rule:evenodd;stroke-linejoin:round;stroke-miterlimit:2;">
    <g id="Lock-Sharp" serif:id="Lock Sharp" transform="matrix(2,0,0,2,0,0)">
        <path d="M132.746,197.02C131.182,197.151 129.599,197.218 128,197.218C126.401,197.218 124.818,197.151 123.254,197.02L132.746,197.02ZM71.864,105.576L71.864,57.457C71.864,26.474 97.018,1.321 128,1.321C158.982,1.321 184.136,26.474 184.136,57.457L184.136,105.576L164.136,105.576L164.136,57.457C164.136,37.513 147.944,21.321 128,21.321C108.056,21.321 91.864,37.513 91.864,57.457L91.864,105.576L71.864,105.576Z" style="fill:white;"/>
        <path d="M221.876,109.287C221.876,102.748 216.567,97.44 210.029,97.44L44.234,97.44C37.695,97.44 32.387,102.748 32.387,109.287L32.387,228.293C32.387,234.832 37.695,240.14 44.234,240.14L210.029,240.14C216.567,240.14 221.876,234.832 221.876,228.293L221.876,109.287ZM136.575,172.63C142.896,169.249 147.202,162.583 147.202,154.919C147.202,143.842 138.208,134.849 127.131,134.849C116.054,134.849 107.061,143.842 107.061,154.919C107.061,162.583 111.366,169.249 117.688,172.63L117.688,194.172C117.688,199.384 121.919,203.615 127.131,203.615C132.343,203.615 136.575,199.384 136.575,194.172L136.575,172.63Z" style="fill:white;"/>
    </g>
</svg>
