<?xml version="1.0" encoding="UTF-8" standalone="no"?>
<!DOCTYPE svg PUBLIC "-//W3C//DTD SVG 1.1//EN" "http://www.w3.org/Graphics/SVG/1.1/DTD/svg11.dtd">
<svg width="100%" height="100%" viewBox="0 0 512 512" version="1.1" xmlns="http://www.w3.org/2000/svg" xmlns:xlink="http://www.w3.org/1999/xlink" xml:space="preserve" xmlns:serif="http://www.serif.com/" style="fill-rule:evenodd;clip-rule:evenodd;stroke-linejoin:round;stroke-miterlimit:2;">
    <g id="LockPolygonIcon" transform="matrix(17.4458,0,0,16.5558,-88629.4,-736.978)">
        <g transform="matrix(0.458478,0,0,0.432687,-903.762,-1847.08)">
            <path d="M13101.6,4405.38L13066.3,4405.38L13074.2,4373.65L13093.7,4373.65C13096.3,4384.23 13099,4394.81 13101.6,4405.38ZM13079.1,4380.91L13073.7,4402.73L13094.2,4402.73L13088.7,4380.91L13079.1,4380.91Z" style="fill:white;"/>
        </g>
        <g transform="matrix(0.559215,0,0,0.589277,-2224.66,-2536.2)">
            <path d="M13101.4,4430.54L13076.7,4430.54L13069.1,4407.12L13089.1,4392.65L13109,4407.12L13101.4,4430.54ZM13090.9,4416.92L13094.1,4415.09L13094.1,4409.31L13089.1,4406.41L13084,4409.31L13084,4415.09L13087.2,4416.92L13087.2,4422.24L13089.1,4424.08L13090.9,4422.24L13090.9,4416.92Z" style="fill:white;"/>
        </g>
    </g>
</svg>
