<?xml version="1.0" encoding="UTF-8" standalone="no"?>
<!DOCTYPE svg PUBLIC "-//W3C//DTD SVG 1.1//EN" "http://www.w3.org/Graphics/SVG/1.1/DTD/svg11.dtd">
<svg width="100%" height="100%" viewBox="0 0 512 512" version="1.1" xmlns="http://www.w3.org/2000/svg" xmlns:xlink="http://www.w3.org/1999/xlink" xml:space="preserve" xmlns:serif="http://www.serif.com/" style="fill-rule:evenodd;clip-rule:evenodd;stroke-linejoin:round;stroke-miterlimit:2;">
    <g transform="matrix(4.53643,0,0,4.305,-21442.1,-2120.09)">
        <g id="MagicalBookIcon">
            <g>
                <g transform="matrix(1.40063,0,0,1.47593,-8508.61,-5907.54)">
                    <path d="M9515.16,4414.52L9470.58,4414.52C9464.52,4414.52 9459.61,4409.61 9459.61,4403.56L9459.61,4349.45C9459.61,4343.45 9464.48,4338.58 9470.48,4338.58L9508.86,4338.58C9511.94,4338.58 9514.44,4341.08 9514.44,4344.16L9514.44,4354.75L9515.16,4354.75C9517.79,4354.75 9519.93,4356.9 9519.93,4359.53L9519.93,4409.74C9519.93,4412.38 9517.79,4414.52 9515.16,4414.52ZM9499.93,4394.63C9503.31,4394.62 9506.06,4391.88 9506.06,4388.49L9506.06,4376.23C9506.06,4372.84 9503.31,4370.1 9499.93,4370.1L9483.32,4370.1C9479.93,4370.1 9477.18,4372.84 9477.18,4376.23L9477.18,4388.49C9477.18,4391.88 9479.93,4394.63 9483.32,4394.63L9483.76,4394.63L9483.76,4399.13C9483.76,4400.2 9484.64,4401.08 9485.71,4401.08C9486.78,4401.08 9487.66,4400.2 9487.66,4399.13L9487.66,4398.16L9489.63,4398.16L9489.63,4399.13C9489.63,4400.2 9490.51,4401.08 9491.58,4401.08C9492.65,4401.08 9493.53,4400.2 9493.53,4399.13L9493.53,4398.16L9495.59,4398.16L9495.59,4399.13C9495.59,4400.2 9496.46,4401.08 9497.53,4401.08C9498.61,4401.08 9499.48,4400.2 9499.48,4399.13L9499.48,4394.63L9499.93,4394.63ZM9485.45,4381.24C9487.76,4381.24 9489.64,4383.11 9489.64,4385.43C9489.64,4387.73 9487.76,4389.61 9485.45,4389.61C9483.14,4389.61 9481.26,4387.73 9481.26,4385.43C9481.26,4383.11 9483.14,4381.24 9485.45,4381.24ZM9497.79,4381.24C9500.1,4381.24 9501.98,4383.11 9501.98,4385.43C9501.98,4387.73 9500.1,4389.61 9497.79,4389.61C9495.48,4389.61 9493.61,4387.73 9493.61,4385.43C9493.61,4383.11 9495.48,4381.24 9497.79,4381.24ZM9508.92,4343.49L9470.27,4343.49C9467.17,4343.49 9464.65,4346.01 9464.65,4349.11C9464.65,4352.21 9467.17,4354.73 9470.27,4354.73L9508.92,4354.73L9508.92,4343.49Z" style="fill:white;"/>
                </g>
            </g>
        </g>
    </g>
</svg>
