<?xml version="1.0" encoding="UTF-8" standalone="no"?>
<!DOCTYPE svg PUBLIC "-//W3C//DTD SVG 1.1//EN" "http://www.w3.org/Graphics/SVG/1.1/DTD/svg11.dtd">
<svg width="100%" height="100%" viewBox="0 0 512 512" version="1.1" xmlns="http://www.w3.org/2000/svg" xmlns:xlink="http://www.w3.org/1999/xlink" xml:space="preserve" xmlns:serif="http://www.serif.com/" style="fill-rule:evenodd;clip-rule:evenodd;stroke-linejoin:round;stroke-miterlimit:2;">
    <g id="MagicStickIcon" transform="matrix(6.66188,0,0,6.66188,-12920.8,-2315.62)">
        <path d="M1982.9,389.631L1953.41,418.769C1951.92,420.239 1949.7,420.433 1948.45,419.2L1943.94,414.735C1942.69,413.503 1942.88,411.308 1944.37,409.838L1973.86,380.7L1982.9,389.631ZM1999.83,391.109L2000.32,396.322L2004.64,399.347L1999.37,399.831L1996.31,404.103L1995.82,398.891L1991.5,395.865L1996.77,395.381L1999.83,391.109ZM1976.24,378.611L1980.15,374.745C1982.64,372.285 1986.69,372.288 1989.18,374.753C1991.68,377.217 1991.68,381.216 1989.19,383.676L1985.28,387.542L1976.24,378.611ZM2007.96,362.867L2008.45,368.079L2012.77,371.105L2007.5,371.589L2004.44,375.861L2003.95,370.649L1999.62,367.623L2004.9,367.139L2007.96,362.867ZM1965.81,352.03L1968.98,360.484L1977.53,363.613L1968.98,366.741L1965.81,375.195L1962.65,366.741L1954.09,363.613L1962.65,360.484L1965.81,352.03Z" style="fill:white;"/>
    </g>
</svg>
