<?xml version="1.0" encoding="UTF-8" standalone="no"?>
<!DOCTYPE svg PUBLIC "-//W3C//DTD SVG 1.1//EN" "http://www.w3.org/Graphics/SVG/1.1/DTD/svg11.dtd">
<svg width="100%" height="100%" viewBox="0 0 512 512" version="1.1" xmlns="http://www.w3.org/2000/svg" xmlns:xlink="http://www.w3.org/1999/xlink" xml:space="preserve" xmlns:serif="http://www.serif.com/" style="fill-rule:evenodd;clip-rule:evenodd;stroke-linejoin:round;stroke-miterlimit:2;">
    <g transform="matrix(1.40856,-1.40856,1.40856,1.40856,-209.889,240.519)">
        <path d="M205.977,122.533C224.028,106.329 228.008,84.803 221.188,66.111C215.717,51.116 201.924,37.282 178.953,29.875C146.741,21.14 122.568,32.994 108.588,52.608C93.367,73.962 90.697,104.331 101.754,123.731C104.661,128.778 108.588,133.529 113.677,137.699C119.796,142.715 127.444,147.208 134.251,152.46C138.58,155.8 143.047,159.02 144.599,164.226C146.271,169.823 147.796,189.644 149.282,213.806C152.493,266.029 155.04,336.915 155.04,336.915C154.993,339.1 156.729,340.913 158.915,340.96C161.1,341.007 162.913,339.271 162.96,337.085C162.96,337.085 168.558,266.117 171.134,213.671C172.467,186.532 172.589,164.222 171.401,157.774C169.765,148.927 165.069,141.602 159.212,134.915C154.054,129.025 147.596,123.938 141.638,118.829C137.688,115.442 133.986,112.208 132.246,108.269C128.096,98.992 132.303,85.864 139.907,76.665C145.701,69.657 155.049,66.276 167.047,70.125C175.446,72.389 181.675,75.634 183.953,80.917C185.985,85.629 184.394,90.991 180.023,95.467C172.554,102.629 172.305,114.507 179.467,121.977C186.629,129.446 198.507,129.695 205.977,122.533Z" style="fill:white;"/>
        <g transform="matrix(1.13333,6.29126e-17,-6.29126e-17,1.13333,-0.702067,-6.0708)">
            <path d="M67,109L69.906,121.094L82,124L69.906,126.906L67,139L64.094,126.906L52,124L64.094,121.094L67,109Z" style="fill:white;"/>
        </g>
        <g transform="matrix(0.839829,0.761007,-0.761007,0.839829,287.749,-41.7557)">
            <path d="M67,109L69.906,121.094L82,124L69.906,126.906L67,139L64.094,126.906L52,124L64.094,121.094L67,109Z" style="fill:white;"/>
        </g>
        <g transform="matrix(0.9613,-0.275503,0.275503,0.9613,99.6637,135.181)">
            <path d="M67,109L69.906,121.094L82,124L69.906,126.906L67,139L64.094,126.906L52,124L64.094,121.094L67,109Z" style="fill:white;"/>
        </g>
        <g transform="matrix(1.4742,-0.276996,0.276996,1.4742,77.956,5.18425)">
            <path d="M67,109L69.906,121.094L82,124L69.906,126.906L67,139L64.094,126.906L52,124L64.094,121.094L67,109Z" style="fill:white;"/>
        </g>
        <g transform="matrix(1.19599,0.661357,-0.661357,1.19599,118.89,5.29771)">
            <path d="M67,109L69.906,121.094L82,124L69.906,126.906L67,139L64.094,126.906L52,124L64.094,121.094L67,109Z" style="fill:white;"/>
        </g>
    </g>
</svg>
