<?xml version="1.0" encoding="UTF-8" standalone="no"?>
<!DOCTYPE svg PUBLIC "-//W3C//DTD SVG 1.1//EN" "http://www.w3.org/Graphics/SVG/1.1/DTD/svg11.dtd">
<svg width="100%" height="100%" viewBox="0 0 512 512" version="1.1" xmlns="http://www.w3.org/2000/svg" xmlns:xlink="http://www.w3.org/1999/xlink" xml:space="preserve" xmlns:serif="http://www.serif.com/" style="fill-rule:evenodd;clip-rule:evenodd;stroke-linejoin:round;stroke-miterlimit:2;">
    <g id="MagicStickIcon" transform="matrix(2.54449,0,0,2.54449,-10103.6,-1119.47)">
        <g transform="matrix(1,0,0,1,-46.6223,66.8768)">
            <path d="M4055,415.128L4061.21,431.907L4077.99,438.116L4061.21,444.324L4055,461.103L4048.79,444.324L4032.01,438.116L4048.79,431.907L4055,415.128Z" style="fill:white;"/>
        </g>
        <g transform="matrix(0.592365,0,0,0.592365,1678.19,200.435)">
            <path d="M4055,415.128L4061.21,431.907L4077.99,438.116L4061.21,444.324L4055,461.103L4048.79,444.324L4032.01,438.116L4048.79,431.907L4055,415.128Z" style="fill:white;"/>
        </g>
        <g transform="matrix(0.592365,0,0,0.592365,1741.76,258.375)">
            <path d="M4055,415.128L4061.21,431.907L4077.99,438.116L4061.21,444.324L4055,461.103L4048.79,444.324L4032.01,438.116L4048.79,431.907L4055,415.128Z" style="fill:white;"/>
        </g>
        <g transform="matrix(1.14513,0,0,-1.14513,-591.671,1246.6)">
            <circle cx="4079.81" cy="638.742" r="25.907" style="fill:white;"/>
        </g>
        <g transform="matrix(2.57986,0,0,2.57986,-7396.3,-8708.15)">
            <path d="M4442.97,3590.05C4444.65,3590.89 4446.54,3591.36 4448.54,3591.36C4450.51,3591.36 4452.38,3590.9 4454.05,3590.08L4452.71,3602.94L4444.31,3602.94L4442.97,3590.05Z" style="fill:white;"/>
        </g>
        <g transform="matrix(0.428164,-7.84741e-17,-3.07953e-17,0.414112,2333.25,368.784)">
            <path d="M4088.81,629.135L4071.52,629.135L4061.52,504.798L4098.81,504.798L4088.81,629.135Z" style="fill:white;"/>
        </g>
        <g transform="matrix(0.352846,2.30199e-18,-1.8137e-18,-0.263191,2639.41,758.691)">
            <path d="M4109.82,506.14C4109.82,486.608 4097.99,470.75 4083.43,470.75C4068.86,470.75 4057.03,486.608 4057.03,506.14L4057.03,514.636L4109.82,514.636L4109.82,506.14Z" style="fill:white;"/>
        </g>
        <g transform="matrix(1.34977,1.34977,0.608503,-0.608503,-1765.74,-4670.01)">
            <path d="M4086.29,527.358L4112.38,542.916L4086.29,558.474L4060.21,542.916L4086.29,527.358Z" style="fill:white;"/>
        </g>
        <g transform="matrix(-1.34977,1.34977,-0.608503,-0.608503,9926.07,-4670.01)">
            <path d="M4086.29,527.358L4112.38,542.916L4086.29,558.474L4060.21,542.916L4086.29,527.358Z" style="fill:white;"/>
        </g>
    </g>
</svg>
