<?xml version="1.0" encoding="UTF-8" standalone="no"?>
<!DOCTYPE svg PUBLIC "-//W3C//DTD SVG 1.1//EN" "http://www.w3.org/Graphics/SVG/1.1/DTD/svg11.dtd">
<svg width="100%" height="100%" viewBox="0 0 512 512" version="1.1" xmlns="http://www.w3.org/2000/svg" xmlns:xlink="http://www.w3.org/1999/xlink" xml:space="preserve" xmlns:serif="http://www.serif.com/" style="fill-rule:evenodd;clip-rule:evenodd;stroke-linejoin:round;stroke-miterlimit:2;">
    <g id="MagnetIcon" transform="matrix(20.8181,0,0,20.8181,-5805.17,699.77)">
        <g transform="matrix(1,0,0,1,-18.7062,-77.0907)">
            <path d="M298.89,59.82C298.876,59.82 298.866,59.81 298.866,59.796C298.866,59.433 298.866,55.072 298.866,55.072C298.866,49.006 303.79,44.082 309.855,44.082C315.921,44.082 320.845,49.006 320.845,55.072L320.845,59.796C320.845,59.81 320.835,59.82 320.821,59.82C320.386,59.82 314.172,59.82 313.737,59.82C313.724,59.82 313.713,59.81 313.713,59.796C313.713,59.412 313.713,54.555 313.713,54.555C313.713,52.426 311.984,50.697 309.855,50.697C307.726,50.697 305.998,52.426 305.998,54.555L305.998,59.796C305.998,59.81 305.987,59.82 305.974,59.82C305.539,59.82 299.325,59.82 298.89,59.82Z" style="fill:white;"/>
        </g>
        <g transform="matrix(1.00911,0,0,1,-6.62936,-78.0876)">
            <path d="M305.973,63.534C305.973,63.232 305.73,62.986 305.43,62.986L299.464,62.986C299.165,62.986 298.922,63.232 298.922,63.534L298.922,67.916C298.922,68.218 299.165,68.463 299.464,68.463L305.43,68.463C305.73,68.463 305.973,68.218 305.973,67.916L305.973,63.534Z" style="fill:white;"/>
        </g>
        <g transform="matrix(1.00911,0,0,1,-21.4635,-78.0876)">
            <path d="M305.973,63.534C305.973,63.232 305.73,62.986 305.43,62.986L299.464,62.986C299.165,62.986 298.922,63.232 298.922,63.534L298.922,67.916C298.922,68.218 299.165,68.463 299.464,68.463L305.43,68.463C305.73,68.463 305.973,68.218 305.973,67.916L305.973,63.534Z" style="fill:white;"/>
        </g>
    </g>
</svg>
