<?xml version="1.0" encoding="UTF-8" standalone="no"?>
<!DOCTYPE svg PUBLIC "-//W3C//DTD SVG 1.1//EN" "http://www.w3.org/Graphics/SVG/1.1/DTD/svg11.dtd">
<svg width="100%" height="100%" viewBox="0 0 512 512" version="1.1" xmlns="http://www.w3.org/2000/svg" xmlns:xlink="http://www.w3.org/1999/xlink" xml:space="preserve" xmlns:serif="http://www.serif.com/" style="fill-rule:evenodd;clip-rule:evenodd;stroke-linejoin:round;stroke-miterlimit:2;">
    <g id="Mail-2" serif:id="Mail 2" transform="matrix(3.44259,0,0,3.52663,-202.554,-205.762)">
        <path d="M199.787,92.809C199.787,87.796 195.618,83.726 190.483,83.726L75.918,83.726C70.783,83.726 66.614,87.796 66.614,92.809L66.614,169.062C66.614,174.075 70.783,178.145 75.918,178.145L190.483,178.145C195.618,178.145 199.787,174.075 199.787,169.062L199.787,92.809Z" style="fill:rgb(205,211,221);"/>
        <clipPath id="_clip1">
            <path d="M199.787,92.809C199.787,87.796 195.618,83.726 190.483,83.726L75.918,83.726C70.783,83.726 66.614,87.796 66.614,92.809L66.614,169.062C66.614,174.075 70.783,178.145 75.918,178.145L190.483,178.145C195.618,178.145 199.787,174.075 199.787,169.062L199.787,92.809Z"/>
        </clipPath>
        <g clip-path="url(#_clip1)">
            <g transform="matrix(1.02581,-2.08629e-19,-1.70666e-19,1.25229,-10.4049,-84.3753)">
                <path d="M128.353,163.692C135.043,157.922 144.942,157.922 151.632,163.692C170.311,179.8 204.904,209.633 204.904,209.633L75.081,209.633C75.081,209.633 109.674,179.8 128.353,163.692Z" style="fill:rgb(151,164,182);"/>
            </g>
            <g transform="matrix(1.02581,-1.66598e-19,-1.70666e-19,1,-10.4049,-31.4879)">
                <path d="M128.353,163.692C135.043,157.922 144.942,157.922 151.632,163.692C170.311,179.8 204.904,209.633 204.904,209.633L75.081,209.633C75.081,209.633 109.674,179.8 128.353,163.692Z" style="fill:rgb(219,228,238);"/>
            </g>
            <g transform="matrix(1.02581,-2.79529e-17,2.86353e-17,-1.22961,-10.4049,341.211)">
                <path d="M128.353,163.692C135.043,157.922 144.942,157.922 151.632,163.692C170.311,179.8 204.904,209.633 204.904,209.633L75.081,209.633C75.081,209.633 109.674,179.8 128.353,163.692Z" style="fill:rgb(151,164,182);"/>
            </g>
            <g transform="matrix(1.02581,1.66598e-19,-1.70666e-19,-1,-10.4049,293.076)">
                <path d="M128.353,163.692C135.043,157.922 144.942,157.922 151.632,163.692C170.311,179.8 204.904,209.633 204.904,209.633L75.081,209.633C75.081,209.633 109.674,179.8 128.353,163.692Z" style="fill:white;"/>
            </g>
        </g>
    </g>
</svg>
