<?xml version="1.0" encoding="UTF-8" standalone="no"?>
<!DOCTYPE svg PUBLIC "-//W3C//DTD SVG 1.1//EN" "http://www.w3.org/Graphics/SVG/1.1/DTD/svg11.dtd">
<svg width="100%" height="100%" viewBox="0 0 512 512" version="1.1" xmlns="http://www.w3.org/2000/svg" xmlns:xlink="http://www.w3.org/1999/xlink" xml:space="preserve" xmlns:serif="http://www.serif.com/" style="fill-rule:evenodd;clip-rule:evenodd;stroke-linejoin:round;stroke-miterlimit:2;">
    <g id="ManageUnitsIcon" transform="matrix(5.54419,0,0,5.54419,-6624.34,-1884.17)">
        <path d="M1271.73,410.434L1273.01,408.244L1266.36,404.451L1282.73,399.192L1286.3,415.83L1279.65,412.037L1278.38,414.227C1274.26,421.265 1264.2,423.204 1257.4,419.78C1262.72,418.532 1268.68,415.656 1271.73,410.434ZM1249.09,389.288C1257.71,393.146 1262.74,400.073 1263.32,406.006C1263.97,412.53 1256.22,415.097 1236.17,415.521C1235.51,415.535 1234.85,415.54 1234.2,415.535C1233.55,415.54 1232.9,415.535 1232.24,415.521C1212.19,415.097 1204.44,412.53 1205.08,406.006C1205.66,400.105 1210.64,393.221 1219.18,389.351C1222.83,394.705 1228.32,398.059 1234.11,398.059C1239.93,398.059 1245.43,394.678 1249.09,389.288ZM1234.32,393.866C1226.28,393.866 1219,385.46 1219,374.621C1219,364.529 1222.74,357.182 1234.32,357.164C1245.91,357.146 1249.65,364.529 1249.65,374.621C1249.65,385.46 1242.37,393.866 1234.32,393.866ZM1253.39,376.331C1254.75,377.085 1256.23,377.502 1257.76,377.502C1260.99,377.502 1264.04,375.627 1266.07,372.635C1270.86,374.77 1273.66,378.62 1273.98,381.917C1274.34,385.54 1270.04,386.966 1258.9,387.202C1258.53,387.21 1258.17,387.212 1257.81,387.21C1257.45,387.212 1257.08,387.21 1256.72,387.202C1254.35,387.152 1252.29,387.048 1250.52,386.881C1252.12,383.791 1253.16,380.208 1253.39,376.331ZM1211.19,363.618L1210.53,366.06L1217.94,368.023L1203.51,377.291L1195.7,362.133L1203.11,364.097L1203.78,361.654C1205.9,353.804 1215.12,349.357 1222.58,350.926C1217.77,353.491 1212.77,357.793 1211.19,363.618ZM1249.9,360.194C1250.86,356.913 1253.24,354.793 1257.88,354.786C1264.31,354.775 1266.39,358.877 1266.39,364.483C1266.39,370.504 1262.34,375.173 1257.88,375.173C1256.29,375.173 1254.75,374.584 1253.44,373.554C1253.32,368.289 1252.28,363.679 1249.9,360.194Z" style="fill:white;"/>
    </g>
</svg>
