<?xml version="1.0" encoding="UTF-8" standalone="no"?>
<!DOCTYPE svg PUBLIC "-//W3C//DTD SVG 1.1//EN" "http://www.w3.org/Graphics/SVG/1.1/DTD/svg11.dtd">
<svg width="100%" height="100%" viewBox="0 0 512 512" version="1.1" xmlns="http://www.w3.org/2000/svg" xmlns:xlink="http://www.w3.org/1999/xlink" xml:space="preserve" xmlns:serif="http://www.serif.com/" style="fill-rule:evenodd;clip-rule:evenodd;stroke-linejoin:round;stroke-miterlimit:2;">
    <g id="Map-Pin" serif:id="Map Pin" transform="matrix(20.9253,0,0,20.9253,-19800.9,-56820.9)">
        <path d="M966.498,2727.42C965.093,2732.14 961.464,2736.69 959.616,2738.79C959.333,2739.11 958.927,2739.29 958.5,2739.29C958.073,2739.29 957.667,2739.11 957.384,2738.79C955.541,2736.69 951.925,2732.16 950.513,2727.45C950.187,2726.54 950,2725.52 950,2724.5C950,2719.78 953.806,2716 958.5,2716C963.194,2716 967,2719.78 967,2724.5C967,2725.51 966.817,2726.52 966.498,2727.42ZM958.5,2721C956.567,2721 955,2722.57 955,2724.5C955,2726.43 956.567,2728 958.5,2728C960.433,2728 962,2726.43 962,2724.5C962,2722.57 960.433,2721 958.5,2721Z" style="fill:rgb(250,82,91);"/>
        <clipPath id="_clip1">
            <path d="M966.498,2727.42C965.093,2732.14 961.464,2736.69 959.616,2738.79C959.333,2739.11 958.927,2739.29 958.5,2739.29C958.073,2739.29 957.667,2739.11 957.384,2738.79C955.541,2736.69 951.925,2732.16 950.513,2727.45C950.187,2726.54 950,2725.52 950,2724.5C950,2719.78 953.806,2716 958.5,2716C963.194,2716 967,2719.78 967,2724.5C967,2725.51 966.817,2726.52 966.498,2727.42ZM958.5,2721C956.567,2721 955,2722.57 955,2724.5C955,2726.43 956.567,2728 958.5,2728C960.433,2728 962,2726.43 962,2724.5C962,2722.57 960.433,2721 958.5,2721Z"/>
        </clipPath>
        <g clip-path="url(#_clip1)">
            <g transform="matrix(0.11137,0,0,0.241267,944.245,2708.97)">
                <rect x="127.428" y="20.131" width="140.323" height="115.347" style="fill:rgb(226,62,79);"/>
            </g>
        </g>
    </g>
</svg>
