<?xml version="1.0" encoding="UTF-8" standalone="no"?>
<!DOCTYPE svg PUBLIC "-//W3C//DTD SVG 1.1//EN" "http://www.w3.org/Graphics/SVG/1.1/DTD/svg11.dtd">
<svg width="100%" height="100%" viewBox="0 0 512 512" version="1.1" xmlns="http://www.w3.org/2000/svg" xmlns:xlink="http://www.w3.org/1999/xlink" xml:space="preserve" xmlns:serif="http://www.serif.com/" style="fill-rule:evenodd;clip-rule:evenodd;stroke-linejoin:round;stroke-miterlimit:2;">
    <g transform="matrix(5.80273,0,0,5.80273,-54901.5,-17426.6)">
        <g id="MapIcon">
            <path id="MapIcon1" serif:id="MapIcon" d="M9489.92,3080.16L9465.2,3088.36C9464.9,3088.46 9464.56,3088.41 9464.3,3088.22C9464.04,3088.03 9463.89,3087.73 9463.89,3087.41C9463.89,3077.92 9463.89,3022.71 9463.89,3015.74C9463.89,3015.31 9464.16,3014.93 9464.57,3014.79L9489.92,3006.39L9489.92,3053.44C9489.9,3053.46 9489.88,3053.49 9489.86,3053.51L9489.14,3054.64C9488.94,3054.95 9489.03,3055.36 9489.34,3055.56L9489.92,3055.93L9489.92,3080.16ZM9493.29,3054.92L9493.29,3006.38L9517.65,3014.46L9517.65,3046.14C9517.36,3045.95 9516.97,3046.01 9516.75,3046.29L9512.63,3051.58C9512.41,3051.87 9512.46,3052.29 9512.75,3052.52L9513.81,3053.34C9514.1,3053.57 9514.52,3053.52 9514.75,3053.23L9517.65,3049.5L9517.65,3088.23L9493.29,3080.15L9493.29,3058.1L9494.98,3059.18C9495.29,3059.39 9495.7,3059.29 9495.91,3058.98L9496.63,3057.86C9496.83,3057.55 9496.74,3057.13 9496.43,3056.93L9493.29,3054.92ZM9521.03,3040.78L9521.03,3014.42L9545.69,3006.24C9546,3006.14 9546.33,3006.19 9546.59,3006.38C9546.85,3006.57 9547.01,3006.87 9547.01,3007.19C9547.01,3016.68 9547.01,3071.89 9547.01,3078.85C9547.01,3079.28 9546.73,3079.67 9546.32,3079.8L9521.03,3088.19L9521.03,3045.01C9521.13,3044.97 9521.21,3044.9 9521.28,3044.81L9525.4,3039.52C9525.63,3039.23 9525.58,3038.81 9525.28,3038.58L9524.23,3037.76C9523.93,3037.53 9523.51,3037.58 9523.29,3037.87L9521.03,3040.78ZM9505.61,3063.64C9505.81,3063.33 9505.72,3062.91 9505.41,3062.71L9499.77,3059.09C9499.45,3058.89 9499.04,3058.98 9498.84,3059.29L9498.12,3060.42C9497.92,3060.73 9498.01,3061.14 9498.32,3061.35L9503.96,3064.97C9504.27,3065.17 9504.68,3065.08 9504.88,3064.76L9505.61,3063.64ZM9506.2,3060.96C9505.91,3060.73 9505.86,3060.31 9506.08,3060.02L9510.2,3054.73C9510.43,3054.43 9510.85,3054.38 9511.14,3054.61L9512.2,3055.43C9512.49,3055.66 9512.54,3056.08 9512.32,3056.37L9508.2,3061.66C9507.97,3061.95 9507.55,3062.01 9507.26,3061.78L9506.2,3060.96ZM9487.67,3052.09C9487.87,3051.78 9487.78,3051.36 9487.47,3051.16L9481.83,3047.54C9481.51,3047.34 9481.1,3047.43 9480.9,3047.74L9480.18,3048.87C9479.98,3049.18 9480.07,3049.6 9480.38,3049.8L9486.02,3053.42C9486.33,3053.62 9486.74,3053.53 9486.94,3053.21L9487.67,3052.09ZM9476.27,3040.65C9478.59,3040.65 9480.47,3042.53 9480.47,3044.85C9480.47,3047.17 9478.59,3049.05 9476.27,3049.05C9473.95,3049.05 9472.06,3047.17 9472.06,3044.85C9472.06,3042.53 9473.95,3040.65 9476.27,3040.65ZM9525.78,3035.71C9525.49,3035.49 9525.44,3035.07 9525.66,3034.77L9529.78,3029.49C9530.01,3029.19 9530.43,3029.14 9530.72,3029.37L9531.78,3030.19C9532.07,3030.42 9532.12,3030.84 9531.9,3031.13L9527.78,3036.42C9527.55,3036.71 9527.13,3036.76 9526.84,3036.54L9525.78,3035.71ZM9535.6,3021.79L9533.57,3019.75C9533.27,3019.46 9532.8,3019.46 9532.51,3019.75L9531.45,3020.81C9531.15,3021.11 9531.15,3021.58 9531.45,3021.88L9533.48,3023.91L9531.45,3025.94C9531.15,3026.24 9531.15,3026.71 9531.45,3027L9532.51,3028.06C9532.8,3028.36 9533.27,3028.36 9533.57,3028.06L9535.6,3026.03L9537.64,3028.06C9537.93,3028.36 9538.4,3028.36 9538.7,3028.06L9539.76,3027C9540.05,3026.71 9540.05,3026.24 9539.76,3025.94L9537.72,3023.91L9539.76,3021.88C9540.05,3021.58 9540.05,3021.11 9539.76,3020.81L9538.7,3019.75C9538.4,3019.46 9537.93,3019.46 9537.64,3019.75L9535.6,3021.79Z" style="fill:white;"/>
        </g>
    </g>
</svg>
