<?xml version="1.0" encoding="UTF-8" standalone="no"?>
<!DOCTYPE svg PUBLIC "-//W3C//DTD SVG 1.1//EN" "http://www.w3.org/Graphics/SVG/1.1/DTD/svg11.dtd">
<svg width="100%" height="100%" viewBox="0 0 512 512" version="1.1" xmlns="http://www.w3.org/2000/svg" xmlns:xlink="http://www.w3.org/1999/xlink" xml:space="preserve" xmlns:serif="http://www.serif.com/" style="fill-rule:evenodd;clip-rule:evenodd;stroke-linejoin:round;stroke-miterlimit:2;">
    <g id="MapIcon" transform="matrix(7.3187,0,0,7.3187,-17615.3,-1771.81)">
        <g transform="matrix(0.392891,0,0,0.392891,2209.53,52.0803)">
            <path d="M675.988,545.743C671.56,549.314 665.162,551.559 658.051,551.559C651.202,551.559 645.014,549.476 640.612,546.131L640.612,641.196C642.025,646.338 649.3,650.26 658.051,650.26C666.802,650.26 674.583,646.353 675.997,641.211L675.988,545.743Z" style="fill:white;"/>
        </g>
        <g transform="matrix(1,0,0,1,238.284,-64.6187)">
            <path d="M2220.35,361.173L2188.14,361.173L2184.29,355.533L2180.26,361.173L2176.86,361.174C2173.22,361.083 2170.34,359.132 2170.34,356.79C2170.34,356.514 2170.34,320.039 2170.34,320.039C2172.09,321.337 2174.52,322.183 2177.27,322.183C2177.35,322.183 2178.41,322.189 2178.41,322.189L2208.3,322.189L2211.91,327.526L2215.69,322.189L2230.08,322.189C2233.83,322.314 2236.74,324.182 2236.74,326.464C2236.74,328.826 2233.62,330.743 2229.79,330.743C2226.35,330.743 2223.49,329.204 2222.94,327.186L2222.94,325.551C2222.94,324.84 2222.36,324.262 2221.65,324.262C2220.94,324.262 2220.36,324.84 2220.36,325.551L2220.35,361.173ZM2192.9,349.921C2193.71,349.921 2194.37,350.577 2194.37,351.386C2194.37,352.195 2193.71,352.851 2192.9,352.851C2192.09,352.851 2191.44,352.195 2191.44,351.386C2191.44,350.577 2192.09,349.921 2192.9,349.921ZM2204.97,349.818C2205.78,349.818 2206.43,350.475 2206.43,351.284C2206.43,352.092 2205.78,352.749 2204.97,352.749C2204.16,352.749 2203.5,352.092 2203.5,351.284C2203.5,350.475 2204.16,349.818 2204.97,349.818ZM2198.93,349.818C2199.74,349.818 2200.4,350.475 2200.4,351.284C2200.4,352.092 2199.74,352.749 2198.93,352.749C2198.13,352.749 2197.47,352.092 2197.47,351.284C2197.47,350.475 2198.13,349.818 2198.93,349.818ZM2211,349.818C2211.81,349.818 2212.46,350.475 2212.46,351.284C2212.46,352.092 2211.81,352.749 2211,352.749C2210.19,352.749 2209.53,352.092 2209.53,351.284C2209.53,350.475 2210.19,349.818 2211,349.818ZM2217.03,349.818C2217.84,349.818 2218.5,350.475 2218.5,351.284C2218.5,352.092 2217.84,352.749 2217.03,352.749C2216.22,352.749 2215.57,352.092 2215.57,351.284C2215.57,350.475 2216.22,349.818 2217.03,349.818ZM2187.24,349.1C2188.05,349.1 2188.7,349.756 2188.7,350.565C2188.7,351.374 2188.05,352.03 2187.24,352.03C2186.43,352.03 2185.77,351.374 2185.77,350.565C2185.77,349.756 2186.43,349.1 2187.24,349.1ZM2182.75,345.88C2183.56,345.88 2184.21,346.536 2184.21,347.345C2184.21,348.154 2183.56,348.81 2182.75,348.81C2181.94,348.81 2181.28,348.154 2181.28,347.345C2181.28,346.536 2181.94,345.88 2182.75,345.88ZM2181.85,340.51C2182.66,340.51 2183.32,341.167 2183.32,341.975C2183.32,342.784 2182.66,343.441 2181.85,343.441C2181.04,343.441 2180.39,342.784 2180.39,341.975C2180.39,341.167 2181.04,340.51 2181.85,340.51ZM2196.65,332.226L2199.12,329.755C2199.74,329.135 2200.75,329.135 2201.37,329.755C2201.99,330.376 2201.99,331.382 2201.37,332.003L2198.9,334.474L2201.37,336.945C2201.99,337.565 2201.99,338.572 2201.37,339.192C2200.75,339.812 2199.74,339.812 2199.12,339.192L2196.65,336.721L2194.18,339.192C2193.56,339.812 2192.55,339.812 2191.93,339.192C2191.31,338.572 2191.31,337.565 2191.93,336.945L2194.4,334.474L2191.93,332.003C2191.31,331.382 2191.31,330.376 2191.93,329.755C2192.55,329.135 2193.56,329.135 2194.18,329.755L2196.65,332.226ZM2183.96,335.913C2184.77,335.913 2185.43,336.57 2185.43,337.378C2185.43,338.187 2184.77,338.844 2183.96,338.844C2183.15,338.844 2182.5,338.187 2182.5,337.378C2182.5,336.57 2183.15,335.913 2183.96,335.913ZM2188.54,333.5C2189.35,333.5 2190.01,334.156 2190.01,334.965C2190.01,335.774 2189.35,336.43 2188.54,336.43C2187.73,336.43 2187.08,335.774 2187.08,334.965C2187.08,334.156 2187.73,333.5 2188.54,333.5Z" style="fill:white;"/>
        </g>
        <g transform="matrix(0.392891,0,0,0.392891,2209.53,52.0803)">
            <path d="M542.611,516.456L542.611,506.409C542.624,506.235 542.631,506.059 542.631,505.883C542.631,505.706 542.624,505.53 542.611,505.355L542.611,505.312L542.607,505.312C542.12,499.6 534.366,495.053 524.885,495.053C515.09,495.053 507.138,499.906 507.138,505.883C507.138,511.734 514.76,516.266 524.271,516.453L542.611,516.456Z" style="fill:white;"/>
        </g>
    </g>
</svg>
