<?xml version="1.0" encoding="UTF-8" standalone="no"?>
<!DOCTYPE svg PUBLIC "-//W3C//DTD SVG 1.1//EN" "http://www.w3.org/Graphics/SVG/1.1/DTD/svg11.dtd">
<svg width="100%" height="100%" viewBox="0 0 512 512" version="1.1" xmlns="http://www.w3.org/2000/svg" xmlns:xlink="http://www.w3.org/1999/xlink" xml:space="preserve" xmlns:serif="http://www.serif.com/" style="fill-rule:evenodd;clip-rule:evenodd;stroke-linejoin:round;stroke-miterlimit:2;">
    <g id="MeatIcon" transform="matrix(3.94744,0,0,3.74606,-16721.9,-6732.02)">
        <g transform="matrix(1.51784,0,0,1.59944,-10103,-4652.62)">
            <path d="M9485.55,4096.59C9486.88,4096.79 9488.29,4096.89 9489.77,4096.89C9491.26,4096.89 9492.66,4096.79 9494,4096.59L9494,4107.2L9485.55,4107.2L9485.55,4096.59Z" style="fill:white;"/>
        </g>
        <g transform="matrix(1,0,0,1,-1.1382,4.54747e-13)">
            <g transform="matrix(0.73285,0,0,0.772246,3567.74,-1745.89)">
                <circle cx="992.703" cy="4747.37" r="11.049" style="fill:white;"/>
            </g>
            <g transform="matrix(0.73285,0,0,0.772246,3581.53,-1745.89)">
                <circle cx="992.703" cy="4747.37" r="11.049" style="fill:white;"/>
            </g>
        </g>
        <g transform="matrix(1.51784,0,0,1.59944,-10103,-4652.62)">
            <path d="M9514.15,4069.99C9511.3,4081.52 9505.21,4094.03 9489.77,4094.03C9474.33,4094.03 9468.24,4081.52 9465.4,4069.99C9471.09,4075.27 9479.9,4078.66 9489.77,4078.66C9499.65,4078.66 9508.45,4075.27 9514.15,4069.99Z" style="fill:white;"/>
        </g>
        <g transform="matrix(1.73152,0,0,1.8246,-12032.8,-5570.21)">
            <path d="M9433.23,4040.5C9446.17,4040.5 9456.68,4048.22 9456.68,4057.72C9456.68,4067.23 9446.17,4074.95 9433.23,4074.95C9420.28,4074.95 9409.77,4067.23 9409.77,4057.72C9409.77,4048.22 9420.28,4040.5 9433.23,4040.5ZM9433.23,4050.55C9437.9,4050.55 9441.7,4053.25 9441.7,4056.58C9441.7,4059.91 9437.9,4062.61 9433.23,4062.61C9428.55,4062.61 9424.75,4059.91 9424.75,4056.58C9424.75,4053.25 9428.55,4050.55 9433.23,4050.55Z" style="fill:white;"/>
        </g>
    </g>
</svg>
