<?xml version="1.0" encoding="UTF-8" standalone="no"?>
<!DOCTYPE svg PUBLIC "-//W3C//DTD SVG 1.1//EN" "http://www.w3.org/Graphics/SVG/1.1/DTD/svg11.dtd">
<svg width="100%" height="100%" viewBox="0 0 512 512" version="1.1" xmlns="http://www.w3.org/2000/svg" xmlns:xlink="http://www.w3.org/1999/xlink" xml:space="preserve" xmlns:serif="http://www.serif.com/" style="fill-rule:evenodd;clip-rule:evenodd;stroke-linejoin:round;stroke-miterlimit:2;">
    <g id="MenuIcon" transform="matrix(8.38394,0,0,8.38394,-448.233,-7611.63)">
        <g>
            <g transform="matrix(1.02027,0,0,0.94488,-1.93157,50.9375)">
                <path d="M110.235,923.132C110.235,920.801 108.482,918.909 106.324,918.909L75.791,918.909C73.632,918.909 71.879,920.801 71.879,923.132L71.879,923.152C71.879,925.483 73.632,927.375 75.791,927.375L106.324,927.375C108.482,927.375 110.235,925.483 110.235,923.152L110.235,923.132Z" style="fill:white;"/>
            </g>
            <g transform="matrix(0.863359,0,0,0.863359,8.39759,126.146)">
                <circle cx="61.457" cy="923.196" r="4.633" style="fill:white;"/>
            </g>
        </g>
        <g transform="matrix(1,0,0,1,0,15.2216)">
            <g transform="matrix(1.02027,0,0,0.94488,-1.93157,50.9375)">
                <path d="M110.235,923.132C110.235,920.801 108.482,918.909 106.324,918.909L75.791,918.909C73.632,918.909 71.879,920.801 71.879,923.132L71.879,923.152C71.879,925.483 73.632,927.375 75.791,927.375L106.324,927.375C108.482,927.375 110.235,925.483 110.235,923.152L110.235,923.132Z" style="fill:white;"/>
            </g>
            <g transform="matrix(0.863359,0,0,0.863359,8.39759,126.146)">
                <circle cx="61.457" cy="923.196" r="4.633" style="fill:white;"/>
            </g>
        </g>
        <g transform="matrix(1,0,0,1,0,30.4431)">
            <g transform="matrix(1.02027,0,0,0.94488,-1.93157,50.9375)">
                <path d="M110.235,923.132C110.235,920.801 108.482,918.909 106.324,918.909L75.791,918.909C73.632,918.909 71.879,920.801 71.879,923.132L71.879,923.152C71.879,925.483 73.632,927.375 75.791,927.375L106.324,927.375C108.482,927.375 110.235,925.483 110.235,923.152L110.235,923.132Z" style="fill:white;"/>
            </g>
            <g transform="matrix(0.863359,0,0,0.863359,8.39759,126.146)">
                <circle cx="61.457" cy="923.196" r="4.633" style="fill:white;"/>
            </g>
        </g>
    </g>
</svg>
