<?xml version="1.0" encoding="UTF-8" standalone="no"?>
<!DOCTYPE svg PUBLIC "-//W3C//DTD SVG 1.1//EN" "http://www.w3.org/Graphics/SVG/1.1/DTD/svg11.dtd">
<svg width="100%" height="100%" viewBox="0 0 512 512" version="1.1" xmlns="http://www.w3.org/2000/svg" xmlns:xlink="http://www.w3.org/1999/xlink" xml:space="preserve" xmlns:serif="http://www.serif.com/" style="fill-rule:evenodd;clip-rule:evenodd;stroke-linejoin:round;stroke-miterlimit:2;">
    <g id="MenuIconIcon" transform="matrix(19.8694,0,0,19.6342,-3628.48,-72734.3)">
        <path d="M205.5,3729L198.5,3729C197.672,3729 197,3728.33 197,3727.5L197,3720.5C197,3719.67 197.672,3719 198.5,3719L205.5,3719C206.328,3719 207,3719.67 207,3720.5L207,3727.5C207,3728.33 206.328,3729 205.5,3729ZM205.5,3716L198.5,3716C197.672,3716 197,3715.33 197,3714.5L197,3707.5C197,3706.67 197.672,3706 198.5,3706L205.5,3706C206.328,3706 207,3706.67 207,3707.5L207,3714.5C207,3715.33 206.328,3716 205.5,3716ZM192.5,3729L185.5,3729C184.672,3729 184,3728.33 184,3727.5L184,3720.5C184,3719.67 184.672,3719 185.5,3719L192.5,3719C193.328,3719 194,3719.67 194,3720.5L194,3727.5C194,3728.33 193.328,3729 192.5,3729ZM192.5,3716L185.5,3716C184.672,3716 184,3715.33 184,3714.5L184,3707.5C184,3706.67 184.672,3706 185.5,3706L192.5,3706C193.328,3706 194,3706.67 194,3707.5L194,3714.5C194,3715.33 193.328,3716 192.5,3716Z" style="fill:white;"/>
    </g>
</svg>
