<?xml version="1.0" encoding="UTF-8" standalone="no"?>
<!DOCTYPE svg PUBLIC "-//W3C//DTD SVG 1.1//EN" "http://www.w3.org/Graphics/SVG/1.1/DTD/svg11.dtd">
<svg width="100%" height="100%" viewBox="0 0 512 512" version="1.1" xmlns="http://www.w3.org/2000/svg" xmlns:xlink="http://www.w3.org/1999/xlink" xml:space="preserve" xmlns:serif="http://www.serif.com/" style="fill-rule:evenodd;clip-rule:evenodd;stroke-linejoin:round;stroke-miterlimit:2;">
    <g id="MicrophoneMuteIcon" transform="matrix(7.82212,0,0,7.82212,-15245,-7855.2)">
        <g transform="matrix(0.356011,0,0,0.355754,1944.54,1001.14)">
            <path d="M109.212,152.146C109.212,149.559 107.113,147.459 104.529,147.459L95.162,147.459C92.577,147.459 90.479,149.559 90.479,152.146L90.479,183.915C90.479,186.501 92.577,188.601 95.162,188.601L104.529,188.601C107.113,188.601 109.212,186.501 109.212,183.915L109.212,152.146Z" style="fill:white;"/>
        </g>
        <g transform="matrix(0.62803,-0.62803,0.756975,0.756975,321.04,1245.88)">
            <path d="M1490.66,926.43C1490.66,925.734 1489.98,925.169 1489.14,925.169L1486.1,925.169C1485.26,925.169 1484.58,925.734 1484.58,926.43L1484.58,992.725C1484.58,993.421 1485.26,993.986 1486.1,993.986L1489.14,993.986C1489.98,993.986 1490.66,993.421 1490.66,992.725L1490.66,926.43Z" style="fill:white;"/>
        </g>
        <path d="M1997.21,1049.68C1992.87,1054.14 1986.79,1056.9 1980.09,1056.9C1967.61,1056.9 1957.35,1047.32 1956.29,1035.12L1961.94,1035.12C1962.99,1044.21 1970.72,1051.28 1980.09,1051.28C1985.24,1051.28 1989.91,1049.14 1993.23,1045.7L1997.21,1049.68ZM1996.41,1041.24C1997.35,1039.36 1997.98,1037.3 1998.23,1035.12L2003.89,1035.12C2003.56,1038.86 2002.38,1042.34 2000.54,1045.37L1996.41,1041.24Z" style="fill:white;"/>
        <path d="M1970.12,1022.58L1988.52,1040.99C1986.76,1043.79 1983.64,1045.64 1980.09,1045.64C1974.59,1045.64 1970.12,1041.17 1970.12,1035.67L1970.12,1022.58ZM1970.14,1014.97C1970.49,1009.78 1974.81,1005.67 1980.09,1005.67C1985.59,1005.67 1990.06,1010.14 1990.06,1015.65L1990.06,1034.89L1970.14,1014.97Z" style="fill:white;"/>
    </g>
</svg>
