<?xml version="1.0" encoding="UTF-8" standalone="no"?>
<!DOCTYPE svg PUBLIC "-//W3C//DTD SVG 1.1//EN" "http://www.w3.org/Graphics/SVG/1.1/DTD/svg11.dtd">
<svg width="100%" height="100%" viewBox="0 0 512 512" version="1.1" xmlns="http://www.w3.org/2000/svg" xmlns:xlink="http://www.w3.org/1999/xlink" xml:space="preserve" xmlns:serif="http://www.serif.com/" style="fill-rule:evenodd;clip-rule:evenodd;stroke-linejoin:round;stroke-miterlimit:2;">
    <g id="MicrophoneIcon" transform="matrix(2.78476,0,0,2.78275,-23.0847,-24.1374)">
        <g transform="matrix(1,0,0,1,-1.03427,-0.125481)">
            <path d="M129.265,40.895C129.265,25.423 116.713,12.862 101.253,12.862C85.792,12.862 73.24,25.423 73.24,40.895L73.24,97.177C73.24,112.649 85.792,125.21 101.253,125.21C116.713,125.21 129.265,112.649 129.265,97.177L129.265,40.895Z" style="fill:white;"/>
        </g>
        <path d="M167.07,95.514C164.064,129.953 135.18,156.734 100.22,156.734C65.166,156.734 36.353,129.799 33.367,95.514L49.252,95.514C52.177,121.059 73.896,140.928 100.22,140.928C126.474,140.928 148.247,121.17 151.185,95.514L167.07,95.514Z" style="fill:white;"/>
        <g transform="matrix(1,0,0,1,0.373193,0)">
            <path d="M109.212,152.146C109.212,149.559 107.113,147.459 104.529,147.459L95.162,147.459C92.577,147.459 90.479,149.559 90.479,152.146L90.479,183.915C90.479,186.501 92.577,188.601 95.162,188.601L104.529,188.601C107.113,188.601 109.212,186.501 109.212,183.915L109.212,152.146Z" style="fill:white;"/>
        </g>
    </g>
</svg>
