<?xml version="1.0" encoding="UTF-8" standalone="no"?>
<!DOCTYPE svg PUBLIC "-//W3C//DTD SVG 1.1//EN" "http://www.w3.org/Graphics/SVG/1.1/DTD/svg11.dtd">
<svg width="100%" height="100%" viewBox="0 0 512 512" version="1.1" xmlns="http://www.w3.org/2000/svg" xmlns:xlink="http://www.w3.org/1999/xlink" xml:space="preserve" xmlns:serif="http://www.serif.com/" style="fill-rule:evenodd;clip-rule:evenodd;stroke-linejoin:round;stroke-miterlimit:2;">
    <g id="MobileIcon" transform="matrix(7.07766,0,0,7.07766,-322.857,-8475.17)">
        <path d="M98.463,1198.63C100.765,1198.63 102.633,1200.5 102.633,1202.8L102.633,1264.45C102.633,1266.75 100.764,1268.62 98.463,1268.62L65.11,1268.62C62.809,1268.62 60.94,1266.75 60.94,1264.45L60.94,1202.8C60.94,1200.5 62.809,1198.63 65.11,1198.63L98.463,1198.63ZM81.787,1259.53C83.333,1259.53 84.589,1260.78 84.589,1262.33C84.589,1263.88 83.333,1265.13 81.787,1265.13C80.24,1265.13 78.984,1263.88 78.984,1262.33C78.984,1260.78 80.24,1259.53 81.787,1259.53ZM96.874,1202.38L66.699,1202.38C65.513,1202.38 64.551,1203.34 64.551,1204.52L64.551,1253.91C64.551,1255.1 65.513,1256.06 66.699,1256.06L96.874,1256.06C98.06,1256.06 99.022,1255.1 99.022,1253.91L99.022,1204.52C99.022,1203.34 98.06,1202.38 96.874,1202.38Z" style="fill:white;"/>
    </g>
</svg>
