<?xml version="1.0" encoding="UTF-8" standalone="no"?>
<!DOCTYPE svg PUBLIC "-//W3C//DTD SVG 1.1//EN" "http://www.w3.org/Graphics/SVG/1.1/DTD/svg11.dtd">
<svg width="100%" height="100%" viewBox="0 0 512 512" version="1.1" xmlns="http://www.w3.org/2000/svg" xmlns:xlink="http://www.w3.org/1999/xlink" xml:space="preserve" xmlns:serif="http://www.serif.com/" style="fill-rule:evenodd;clip-rule:evenodd;stroke-linejoin:round;stroke-miterlimit:2;">
    <g id="MolotovIcon" transform="matrix(4.2115,0,0,4.2115,-7834.12,-3199.48)">
        <g transform="matrix(0.832331,0,0,0.753682,447.034,239.616)">
            <path d="M1784.43,767.013C1784.43,765.501 1783.32,764.274 1781.95,764.274L1759.74,764.274C1758.37,764.274 1757.25,765.501 1757.25,767.013L1757.25,772.492C1757.25,774.004 1758.37,775.231 1759.74,775.231L1781.95,775.231C1783.32,775.231 1784.43,774.004 1784.43,772.492L1784.43,767.013Z" style="fill:white;"/>
        </g>
        <g transform="matrix(1,0,0,0.600147,150.347,363.142)">
            <rect x="1762.17" y="771.787" width="16.887" height="21.475" style="fill:white;"/>
        </g>
        <g transform="matrix(1,0,0,0.706315,150.881,275.244)">
            <path d="M1795.47,819.936C1795.47,803.853 1786.25,790.795 1774.89,790.795L1767.53,790.795C1754.92,790.795 1744.68,805.292 1744.68,823.147L1744.68,846.038C1744.68,849.487 1746.66,852.287 1749.1,852.287L1791.1,852.287C1793.51,852.287 1795.47,849.514 1795.47,846.097L1795.47,819.936Z" style="fill:white;"/>
        </g>
        <g id="FireIcon" transform="matrix(0.230533,0,0,0.227804,1697.17,644.44)">
            <path d="M955.133,523.723C1007.93,546.749 1016.49,606.343 1016.49,606.343C1016.49,606.343 1027.66,591.514 1022.02,565.414C1113.74,657.732 1049.35,739.458 1007.08,746.822C1016.23,734.371 1035.71,657.454 973.871,616.029C983.027,661.475 954.116,677.597 954.116,677.597L948.771,645.03C945.895,685.758 900.063,689.316 927.808,746.136C826.596,682.842 894.238,633.357 903.149,588.857C914.652,600.093 912.152,625.697 912.152,625.697C912.152,625.697 956.915,591.958 955.133,523.723Z" style="fill:white;"/>
        </g>
    </g>
</svg>
