<?xml version="1.0" encoding="UTF-8" standalone="no"?>
<!DOCTYPE svg PUBLIC "-//W3C//DTD SVG 1.1//EN" "http://www.w3.org/Graphics/SVG/1.1/DTD/svg11.dtd">
<svg width="100%" height="100%" viewBox="0 0 512 512" version="1.1" xmlns="http://www.w3.org/2000/svg" xmlns:xlink="http://www.w3.org/1999/xlink" xml:space="preserve" xmlns:serif="http://www.serif.com/" style="fill-rule:evenodd;clip-rule:evenodd;stroke-linejoin:round;stroke-miterlimit:2;">
    <g id="MonsterIcon" transform="matrix(0.875696,0,0,0.875696,-2724.18,-132.242)">
        <g transform="matrix(1.31851,0,0,1.31851,2332.67,-2027.62)">
            <path d="M795.133,1697.28C797.586,1697.48 799.225,1699.56 800.632,1701.95C809.164,1716.49 812.278,1734.5 807.536,1750.71C802.601,1748.55 795.218,1756.58 797.927,1747.23C799.395,1742.16 800.043,1736.87 799.673,1731.5C799.029,1722.17 796.125,1712.81 790.841,1705.16C790.841,1705.16 789.697,1703.35 789.988,1701.5C790.305,1699.48 791.973,1697.75 793.989,1697.36C794.712,1697.23 794.895,1697.28 795.133,1697.28Z" style="fill:white;fill-rule:nonzero;"/>
        </g>
        <g transform="matrix(-1.27712,0.32777,-0.32777,-1.27712,5149.64,2563.5)">
            <path d="M799.373,1801.77C798.844,1801.59 798.707,1801.56 798.192,1801.34C792.79,1799.05 789.673,1792.42 791.385,1786.79C791.873,1785.19 792.699,1783.69 793.798,1782.43C795.156,1780.86 796.78,1779.51 798.137,1777.9C802.007,1773.32 804.658,1767.74 805.53,1761.76C807.24,1750.05 803.062,1738.3 797.753,1728.13C794.423,1721.76 790.537,1715.61 785.861,1710.14C785.861,1710.14 783.661,1707.24 783.142,1704.54C781.853,1697.81 787.457,1690.51 794.539,1690.28C798.51,1690.15 802.247,1692.27 804.829,1695.41C813.473,1705.91 820.433,1717.83 825.038,1730.64C830.741,1746.51 832.002,1764.64 824.872,1780.23C821.531,1787.53 816.755,1794.28 810.592,1799.47C810.271,1799.74 809.937,1799.99 809.59,1800.22C806.648,1802.22 802.854,1802.73 799.373,1801.77Z" style="fill:white;fill-rule:nonzero;"/>
        </g>
        <g transform="matrix(-0.527093,1.20857,-1.20857,-0.527093,5784.14,352.854)">
            <path d="M784.792,1708.7C781.978,1704.03 782.634,1697.68 786.353,1693.88C789.457,1690.71 794.394,1689.49 798.62,1690.86C803.778,1692.53 806.799,1698.14 809.409,1703.57C818.432,1722.33 819.366,1744.97 809.868,1763.74C805.608,1772.16 774.12,1770.58 777.786,1767.03C786.973,1758.06 793.343,1745.95 792.746,1732.96C792.36,1724.57 789.765,1716.23 785.164,1709.26C785.019,1709.04 785.441,1709.67 784.792,1708.7Z" style="fill:white;fill-rule:nonzero;"/>
        </g>
        <g transform="matrix(0.263932,-1.29183,1.29183,0.263932,1117.97,1013.82)">
            <path d="M774.658,1783.22C773.686,1781.58 773.521,1781.01 773.234,1779.91C772.013,1775.26 774.12,1770.58 777.786,1767.03C787.097,1757.94 793.499,1745.57 792.716,1732.4C792.24,1724.38 789.729,1716.5 785.432,1709.67C782.688,1705.32 782.611,1702.52 783.186,1699.8C784.564,1693.27 792.162,1688.75 798.653,1690.87C804.203,1692.68 807.235,1698.81 809.973,1704.77C817.814,1721.82 819.072,1742.03 811.954,1759.2C807.863,1769.07 801.355,1777.79 793.521,1785.19C788.432,1789.99 779.638,1789.93 775.242,1784.07C775.035,1783.8 774.847,1783.51 774.658,1783.22Z" style="fill:white;fill-rule:nonzero;"/>
        </g>
        <g transform="matrix(0.97353,0.889223,-0.889223,0.97353,4043.86,-1888.89)">
            <path d="M791.017,1697.69C791.964,1696.93 792.297,1696.81 792.939,1696.58C795.88,1695.56 798.971,1697.31 800.809,1700.26C812.404,1718.87 814.376,1743.19 803.569,1762.89C799.841,1769.68 794.892,1775.72 789.186,1781.07C785.497,1784.52 778.409,1781.64 778.832,1776.39C779.112,1772.92 782.887,1770.55 785.612,1767.47C794.224,1757.74 799.48,1744.93 798.667,1731.88C798.102,1722.82 795.246,1713.89 790.323,1706.24C789.773,1705.38 789.743,1705.44 789.443,1704.78C788.368,1702.43 789.024,1699.49 791.017,1697.69Z" style="fill:white;fill-rule:nonzero;"/>
        </g>
        <g transform="matrix(0.799832,1.04821,-1.04821,0.799832,4452.81,-1615.75)">
            <path d="M787.679,1712.1C786.318,1705.95 810.564,1705.75 813.275,1714.49C818.829,1732.4 818.003,1749.33 808.524,1766.27C804.524,1773.41 774.565,1770.14 777.786,1767.03C787.166,1757.88 793.569,1745.34 792.699,1732.12C792.177,1724.2 789.395,1719.87 787.679,1712.1Z" style="fill:white;fill-rule:nonzero;"/>
        </g>
        <g transform="matrix(-1.86078,0,0,1.86078,8594.07,-10559.6)">
            <path d="M2892.63,5997.17C2903.69,5999.73 2910.73,6010.18 2908.34,6020.48C2905.95,6030.77 2895.03,6037.05 2883.97,6034.48C2872.91,6031.91 2865.87,6021.47 2868.26,6011.17C2870.65,6000.88 2881.57,5994.6 2892.63,5997.17ZM2890.99,6010.19C2890.47,6012.42 2891.89,6014.66 2894.16,6015.19C2896.43,6015.71 2898.69,6014.33 2899.21,6012.09C2899.73,6009.86 2898.31,6007.62 2896.04,6007.09C2893.77,6006.57 2891.51,6007.95 2890.99,6010.19Z" style="fill:white;"/>
        </g>
        <g transform="matrix(1.31851,0,0,1.31851,2478.44,-2000.16)">
            <path d="M813.245,1680.4C815.233,1680.59 815.774,1680.81 816.813,1681.24C820.728,1682.88 823.157,1686.78 823.865,1691.15C828.227,1718.08 821.932,1747.05 805.996,1769.74C802.349,1774.93 786.205,1758.79 789.306,1753.96C800.313,1736.83 804.749,1715.41 801.518,1694.95C801.482,1694.72 801.444,1694.49 801.403,1694.27C801.393,1694.21 801.382,1694.15 801.372,1694.09C800.651,1690.18 802.831,1683.24 808.425,1681.11C809.381,1680.75 810.387,1680.52 811.405,1680.42C812.59,1680.31 812.867,1680.38 813.245,1680.4Z" style="fill:white;fill-rule:nonzero;"/>
        </g>
        <g transform="matrix(-0.385061,1.26103,-1.26103,-0.385061,5852.48,-18.53)">
            <path d="M773.151,1779.58C772.796,1777.86 772.834,1777.55 772.843,1776.75C772.898,1771.45 777.485,1767.62 780.986,1763.69C783.614,1760.74 785.735,1758.66 787.579,1755.17C791.114,1748.5 811.404,1758.12 807.259,1768.06C804.072,1775.7 798.935,1780.65 792.605,1786.02C792.46,1786.15 792.312,1786.27 792.161,1786.38C786.224,1790.95 776.032,1788.37 773.462,1780.68C773.341,1780.32 773.246,1779.95 773.151,1779.58Z" style="fill:white;fill-rule:nonzero;"/>
        </g>
        <g transform="matrix(1.86078,0,0,1.86078,-2154.94,-10559.6)">
            <path d="M3068.11,5764.05C3080.73,5764.05 3090.97,5773.59 3090.97,5785.34C3090.97,5797.09 3080.73,5806.62 3068.11,5806.62C3055.5,5806.62 3045.25,5797.09 3045.25,5785.34C3045.25,5773.59 3055.5,5764.05 3068.11,5764.05ZM3054.09,5779.28C3054.09,5781.83 3056.19,5783.9 3058.78,5783.9C3061.37,5783.9 3063.47,5781.83 3063.47,5779.28C3063.47,5776.74 3061.37,5774.67 3058.78,5774.67C3056.19,5774.67 3054.09,5776.74 3054.09,5779.28Z" style="fill:white;"/>
        </g>
        <g transform="matrix(1.86078,0,0,1.86078,-2154.94,-10559.6)">
            <path d="M2996.31,5820.53C3038.04,5820.53 3086.13,5848.51 3077.81,5924.28C3072.74,5970.48 3087.97,6021.84 2996.31,6021.49C2902.82,6021.13 2925.39,5966.53 2917.78,5920.67C2906.17,5850.69 2954.58,5820.53 2996.31,5820.53ZM2984.6,5914.83C2988.17,5922.47 2993.04,5932.03 2995.06,5932.19C2997.74,5932.42 3005.64,5918.98 3005.64,5918.98C3005.64,5918.98 3013.99,5946.08 3018.1,5946.76C3020.22,5947.11 3024.71,5931.99 3026.2,5924.08C3028.81,5932.95 3045,5993.6 3039.99,5998.93C3037.49,6001.6 3031.41,5966.62 3029,5966.84C3025.7,5967.15 3018.93,5988.84 3017.07,5991.86C3015.43,5994.52 3011.97,5981.99 3008.25,5981.77C3004.52,5981.55 3001.38,5995.42 2999.94,5995.59C2998.56,5995.76 2993.13,5982.77 2990.31,5984.66C2984.12,5988.8 2984.44,5991.41 2978.08,5996.19C2974.46,5998.92 2969.93,5966.58 2965.7,5965.81C2962.65,5965.25 2959.76,5994.52 2959.17,6000.81C2957.77,6000.21 2957.04,5999.5 2956.7,5998.78C2953.95,5993.01 2956.29,5937.51 2965.7,5922.2C2965.89,5921.9 2966.11,5921.61 2966.37,5921.33C2968.28,5930.32 2970.51,5941.06 2973.48,5939.99C2975.79,5939.16 2977.93,5925.67 2979.2,5915.8C2980.94,5915.43 2982.75,5915.1 2984.6,5914.83ZM2994.61,5825.73C3017.57,5825.73 3036.21,5843.17 3036.21,5864.65C3036.21,5886.14 3017.57,5903.58 2994.61,5903.58C2971.65,5903.58 2953.01,5886.14 2953.01,5864.65C2953.01,5843.17 2971.65,5825.73 2994.61,5825.73Z" style="fill:white;"/>
        </g>
        <g transform="matrix(1.86078,0,0,1.86078,-2154.94,-10559.6)">
            <path d="M2974.93,5773.72C2982.33,5773.72 2988.34,5779.31 2988.34,5786.2C2988.34,5793.1 2982.33,5798.69 2974.93,5798.69C2967.53,5798.69 2961.52,5793.1 2961.52,5786.2C2961.52,5779.31 2967.53,5773.72 2974.93,5773.72ZM2977.32,5783.46C2977.32,5784.95 2978.55,5786.16 2980.07,5786.16C2981.59,5786.16 2982.82,5784.95 2982.82,5783.46C2982.82,5781.96 2981.59,5780.75 2980.07,5780.75C2978.55,5780.75 2977.32,5781.96 2977.32,5783.46Z" style="fill:white;"/>
        </g>
        <g transform="matrix(1.08301,-1.51314,1.51314,1.08301,-8783.63,-1614.53)">
            <path d="M2878.56,5836.11C2892.11,5832.55 2905.81,5839.9 2909.12,5852.52C2912.43,5865.14 2904.12,5878.28 2890.57,5881.84C2877.01,5885.4 2863.32,5878.04 2860.01,5865.42C2856.69,5852.8 2865.01,5839.67 2878.56,5836.11ZM2889.86,5863.01C2890.57,5865.75 2893.41,5867.38 2896.19,5866.65C2898.97,5865.92 2900.65,5863.1 2899.93,5860.37C2899.21,5857.63 2896.37,5856 2893.59,5856.73C2890.81,5857.46 2889.14,5860.28 2889.86,5863.01Z" style="fill:white;"/>
        </g>
        <g transform="matrix(1.86078,0,0,1.86078,-2154.94,-10559.6)">
            <path d="M3113.74,6026.77C3121.36,6036.97 3119.83,6051.02 3110.34,6058.11C3100.84,6065.21 3086.94,6062.69 3079.32,6052.49C3071.69,6042.28 3073.22,6028.24 3082.72,6021.15C3092.22,6014.05 3106.11,6016.57 3113.74,6026.77ZM3094.37,6029.8C3092.31,6031.34 3091.91,6034.29 3093.47,6036.38C3095.03,6038.47 3097.97,6038.92 3100.03,6037.38C3102.09,6035.84 3102.5,6032.89 3100.93,6030.8C3099.37,6028.71 3096.43,6028.26 3094.37,6029.8Z" style="fill:white;"/>
        </g>
        <g transform="matrix(1.662,0,0,1.662,-1559.67,-9393.91)">
            <path d="M2994.61,5829.26C3015.42,5829.26 3032.31,5844.99 3032.31,5864.36C3032.31,5883.73 3015.42,5899.45 2994.61,5899.45C2973.81,5899.45 2956.92,5883.73 2956.92,5864.36C2956.92,5844.99 2973.81,5829.26 2994.61,5829.26ZM2986.88,5864.36C2986.88,5868.56 2990.35,5871.97 2994.61,5871.97C2998.88,5871.97 3002.34,5868.56 3002.34,5864.36C3002.34,5860.16 2998.88,5856.75 2994.61,5856.75C2990.35,5856.75 2986.88,5860.16 2986.88,5864.36Z" style="fill:white;"/>
        </g>
    </g>
</svg>
