<?xml version="1.0" encoding="UTF-8" standalone="no"?>
<!DOCTYPE svg PUBLIC "-//W3C//DTD SVG 1.1//EN" "http://www.w3.org/Graphics/SVG/1.1/DTD/svg11.dtd">
<svg width="100%" height="100%" viewBox="0 0 512 512" version="1.1" xmlns="http://www.w3.org/2000/svg" xmlns:xlink="http://www.w3.org/1999/xlink" xml:space="preserve" xmlns:serif="http://www.serif.com/" style="fill-rule:evenodd;clip-rule:evenodd;stroke-linejoin:round;stroke-miterlimit:2;">
    <g id="MonsterIcon" transform="matrix(3.18052,0,0,3.01826,-13445.1,-5122.6)">
        <g transform="matrix(0.314414,-0,-0,0.331316,4227.34,1697.2)">
        </g>
        <g transform="matrix(1,0,0,1,0,-4.28513)">
            <g transform="matrix(0.677402,0.713818,-0.677402,0.713818,6911.59,-2010.37)">
                <path d="M727.525,4623.8C727.525,4620.08 724.505,4617.06 720.786,4617.06L696.188,4617.06C692.469,4617.06 689.449,4620.08 689.449,4623.8C689.449,4627.52 692.469,4630.53 696.188,4630.53L720.786,4630.53C724.505,4630.53 727.525,4627.52 727.525,4623.8Z" style="fill:white;"/>
            </g>
            <g transform="matrix(-0.677402,0.713818,0.677402,0.713818,1704.08,-2010.37)">
                <path d="M727.525,4623.8C727.525,4620.08 724.505,4617.06 720.786,4617.06L696.188,4617.06C692.469,4617.06 689.449,4620.08 689.449,4623.8C689.449,4627.52 692.469,4630.53 696.188,4630.53L720.786,4630.53C724.505,4630.53 727.525,4627.52 727.525,4623.8Z" style="fill:white;"/>
            </g>
        </g>
        <g transform="matrix(1.21524,0,0,1.28057,-7247.68,-3926.51)">
            <path d="M9499.78,4407.87C9508.57,4402.91 9507.08,4393.92 9509.09,4394.03C9510.24,4394.09 9510.11,4398.99 9509.78,4403.27C9522.32,4399.93 9541.02,4409.39 9541.75,4415.07C9541.99,4416.94 9532.48,4408.68 9525.77,4410.94C9537.91,4417.55 9546.23,4431.9 9546.23,4453.71C9546.23,4476.08 9546.11,4510.65 9546.11,4510.65C9546.11,4515.14 9545.23,4521.71 9538.89,4521.59C9532,4521.46 9532.82,4514.82 9529.86,4510.65C9526.2,4505.49 9516.5,4504.72 9508.83,4504.63C9501.16,4504.72 9491.45,4505.49 9487.8,4510.65C9484.84,4514.82 9485.67,4521.46 9478.77,4521.59C9472.43,4521.71 9471.55,4515.14 9471.55,4510.65C9471.55,4510.65 9471.43,4476.08 9471.43,4453.71C9471.43,4427.45 9483.49,4412 9499.78,4407.87ZM9508.83,4460.67C9518.75,4460.67 9526.81,4466.82 9526.81,4474.4C9526.81,4481.97 9518.75,4488.12 9508.83,4488.12C9498.91,4488.12 9490.85,4481.97 9490.85,4474.4C9490.85,4466.82 9498.91,4460.67 9508.83,4460.67ZM9486.03,4435.14C9489.64,4437.54 9497.94,4439.26 9507.69,4439.38C9507.8,4440.03 9507.86,4440.7 9507.86,4441.39C9507.86,4447.9 9502.57,4453.19 9496.06,4453.19C9489.54,4453.19 9484.25,4447.9 9484.25,4441.39C9484.25,4439.09 9484.9,4436.95 9486.03,4435.14ZM9531.63,4435.14C9532.76,4436.95 9533.41,4439.09 9533.41,4441.39C9533.41,4447.9 9528.12,4453.19 9521.6,4453.19C9515.09,4453.19 9509.8,4447.9 9509.8,4441.39C9509.8,4440.7 9509.85,4440.03 9509.97,4439.38C9519.72,4439.26 9528.01,4437.54 9531.63,4435.14ZM9496.06,4438.91C9497.42,4438.91 9498.53,4440.02 9498.53,4441.39C9498.53,4442.75 9497.42,4443.86 9496.06,4443.86C9494.69,4443.86 9493.58,4442.75 9493.58,4441.39C9493.58,4440.02 9494.69,4438.91 9496.06,4438.91ZM9521.6,4438.91C9522.97,4438.91 9524.08,4440.02 9524.08,4441.39C9524.08,4442.75 9522.97,4443.86 9521.6,4443.86C9520.24,4443.86 9519.13,4442.75 9519.13,4441.39C9519.13,4440.02 9520.24,4438.91 9521.6,4438.91Z" style="fill:white;"/>
        </g>
        <g transform="matrix(-0.925349,0.241551,-0.15617,-0.5678,5718.55,4265.25)">
            <path d="M744.961,4660.45C745.278,4659.36 745.928,4658.64 746.637,4658.6C747.346,4658.56 747.991,4659.21 748.298,4660.28C750.927,4669.4 755.788,4686.27 755.788,4686.27L737.522,4686.27C737.522,4686.27 742.32,4669.62 744.961,4660.45Z" style="fill:white;"/>
        </g>
        <g transform="matrix(0.925349,0.241551,0.15617,-0.5678,2897.12,4265.25)">
            <path d="M744.961,4660.45C745.278,4659.36 745.928,4658.64 746.637,4658.6C747.346,4658.56 747.991,4659.21 748.298,4660.28C750.927,4669.4 755.788,4686.27 755.788,4686.27L737.522,4686.27C737.522,4686.27 742.32,4669.62 744.961,4660.45Z" style="fill:white;"/>
        </g>
    </g>
</svg>
