<?xml version="1.0" encoding="UTF-8" standalone="no"?>
<!DOCTYPE svg PUBLIC "-//W3C//DTD SVG 1.1//EN" "http://www.w3.org/Graphics/SVG/1.1/DTD/svg11.dtd">
<svg width="100%" height="100%" viewBox="0 0 512 512" version="1.1" xmlns="http://www.w3.org/2000/svg" xmlns:xlink="http://www.w3.org/1999/xlink" xml:space="preserve" xmlns:serif="http://www.serif.com/" style="fill-rule:evenodd;clip-rule:evenodd;stroke-linejoin:round;stroke-miterlimit:2;">
    <g id="MonsterEyeIcon" transform="matrix(4.0108,0,0,4.0108,-3702.01,-2203.83)">
        <g transform="matrix(1.70272,0,0,1.70272,128.574,-310.479)">
            <path d="M504.057,518.805C520.276,518.805 533.444,533.992 533.444,550.211C533.444,566.43 520.276,577.578 504.057,577.578C487.838,577.578 474.67,566.43 474.67,550.211C474.67,533.992 487.838,518.805 504.057,518.805ZM504.057,546.619C511.738,546.619 518.974,552.357 518.974,559.425C518.974,566.493 511.738,572.231 504.057,572.231C496.376,572.231 489.139,566.493 489.139,559.425C489.139,552.357 496.376,546.619 504.057,546.619ZM504.057,526.477C511.218,526.477 517.032,529.964 517.032,534.26C517.032,538.555 511.218,542.043 504.057,542.043C496.896,542.043 491.082,538.555 491.082,534.26C491.082,529.964 496.896,526.477 504.057,526.477Z" style="fill:white;"/>
        </g>
        <g transform="matrix(1.70272,0,0,2.48562,129.129,-725.647)">
            <ellipse cx="503.731" cy="528.428" rx="16.69" ry="4.511" style="fill:white;"/>
        </g>
        <g>
            <g transform="matrix(1.70272,0,0,1.70272,129.446,-311.408)">
                <path d="M471.83,509.622C472.577,507.602 474.191,507.57 474.336,509.19C475.028,516.954 478.351,525.686 486.026,526.446C486.026,526.446 479.1,540.102 478.145,539.259C469.116,531.282 468.433,518.809 471.83,509.622Z" style="fill:white;"/>
            </g>
            <g transform="matrix(-1.70272,0,0,1.70272,1844.23,-311.408)">
                <path d="M471.83,509.622C472.577,507.602 474.191,507.57 474.336,509.19C475.028,516.954 478.351,525.686 486.026,526.446C486.026,526.446 479.1,540.102 478.145,539.259C469.116,531.282 468.433,518.809 471.83,509.622Z" style="fill:white;"/>
            </g>
        </g>
        <g transform="matrix(0.364136,0,0,0.53939,802.978,311.786)">
            <ellipse cx="504.925" cy="534.56" rx="12.224" ry="7.332" style="fill:white;"/>
        </g>
        <g transform="matrix(1,0,0,1,-0.318346,0)">
            <g transform="matrix(2.61232,1.83592e-16,7.39859e-16,-1.14235,-3981.52,1869.52)">
                <path d="M1897.63,1076.11L1900.07,1094.61L1895.21,1094.61L1897.63,1076.11Z" style="fill:white;"/>
            </g>
            <g transform="matrix(2.61232,1.83592e-16,7.39859e-16,-1.14235,-3958.62,1869.52)">
                <path d="M1897.63,1076.11L1900.07,1094.61L1895.21,1094.61L1897.63,1076.11Z" style="fill:white;"/>
            </g>
        </g>
        <g transform="matrix(1,0,0,-1,-0.318346,1285.86)">
            <g transform="matrix(2.61232,1.83592e-16,7.39859e-16,-1.14235,-3981.52,1869.52)">
                <path d="M1897.63,1076.11L1900.07,1094.61L1895.21,1094.61L1897.63,1076.11Z" style="fill:white;"/>
            </g>
            <g transform="matrix(2.61232,1.83592e-16,7.39859e-16,-1.14235,-3958.62,1869.52)">
                <path d="M1897.63,1076.11L1900.07,1094.61L1895.21,1094.61L1897.63,1076.11Z" style="fill:white;"/>
            </g>
        </g>
    </g>
</svg>
