<?xml version="1.0" encoding="UTF-8" standalone="no"?>
<!DOCTYPE svg PUBLIC "-//W3C//DTD SVG 1.1//EN" "http://www.w3.org/Graphics/SVG/1.1/DTD/svg11.dtd">
<svg width="100%" height="100%" viewBox="0 0 512 512" version="1.1" xmlns="http://www.w3.org/2000/svg" xmlns:xlink="http://www.w3.org/1999/xlink" xml:space="preserve" xmlns:serif="http://www.serif.com/" style="fill-rule:evenodd;clip-rule:evenodd;stroke-linejoin:round;stroke-miterlimit:2;">
    <g id="MoonStarIcon" transform="matrix(6.68802,0,0,6.68802,-3832.17,-6048.4)">
        <g transform="matrix(2.51516,0,0,2.51516,-3022.58,-1735.03)">
            <path d="M1453.35,1070.39C1451.55,1074.59 1447.38,1077.54 1442.53,1077.54C1436.03,1077.54 1430.75,1072.26 1430.75,1065.76C1430.75,1059.27 1436.03,1053.99 1442.53,1053.99C1442.83,1053.99 1443.13,1054 1443.43,1054.03C1439.69,1055.39 1437.02,1058.98 1437.02,1063.19C1437.02,1068.57 1441.39,1072.94 1446.78,1072.94C1449.31,1072.94 1451.61,1071.98 1453.35,1070.39Z" style="fill:white;"/>
        </g>
        <g transform="matrix(0.60251,0,0,0.60251,238.894,372.841)">
            <path d="M620.139,929.3L622.642,934.685L628.537,935.402L624.188,939.446L625.329,945.274L620.139,942.389L614.948,945.274L616.089,939.446L611.74,935.402L617.636,934.685L620.139,929.3Z" style="fill:white;"/>
        </g>
        <g transform="matrix(0.818686,0,0,0.818686,117.208,149.34)">
            <path d="M620.139,929.3L622.642,934.685L628.537,935.402L624.188,939.446L625.329,945.274L620.139,942.389L614.948,945.274L616.089,939.446L611.74,935.402L617.636,934.685L620.139,929.3Z" style="fill:white;"/>
        </g>
        <g transform="matrix(0.907811,0,0,0.907811,75.8591,90.0463)">
            <path d="M620.139,929.3L622.642,934.685L628.537,935.402L624.188,939.446L625.329,945.274L620.139,942.389L614.948,945.274L616.089,939.446L611.74,935.402L617.636,934.685L620.139,929.3Z" style="fill:white;"/>
        </g>
    </g>
</svg>
