<?xml version="1.0" encoding="UTF-8" standalone="no"?>
<!DOCTYPE svg PUBLIC "-//W3C//DTD SVG 1.1//EN" "http://www.w3.org/Graphics/SVG/1.1/DTD/svg11.dtd">
<svg width="100%" height="100%" viewBox="0 0 512 512" version="1.1" xmlns="http://www.w3.org/2000/svg" xmlns:xlink="http://www.w3.org/1999/xlink" xml:space="preserve" xmlns:serif="http://www.serif.com/" style="fill-rule:evenodd;clip-rule:evenodd;stroke-linejoin:round;stroke-miterlimit:2;">
    <g id="MultiplayerIcon" transform="matrix(3.29435,0,0,3.29435,-5058.05,-2243.89)">
        <g transform="matrix(1,0,0,1,9.91602,12.2754)">
            <path d="M1557.18,781.302L1534.85,781.302C1531.99,781.302 1529.67,778.985 1529.67,776.13L1529.67,765.785L1529.67,746.695C1529.67,738.872 1534.93,732.266 1542.1,730.218C1546.69,739.028 1554.72,744.832 1563.33,745.096C1559.59,749.356 1557.18,754.95 1557.18,761.072L1557.18,781.302ZM1573.52,736.416C1570.61,738.406 1567.33,739.527 1563.94,739.527C1553.24,739.527 1543.56,728.346 1543.56,713.926C1543.56,700.5 1548.52,690.727 1563.94,690.703C1572.33,690.69 1577.62,693.592 1580.71,698.403C1574.33,704.4 1571.9,713.704 1571.9,724.705C1571.9,728.821 1572.48,732.754 1573.52,736.416Z" style="fill:white;"/>
        </g>
        <g transform="matrix(1,0,0,1,9.91602,12.2754)">
            <path d="M1642.98,745.762C1651.59,745.496 1659.62,739.69 1664.21,730.878C1671.39,732.919 1676.66,739.53 1676.66,747.362L1676.66,776.796C1676.66,779.651 1674.34,781.968 1671.49,781.969L1648.56,781.969L1648.56,761.072C1648.56,755.264 1646.4,749.932 1642.98,745.762ZM1625.66,698.987C1628.76,694.243 1634.03,691.383 1642.36,691.37C1657.78,691.345 1662.75,701.167 1662.75,714.593C1662.75,729.012 1653.06,740.194 1642.36,740.194C1638.73,740.194 1635.22,738.905 1632.16,736.637C1633.25,732.912 1633.84,728.904 1633.84,724.705C1633.84,714.071 1631.58,705.003 1625.66,698.987Z" style="fill:white;"/>
        </g>
        <g transform="matrix(1,0,0,1,273.911,-10.7741)">
            <path d="M1372.84,825.478L1305.5,825.478C1302.2,825.478 1299.52,822.798 1299.52,819.496L1299.52,807.53L1299.52,785.451C1299.52,776.403 1305.6,768.763 1313.89,766.393C1319.33,776.824 1328.93,783.612 1339.15,783.612C1349.38,783.612 1358.98,776.821 1364.42,766.386C1372.73,768.747 1378.82,776.393 1378.82,785.451L1378.82,819.496C1378.82,822.797 1376.14,825.478 1372.84,825.478ZM1339.15,777.161C1326.78,777.161 1315.58,764.228 1315.58,747.55C1315.58,732.022 1321.32,720.718 1339.15,720.69C1356.99,720.662 1362.73,732.022 1362.73,747.55C1362.73,764.228 1351.53,777.161 1339.15,777.161Z" style="fill:white;"/>
        </g>
    </g>
</svg>
