<?xml version="1.0" encoding="UTF-8" standalone="no"?>
<!DOCTYPE svg PUBLIC "-//W3C//DTD SVG 1.1//EN" "http://www.w3.org/Graphics/SVG/1.1/DTD/svg11.dtd">
<svg width="100%" height="100%" viewBox="0 0 512 512" version="1.1" xmlns="http://www.w3.org/2000/svg" xmlns:xlink="http://www.w3.org/1999/xlink" xml:space="preserve" xmlns:serif="http://www.serif.com/" style="fill-rule:evenodd;clip-rule:evenodd;stroke-linejoin:round;stroke-miterlimit:2;">
    <g id="MuscleArmIcon" transform="matrix(4.69762,0,0,4.69762,-3307.55,-19593.2)">
        <path d="M714.62,4257.94C714.556,4257.86 710.209,4257.84 708.819,4256.12C704.897,4251.27 722.917,4192 725.127,4189.27C727.337,4186.54 750.056,4174 752.295,4175.06C754.534,4176.12 763.365,4186.99 763.156,4190.31C762.947,4193.62 750.238,4202.71 748.749,4202.96C747.61,4203.15 746.44,4199.88 745.954,4198.33C745.199,4199.37 744.064,4200.27 742.662,4200.86C741.156,4201.48 739.604,4201.62 738.271,4201.35L742.813,4229.33C746.477,4226.52 751.142,4224.84 756.219,4224.84C761.971,4224.84 767.194,4227 771.031,4230.5C775.073,4224.3 782.854,4220.1 791.782,4220.1C798.514,4220.1 804.595,4222.49 808.911,4226.32L808.911,4275.65C807.583,4275.72 806.236,4275.76 804.872,4275.76C794.188,4275.76 784.503,4273.53 777.464,4269.92C769.884,4273.41 758.934,4274.82 747.106,4273.25C732.334,4271.3 720.096,4265.2 714.62,4257.94Z" style="fill:white;"/>
    </g>
</svg>
