<?xml version="1.0" encoding="UTF-8" standalone="no"?>
<!DOCTYPE svg PUBLIC "-//W3C//DTD SVG 1.1//EN" "http://www.w3.org/Graphics/SVG/1.1/DTD/svg11.dtd">
<svg width="100%" height="100%" viewBox="0 0 512 512" version="1.1" xmlns="http://www.w3.org/2000/svg" xmlns:xlink="http://www.w3.org/1999/xlink" xml:space="preserve" xmlns:serif="http://www.serif.com/" style="fill-rule:evenodd;clip-rule:evenodd;stroke-linejoin:round;stroke-miterlimit:2;">
    <g id="MusicDisabledIcon" transform="matrix(7.01667,0,0,7.01667,-10691.4,-7019.67)">
        <g transform="matrix(1,0,0,1,103.38,4.22778)">
            <g transform="matrix(0.992742,0,0,1,15.5457,-2.00388)">
                <ellipse cx="1427.63" cy="1057.65" rx="10.307" ry="7.741" style="fill:white;"/>
            </g>
            <g transform="matrix(1,0,0,0.944764,40.5037,47.8942)">
                <rect x="1432.27" y="1014.19" width="5.353" height="44.054" style="fill:white;"/>
            </g>
        </g>
        <g transform="matrix(0.62803,-0.62803,0.830653,0.830653,-166.834,1175.02)">
            <path d="M1490.66,926.318C1490.66,925.684 1489.98,925.169 1489.14,925.169L1486.1,925.169C1485.26,925.169 1484.58,925.684 1484.58,926.318L1484.58,992.837C1484.58,993.471 1485.26,993.986 1486.1,993.986L1489.14,993.986C1489.98,993.986 1490.66,993.471 1490.66,992.837L1490.66,926.318Z" style="fill:white;"/>
        </g>
        <g transform="matrix(1,0,0,1,1.94026,0.1458)">
            <path d="M1539.18,1025.7L1544.45,1030.97L1539.18,1032.38L1539.18,1025.7ZM1539.19,1018.08L1539.19,1016.74L1579.57,1005.93L1579.55,1021.56L1550.47,1029.36L1539.19,1018.08Z" style="fill:white;"/>
        </g>
        <g transform="matrix(1,0,0,1,1.94026,0.1458)">
            <path d="M1539.11,1025.63L1544.51,1031.03L1544.51,1060.02L1539.11,1060.02L1539.11,1025.63ZM1544.51,1023.39L1539.11,1018L1539.11,1016.62L1544.51,1016.62L1544.51,1023.39Z" style="fill:white;"/>
        </g>
        <g transform="matrix(1,0,0,1,1.94026,0.1458)">
            <path d="M1562.24,1048.76L1574.5,1061.02C1572.98,1061.69 1571.22,1062.08 1569.33,1062.08C1563.68,1062.08 1559.1,1058.61 1559.1,1054.34C1559.1,1052.15 1560.31,1050.17 1562.24,1048.76ZM1567.8,1046.68C1568.3,1046.63 1568.81,1046.6 1569.33,1046.6C1574.98,1046.6 1579.56,1050.07 1579.56,1054.34C1579.56,1055.48 1579.24,1056.56 1578.65,1057.54L1567.8,1046.68Z" style="fill:white;"/>
        </g>
    </g>
</svg>
