<?xml version="1.0" encoding="UTF-8" standalone="no"?>
<!DOCTYPE svg PUBLIC "-//W3C//DTD SVG 1.1//EN" "http://www.w3.org/Graphics/SVG/1.1/DTD/svg11.dtd">
<svg width="100%" height="100%" viewBox="0 0 512 512" version="1.1" xmlns="http://www.w3.org/2000/svg" xmlns:xlink="http://www.w3.org/1999/xlink" xml:space="preserve" xmlns:serif="http://www.serif.com/" style="fill-rule:evenodd;clip-rule:evenodd;stroke-linejoin:round;stroke-miterlimit:2;">
    <g id="MuteIcon" transform="matrix(22.422,0,0,27.3045,11687.3,-168902)">
        <g transform="matrix(1.191,0,0,0.978031,-1212.72,2853.82)">
            <path d="M587.417,3412.62L582.707,3412.62C581.841,3412.62 581.137,3413.32 581.137,3414.18L581.137,3418.83C581.137,3419.7 581.841,3420.4 582.707,3420.4L587.417,3420.4L587.417,3412.62Z" style="fill:white;"/>
        </g>
        <g transform="matrix(9.73348e-17,-1.30535,1.07298,5.39525e-17,-4178.61,6965.12)">
            <path d="M589.766,3410.36C589.766,3410.36 594.168,3417.12 595.724,3419.51C595.816,3419.65 595.842,3419.86 595.79,3420.04C595.739,3420.22 595.62,3420.33 595.488,3420.33C593.179,3420.33 586.353,3420.33 584.044,3420.33C583.912,3420.33 583.793,3420.22 583.741,3420.04C583.69,3419.86 583.715,3419.65 583.807,3419.51C585.363,3417.12 589.766,3410.36 589.766,3410.36Z" style="fill:white;"/>
        </g>
        <g transform="matrix(1,0,0,1,-0.100891,-0.217437)">
            <g transform="matrix(0.393359,0.32302,-0.57971,0.476049,-501.154,6178.77)">
                <path d="M25.527,13.757C25.527,13.481 25.197,13.257 24.79,13.257L23.316,13.257C22.91,13.257 22.58,13.481 22.58,13.757L22.58,23.802C22.58,24.078 22.91,24.302 23.316,24.302L24.79,24.302C25.197,24.302 25.527,24.078 25.527,23.802L25.527,13.757Z" style="fill:white;"/>
            </g>
            <g transform="matrix(-0.393359,0.32302,0.57971,0.476049,-504.005,6178.77)">
                <path d="M25.527,13.757C25.527,13.481 25.197,13.257 24.79,13.257L23.316,13.257C22.91,13.257 22.58,13.481 22.58,13.757L22.58,23.802C22.58,24.078 22.91,24.302 23.316,24.302L24.79,24.302C25.197,24.302 25.527,24.078 25.527,23.802L25.527,13.757Z" style="fill:white;"/>
            </g>
        </g>
    </g>
</svg>
