<?xml version="1.0" encoding="UTF-8" standalone="no"?>
<!DOCTYPE svg PUBLIC "-//W3C//DTD SVG 1.1//EN" "http://www.w3.org/Graphics/SVG/1.1/DTD/svg11.dtd">
<svg width="100%" height="100%" viewBox="0 0 512 512" version="1.1" xmlns="http://www.w3.org/2000/svg" xmlns:xlink="http://www.w3.org/1999/xlink" xml:space="preserve" xmlns:serif="http://www.serif.com/" style="fill-rule:evenodd;clip-rule:evenodd;stroke-linejoin:round;stroke-miterlimit:2;">
    <g id="Next" transform="matrix(21.0669,0,0,21.0669,-15333.4,-71118.6)">
        <path d="M733.385,3394.88C733.634,3395.03 733.918,3395.02 734.166,3394.88L743.993,3389.04L743.993,3386.94L734.166,3381.11C733.918,3380.96 733.634,3380.96 733.385,3381.11C733.135,3381.25 732.993,3381.5 732.993,3381.79L732.993,3394.2C732.993,3394.49 733.135,3394.74 733.385,3394.88ZM745.5,3395C746.328,3395 747,3394.33 747,3393.5L747,3382.5C747,3381.67 746.328,3381 745.5,3381C744.672,3381 744,3381.67 744,3382.5L744,3393.5C744,3394.33 744.672,3395 745.5,3395Z" style="fill:white;"/>
    </g>
</svg>
