<?xml version="1.0" encoding="UTF-8" standalone="no"?>
<!DOCTYPE svg PUBLIC "-//W3C//DTD SVG 1.1//EN" "http://www.w3.org/Graphics/SVG/1.1/DTD/svg11.dtd">
<svg width="100%" height="100%" viewBox="0 0 512 512" version="1.1" xmlns="http://www.w3.org/2000/svg" xmlns:xlink="http://www.w3.org/1999/xlink" xml:space="preserve" xmlns:serif="http://www.serif.com/" style="fill-rule:evenodd;clip-rule:evenodd;stroke-linejoin:round;stroke-miterlimit:2;">
    <g id="OfferIcon" transform="matrix(16.3331,0,0,16.3331,-4476.14,-1766.33)">
        <path d="M289.727,109.475L292.883,115.619L297.267,114.953L297.989,119.329L304.808,120.432L299.94,125.332L301.928,129.296L297.989,131.335L299.047,138.16L292.883,135.045L289.727,138.16L286.571,135.045L280.407,138.16L281.465,131.335L277.526,129.296L279.514,125.332L274.646,120.432L281.465,119.329L282.187,114.953L286.571,115.619L289.727,109.475ZM290.352,128.944L289.102,128.944C288.757,128.944 288.477,129.224 288.477,129.569L288.477,130.819C288.477,131.163 288.757,131.444 289.102,131.444L290.352,131.444C290.697,131.444 290.977,131.163 290.977,130.819L290.977,129.569C290.977,129.224 290.697,128.944 290.352,128.944ZM290.361,119.547L289.093,119.547C288.744,119.547 288.46,119.83 288.46,120.18L288.46,127.385C288.46,127.734 288.744,128.018 289.093,128.018L290.361,128.018C290.71,128.018 290.994,127.734 290.994,127.385L290.994,120.18C290.994,119.83 290.71,119.547 290.361,119.547Z" style="fill:rgb(235,235,235);"/>
    </g>
</svg>
