<?xml version="1.0" encoding="UTF-8" standalone="no"?>
<!DOCTYPE svg PUBLIC "-//W3C//DTD SVG 1.1//EN" "http://www.w3.org/Graphics/SVG/1.1/DTD/svg11.dtd">
<svg width="100%" height="100%" viewBox="0 0 512 512" version="1.1" xmlns="http://www.w3.org/2000/svg" xmlns:xlink="http://www.w3.org/1999/xlink" xml:space="preserve" xmlns:serif="http://www.serif.com/" style="fill-rule:evenodd;clip-rule:evenodd;stroke-linejoin:round;stroke-miterlimit:2;">
    <g transform="matrix(0.346229,0,0,0.328231,29.133,13.5254)">
        <g id="PartyIcon" transform="matrix(5.29675,3.22576,-3.05808,5.58718,668.766,-6141.39)">
            <path d="M560.997,921.151C572.886,925.668 580.57,932.616 580.763,940.421C580.954,942.753 580.516,945.132 579.435,947.293C568.863,968.437 551.686,1002.79 540.282,1025.6C538.08,1030 533.581,1032.78 528.659,1032.78C523.737,1032.78 519.238,1030 517.037,1025.6C505.632,1002.79 488.456,968.437 477.883,947.293C476.803,945.132 476.364,942.753 476.555,940.421C476.748,932.616 484.432,925.668 496.322,921.151C496.626,924.364 496.723,927.819 496.582,931.52C492.734,933.995 490.501,936.942 490.501,940.104C490.501,948.853 507.599,955.956 528.659,955.956C549.719,955.956 566.817,948.853 566.817,940.104C566.817,936.942 564.584,933.995 560.737,931.52C560.596,927.818 560.693,924.363 560.997,921.151ZM525.085,976.525C525.184,975.958 525.604,975.499 526.16,975.35C526.717,975.201 527.309,975.388 527.679,975.83C529.839,978.414 532.933,982.117 532.933,982.117C532.933,982.117 537.711,981.436 541.045,980.961C541.615,980.88 542.181,981.137 542.495,981.62C542.809,982.103 542.814,982.725 542.507,983.213C540.717,986.065 538.152,990.153 538.152,990.153C538.152,990.153 540.276,994.486 541.758,997.51C542.012,998.027 541.942,998.645 541.579,999.093C541.217,999.541 540.627,999.737 540.068,999.597C536.802,998.776 532.122,997.599 532.122,997.599C532.122,997.599 528.657,1000.96 526.239,1003.3C525.826,1003.7 525.217,1003.83 524.679,1003.62C524.141,1003.42 523.772,1002.92 523.732,1002.34C523.504,998.98 523.177,994.165 523.177,994.165C523.177,994.165 518.911,991.908 515.935,990.333C515.426,990.063 515.119,989.523 515.149,988.947C515.179,988.372 515.541,987.866 516.076,987.651C519.2,986.396 523.678,984.597 523.678,984.597C523.678,984.597 524.507,979.843 525.085,976.525ZM522.405,915.936C522.694,918.723 522.756,921.563 522.658,924.447C519.127,924.679 515.756,925.113 512.618,925.718C512.544,922.693 512.328,919.81 511.988,917.065C515.322,916.524 518.808,916.142 522.405,915.936ZM538.301,916.185C540.707,916.401 543.055,916.696 545.331,917.065C544.99,919.809 544.775,922.692 544.7,925.718C542.712,925.335 540.63,925.02 538.474,924.782C538.551,921.88 538.506,919.014 538.301,916.185Z" style="fill:white;"/>
            <g transform="matrix(1,0,0,1,14.015,26.4465)">
                <path d="M448.696,874.599C449.709,876.516 450.052,878.138 449.654,879.473C449.072,881.424 447.01,882.397 444.859,882.654C441,883.114 436.493,880.979 435.581,875.5C433.714,864.28 441.606,857.258 451.391,856.318C467.923,854.731 488.667,869.452 486.471,907.157C486.342,909.361 488.027,911.254 490.231,911.383C492.435,911.511 494.329,909.826 494.457,907.622C497.531,854.854 460.482,841.753 440.857,850.979C431.632,855.316 425.615,864.342 427.69,876.814C429.461,887.459 438.307,891.492 445.807,890.597C451.232,889.95 455.852,886.681 457.32,881.76C458.203,878.801 458.015,875.11 455.768,870.86C454.737,868.909 452.314,868.162 450.363,869.193C448.411,870.225 447.664,872.647 448.696,874.599Z" style="fill:white;"/>
            </g>
            <g transform="matrix(-1,0,0,1,1043.3,26.4465)">
                <path d="M455.768,870.86C458.633,876.279 458.198,880.783 456.327,884.096C454.436,887.444 450.868,889.728 446.734,890.46C439.052,891.82 429.535,887.902 427.69,876.814C425.615,864.342 431.632,855.316 440.857,850.979C460.482,841.753 497.531,854.854 494.457,907.622C494.329,909.826 492.435,911.511 490.231,911.383C488.027,911.254 486.342,909.361 486.471,907.157C488.667,869.452 467.923,854.731 451.391,856.318C441.606,857.258 433.714,864.28 435.581,875.5C436.493,880.979 441,883.114 444.859,882.654C447.01,882.397 449.072,881.424 449.654,879.473C450.052,878.138 449.709,876.516 448.696,874.599C447.664,872.647 448.411,870.225 450.363,869.193C452.314,868.162 454.737,868.909 455.768,870.86Z" style="fill:white;"/>
            </g>
            <g transform="matrix(1,0,0,1,11.5907,33.1927)">
                <path d="M520.657,912.964C524.096,890.547 525.847,869.529 509.602,851.792C508.111,850.164 505.579,850.053 503.951,851.544C502.323,853.035 502.211,855.567 503.702,857.195C518.154,872.974 515.809,891.808 512.75,911.751C512.415,913.933 513.915,915.976 516.097,916.311C518.279,916.646 520.322,915.146 520.657,912.964Z" style="fill:white;"/>
            </g>
            <g transform="matrix(0.64209,0,0,0.64209,196.396,336.05)">
                <path d="M542.406,866.773C542.406,841.274 545.26,823.452 568.288,804.521C570.944,802.338 571.328,798.409 569.144,795.753C566.961,793.097 563.032,792.713 560.376,794.897C533.716,816.814 529.946,837.251 529.946,866.773C529.946,870.211 532.738,873.002 536.176,873.002C539.614,873.002 542.406,870.211 542.406,866.773Z" style="fill:white;"/>
            </g>
            <g transform="matrix(1,0,0,1,26.3242,16.1059)">
                <path d="M567.378,821.757C559.136,821.757 552.445,828.448 552.445,836.69C552.445,844.932 559.136,851.624 567.378,851.624C575.62,851.624 582.311,844.932 582.311,836.69C582.311,828.448 575.62,821.757 567.378,821.757ZM567.378,829.757C571.205,829.757 574.311,832.864 574.311,836.69C574.311,840.517 571.205,843.624 567.378,843.624C563.551,843.624 560.445,840.517 560.445,836.69C560.445,832.864 563.551,829.757 567.378,829.757Z" style="fill:white;"/>
            </g>
            <g transform="matrix(1.12063,-0.455551,0.455551,1.12063,-430.05,153.038)">
                <path d="M491.717,810.326L497.063,798.804C497.604,797.637 498.775,796.889 500.062,796.889C501.35,796.889 502.52,797.637 503.062,798.804L508.407,810.326L521.016,811.849C522.294,812.003 523.366,812.885 523.764,814.11C524.162,815.334 523.813,816.678 522.87,817.554L513.564,826.198L516.012,838.661C516.26,839.924 515.752,841.216 514.711,841.973C513.669,842.73 512.283,842.813 511.158,842.187L500.062,836.008L488.966,842.187C487.841,842.813 486.455,842.73 485.414,841.973C484.372,841.216 483.864,839.924 484.112,838.661L486.56,826.198L477.255,817.554C476.311,816.678 475.962,815.334 476.36,814.11C476.758,812.885 477.83,812.003 479.108,811.849L491.717,810.326ZM500.062,808.053L496.942,814.779C496.46,815.818 495.475,816.533 494.339,816.67L486.977,817.56L492.41,822.606C493.249,823.385 493.625,824.542 493.404,825.666L491.975,832.942L498.453,829.334C499.454,828.777 500.671,828.777 501.671,829.334L508.149,832.942L506.72,825.666C506.499,824.542 506.875,823.385 507.714,822.606L513.147,817.56L505.786,816.67C504.649,816.533 503.664,815.818 503.183,814.779L500.062,808.053Z" style="fill:white;"/>
            </g>
        </g>
    </g>
</svg>
