<?xml version="1.0" encoding="UTF-8" standalone="no"?>
<!DOCTYPE svg PUBLIC "-//W3C//DTD SVG 1.1//EN" "http://www.w3.org/Graphics/SVG/1.1/DTD/svg11.dtd">
<svg width="100%" height="100%" viewBox="0 0 512 512" version="1.1" xmlns="http://www.w3.org/2000/svg" xmlns:xlink="http://www.w3.org/1999/xlink" xml:space="preserve" xmlns:serif="http://www.serif.com/" style="fill-rule:evenodd;clip-rule:evenodd;stroke-linejoin:round;stroke-miterlimit:2;">
    <g id="PhotoIcon" transform="matrix(5.3707,0,0,5.30713,-8453.91,-900.858)">
        <path d="M1660.41,256.645L1583.08,256.645C1580.03,256.645 1577.56,254.17 1577.56,251.121L1577.56,199.572C1577.56,196.522 1580.03,194.047 1583.08,194.047L1593.58,194.047C1595.62,194.047 1597.37,193.035 1598.38,191.257L1603.59,182.108C1604.6,180.33 1606.34,179.318 1608.39,179.318L1635.1,179.318C1637.15,179.318 1638.89,180.33 1639.9,182.108L1645.11,191.257C1646.13,193.035 1647.87,194.047 1649.91,194.047L1660.41,194.047C1663.46,194.047 1665.93,196.522 1665.93,199.572L1665.93,251.121C1665.93,254.17 1663.46,256.645 1660.41,256.645ZM1621.75,201.412C1609.54,201.412 1599.65,211.304 1599.65,223.504C1599.65,235.707 1609.54,245.598 1621.75,245.598C1633.95,245.598 1643.84,235.707 1643.84,223.504C1643.84,211.304 1633.95,201.412 1621.75,201.412ZM1621.75,234.55C1615.64,234.55 1610.7,229.607 1610.7,223.504C1610.7,217.403 1615.64,212.459 1621.75,212.459C1627.85,212.459 1632.79,217.403 1632.79,223.504C1632.79,229.607 1627.85,234.55 1621.75,234.55ZM1589.97,200.702C1592.06,200.702 1593.75,202.398 1593.75,204.487C1593.75,206.577 1592.06,208.273 1589.97,208.273C1587.88,208.273 1586.18,206.577 1586.18,204.487C1586.18,202.398 1587.88,200.702 1589.97,200.702Z" style="fill:white;"/>
    </g>
</svg>
