<?xml version="1.0" encoding="UTF-8" standalone="no"?>
<!DOCTYPE svg PUBLIC "-//W3C//DTD SVG 1.1//EN" "http://www.w3.org/Graphics/SVG/1.1/DTD/svg11.dtd">
<svg width="100%" height="100%" viewBox="0 0 512 512" version="1.1" xmlns="http://www.w3.org/2000/svg" xmlns:xlink="http://www.w3.org/1999/xlink" xml:space="preserve" xmlns:serif="http://www.serif.com/" style="fill-rule:evenodd;clip-rule:evenodd;stroke-linejoin:round;stroke-miterlimit:2;">
    <g id="Plant" transform="matrix(2.24187,0,0,2.24187,-1291.91,-172.573)">
        <g transform="matrix(0.694215,0,0,1.12449,-464.403,-860.662)">
            <path d="M1673.15,894.611C1673.15,892.969 1670.99,891.636 1668.33,891.636L1658.69,891.636C1656.03,891.636 1653.87,892.969 1653.87,894.611L1653.87,998.716C1653.87,1000.36 1656.03,1001.69 1658.69,1001.69L1668.33,1001.69C1670.99,1001.69 1673.15,1000.36 1673.15,998.716L1673.15,894.611Z" style="fill:rgb(0,102,90);"/>
        </g>
        <g transform="matrix(0.928799,0,0,0.928799,-856.628,-670.161)">
            <path d="M1705.41,995.721C1705.41,986.955 1698.3,979.838 1689.53,979.838L1641.83,979.838C1633.07,979.838 1625.95,986.955 1625.95,995.721L1631.95,1034.42C1631.95,1043.18 1639.07,1050.3 1647.83,1050.3L1683.53,1050.3C1692.3,1050.3 1699.41,1043.18 1699.41,1034.42L1705.41,995.721Z" style="fill:rgb(247,141,60);"/>
            <clipPath id="_clip1">
                <path d="M1705.41,995.721C1705.41,986.955 1698.3,979.838 1689.53,979.838L1641.83,979.838C1633.07,979.838 1625.95,986.955 1625.95,995.721L1631.95,1034.42C1631.95,1043.18 1639.07,1050.3 1647.83,1050.3L1683.53,1050.3C1692.3,1050.3 1699.41,1043.18 1699.41,1034.42L1705.41,995.721Z"/>
            </clipPath>
            <g clip-path="url(#_clip1)">
                <g transform="matrix(0.590677,0,0,0.545807,681.789,450.396)">
                    <rect x="1665.65" y="967.648" width="81.434" height="135.626" style="fill:rgb(245,125,33);"/>
                </g>
                <g transform="matrix(1.25515,0,0,0.124596,-479.103,874.966)">
                    <rect x="1665.65" y="967.648" width="81.434" height="135.626" style="fill:rgb(245,125,33);"/>
                </g>
            </g>
        </g>
        <g transform="matrix(0.892112,0,0,0.892112,575.44,77.0949)">
            <path d="M176.653,188.248C176.653,184.936 173.964,182.247 170.651,182.247L87.199,182.247C83.887,182.247 81.197,184.936 81.197,188.248L81.197,200.251C81.197,203.564 83.887,206.253 87.199,206.253L170.651,206.253C173.964,206.253 176.653,203.564 176.653,200.251L176.653,188.248Z" style="fill:rgb(247,141,60);"/>
            <clipPath id="_clip2">
                <path d="M176.653,188.248C176.653,184.936 173.964,182.247 170.651,182.247L87.199,182.247C83.887,182.247 81.197,184.936 81.197,188.248L81.197,200.251C81.197,203.564 83.887,206.253 87.199,206.253L170.651,206.253C173.964,206.253 176.653,203.564 176.653,200.251L176.653,188.248Z"/>
            </clipPath>
            <g clip-path="url(#_clip2)">
                <g transform="matrix(0.614968,0,0,0.210535,-895.429,-22.5617)">
                    <rect x="1665.65" y="967.648" width="81.434" height="135.626" style="fill:rgb(245,125,33);fill-opacity:0.55;"/>
                </g>
            </g>
        </g>
        <g transform="matrix(1,0,0,1,-0.0414866,-7.87018)">
            <g transform="matrix(-0.5,0.866025,0.866025,0.5,900.892,-531.987)">
                <g transform="matrix(-0.694215,-3.21038e-16,-1.94742e-16,0.406226,1910.05,-208.906)">
                    <path d="M1673.15,899.871C1673.15,895.326 1670.99,891.636 1668.33,891.636L1658.69,891.636C1656.03,891.636 1653.87,895.326 1653.87,899.871L1653.87,993.456C1653.87,998.001 1656.03,1001.69 1658.69,1001.69L1668.33,1001.69C1670.99,1001.69 1673.15,998.001 1673.15,993.456L1673.15,899.871Z" style="fill:rgb(0,102,90);"/>
                </g>
                <g transform="matrix(-0.892112,1.48567e-16,1.48567e-16,0.892112,874.289,75.969)">
                    <ellipse cx="133.651" cy="50.597" rx="38.097" ry="50.174" style="fill:rgb(51,199,120);"/>
                    <clipPath id="_clip3">
                        <ellipse cx="133.651" cy="50.597" rx="38.097" ry="50.174"/>
                    </clipPath>
                    <g clip-path="url(#_clip3)">
                        <g transform="matrix(0.853451,0,0,0.852146,-1286.43,-697.124)">
                            <rect x="1662.74" y="814.242" width="55.864" height="126.083" style="fill:rgb(30,168,97);"/>
                        </g>
                    </g>
                </g>
            </g>
            <g transform="matrix(0.5,0.866025,-0.866025,0.5,480.103,-531.987)">
                <g transform="matrix(-0.694215,-3.21038e-16,-1.94742e-16,0.406226,1910.05,-208.906)">
                    <path d="M1673.15,899.871C1673.15,895.326 1670.99,891.636 1668.33,891.636L1658.69,891.636C1656.03,891.636 1653.87,895.326 1653.87,899.871L1653.87,993.456C1653.87,998.001 1656.03,1001.69 1658.69,1001.69L1668.33,1001.69C1670.99,1001.69 1673.15,998.001 1673.15,993.456L1673.15,899.871Z" style="fill:rgb(0,102,90);"/>
                </g>
                <g transform="matrix(-0.892112,1.48567e-16,1.48567e-16,0.892112,874.289,75.969)">
                    <ellipse cx="133.651" cy="50.597" rx="38.097" ry="50.174" style="fill:rgb(51,199,120);"/>
                    <clipPath id="_clip4">
                        <ellipse cx="133.651" cy="50.597" rx="38.097" ry="50.174"/>
                    </clipPath>
                    <g clip-path="url(#_clip4)">
                        <g transform="matrix(0.853451,0,0,0.852146,-1286.43,-697.124)">
                            <rect x="1662.74" y="814.242" width="55.864" height="126.083" style="fill:rgb(30,168,97);"/>
                        </g>
                    </g>
                </g>
            </g>
        </g>
        <g transform="matrix(0.892112,0,0,0.892112,571.224,77.0006)">
            <ellipse cx="133.651" cy="50.597" rx="38.097" ry="50.174" style="fill:rgb(51,199,120);"/>
            <clipPath id="_clip5">
                <ellipse cx="133.651" cy="50.597" rx="38.097" ry="50.174"/>
            </clipPath>
            <g clip-path="url(#_clip5)">
                <g transform="matrix(0.853451,0,0,0.852146,-1286.43,-697.124)">
                    <rect x="1662.74" y="814.242" width="55.864" height="126.083" style="fill:rgb(30,168,97);"/>
                </g>
            </g>
        </g>
    </g>
</svg>
