<?xml version="1.0" encoding="UTF-8" standalone="no"?>
<!DOCTYPE svg PUBLIC "-//W3C//DTD SVG 1.1//EN" "http://www.w3.org/Graphics/SVG/1.1/DTD/svg11.dtd">
<svg width="100%" height="100%" viewBox="0 0 512 512" version="1.1" xmlns="http://www.w3.org/2000/svg" xmlns:xlink="http://www.w3.org/1999/xlink" xml:space="preserve" xmlns:serif="http://www.serif.com/" style="fill-rule:evenodd;clip-rule:evenodd;stroke-linejoin:round;stroke-miterlimit:2;">
    <g id="PlaneIcon" transform="matrix(2.8773,1.76184e-16,-1.76184e-16,2.8773,-5718.83,-3326.92)">
        <g transform="matrix(0.522648,0,0,0.522648,989.301,962.752)">
            <g>
                <g transform="matrix(1,-6.16298e-33,6.16298e-33,1,-414.421,-462.741)">
                    <path d="M2398.86,973.486C2398.86,966.329 2393.05,960.519 2385.9,960.519C2378.74,960.519 2372.93,966.329 2372.93,973.486L2372.93,989.073C2372.93,996.23 2378.74,1002.04 2385.9,1002.04C2393.05,1002.04 2398.86,996.23 2398.86,989.073L2398.86,973.486Z" style="fill:white;"/>
                </g>
                <g transform="matrix(1,-6.16298e-33,6.16298e-33,1,-371.863,-468.728)">
                    <path d="M2398.86,973.486C2398.86,966.329 2393.05,960.519 2385.9,960.519C2378.74,960.519 2372.93,966.329 2372.93,973.486L2372.93,989.073C2372.93,996.23 2378.74,1002.04 2385.9,1002.04C2393.05,1002.04 2398.86,996.23 2398.86,989.073L2398.86,973.486Z" style="fill:white;"/>
                </g>
            </g>
            <g>
                <g transform="matrix(-1,6.16298e-33,6.16298e-33,1,4575.03,-462.741)">
                    <path d="M2398.86,973.486C2398.86,966.329 2393.05,960.519 2385.9,960.519C2378.74,960.519 2372.93,966.329 2372.93,973.486L2372.93,989.073C2372.93,996.23 2378.74,1002.04 2385.9,1002.04C2393.05,1002.04 2398.86,996.23 2398.86,989.073L2398.86,973.486Z" style="fill:white;"/>
                </g>
                <g transform="matrix(-1,6.16298e-33,6.16298e-33,1,4532.48,-468.728)">
                    <path d="M2398.86,973.486C2398.86,966.329 2393.05,960.519 2385.9,960.519C2378.74,960.519 2372.93,966.329 2372.93,973.486L2372.93,989.073C2372.93,996.23 2378.74,1002.04 2385.9,1002.04C2393.05,1002.04 2398.86,996.23 2398.86,989.073L2398.86,973.486Z" style="fill:white;"/>
                </g>
            </g>
        </g>
        <g transform="matrix(1.87743,-1.00153e-16,1.00153e-16,1.87743,-2003.7,1154.82)">
            <path d="M2161.45,38.209C2161.91,43.51 2162.45,48.982 2163.06,54.295C2152.56,52.968 2130.57,50.08 2129.5,49.034C2128.09,47.657 2129.75,42.936 2131.56,42.092C2133.02,41.406 2153.74,39.063 2161.45,38.209Z" style="fill:white;"/>
        </g>
        <g transform="matrix(1.87743,-1.00153e-16,1.00153e-16,1.87743,-1999.94,1154.82)">
            <path d="M2183.45,38.237C2191.35,39.113 2211.64,41.413 2213.09,42.092C2214.89,42.936 2216.55,47.657 2215.14,49.034C2214.09,50.066 2192.67,52.89 2182.01,54.241C2182.62,48.877 2183.11,43.412 2183.45,38.237Z" style="fill:white;"/>
        </g>
        <g transform="matrix(0.522648,0,0,0.522648,990.096,962.752)">
            <g transform="matrix(-0.559727,0,0,0.559727,3671.93,-37.6124)">
                <path d="M2811.22,1149.3C2811.22,1149.3 2777.6,1182.44 2771.47,1194.21C2765.34,1205.98 2765.56,1268.5 2776.36,1270.3C2787.15,1272.09 2832.74,1223.43 2832.74,1223.43L2811.22,1149.3Z" style="fill:white;"/>
            </g>
            <g transform="matrix(0.559727,0,0,0.559727,485.642,-37.6124)">
                <path d="M2811.22,1149.3C2811.22,1149.3 2777.6,1182.44 2771.47,1194.21C2765.34,1205.98 2765.56,1268.5 2776.36,1270.3C2787.15,1272.09 2832.74,1223.43 2832.74,1223.43L2811.22,1149.3Z" style="fill:white;"/>
            </g>
        </g>
        <g transform="matrix(0.480496,-2.56324e-17,2.56324e-17,0.480496,918.325,1144.17)">
            <path d="M2410.78,65.584C2441.61,65.584 2452.44,86.094 2448.39,164.545C2444.33,243.259 2428.41,350.25 2410.78,350.25C2393.15,350.25 2379.79,247.894 2373.17,164.545C2366.95,86.237 2379.96,65.584 2410.78,65.584ZM2410.52,71.006L2410.58,71.006C2425.55,71.006 2437.72,83.196 2437.72,98.21C2437.72,102.007 2434.67,108.775 2431.21,108.907C2424.19,109.177 2421.77,92.401 2410.58,92.401L2410.55,92.402L2410.55,92.402L2410.52,92.402L2410.49,92.402L2410.49,92.402L2410.46,92.401C2399.27,92.401 2396.85,109.177 2389.83,108.907C2386.37,108.775 2383.32,102.007 2383.32,98.21C2383.32,83.196 2395.48,71.006 2410.46,71.006L2410.52,71.006Z" style="fill:white;"/>
        </g>
    </g>
</svg>
