<?xml version="1.0" encoding="UTF-8" standalone="no"?>
<!DOCTYPE svg PUBLIC "-//W3C//DTD SVG 1.1//EN" "http://www.w3.org/Graphics/SVG/1.1/DTD/svg11.dtd">
<svg width="100%" height="100%" viewBox="0 0 512 512" version="1.1" xmlns="http://www.w3.org/2000/svg" xmlns:xlink="http://www.w3.org/1999/xlink" xml:space="preserve" xmlns:serif="http://www.serif.com/" style="fill-rule:evenodd;clip-rule:evenodd;stroke-linecap:round;stroke-linejoin:round;stroke-miterlimit:1.5;">
    <g id="Planet" transform="matrix(1.93208,0,0,1.93208,0,16.9796)">
        <g transform="matrix(0.982031,0,0,0.959446,4.55538,-2.15808)">
            <path d="M193.653,94.059C229.465,100.544 253.515,112.518 253.515,126.204C253.515,146.784 199.14,163.491 132.164,163.491C65.188,163.491 10.812,146.784 10.812,126.204C10.812,113.079 32.933,101.528 66.335,94.883" style="fill:none;stroke:white;stroke-width:10.99px;"/>
        </g>
        <g transform="matrix(0.517578,0,0,0.517578,0,-8.78825)">
            <path d="M136.573,351.755C171.738,357.644 212.508,361.093 256,361.093C299.195,361.093 339.706,357.691 374.701,351.875C346.671,386.616 303.754,408.853 255.685,408.853C207.558,408.853 164.597,386.564 136.573,351.755ZM102.847,253.835C104.01,170.465 172.048,103.147 255.685,103.147C318.188,103.147 371.98,140.744 395.66,194.54L394.86,207.147C396.957,207.634 399.02,208.133 401.047,208.643C405.714,222.956 408.323,238.195 408.525,254.009C369.446,264.838 315.499,271.34 256,271.34C196.186,271.34 141.984,264.769 102.847,253.835ZM172.458,164.517C186.493,156.414 203.26,159.142 209.878,170.605C216.496,182.068 210.475,197.953 196.44,206.056C182.406,214.158 165.639,211.43 159.021,199.968C152.403,188.505 158.424,172.62 172.458,164.517ZM252.887,185.609C259.776,180.324 268.873,180.602 273.19,186.228C277.506,191.855 275.418,200.714 268.529,205.998C261.64,211.283 252.543,211.006 248.227,205.379C243.91,199.753 245.999,190.894 252.887,185.609ZM243.377,127.746C253.637,126.609 262.613,131.517 263.409,138.698C264.204,145.879 256.52,152.632 246.26,153.769C235.999,154.906 227.023,149.998 226.227,142.817C225.432,135.636 233.116,128.883 243.377,127.746Z" style="fill:white;"/>
        </g>
    </g>
</svg>
