<?xml version="1.0" encoding="UTF-8" standalone="no"?>
<!DOCTYPE svg PUBLIC "-//W3C//DTD SVG 1.1//EN" "http://www.w3.org/Graphics/SVG/1.1/DTD/svg11.dtd">
<svg width="100%" height="100%" viewBox="0 0 512 512" version="1.1" xmlns="http://www.w3.org/2000/svg" xmlns:xlink="http://www.w3.org/1999/xlink" xml:space="preserve" xmlns:serif="http://www.serif.com/" style="fill-rule:evenodd;clip-rule:evenodd;stroke-linejoin:round;stroke-miterlimit:2;">
    <g id="PlantIcon" transform="matrix(3.28013,0,0,3.28013,-4922.04,-2942.88)">
        <g transform="matrix(1.26775,0,0,1.26775,1186.07,849.265)">
            <path d="M296.713,128.67C291.149,131.711 281.454,128.573 273.738,120.857C265.118,112.237 262.211,101.146 267.252,96.105C272.292,91.065 283.383,93.971 292.004,102.591C299.722,110.309 302.859,120.008 299.814,125.571L279.449,108.306L296.713,128.67Z" style="fill:white;"/>
        </g>
        <g transform="matrix(1.26775,0,0,1.26775,1186.07,849.265)">
            <path d="M307.141,98.699C299.497,95.745 293.782,84.049 293.782,70.089C293.782,53.901 301.466,40.759 310.932,40.759C320.397,40.759 328.082,53.901 328.082,70.089C328.082,84.049 322.366,95.745 314.722,98.699L310.932,62.11L307.141,98.699Z" style="fill:white;"/>
        </g>
        <g transform="matrix(1.26775,0,0,1.26775,1186.07,849.265)">
            <path d="M307.141,98.699C308.361,99.17 309.629,99.419 310.932,99.419C312.234,99.419 313.503,99.17 314.722,98.699L320.862,157.965L301.001,157.965L307.141,98.699Z" style="fill:white;"/>
        </g>
        <g transform="matrix(1.26775,0,0,1.26775,1186.07,849.265)">
            <path d="M319.582,115.05C316.324,109.526 319.441,99.668 327.264,91.845C335.884,83.224 346.975,80.318 352.016,85.359C357.056,90.399 354.15,101.49 345.53,110.11C337.856,117.784 328.226,120.929 322.647,117.973L335.906,101.727L319.582,115.05Z" style="fill:white;"/>
        </g>
        <g transform="matrix(1.26775,0,0,1.26775,1186.07,849.265)">
            <path d="M319.582,115.05C319.914,115.613 320.312,116.13 320.778,116.597C321.332,117.15 321.959,117.608 322.647,117.973L315.843,126.31L311.323,121.79L319.582,115.05Z" style="fill:white;"/>
        </g>
        <g transform="matrix(1.26775,0,0,1.26775,1186.07,849.265)">
            <path d="M299.814,125.571L309.143,133.48L304.623,138L296.713,128.67C297.365,128.313 297.961,127.872 298.49,127.343C299.017,126.815 299.458,126.221 299.814,125.571Z" style="fill:white;"/>
        </g>
    </g>
</svg>
