<?xml version="1.0" encoding="UTF-8" standalone="no"?>
<!DOCTYPE svg PUBLIC "-//W3C//DTD SVG 1.1//EN" "http://www.w3.org/Graphics/SVG/1.1/DTD/svg11.dtd">
<svg width="100%" height="100%" viewBox="0 0 512 512" version="1.1" xmlns="http://www.w3.org/2000/svg" xmlns:xlink="http://www.w3.org/1999/xlink" xml:space="preserve" xmlns:serif="http://www.serif.com/" style="fill-rule:evenodd;clip-rule:evenodd;stroke-linejoin:round;stroke-miterlimit:2;">
    <g id="PoisonIcon" transform="matrix(8.25451,0,0,8.25451,-14079,-8173.99)">
        <g transform="matrix(1,0,0,1,2.22634,-0.946981)">
            <path d="M1734.4,993.294C1750.36,993.294 1763.31,1006.25 1763.31,1022.21C1763.31,1038.16 1750.36,1051.12 1734.4,1051.12C1718.44,1051.12 1705.49,1038.16 1705.49,1022.21C1705.49,1006.25 1718.44,993.294 1734.4,993.294ZM1734.4,997.141C1748.23,997.141 1759.47,1008.37 1759.47,1022.21C1759.47,1036.04 1748.23,1047.27 1734.4,1047.27C1720.57,1047.27 1709.34,1036.04 1709.34,1022.21C1709.34,1008.37 1720.57,997.141 1734.4,997.141Z" style="fill:white;"/>
        </g>
        <g transform="matrix(1,0,0,1,-0.426068,0.898522)">
            <circle cx="1737.05" cy="1020.36" r="3.53" style="fill:white;"/>
        </g>
        <g transform="matrix(1.10575,0,0,1.10575,-183.656,-108.085)">
            <path d="M1740.37,1026.38L1747.54,1036.62C1741.56,1040.81 1733.69,1041.16 1727.37,1037.51L1733.55,1026.81C1734.46,1027.31 1735.51,1027.6 1736.63,1027.6C1738.02,1027.6 1739.32,1027.15 1740.37,1026.38ZM1739.41,1015.56L1744.7,1004.21C1751.32,1007.3 1755.55,1013.94 1755.55,1021.24L1742.97,1021.24C1742.96,1018.74 1741.51,1016.59 1739.41,1015.56ZM1734.06,1015.45C1731.84,1016.44 1730.29,1018.65 1730.28,1021.24L1717.98,1021.24C1717.98,1013.94 1722.2,1007.3 1728.82,1004.21L1734.06,1015.45Z" style="fill:white;"/>
        </g>
    </g>
</svg>
