<?xml version="1.0" encoding="UTF-8" standalone="no"?>
<!DOCTYPE svg PUBLIC "-//W3C//DTD SVG 1.1//EN" "http://www.w3.org/Graphics/SVG/1.1/DTD/svg11.dtd">
<svg width="100%" height="100%" viewBox="0 0 512 512" version="1.1" xmlns="http://www.w3.org/2000/svg" xmlns:xlink="http://www.w3.org/1999/xlink" xml:space="preserve" xmlns:serif="http://www.serif.com/" style="fill-rule:evenodd;clip-rule:evenodd;stroke-linejoin:round;stroke-miterlimit:2;">
    <g id="PotionFull" transform="matrix(7.59721,0,0,7.59721,-1173.34,-3112.28)">
        <g transform="matrix(0.4383,0,0,0.4383,-431.04,6.80246)">
            <g transform="matrix(1,0,0,1.03581,-450.179,-258.503)">
                <path d="M1894.45,1148.54C1894.45,1146.04 1892.34,1144 1889.75,1144L1836.37,1144C1833.77,1144 1831.66,1146.04 1831.66,1148.54L1831.66,1157.62C1831.66,1160.12 1833.77,1162.16 1836.37,1162.16L1889.75,1162.16C1892.34,1162.16 1894.45,1160.12 1894.45,1157.62L1894.45,1148.54Z" style="fill:white;"/>
            </g>
            <g transform="matrix(1,0,0,1,-7.67835,-2.342)">
                <path d="M1438.27,980.341L1488.65,1038.09L1488.71,1038.15L1488.76,1038.21L1488.81,1038.27L1488.87,1038.34L1488.92,1038.4L1488.97,1038.46L1489.02,1038.53L1489.08,1038.59L1489.13,1038.65L1489.18,1038.72L1489.23,1038.78L1489.28,1038.85L1489.33,1038.91L1489.38,1038.98L1489.43,1039.04L1489.48,1039.11L1489.53,1039.17L1489.58,1039.24L1489.63,1039.3L1489.67,1039.37L1489.72,1039.44L1489.77,1039.5L1489.82,1039.57L1489.86,1039.64L1489.91,1039.7L1489.95,1039.77L1490,1039.84L1490.05,1039.9L1490.09,1039.97L1490.14,1040.04L1490.18,1040.11L1490.23,1040.18L1490.27,1040.25L1490.31,1040.31L1490.36,1040.38L1490.4,1040.45L1490.44,1040.52L1490.48,1040.59L1490.52,1040.66L1490.57,1040.73L1490.61,1040.8L1490.65,1040.87L1490.69,1040.94L1490.73,1041.01L1490.77,1041.08L1490.81,1041.15L1490.85,1041.22L1490.88,1041.29L1490.92,1041.36L1490.96,1041.43L1491,1041.5L1491.04,1041.57L1491.07,1041.64L1491.11,1041.71L1491.15,1041.79L1491.18,1041.86L1491.22,1041.93L1491.26,1042L1491.29,1042.07L1491.33,1042.15L1491.36,1042.22L1491.39,1042.29L1491.43,1042.36L1491.46,1042.44L1491.49,1042.51L1491.53,1042.58L1491.56,1042.66L1491.59,1042.73L1491.62,1042.8L1491.65,1042.88L1491.68,1042.95L1491.72,1043.02L1491.75,1043.1L1491.78,1043.17L1491.81,1043.25L1491.84,1043.32L1491.87,1043.39L1491.89,1043.47L1491.92,1043.54L1491.95,1043.62L1491.98,1043.69L1492.01,1043.77L1492.03,1043.84L1492.06,1043.92L1492.09,1043.99L1492.11,1044.07L1492.14,1044.14L1492.16,1044.22L1492.19,1044.3L1492.21,1044.37L1492.24,1044.45L1492.26,1044.52L1492.28,1044.6L1492.31,1044.67L1492.33,1044.75L1492.35,1044.83L1492.38,1044.9L1492.4,1044.98L1492.42,1045.06L1492.44,1045.13L1492.46,1045.21L1492.48,1045.29L1492.5,1045.36L1492.52,1045.44L1492.54,1045.52L1492.56,1045.6L1492.58,1045.67L1492.6,1045.75L1492.62,1045.83L1492.63,1045.9L1492.65,1045.98L1492.67,1046.06L1492.69,1046.14L1492.7,1046.21L1492.72,1046.29L1492.74,1046.37L1492.75,1046.45L1492.77,1046.53L1492.78,1046.61L1492.79,1046.68L1492.81,1046.76L1492.82,1046.84L1492.84,1046.92L1492.85,1047L1492.86,1047.07L1492.87,1047.15L1492.89,1047.23L1492.9,1047.31L1492.91,1047.39L1492.92,1047.47L1492.93,1047.55L1492.94,1047.62L1492.95,1047.7L1492.96,1047.78L1492.97,1047.86L1492.98,1047.94L1492.99,1048.02L1493,1048.1L1493,1048.18L1493.01,1048.26L1493.02,1048.34L1493.03,1048.41L1493.03,1048.49L1493.04,1048.57L1493.04,1048.65L1493.05,1048.73L1493.05,1048.81L1493.06,1048.89L1493.06,1048.97L1493.07,1049.05L1493.07,1049.13L1493.07,1049.21L1493.08,1049.29L1493.08,1049.37L1493.08,1049.44L1493.08,1049.53L1493.09,1049.6L1493.09,1049.68L1493.09,1049.76L1493.09,1049.84L1493.09,1049.92L1493.09,1050L1493.09,1050.08L1493.09,1050.16L1493.09,1050.24L1493.08,1050.32L1493.08,1050.4L1493.08,1050.48L1493.08,1050.56L1493.07,1050.64L1493.07,1050.72L1493.07,1050.8L1493.06,1050.88L1493.06,1050.96L1493.05,1051.04L1493.05,1051.12L1493.04,1051.2L1493.04,1051.28L1493.03,1051.36L1493.02,1051.43L1493.02,1051.52L1493.01,1051.59L1493,1051.67L1492.99,1051.75L1492.99,1051.83L1492.98,1051.91L1492.97,1051.99L1492.96,1052.07L1492.95,1052.15L1492.94,1052.23L1492.93,1052.31L1492.92,1052.39L1492.91,1052.47L1492.89,1052.55L1492.88,1052.63L1492.87,1052.71L1492.86,1052.79L1492.85,1052.87L1492.83,1052.94L1492.82,1053.02L1492.8,1053.1L1492.79,1053.18L1492.77,1053.26L1492.76,1053.34L1492.74,1053.42L1492.73,1053.5L1492.71,1053.58L1492.69,1053.65L1492.68,1053.73L1492.66,1053.81L1492.64,1053.89L1492.62,1053.97L1492.61,1054.05L1492.59,1054.13L1492.57,1054.2L1492.55,1054.28L1492.53,1054.36L1492.51,1054.44L1492.49,1054.52L1492.47,1054.6L1492.45,1054.67L1492.43,1054.75L1492.4,1054.83L1492.38,1054.91L1492.36,1054.99L1492.34,1055.07L1492.31,1055.14L1492.29,1055.22L1492.26,1055.3L1492.24,1055.38L1492.21,1055.45L1492.19,1055.53L1492.16,1055.61L1492.14,1055.68L1492.11,1055.76L1492.09,1055.84L1492.06,1055.92L1492.03,1055.99L1492,1056.07L1491.97,1056.15L1491.95,1056.22L1491.92,1056.3L1491.89,1056.38L1491.86,1056.45L1491.83,1056.53L1491.8,1056.61L1491.77,1056.68L1491.74,1056.76L1491.7,1056.83L1491.67,1056.91L1491.64,1056.99L1491.61,1057.06L1491.58,1057.14L1491.54,1057.21L1491.51,1057.29L1491.47,1057.36L1491.44,1057.44L1491.4,1057.51L1491.37,1057.59L1491.33,1057.66L1491.3,1057.74L1491.26,1057.81L1491.23,1057.88L1491.19,1057.96L1491.15,1058.03L1491.12,1058.11L1491.08,1058.18L1491.04,1058.25L1491,1058.32L1490.96,1058.4L1490.92,1058.47L1490.89,1058.54L1490.85,1058.61L1490.81,1058.68L1490.77,1058.76L1490.73,1058.83L1490.69,1058.9L1490.64,1058.97L1490.6,1059.04L1490.56,1059.11L1490.52,1059.18L1490.48,1059.25L1490.44,1059.32L1490.39,1059.39L1490.35,1059.46L1490.31,1059.52L1490.26,1059.59L1490.22,1059.66L1490.18,1059.73L1490.13,1059.8L1490.09,1059.87L1490.04,1059.93L1490,1060L1489.95,1060.07L1489.91,1060.13L1489.86,1060.2L1489.81,1060.27L1489.77,1060.33L1489.72,1060.4L1489.67,1060.46L1489.63,1060.53L1489.58,1060.59L1489.53,1060.66L1489.48,1060.72L1489.43,1060.79L1489.38,1060.85L1489.34,1060.91L1489.29,1060.98L1489.24,1061.04L1489.19,1061.11L1489.14,1061.17L1489.09,1061.23L1489.04,1061.29L1488.99,1061.35L1488.93,1061.42L1488.88,1061.48L1488.83,1061.54L1488.78,1061.6L1488.73,1061.66L1488.67,1061.72L1488.62,1061.78L1488.57,1061.84L1488.52,1061.9L1488.46,1061.96L1488.41,1062.02L1488.35,1062.08L1488.3,1062.14L1488.25,1062.2L1488.19,1062.26L1488.14,1062.31L1488.08,1062.37L1488.03,1062.43L1487.97,1062.49L1487.91,1062.54L1487.86,1062.6L1487.8,1062.66L1487.75,1062.71L1487.69,1062.77L1487.63,1062.82L1487.57,1062.88L1487.52,1062.93L1487.46,1062.99L1487.4,1063.04L1487.34,1063.1L1487.28,1063.15L1487.23,1063.21L1487.17,1063.26L1487.11,1063.31L1487.05,1063.37L1486.99,1063.42L1486.93,1063.47L1486.87,1063.52L1486.81,1063.58L1486.75,1063.63L1486.69,1063.68L1486.62,1063.73L1486.56,1063.78L1486.5,1063.83L1486.44,1063.88L1486.38,1063.93L1486.32,1063.98L1486.26,1064.03L1486.19,1064.08L1486.13,1064.13L1486.07,1064.18L1486,1064.23L1485.94,1064.27L1485.88,1064.32L1485.81,1064.37L1485.75,1064.42L1485.68,1064.46L1485.62,1064.51L1485.56,1064.56L1485.49,1064.6L1485.43,1064.65L1485.36,1064.69L1485.3,1064.74L1485.23,1064.78L1485.16,1064.83L1485.1,1064.87L1485.03,1064.92L1484.97,1064.96L1484.9,1065L1484.83,1065.05L1484.77,1065.09L1484.7,1065.13L1484.63,1065.17L1484.57,1065.22L1484.5,1065.26L1484.43,1065.3L1484.36,1065.34L1484.29,1065.38L1484.23,1065.42L1484.16,1065.46L1484.09,1065.5L1484.02,1065.54L1483.95,1065.58L1483.88,1065.62L1483.81,1065.66L1483.74,1065.7L1483.67,1065.73L1483.6,1065.77L1483.53,1065.81L1483.46,1065.85L1483.39,1065.88L1483.32,1065.92L1483.25,1065.96L1483.18,1065.99L1483.11,1066.03L1483.04,1066.06L1482.96,1066.1L1482.89,1066.13L1482.82,1066.17L1482.75,1066.2L1482.68,1066.23L1482.61,1066.27L1482.53,1066.3L1482.46,1066.33L1482.39,1066.37L1482.32,1066.4L1482.24,1066.43L1482.17,1066.46L1482.1,1066.49L1482.02,1066.52L1481.95,1066.55L1481.88,1066.58L1481.8,1066.61L1481.73,1066.64L1481.65,1066.67L1481.58,1066.7L1481.5,1066.73L1481.43,1066.76L1481.36,1066.79L1481.28,1066.81L1481.2,1066.84L1481.13,1066.87L1481.06,1066.89L1480.98,1066.92L1480.9,1066.95L1480.83,1066.97L1480.75,1067L1480.68,1067.02L1480.6,1067.05L1480.52,1067.07L1480.45,1067.1L1480.37,1067.12L1480.29,1067.14L1480.22,1067.17L1480.14,1067.19L1480.06,1067.21L1479.99,1067.23L1479.91,1067.26L1479.83,1067.28L1479.76,1067.3L1479.68,1067.32L1479.6,1067.34L1479.52,1067.36L1479.44,1067.38L1479.37,1067.4L1479.29,1067.42L1479.21,1067.43L1479.13,1067.45L1479.05,1067.47L1478.97,1067.49L1478.89,1067.51L1478.82,1067.52L1478.74,1067.54L1478.66,1067.56L1478.58,1067.57L1478.5,1067.59L1478.42,1067.6L1478.34,1067.62L1478.26,1067.63L1478.18,1067.64L1478.1,1067.66L1478.02,1067.67L1477.94,1067.68L1477.86,1067.7L1477.78,1067.71L1477.7,1067.72L1477.62,1067.73L1477.54,1067.74L1477.46,1067.76L1477.38,1067.77L1477.3,1067.78L1477.22,1067.79L1477.14,1067.8L1477.06,1067.8L1476.98,1067.81L1476.89,1067.82L1476.81,1067.83L1476.73,1067.84L1476.65,1067.84L1476.57,1067.85L1476.49,1067.86L1476.41,1067.86L1476.33,1067.87L1476.24,1067.88L1476.16,1067.88L1476.08,1067.88L1476,1067.89L1475.91,1067.89L1475.83,1067.9L1475.75,1067.9L1475.67,1067.9L1475.59,1067.9L1475.5,1067.91L1475.42,1067.91L1475.34,1067.91L1475.26,1067.91L1475.17,1067.91L1475.09,1067.91L1366.02,1067.91L1365.94,1067.91L1365.86,1067.91L1365.77,1067.91L1365.69,1067.91L1365.61,1067.91L1365.53,1067.9L1365.44,1067.9L1365.36,1067.9L1365.28,1067.9L1365.2,1067.89L1365.11,1067.89L1365.03,1067.88L1364.95,1067.88L1364.87,1067.88L1364.79,1067.87L1364.7,1067.86L1364.62,1067.86L1364.54,1067.85L1364.46,1067.84L1364.38,1067.84L1364.3,1067.83L1364.22,1067.82L1364.14,1067.81L1364.06,1067.8L1363.97,1067.8L1363.89,1067.79L1363.81,1067.78L1363.73,1067.77L1363.65,1067.76L1363.57,1067.74L1363.49,1067.73L1363.41,1067.72L1363.33,1067.71L1363.25,1067.7L1363.17,1067.68L1363.09,1067.67L1363.01,1067.66L1362.93,1067.64L1362.85,1067.63L1362.77,1067.62L1362.69,1067.6L1362.61,1067.59L1362.53,1067.57L1362.45,1067.56L1362.38,1067.54L1362.3,1067.52L1362.22,1067.51L1362.14,1067.49L1362.06,1067.47L1361.98,1067.45L1361.9,1067.43L1361.83,1067.42L1361.75,1067.4L1361.67,1067.38L1361.59,1067.36L1361.51,1067.34L1361.43,1067.32L1361.36,1067.3L1361.28,1067.28L1361.2,1067.26L1361.12,1067.23L1361.05,1067.21L1360.97,1067.19L1360.89,1067.17L1360.82,1067.14L1360.74,1067.12L1360.66,1067.1L1360.59,1067.07L1360.51,1067.05L1360.44,1067.02L1360.36,1067L1360.28,1066.97L1360.21,1066.95L1360.13,1066.92L1360.06,1066.89L1359.98,1066.87L1359.91,1066.84L1359.83,1066.81L1359.76,1066.79L1359.68,1066.76L1359.61,1066.73L1359.53,1066.7L1359.46,1066.67L1359.38,1066.64L1359.31,1066.61L1359.24,1066.58L1359.16,1066.55L1359.09,1066.52L1359.02,1066.49L1358.94,1066.46L1358.87,1066.43L1358.8,1066.4L1358.72,1066.37L1358.65,1066.33L1358.58,1066.3L1358.51,1066.27L1358.43,1066.23L1358.36,1066.2L1358.29,1066.17L1358.22,1066.13L1358.15,1066.1L1358.08,1066.06L1358,1066.03L1357.93,1065.99L1357.86,1065.96L1357.79,1065.92L1357.72,1065.88L1357.65,1065.85L1357.58,1065.81L1357.51,1065.77L1357.44,1065.73L1357.37,1065.7L1357.3,1065.66L1357.23,1065.62L1357.16,1065.58L1357.09,1065.54L1357.02,1065.5L1356.95,1065.46L1356.89,1065.42L1356.82,1065.38L1356.75,1065.34L1356.68,1065.3L1356.61,1065.26L1356.55,1065.22L1356.48,1065.17L1356.41,1065.13L1356.35,1065.09L1356.28,1065.05L1356.21,1065L1356.14,1064.96L1356.08,1064.92L1356.01,1064.87L1355.95,1064.83L1355.88,1064.78L1355.82,1064.74L1355.75,1064.69L1355.68,1064.65L1355.62,1064.6L1355.56,1064.56L1355.49,1064.51L1355.43,1064.46L1355.36,1064.42L1355.3,1064.37L1355.24,1064.32L1355.17,1064.27L1355.11,1064.23L1355.05,1064.18L1354.98,1064.13L1354.92,1064.08L1354.86,1064.03L1354.8,1063.98L1354.73,1063.93L1354.67,1063.88L1354.61,1063.83L1354.55,1063.78L1354.49,1063.73L1354.43,1063.68L1354.37,1063.63L1354.31,1063.58L1354.24,1063.52L1354.18,1063.47L1354.12,1063.42L1354.07,1063.37L1354.01,1063.31L1353.95,1063.26L1353.89,1063.21L1353.83,1063.15L1353.77,1063.1L1353.71,1063.04L1353.65,1062.99L1353.6,1062.93L1353.54,1062.88L1353.48,1062.82L1353.42,1062.77L1353.37,1062.71L1353.31,1062.66L1353.25,1062.6L1353.2,1062.54L1353.14,1062.49L1353.09,1062.43L1353.03,1062.37L1352.98,1062.31L1352.92,1062.26L1352.87,1062.2L1352.81,1062.14L1352.76,1062.08L1352.7,1062.02L1352.65,1061.96L1352.6,1061.9L1352.54,1061.84L1352.49,1061.78L1352.44,1061.72L1352.38,1061.66L1352.33,1061.6L1352.28,1061.54L1352.23,1061.48L1352.18,1061.42L1352.13,1061.35L1352.08,1061.29L1352.03,1061.23L1351.98,1061.17L1351.92,1061.11L1351.88,1061.04L1351.83,1060.98L1351.78,1060.91L1351.73,1060.85L1351.68,1060.79L1351.63,1060.72L1351.58,1060.66L1351.53,1060.59L1351.49,1060.53L1351.44,1060.46L1351.39,1060.4L1351.34,1060.33L1351.3,1060.27L1351.25,1060.2L1351.2,1060.13L1351.16,1060.07L1351.11,1060L1351.07,1059.93L1351.02,1059.87L1350.98,1059.8L1350.93,1059.73L1350.89,1059.66L1350.85,1059.59L1350.8,1059.52L1350.76,1059.46L1350.72,1059.39L1350.67,1059.32L1350.63,1059.25L1350.59,1059.18L1350.55,1059.11L1350.51,1059.04L1350.47,1058.97L1350.43,1058.9L1350.38,1058.83L1350.35,1058.76L1350.31,1058.68L1350.27,1058.61L1350.23,1058.54L1350.19,1058.47L1350.15,1058.4L1350.11,1058.32L1350.07,1058.25L1350.03,1058.18L1350,1058.11L1349.96,1058.03L1349.92,1057.96L1349.88,1057.88L1349.85,1057.81L1349.81,1057.74L1349.78,1057.66L1349.74,1057.59L1349.71,1057.51L1349.67,1057.44L1349.64,1057.36L1349.6,1057.29L1349.57,1057.21L1349.54,1057.14L1349.5,1057.06L1349.47,1056.99L1349.44,1056.91L1349.41,1056.83L1349.38,1056.76L1349.35,1056.68L1349.31,1056.61L1349.28,1056.53L1349.25,1056.45L1349.22,1056.38L1349.19,1056.3L1349.17,1056.22L1349.14,1056.15L1349.11,1056.07L1349.08,1055.99L1349.05,1055.92L1349.03,1055.84L1349,1055.76L1348.97,1055.68L1348.95,1055.61L1348.92,1055.53L1348.9,1055.45L1348.87,1055.38L1348.85,1055.3L1348.82,1055.22L1348.8,1055.14L1348.78,1055.07L1348.75,1054.99L1348.73,1054.91L1348.71,1054.83L1348.69,1054.75L1348.66,1054.67L1348.64,1054.6L1348.62,1054.52L1348.6,1054.44L1348.58,1054.36L1348.56,1054.28L1348.54,1054.2L1348.52,1054.13L1348.51,1054.05L1348.49,1053.97L1348.47,1053.89L1348.45,1053.81L1348.43,1053.73L1348.42,1053.65L1348.4,1053.58L1348.38,1053.5L1348.37,1053.42L1348.35,1053.34L1348.34,1053.26L1348.32,1053.18L1348.31,1053.1L1348.29,1053.02L1348.28,1052.94L1348.27,1052.87L1348.25,1052.79L1348.24,1052.71L1348.23,1052.63L1348.22,1052.55L1348.21,1052.47L1348.19,1052.39L1348.18,1052.31L1348.17,1052.23L1348.16,1052.15L1348.15,1052.07L1348.14,1051.99L1348.13,1051.91L1348.13,1051.83L1348.12,1051.75L1348.11,1051.67L1348.1,1051.59L1348.1,1051.52L1348.09,1051.43L1348.08,1051.36L1348.08,1051.28L1348.07,1051.2L1348.06,1051.12L1348.06,1051.04L1348.05,1050.96L1348.05,1050.88L1348.05,1050.8L1348.04,1050.72L1348.04,1050.64L1348.04,1050.56L1348.03,1050.48L1348.03,1050.4L1348.03,1050.32L1348.03,1050.24L1348.03,1050.16L1348.03,1050.08L1348.02,1050L1348.02,1049.92L1348.02,1049.84L1348.03,1049.76L1348.03,1049.68L1348.03,1049.6L1348.03,1049.53L1348.03,1049.44L1348.03,1049.37L1348.04,1049.29L1348.04,1049.21L1348.04,1049.13L1348.05,1049.05L1348.05,1048.97L1348.05,1048.89L1348.06,1048.81L1348.06,1048.73L1348.07,1048.65L1348.08,1048.57L1348.08,1048.49L1348.09,1048.41L1348.09,1048.34L1348.1,1048.26L1348.11,1048.18L1348.12,1048.1L1348.12,1048.02L1348.13,1047.94L1348.14,1047.86L1348.15,1047.78L1348.16,1047.7L1348.17,1047.62L1348.18,1047.55L1348.19,1047.47L1348.2,1047.39L1348.21,1047.31L1348.23,1047.23L1348.24,1047.15L1348.25,1047.07L1348.26,1047L1348.28,1046.92L1348.29,1046.84L1348.3,1046.76L1348.32,1046.68L1348.33,1046.61L1348.35,1046.53L1348.36,1046.45L1348.38,1046.37L1348.39,1046.29L1348.41,1046.21L1348.43,1046.14L1348.44,1046.06L1348.46,1045.98L1348.48,1045.9L1348.5,1045.83L1348.51,1045.75L1348.53,1045.67L1348.55,1045.6L1348.57,1045.52L1348.59,1045.44L1348.61,1045.36L1348.63,1045.29L1348.65,1045.21L1348.67,1045.13L1348.69,1045.06L1348.71,1044.98L1348.74,1044.9L1348.76,1044.83L1348.78,1044.75L1348.8,1044.67L1348.83,1044.6L1348.85,1044.52L1348.88,1044.45L1348.9,1044.37L1348.92,1044.3L1348.95,1044.22L1348.98,1044.14L1349,1044.07L1349.03,1043.99L1349.05,1043.92L1349.08,1043.84L1349.11,1043.77L1349.13,1043.69L1349.16,1043.62L1349.19,1043.54L1349.22,1043.47L1349.25,1043.39L1349.28,1043.32L1349.31,1043.25L1349.34,1043.17L1349.37,1043.1L1349.4,1043.02L1349.43,1042.95L1349.46,1042.88L1349.49,1042.8L1349.52,1042.73L1349.55,1042.66L1349.59,1042.58L1349.62,1042.51L1349.65,1042.44L1349.68,1042.36L1349.72,1042.29L1349.75,1042.22L1349.79,1042.15L1349.82,1042.07L1349.86,1042L1349.89,1041.93L1349.93,1041.86L1349.96,1041.79L1350,1041.71L1350.04,1041.64L1350.08,1041.57L1350.11,1041.5L1350.15,1041.43L1350.19,1041.36L1350.23,1041.29L1350.27,1041.22L1350.31,1041.15L1350.34,1041.08L1350.38,1041.01L1350.42,1040.94L1350.46,1040.87L1350.51,1040.8L1350.55,1040.73L1350.59,1040.66L1350.63,1040.59L1350.67,1040.52L1350.71,1040.45L1350.76,1040.38L1350.8,1040.31L1350.84,1040.25L1350.89,1040.18L1350.93,1040.11L1350.98,1040.04L1351.02,1039.97L1351.07,1039.9L1351.11,1039.84L1351.16,1039.77L1351.2,1039.7L1351.25,1039.64L1351.3,1039.57L1351.34,1039.5L1351.39,1039.44L1351.44,1039.37L1351.49,1039.3L1351.53,1039.24L1351.58,1039.17L1351.63,1039.11L1351.68,1039.04L1351.73,1038.98L1351.78,1038.91L1351.83,1038.85L1351.88,1038.78L1351.93,1038.72L1351.98,1038.65L1352.04,1038.59L1352.09,1038.53L1352.14,1038.46L1352.19,1038.4L1352.25,1038.34L1352.3,1038.27L1352.35,1038.21L1352.41,1038.15L1352.46,1038.09L1402.84,980.341L1402.84,933.358L1438.27,933.358L1438.27,980.341ZM1412.17,942.692L1412.17,980.341L1412.08,981.675L1411.79,982.983L1411.32,984.235L1410.68,985.408L1409.87,986.477L1359.5,1044.21L1359.47,1044.25L1359.44,1044.28L1359.41,1044.31L1359.39,1044.34L1359.36,1044.37L1359.34,1044.4L1359.31,1044.43L1359.29,1044.46L1359.26,1044.5L1359.24,1044.53L1359.21,1044.56L1359.19,1044.59L1359.16,1044.62L1359.14,1044.65L1359.12,1044.68L1359.09,1044.71L1359.07,1044.75L1359.05,1044.78L1359.02,1044.81L1359,1044.84L1358.98,1044.87L1358.95,1044.9L1358.93,1044.94L1358.91,1044.97L1358.89,1045L1358.86,1045.03L1358.84,1045.07L1358.82,1045.1L1358.8,1045.13L1358.78,1045.16L1358.76,1045.2L1358.73,1045.23L1358.71,1045.26L1358.69,1045.3L1358.67,1045.33L1358.65,1045.36L1358.63,1045.39L1358.61,1045.43L1358.59,1045.46L1358.57,1045.49L1358.55,1045.53L1358.53,1045.56L1358.51,1045.6L1358.49,1045.63L1358.47,1045.66L1358.45,1045.69L1358.44,1045.73L1358.42,1045.76L1358.4,1045.8L1358.38,1045.83L1358.36,1045.87L1358.34,1045.9L1358.33,1045.93L1358.31,1045.97L1358.29,1046L1358.27,1046.04L1358.26,1046.07L1358.24,1046.11L1358.22,1046.14L1358.21,1046.18L1358.19,1046.21L1358.17,1046.25L1358.16,1046.28L1358.14,1046.32L1358.12,1046.35L1358.11,1046.38L1358.09,1046.42L1358.08,1046.46L1358.06,1046.49L1358.05,1046.53L1358.03,1046.56L1358.02,1046.6L1358,1046.63L1357.99,1046.67L1357.98,1046.7L1357.96,1046.74L1357.95,1046.78L1357.93,1046.81L1357.92,1046.85L1357.91,1046.88L1357.89,1046.92L1357.88,1046.95L1357.87,1046.99L1357.85,1047.03L1357.84,1047.06L1357.83,1047.1L1357.82,1047.14L1357.8,1047.17L1357.79,1047.21L1357.78,1047.25L1357.77,1047.28L1357.76,1047.32L1357.75,1047.36L1357.73,1047.39L1357.72,1047.43L1357.71,1047.46L1357.7,1047.5L1357.69,1047.54L1357.68,1047.58L1357.67,1047.61L1357.66,1047.65L1357.65,1047.69L1357.64,1047.72L1357.63,1047.76L1357.62,1047.8L1357.61,1047.84L1357.6,1047.87L1357.59,1047.91L1357.59,1047.95L1357.58,1047.98L1357.57,1048.02L1357.56,1048.06L1357.55,1048.1L1357.54,1048.13L1357.54,1048.17L1357.53,1048.21L1357.52,1048.25L1357.51,1048.28L1357.51,1048.32L1357.5,1048.36L1357.49,1048.4L1357.49,1048.43L1357.48,1048.47L1357.47,1048.51L1357.47,1048.55L1357.46,1048.59L1357.45,1048.62L1357.45,1048.66L1357.44,1048.7L1357.44,1048.74L1357.43,1048.78L1357.43,1048.81L1357.42,1048.85L1357.42,1048.89L1357.41,1048.93L1357.41,1048.96L1357.41,1049L1357.4,1049.04L1357.4,1049.08L1357.39,1049.12L1357.39,1049.16L1357.39,1049.19L1357.38,1049.23L1357.38,1049.27L1357.38,1049.31L1357.38,1049.35L1357.37,1049.38L1357.37,1049.42L1357.37,1049.46L1357.37,1049.5L1357.37,1049.54L1357.36,1049.58L1357.36,1049.61L1357.36,1049.65L1357.36,1049.69L1357.36,1049.73L1357.36,1049.77L1357.36,1049.81L1357.36,1049.84L1357.36,1049.88L1357.36,1049.92L1357.36,1049.96L1357.36,1050L1357.36,1050.04L1357.36,1050.07L1357.36,1050.11L1357.36,1050.15L1357.36,1050.19L1357.36,1050.23L1357.36,1050.27L1357.37,1050.3L1357.37,1050.34L1357.37,1050.38L1357.37,1050.42L1357.37,1050.46L1357.38,1050.5L1357.38,1050.53L1357.38,1050.57L1357.38,1050.61L1357.39,1050.65L1357.39,1050.69L1357.39,1050.72L1357.4,1050.76L1357.4,1050.8L1357.41,1050.84L1357.41,1050.88L1357.41,1050.92L1357.42,1050.95L1357.42,1050.99L1357.43,1051.03L1357.43,1051.07L1357.44,1051.11L1357.44,1051.14L1357.45,1051.18L1357.46,1051.22L1357.46,1051.26L1357.47,1051.3L1357.47,1051.34L1357.48,1051.37L1357.49,1051.41L1357.49,1051.45L1357.5,1051.49L1357.51,1051.53L1357.52,1051.56L1357.52,1051.6L1357.53,1051.64L1357.54,1051.68L1357.55,1051.71L1357.55,1051.75L1357.56,1051.79L1357.57,1051.83L1357.58,1051.87L1357.59,1051.9L1357.6,1051.94L1357.61,1051.98L1357.62,1052.02L1357.62,1052.06L1357.63,1052.09L1357.64,1052.13L1357.65,1052.17L1357.66,1052.2L1357.68,1052.24L1357.69,1052.28L1357.7,1052.32L1357.71,1052.36L1357.72,1052.39L1357.73,1052.43L1357.74,1052.47L1357.75,1052.5L1357.77,1052.54L1357.78,1052.58L1357.79,1052.62L1357.8,1052.65L1357.81,1052.69L1357.83,1052.73L1357.84,1052.77L1357.85,1052.8L1357.87,1052.84L1357.88,1052.88L1357.89,1052.91L1357.91,1052.95L1357.92,1052.99L1357.93,1053.02L1357.95,1053.06L1357.96,1053.1L1357.98,1053.13L1357.99,1053.17L1358.01,1053.21L1358.02,1053.25L1358.04,1053.28L1358.05,1053.32L1358.07,1053.36L1358.09,1053.39L1358.1,1053.43L1358.12,1053.46L1358.13,1053.5L1358.15,1053.54L1358.17,1053.57L1358.18,1053.61L1358.2,1053.65L1358.22,1053.68L1358.24,1053.72L1358.25,1053.75L1358.27,1053.79L1358.29,1053.82L1358.31,1053.86L1358.33,1053.89L1358.34,1053.93L1358.36,1053.96L1358.38,1054L1358.4,1054.04L1358.42,1054.07L1358.44,1054.1L1358.46,1054.14L1358.48,1054.17L1358.5,1054.21L1358.52,1054.24L1358.53,1054.28L1358.55,1054.31L1358.57,1054.34L1358.59,1054.38L1358.61,1054.41L1358.63,1054.44L1358.65,1054.48L1358.68,1054.51L1358.7,1054.54L1358.72,1054.58L1358.74,1054.61L1358.76,1054.64L1358.78,1054.67L1358.8,1054.71L1358.82,1054.74L1358.85,1054.77L1358.87,1054.8L1358.89,1054.84L1358.91,1054.87L1358.93,1054.9L1358.96,1054.93L1358.98,1054.96L1359,1054.99L1359.02,1055.03L1359.05,1055.06L1359.07,1055.09L1359.09,1055.12L1359.12,1055.15L1359.14,1055.18L1359.16,1055.21L1359.19,1055.24L1359.21,1055.27L1359.24,1055.3L1359.26,1055.33L1359.28,1055.36L1359.31,1055.39L1359.33,1055.42L1359.36,1055.45L1359.38,1055.48L1359.41,1055.51L1359.43,1055.54L1359.46,1055.57L1359.48,1055.6L1359.51,1055.63L1359.53,1055.66L1359.56,1055.68L1359.58,1055.71L1359.61,1055.74L1359.63,1055.77L1359.66,1055.8L1359.69,1055.83L1359.71,1055.86L1359.74,1055.88L1359.77,1055.91L1359.79,1055.94L1359.82,1055.97L1359.85,1055.99L1359.87,1056.02L1359.9,1056.05L1359.93,1056.08L1359.95,1056.1L1359.98,1056.13L1360.01,1056.15L1360.04,1056.18L1360.07,1056.21L1360.09,1056.23L1360.12,1056.26L1360.15,1056.29L1360.18,1056.31L1360.21,1056.34L1360.24,1056.36L1360.26,1056.39L1360.29,1056.41L1360.32,1056.44L1360.35,1056.46L1360.38,1056.49L1360.41,1056.52L1360.44,1056.54L1360.47,1056.56L1360.5,1056.59L1360.53,1056.61L1360.56,1056.64L1360.59,1056.66L1360.62,1056.69L1360.64,1056.71L1360.68,1056.73L1360.71,1056.76L1360.74,1056.78L1360.77,1056.8L1360.8,1056.83L1360.83,1056.85L1360.86,1056.87L1360.89,1056.89L1360.92,1056.92L1360.95,1056.94L1360.98,1056.96L1361.01,1056.99L1361.05,1057.01L1361.08,1057.03L1361.11,1057.05L1361.14,1057.07L1361.17,1057.09L1361.2,1057.12L1361.24,1057.14L1361.27,1057.16L1361.3,1057.18L1361.33,1057.2L1361.36,1057.22L1361.39,1057.24L1361.43,1057.26L1361.46,1057.28L1361.49,1057.3L1361.53,1057.32L1361.56,1057.34L1361.59,1057.36L1361.62,1057.38L1361.66,1057.4L1361.69,1057.42L1361.72,1057.44L1361.76,1057.46L1361.79,1057.47L1361.82,1057.49L1361.86,1057.51L1361.89,1057.53L1361.92,1057.55L1361.96,1057.57L1361.99,1057.59L1362.03,1057.6L1362.06,1057.62L1362.09,1057.64L1362.13,1057.65L1362.16,1057.67L1362.2,1057.69L1362.23,1057.71L1362.27,1057.72L1362.3,1057.74L1362.34,1057.76L1362.37,1057.77L1362.4,1057.79L1362.44,1057.8L1362.47,1057.82L1362.51,1057.84L1362.55,1057.85L1362.58,1057.87L1362.62,1057.88L1362.65,1057.9L1362.68,1057.91L1362.72,1057.93L1362.76,1057.94L1362.79,1057.95L1362.83,1057.97L1362.86,1057.98L1362.9,1058L1362.93,1058.01L1362.97,1058.02L1363.01,1058.04L1363.04,1058.05L1363.08,1058.06L1363.12,1058.08L1363.15,1058.09L1363.19,1058.1L1363.22,1058.12L1363.26,1058.13L1363.3,1058.14L1363.33,1058.15L1363.37,1058.16L1363.41,1058.17L1363.44,1058.19L1363.48,1058.2L1363.52,1058.21L1363.55,1058.22L1363.59,1058.23L1363.63,1058.24L1363.66,1058.25L1363.7,1058.26L1363.74,1058.27L1363.78,1058.28L1363.81,1058.29L1363.85,1058.3L1363.89,1058.31L1363.92,1058.32L1363.96,1058.33L1364,1058.34L1364.04,1058.35L1364.08,1058.36L1364.11,1058.37L1364.15,1058.38L1364.19,1058.38L1364.23,1058.39L1364.27,1058.4L1364.3,1058.41L1364.34,1058.41L1364.38,1058.42L1364.42,1058.43L1364.45,1058.44L1364.49,1058.44L1364.53,1058.45L1364.57,1058.46L1364.61,1058.46L1364.65,1058.47L1364.68,1058.47L1364.72,1058.48L1364.76,1058.49L1364.8,1058.49L1364.84,1058.5L1364.88,1058.5L1364.92,1058.51L1364.95,1058.51L1364.99,1058.52L1365.03,1058.52L1365.07,1058.53L1365.11,1058.53L1365.15,1058.54L1365.19,1058.54L1365.23,1058.54L1365.27,1058.55L1365.31,1058.55L1365.35,1058.55L1365.38,1058.56L1365.42,1058.56L1365.46,1058.56L1365.5,1058.56L1365.54,1058.57L1365.58,1058.57L1365.62,1058.57L1365.66,1058.57L1365.7,1058.57L1365.74,1058.57L1365.78,1058.58L1365.82,1058.58L1365.86,1058.58L1365.9,1058.58L1365.94,1058.58L1365.98,1058.58L1366.03,1058.58L1475.08,1058.58L1475.13,1058.58L1475.17,1058.58L1475.21,1058.58L1475.25,1058.58L1475.29,1058.58L1475.33,1058.58L1475.37,1058.57L1475.41,1058.57L1475.45,1058.57L1475.49,1058.57L1475.53,1058.57L1475.57,1058.57L1475.61,1058.56L1475.65,1058.56L1475.69,1058.56L1475.73,1058.56L1475.77,1058.55L1475.81,1058.55L1475.85,1058.55L1475.88,1058.54L1475.92,1058.54L1475.96,1058.54L1476,1058.53L1476.04,1058.53L1476.08,1058.52L1476.12,1058.52L1476.16,1058.51L1476.19,1058.51L1476.23,1058.5L1476.27,1058.5L1476.31,1058.49L1476.35,1058.49L1476.39,1058.48L1476.43,1058.47L1476.47,1058.47L1476.5,1058.46L1476.54,1058.46L1476.58,1058.45L1476.62,1058.44L1476.66,1058.44L1476.69,1058.43L1476.73,1058.42L1476.77,1058.41L1476.81,1058.41L1476.85,1058.4L1476.88,1058.39L1476.92,1058.38L1476.96,1058.38L1477,1058.37L1477.04,1058.36L1477.07,1058.35L1477.11,1058.34L1477.15,1058.33L1477.19,1058.32L1477.22,1058.31L1477.26,1058.3L1477.3,1058.29L1477.34,1058.28L1477.37,1058.27L1477.41,1058.26L1477.45,1058.25L1477.48,1058.24L1477.52,1058.23L1477.56,1058.22L1477.6,1058.21L1477.63,1058.2L1477.67,1058.19L1477.7,1058.17L1477.74,1058.16L1477.78,1058.15L1477.82,1058.14L1477.85,1058.13L1477.89,1058.12L1477.92,1058.1L1477.96,1058.09L1478,1058.08L1478.03,1058.06L1478.07,1058.05L1478.11,1058.04L1478.14,1058.02L1478.18,1058.01L1478.21,1058L1478.25,1057.98L1478.28,1057.97L1478.32,1057.95L1478.36,1057.94L1478.39,1057.93L1478.43,1057.91L1478.46,1057.9L1478.5,1057.88L1478.53,1057.87L1478.57,1057.85L1478.6,1057.84L1478.64,1057.82L1478.67,1057.8L1478.71,1057.79L1478.74,1057.77L1478.78,1057.76L1478.81,1057.74L1478.85,1057.72L1478.88,1057.71L1478.91,1057.69L1478.95,1057.67L1478.98,1057.65L1479.02,1057.64L1479.05,1057.62L1479.09,1057.6L1479.12,1057.59L1479.15,1057.57L1479.19,1057.55L1479.22,1057.53L1479.25,1057.51L1479.29,1057.49L1479.32,1057.47L1479.36,1057.46L1479.39,1057.44L1479.42,1057.42L1479.45,1057.4L1479.49,1057.38L1479.52,1057.36L1479.55,1057.34L1479.59,1057.32L1479.62,1057.3L1479.65,1057.28L1479.68,1057.26L1479.72,1057.24L1479.75,1057.22L1479.78,1057.2L1479.81,1057.18L1479.85,1057.16L1479.88,1057.14L1479.91,1057.12L1479.94,1057.09L1479.97,1057.07L1480,1057.05L1480.04,1057.03L1480.07,1057.01L1480.1,1056.99L1480.13,1056.96L1480.16,1056.94L1480.19,1056.92L1480.22,1056.89L1480.25,1056.87L1480.28,1056.85L1480.32,1056.83L1480.35,1056.8L1480.38,1056.78L1480.41,1056.76L1480.44,1056.73L1480.47,1056.71L1480.5,1056.69L1480.53,1056.66L1480.56,1056.64L1480.59,1056.61L1480.62,1056.59L1480.64,1056.56L1480.67,1056.54L1480.7,1056.52L1480.73,1056.49L1480.76,1056.46L1480.79,1056.44L1480.82,1056.41L1480.85,1056.39L1480.88,1056.36L1480.9,1056.34L1480.93,1056.31L1480.96,1056.29L1480.99,1056.26L1481.02,1056.23L1481.05,1056.21L1481.07,1056.18L1481.1,1056.15L1481.13,1056.13L1481.16,1056.1L1481.18,1056.08L1481.21,1056.05L1481.24,1056.02L1481.27,1055.99L1481.29,1055.97L1481.32,1055.94L1481.35,1055.91L1481.37,1055.88L1481.4,1055.86L1481.42,1055.83L1481.45,1055.8L1481.48,1055.77L1481.5,1055.74L1481.53,1055.71L1481.55,1055.68L1481.58,1055.66L1481.61,1055.63L1481.63,1055.6L1481.66,1055.57L1481.68,1055.54L1481.71,1055.51L1481.73,1055.48L1481.76,1055.45L1481.78,1055.42L1481.8,1055.39L1481.83,1055.36L1481.85,1055.33L1481.88,1055.3L1481.9,1055.27L1481.92,1055.24L1481.95,1055.21L1481.97,1055.18L1482,1055.15L1482.02,1055.12L1482.04,1055.09L1482.07,1055.06L1482.09,1055.03L1482.11,1054.99L1482.13,1054.96L1482.15,1054.93L1482.18,1054.9L1482.2,1054.87L1482.22,1054.84L1482.24,1054.8L1482.27,1054.77L1482.29,1054.74L1482.31,1054.71L1482.33,1054.67L1482.35,1054.64L1482.37,1054.61L1482.39,1054.58L1482.41,1054.54L1482.44,1054.51L1482.46,1054.48L1482.48,1054.44L1482.5,1054.41L1482.52,1054.38L1482.54,1054.34L1482.56,1054.31L1482.58,1054.28L1482.6,1054.24L1482.62,1054.21L1482.64,1054.17L1482.65,1054.14L1482.67,1054.1L1482.69,1054.07L1482.71,1054.04L1482.73,1054L1482.75,1053.96L1482.77,1053.93L1482.79,1053.89L1482.8,1053.86L1482.82,1053.82L1482.84,1053.79L1482.86,1053.75L1482.88,1053.72L1482.89,1053.68L1482.91,1053.65L1482.93,1053.61L1482.94,1053.57L1482.96,1053.54L1482.98,1053.5L1482.99,1053.46L1483.01,1053.43L1483.03,1053.39L1483.04,1053.36L1483.06,1053.32L1483.07,1053.28L1483.09,1053.24L1483.1,1053.21L1483.12,1053.17L1483.13,1053.13L1483.15,1053.1L1483.16,1053.06L1483.18,1053.02L1483.19,1052.99L1483.2,1052.95L1483.22,1052.91L1483.23,1052.88L1483.25,1052.84L1483.26,1052.8L1483.27,1052.77L1483.29,1052.73L1483.3,1052.69L1483.31,1052.65L1483.32,1052.62L1483.34,1052.58L1483.35,1052.54L1483.36,1052.5L1483.37,1052.47L1483.38,1052.43L1483.39,1052.39L1483.4,1052.36L1483.41,1052.32L1483.43,1052.28L1483.44,1052.24L1483.45,1052.2L1483.46,1052.17L1483.47,1052.13L1483.48,1052.09L1483.49,1052.06L1483.5,1052.02L1483.51,1051.98L1483.51,1051.94L1483.52,1051.9L1483.53,1051.87L1483.54,1051.83L1483.55,1051.79L1483.56,1051.75L1483.57,1051.71L1483.57,1051.68L1483.58,1051.64L1483.59,1051.6L1483.6,1051.56L1483.6,1051.53L1483.61,1051.49L1483.62,1051.45L1483.62,1051.41L1483.63,1051.37L1483.64,1051.34L1483.64,1051.3L1483.65,1051.26L1483.66,1051.22L1483.66,1051.18L1483.67,1051.15L1483.67,1051.11L1483.68,1051.07L1483.68,1051.03L1483.69,1050.99L1483.69,1050.95L1483.7,1050.92L1483.7,1050.88L1483.7,1050.84L1483.71,1050.8L1483.71,1050.76L1483.72,1050.72L1483.72,1050.69L1483.72,1050.65L1483.73,1050.61L1483.73,1050.57L1483.73,1050.53L1483.74,1050.5L1483.74,1050.46L1483.74,1050.42L1483.74,1050.38L1483.74,1050.34L1483.75,1050.3L1483.75,1050.27L1483.75,1050.23L1483.75,1050.19L1483.75,1050.15L1483.75,1050.11L1483.75,1050.07L1483.75,1050.04L1483.75,1050L1483.75,1049.96L1483.75,1049.92L1483.75,1049.88L1483.75,1049.85L1483.75,1049.81L1483.75,1049.77L1483.75,1049.73L1483.75,1049.69L1483.75,1049.65L1483.75,1049.61L1483.75,1049.58L1483.75,1049.54L1483.74,1049.5L1483.74,1049.46L1483.74,1049.42L1483.74,1049.38L1483.74,1049.35L1483.73,1049.31L1483.73,1049.27L1483.73,1049.23L1483.72,1049.19L1483.72,1049.15L1483.72,1049.12L1483.71,1049.08L1483.71,1049.04L1483.71,1049L1483.7,1048.96L1483.7,1048.93L1483.69,1048.89L1483.69,1048.85L1483.68,1048.81L1483.68,1048.78L1483.67,1048.74L1483.67,1048.7L1483.66,1048.66L1483.66,1048.62L1483.65,1048.59L1483.64,1048.55L1483.64,1048.51L1483.63,1048.47L1483.63,1048.43L1483.62,1048.4L1483.61,1048.36L1483.61,1048.32L1483.6,1048.28L1483.59,1048.25L1483.58,1048.21L1483.58,1048.17L1483.57,1048.13L1483.56,1048.1L1483.55,1048.06L1483.54,1048.02L1483.54,1047.98L1483.53,1047.95L1483.52,1047.91L1483.51,1047.87L1483.5,1047.84L1483.49,1047.8L1483.48,1047.76L1483.47,1047.72L1483.46,1047.69L1483.45,1047.65L1483.44,1047.61L1483.43,1047.58L1483.42,1047.54L1483.41,1047.5L1483.4,1047.46L1483.39,1047.43L1483.38,1047.39L1483.37,1047.36L1483.36,1047.32L1483.34,1047.28L1483.33,1047.25L1483.32,1047.21L1483.31,1047.17L1483.3,1047.14L1483.28,1047.1L1483.27,1047.06L1483.26,1047.03L1483.25,1046.99L1483.23,1046.95L1483.22,1046.92L1483.21,1046.88L1483.19,1046.85L1483.18,1046.81L1483.16,1046.78L1483.15,1046.74L1483.14,1046.7L1483.12,1046.67L1483.11,1046.63L1483.09,1046.6L1483.08,1046.56L1483.06,1046.53L1483.05,1046.49L1483.03,1046.46L1483.02,1046.42L1483,1046.38L1482.99,1046.35L1482.97,1046.32L1482.95,1046.28L1482.94,1046.25L1482.92,1046.21L1482.91,1046.18L1482.89,1046.14L1482.87,1046.11L1482.86,1046.07L1482.84,1046.04L1482.82,1046L1482.8,1045.97L1482.79,1045.93L1482.77,1045.9L1482.75,1045.87L1482.73,1045.83L1482.71,1045.8L1482.69,1045.76L1482.68,1045.73L1482.66,1045.69L1482.64,1045.66L1482.62,1045.63L1482.6,1045.6L1482.58,1045.56L1482.56,1045.53L1482.54,1045.49L1482.52,1045.46L1482.5,1045.43L1482.48,1045.39L1482.46,1045.36L1482.44,1045.33L1482.42,1045.3L1482.4,1045.26L1482.38,1045.23L1482.36,1045.2L1482.34,1045.16L1482.31,1045.13L1482.29,1045.1L1482.27,1045.07L1482.25,1045.03L1482.23,1045L1482.2,1044.97L1482.18,1044.94L1482.16,1044.9L1482.14,1044.87L1482.11,1044.84L1482.09,1044.81L1482.07,1044.78L1482.04,1044.75L1482.02,1044.71L1482,1044.68L1481.97,1044.65L1481.95,1044.62L1481.92,1044.59L1481.9,1044.56L1481.87,1044.53L1481.85,1044.5L1481.82,1044.46L1481.8,1044.43L1481.77,1044.4L1481.75,1044.37L1481.72,1044.34L1481.7,1044.31L1481.67,1044.28L1481.64,1044.25L1481.61,1044.21L1431.24,986.477L1430.43,985.408L1429.79,984.235L1429.32,982.983L1429.04,981.675L1428.94,980.341L1428.94,942.692L1412.17,942.692Z" style="fill:white;"/>
            </g>
        </g>
        <g>
            <path d="M186.142,443.025C186.667,442.424 187.426,442.079 188.224,442.079C189.022,442.079 189.781,442.424 190.306,443.025C193.961,447.215 201.58,455.948 206.197,461.24C206.875,462.017 207.036,463.118 206.609,464.057C206.182,464.996 205.246,465.598 204.215,465.598C195.878,465.598 180.57,465.598 172.233,465.598C171.202,465.598 170.266,464.996 169.839,464.057C169.412,463.118 169.573,462.017 170.251,461.24C174.868,455.948 182.487,447.215 186.142,443.025ZM194.992,458.014C196.035,458.014 196.881,458.86 196.881,459.903C196.881,460.946 196.035,461.792 194.992,461.792C193.95,461.792 193.103,460.946 193.103,459.903C193.103,458.86 193.95,458.014 194.992,458.014ZM179.413,456.833C180.767,456.833 181.867,457.933 181.867,459.287C181.867,460.642 180.767,461.742 179.413,461.742C178.058,461.742 176.958,460.642 176.958,459.287C176.958,457.933 178.058,456.833 179.413,456.833ZM189.236,449.067C190.942,449.067 192.327,450.452 192.327,452.159C192.327,453.865 190.942,455.25 189.236,455.25C187.53,455.25 186.144,453.865 186.144,452.159C186.144,450.452 187.53,449.067 189.236,449.067Z" style="fill:white;"/>
        </g>
    </g>
</svg>
