<?xml version="1.0" encoding="UTF-8" standalone="no"?>
<!DOCTYPE svg PUBLIC "-//W3C//DTD SVG 1.1//EN" "http://www.w3.org/Graphics/SVG/1.1/DTD/svg11.dtd">
<svg width="100%" height="100%" viewBox="0 0 512 512" version="1.1" xmlns="http://www.w3.org/2000/svg" xmlns:xlink="http://www.w3.org/1999/xlink" xml:space="preserve" xmlns:serif="http://www.serif.com/" style="fill-rule:evenodd;clip-rule:evenodd;stroke-linejoin:round;stroke-miterlimit:2;">
    <g transform="matrix(0.586893,0,0,0.526248,-248.127,-310.829)">
        <g id="PotionIcon">
            <g>
                <g transform="matrix(2.37611,-7.95955e-16,1.08402e-15,2.64988,1447.04,-3060.6)">
                    <path d="M-273.627,1392.23C-263.514,1392.23 -255.303,1400.44 -255.303,1410.55C-255.303,1420.66 -263.514,1428.88 -273.627,1428.88C-283.739,1428.88 -291.95,1420.66 -291.95,1410.55C-291.95,1400.44 -283.739,1392.23 -273.627,1392.23ZM-273.627,1396.42C-265.826,1396.42 -259.493,1402.75 -259.493,1410.55C-259.493,1418.35 -265.826,1424.69 -273.627,1424.69C-281.427,1424.69 -287.76,1418.35 -287.76,1410.55C-287.76,1402.75 -281.427,1396.42 -273.627,1396.42Z" style="fill:white;"/>
                </g>
                <g transform="matrix(2.72676,0,0,3.041,-7248.57,-16939.4)">
                    <path d="M3034.86,5976.19C3034.88,5976.23 3034.9,5976.26 3034.91,5976.29C3038.76,5984.34 3041.32,5994.56 3041.39,6008C3041.63,6051.03 2984.23,6052.68 2973.32,6052.61C2962.42,6052.68 2905.02,6051.03 2905.26,6008C2905.33,5994.51 2907.9,5984.26 2911.78,5976.19L3034.86,5976.19Z" style="fill:white;"/>
                </g>
                <g transform="matrix(1.46873,-3.0983e-17,0.0193375,1.63781,1162.83,-1411.53)">
                    <path d="M-273.627,1392.23C-263.514,1392.23 -255.303,1400.44 -255.303,1410.55C-255.303,1420.66 -263.514,1428.88 -273.627,1428.88C-283.739,1428.88 -291.95,1420.66 -291.95,1410.55C-291.95,1400.44 -283.739,1392.23 -273.627,1392.23ZM-273.627,1396.1C-265.648,1396.1 -259.171,1402.57 -259.171,1410.55C-259.171,1418.53 -265.648,1425.01 -273.627,1425.01C-281.605,1425.01 -288.082,1418.53 -288.082,1410.55C-288.082,1402.57 -281.605,1396.1 -273.627,1396.1Z" style="fill:white;"/>
                </g>
                <g transform="matrix(2.66302,0,0,3.77103,-1.5143,-3656.61)">
                    <path d="M349.424,1166.77C347.118,1165.26 296.816,1164.68 295.492,1166.77C293.851,1169.37 295.169,1181.27 297.422,1182.09C305.026,1184.87 341.07,1184.74 347.905,1182.14C350.542,1181.14 351.225,1167.95 349.424,1166.77Z" style="fill:white;"/>
                </g>
                <g transform="matrix(2.72676,0,0,3.041,-7248.57,-16939.4)">
                    <path d="M2950.78,5811.08C2950.67,5805.02 2950.91,5799.16 2951.87,5795.5C2952.26,5794.02 2953.52,5792.76 2955.38,5791.72C2955.69,5791.55 2956.01,5791.41 2956.34,5791.31C2959.38,5790.11 2965.7,5789.28 2972.99,5789.28C2980.4,5789.28 2986.81,5790.14 2989.78,5791.37C2990.19,5791.51 2990.56,5791.69 2990.91,5791.92C2992.08,5792.71 2992.95,5793.62 2993.4,5794.67C2994.91,5798.15 2995.3,5804.65 2995.2,5811.38C2985.63,5810.37 2960.95,5810.05 2950.78,5811.08Z" style="fill:white;"/>
                </g>
                <g transform="matrix(-1.52927,0.448044,-0.448044,-1.52927,571.87,3453.74)">
                    <path d="M-604.058,1634.46C-607.254,1633.41 -606.707,1627.31 -601.834,1628.51C-600.486,1628.82 -599.209,1627.52 -597.989,1627.26C-595.488,1626.72 -593.181,1630.64 -596.398,1633.2C-598.631,1634.98 -601.015,1635.37 -604.058,1634.46ZM-599.573,1628.19C-599.632,1628.26 -599.588,1628.21 -599.573,1628.19Z" style="fill:white;"/>
                </g>
                <g transform="matrix(0.577583,0,0,0.577583,321.729,377.231)">
                    <path d="M767.182,895.165C776.75,895.296 783.337,909.068 775.647,915.636C764.246,925.375 743.782,916.387 751.614,901.846C754.463,896.556 761.11,895.125 767.182,895.165Z" style="fill:white;"/>
                </g>
                <g transform="matrix(2.81798,0,0,3.14266,-59.835,-2922.54)">
                    <path d="M292.728,1148.84C294.346,1149.13 295.349,1150.98 294.354,1152.54C282.955,1168.07 273.081,1184.52 265.51,1201.93C261.013,1212.27 256.841,1223.08 257.542,1234.47C257.89,1240.13 259.988,1245.61 265.501,1249.62C267.593,1251.15 270.327,1252.17 272.931,1251.29C277.445,1249.77 280.37,1244.97 282.782,1240.36C286.356,1233.51 288.827,1226.09 290.542,1218.6C290.542,1218.6 291.098,1217.01 292.428,1216.78C294.138,1216.48 295.452,1218.17 294.88,1220.53C292.203,1231.54 288.982,1242.67 281.059,1251.15C277.872,1254.56 273.156,1257.13 268.295,1256.03C261.96,1254.6 256.84,1248.78 254.639,1243.16C251.28,1234.58 252.935,1224.99 255.276,1216.52C261.626,1193.56 274.749,1172.36 288.305,1152.99C289.045,1151.93 289.791,1150.88 290.552,1149.84C290.552,1149.84 291.16,1149.12 291.821,1148.92C292.371,1148.76 292.534,1148.84 292.728,1148.84Z" style="fill:white;fill-rule:nonzero;"/>
                </g>
                <g transform="matrix(2.72676,0,0,3.041,-7248.57,-16939.4)">
                    <path d="M2952.94,5882.33C2955.18,5872.24 2956.63,5862.81 2957.3,5857.03C2957.3,5857.03 2954.21,5854.24 2951.81,5851.67C2949.41,5849.1 2951.72,5833.46 2951.72,5833.46L2994.65,5833.46C2994.65,5833.46 2996.06,5849.44 2994.65,5851.67C2993.25,5853.9 2989.34,5857.03 2989.34,5857.03C2990.01,5862.8 2991.47,5872.23 2993.7,5882.31C2993.69,5882.32 2993.68,5882.32 2993.67,5882.33C2993.64,5882.46 2994.04,5883.83 2994.44,5885.78C2995.26,5888.41 2993.67,5890.2 2987.89,5892.66C2981.53,5895.39 2976.16,5900.61 2975.9,5908.05C2975.73,5912.69 2978.24,5917.3 2982.44,5919.23C2986.97,5921.3 2993.27,5920.1 2995.68,5915.24C2997.18,5912.2 2997.29,5908.33 2995.89,5905.15C2995.19,5903.57 2992.69,5903.18 2991.58,5904.64C2990.59,5905.93 2991.82,5907.59 2991.69,5910.69C2991.64,5911.94 2991.27,5913.24 2990.33,5914.11C2986.7,5917.48 2979.48,5912.78 2981.32,5905.39C2982.71,5899.79 2989.85,5897.56 2994.14,5895.44C2995,5895.02 2995.82,5894.47 2996.55,5893.81C2999.48,5904.4 3003.27,5914.48 3007.9,5920.66C3021.06,5938.23 3064.95,5947.38 3065.3,6011.72C3065.62,6069.87 2988.06,6072.1 2973.32,6072C2958.59,6072.1 2881.03,6069.87 2881.35,6011.72C2881.7,5947.38 2925.58,5938.23 2938.74,5920.66C2943.38,5914.48 2947.16,5904.41 2950.09,5893.84C2950.82,5894.48 2951.62,5895.03 2952.47,5895.44C2956.77,5897.56 2963.9,5899.79 2965.29,5905.39C2967.13,5912.78 2959.91,5917.48 2956.28,5914.11C2955.34,5913.24 2954.98,5911.94 2954.93,5910.69C2954.79,5907.59 2956.03,5905.93 2955.04,5904.64C2953.92,5903.18 2951.43,5903.57 2950.73,5905.15C2949.32,5908.33 2949.43,5912.2 2950.93,5915.24C2953.34,5920.1 2959.64,5921.3 2964.17,5919.23C2968.37,5917.3 2970.88,5912.69 2970.72,5908.05C2970.45,5900.61 2965.08,5895.39 2958.72,5892.66C2952.94,5890.2 2951.35,5888.41 2952.17,5885.78C2952.22,5885.54 2952.27,5885.31 2952.32,5885.09C2952.42,5884.66 2952.51,5884.23 2952.61,5883.81C2952.82,5882.96 2952.96,5882.42 2952.94,5882.33ZM2888.3,6010.57C2888.63,5951.1 2930.86,5934.11 2972.89,5934.11C3014.92,5934.11 3058.01,5951.1 3058.34,6010.57C3058.64,6064.32 2986.94,6066.38 2973.32,6066.29C2959.7,6066.38 2888.01,6064.32 2888.3,6010.57Z" style="fill:white;"/>
                </g>
            </g>
        </g>
    </g>
</svg>
