<?xml version="1.0" encoding="UTF-8" standalone="no"?>
<!DOCTYPE svg PUBLIC "-//W3C//DTD SVG 1.1//EN" "http://www.w3.org/Graphics/SVG/1.1/DTD/svg11.dtd">
<svg width="100%" height="100%" viewBox="0 0 512 512" version="1.1" xmlns="http://www.w3.org/2000/svg" xmlns:xlink="http://www.w3.org/1999/xlink" xml:space="preserve" xmlns:serif="http://www.serif.com/" style="fill-rule:evenodd;clip-rule:evenodd;stroke-linejoin:round;stroke-miterlimit:2;">
    <g id="PotionIcon" transform="matrix(2.37874,0,0,2.37874,-4753.67,-1185.61)">
        <g transform="matrix(2.23923,0,0,2.23923,-19250.4,-6894.2)">
            <path d="M9537.39,3337.71C9554.23,3337.71 9567.91,3350.57 9567.91,3366.41C9567.91,3382.26 9554.23,3395.12 9537.39,3395.12C9520.54,3395.12 9506.86,3382.26 9506.86,3366.41C9506.86,3350.57 9520.54,3337.71 9537.39,3337.71ZM9537.39,3341.22C9552.17,3341.22 9564.18,3352.51 9564.18,3366.41C9564.18,3380.32 9552.17,3391.61 9537.39,3391.61C9522.6,3391.61 9510.59,3380.32 9510.59,3366.41C9510.59,3352.51 9522.6,3341.22 9537.39,3341.22Z" style="fill:white;"/>
        </g>
        <g transform="matrix(2.23923,0,0,2.23923,-19250.4,-6894.2)">
            <path d="M9557.25,3368.17C9557.08,3378.35 9548.25,3386.56 9537.39,3386.56C9526.52,3386.56 9517.69,3378.35 9517.52,3368.17L9557.25,3368.17Z" style="fill:white;"/>
        </g>
        <g transform="matrix(2.23923,0,0,2.23923,-19250,-6890.08)">
            <circle cx="9525.94" cy="3354.75" r="3.851" style="fill:white;"/>
        </g>
        <g transform="matrix(2.23923,0,0,2.23923,-19250.4,-6894.2)">
            <path d="M9529.71,3318.08C9529.58,3318.08 9529.46,3318.09 9529.33,3318.09C9525.39,3318.09 9522.2,3314.89 9522.2,3310.96C9522.2,3307.02 9525.39,3303.83 9529.33,3303.83C9532.46,3303.83 9535.13,3305.86 9536.08,3308.67C9535.53,3308.74 9534.95,3308.81 9534.42,3308.88C9533.6,3306.87 9531.63,3305.46 9529.33,3305.46C9526.29,3305.46 9523.83,3307.92 9523.83,3310.96C9523.83,3313.99 9526.29,3316.46 9529.33,3316.46C9529.7,3316.46 9530.06,3316.42 9530.41,3316.35L9529.71,3318.08Z" style="fill:white;"/>
        </g>
        <g transform="matrix(0.538634,-1.01884e-17,0.00709173,0.538575,2221.74,-190.546)">
            <path d="M-273.627,1392.23C-263.514,1392.23 -255.303,1400.44 -255.303,1410.55C-255.303,1420.66 -263.514,1428.88 -273.627,1428.88C-283.739,1428.88 -291.95,1420.66 -291.95,1410.55C-291.95,1400.44 -283.739,1392.23 -273.627,1392.23ZM-273.627,1396.1C-265.648,1396.1 -259.171,1402.57 -259.171,1410.55C-259.171,1418.53 -265.648,1425.01 -273.627,1425.01C-281.605,1425.01 -288.082,1418.53 -288.082,1410.55C-288.082,1402.57 -281.605,1396.1 -273.627,1396.1Z" style="fill:white;"/>
        </g>
        <g transform="matrix(0.69544,0.718584,-0.718584,0.69544,1279.83,-1228.64)">
            <path d="M1819.93,648.806C1819.93,647.001 1818.47,645.536 1816.66,645.536L1814.21,645.536C1812.41,645.536 1810.94,647.001 1810.94,648.806C1810.94,650.611 1812.41,652.076 1814.21,652.076L1816.66,652.076C1818.47,652.076 1819.93,650.611 1819.93,648.806Z" style="fill:white;"/>
        </g>
        <g transform="matrix(0.46169,0.887041,-0.887041,0.46169,1813.98,-1336.94)">
            <path d="M1819.93,648.806C1819.93,647.001 1818.47,645.536 1816.66,645.536L1814.21,645.536C1812.41,645.536 1810.94,647.001 1810.94,648.806C1810.94,650.611 1812.41,652.076 1814.21,652.076L1816.66,652.076C1818.47,652.076 1819.93,650.611 1819.93,648.806Z" style="fill:white;"/>
        </g>
        <g transform="matrix(1,0,0,1,263.033,-139.562)">
            <path d="M1813.18,664.96C1815.18,665.305 1815.38,667.485 1812.81,669.641C1803.42,677.631 1794.25,687.073 1791.08,698.379C1789.68,703.401 1789.75,709.67 1793.86,712.987C1798.32,716.587 1804.6,714.264 1808.91,712.619C1810.49,712.016 1812.68,710.959 1812.68,710.959C1813.9,710.545 1814.31,710.956 1814.71,711.295C1815.87,712.283 1815.41,714.086 1813.52,714.995C1812.36,715.546 1811.17,716.049 1809.96,716.5C1808.97,716.868 1807.97,717.2 1806.95,717.491C1806.24,717.695 1805.52,717.879 1804.79,718.038C1804.2,718.167 1803.6,718.278 1803.01,718.37C1797.06,719.293 1790.15,717.461 1787.48,710.36C1783.03,698.582 1791.77,685.001 1802.15,674.197C1805.12,671.104 1808.27,668.164 1811.6,665.458C1811.6,665.458 1812.5,664.91 1813.18,664.96Z" style="fill:white;"/>
        </g>
        <g transform="matrix(1.28531,0,0,0.812981,-641.724,109.15)">
            <rect x="2126.42" y="523.427" width="22.765" height="63.587" style="fill:white;"/>
        </g>
        <g transform="matrix(0.538427,0,0,0.792668,956.75,104.204)">
            <path d="M2161.92,514.592C2161.92,513.988 2161.2,513.497 2160.31,513.497L2108.67,513.497C2107.78,513.497 2107.06,513.988 2107.06,514.592L2107.06,532.174L2161.92,532.174L2161.92,514.592Z" style="fill:white;"/>
        </g>
        <g transform="matrix(0.880038,0,0,1.06087,227.585,-15.6214)">
            <path d="M2161.92,518.166C2161.92,515.589 2159.4,513.497 2156.29,513.497L2112.69,513.497C2109.58,513.497 2107.06,515.589 2107.06,518.166L2107.06,527.505C2107.06,530.082 2109.58,532.174 2112.69,532.174L2156.29,532.174C2159.4,532.174 2161.92,530.082 2161.92,527.505L2161.92,518.166Z" style="fill:white;"/>
        </g>
        <g transform="matrix(1,0,0,1,255.332,-150.92)">
            <path d="M1870.19,715.465C1870.19,713.662 1868.72,712.198 1866.92,712.198L1834.45,712.198C1832.65,712.198 1831.18,713.662 1831.18,715.465C1831.18,717.269 1832.65,718.733 1834.45,718.733L1866.92,718.733C1868.72,718.733 1870.19,717.269 1870.19,715.465Z" style="fill:white;"/>
        </g>
        <g transform="matrix(1,0,0,1,255.332,-141.135)">
            <path d="M1870.19,715.465C1870.19,713.662 1868.72,712.198 1866.92,712.198L1834.45,712.198C1832.65,712.198 1831.18,713.662 1831.18,715.465C1831.18,717.269 1832.65,718.733 1834.45,718.733L1866.92,718.733C1868.72,718.733 1870.19,717.269 1870.19,715.465Z" style="fill:white;"/>
        </g>
    </g>
</svg>
