<?xml version="1.0" encoding="UTF-8" standalone="no"?>
<!DOCTYPE svg PUBLIC "-//W3C//DTD SVG 1.1//EN" "http://www.w3.org/Graphics/SVG/1.1/DTD/svg11.dtd">
<svg width="100%" height="100%" viewBox="0 0 512 512" version="1.1" xmlns="http://www.w3.org/2000/svg" xmlns:xlink="http://www.w3.org/1999/xlink" xml:space="preserve" xmlns:serif="http://www.serif.com/" style="fill-rule:evenodd;clip-rule:evenodd;stroke-linejoin:round;stroke-miterlimit:2;">
    <g id="PotionRefillIcon" transform="matrix(6.30761,0,0,6.30761,-2281.76,-2540.19)">
        <g transform="matrix(0.238435,0,0,0.238435,101.176,205.994)">
            <g transform="matrix(1,0,0,1.03581,-615.817,-259.234)">
                <path d="M1894.45,1148.54C1894.45,1146.04 1892.34,1144 1889.75,1144L1836.37,1144C1833.77,1144 1831.66,1146.04 1831.66,1148.54L1831.66,1157.62C1831.66,1160.12 1833.77,1162.16 1836.37,1162.16L1889.75,1162.16C1892.34,1162.16 1894.45,1160.12 1894.45,1157.62L1894.45,1148.54Z" style="fill:white;"/>
            </g>
            <g transform="matrix(0.828536,0,0,1.12073,-296.651,-363.752)">
                <rect x="1845.68" y="1157.58" width="35.434" height="49.877" style="fill:white;"/>
            </g>
            <g transform="matrix(1.40618,0,0,1.15301,-1377.33,-414.047)">
                <path d="M1866.45,1189.07C1866.45,1189.07 1895.07,1229.07 1914.88,1256.76C1918.18,1261.37 1918.97,1267.91 1916.89,1273.48C1914.81,1279.05 1910.26,1282.63 1905.24,1282.63L1827.67,1282.63C1822.65,1282.63 1818.1,1279.05 1816.02,1273.48C1813.95,1267.91 1814.73,1261.37 1818.03,1256.76C1837.84,1229.07 1866.45,1189.07 1866.45,1189.07Z" style="fill:white;"/>
            </g>
        </g>
        <g transform="matrix(-0.883945,-1.08252e-16,1.08252e-16,-0.883945,745.795,833.836)">
            <path d="M392.564,481.69C378.187,481.552 364.231,473.088 357.525,460.387C354.558,454.766 352.976,448.478 352.935,442.06C352.92,439.764 355.938,438.078 357.704,439.747C358.961,440.934 358.575,443.285 358.746,445.087C360.291,461.297 374.879,475.377 391.498,476.009C406.455,476.578 421.2,466.145 425.575,451.776C429.769,438.006 424.145,421.871 412.293,413.652C406.607,409.71 399.698,407.593 392.813,407.571C392.813,407.571 390.727,407.246 390.167,405.717C389.481,403.849 391.087,401.874 393.593,401.922C410.27,402.24 425.976,414.083 430.914,429.947C438.098,453.025 420.603,481.257 393.336,481.687C393.079,481.69 392.822,481.69 392.564,481.69Z" style="fill:white;"/>
        </g>
        <g transform="matrix(-0.979826,2.16662e-16,-3.61104e-16,-1.15177,1890.44,2176.78)">
            <path d="M1488.97,1496C1489.01,1495.97 1489.05,1495.95 1489.11,1495.95C1489.16,1495.95 1489.21,1495.97 1489.24,1496C1490.33,1497.2 1497.79,1505.41 1499.14,1506.9C1499.18,1506.94 1499.18,1507 1499.15,1507.05C1499.13,1507.1 1499.07,1507.13 1499,1507.13C1496.55,1507.13 1481.66,1507.13 1479.21,1507.13C1479.14,1507.13 1479.09,1507.1 1479.06,1507.05C1479.03,1507 1479.04,1506.94 1479.07,1506.9C1480.42,1505.41 1487.88,1497.2 1488.97,1496Z" style="fill:white;"/>
        </g>
    </g>
</svg>
