<?xml version="1.0" encoding="UTF-8" standalone="no"?>
<!DOCTYPE svg PUBLIC "-//W3C//DTD SVG 1.1//EN" "http://www.w3.org/Graphics/SVG/1.1/DTD/svg11.dtd">
<svg width="100%" height="100%" viewBox="0 0 512 512" version="1.1" xmlns="http://www.w3.org/2000/svg" xmlns:xlink="http://www.w3.org/1999/xlink" xml:space="preserve" xmlns:serif="http://www.serif.com/" style="fill-rule:evenodd;clip-rule:evenodd;stroke-linejoin:round;stroke-miterlimit:2;">
    <g id="PowerOffIcon" transform="matrix(8.94208,0,0,8.94208,-11129.2,-9222.55)">
        <g transform="matrix(1.06844,0,0,1,-51.9703,22.2351)">
            <path d="M1243.14,1012.3C1243.14,1011.47 1242.51,1010.8 1241.74,1010.8L1238.93,1010.8C1238.15,1010.8 1237.53,1011.47 1237.53,1012.3L1237.53,1034.06C1237.53,1034.89 1238.15,1035.56 1238.93,1035.56L1241.74,1035.56C1242.51,1035.56 1243.14,1034.89 1243.14,1034.06L1243.14,1012.3Z" style="fill:white;"/>
        </g>
        <g transform="matrix(0.942303,0,0,0.942303,103.034,81.8992)">
            <path d="M1254.02,1020.18C1253.84,1020.06 1256.86,1015.12 1257.22,1015.36C1266.04,1021.29 1271.06,1032.43 1269.45,1042.92C1267.32,1056.87 1253.26,1067.92 1238.99,1066.46C1226.18,1065.16 1215.06,1053.9 1214,1040.99C1213.25,1031.93 1217.18,1022.68 1224.39,1016.86L1226.1,1015.5C1226.1,1015.5 1229.78,1019.97 1229.66,1020.07C1225.89,1023.17 1222.54,1026.79 1220.95,1031.29C1216.94,1042.63 1223.97,1056.62 1235.78,1059.98C1247.75,1063.38 1261.72,1054.66 1263.71,1042.18C1265.04,1033.85 1261.18,1024.97 1254.02,1020.18Z" style="fill:white;"/>
        </g>
        <g transform="matrix(1.0857,0,0,1.0857,-72.3622,-64.1345)">
            <circle cx="1227.32" cy="1017.82" r="2.516" style="fill:white;"/>
        </g>
        <g transform="matrix(1.0857,0,0,1.0857,-46.3404,-64.1345)">
            <circle cx="1227.32" cy="1017.82" r="2.516" style="fill:white;"/>
        </g>
    </g>
</svg>
