<?xml version="1.0" encoding="UTF-8" standalone="no"?>
<!DOCTYPE svg PUBLIC "-//W3C//DTD SVG 1.1//EN" "http://www.w3.org/Graphics/SVG/1.1/DTD/svg11.dtd">
<svg width="100%" height="100%" viewBox="0 0 512 512" version="1.1" xmlns="http://www.w3.org/2000/svg" xmlns:xlink="http://www.w3.org/1999/xlink" xml:space="preserve" xmlns:serif="http://www.serif.com/" style="fill-rule:evenodd;clip-rule:evenodd;stroke-linejoin:round;stroke-miterlimit:2;">
    <g id="Previous" transform="matrix(21.0669,0,0,21.0669,-13037.3,-71118.6)">
        <path d="M637.615,3394.88C637.366,3395.03 637.082,3395.02 636.834,3394.88L627.007,3389.04L627.007,3386.94L636.834,3381.11C637.082,3380.96 637.366,3380.96 637.615,3381.11C637.865,3381.25 638.007,3381.5 638.007,3381.79L638.007,3394.2C638.007,3394.49 637.865,3394.74 637.615,3394.88ZM625.5,3395C624.672,3395 624,3394.33 624,3393.5L624,3382.5C624,3381.67 624.672,3381 625.5,3381C626.328,3381 627,3381.67 627,3382.5L627,3393.5C627,3394.33 626.328,3395 625.5,3395Z" style="fill:white;"/>
    </g>
</svg>
