<?xml version="1.0" encoding="UTF-8" standalone="no"?>
<!DOCTYPE svg PUBLIC "-//W3C//DTD SVG 1.1//EN" "http://www.w3.org/Graphics/SVG/1.1/DTD/svg11.dtd">
<svg width="100%" height="100%" viewBox="0 0 512 512" version="1.1" xmlns="http://www.w3.org/2000/svg" xmlns:xlink="http://www.w3.org/1999/xlink" xml:space="preserve" xmlns:serif="http://www.serif.com/" style="fill-rule:evenodd;clip-rule:evenodd;stroke-linejoin:round;stroke-miterlimit:2;">
    <g transform="matrix(4.50826,0,0,4.50826,-42597,-20554.2)">
        <g id="ProtectIcon">
            <g id="UserIcon">
                <path d="M9503.62,4562.76C9504.59,4561.93 9506.03,4561.96 9506.97,4562.83C9511.58,4566.95 9525.74,4577.92 9546.63,4579.11C9547.79,4579.17 9548.75,4580.02 9548.97,4581.15C9560.1,4639.45 9532.55,4661.44 9506.1,4669.78C9505.6,4669.94 9505.06,4669.94 9504.57,4669.77C9477.25,4660.83 9451.4,4638.97 9461.7,4581.2C9461.91,4580.04 9462.89,4579.18 9464.07,4579.13C9483.33,4578.13 9498.65,4566.86 9503.62,4562.76ZM9495.35,4615.66C9497.85,4619.08 9501.61,4621.05 9505.83,4621.05C9510.05,4621.05 9513.81,4619.08 9516.31,4615.66C9522.47,4618.37 9524.08,4623.16 9524.52,4627.17C9525.91,4639.79 9488.38,4642.39 9486.62,4627.17C9486.16,4623.17 9489.15,4618.37 9495.35,4615.66ZM9505.83,4617.56C9499.97,4617.56 9495.25,4612.67 9495.25,4605.19C9495.25,4598.22 9499.67,4593.53 9505.83,4593.53C9511.99,4593.53 9516.4,4598.22 9516.4,4605.19C9516.4,4612.67 9511.68,4617.56 9505.83,4617.56Z" style="fill:white;"/>
            </g>
        </g>
    </g>
</svg>
