<?xml version="1.0" encoding="UTF-8" standalone="no"?>
<!DOCTYPE svg PUBLIC "-//W3C//DTD SVG 1.1//EN" "http://www.w3.org/Graphics/SVG/1.1/DTD/svg11.dtd">
<svg width="100%" height="100%" viewBox="0 0 512 512" version="1.1" xmlns="http://www.w3.org/2000/svg" xmlns:xlink="http://www.w3.org/1999/xlink" xml:space="preserve" xmlns:serif="http://www.serif.com/" style="fill-rule:evenodd;clip-rule:evenodd;stroke-linejoin:round;stroke-miterlimit:2;">
    <g transform="matrix(4.45957,0,0,4.45957,-50913.8,-9712.27)">
        <g id="PurseXIcon">
            <path d="M11487.7,2206.66C11506,2214.59 11519.4,2237.27 11519.4,2254.71C11519.4,2276.2 11499.1,2289.26 11474.2,2289.26C11449.2,2289.26 11429,2276.2 11429,2254.71C11429,2237.27 11442.3,2214.59 11460.7,2206.66L11487.7,2206.66ZM11475.4,2247.44L11483.1,2239.75C11483.9,2238.98 11483.9,2237.73 11483.1,2236.96C11482.3,2236.19 11481.1,2236.19 11480.3,2236.96L11472.6,2244.66L11464.9,2236.96C11464.2,2236.19 11462.9,2236.19 11462.1,2236.96C11461.4,2237.73 11461.4,2238.98 11462.1,2239.75L11469.8,2247.44L11462.1,2255.14C11461.4,2255.91 11461.4,2257.15 11462.1,2257.92C11462.9,2258.69 11464.2,2258.69 11464.9,2257.92L11472.6,2250.23L11480.3,2257.92C11481.1,2258.69 11482.3,2258.69 11483.1,2257.92C11483.9,2257.15 11483.9,2255.91 11483.1,2255.14L11475.4,2247.44ZM11463.7,2201.03L11456.2,2186.45C11455.6,2185.35 11455.7,2184.02 11456.3,2182.96C11457,2181.9 11458.1,2181.25 11459.4,2181.25C11467.2,2181.25 11481.1,2181.25 11488.9,2181.25C11490.2,2181.25 11491.3,2181.9 11492,2182.96C11492.6,2184.02 11492.7,2185.35 11492.1,2186.45L11484.7,2201.03L11463.7,2201.03Z" style="fill:white;"/>
        </g>
    </g>
</svg>
