<?xml version="1.0" encoding="UTF-8" standalone="no"?>
<!DOCTYPE svg PUBLIC "-//W3C//DTD SVG 1.1//EN" "http://www.w3.org/Graphics/SVG/1.1/DTD/svg11.dtd">
<svg width="100%" height="100%" viewBox="0 0 512 512" version="1.1" xmlns="http://www.w3.org/2000/svg" xmlns:xlink="http://www.w3.org/1999/xlink" xml:space="preserve" xmlns:serif="http://www.serif.com/" style="fill-rule:evenodd;clip-rule:evenodd;stroke-linejoin:round;stroke-miterlimit:2;">
    <g id="QuestIcon" transform="matrix(5.04797,0,0,6.39039,4740.75,-39749.3)">
        <g transform="matrix(0.710433,0,0,0.583397,-1305.92,2594.93)">
            <path d="M654.881,6236.71C654.881,6231.07 650.126,6226.5 644.269,6226.5L644.175,6226.5C638.255,6226.5 633.448,6231.12 633.448,6236.82L633.448,6254.35L654.881,6254.35L654.881,6236.71Z" style="fill:white;"/>
        </g>
        <g transform="matrix(0.710433,0,0,0.583397,-1318.54,2575.08)">
            <path d="M622.485,6346.01L622.485,6362.99C622.485,6369.38 627.326,6374.64 633.535,6375.31L633.535,6375.38L546.541,6375.38C541.937,6375.38 538.199,6371.64 538.199,6367.04L538.199,6346.01L622.485,6346.01Z" style="fill:white;"/>
        </g>
        <g transform="matrix(2.08849,0,0,1.64976,-1463.96,-4054.76)">
            <path d="M282.668,6261.57L258.323,6261.57L258.323,6236.06C258.323,6233.64 260.211,6231.68 262.536,6231.68L293.458,6231.68C291.522,6232.07 290.06,6233.93 290.06,6236.06C290.06,6236.06 290.056,6268.52 290.048,6268.57C289.894,6270.46 288.302,6271.96 286.364,6271.96C284.324,6271.96 282.668,6270.3 282.668,6268.26L282.668,6261.57ZM283.598,6254.95C284.167,6254.95 284.629,6254.49 284.629,6253.92C284.629,6253.35 284.167,6252.89 283.598,6252.89L264.791,6252.89C264.222,6252.89 263.761,6253.35 263.761,6253.92C263.761,6254.49 264.222,6254.95 264.791,6254.95L283.598,6254.95ZM283.598,6248.49C284.167,6248.49 284.629,6248.03 284.629,6247.46C284.629,6246.89 284.167,6246.43 283.598,6246.43L264.791,6246.43C264.222,6246.43 263.761,6246.89 263.761,6247.46C263.761,6248.03 264.222,6248.49 264.791,6248.49L283.598,6248.49ZM283.598,6242.02C284.167,6242.02 284.629,6241.56 284.629,6240.99C284.629,6240.42 284.167,6239.96 283.598,6239.96L264.791,6239.96C264.222,6239.96 263.761,6240.42 263.761,6240.99C263.761,6241.56 264.222,6242.02 264.791,6242.02L283.598,6242.02Z" style="fill:white;"/>
        </g>
    </g>
</svg>
