<?xml version="1.0" encoding="UTF-8" standalone="no"?>
<!DOCTYPE svg PUBLIC "-//W3C//DTD SVG 1.1//EN" "http://www.w3.org/Graphics/SVG/1.1/DTD/svg11.dtd">
<svg width="100%" height="100%" viewBox="0 0 512 512" version="1.1" xmlns="http://www.w3.org/2000/svg" xmlns:xlink="http://www.w3.org/1999/xlink" xml:space="preserve" xmlns:serif="http://www.serif.com/" style="fill-rule:evenodd;clip-rule:evenodd;stroke-linecap:round;stroke-linejoin:round;stroke-miterlimit:1.5;">
    <g id="Rainbow" transform="matrix(1.70565,0,0,1.70565,-709.693,-988.477)">
        <g transform="matrix(0.952972,0,0,0.952972,444.193,584.521)">
            <g transform="matrix(1.08889,0,0,1.08889,-11.3779,-10.7468)">
                <path d="M17.269,192.096L17.269,159.943C17.269,98.911 66.886,49.705 128,49.705C189.114,49.705 238.731,98.911 238.731,159.943L238.731,192.096" style="fill:none;stroke:rgb(240,101,149);stroke-width:34.45px;"/>
            </g>
            <path d="M33.321,192.096L33.321,160.216C33.321,108.043 75.745,65.685 128,65.685C180.255,65.685 222.679,108.043 222.679,160.216L222.679,192.096" style="fill:none;stroke:rgb(255,221,0);stroke-width:34.45px;"/>
            <g transform="matrix(0.827836,0,0,0.827836,22.037,23.517)">
                <path d="M49.112,192.096L49.112,161.015C49.112,116.907 84.461,81.096 128,81.096C171.539,81.096 206.888,116.907 206.888,161.015L206.888,192.096" style="fill:none;stroke:rgb(59,201,219);stroke-width:41.62px;"/>
            </g>
        </g>
        <g transform="matrix(1,0,0,1,-333.32,33.5457)">
            <g id="Cloud" transform="matrix(5.64539,0,0,5.64539,-4427.11,-16514.6)">
                <path d="M970,3061.5C970,3064.54 967.538,3067 964.5,3067C964.499,3067 964.498,3067 964.497,3067L964.497,3067L952.497,3067L952.497,3067C948.908,3067 946,3064.09 946,3060.5C946,3057.24 948.415,3054.56 951.552,3054.1C952.715,3051.12 955.607,3049 959,3049C963.289,3049 966.779,3052.38 966.981,3056.62C968.765,3057.53 970,3059.36 970,3061.5Z" style="fill:white;"/>
                <clipPath id="_clip1">
                    <path d="M970,3061.5C970,3064.54 967.538,3067 964.5,3067C964.499,3067 964.498,3067 964.497,3067L964.497,3067L952.497,3067L952.497,3067C948.908,3067 946,3064.09 946,3060.5C946,3057.24 948.415,3054.56 951.552,3054.1C952.715,3051.12 955.607,3049 959,3049C963.289,3049 966.779,3052.38 966.981,3056.62C968.765,3057.53 970,3059.36 970,3061.5Z"/>
                </clipPath>
                <g clip-path="url(#_clip1)">
                    <g transform="matrix(0.151165,0,0,0.144988,927.676,3034.81)">
                        <rect x="201.147" y="87.046" width="98.241" height="158.838" style="fill:rgb(233,236,239);"/>
                    </g>
                </g>
            </g>
            <g id="Cloud1" serif:id="Cloud" transform="matrix(5.64539,0,0,5.64539,-4590.46,-16514.9)">
                <path d="M970,3061.5C970,3064.54 967.538,3067 964.5,3067C964.499,3067 964.498,3067 964.497,3067L964.497,3067L952.497,3067L952.497,3067C948.908,3067 946,3064.09 946,3060.5C946,3057.24 948.415,3054.56 951.552,3054.1C952.715,3051.12 955.607,3049 959,3049C963.289,3049 966.779,3052.38 966.981,3056.62C968.765,3057.53 970,3059.36 970,3061.5Z" style="fill:white;"/>
                <clipPath id="_clip2">
                    <path d="M970,3061.5C970,3064.54 967.538,3067 964.5,3067C964.499,3067 964.498,3067 964.497,3067L964.497,3067L952.497,3067L952.497,3067C948.908,3067 946,3064.09 946,3060.5C946,3057.24 948.415,3054.56 951.552,3054.1C952.715,3051.12 955.607,3049 959,3049C963.289,3049 966.779,3052.38 966.981,3056.62C968.765,3057.53 970,3059.36 970,3061.5Z"/>
                </clipPath>
                <g clip-path="url(#_clip2)">
                    <g transform="matrix(0.151165,0,0,0.144988,927.676,3034.81)">
                        <rect x="201.147" y="87.046" width="98.241" height="158.838" style="fill:rgb(233,236,239);"/>
                    </g>
                </g>
            </g>
        </g>
    </g>
</svg>
