<?xml version="1.0" encoding="UTF-8" standalone="no"?>
<!DOCTYPE svg PUBLIC "-//W3C//DTD SVG 1.1//EN" "http://www.w3.org/Graphics/SVG/1.1/DTD/svg11.dtd">
<svg width="100%" height="100%" viewBox="0 0 512 512" version="1.1" xmlns="http://www.w3.org/2000/svg" xmlns:xlink="http://www.w3.org/1999/xlink" xml:space="preserve" xmlns:serif="http://www.serif.com/" style="fill-rule:evenodd;clip-rule:evenodd;stroke-linejoin:round;stroke-miterlimit:2;">
    <g id="RainIcon" transform="matrix(6.83876,0,0,6.83876,-4565.96,-6171.15)">
        <g id="Rain-Icon" serif:id="Rain Icon" transform="matrix(1,0,0,1,-1165.46,351.599)">
            <path d="M1851.96,566.441C1855.02,559.28 1862.2,554.25 1870.56,554.25C1878.91,554.25 1886.09,559.28 1889.15,566.441C1890.12,566.229 1891.12,566.117 1892.15,566.117C1899.77,566.117 1905.95,572.225 1905.95,579.748C1905.95,587.272 1899.77,593.38 1892.15,593.38C1888.62,593.38 1885.4,592.067 1882.96,589.909C1879.54,592.552 1875.23,594.127 1870.56,594.127C1865.88,594.127 1861.57,592.552 1858.15,589.909C1855.71,592.067 1852.49,593.38 1848.96,593.38C1841.34,593.38 1835.16,587.272 1835.16,579.748C1835.16,572.225 1841.34,566.117 1848.96,566.117C1849.99,566.117 1850.99,566.229 1851.96,566.441Z" style="fill:white;"/>
        </g>
        <g transform="matrix(1,0,0,1,1.08866,0)">
            <g transform="matrix(0.355568,0,0,0.317175,204.043,614.878)">
                <path d="M1372.45,1058.25C1372.45,1058.25 1363.26,1076.77 1363.26,1084.71C1363.26,1090.4 1367.38,1095.02 1372.45,1095.02C1377.53,1095.02 1381.64,1090.4 1381.64,1084.71C1381.64,1076.77 1372.45,1058.25 1372.45,1058.25Z" style="fill:white;"/>
            </g>
            <g transform="matrix(0.355568,0,0,0.317175,227.964,614.391)">
                <path d="M1372.45,1058.25C1372.45,1058.25 1363.26,1076.77 1363.26,1084.71C1363.26,1090.4 1367.38,1095.02 1372.45,1095.02C1377.53,1095.02 1381.64,1090.4 1381.64,1084.71C1381.64,1076.77 1372.45,1058.25 1372.45,1058.25Z" style="fill:white;"/>
            </g>
            <g transform="matrix(0.355568,0,0,0.317175,216.003,626.465)">
                <path d="M1372.45,1058.25C1372.45,1058.25 1363.26,1076.77 1363.26,1084.71C1363.26,1090.4 1367.38,1095.02 1372.45,1095.02C1377.53,1095.02 1381.64,1090.4 1381.64,1084.71C1381.64,1076.77 1372.45,1058.25 1372.45,1058.25Z" style="fill:white;"/>
            </g>
        </g>
    </g>
</svg>
