<?xml version="1.0" encoding="UTF-8" standalone="no"?>
<!DOCTYPE svg PUBLIC "-//W3C//DTD SVG 1.1//EN" "http://www.w3.org/Graphics/SVG/1.1/DTD/svg11.dtd">
<svg width="100%" height="100%" viewBox="0 0 512 512" version="1.1" xmlns="http://www.w3.org/2000/svg" xmlns:xlink="http://www.w3.org/1999/xlink" xml:space="preserve" xmlns:serif="http://www.serif.com/" style="fill-rule:evenodd;clip-rule:evenodd;stroke-linejoin:round;stroke-miterlimit:2;">
    <g id="RelationsIcon" transform="matrix(12.9269,0,0,12.9269,-23510.8,-5693.86)">
        <path d="M1838.04,469.61C1840.51,469.61 1842.51,471.613 1842.51,474.079C1842.51,476.545 1840.51,478.548 1838.04,478.548C1835.58,478.548 1833.58,476.545 1833.58,474.079C1833.58,471.613 1835.58,469.61 1838.04,469.61ZM1850.04,467.119C1850.64,467.344 1851.28,467.491 1851.95,467.548C1850.47,470.36 1848.17,472.669 1845.36,474.152C1845.36,474.128 1845.36,474.103 1845.36,474.079C1845.36,473.407 1845.27,472.757 1845.1,472.139C1847.14,470.92 1848.85,469.187 1850.04,467.119ZM1826.2,467.382C1827.38,469.334 1829.03,470.972 1830.99,472.139C1830.82,472.757 1830.73,473.407 1830.73,474.079C1830.73,474.103 1830.73,474.128 1830.73,474.152C1827.93,472.672 1825.62,470.369 1824.15,467.565C1824.27,467.572 1824.4,467.575 1824.53,467.575C1825.11,467.575 1825.67,467.509 1826.2,467.382ZM1852.58,455.791C1855.05,455.791 1857.05,457.793 1857.05,460.26C1857.05,462.726 1855.05,464.728 1852.58,464.728C1850.12,464.728 1848.12,462.726 1848.12,460.26C1848.12,457.793 1850.12,455.791 1852.58,455.791ZM1824.53,455.791C1827,455.791 1829,457.793 1829,460.26C1829,462.726 1827,464.728 1824.53,464.728C1822.06,464.728 1820.06,462.726 1820.06,460.26C1820.06,457.793 1822.06,455.791 1824.53,455.791ZM1845.36,446.367C1848.17,447.85 1850.47,450.159 1851.95,452.971C1851.28,453.028 1850.64,453.175 1850.04,453.4C1848.85,451.334 1847.15,449.602 1845.1,448.384C1845.27,447.771 1845.36,447.127 1845.36,446.462C1845.36,446.43 1845.36,446.399 1845.36,446.367ZM1830.73,446.367C1830.73,446.399 1830.73,446.43 1830.73,446.462C1830.73,447.127 1830.82,447.771 1830.98,448.384C1829.03,449.55 1827.38,451.187 1826.2,453.137C1825.67,453.011 1825.11,452.944 1824.53,452.944C1824.4,452.944 1824.27,452.947 1824.15,452.954C1825.62,450.15 1827.93,447.847 1830.73,446.367ZM1838.04,441.994C1840.51,441.994 1842.51,443.996 1842.51,446.462C1842.51,448.929 1840.51,450.931 1838.04,450.931C1835.58,450.931 1833.58,448.929 1833.58,446.462C1833.58,443.996 1835.58,441.994 1838.04,441.994Z" style="fill:white;"/>
    </g>
</svg>
