<?xml version="1.0" encoding="UTF-8" standalone="no"?>
<!DOCTYPE svg PUBLIC "-//W3C//DTD SVG 1.1//EN" "http://www.w3.org/Graphics/SVG/1.1/DTD/svg11.dtd">
<svg width="100%" height="100%" viewBox="0 0 512 512" version="1.1" xmlns="http://www.w3.org/2000/svg" xmlns:xlink="http://www.w3.org/1999/xlink" xml:space="preserve" xmlns:serif="http://www.serif.com/" style="fill-rule:evenodd;clip-rule:evenodd;stroke-linejoin:round;stroke-miterlimit:2;">
    <g id="Reload---Rounded" serif:id="Reload - Rounded" transform="matrix(2,0,0,2,-33.2086,0.575545)">
        <g transform="matrix(0.877368,0,0,0.877368,16.412,15.9291)">
            <path d="M218.573,45.153C196.098,22.678 165.616,10.052 133.832,10.052C67.689,10.052 13.99,63.752 13.99,129.894C13.99,196.036 67.689,249.736 133.832,249.736C164.285,249.736 193.246,238.165 215.163,217.915C219.828,213.607 222.292,207.418 221.864,201.082C221.436,194.746 218.163,188.944 212.961,185.301C212.961,185.301 212.961,185.301 212.961,185.301C207.289,181.329 199.559,182.135 194.829,187.192C179.138,203.908 157.109,213.588 133.832,213.588C87.64,213.588 50.138,176.086 50.138,129.894C50.138,83.702 87.64,46.2 133.832,46.2C156.029,46.2 177.317,55.018 193.012,70.713L218.573,45.153Z" style="fill:white;"/>
        </g>
        <g transform="matrix(0.593428,-1.02785,1.02785,0.593428,42.7134,125.28)">
            <g transform="matrix(0.707107,-0.707107,0.707107,0.707107,-32.4161,95.3211)">
                <path d="M110.23,68.531C110.23,59.952 103.264,52.986 94.684,52.986C86.104,52.986 79.138,59.952 79.138,68.531L79.138,107.122C79.138,115.701 86.104,122.667 94.684,122.667C103.264,122.667 110.23,115.701 110.23,107.122L110.23,68.531Z" style="fill:white;"/>
            </g>
            <g transform="matrix(-0.707107,-0.707107,-0.707107,0.707107,253.221,95.21)">
                <path d="M110.23,68.531C110.23,59.952 103.264,52.986 94.684,52.986C86.104,52.986 79.138,59.952 79.138,68.531L79.138,107.122C79.138,115.701 86.104,122.667 94.684,122.667C103.264,122.667 110.23,115.701 110.23,107.122L110.23,68.531Z" style="fill:white;"/>
            </g>
        </g>
    </g>
</svg>
