<?xml version="1.0" encoding="UTF-8" standalone="no"?>
<!DOCTYPE svg PUBLIC "-//W3C//DTD SVG 1.1//EN" "http://www.w3.org/Graphics/SVG/1.1/DTD/svg11.dtd">
<svg width="100%" height="100%" viewBox="0 0 512 512" version="1.1" xmlns="http://www.w3.org/2000/svg" xmlns:xlink="http://www.w3.org/1999/xlink" xml:space="preserve" xmlns:serif="http://www.serif.com/" style="fill-rule:evenodd;clip-rule:evenodd;stroke-linejoin:round;stroke-miterlimit:2;">
    <g id="ReloadIcon" transform="matrix(19.7752,0,0,19.5412,-14377.7,-68099)">
        <path d="M751.62,3495L748.47,3495L742.961,3495L746.339,3491.64C744.703,3490.01 742.444,3489 739.947,3489C735.346,3489 731.55,3492.42 730.984,3496.85C730.984,3496.85 730.811,3498 729.506,3498C728.675,3498 728.001,3497.33 728.001,3496.5C728.001,3496.39 728.014,3496.28 728.038,3496.17C728.924,3490.41 733.916,3486 739.947,3486C743.276,3486 746.289,3487.34 748.47,3489.51L752,3486L752,3495L751.62,3495ZM731.53,3501L737.039,3501L733.661,3504.36C735.296,3505.99 737.556,3507 740.053,3507C744.654,3507 748.45,3503.58 749.016,3499.15C749.016,3499.15 749.189,3498 750.494,3498C751.325,3498 751.999,3498.67 751.999,3499.5C751.999,3499.61 751.986,3499.72 751.962,3499.83C751.076,3505.59 746.084,3510 740.053,3510C736.724,3510 733.711,3508.66 731.53,3506.49L728,3510L728,3501L731.53,3501Z" style="fill:white;"/>
    </g>
</svg>
