<?xml version="1.0" encoding="UTF-8" standalone="no"?>
<!DOCTYPE svg PUBLIC "-//W3C//DTD SVG 1.1//EN" "http://www.w3.org/Graphics/SVG/1.1/DTD/svg11.dtd">
<svg width="100%" height="100%" viewBox="0 0 512 512" version="1.1" xmlns="http://www.w3.org/2000/svg" xmlns:xlink="http://www.w3.org/1999/xlink" xml:space="preserve" xmlns:serif="http://www.serif.com/" style="fill-rule:evenodd;clip-rule:evenodd;stroke-linejoin:round;stroke-miterlimit:2;">
    <g id="Resize-Plus" serif:id="Resize Plus" transform="matrix(21.0669,0,0,21.0669,-24518.7,-71118.6)">
        <path d="M1178.96,3400L1182.42,3396.56L1178.41,3392.55C1177.81,3391.96 1177.81,3391 1178.41,3390.41C1179,3389.82 1179.96,3389.82 1180.55,3390.41L1184.56,3394.42L1188,3391L1188,3400L1178.96,3400ZM1180.55,3385.59C1179.96,3386.18 1179,3386.18 1178.41,3385.59C1177.81,3385 1177.81,3384.04 1178.41,3383.45L1182.42,3379.44L1178.96,3376L1188,3376L1188,3385L1184.56,3381.58L1180.55,3385.59ZM1169.57,3396.57L1173.01,3400L1164,3400L1164,3391.03L1167.43,3394.44L1171.43,3390.44C1172.02,3389.85 1172.97,3389.85 1173.56,3390.44C1174.15,3391.03 1174.15,3391.98 1173.56,3392.57L1169.57,3396.57ZM1171.43,3385.56L1167.43,3381.56L1164,3384.97L1164,3376L1173.01,3376L1169.57,3379.43L1173.56,3383.43C1174.15,3384.02 1174.15,3384.97 1173.56,3385.56C1172.97,3386.15 1172.02,3386.15 1171.43,3385.56Z" style="fill:white;"/>
    </g>
</svg>
