<?xml version="1.0" encoding="UTF-8" standalone="no"?>
<!DOCTYPE svg PUBLIC "-//W3C//DTD SVG 1.1//EN" "http://www.w3.org/Graphics/SVG/1.1/DTD/svg11.dtd">
<svg width="100%" height="100%" viewBox="0 0 512 512" version="1.1" xmlns="http://www.w3.org/2000/svg" xmlns:xlink="http://www.w3.org/1999/xlink" xml:space="preserve" xmlns:serif="http://www.serif.com/" style="fill-rule:evenodd;clip-rule:evenodd;stroke-linejoin:round;stroke-miterlimit:2;">
    <g id="Resize-Minus--Thin-" serif:id="Resize Minus (Thin)" transform="matrix(21.0669,0,0,21.0669,-22222,-73435.7)">
        <path d="M1078.66,3487.81L1071.53,3495L1075.98,3495.02C1076.53,3495.02 1076.98,3495.45 1076.98,3496C1076.98,3496.55 1076.53,3496.98 1075.98,3496.98L1069.02,3496.99C1068.74,3496.99 1068.48,3496.87 1068.3,3496.68C1068.3,3496.68 1068.3,3496.68 1068.3,3496.68C1068.3,3496.68 1068.3,3496.68 1068.3,3496.68C1068.11,3496.49 1067.99,3496.24 1067.99,3495.96L1068,3488.97C1068,3488.42 1068.42,3487.97 1068.97,3487.97C1069.52,3487.97 1069.95,3488.42 1069.95,3488.97L1069.98,3493.42L1077.15,3486.28C1077.57,3485.86 1078.25,3485.86 1078.66,3486.28C1079.08,3486.7 1079.08,3487.39 1078.66,3487.81ZM1065,3508C1064.45,3508 1064.02,3507.55 1064.02,3507L1063.99,3502.55L1056.82,3509.68C1056.4,3510.11 1055.72,3510.11 1055.31,3509.68C1054.89,3509.26 1054.89,3508.58 1055.31,3508.16L1062.44,3500.97L1057.99,3500.95C1057.44,3500.95 1056.99,3500.52 1056.99,3499.97C1056.99,3499.41 1057.44,3498.99 1057.99,3498.99L1064.95,3498.98C1065.23,3498.98 1065.49,3499.1 1065.67,3499.29L1065.67,3499.29C1065.67,3499.29 1065.67,3499.29 1065.67,3499.29C1065.86,3499.47 1065.98,3499.73 1065.98,3500.01L1065.97,3507C1065.97,3507.55 1065.55,3508 1065,3508Z" style="fill:white;"/>
    </g>
</svg>
