<?xml version="1.0" encoding="UTF-8" standalone="no"?>
<!DOCTYPE svg PUBLIC "-//W3C//DTD SVG 1.1//EN" "http://www.w3.org/Graphics/SVG/1.1/DTD/svg11.dtd">
<svg width="100%" height="100%" viewBox="0 0 512 512" version="1.1" xmlns="http://www.w3.org/2000/svg" xmlns:xlink="http://www.w3.org/1999/xlink" xml:space="preserve" xmlns:serif="http://www.serif.com/" style="fill-rule:evenodd;clip-rule:evenodd;stroke-linejoin:round;stroke-miterlimit:2;">
    <g id="Resize-Plus--Thin-" serif:id="Resize Plus (Thin)" transform="matrix(21.0669,0,0,21.0669,-24518.7,-73436)">
        <path d="M1188.01,3494.03C1188.01,3494.58 1187.58,3495.03 1187.03,3495.03C1186.48,3495.03 1186.05,3494.58 1186.05,3494.03L1186.02,3489.58L1178.85,3496.72C1178.43,3497.14 1177.76,3497.14 1177.34,3496.72C1176.92,3496.3 1176.92,3495.62 1177.34,3495.2L1184.47,3488L1180.02,3487.98C1179.47,3487.98 1179.02,3487.55 1179.02,3487C1179.02,3486.45 1179.47,3486.02 1180.02,3486.02L1186.98,3486.01C1187.27,3486.01 1187.52,3486.13 1187.7,3486.32C1187.7,3486.32 1187.7,3486.32 1187.7,3486.32C1187.7,3486.32 1187.7,3486.32 1187.7,3486.32C1187.89,3486.51 1188.01,3486.76 1188.01,3487.05L1188.01,3494.03ZM1167.54,3508.01L1172,3508.03C1172.56,3508.03 1173,3508.45 1173,3509.01C1173,3509.56 1172.56,3509.98 1172,3509.98L1165.02,3509.99C1164.74,3509.99 1164.48,3509.87 1164.3,3509.68C1164.3,3509.68 1164.3,3509.68 1164.3,3509.68C1164.3,3509.68 1164.3,3509.68 1164.3,3509.68C1164.11,3509.5 1163.99,3509.24 1163.99,3508.96L1164,3501.99C1164,3501.44 1164.42,3501 1164.98,3501C1165.53,3501 1165.95,3501.44 1165.95,3501.99L1165.99,3506.43L1173.17,3499.32C1173.59,3498.9 1174.27,3498.89 1174.69,3499.31C1175.11,3499.73 1175.11,3500.41 1174.69,3500.83L1167.54,3508.01Z" style="fill:white;"/>
    </g>
</svg>
