<?xml version="1.0" encoding="UTF-8" standalone="no"?>
<!DOCTYPE svg PUBLIC "-//W3C//DTD SVG 1.1//EN" "http://www.w3.org/Graphics/SVG/1.1/DTD/svg11.dtd">
<svg width="100%" height="100%" viewBox="0 0 512 512" version="1.1" xmlns="http://www.w3.org/2000/svg" xmlns:xlink="http://www.w3.org/1999/xlink" xml:space="preserve" xmlns:serif="http://www.serif.com/" style="fill-rule:evenodd;clip-rule:evenodd;stroke-linejoin:round;stroke-miterlimit:2;">
    <g id="Resize-Minus" serif:id="Resize Minus" transform="matrix(21.0669,0,0,21.0669,-22222.4,-71118.6)">
        <path d="M1078.56,3378.59L1074.57,3382.58L1078.01,3386L1069,3386L1069,3377.06L1072.43,3380.46L1076.43,3376.47C1077.02,3375.88 1077.97,3375.88 1078.56,3376.47C1079.15,3377.05 1079.15,3378.01 1078.56,3378.59ZM1074.54,3393.42L1078.53,3397.41C1079.12,3397.99 1079.12,3398.95 1078.53,3399.53C1077.94,3400.12 1076.99,3400.12 1076.4,3399.53L1072.39,3395.54L1068.97,3398.94L1068.97,3390L1077.98,3390L1074.54,3393.42ZM1059.45,3382.57L1055.46,3378.57C1054.88,3377.98 1054.88,3377.03 1055.46,3376.44C1056.05,3375.85 1057.01,3375.85 1057.59,3376.44L1061.59,3380.44L1065,3377.03L1065,3386L1056.02,3386L1059.45,3382.57ZM1059.42,3393.43L1055.99,3390L1064.97,3390L1064.97,3398.97L1061.55,3395.56L1057.56,3399.56C1056.97,3400.15 1056.02,3400.15 1055.43,3399.56C1054.85,3398.97 1054.85,3398.02 1055.43,3397.43L1059.42,3393.43Z" style="fill:white;"/>
    </g>
</svg>
