<?xml version="1.0" encoding="UTF-8" standalone="no"?>
<!DOCTYPE svg PUBLIC "-//W3C//DTD SVG 1.1//EN" "http://www.w3.org/Graphics/SVG/1.1/DTD/svg11.dtd">
<svg width="100%" height="100%" viewBox="0 0 512 512" version="1.1" xmlns="http://www.w3.org/2000/svg" xmlns:xlink="http://www.w3.org/1999/xlink" xml:space="preserve" xmlns:serif="http://www.serif.com/" style="fill-rule:evenodd;clip-rule:evenodd;stroke-linejoin:round;stroke-miterlimit:2;">
    <g id="RingIcon" transform="matrix(3.19853,0,0,3.19853,-5659.66,-2867.4)">
        <g transform="matrix(1,0,0,1.30425,437.656,-308.064)">
            <path d="M1429.21,960.39C1429.21,958.569 1427.28,957.091 1424.9,957.091L1398.77,957.091C1396.4,957.091 1394.47,958.569 1394.47,960.39L1394.47,966.989C1394.47,968.81 1396.4,970.288 1398.77,970.288L1424.9,970.288C1427.28,970.288 1429.21,968.81 1429.21,966.989L1429.21,960.39Z" style="fill:white;"/>
        </g>
        <g transform="matrix(0.246661,0,0,0.246661,1772.87,796.973)">
            <g id="Gem">
                <path id="GemIcon" d="M310.874,660.788C310.842,660.895 310.743,660.969 310.631,660.969C310.519,660.969 310.42,660.895 310.388,660.788C307.364,650.606 277.111,548.732 275.179,542.227C275.157,542.15 275.171,542.067 275.219,542.003C275.267,541.939 275.342,541.901 275.422,541.901C280.496,541.901 340.765,541.901 345.839,541.901C345.919,541.901 345.994,541.939 346.042,542.003C346.09,542.067 346.105,542.15 346.082,542.227C344.15,548.732 313.897,650.606 310.874,660.788ZM296.049,646.175C296.085,646.293 296.031,646.42 295.92,646.476C295.81,646.531 295.675,646.499 295.602,646.399C287.365,635.156 224.188,548.932 219.333,542.304C219.276,542.227 219.268,542.125 219.311,542.04C219.354,541.955 219.442,541.901 219.537,541.901C224.27,541.901 261.075,541.901 264.025,541.901C264.137,541.901 264.235,541.974 264.267,542.081C265.638,546.571 292.301,633.898 296.049,646.175ZM325.659,646.399C325.586,646.499 325.452,646.531 325.341,646.476C325.231,646.42 325.176,646.293 325.212,646.175C328.961,633.898 355.623,546.571 356.994,542.081C357.027,541.974 357.125,541.901 357.236,541.901C360.187,541.901 396.991,541.901 401.724,541.901C401.82,541.901 401.907,541.955 401.95,542.04C401.994,542.125 401.985,542.227 401.929,542.304C397.073,548.932 333.897,635.156 325.659,646.399ZM346.082,532.786C346.105,532.863 346.09,532.946 346.042,533.01C345.994,533.074 345.919,533.112 345.839,533.112C340.765,533.112 280.496,533.112 275.422,533.112C275.342,533.112 275.267,533.074 275.219,533.01C275.171,532.946 275.157,532.863 275.179,532.786C276.218,529.288 285.293,498.73 286.076,496.093C286.108,495.985 286.207,495.912 286.319,495.912C289.5,495.912 331.762,495.912 334.942,495.912C335.055,495.912 335.154,495.985 335.185,496.093C335.968,498.73 345.043,529.288 346.082,532.786ZM264.267,532.932C264.235,533.039 264.137,533.112 264.025,533.112C261.075,533.112 224.27,533.112 219.537,533.112C219.442,533.112 219.354,533.058 219.311,532.973C219.268,532.888 219.276,532.786 219.333,532.709C222.184,528.817 244.741,498.031 246.218,496.015C246.265,495.95 246.341,495.912 246.422,495.912C248.38,495.912 272.089,495.912 275.228,495.912C275.308,495.912 275.384,495.95 275.432,496.014C275.48,496.079 275.494,496.162 275.47,496.239C274.399,499.747 265.069,530.309 264.267,532.932ZM401.929,532.709C401.985,532.786 401.994,532.888 401.95,532.973C401.907,533.058 401.82,533.112 401.724,533.112C396.991,533.112 360.187,533.112 357.236,533.112C357.125,533.112 357.027,533.039 356.994,532.932C356.193,530.309 346.862,499.747 345.791,496.239C345.768,496.162 345.782,496.079 345.83,496.014C345.878,495.95 345.953,495.912 346.033,495.912C349.173,495.912 372.882,495.912 374.839,495.912C374.92,495.912 374.996,495.95 375.044,496.015C376.521,498.031 399.077,528.817 401.929,532.709Z" style="fill:white;"/>
            </g>
        </g>
        <g id="Ring" transform="matrix(1,0,0,1,440.98,-16.8682)">
            <path d="M1408.52,964.115C1437.89,964.115 1461.75,987.967 1461.75,1017.35C1461.75,1046.72 1437.89,1070.58 1408.52,1070.58C1379.14,1070.58 1355.28,1046.72 1355.28,1017.35C1355.28,987.967 1379.14,964.115 1408.52,964.115ZM1408.52,976.72C1430.94,976.72 1449.14,994.924 1449.14,1017.35C1449.14,1039.77 1430.94,1057.97 1408.52,1057.97C1386.09,1057.97 1367.89,1039.77 1367.89,1017.35C1367.89,994.924 1386.09,976.72 1408.52,976.72Z" style="fill:white;"/>
        </g>
        <g transform="matrix(1,0,0,1,0.166668,0)">
            <g transform="matrix(0.539634,0,0,0.539634,1463.1,650.408)">
                <path d="M762.958,496.038L764.46,500.096L768.518,501.597L764.46,503.099L762.958,507.157L761.457,503.099L757.399,501.597L761.457,500.096L762.958,496.038Z" style="fill:white;"/>
            </g>
            <g transform="matrix(0.539634,0,0,0.539634,1412.11,650.953)">
                <path d="M762.958,496.038L764.46,500.096L768.518,501.597L764.46,503.099L762.958,507.157L761.457,503.099L757.399,501.597L761.457,500.096L762.958,496.038Z" style="fill:white;"/>
            </g>
            <g transform="matrix(1.18242,0,0,1.18242,947.356,312.792)">
                <path d="M762.958,496.038L764.46,500.096L768.518,501.597L764.46,503.099L762.958,507.157L761.457,503.099L757.399,501.597L761.457,500.096L762.958,496.038Z" style="fill:white;"/>
            </g>
        </g>
    </g>
</svg>
