<?xml version="1.0" encoding="UTF-8" standalone="no"?>
<!DOCTYPE svg PUBLIC "-//W3C//DTD SVG 1.1//EN" "http://www.w3.org/Graphics/SVG/1.1/DTD/svg11.dtd">
<svg width="100%" height="100%" viewBox="0 0 512 512" version="1.1" xmlns="http://www.w3.org/2000/svg" xmlns:xlink="http://www.w3.org/1999/xlink" xml:space="preserve" xmlns:serif="http://www.serif.com/" style="fill-rule:evenodd;clip-rule:evenodd;stroke-linejoin:round;stroke-miterlimit:2;">
    <g id="RingMagicIcon" transform="matrix(2.80066,0,0,2.80066,-844.108,-2472.97)">
        <path d="M320.028,1013.73L324.492,1025.8L336.556,1030.26L324.492,1034.72L320.028,1046.79L315.564,1034.72L303.5,1030.26L315.564,1025.8L320.028,1013.73ZM362.093,935.82C389.39,920.06 422.133,925.593 435.166,948.168C448.2,970.742 436.62,1001.87 409.323,1017.62C382.027,1033.38 349.284,1027.85 336.25,1005.28C323.217,982.702 334.797,951.58 362.093,935.82ZM369.013,947.806C388.311,936.664 411.943,940.084 421.158,956.043C430.372,972.002 421.701,994.497 402.403,1005.64C383.105,1016.78 358.973,1013.51 349.759,997.553C340.545,981.593 349.716,958.947 369.013,947.806ZM465.578,944.818L470.042,956.882L482.106,961.346L470.042,965.81L465.578,977.874L461.114,965.81L449.05,961.346L461.114,956.882L465.578,944.818ZM339.804,902.016L344.268,914.08L356.332,918.544L344.268,923.008L339.804,935.072L335.34,923.008L323.276,918.544L335.34,914.08L339.804,902.016Z" style="fill:white;"/>
    </g>
</svg>
