<?xml version="1.0" encoding="UTF-8" standalone="no"?>
<!DOCTYPE svg PUBLIC "-//W3C//DTD SVG 1.1//EN" "http://www.w3.org/Graphics/SVG/1.1/DTD/svg11.dtd">
<svg width="100%" height="100%" viewBox="0 0 512 512" version="1.1" xmlns="http://www.w3.org/2000/svg" xmlns:xlink="http://www.w3.org/1999/xlink" xml:space="preserve" xmlns:serif="http://www.serif.com/" style="fill-rule:evenodd;clip-rule:evenodd;stroke-linejoin:round;stroke-miterlimit:2;">
    <g id="Roboter" transform="matrix(1.93208,0,0,1.93208,0,0)">
        <path d="M163.627,234.995L102.857,234.995L102.857,249.997C102.857,258.278 109.579,265 117.859,265L148.625,265C156.905,265 163.627,258.278 163.627,249.997L163.627,234.995ZM119.426,243.292C119.426,242.504 118.787,241.865 117.999,241.865L115.145,241.865C114.357,241.865 113.717,242.504 113.717,243.292L113.717,256.703C113.717,257.491 114.357,258.13 115.145,258.13L117.999,258.13C118.787,258.13 119.426,257.491 119.426,256.703L119.426,243.292ZM136.344,243.292C136.344,242.504 135.705,241.865 134.917,241.865L132.063,241.865C131.275,241.865 130.636,242.504 130.636,243.292L130.636,256.703C130.636,257.491 131.275,258.13 132.063,258.13L134.917,258.13C135.705,258.13 136.344,257.491 136.344,256.703L136.344,243.292ZM152.706,243.292C152.706,242.504 152.066,241.865 151.278,241.865L148.424,241.865C147.636,241.865 146.997,242.504 146.997,243.292L146.997,256.703C146.997,257.491 147.636,258.13 148.424,258.13L151.278,258.13C152.066,258.13 152.706,257.491 152.706,256.703L152.706,243.292Z" style="fill:white;"/>
        <g transform="matrix(0.866025,0.5,-0.5,0.866025,61.9806,-71.3015)">
            <g transform="matrix(1.0217,0,0,1.0217,2.29323,-0.908071)">
                <path d="M166.398,13.768C166.398,12.553 165.412,11.566 164.196,11.566L159.792,11.566C158.576,11.566 157.589,12.553 157.589,13.768L157.589,69.922C157.589,71.138 158.576,72.125 159.792,72.125L164.196,72.125C165.412,72.125 166.398,71.138 166.398,69.922L166.398,13.768Z" style="fill:white;"/>
            </g>
            <g transform="matrix(0.905036,0,0,0.905036,15.9353,0.180907)">
                <circle cx="167.802" cy="1.905" r="15.469" style="fill:white;"/>
            </g>
        </g>
        <path d="M198.534,101.175C198.534,64.091 168.426,33.984 131.342,33.984C94.259,33.984 64.151,64.091 64.151,101.175L64.151,191.364C64.151,209.906 79.205,224.96 97.747,224.96L164.938,224.96C183.48,224.96 198.534,209.906 198.534,191.364L198.534,101.175ZM132.5,162.451C136.887,162.451 140.449,166.013 140.449,170.401C140.449,174.788 136.887,178.35 132.5,178.35C128.113,178.35 124.551,174.788 124.551,170.401C124.551,166.013 128.113,162.451 132.5,162.451ZM108.69,162.451C113.077,162.451 116.639,166.013 116.639,170.401C116.639,174.788 113.077,178.35 108.69,178.35C104.302,178.35 100.74,174.788 100.74,170.401C100.74,166.013 104.302,162.451 108.69,162.451ZM156.31,162.451C160.698,162.451 164.26,166.013 164.26,170.401C164.26,174.788 160.698,178.35 156.31,178.35C151.923,178.35 148.361,174.788 148.361,170.401C148.361,166.013 151.923,162.451 156.31,162.451ZM168.611,92.592C168.611,75.12 154.426,60.935 136.954,60.935L125.731,60.935C108.259,60.935 94.074,75.12 94.074,92.592L94.074,108.421C94.074,117.157 101.167,124.249 109.903,124.249L152.782,124.249C161.518,124.249 168.611,117.157 168.611,108.421L168.611,92.592ZM112.942,91.31C117.242,91.31 120.733,94.801 120.733,99.101C120.733,103.401 117.242,106.892 112.942,106.892C108.642,106.892 105.151,103.401 105.151,99.101C105.151,94.801 108.642,91.31 112.942,91.31ZM148.622,91.31C152.922,91.31 156.413,94.801 156.413,99.101C156.413,103.401 152.922,106.892 148.622,106.892C144.323,106.892 140.832,103.401 140.832,99.101C140.832,94.801 144.323,91.31 148.622,91.31Z" style="fill:white;"/>
        <path d="M57.675,129.86L57.675,161.763L45.054,161.763C36.25,161.763 29.102,154.615 29.102,145.812C29.102,137.008 36.25,129.86 45.054,129.86L57.675,129.86ZM205.01,129.86L219.946,129.86C228.75,129.86 235.898,137.008 235.898,145.812C235.898,154.615 228.75,161.763 219.946,161.763L205.01,161.763L205.01,129.86Z" style="fill:white;"/>
        <g>
            <g transform="matrix(0.94605,0,0,0.667716,17.8336,70.8024)">
                <rect x="24.082" y="140.682" width="9.513" height="75.75" style="fill:white;"/>
            </g>
            <g transform="matrix(1.01349,0,0,1.01349,18.422,-2.94029)">
                <circle cx="26.339" cy="217.961" r="13.814" style="fill:white;"/>
            </g>
        </g>
        <g transform="matrix(1,0,0,1,170.893,0)">
            <g transform="matrix(0.94605,0,0,0.667716,17.8336,70.8024)">
                <rect x="24.082" y="140.682" width="9.513" height="75.75" style="fill:white;"/>
            </g>
            <g transform="matrix(1.01349,0,0,1.01349,18.422,-2.94029)">
                <circle cx="26.339" cy="217.961" r="13.814" style="fill:white;"/>
            </g>
        </g>
    </g>
</svg>
