<?xml version="1.0" encoding="UTF-8" standalone="no"?>
<!DOCTYPE svg PUBLIC "-//W3C//DTD SVG 1.1//EN" "http://www.w3.org/Graphics/SVG/1.1/DTD/svg11.dtd">
<svg width="100%" height="100%" viewBox="0 0 512 512" version="1.1" xmlns="http://www.w3.org/2000/svg" xmlns:xlink="http://www.w3.org/1999/xlink" xml:space="preserve" xmlns:serif="http://www.serif.com/" style="fill-rule:evenodd;clip-rule:evenodd;stroke-linejoin:round;stroke-miterlimit:2;">
    <g id="Rocket" transform="matrix(2.05777,-1.71341e-16,1.71341e-16,2.05777,-16.6547,-8.33896)">
        <g transform="matrix(0.913262,0,0,0.913262,11.4927,0.177613)">
            <path d="M132.5,6.163C151.628,6.163 167.157,67.665 167.157,122.532C167.157,177.398 151.628,189.411 132.5,189.411C113.372,189.411 97.843,177.398 97.843,122.532C97.843,67.665 113.372,6.163 132.5,6.163ZM132.5,42.19C141.716,42.19 149.198,49.672 149.198,58.888C149.198,68.104 141.716,75.586 132.5,75.586C123.284,75.586 115.802,68.104 115.802,58.888C115.802,49.672 123.284,42.19 132.5,42.19ZM132.5,52.078C136.259,52.078 139.311,55.129 139.311,58.888C139.311,62.647 136.259,65.699 132.5,65.699C128.741,65.699 125.689,62.647 125.689,58.888C125.689,55.129 128.741,52.078 132.5,52.078Z" style="fill:white;"/>
        </g>
        <g transform="matrix(1.02024,-8.72065e-17,8.72065e-17,1.02024,-7.26741,1.4822)">
            <path d="M172.024,132.742C172.889,133.488 173.732,134.272 174.554,135.094C190.267,150.807 192.083,174.506 178.606,187.984C176.696,180.133 172.31,170.628 165.615,161.635C168.663,154.573 170.885,145.161 172.024,132.742ZM101.966,132.742C103.106,145.162 105.327,154.575 108.375,161.635C101.68,170.628 97.294,180.133 95.385,187.984C81.907,174.506 83.723,150.807 99.436,135.094C100.258,134.272 101.102,133.488 101.966,132.742Z" style="fill:white;"/>
        </g>
        <g transform="matrix(0.913262,0,0,0.857306,11.4927,18.0644)">
            <path d="M108.441,177.524C114.678,186.845 123.16,189.71 132.5,189.71C141.84,189.71 150.322,186.845 156.559,177.524C156.766,178.803 156.874,192.708 156.874,194.045L156.874,194.616C156.874,208.069 145.953,218.99 132.5,218.99C119.047,218.99 108.126,208.069 108.126,194.616L108.126,194.045C108.126,192.708 108.234,178.803 108.441,177.524Z" style="fill:white;"/>
        </g>
        <g transform="matrix(0.915293,-7.82363e-17,7.82363e-17,0.915293,7.1093,19.1797)">
            <path d="M141.753,210.135L141.753,251.018C141.753,252.331 140.687,253.397 139.374,253.397L134.616,253.397C133.303,253.397 132.237,252.331 132.237,251.018L132.237,210.135C133.783,210.39 135.373,210.524 136.995,210.524C138.618,210.524 140.207,210.39 141.753,210.135ZM160.751,197.519L169.703,230.927C170.043,232.195 169.289,233.5 168.021,233.84L163.425,235.072C162.157,235.411 160.851,234.658 160.512,233.39L153.067,205.607C156.2,203.46 158.828,200.701 160.751,197.519ZM113.239,197.519C115.162,200.701 117.79,203.459 120.923,205.607L113.479,233.39C113.139,234.658 111.833,235.411 110.565,235.072L105.97,233.84C104.701,233.5 103.948,232.195 104.287,230.927L113.239,197.519Z" style="fill:white;"/>
        </g>
    </g>
</svg>
