<?xml version="1.0" encoding="UTF-8" standalone="no"?>
<!DOCTYPE svg PUBLIC "-//W3C//DTD SVG 1.1//EN" "http://www.w3.org/Graphics/SVG/1.1/DTD/svg11.dtd">
<svg width="100%" height="100%" viewBox="0 0 512 512" version="1.1" xmlns="http://www.w3.org/2000/svg" xmlns:xlink="http://www.w3.org/1999/xlink" xml:space="preserve" xmlns:serif="http://www.serif.com/" style="fill-rule:evenodd;clip-rule:evenodd;stroke-linejoin:round;stroke-miterlimit:2;">
    <g id="RunningIcon" transform="matrix(5.29089,0,0,5.29089,66.8857,-2675.25)">
        <path d="M14.38,525.498L14.449,525.445C15.942,524.221 28.173,515.86 31.191,517.599C34.208,519.338 31.861,526.992 35.339,531.866C39.168,537.233 51.177,538.736 52.727,533.677C53.832,530.071 57.692,531.351 57.89,533.976C58.12,537.036 58.524,539.967 59.04,542.733L50.184,544.58C49.257,544.774 48.662,545.683 48.855,546.609C49.049,547.535 49.958,548.13 50.884,547.937L59.737,546.091C60.265,548.399 60.86,550.567 61.48,552.57L52.737,554.394C51.811,554.587 51.216,555.496 51.409,556.422C51.602,557.348 52.511,557.944 53.437,557.75L62.564,555.847C65.056,562.925 67.568,567.23 67.568,567.23C67.568,567.23 72.868,569.122 77.15,573.079C79.725,575.458 80.445,578.483 80.239,581.058L79.652,581.234C64.694,586.439 50.25,579.989 38.928,568.245C27.846,556.75 15.966,530.025 14.38,525.498Z" style="fill:white;"/>
        <g transform="matrix(0.545378,0,0,0.525299,-294.954,440.438)">
            <path d="M564.043,164.628C567.063,173.246 589.154,222.714 609.702,245.154C630.693,268.078 657.877,281.088 686.589,271.943L687.713,271.638C687.432,274.909 686.365,277.773 685.089,279.662C681.889,284.398 670.703,287.687 650.543,285.089C630.384,282.491 607.364,270.28 589.307,246.273C571.25,222.266 551.906,185.94 553.708,178.037C555.485,170.245 561.136,166.977 564.043,164.628Z" style="fill:white;"/>
        </g>
        <path d="M61.48,552.57L61.984,552.465C62.911,552.272 63.82,552.867 64.013,553.793C64.206,554.719 63.611,555.628 62.685,555.822L62.564,555.847C62.199,554.812 61.835,553.718 61.48,552.57Z" style="fill:white;"/>
        <path d="M59.04,542.733L59.431,542.652C60.357,542.458 61.266,543.054 61.459,543.98C61.653,544.906 61.057,545.815 60.131,546.008L59.737,546.091C59.489,545.002 59.255,543.882 59.04,542.733Z" style="fill:white;"/>
        <g transform="matrix(0.525299,0,0,0.525299,-141.669,433.92)">
            <path d="M290.897,252.677C290.897,250.779 289.356,249.237 287.457,249.237L256.407,249.237C254.509,249.237 252.967,250.779 252.967,252.677C252.967,254.576 254.509,256.117 256.407,256.117L287.457,256.117C289.356,256.117 290.897,254.576 290.897,252.677Z" style="fill:white;"/>
        </g>
        <g transform="matrix(0.525299,0,0,0.525299,-131.225,442.84)">
            <path d="M290.897,252.677C290.897,250.779 289.356,249.237 287.457,249.237L256.407,249.237C254.509,249.237 252.967,250.779 252.967,252.677C252.967,254.576 254.509,256.117 256.407,256.117L287.457,256.117C289.356,256.117 290.897,254.576 290.897,252.677Z" style="fill:white;"/>
        </g>
    </g>
</svg>
