<?xml version="1.0" encoding="UTF-8" standalone="no"?>
<!DOCTYPE svg PUBLIC "-//W3C//DTD SVG 1.1//EN" "http://www.w3.org/Graphics/SVG/1.1/DTD/svg11.dtd">
<svg width="100%" height="100%" viewBox="0 0 512 512" version="1.1" xmlns="http://www.w3.org/2000/svg" xmlns:xlink="http://www.w3.org/1999/xlink" xml:space="preserve" xmlns:serif="http://www.serif.com/" style="fill-rule:evenodd;clip-rule:evenodd;stroke-linejoin:round;stroke-miterlimit:2;">
    <g id="ScrollIcon" transform="matrix(6.12402,0,0,6.12402,-8781.34,-4442.48)">
        <g transform="matrix(1,0,0,1,0.00306494,0.0686129)">
            <path d="M1496.01,741.797L1496.01,792.575L1455.42,792.575L1455.42,741.797L1496.01,741.797ZM1483.03,774.933L1468.4,774.933C1468.07,774.933 1467.81,775.199 1467.81,775.527L1467.81,776.715C1467.81,777.043 1468.07,777.31 1468.4,777.31L1483.03,777.31C1483.36,777.31 1483.63,777.043 1483.63,776.715L1483.63,775.527C1483.63,775.199 1483.36,774.933 1483.03,774.933ZM1488.48,765.036L1462.95,765.036C1462.63,765.036 1462.36,765.302 1462.36,765.63L1462.36,766.818C1462.36,767.146 1462.63,767.412 1462.95,767.412L1488.48,767.412C1488.81,767.412 1489.07,767.146 1489.07,766.818L1489.07,765.63C1489.07,765.302 1488.81,765.036 1488.48,765.036ZM1483.03,755.138L1468.4,755.138C1468.07,755.138 1467.81,755.404 1467.81,755.732L1467.81,756.92C1467.81,757.248 1468.07,757.514 1468.4,757.514L1483.03,757.514C1483.36,757.514 1483.63,757.248 1483.63,756.92L1483.63,755.732C1483.63,755.404 1483.36,755.138 1483.03,755.138Z" style="fill:white;"/>
        </g>
        <g transform="matrix(1,0,0,1,-3.19223,0)">
            <g>
                <path d="M1444.31,735.116L1444.31,734.957C1444.31,732.424 1446.37,730.368 1448.9,730.368C1451.44,730.368 1453.49,732.424 1453.49,734.957L1453.49,735.116L1444.31,735.116Z" style="fill:white;"/>
                <g transform="matrix(0.803207,0,0,0.803207,348.318,184.981)">
                    <path d="M1382.29,684.682C1382.29,683.178 1381.07,681.956 1379.57,681.956L1360.91,681.956C1359.41,681.956 1358.19,683.178 1358.19,684.682C1358.19,686.187 1359.41,687.408 1360.91,687.408L1379.57,687.408C1381.07,687.408 1382.29,686.187 1382.29,684.682Z" style="fill:white;"/>
                </g>
            </g>
            <g>
                <path d="M1453.49,799.469L1453.49,799.487C1453.49,802.02 1451.44,804.077 1448.9,804.077C1446.37,804.077 1444.31,802.02 1444.31,799.487L1444.31,799.469L1453.49,799.469Z" style="fill:white;"/>
                <g transform="matrix(0.803207,0,0,0.803207,348.318,249.646)">
                    <path d="M1382.29,684.682C1382.29,683.178 1381.07,681.956 1379.57,681.956L1360.91,681.956C1359.41,681.956 1358.19,683.178 1358.19,684.682C1358.19,686.187 1359.41,687.408 1360.91,687.408L1379.57,687.408C1381.07,687.408 1382.29,686.187 1382.29,684.682Z" style="fill:white;"/>
                </g>
            </g>
            <g transform="matrix(0.905864,0,0,0.691283,207.794,266.51)">
                <rect x="1361.77" y="682.92" width="16.625" height="82.902" style="fill:white;"/>
            </g>
        </g>
        <g transform="matrix(1,0,0,1,56.8238,0)">
            <g>
                <path d="M1444.31,735.116L1444.31,734.957C1444.31,732.424 1446.37,730.368 1448.9,730.368C1451.44,730.368 1453.49,732.424 1453.49,734.957L1453.49,735.116L1444.31,735.116Z" style="fill:white;"/>
                <g transform="matrix(0.803207,0,0,0.803207,348.318,184.981)">
                    <path d="M1382.29,684.682C1382.29,683.178 1381.07,681.956 1379.57,681.956L1360.91,681.956C1359.41,681.956 1358.19,683.178 1358.19,684.682C1358.19,686.187 1359.41,687.408 1360.91,687.408L1379.57,687.408C1381.07,687.408 1382.29,686.187 1382.29,684.682Z" style="fill:white;"/>
                </g>
            </g>
            <g>
                <path d="M1453.49,799.469L1453.49,799.487C1453.49,802.02 1451.44,804.077 1448.9,804.077C1446.37,804.077 1444.31,802.02 1444.31,799.487L1444.31,799.469L1453.49,799.469Z" style="fill:white;"/>
                <g transform="matrix(0.803207,0,0,0.803207,348.318,249.646)">
                    <path d="M1382.29,684.682C1382.29,683.178 1381.07,681.956 1379.57,681.956L1360.91,681.956C1359.41,681.956 1358.19,683.178 1358.19,684.682C1358.19,686.187 1359.41,687.408 1360.91,687.408L1379.57,687.408C1381.07,687.408 1382.29,686.187 1382.29,684.682Z" style="fill:white;"/>
                </g>
            </g>
            <g transform="matrix(0.905864,0,0,0.691283,207.794,266.51)">
                <rect x="1361.77" y="682.92" width="16.625" height="82.902" style="fill:white;"/>
            </g>
        </g>
    </g>
</svg>
