<?xml version="1.0" encoding="UTF-8" standalone="no"?>
<!DOCTYPE svg PUBLIC "-//W3C//DTD SVG 1.1//EN" "http://www.w3.org/Graphics/SVG/1.1/DTD/svg11.dtd">
<svg width="100%" height="100%" viewBox="0 0 512 512" version="1.1" xmlns="http://www.w3.org/2000/svg" xmlns:xlink="http://www.w3.org/1999/xlink" xml:space="preserve" xmlns:serif="http://www.serif.com/" style="fill-rule:evenodd;clip-rule:evenodd;stroke-linejoin:round;stroke-miterlimit:2;">
    <g id="ScytheIcon" transform="matrix(6.57354,0,0,6.57354,-14145.4,-3945.61)">
        <g transform="matrix(1,0,0,0.767892,21.8454,157.225)">
            <path d="M2172.88,606.116L2165.07,606.116L2165.07,667.38C2165.07,667.942 2165.42,668.397 2165.85,668.397L2172.1,668.397C2172.53,668.397 2172.88,667.942 2172.88,667.38L2172.88,606.116Z" style="fill:white;"/>
            <path d="M2172.88,667.38L2172.88,667.394L2172.88,667.407L2172.88,667.42L2172.88,667.433L2172.87,667.446L2172.87,667.459L2172.87,667.471L2172.87,667.484L2172.87,667.497L2172.87,667.51L2172.87,667.522L2172.87,667.535L2172.87,667.548L2172.86,667.56L2172.86,667.573L2172.86,667.585L2172.86,667.598L2172.86,667.61L2172.85,667.622L2172.85,667.634L2172.85,667.646L2172.85,667.659L2172.84,667.671L2172.84,667.683L2172.84,667.694L2172.84,667.706L2172.83,667.718L2172.83,667.73L2172.82,667.741L2172.82,667.753L2172.82,667.765L2172.81,667.776L2172.81,667.787L2172.81,667.799L2172.8,667.81L2172.8,667.821L2172.79,667.832L2172.79,667.843L2172.79,667.854L2172.78,667.865L2172.78,667.876L2172.77,667.886L2172.76,667.907L2172.75,667.928L2172.74,667.949L2172.73,667.969L2172.72,667.989L2172.71,668.008L2172.7,668.027L2172.68,668.046L2172.67,668.064L2172.66,668.082L2172.65,668.099L2172.63,668.116L2172.62,668.133L2172.61,668.149L2172.59,668.165L2172.58,668.18L2172.56,668.195L2172.55,668.209L2172.53,668.223L2172.52,668.237L2172.5,668.25L2172.48,668.262L2172.47,668.268L2172.47,668.274L2172.46,668.28L2172.45,668.286L2172.44,668.291L2172.43,668.297L2172.43,668.302L2172.42,668.307L2172.41,668.312L2172.4,668.317L2172.39,668.322L2172.38,668.327L2172.37,668.331L2172.36,668.335L2172.35,668.34L2172.35,668.344L2172.34,668.348L2172.33,668.351L2172.32,668.355L2172.31,668.359L2172.3,668.362L2172.29,668.365L2172.28,668.368L2172.27,668.371L2172.26,668.374L2172.25,668.376L2172.24,668.379L2172.23,668.381L2172.22,668.383L2172.21,668.385L2172.2,668.387L2172.19,668.389L2172.18,668.39L2172.18,668.392L2172.16,668.393L2172.16,668.394L2172.14,668.395L2172.14,668.396L2172.12,668.396L2172.12,668.397L2172.11,668.397L2172.1,668.397L2165.85,668.397L2165.84,668.397L2165.83,668.397L2165.82,668.396L2165.81,668.396L2165.8,668.395L2165.79,668.394L2165.78,668.393L2165.77,668.392L2165.76,668.39L2165.75,668.389L2165.74,668.387L2165.73,668.385L2165.72,668.383L2165.71,668.381L2165.7,668.379L2165.69,668.376L2165.68,668.374L2165.67,668.371L2165.66,668.368L2165.65,668.365L2165.64,668.362L2165.64,668.359L2165.63,668.355L2165.62,668.351L2165.61,668.348L2165.6,668.344L2165.59,668.34L2165.58,668.335L2165.57,668.331L2165.56,668.327L2165.55,668.322L2165.55,668.317L2165.54,668.312L2165.53,668.307L2165.52,668.302L2165.51,668.297L2165.5,668.291L2165.49,668.286L2165.49,668.28L2165.48,668.274L2165.47,668.268L2165.46,668.262L2165.44,668.25L2165.43,668.237L2165.41,668.223L2165.4,668.209L2165.38,668.195L2165.37,668.18L2165.35,668.165L2165.34,668.149L2165.32,668.133L2165.31,668.116L2165.3,668.099L2165.28,668.082L2165.27,668.064L2165.26,668.046L2165.25,668.027L2165.24,668.008L2165.22,667.989L2165.21,667.969L2165.2,667.949L2165.19,667.928L2165.18,667.907L2165.17,667.886L2165.17,667.876L2165.16,667.865L2165.16,667.854L2165.15,667.843L2165.15,667.832L2165.14,667.821L2165.14,667.81L2165.14,667.799L2165.13,667.787L2165.13,667.776L2165.13,667.765L2165.12,667.753L2165.12,667.741L2165.12,667.73L2165.11,667.718L2165.11,667.706L2165.11,667.694L2165.1,667.683L2165.1,667.671L2165.1,667.659L2165.1,667.646L2165.09,667.634L2165.09,667.622L2165.09,667.61L2165.09,667.598L2165.08,667.585L2165.08,667.573L2165.08,667.56L2165.08,667.548L2165.08,667.535L2165.08,667.522L2165.07,667.51L2165.07,667.497L2165.07,667.484L2165.07,667.471L2165.07,667.459L2165.07,667.446L2165.07,667.433L2165.07,667.42L2165.07,667.407L2165.07,667.394L2165.07,667.38L2165.07,606.116L2172.88,606.116L2172.88,667.38ZM2172.37,667.38L2172.37,667.32L2172.37,667.333L2172.37,667.213L2172.37,667.226L2172.37,667.105L2172.37,667.118L2172.37,666.997L2172.37,667.01L2172.37,666.89L2172.37,666.903L2172.36,666.783L2172.36,666.795L2172.36,666.675L2172.36,666.688L2172.35,666.568L2172.35,666.581L2172.34,666.461L2172.34,666.474L2172.33,666.354L2172.34,666.367L2172.32,666.248L2172.33,666.26L2172.31,666.141L2172.32,666.154L2172.3,666.035L2172.3,666.048L2172.29,665.944L2172.37,667.38ZM2172.29,665.936L2172.29,665.942L2172.29,665.931L2172.29,665.936ZM2171.95,657.982L2171.96,657.98L2171.86,657.983L2171.87,657.982L2171.84,657.984L2171.84,658.012L2172.1,657.981L2172.04,657.981L2172.05,657.98L2171.95,657.982Z" style="fill:white;"/>
        </g>
        <g transform="matrix(0.833849,0,0,1.09586,982.499,481.826)">
            <path d="M1449.09,140.065L1463.1,143.428L1449.09,146.79L1435.07,143.428L1449.09,140.065Z" style="fill:white;"/>
        </g>
        <g transform="matrix(0.775947,0,0,0.84995,507.541,94.8763)">
            <rect x="2159.21" y="610.164" width="20.223" height="8.242" style="fill:white;"/>
            <rect x="2159.21" y="610.164" width="20.223" height="8.242" style="fill:white;"/>
        </g>
        <g transform="matrix(1,0,0,0.061338,21.8454,570.679)">
            <path d="M2172.88,612.344C2172.88,608.907 2172.7,606.116 2172.49,606.116L2165.45,606.116C2165.24,606.116 2165.07,608.907 2165.07,612.344L2165.07,668.397L2172.88,668.397L2172.88,612.344Z" style="fill:white;"/>
            <path d="M2172.5,606.118L2172.51,606.124L2172.52,606.135L2172.53,606.149L2172.54,606.166L2172.55,606.188L2172.56,606.214L2172.57,606.243L2172.58,606.276L2172.59,606.313L2172.6,606.353L2172.61,606.397L2172.62,606.444L2172.62,606.495L2172.63,606.549L2172.64,606.606L2172.65,606.667L2172.66,606.731L2172.67,606.798L2172.68,606.869L2172.68,606.942L2172.69,607.019L2172.7,607.098L2172.71,607.181L2172.72,607.266L2172.72,607.354L2172.73,607.445L2172.74,607.539L2172.74,607.636L2172.75,607.735L2172.76,607.837L2172.76,607.941L2172.77,608.048L2172.78,608.158L2172.78,608.27L2172.79,608.384L2172.79,608.5L2172.8,608.619L2172.8,608.74L2172.81,608.863L2172.82,608.989L2172.82,609.116L2172.82,609.245L2172.83,609.377L2172.83,609.51L2172.84,609.645L2172.84,609.782L2172.85,609.921L2172.85,610.062L2172.85,610.204L2172.86,610.348L2172.86,610.493L2172.86,610.64L2172.86,610.789L2172.87,610.939L2172.87,611.09L2172.87,611.243L2172.87,611.397L2172.87,611.552L2172.87,611.708L2172.87,611.866L2172.88,612.024L2172.88,612.184L2172.88,612.344L2172.88,668.397L2167.82,668.397L2167.83,668.245L2167.83,668.375L2167.92,667.342L2167.91,667.473L2168,666.406L2167.99,666.54L2168.08,665.44L2168.07,665.575L2168.16,664.443L2168.15,664.58L2168.24,663.416L2168.23,663.555L2168.3,662.591L2167.3,668.397L2165.07,668.397L2165.07,612.344L2165.07,612.184L2165.07,612.024L2165.07,611.866L2165.07,611.708L2165.07,611.552L2165.07,611.397L2165.07,611.243L2165.08,611.09L2165.08,610.939L2165.08,610.789L2165.08,610.64L2165.09,610.493L2165.09,610.348L2165.09,610.204L2165.09,610.062L2165.1,609.921L2165.1,609.782L2165.11,609.645L2165.11,609.51L2165.11,609.377L2165.12,609.245L2165.12,609.116L2165.13,608.989L2165.13,608.863L2165.14,608.74L2165.14,608.619L2165.15,608.5L2165.16,608.384L2165.16,608.27L2165.17,608.158L2165.17,608.048L2165.18,607.941L2165.19,607.837L2165.19,607.735L2165.2,607.636L2165.21,607.539L2165.21,607.445L2165.22,607.354L2165.23,607.266L2165.24,607.181L2165.24,607.098L2165.25,607.019L2165.26,606.942L2165.27,606.869L2165.28,606.798L2165.28,606.731L2165.29,606.667L2165.3,606.606L2165.31,606.549L2165.32,606.495L2165.33,606.444L2165.34,606.397L2165.35,606.353L2165.36,606.313L2165.36,606.276L2165.37,606.243L2165.38,606.214L2165.39,606.188L2165.4,606.166L2165.41,606.149L2165.42,606.135L2165.43,606.124L2165.44,606.118L2165.45,606.116L2167.86,606.116L2167.47,612.344L2168.63,612.344L2168.37,606.116L2172.49,606.116L2172.5,606.118Z" style="fill:white;"/>
        </g>
        <g transform="matrix(1,0,0,1,-14.1617,-0.204613)">
            <g transform="matrix(1,0,0,1,37.9738,2.28903)">
                <path d="M2129.8,632.12C2133.21,626.181 2144.34,620.439 2159.21,623.839L2161.25,609.115C2142.25,608.226 2131.45,616.137 2129.8,632.12Z" style="fill:white;"/>
            </g>
            <g transform="matrix(-1,0,0,1,4371.98,2.28903)">
                <path d="M2129.8,632.12C2133.21,626.181 2144.34,620.439 2159.21,623.839L2161.25,609.115C2142.25,608.226 2131.45,616.137 2129.8,632.12Z" style="fill:white;"/>
            </g>
        </g>
    </g>
</svg>
