<?xml version="1.0" encoding="UTF-8" standalone="no"?>
<!DOCTYPE svg PUBLIC "-//W3C//DTD SVG 1.1//EN" "http://www.w3.org/Graphics/SVG/1.1/DTD/svg11.dtd">
<svg width="100%" height="100%" viewBox="0 0 512 512" version="1.1" xmlns="http://www.w3.org/2000/svg" xmlns:xlink="http://www.w3.org/1999/xlink" xml:space="preserve" xmlns:serif="http://www.serif.com/" style="fill-rule:evenodd;clip-rule:evenodd;stroke-linejoin:round;stroke-miterlimit:2;">
    <g id="SeedBagIcon" transform="matrix(8.22597,0,0,8.22597,-1983.59,-53356)">
        <path d="M282.737,6505.2C290.554,6510.16 296.506,6518.81 296.506,6527.86C296.506,6540.69 284.537,6547.29 272.259,6547.29C259.98,6547.29 248.011,6540.69 248.011,6527.86C248.011,6518.81 253.964,6510.16 261.78,6505.2L282.737,6505.2ZM281.425,6526.39C280.119,6525.09 277.254,6525.83 275.031,6528.05C272.809,6530.28 272.064,6533.14 273.37,6534.45C274.676,6535.75 277.541,6535.01 279.764,6532.79C281.986,6530.56 282.731,6527.7 281.425,6526.39ZM263.093,6526.39C264.399,6525.09 267.263,6525.83 269.486,6528.05C271.708,6530.28 272.453,6533.14 271.147,6534.45C269.841,6535.75 266.976,6535.01 264.753,6532.79C262.531,6530.56 261.787,6527.7 263.093,6526.39ZM278.631,6520.62C277.723,6519.72 275.732,6520.23 274.186,6521.78C272.641,6523.32 272.124,6525.32 273.032,6526.22C273.94,6527.13 275.931,6526.61 277.477,6525.07C279.022,6523.52 279.539,6521.53 278.631,6520.62ZM265.886,6520.62C266.794,6519.72 268.786,6520.23 270.331,6521.78C271.876,6523.32 272.394,6525.32 271.486,6526.22C270.577,6527.13 268.586,6526.61 267.04,6525.07C265.495,6523.52 264.978,6521.53 265.886,6520.62ZM272.255,6514.62C271.204,6514.62 270.352,6516.07 270.352,6517.86C270.352,6519.65 271.204,6521.1 272.255,6521.1C273.305,6521.1 274.158,6519.65 274.158,6517.86C274.158,6516.07 273.305,6514.62 272.255,6514.62ZM278.184,6499.29C279.361,6499.29 280.318,6500.25 280.318,6501.43C280.318,6502.6 279.361,6503.56 278.184,6503.56L265.918,6503.56C264.74,6503.56 263.784,6502.6 263.784,6501.43C263.784,6500.25 264.74,6499.29 265.918,6499.29L278.184,6499.29ZM280.33,6497.43L264.187,6497.43L259.454,6490.5C259.056,6489.92 259.014,6489.16 259.343,6488.54C259.672,6487.92 260.319,6487.53 261.023,6487.53C266.729,6487.53 277.788,6487.53 283.494,6487.53C284.198,6487.53 284.845,6487.92 285.174,6488.54C285.503,6489.16 285.461,6489.92 285.063,6490.5L280.33,6497.43Z" style="fill:white;"/>
    </g>
</svg>
