<?xml version="1.0" encoding="UTF-8" standalone="no"?>
<!DOCTYPE svg PUBLIC "-//W3C//DTD SVG 1.1//EN" "http://www.w3.org/Graphics/SVG/1.1/DTD/svg11.dtd">
<svg width="100%" height="100%" viewBox="0 0 512 512" version="1.1" xmlns="http://www.w3.org/2000/svg" xmlns:xlink="http://www.w3.org/1999/xlink" xml:space="preserve" xmlns:serif="http://www.serif.com/" style="fill-rule:evenodd;clip-rule:evenodd;stroke-linejoin:round;stroke-miterlimit:2;">
    <g id="SettingsIcon" transform="matrix(33.566,0,0,33.566,-54192.5,-114420)">
        <path d="M1623.14,3409.59C1622.47,3409.49 1621.8,3409.49 1621.13,3409.59L1620.88,3411.04C1620.29,3411.18 1619.72,3411.41 1619.21,3411.74L1618.01,3410.89C1617.47,3411.29 1616.99,3411.77 1616.59,3412.3L1617.44,3413.51C1617.12,3414.02 1616.88,3414.59 1616.74,3415.18L1615.29,3415.43C1615.2,3416.1 1615.2,3416.77 1615.29,3417.43L1616.74,3417.68C1616.88,3418.28 1617.12,3418.84 1617.44,3419.36L1616.59,3420.56C1616.99,3421.1 1617.47,3421.58 1618.01,3421.98L1619.21,3421.13C1619.72,3421.45 1620.29,3421.69 1620.88,3421.82L1621.13,3423.27C1621.8,3423.37 1622.47,3423.37 1623.14,3423.27L1623.38,3421.82C1623.98,3421.69 1624.55,3421.45 1625.06,3421.13L1626.26,3421.98C1626.8,3421.58 1627.28,3421.1 1627.68,3420.56L1626.83,3419.36C1627.15,3418.84 1627.39,3418.28 1627.53,3417.68L1628.98,3417.43C1629.07,3416.77 1629.07,3416.1 1628.98,3415.43L1627.53,3415.18C1627.39,3414.59 1627.15,3414.02 1626.83,3413.51L1627.68,3412.3C1627.28,3411.77 1626.8,3411.29 1626.26,3410.89L1625.06,3411.74C1624.55,3411.41 1623.98,3411.18 1623.38,3411.04L1623.14,3409.59ZM1622.13,3413.63C1623.68,3413.63 1624.93,3414.89 1624.93,3416.43C1624.93,3417.98 1623.68,3419.23 1622.13,3419.23C1620.59,3419.23 1619.34,3417.98 1619.34,3416.43C1619.34,3414.89 1620.59,3413.63 1622.13,3413.63Z" style="fill:white;"/>
    </g>
</svg>
