<?xml version="1.0" encoding="UTF-8" standalone="no"?>
<!DOCTYPE svg PUBLIC "-//W3C//DTD SVG 1.1//EN" "http://www.w3.org/Graphics/SVG/1.1/DTD/svg11.dtd">
<svg width="100%" height="100%" viewBox="0 0 512 512" version="1.1" xmlns="http://www.w3.org/2000/svg" xmlns:xlink="http://www.w3.org/1999/xlink" xml:space="preserve" xmlns:serif="http://www.serif.com/" style="fill-rule:evenodd;clip-rule:evenodd;stroke-linejoin:round;stroke-miterlimit:2;">
    <g id="Settings---Point" serif:id="Settings - Point" transform="matrix(1.93208,0,0,1.93208,0,0)">
        <g transform="matrix(1.20502,0,0,1.20502,-21.1403,-14.8703)">
            <path d="M145.062,15.431C133.432,13.523 121.568,13.523 109.938,15.431L109.411,39.545C99.541,41.697 90.134,45.594 81.632,51.051L64.209,34.373C54.636,41.247 46.247,49.636 39.373,59.209L56.051,76.632C50.594,85.134 46.697,94.541 44.545,104.411L20.431,104.938C18.523,116.568 18.523,128.432 20.431,140.062L44.545,140.589C46.697,150.459 50.594,159.866 56.051,168.368L39.373,185.791C46.247,195.364 54.636,203.753 64.209,210.627L81.632,193.949C90.134,199.406 99.541,203.303 109.411,205.455L109.938,229.569C121.568,231.477 133.432,231.477 145.062,229.569L145.589,205.455C155.459,203.303 164.866,199.406 173.368,193.949L190.791,210.627C200.364,203.753 208.753,195.364 215.627,185.791L198.949,168.368C204.406,159.866 208.303,150.459 210.455,140.589L234.569,140.062C236.477,128.432 236.477,116.568 234.569,104.938L210.455,104.411C208.303,94.541 204.406,85.134 198.949,76.632L215.627,59.209C208.753,49.636 200.364,41.247 190.791,34.373L173.368,51.051C164.866,45.594 155.459,41.697 145.589,39.545L145.062,15.431ZM127.5,69.755C156.611,69.755 180.245,93.389 180.245,122.5C180.245,151.611 156.611,175.245 127.5,175.245C98.389,175.245 74.755,151.611 74.755,122.5C74.755,93.389 98.389,69.755 127.5,69.755Z" style="fill:white;"/>
        </g>
        <g transform="matrix(0.814582,0,0,0.814582,25.3825,20.1212)">
            <circle cx="131.5" cy="135.5" r="32.5" style="fill:white;"/>
        </g>
    </g>
</svg>
