<?xml version="1.0" encoding="UTF-8" standalone="no"?>
<!DOCTYPE svg PUBLIC "-//W3C//DTD SVG 1.1//EN" "http://www.w3.org/Graphics/SVG/1.1/DTD/svg11.dtd">
<svg width="100%" height="100%" viewBox="0 0 512 512" version="1.1" xmlns="http://www.w3.org/2000/svg" xmlns:xlink="http://www.w3.org/1999/xlink" xml:space="preserve" xmlns:serif="http://www.serif.com/" style="fill-rule:evenodd;clip-rule:evenodd;stroke-linejoin:round;stroke-miterlimit:2;">
    <g id="ShareIcon" transform="matrix(7.38878,0,0,7.38878,-14326.5,-4054.24)">
        <path d="M1983.26,565.99C1983.03,565.104 1982.9,564.175 1982.9,563.218C1982.9,557.151 1987.89,552.226 1994.03,552.226C2000.16,552.226 2005.15,557.151 2005.15,563.218C2005.15,569.284 2000.16,574.21 1994.03,574.21C1990.6,574.21 1987.53,572.676 1985.49,570.267L1964.07,580.826C1964.23,581.569 1964.31,582.339 1964.31,583.128C1964.31,584.146 1964.17,585.132 1963.91,586.068L1985.33,596.626C1987.37,594.105 1990.51,592.488 1994.03,592.488C2000.16,592.488 2005.15,597.414 2005.15,603.48C2005.15,609.547 2000.16,614.472 1994.03,614.472C1987.89,614.472 1982.9,609.547 1982.9,603.48C1982.9,602.61 1983,601.764 1983.2,600.952L1961.61,590.31C1959.57,592.643 1956.55,594.12 1953.19,594.12C1947.05,594.12 1942.06,589.195 1942.06,583.128C1942.06,577.061 1947.05,572.136 1953.19,572.136C1956.79,572.136 1959.99,573.83 1962.02,576.455L1983.26,565.99Z" style="fill:white;"/>
    </g>
</svg>
