<?xml version="1.0" encoding="UTF-8" standalone="no"?>
<!DOCTYPE svg PUBLIC "-//W3C//DTD SVG 1.1//EN" "http://www.w3.org/Graphics/SVG/1.1/DTD/svg11.dtd">
<svg width="100%" height="100%" viewBox="0 0 512 512" version="1.1" xmlns="http://www.w3.org/2000/svg" xmlns:xlink="http://www.w3.org/1999/xlink" xml:space="preserve" xmlns:serif="http://www.serif.com/" style="fill-rule:evenodd;clip-rule:evenodd;stroke-linejoin:round;stroke-miterlimit:2;">
    <g id="ShieldLifeIcon" transform="matrix(8.19554,0,0,8.19554,-8154.95,-7450.31)">
        <g id="Shield-Icon" serif:id="Shield Icon" transform="matrix(0.464401,0,0,0.458904,910.081,610.948)">
            <path d="M250.317,652.431C256.165,661.366 281.725,673.734 304.35,677.726C309.592,752.845 257.64,779.828 250.317,783.144L250.317,783.213L250.241,783.179L250.165,783.213L250.165,783.144C242.843,779.828 190.595,753.129 196.133,677.726C218.758,673.734 244.318,661.366 250.165,652.431L250.165,652.192C250.19,652.232 250.216,652.273 250.241,652.313C250.267,652.273 250.293,652.232 250.317,652.192L250.317,652.431ZM250.241,665C246.279,667.535 230.354,679.885 205.777,684.588C202.136,742.034 247.212,770.119 250.241,771.938C253.271,770.119 298.347,742.034 294.706,684.588C270.128,679.885 254.204,667.535 250.241,665Z" style="fill:white;"/>
        </g>
        <g transform="matrix(1,0,0,1,0.645045,0.361091)">
            <path d="M1025.64,933.077C1027.85,928.747 1032.28,928.747 1034.5,930.912C1036.71,933.077 1036.71,937.407 1034.5,941.737C1032.95,944.984 1028.96,948.232 1025.64,950.397C1022.32,948.232 1018.33,944.984 1016.78,941.737C1014.57,937.407 1014.57,933.077 1016.78,930.912C1019,928.747 1023.42,928.747 1025.64,933.077Z" style="fill:white;"/>
        </g>
    </g>
</svg>
