<?xml version="1.0" encoding="UTF-8" standalone="no"?>
<!DOCTYPE svg PUBLIC "-//W3C//DTD SVG 1.1//EN" "http://www.w3.org/Graphics/SVG/1.1/DTD/svg11.dtd">
<svg width="100%" height="100%" viewBox="0 0 512 512" version="1.1" xmlns="http://www.w3.org/2000/svg" xmlns:xlink="http://www.w3.org/1999/xlink" xml:space="preserve" xmlns:serif="http://www.serif.com/" style="fill-rule:evenodd;clip-rule:evenodd;stroke-linejoin:round;stroke-miterlimit:2;">
    <g id="ShieldRoundIcon" transform="matrix(10.572,0,0,12.874,5721.3,-75296.2)">
        <g transform="matrix(1.191,0,0,0.978031,-4473.06,160.707)">
            <path d="M3321.66,5817.25C3332.05,5817.25 3340.49,5825.69 3340.49,5836.08C3340.49,5846.47 3332.05,5854.91 3321.66,5854.91C3311.27,5854.91 3302.84,5846.47 3302.84,5836.08C3302.84,5825.69 3311.27,5817.25 3321.66,5817.25ZM3321.66,5851.64C3322.35,5851.64 3322.91,5852.2 3322.91,5852.88C3322.91,5853.57 3322.35,5854.13 3321.66,5854.13C3320.97,5854.13 3320.42,5853.57 3320.42,5852.88C3320.42,5852.2 3320.97,5851.64 3321.66,5851.64ZM3321.66,5821.56C3329.68,5821.56 3336.18,5828.07 3336.18,5836.08C3336.18,5844.09 3329.68,5850.6 3321.66,5850.6C3313.65,5850.6 3307.14,5844.09 3307.14,5836.08C3307.14,5828.07 3313.65,5821.56 3321.66,5821.56ZM3305,5834.84C3305.68,5834.84 3306.24,5835.39 3306.24,5836.08C3306.24,5836.77 3305.68,5837.32 3305,5837.32C3304.31,5837.32 3303.75,5836.77 3303.75,5836.08C3303.75,5835.39 3304.31,5834.84 3305,5834.84ZM3338.36,5834.84C3339.05,5834.84 3339.61,5835.39 3339.61,5836.08C3339.61,5836.77 3339.05,5837.32 3338.36,5837.32C3337.68,5837.32 3337.12,5836.77 3337.12,5836.08C3337.12,5835.39 3337.68,5834.84 3338.36,5834.84ZM3321.66,5818.2C3322.35,5818.2 3322.91,5818.76 3322.91,5819.44C3322.91,5820.13 3322.35,5820.69 3321.66,5820.69C3320.97,5820.69 3320.42,5820.13 3320.42,5819.44C3320.42,5818.76 3320.97,5818.2 3321.66,5818.2Z" style="fill:white;"/>
        </g>
        <g transform="matrix(1.191,0,0,0.978031,-4473.06,160.707)">
            <path d="M3321.66,5822.78C3329,5822.78 3334.96,5828.74 3334.96,5836.08C3334.96,5843.42 3329,5849.38 3321.66,5849.38C3314.32,5849.38 3308.37,5843.42 3308.37,5836.08C3308.37,5828.74 3314.32,5822.78 3321.66,5822.78ZM3321.66,5830.23C3324.89,5830.23 3327.51,5832.85 3327.51,5836.08C3327.51,5839.31 3324.89,5841.93 3321.66,5841.93C3318.43,5841.93 3315.81,5839.31 3315.81,5836.08C3315.81,5832.85 3318.43,5830.23 3321.66,5830.23Z" style="fill:white;"/>
        </g>
        <g transform="matrix(0.958312,0,0,0.786951,-3700.22,1275.53)">
            <circle cx="3321.73" cy="5836.51" r="5.864" style="fill:white;"/>
        </g>
    </g>
</svg>
