<?xml version="1.0" encoding="UTF-8" standalone="no"?>
<!DOCTYPE svg PUBLIC "-//W3C//DTD SVG 1.1//EN" "http://www.w3.org/Graphics/SVG/1.1/DTD/svg11.dtd">
<svg width="100%" height="100%" viewBox="0 0 512 512" version="1.1" xmlns="http://www.w3.org/2000/svg" xmlns:xlink="http://www.w3.org/1999/xlink" xml:space="preserve" xmlns:serif="http://www.serif.com/" style="fill-rule:evenodd;clip-rule:evenodd;stroke-linejoin:round;stroke-miterlimit:2;">
    <g id="Shield-Icon" serif:id="Shield Icon" transform="matrix(3.80602,0,0,3.76097,-696.348,-2443.26)">
        <path d="M250.317,652.431C256.165,661.366 281.725,673.734 304.35,677.726C309.592,752.845 257.64,779.828 250.317,783.144L250.317,783.213L250.241,783.179L250.165,783.213L250.165,783.144C242.843,779.828 190.595,753.129 196.133,677.726C218.758,673.734 244.318,661.366 250.165,652.431L250.165,652.192C250.19,652.232 250.216,652.273 250.241,652.313C250.267,652.273 250.293,652.232 250.317,652.192L250.317,652.431ZM250.241,665C246.279,667.535 230.354,679.885 205.777,684.588C202.136,742.034 247.212,770.119 250.241,771.938C253.271,770.119 298.347,742.034 294.706,684.588C270.128,679.885 254.204,667.535 250.241,665ZM250.241,675.09L250.248,675.086C250.248,675.086 268.574,688.437 286.677,690.998C287.812,736.098 253.143,760.061 250.312,761.793L250.312,761.803L250.265,761.832L250.25,761.841L250.248,761.842L250.248,761.85L250.241,761.846L250.234,761.85L250.234,761.842L250.218,761.832L250.17,761.803L250.17,761.793C247.339,760.061 212.671,736.098 213.806,690.998C231.908,688.437 250.234,675.086 250.234,675.086L250.241,675.09Z" style="fill:white;"/>
    </g>
</svg>
