<?xml version="1.0" encoding="UTF-8" standalone="no"?>
<!DOCTYPE svg PUBLIC "-//W3C//DTD SVG 1.1//EN" "http://www.w3.org/Graphics/SVG/1.1/DTD/svg11.dtd">
<svg width="100%" height="100%" viewBox="0 0 512 512" version="1.1" xmlns="http://www.w3.org/2000/svg" xmlns:xlink="http://www.w3.org/1999/xlink" xml:space="preserve" xmlns:serif="http://www.serif.com/" style="fill-rule:evenodd;clip-rule:evenodd;stroke-linejoin:round;stroke-miterlimit:2;">
    <g id="Shield" transform="matrix(1.93858,0,0,1.93858,10.8995,9.04442)">
        <g transform="matrix(1.21733,0,0,1.21733,-27.4774,-27.6853)">
            <path d="M121.026,25.042C124.512,23.731 128.355,23.731 131.84,25.042C145.489,30.179 181.499,43.73 199.083,50.347C205.065,52.598 209.027,58.322 209.027,64.714C209.027,83.913 209.027,123.276 209.027,132.782C209.027,134.227 208.823,135.665 208.421,137.053C197.99,172.541 172.167,202.339 135.159,228.004C129.931,231.615 123.018,231.628 117.776,228.038C86.809,206.858 58.51,181.971 44.536,137.172C44.08,135.701 43.848,134.169 43.848,132.629C43.839,122.862 43.839,83.812 43.839,64.714C43.839,58.322 47.801,52.598 53.784,50.347C71.367,43.73 107.378,30.179 121.026,25.042ZM124.807,35.089C125.855,34.695 127.011,34.695 128.059,35.089C141.708,40.226 177.718,53.777 195.302,60.394C197.101,61.071 198.292,62.792 198.292,64.714L198.292,132.782C198.292,133.218 198.231,133.65 198.11,134.068C188.328,167.346 163.789,195.086 129.042,219.182C127.489,220.254 125.415,220.259 123.841,219.181C94.737,199.275 67.916,176.073 54.784,133.976C54.653,133.552 54.583,133.092 54.583,132.629C54.574,122.854 54.574,83.809 54.574,64.714C54.574,62.792 55.765,61.071 57.564,60.394L124.807,35.089Z" style="fill:white;"/>
        </g>
        <g transform="matrix(1.03168,0,0,1.03168,2.04136,-2.32496)">
            <path d="M208.216,176.449C215.372,182.403 219.931,191.377 219.931,201.407C219.931,219.321 205.387,233.865 187.473,233.865C179.112,233.865 171.485,230.698 165.73,225.499C168.079,223.457 170.372,221.394 172.604,219.314C176.639,222.668 181.822,224.686 187.473,224.686C200.321,224.686 210.752,214.255 210.752,201.407C210.752,194.61 207.833,188.49 203.181,184.233C204.938,181.667 206.617,179.072 208.216,176.449Z" style="fill:white;"/>
        </g>
        <g transform="matrix(1.03168,0,0,1.03168,-5.62239,-4.66549)">
            <path d="M120.03,55.52L120.03,188.899C101.764,176.083 85.308,160.746 76.994,134.093C76.709,133.176 76.565,132.222 76.565,131.263C76.56,125.18 76.56,90.39 76.56,78.496C76.56,74.515 79.027,70.95 82.753,69.548L120.03,55.52ZM135.97,55.52L173.247,69.548C176.973,70.95 179.44,74.515 179.44,78.496C179.44,90.453 179.44,125.438 179.44,131.358C179.441,132.258 179.314,133.154 179.063,134.018C172.808,155.301 157.664,173.298 135.97,188.874L135.97,55.52ZM158.84,80.945C162.224,80.945 164.972,83.693 164.972,87.077C164.972,90.461 162.224,93.209 158.84,93.209C155.456,93.209 152.708,90.461 152.708,87.077C152.708,83.693 155.456,80.945 158.84,80.945ZM97.16,80.945C100.544,80.945 103.292,83.693 103.292,87.077C103.292,90.461 100.544,93.209 97.16,93.209C93.776,93.209 91.028,90.461 91.028,87.077C91.028,83.693 93.776,80.945 97.16,80.945Z" style="fill:white;"/>
        </g>
    </g>
</svg>
