<?xml version="1.0" encoding="UTF-8" standalone="no"?>
<!DOCTYPE svg PUBLIC "-//W3C//DTD SVG 1.1//EN" "http://www.w3.org/Graphics/SVG/1.1/DTD/svg11.dtd">
<svg width="100%" height="100%" viewBox="0 0 512 512" version="1.1" xmlns="http://www.w3.org/2000/svg" xmlns:xlink="http://www.w3.org/1999/xlink" xml:space="preserve" xmlns:serif="http://www.serif.com/" style="fill-rule:evenodd;clip-rule:evenodd;stroke-linejoin:round;stroke-miterlimit:2;">
    <g id="ShoppingCartOutlineIcon" transform="matrix(8.25398,0,0,7.8329,-33945.4,-16630.2)">
        <g transform="matrix(0.935467,0,0,0.917946,3593.56,-2454.1)">
            <path d="M571.761,4995.44C571.761,4993.57 570.35,4992.06 568.612,4992.06L559.813,4992.06C558.075,4992.06 556.664,4993.57 556.664,4995.44C556.664,4997.31 558.075,4998.82 559.813,4998.82L568.612,4998.82C570.35,4998.82 571.761,4997.31 571.761,4995.44Z" style="fill:white;"/>
        </g>
        <g transform="matrix(0.588641,2.31493,-0.841434,0.237582,8000.39,-347.029)">
            <path d="M571.761,4995.44C571.761,4993.57 571.181,4992.06 570.466,4992.06L557.959,4992.06C557.244,4992.06 556.664,4993.57 556.664,4995.44C556.664,4997.31 557.244,4998.82 557.959,4998.82L570.466,4998.82C571.181,4998.82 571.761,4997.31 571.761,4995.44Z" style="fill:white;"/>
        </g>
        <g transform="matrix(-2.45361,3.54041e-16,6.6638e-16,-0.917946,5532.96,6746.18)">
            <path d="M571.761,4995.44C571.761,4993.57 571.223,4992.06 570.56,4992.06L557.865,4992.06C557.202,4992.06 556.664,4993.57 556.664,4995.44C556.664,4997.31 557.202,4998.82 557.865,4998.82L570.56,4998.82C571.223,4998.82 571.761,4997.31 571.761,4995.44Z" style="fill:white;"/>
        </g>
        <g transform="matrix(-2.37665,3.4411e-16,6.42133e-16,-0.917946,5495.9,6724)">
            <path d="M571.761,4995.44C571.761,4993.57 571.206,4992.06 570.521,4992.06L557.904,4992.06C557.219,4992.06 556.664,4993.57 556.664,4995.44C556.664,4997.31 557.219,4998.82 557.904,4998.82L570.521,4998.82C571.206,4998.82 571.761,4997.31 571.761,4995.44Z" style="fill:white;"/>
        </g>
        <g transform="matrix(-0.469913,1.84802,0.841434,0.237582,229.025,-80.065)">
            <path d="M571.761,4995.44C571.761,4993.57 571.034,4992.06 570.138,4992.06L558.287,4992.06C557.391,4992.06 556.664,4993.57 556.664,4995.44C556.664,4997.31 557.391,4998.82 558.287,4998.82L570.138,4998.82C571.034,4998.82 571.761,4997.31 571.761,4995.44Z" style="fill:white;"/>
        </g>
        <g transform="matrix(1.00259,0,0,1.05649,3638.66,-3043.97)">
            <circle cx="497.71" cy="4940.27" r="7.486" style="fill:white;"/>
        </g>
        <g transform="matrix(1.00259,0,0,1.05649,3661.05,-3043.97)">
            <circle cx="497.71" cy="4940.27" r="7.486" style="fill:white;"/>
        </g>
    </g>
</svg>
