<?xml version="1.0" encoding="UTF-8" standalone="no"?>
<!DOCTYPE svg PUBLIC "-//W3C//DTD SVG 1.1//EN" "http://www.w3.org/Graphics/SVG/1.1/DTD/svg11.dtd">
<svg width="100%" height="100%" viewBox="0 0 512 512" version="1.1" xmlns="http://www.w3.org/2000/svg" xmlns:xlink="http://www.w3.org/1999/xlink" xml:space="preserve" xmlns:serif="http://www.serif.com/" style="fill-rule:evenodd;clip-rule:evenodd;stroke-linejoin:round;stroke-miterlimit:2;">
    <g id="ShoppingBagIcon" transform="matrix(6.71827,0,0,6.71827,-2062.8,-274.822)">
        <path d="M370.907,115.445L319.389,115.445C316.69,115.445 314.498,113.253 314.498,110.554L314.498,72.38C314.498,69.681 316.689,67.489 319.389,67.489L322.959,67.489C322.892,71.323 323.164,75.307 323.228,79.216C321.754,80.31 320.797,82.063 320.797,84.038C320.797,87.35 323.486,90.038 326.797,90.038C330.109,90.038 332.797,87.35 332.797,84.038C332.797,82.158 331.93,80.479 330.575,79.378L330.575,67.489L360.028,67.489C360.051,71.489 360.008,75.489 359.999,79.489C358.476,80.577 357.482,82.36 357.482,84.374C357.482,87.685 360.171,90.374 363.482,90.374C366.794,90.374 369.482,87.685 369.482,84.374C369.482,82.524 368.643,80.868 367.325,79.767L367.33,67.489L370.907,67.489C373.606,67.489 375.798,69.681 375.798,72.38L375.798,110.554C375.798,113.253 373.606,115.444 370.907,115.445ZM330.575,67.489L322.959,67.489C323.022,63.899 323.382,60.441 324.49,57.3C327.51,48.733 336.26,42.55 345.429,42.579C356.845,42.688 367.219,52.589 367.331,64.482L367.33,67.489L360.028,67.489C360.023,66.439 360.012,65.388 359.995,64.338C359.85,57.77 354.875,51.653 348.431,50.249C339.942,48.399 330.604,55.335 330.575,64.629L330.575,67.489Z" style="fill:white;"/>
    </g>
</svg>
