<?xml version="1.0" encoding="UTF-8" standalone="no"?>
<!DOCTYPE svg PUBLIC "-//W3C//DTD SVG 1.1//EN" "http://www.w3.org/Graphics/SVG/1.1/DTD/svg11.dtd">
<svg width="100%" height="100%" viewBox="0 0 512 512" version="1.1" xmlns="http://www.w3.org/2000/svg" xmlns:xlink="http://www.w3.org/1999/xlink" xml:space="preserve" xmlns:serif="http://www.serif.com/" style="fill-rule:evenodd;clip-rule:evenodd;stroke-linejoin:round;stroke-miterlimit:2;">
    <g id="ShoppingCartIcon" transform="matrix(3.41161,0,0,3.23757,-14105.6,-6299.06)">
        <g transform="matrix(1.78765,0,-0.230142,1.684,4435.3,-6243.46)">
            <path d="M541.275,4882.31C541.275,4879.9 539.527,4877.94 537.375,4877.94L488.546,4877.94C486.393,4877.94 484.646,4879.9 484.646,4882.31L484.646,4910.44C484.646,4912.85 486.393,4914.8 488.546,4914.8L537.375,4914.8C539.527,4914.8 541.275,4912.85 541.275,4910.44L541.275,4882.31Z" style="fill:white;"/>
        </g>
        <g transform="matrix(1.92721,0,0,2.34633,3235.21,-9493)">
            <rect x="484.232" y="4885.91" width="32.036" height="26.449" style="fill:white;"/>
        </g>
        <g transform="matrix(1.29782,-0.216604,0.261537,1.74005,2261.55,-6406.66)">
            <path d="M490.149,4870.96C490.149,4868.53 487.636,4866.56 484.541,4866.56C481.446,4866.56 478.933,4868.53 478.933,4870.96L478.933,4923.38C478.933,4925.81 481.446,4927.79 484.541,4927.79C487.636,4927.79 490.149,4925.81 490.149,4923.38L490.149,4870.96Z" style="fill:white;"/>
        </g>
        <g transform="matrix(1.00003e-16,1.38463,-1.53575,2.82673e-16,11738.8,1384.4)">
            <path d="M490.149,4871.35C490.149,4868.7 487.636,4866.56 484.541,4866.56C481.446,4866.56 478.933,4868.7 478.933,4871.35L478.933,4922.99C478.933,4925.64 481.446,4927.79 484.541,4927.79C487.636,4927.79 490.149,4925.64 490.149,4922.99L490.149,4871.35Z" style="fill:white;"/>
        </g>
        <g transform="matrix(1.36558,0,0,1.43899,3509.39,-5026.7)">
            <circle cx="497.71" cy="4940.27" r="7.486" style="fill:white;"/>
        </g>
        <g transform="matrix(1.36558,0,0,1.43899,3574.53,-5026.7)">
            <circle cx="497.71" cy="4940.27" r="7.486" style="fill:white;"/>
        </g>
        <g transform="matrix(9.1469e-17,1.38463,-0.512436,1.59245e-16,6665.1,1293.16)">
            <path d="M490.149,4880.94C490.149,4873 487.636,4866.56 484.541,4866.56C481.446,4866.56 478.933,4873 478.933,4880.94L478.933,4913.41C478.933,4921.34 481.446,4927.79 484.541,4927.79C487.636,4927.79 490.149,4921.34 490.149,4913.41L490.149,4880.94Z" style="fill:white;"/>
        </g>
    </g>
</svg>
