<?xml version="1.0" encoding="UTF-8" standalone="no"?>
<!DOCTYPE svg PUBLIC "-//W3C//DTD SVG 1.1//EN" "http://www.w3.org/Graphics/SVG/1.1/DTD/svg11.dtd">
<svg width="100%" height="100%" viewBox="0 0 512 512" version="1.1" xmlns="http://www.w3.org/2000/svg" xmlns:xlink="http://www.w3.org/1999/xlink" xml:space="preserve" xmlns:serif="http://www.serif.com/" style="fill-rule:evenodd;clip-rule:evenodd;stroke-linejoin:round;stroke-miterlimit:2;">
    <g id="ShoppingCartRoundIcon" transform="matrix(8.27089,0,0,7.84895,-34012.7,-16663.4)">
        <g transform="matrix(0.935467,0,0,0.917946,3593.56,-2454.1)">
            <path d="M571.761,4995.44C571.761,4993.57 570.35,4992.06 568.612,4992.06L559.813,4992.06C558.075,4992.06 556.664,4993.57 556.664,4995.44C556.664,4997.31 558.075,4998.82 559.813,4998.82L568.612,4998.82C570.35,4998.82 571.761,4997.31 571.761,4995.44Z" style="fill:white;"/>
        </g>
        <g transform="matrix(0.588641,2.31493,-0.841434,0.237582,8000.39,-347.029)">
            <path d="M571.761,4995.44C571.761,4993.57 571.181,4992.06 570.466,4992.06L557.959,4992.06C557.244,4992.06 556.664,4993.57 556.664,4995.44C556.664,4997.31 557.244,4998.82 557.959,4998.82L570.466,4998.82C571.181,4998.82 571.761,4997.31 571.761,4995.44Z" style="fill:white;"/>
        </g>
        <g transform="matrix(-2.45361,3.54041e-16,6.6638e-16,-0.917946,5532.98,6746.18)">
            <path d="M571.761,4995.44C571.761,4993.57 571.223,4992.06 570.56,4992.06L557.865,4992.06C557.202,4992.06 556.664,4993.57 556.664,4995.44C556.664,4997.31 557.202,4998.82 557.865,4998.82L570.56,4998.82C571.223,4998.82 571.761,4997.31 571.761,4995.44Z" style="fill:white;"/>
        </g>
        <g transform="matrix(-3.02103,4.27264e-16,8.45155e-16,-0.917946,5853.59,6727.81)">
            <path d="M571.761,4995.44C571.761,4993.57 571.324,4992.06 570.786,4992.06L557.639,4992.06C557.101,4992.06 556.664,4993.57 556.664,4995.44C556.664,4997.31 557.101,4998.82 557.639,4998.82L570.786,4998.82C571.324,4998.82 571.761,4997.31 571.761,4995.44Z" style="fill:white;"/>
        </g>
        <g transform="matrix(1.13304,0,0,1.19395,3570.11,-3694.1)">
            <rect x="494.956" y="4888.78" width="31.583" height="14.087" style="fill:white;"/>
        </g>
        <g transform="matrix(-0.403394,1.58642,0.841434,0.237582,190.992,69.5061)">
            <path d="M571.761,4995.44C571.761,4993.57 570.914,4992.06 569.871,4992.06L558.554,4992.06C557.511,4992.06 556.664,4993.57 556.664,4995.44C556.664,4997.31 557.511,4998.82 558.554,4998.82L569.871,4998.82C570.914,4998.82 571.761,4997.31 571.761,4995.44Z" style="fill:white;"/>
        </g>
        <g transform="matrix(1,0,0,1,-0.236254,0)">
            <g transform="matrix(1.00259,0,0,1.05649,3638.66,-3043.97)">
                <circle cx="497.71" cy="4940.27" r="7.486" style="fill:white;"/>
            </g>
            <g transform="matrix(1.00259,0,0,1.05649,3661.05,-3043.97)">
                <circle cx="497.71" cy="4940.27" r="7.486" style="fill:white;"/>
            </g>
        </g>
    </g>
</svg>
