<?xml version="1.0" encoding="UTF-8" standalone="no"?>
<!DOCTYPE svg PUBLIC "-//W3C//DTD SVG 1.1//EN" "http://www.w3.org/Graphics/SVG/1.1/DTD/svg11.dtd">
<svg width="100%" height="100%" viewBox="0 0 512 512" version="1.1" xmlns="http://www.w3.org/2000/svg" xmlns:xlink="http://www.w3.org/1999/xlink" xml:space="preserve" xmlns:serif="http://www.serif.com/" style="fill-rule:evenodd;clip-rule:evenodd;stroke-linejoin:round;stroke-miterlimit:2;">
    <g id="ShopBuildingIcon" transform="matrix(11.0828,0,0,10.4904,-2930.25,-2529.45)">
        <path d="M302.721,287.351L271.703,287.351L271.703,268.439C273.954,268.338 276.053,267.652 277.852,266.53L277.852,280.472L297.179,280.472L297.179,266.935C298.84,267.83 300.722,268.367 302.721,268.442L302.721,287.351ZM300.155,243.695C301.806,243.695 303.228,244.68 303.867,246.093L303.874,246.093C303.874,246.093 308.287,256.987 308.322,257.082L308.331,257.104L308.33,257.104C308.539,257.673 308.653,258.287 308.653,258.928C308.653,261.857 306.275,264.234 303.346,264.234C300.578,264.234 298.303,262.111 298.061,259.406C297.819,262.111 295.544,264.234 292.776,264.234C290.021,264.234 287.754,262.131 287.494,259.444C287.235,262.131 284.967,264.234 282.213,264.234C279.445,264.234 277.169,262.111 276.928,259.406C276.686,262.111 274.41,264.234 271.642,264.234C268.714,264.234 266.336,261.857 266.336,258.928C266.336,258.15 266.504,257.411 266.805,256.745L266.805,256.745L271.675,246.138C272.304,244.7 273.739,243.695 275.407,243.695L300.155,243.695Z" style="fill:white;"/>
    </g>
</svg>
