<?xml version="1.0" encoding="UTF-8" standalone="no"?>
<!DOCTYPE svg PUBLIC "-//W3C//DTD SVG 1.1//EN" "http://www.w3.org/Graphics/SVG/1.1/DTD/svg11.dtd">
<svg width="100%" height="100%" viewBox="0 0 512 512" version="1.1" xmlns="http://www.w3.org/2000/svg" xmlns:xlink="http://www.w3.org/1999/xlink" xml:space="preserve" xmlns:serif="http://www.serif.com/" style="fill-rule:evenodd;clip-rule:evenodd;stroke-linejoin:round;stroke-miterlimit:2;">
    <g id="ShuffleIcon" transform="matrix(19.999,0,0,19.7623,-16763.1,-66708.4)">
        <path d="M858,3384L856.606,3384C855.569,3384 854.684,3384.47 854.109,3385.34L847.891,3394.66C847.316,3395.53 846.431,3396 845.394,3396L842.5,3396L842,3396L840.5,3396C839.672,3396 839,3395.33 839,3394.5C839,3393.67 839.672,3393 840.5,3393L843.394,3393C844.431,3393 845.316,3392.53 845.891,3391.66L852.109,3382.34C852.684,3381.47 853.569,3381 854.606,3381L858,3381L858,3378L863,3382.5L858,3387L858,3384ZM845.891,3385.34C845.316,3384.47 844.431,3384 843.394,3384L842.5,3384L842,3384L840.5,3384C839.672,3384 839,3383.33 839,3382.5C839,3381.67 839.672,3381 840.5,3381L845.394,3381C846.431,3381 847.316,3381.47 847.891,3382.34L848.667,3383.5L846.667,3386.5L845.891,3385.34ZM854.109,3391.66C854.684,3392.53 855.569,3393 856.606,3393L858,3393L858,3390L863,3394.5L858,3399L858,3396L854.606,3396C853.569,3396 852.684,3395.53 852.109,3394.66L851.333,3393.5L853.333,3390.5L854.109,3391.66Z" style="fill:white;"/>
    </g>
</svg>
