<?xml version="1.0" encoding="UTF-8" standalone="no"?>
<!DOCTYPE svg PUBLIC "-//W3C//DTD SVG 1.1//EN" "http://www.w3.org/Graphics/SVG/1.1/DTD/svg11.dtd">
<svg width="100%" height="100%" viewBox="0 0 512 512" version="1.1" xmlns="http://www.w3.org/2000/svg" xmlns:xlink="http://www.w3.org/1999/xlink" xml:space="preserve" xmlns:serif="http://www.serif.com/" style="fill-rule:evenodd;clip-rule:evenodd;stroke-linejoin:round;stroke-miterlimit:2;">
    <g id="SkillsIcon" transform="matrix(3.81398e-16,6.22871,-6.2185,3.80773e-16,7540.4,-5130.3)">
        <g transform="matrix(0.79414,-5.64262e-32,-3.62674e-32,1.19372,182.091,-240.676)">
            <path d="M835.763,1171.46C835.763,1169.29 833.112,1167.52 829.847,1167.52L818.014,1167.52C814.748,1167.52 812.097,1169.29 812.097,1171.46L812.097,1209.77C812.097,1211.94 814.748,1213.71 818.014,1213.71L829.847,1213.71C833.112,1213.71 835.763,1211.94 835.763,1209.77L835.763,1171.46Z" style="fill:white;"/>
        </g>
        <g transform="matrix(0.79414,-3.57278e-32,-2.63876e-32,0.796204,238.783,241.793)">
            <path d="M835.763,1173.43C835.763,1170.17 833.112,1167.52 829.847,1167.52L818.014,1167.52C814.748,1167.52 812.097,1170.17 812.097,1173.43L812.097,1207.8C812.097,1211.06 814.748,1213.71 818.014,1213.71L829.847,1213.71C833.112,1213.71 835.763,1211.06 835.763,1207.8L835.763,1173.43Z" style="fill:white;"/>
        </g>
        <g transform="matrix(0.79414,-4.34619e-32,-5.87195e-32,1.59116,210.437,-723.058)">
            <path d="M835.763,1170.48C835.763,1168.85 833.112,1167.52 829.847,1167.52L818.014,1167.52C814.748,1167.52 812.097,1168.85 812.097,1170.48L812.097,1210.75C812.097,1212.38 814.748,1213.71 818.014,1213.71L829.847,1213.71C833.112,1213.71 835.763,1212.38 835.763,1210.75L835.763,1170.48Z" style="fill:white;"/>
        </g>
    </g>
</svg>
