<?xml version="1.0" encoding="UTF-8" standalone="no"?>
<!DOCTYPE svg PUBLIC "-//W3C//DTD SVG 1.1//EN" "http://www.w3.org/Graphics/SVG/1.1/DTD/svg11.dtd">
<svg width="100%" height="100%" viewBox="0 0 512 512" version="1.1" xmlns="http://www.w3.org/2000/svg" xmlns:xlink="http://www.w3.org/1999/xlink" xml:space="preserve" xmlns:serif="http://www.serif.com/" style="fill-rule:evenodd;clip-rule:evenodd;stroke-linejoin:round;stroke-miterlimit:2;">
    <g id="SkullHatIcon" transform="matrix(4.38858,0,0,4.16469,-18613.5,-1962.21)">
        <g transform="matrix(0.63444,0,0,0.668546,3555.9,-3392.51)">
            <path d="M1139.74,5918.6L1204.97,5918.47L1204.97,5948.1C1204.97,5952.82 1201.14,5956.65 1196.42,5956.65C1191.7,5956.65 1187.87,5952.82 1187.87,5948.1L1187.87,5942.98L1180.91,5942.98L1180.91,5948.1C1180.91,5952.82 1177.08,5956.65 1172.36,5956.65C1167.64,5956.65 1163.8,5952.82 1163.8,5948.1L1163.8,5942.98L1156.85,5942.98L1156.85,5948.1C1156.85,5952.82 1153.01,5956.65 1148.29,5956.65C1143.57,5956.65 1139.74,5952.82 1139.74,5948.1L1139.74,5918.6Z" style="fill:white;"/>
        </g>
        <g transform="matrix(1.15718,0,0,1.21938,-6699.75,-3674.62)">
            <path d="M9505.47,3403.43C9541.84,3403.43 9552.94,3436.58 9549.94,3456.16C9546.71,3477.31 9530.01,3480.95 9505.47,3480.95C9480.92,3480.95 9464.56,3477.25 9460.99,3456.16C9457.54,3435.75 9469.09,3403.43 9505.47,3403.43ZM9504.1,3467.62C9504.37,3467.15 9504.87,3466.86 9505.41,3466.86C9505.95,3466.86 9506.45,3467.15 9506.72,3467.62C9507.68,3469.28 9508.99,3471.52 9509.96,3473.19C9510.24,3473.66 9510.24,3474.24 9509.97,3474.71C9509.7,3475.18 9509.19,3475.47 9508.65,3475.47C9506.72,3475.47 9504.1,3475.47 9502.16,3475.47C9501.62,3475.47 9501.12,3475.18 9500.85,3474.71C9500.58,3474.24 9500.58,3473.66 9500.85,3473.19C9501.82,3471.52 9503.13,3469.28 9504.1,3467.62ZM9518.51,3446.87C9524.96,3443.15 9532.49,3444.11 9535.33,3449.01C9538.16,3453.92 9535.22,3460.93 9528.77,3464.65C9522.33,3468.37 9514.79,3467.41 9511.96,3462.51C9509.13,3457.6 9512.06,3450.6 9518.51,3446.87ZM9492.31,3446.87C9485.86,3443.15 9478.32,3444.11 9475.49,3449.01C9472.66,3453.92 9475.59,3460.93 9482.04,3464.65C9488.49,3468.37 9496.02,3467.41 9498.86,3462.51C9501.69,3457.6 9498.75,3450.6 9492.31,3446.87Z" style="fill:white;"/>
        </g>
    </g>
</svg>
