<?xml version="1.0" encoding="UTF-8" standalone="no"?>
<!DOCTYPE svg PUBLIC "-//W3C//DTD SVG 1.1//EN" "http://www.w3.org/Graphics/SVG/1.1/DTD/svg11.dtd">
<svg width="100%" height="100%" viewBox="0 0 512 512" version="1.1" xmlns="http://www.w3.org/2000/svg" xmlns:xlink="http://www.w3.org/1999/xlink" xml:space="preserve" xmlns:serif="http://www.serif.com/" style="fill-rule:evenodd;clip-rule:evenodd;stroke-linejoin:round;stroke-miterlimit:2;">
    <g id="SkullIcon" transform="matrix(13.814,0,0,13.814,-17081.4,-45527.4)">
        <path d="M1248.22,3325.4C1245.72,3325.67 1242.66,3325.46 1241.09,3323.43C1238.88,3320.58 1238.27,3315.06 1238.52,3310.72C1238.95,3303.03 1246.47,3296.77 1255.03,3296.77C1263.59,3296.77 1270.8,3303.05 1271.54,3310.72C1271.88,3314.28 1271.54,3320.29 1269.38,3322.83C1267.58,3324.97 1264.58,3325.44 1261.85,3325.24L1261.85,3330.07C1261.85,3331.02 1261.08,3331.79 1260.12,3331.79C1259.17,3331.79 1258.39,3331.02 1258.39,3330.07L1258.39,3329.07L1256.76,3329.07L1256.76,3330.07C1256.76,3331.02 1255.99,3331.79 1255.03,3331.79C1254.08,3331.79 1253.31,3331.02 1253.31,3330.07L1253.31,3329.07L1251.67,3329.07L1251.67,3330.07C1251.67,3331.02 1250.9,3331.79 1249.95,3331.79C1248.99,3331.79 1248.22,3331.02 1248.22,3330.07L1248.22,3325.4ZM1256.76,3322.58C1256.95,3322.58 1257.13,3322.48 1257.23,3322.31C1257.32,3322.14 1257.32,3321.93 1257.22,3321.77C1256.68,3320.89 1255.83,3319.51 1255.31,3318.66C1255.21,3318.5 1255.04,3318.4 1254.86,3318.4C1254.67,3318.4 1254.5,3318.5 1254.4,3318.66C1253.88,3319.51 1253.03,3320.89 1252.49,3321.77C1252.39,3321.93 1252.39,3322.14 1252.48,3322.31C1252.58,3322.48 1252.76,3322.58 1252.95,3322.58C1254.01,3322.58 1255.7,3322.58 1256.76,3322.58ZM1249.88,3309.27C1252.1,3310.31 1252.95,3313.17 1251.78,3315.65C1250.62,3318.13 1247.87,3319.3 1245.66,3318.26C1243.45,3317.23 1242.6,3314.37 1243.77,3311.89C1244.93,3309.4 1247.67,3308.23 1249.88,3309.27ZM1260.17,3309.27C1257.96,3310.31 1257.11,3313.17 1258.28,3315.65C1259.44,3318.13 1262.18,3319.3 1264.39,3318.26C1266.6,3317.23 1267.45,3314.37 1266.29,3311.89C1265.12,3309.4 1262.38,3308.23 1260.17,3309.27Z" style="fill:white;"/>
    </g>
</svg>
