<?xml version="1.0" encoding="UTF-8" standalone="no"?>
<!DOCTYPE svg PUBLIC "-//W3C//DTD SVG 1.1//EN" "http://www.w3.org/Graphics/SVG/1.1/DTD/svg11.dtd">
<svg width="100%" height="100%" viewBox="0 0 512 512" version="1.1" xmlns="http://www.w3.org/2000/svg" xmlns:xlink="http://www.w3.org/1999/xlink" xml:space="preserve" xmlns:serif="http://www.serif.com/" style="fill-rule:evenodd;clip-rule:evenodd;stroke-linejoin:round;stroke-miterlimit:2;">
    <g id="SkullPoisonIcon" transform="matrix(7.40246,0,0,7.40246,-7353.11,-4062.94)">
        <path d="M1022.31,604.04L1010.53,598.501L1008.25,599.798C1006.99,600.519 1005.37,600.09 1004.64,598.842C1003.91,597.594 1004.35,595.996 1005.61,595.275L1007.04,594.462L1007.04,591.989C1007.04,590.548 1008.22,589.378 1009.68,589.378C1011.14,589.378 1012.32,590.548 1012.32,591.989L1012.32,594.118L1027.88,601.433L1043.26,594.238L1043.68,591.679C1043.92,590.256 1045.28,589.289 1046.71,589.52C1048.15,589.751 1049.13,591.094 1048.9,592.517L1048.63,594.122L1050.57,595.685C1051.7,596.597 1051.87,598.243 1050.95,599.36C1050.03,600.476 1048.36,600.642 1047.23,599.731L1045.56,598.385L1033.45,604.05L1040.65,607.431L1042.48,606.079C1043.65,605.218 1045.31,605.457 1046.18,606.612C1047.05,607.768 1046.81,609.405 1045.64,610.267L1043.63,611.744L1043.83,613.359C1044,614.791 1042.96,616.089 1041.51,616.258C1040.06,616.426 1038.75,615.4 1038.58,613.969L1038.29,611.55L1027.88,606.657L1017.21,611.647L1017.11,613.906C1017.05,615.346 1015.81,616.464 1014.36,616.4C1012.9,616.336 1011.77,615.116 1011.83,613.676L1011.94,611.206L1010.56,610.331C1009.33,609.556 1008.96,607.941 1009.75,606.726C1010.53,605.51 1012.17,605.153 1013.4,605.928L1015.48,607.238L1022.31,604.04ZM1024.11,595.596L1021.95,595.596C1021.36,595.596 1020.88,595.118 1020.88,594.529L1020.88,589.491C1013.2,586.593 1007.74,579.247 1007.74,570.651C1007.74,559.524 1016.89,550.49 1028.15,550.49C1039.41,550.49 1048.56,559.524 1048.56,570.651C1048.56,579.176 1043.19,586.473 1035.61,589.419L1035.61,594.529C1035.61,595.118 1035.13,595.596 1034.53,595.596L1032.37,595.596C1031.78,595.596 1031.29,595.118 1031.29,594.529L1031.29,591.644L1030.47,591.644L1030.47,594.529C1030.47,595.118 1029.99,595.596 1029.39,595.596L1027.23,595.596C1026.63,595.596 1026.15,595.118 1026.15,594.529L1026.15,591.644L1025.19,591.644L1025.19,594.529C1025.19,595.118 1024.71,595.596 1024.11,595.596ZM1031.4,586.793L1028.15,581.923L1024.89,586.793L1031.4,586.793ZM1018.86,569.227C1022.46,569.227 1025.38,572.179 1025.38,575.814C1025.38,579.449 1022.46,582.401 1018.86,582.401C1015.26,582.401 1012.34,579.449 1012.34,575.814C1012.34,572.179 1015.26,569.227 1018.86,569.227ZM1037.43,569.227C1041.03,569.227 1043.95,572.179 1043.95,575.814C1043.95,579.449 1041.03,582.401 1037.43,582.401C1033.84,582.401 1030.91,579.449 1030.91,575.814C1030.91,572.179 1033.84,569.227 1037.43,569.227Z" style="fill:white;"/>
    </g>
</svg>
