<?xml version="1.0" encoding="UTF-8" standalone="no"?>
<!DOCTYPE svg PUBLIC "-//W3C//DTD SVG 1.1//EN" "http://www.w3.org/Graphics/SVG/1.1/DTD/svg11.dtd">
<svg width="100%" height="100%" viewBox="0 0 512 512" version="1.1" xmlns="http://www.w3.org/2000/svg" xmlns:xlink="http://www.w3.org/1999/xlink" xml:space="preserve" xmlns:serif="http://www.serif.com/" style="fill-rule:evenodd;clip-rule:evenodd;stroke-linejoin:round;stroke-miterlimit:2;">
    <g id="SnaredIcon" transform="matrix(2.84059,0,0,2.84059,-3299.58,-3080.6)">
        <path d="M1252.67,1195.89C1264.07,1195.89 1273.32,1205.14 1273.32,1216.53C1273.32,1227.93 1264.07,1237.18 1252.67,1237.18C1241.28,1237.18 1232.03,1227.93 1232.03,1216.53C1232.03,1205.14 1241.28,1195.89 1252.67,1195.89ZM1252.67,1208.64C1257.03,1208.64 1260.57,1212.18 1260.57,1216.53C1260.57,1220.89 1257.03,1224.43 1252.67,1224.43C1248.32,1224.43 1244.78,1220.89 1244.78,1216.53C1244.78,1212.18 1248.32,1208.64 1252.67,1208.64Z" style="fill:white;"/>
        <g transform="matrix(0.36282,0.628422,-0.628422,0.36282,967.658,-344.238)">
            <path d="M2049.61,748.911L2049.59,748.911L2049.59,773.651L1889.79,773.651L1889.79,748.895L1889.8,748.895L1909.89,713.237L1929.77,748.499L1949.63,713.237L1969.73,748.895L1969.78,748.895L1989.88,713.237L2009.69,748.4L2029.5,713.237L2049.61,748.911Z" style="fill:white;"/>
        </g>
        <g transform="matrix(-0.36282,0.628422,0.628422,0.36282,1535.75,-344.238)">
            <path d="M2049.61,748.911L2049.59,748.911L2049.59,773.651L1889.79,773.651L1889.79,748.895L1889.8,748.895L1909.89,713.237L1929.77,748.499L1949.63,713.237L1969.73,748.895L1969.78,748.895L1989.88,713.237L2009.69,748.4L2029.5,713.237L2049.61,748.911Z" style="fill:white;"/>
        </g>
    </g>
</svg>
