<?xml version="1.0" encoding="UTF-8" standalone="no"?>
<!DOCTYPE svg PUBLIC "-//W3C//DTD SVG 1.1//EN" "http://www.w3.org/Graphics/SVG/1.1/DTD/svg11.dtd">
<svg width="100%" height="100%" viewBox="0 0 512 512" version="1.1" xmlns="http://www.w3.org/2000/svg" xmlns:xlink="http://www.w3.org/1999/xlink" xml:space="preserve" xmlns:serif="http://www.serif.com/" style="fill-rule:evenodd;clip-rule:evenodd;stroke-linejoin:round;stroke-miterlimit:2;">
    <g id="SpeakerIcon" transform="matrix(21.554,0,0,21.554,-763.827,-967.73)">
        <g transform="matrix(0.893561,-2.48013e-17,2.48013e-17,0.893561,3.52427,5.6421)">
            <g transform="matrix(0.493543,-1.36986e-17,7.97956e-18,0.287494,-8.11801,35.4533)">
                <ellipse cx="94.453" cy="65.61" rx="3.717" ry="10.396" style="fill:white;"/>
            </g>
            <g transform="matrix(1,-2.77556e-17,2.77556e-17,1,-37.5473,-11.0957)">
                <path d="M93.355,57.439C88.524,60.264 83.987,62.445 76.033,62.426L75.836,68.378C82.938,69.651 87.463,72.181 92.677,77.351L93.355,57.439Z" style="fill:white;"/>
            </g>
            <path d="M56.93,46.031C59.501,46.031 61.589,50.749 61.589,56.56C61.589,62.371 59.501,67.089 56.93,67.089C54.359,67.089 52.272,62.371 52.272,56.56C52.272,50.749 54.359,46.031 56.93,46.031ZM57.493,48.833C58.628,48.833 59.55,52.295 59.55,56.56C59.55,60.825 58.628,64.287 57.493,64.287C56.358,64.287 55.436,60.825 55.436,56.56C55.436,52.295 56.358,48.833 57.493,48.833Z" style="fill:white;"/>
        </g>
        <g transform="matrix(1.26142,-1.11022e-16,1.11022e-16,1.49216,-10.1279,-29.4137)">
            <path d="M43.363,56.43C43.363,56.01 42.959,55.668 42.462,55.668L40.658,55.668C40.161,55.668 39.757,56.01 39.757,56.43L39.757,63.793C39.757,64.214 40.161,64.555 40.658,64.555L42.462,64.555C42.959,64.555 43.363,64.214 43.363,63.793L43.363,56.43Z" style="fill:white;"/>
        </g>
    </g>
</svg>
