<?xml version="1.0" encoding="UTF-8" standalone="no"?>
<!DOCTYPE svg PUBLIC "-//W3C//DTD SVG 1.1//EN" "http://www.w3.org/Graphics/SVG/1.1/DTD/svg11.dtd">
<svg width="100%" height="100%" viewBox="0 0 512 512" version="1.1" xmlns="http://www.w3.org/2000/svg" xmlns:xlink="http://www.w3.org/1999/xlink" xml:space="preserve" xmlns:serif="http://www.serif.com/" style="fill-rule:evenodd;clip-rule:evenodd;stroke-linejoin:round;stroke-miterlimit:2;">
    <g id="SpellIcon" transform="matrix(1.02413,0,0,1.02413,-2480.41,-1200.91)">
        <g transform="matrix(1.39928,0,0,1.39928,-1099.11,-560.761)">
            <path d="M2696.08,1316.58C2696.74,1316.82 2696.86,1316.98 2697.04,1317.13L2797.55,1417.64C2798.67,1418.98 2798.58,1419.45 2797.55,1420.67L2697.04,1521.18C2695.71,1522.3 2695.23,1522.21 2694.01,1521.18L2593.5,1420.67C2592.38,1419.34 2592.47,1418.87 2593.5,1417.64L2694.01,1317.13C2694.58,1316.65 2695.28,1316.44 2696.08,1316.58ZM2598.05,1419.16L2695.53,1516.63L2793,1419.16L2695.53,1321.68C2663.03,1354.17 2630.54,1386.66 2598.05,1419.16Z" style="fill:white;"/>
        </g>
        <g transform="matrix(0.98944,0.98944,-0.98944,0.98944,1409.79,-2646.2)">
            <path d="M2694.27,1316.91C2695.6,1316.1 2695.94,1316.19 2697.04,1317.13L2797.55,1417.64C2798.66,1418.94 2798.59,1419.46 2797.55,1420.67L2697.04,1521.18C2695.75,1522.29 2695.22,1522.22 2694.01,1521.18L2593.5,1420.67C2592.39,1419.38 2592.47,1418.85 2593.5,1417.64C2627.08,1384.06 2658.15,1347.76 2694.27,1316.91ZM2598.05,1419.16L2695.53,1516.63L2793,1419.16L2695.53,1321.68C2663.03,1354.17 2630.54,1386.66 2598.05,1419.16Z" style="fill:white;"/>
        </g>
        <g transform="matrix(1.11951,0,0,1.11951,-330.53,-172.044)">
            <path d="M2683.56,1351.93C2731.97,1352.87 2771.39,1409.86 2748.67,1456.98C2723.62,1508.92 2627.98,1510.54 2611.41,1442.63C2600.89,1399.55 2636.17,1351.65 2683.56,1351.93ZM2681.88,1368.6C2643.43,1369.35 2612.55,1415.93 2633.16,1452.78C2655.32,1492.41 2731.12,1486.91 2738.68,1433.13C2743.19,1401.07 2716.84,1368.4 2681.88,1368.6Z" style="fill:white;"/>
        </g>
        <g transform="matrix(1.10143,0,0,1.10143,-250.307,-161.963)">
            <path d="M2654.93,1305.12C2716.64,1306.26 2773.73,1354.09 2784.64,1415.01C2795.3,1474.58 2759.91,1539.27 2703.66,1562.27C2656.31,1581.62 2598.18,1570.61 2561.11,1535.26C2519.98,1496.04 2508.04,1429.15 2534.31,1377.86C2556.3,1334.93 2602.61,1306.02 2651.48,1305.12C2653.21,1305.11 2653.21,1305.11 2654.93,1305.12ZM2651.55,1310.57C2592.95,1311.65 2538.55,1356.39 2527.43,1414.39C2516.4,1471.91 2550.46,1535.01 2604.82,1557.22C2650.23,1575.79 2705.99,1565.22 2741.55,1531.31C2781.04,1493.65 2792.41,1429.46 2767.26,1380.35C2746.16,1339.16 2701.74,1311.43 2654.86,1310.57C2653.21,1310.56 2653.21,1310.56 2651.55,1310.57Z" style="fill:white;"/>
        </g>
        <g transform="matrix(1.72917,0,0,1.72917,-1915.83,-1065.04)">
            <path d="M2654.09,1302.83C2716.72,1303.44 2775.67,1351.94 2786.88,1414.6C2800.6,1491.29 2737.92,1574.42 2653.21,1574.42C2588.66,1574.42 2527.8,1522.4 2518.73,1457.6C2508.15,1382.01 2570.54,1303.62 2652.33,1302.83C2653.21,1302.83 2653.21,1302.83 2654.09,1302.83ZM2652.39,1312.84C2594.95,1313.4 2541.1,1357.21 2529.82,1414.05C2515.63,1485.61 2574.26,1563.88 2652.39,1564.41C2712.25,1564.82 2768.87,1516.96 2777.66,1457C2787.85,1387.48 2731.18,1314.48 2655.65,1312.86C2654.56,1312.85 2653.48,1312.84 2652.39,1312.84Z" style="fill:white;"/>
        </g>
        <g transform="matrix(1,0,0,1,-2.31122,66.5288)">
            <path d="M2674.39,1127.64C2691.05,1127.97 2706.89,1138.31 2713.71,1153.39C2725.57,1179.6 2704.26,1215.15 2673.83,1215.15C2655.74,1215.15 2638.29,1202.89 2632.38,1185.42C2623.64,1159.6 2644.88,1128.52 2672.7,1127.66C2673.27,1127.64 2673.83,1127.64 2674.39,1127.64ZM2673.39,1137.64C2660.57,1137.89 2648.32,1145.87 2643.06,1157.51C2632.41,1181.08 2658.7,1213.64 2686.2,1202.8C2705.97,1195.02 2714.06,1166.31 2699.35,1149.31C2692.87,1141.83 2683.93,1137.6 2673.39,1137.64Z" style="fill:white;"/>
        </g>
        <g transform="matrix(1,0,0,1,184.48,250.358)">
            <path d="M2674.4,1127.65C2691.05,1127.97 2706.89,1138.31 2713.71,1153.39C2725.61,1179.66 2704.09,1215.15 2673.83,1215.15C2655.39,1215.15 2637.64,1202.36 2632.05,1184.4C2624.05,1158.72 2645.24,1128.51 2672.71,1127.66C2673.27,1127.65 2673.84,1127.64 2674.4,1127.65ZM2673.4,1137.64C2647.39,1138.15 2629.2,1174.49 2649.97,1195.26C2666.2,1211.48 2699.38,1205.02 2706.3,1180.63C2712.01,1160.55 2694.96,1137.48 2673.4,1137.64Z" style="fill:white;"/>
        </g>
        <g transform="matrix(1,0,0,1,-0.150187,436.236)">
            <path d="M2674.39,1127.64C2691.08,1127.97 2706.92,1138.37 2713.72,1153.39C2725.54,1179.55 2704.26,1215.15 2673.83,1215.15C2655.36,1215.15 2637.61,1202.24 2632.05,1184.4C2624.06,1158.75 2645.37,1128.51 2672.71,1127.65C2673.27,1127.64 2673.83,1127.64 2674.39,1127.64ZM2673.39,1137.64C2646.7,1138.16 2628.64,1176.89 2651.75,1196.91C2668.29,1211.24 2698.95,1204.26 2706.07,1181.42C2712.4,1161.09 2695.51,1137.56 2673.39,1137.64Z" style="fill:white;"/>
        </g>
        <g transform="matrix(1,0,0,1,-187.079,257.342)">
            <path d="M2674.4,1127.64C2693.56,1128.02 2711.41,1141.84 2716.21,1160.47C2724,1190.76 2690.46,1224.1 2658.79,1212.49C2633.18,1203.1 2621.66,1166.96 2639.42,1144.38C2647.68,1133.88 2660.78,1127.54 2674.4,1127.64ZM2673.4,1137.64C2647.43,1138.15 2629.21,1174.48 2649.97,1195.26C2665.94,1211.24 2698.6,1205.4 2706.07,1181.43C2712.36,1161.24 2694.96,1137.48 2673.4,1137.64Z" style="fill:white;"/>
        </g>
        <path d="M2834.41,1263.05C2836.83,1263.45 2837.88,1266.31 2836.22,1268.17L2708.12,1394.62C2705.65,1396.77 2701.32,1393.24 2703.91,1390.35L2832,1263.9C2833.33,1262.75 2833.22,1263.01 2834.41,1263.05Z" style="fill:white;"/>
        <g transform="matrix(-1,0,0,1,5346.73,0)">
            <path d="M2834.24,1262.3C2833.07,1262.55 2832.99,1262.78 2832.59,1263.13L2703.9,1390.35C2701.64,1392.88 2705.46,1396.93 2708.12,1394.62L2836.81,1267.4C2838.62,1265.37 2838.02,1261.96 2834.24,1262.3Z" style="fill:white;"/>
        </g>
        <g transform="matrix(1,0,0,-1,0,2851.47)">
            <path d="M2706.46,1395.45C2707.64,1395.19 2707.72,1394.97 2708.12,1394.62L2834.37,1270C2836.55,1267.55 2833.08,1263.18 2830.15,1265.73L2703.91,1390.35C2702.1,1392.37 2702.69,1395.78 2706.46,1395.45Z" style="fill:white;"/>
        </g>
        <g transform="matrix(-1,0,0,-1,5346.73,2851.47)">
            <path d="M2705.71,1395.47C2703.3,1395.07 2702.24,1392.2 2703.91,1390.35L2828.47,1267.39C2831.03,1265.16 2835.06,1269 2832.69,1271.66L2708.12,1394.62C2707.62,1395.05 2707.61,1395.54 2705.71,1395.47Z" style="fill:white;"/>
        </g>
        <g transform="matrix(1,0,0,1,12.6363,-23.5801)">
            <path d="M2661.44,1400.75C2684.45,1401.56 2707.92,1417.46 2713.07,1437.26C2714.55,1442.95 2705.66,1447.44 2703.16,1438.98C2699.79,1428.53 2690.24,1420.77 2680.55,1415.91C2662.54,1406.88 2635.86,1412 2627.86,1433.66C2621.3,1451.46 2627.94,1474.54 2646.5,1481.76C2661.61,1487.65 2681.88,1484.46 2688.72,1473.21C2698.48,1457.18 2680.66,1429.85 2661.65,1433.62C2650.24,1435.88 2644.54,1454.15 2657.02,1458.37C2661.35,1459.83 2666.84,1459.46 2666.98,1457.32C2667.88,1451.23 2682.53,1452.92 2675.18,1463.68C2667.43,1474.99 2645.41,1469.64 2640.34,1455.23C2636.61,1444.6 2642.43,1431.72 2652.64,1426.31C2671.82,1416.14 2698.42,1434.81 2701.2,1458.04C2703.01,1473.18 2693.61,1487.32 2676.06,1491.92C2657.78,1496.71 2636.58,1493.07 2624.77,1477.25C2612.99,1461.47 2612.2,1438.18 2622.81,1421.4C2630.91,1408.58 2645.9,1400.43 2661.44,1400.75Z" style="fill:white;"/>
        </g>
        <path d="M2656.17,1218.48C2658.17,1218.73 2658.17,1219.33 2659.57,1220.12C2670.86,1226.37 2684.95,1228.23 2695.98,1231.68C2703.77,1234.76 2684.59,1254.54 2675.87,1264.31C2673.33,1266.76 2668.31,1265.01 2673.33,1257.16C2677.97,1250.01 2683.19,1243.29 2688.8,1236.88C2688.8,1236.88 2678.75,1234.69 2672.19,1232.39C2666.78,1230.49 2659.45,1226.87 2659.45,1226.87L2661.18,1244.35C2667.86,1240.59 2676.42,1234.76 2678.98,1234.76C2681.54,1234.75 2682.88,1238.65 2680.65,1240.26C2673.89,1244.4 2666.97,1248.3 2659.92,1251.94C2658.16,1252.69 2656.09,1251.65 2655.69,1249.74C2654.41,1240.38 2653.48,1230.97 2652.9,1221.54C2652.92,1219.85 2654.26,1218.37 2656.17,1218.48Z" style="fill:white;"/>
        <path d="M2869.89,1400.6C2871.41,1400.72 2872.66,1401.93 2872.77,1403.5C2872.74,1418.06 2872.16,1432.63 2871.04,1447.15C2870.57,1450.21 2865.29,1450.15 2865.06,1446.91C2865.09,1432.35 2865.67,1417.78 2866.79,1403.26C2867.03,1401.75 2867.78,1400.6 2869.89,1400.6Z" style="fill:white;"/>
        <path d="M2848.32,1398.77C2848.72,1398.81 2849.08,1398.91 2849.45,1399.08C2862.86,1406.41 2875.99,1414.3 2888.8,1422.65C2890.72,1424.12 2890.13,1427.37 2887.76,1428.02C2872.33,1431.01 2856.78,1433.43 2841.17,1435.22C2839.29,1435.29 2837.76,1433.66 2837.98,1431.77C2840,1421.38 2842.43,1411.05 2845.25,1400.85C2845.7,1399.61 2846.83,1398.72 2848.32,1398.77ZM2844.88,1428.58L2878.4,1423.4L2850.09,1406.44C2848.35,1413.82 2846.62,1421.2 2844.88,1428.58Z" style="fill:white;"/>
        <path d="M2674.33,1588.27C2675.61,1588.44 2676.62,1589.37 2676.95,1590.59L2679.69,1602.62C2683.48,1602.62 2688.14,1601.69 2689.42,1604.31C2690.32,1606.16 2688.85,1608.55 2686.72,1608.62L2681.05,1608.62C2682.88,1616.65 2687.75,1628.66 2682.44,1629.54C2670.54,1630.66 2654.21,1633.99 2656.83,1626.77C2659.14,1621.54 2661.23,1614.98 2664.13,1614.36C2666.36,1613.88 2668.41,1616.45 2667.45,1618.6L2664.55,1624.59L2678.34,1623.78L2674.9,1608.62C2664.89,1608.62 2651.01,1608.79 2655.78,1603.53C2662.72,1596.89 2671.04,1588.05 2674.33,1588.27ZM2672.22,1596.88L2665.79,1602.62L2673.53,1602.62C2673.1,1600.71 2672.66,1598.8 2672.22,1596.88Z" style="fill:white;"/>
        <path d="M2508.06,1410.82C2510.91,1411.12 2512.33,1413.82 2507.94,1417.9C2495.7,1429.01 2479.07,1435.38 2462.66,1435.87C2458.88,1435.69 2456.74,1430.84 2468.09,1429.01C2482.03,1426.63 2495.09,1421.45 2505.93,1411.53C2507.12,1410.59 2507.05,1410.8 2508.06,1410.82Z" style="fill:white;"/>
        <path d="M2489.42,1419.02C2491.1,1419.19 2492.05,1420.77 2493.06,1422.11C2500.24,1431.83 2508.93,1444.16 2502.19,1452.09C2496.57,1458.69 2483.14,1455.38 2481.86,1444.98C2480.54,1434.16 2484.71,1418.82 2489.42,1419.02ZM2489.97,1429.04C2487.9,1436.26 2485.81,1445.07 2489.56,1448.52C2492.81,1451.51 2500.03,1451.17 2497.8,1442.89C2496.38,1437.65 2493.31,1432.93 2490.18,1428.37C2490.11,1428.59 2490.04,1428.81 2489.97,1429.04Z" style="fill:white;"/>
    </g>
</svg>
