<?xml version="1.0" encoding="UTF-8" standalone="no"?>
<!DOCTYPE svg PUBLIC "-//W3C//DTD SVG 1.1//EN" "http://www.w3.org/Graphics/SVG/1.1/DTD/svg11.dtd">
<svg width="100%" height="100%" viewBox="0 0 512 512" version="1.1" xmlns="http://www.w3.org/2000/svg" xmlns:xlink="http://www.w3.org/1999/xlink" xml:space="preserve" xmlns:serif="http://www.serif.com/" style="fill-rule:evenodd;clip-rule:evenodd;stroke-linejoin:round;stroke-miterlimit:2;">
    <g id="SpikedBallIcon" transform="matrix(6.10279,0,0,6.10279,-11296.1,-6575.33)">
        <g transform="matrix(1,0,0,1,-0.312005,-4.4188)">
            <path d="M1888.69,1135.6C1890.23,1135.87 1891.81,1136.01 1893.43,1136.01C1894.97,1136.01 1896.48,1135.88 1897.96,1135.63L1897.96,1159.79C1897.96,1161.07 1896.92,1162.1 1895.64,1162.1L1891.01,1162.1C1889.73,1162.1 1888.69,1161.07 1888.69,1159.79L1888.69,1135.6Z" style="fill:white;"/>
        </g>
        <g transform="matrix(0.833849,0,0,1.09586,684.695,985.563)">
            <path d="M1449.09,140.065L1463.1,143.428L1449.09,146.79L1435.07,143.428L1449.09,140.065Z" style="fill:white;"/>
        </g>
        <g>
            <g transform="matrix(1,0,0,1,73.374,8.48586)">
                <circle cx="1820.05" cy="1100.19" r="20.675" style="fill:white;"/>
            </g>
            <g transform="matrix(0.942937,-0.166834,0.0989668,0.559354,-7.12313,795.8)">
                <path d="M1897.63,1076.11L1900.07,1094.61L1895.21,1094.61L1897.63,1076.11Z" style="fill:white;"/>
            </g>
            <g transform="matrix(0.562011,0.82713,-0.490728,0.333436,1375.41,-840.79)">
                <path d="M1897.63,1076.11L1900.07,1094.61L1895.21,1094.61L1897.63,1076.11Z" style="fill:white;"/>
            </g>
            <g transform="matrix(0.0850798,0.996374,-0.474857,0.0405478,2270.42,-829.7)">
                <path d="M1897.63,1076.11L1900.07,1094.61L1895.21,1094.61L1897.63,1076.11Z" style="fill:white;"/>
            </g>
            <g transform="matrix(-0.762797,0.646638,-0.379035,-0.447123,3771.01,382.283)">
                <path d="M1897.63,1076.11L1900.07,1094.61L1895.21,1094.61L1897.63,1076.11Z" style="fill:white;"/>
            </g>
            <g transform="matrix(0.564822,-1.21292,0.704098,0.32788,35.6383,3045.93)">
                <path d="M1897.63,1076.11L1900.07,1094.61L1895.21,1094.61L1897.63,1076.11Z" style="fill:white;"/>
            </g>
            <g transform="matrix(0.764671,-0.644421,0.374086,0.443892,21.9875,1833.8)">
                <path d="M1897.63,1076.11L1900.07,1094.61L1895.21,1094.61L1897.63,1076.11Z" style="fill:white;"/>
            </g>
            <g transform="matrix(0.844008,0.53633,-0.31134,0.489947,635.165,-459.846)">
                <path d="M1897.63,1076.11L1900.07,1094.61L1895.21,1094.61L1897.63,1076.11Z" style="fill:white;"/>
            </g>
            <g transform="matrix(0.475204,0.879876,-0.510768,0.275856,1562.13,-869.758)">
                <path d="M1897.63,1076.11L1900.07,1094.61L1895.21,1094.61L1897.63,1076.11Z" style="fill:white;"/>
            </g>
            <g transform="matrix(-0.43129,0.902213,-0.523735,-0.250364,3298.9,-326.523)">
                <path d="M1897.63,1076.11L1900.07,1094.61L1895.21,1094.61L1897.63,1076.11Z" style="fill:white;"/>
            </g>
            <g transform="matrix(-0.782284,0.622922,-0.361606,-0.454116,3778.82,436.059)">
                <path d="M1897.63,1076.11L1900.07,1094.61L1895.21,1094.61L1897.63,1076.11Z" style="fill:white;"/>
            </g>
            <g transform="matrix(-0.745263,-0.666771,0.387061,-0.432625,2878.07,2860.18)">
                <path d="M1897.63,1076.11L1900.07,1094.61L1895.21,1094.61L1897.63,1076.11Z" style="fill:white;"/>
            </g>
            <g transform="matrix(0.102421,-0.994741,0.577448,0.0594552,1052.54,2933.02)">
                <path d="M1897.63,1076.11L1900.07,1094.61L1895.21,1094.61L1897.63,1076.11Z" style="fill:white;"/>
            </g>
            <g transform="matrix(-0.485736,-0.874105,0.521653,-0.28988,2227.62,3092.75)">
                <path d="M1897.63,1076.11L1900.07,1094.61L1895.21,1094.61L1897.63,1076.11Z" style="fill:white;"/>
            </g>
        </g>
    </g>
</svg>
