<?xml version="1.0" encoding="UTF-8" standalone="no"?>
<!DOCTYPE svg PUBLIC "-//W3C//DTD SVG 1.1//EN" "http://www.w3.org/Graphics/SVG/1.1/DTD/svg11.dtd">
<svg width="100%" height="100%" viewBox="0 0 512 512" version="1.1" xmlns="http://www.w3.org/2000/svg" xmlns:xlink="http://www.w3.org/1999/xlink" xml:space="preserve" xmlns:serif="http://www.serif.com/" style="fill-rule:evenodd;clip-rule:evenodd;stroke-linejoin:round;stroke-miterlimit:2;">
    <g id="SpikedBallCirclesIcon" transform="matrix(5.48208,0,0,5.48208,-1358.1,-6520.95)">
        <g transform="matrix(1.29763,0,0,1.29763,-86.7344,-373.083)">
            <path d="M297.099,1215.77C294.776,1215.43 292.415,1215.43 290.092,1215.77L288.844,1219.21C286.584,1219.74 284.427,1220.63 282.459,1221.86L279.143,1220.31C277.259,1221.71 275.59,1223.38 274.188,1225.26L275.739,1228.58C274.512,1230.55 273.619,1232.7 273.095,1234.96L269.652,1236.21C269.312,1238.54 269.312,1240.9 269.652,1243.22L273.095,1244.47C273.619,1246.73 274.512,1248.88 275.739,1250.85L274.188,1254.17C275.59,1256.05 277.259,1257.72 279.143,1259.12L282.459,1257.57C284.427,1258.8 286.584,1259.69 288.844,1260.22L290.092,1263.66C292.415,1264 294.776,1264 297.099,1263.66L298.347,1260.22C300.607,1259.69 302.764,1258.8 304.732,1257.57L308.048,1259.12C309.932,1257.72 311.601,1256.05 313.003,1254.17L311.452,1250.85C312.679,1248.88 313.572,1246.73 314.096,1244.47L317.539,1243.22C317.879,1240.9 317.879,1238.54 317.539,1236.21L314.096,1234.96C313.572,1232.7 312.679,1230.55 311.452,1228.58L313.003,1225.26C311.601,1223.38 309.932,1221.71 308.048,1220.31L304.732,1221.86C302.764,1220.63 300.607,1219.74 298.347,1219.21L297.099,1215.77ZM293.595,1222.84C303.022,1222.84 310.675,1230.4 310.675,1239.71C310.675,1249.03 303.022,1256.59 293.595,1256.59C284.169,1256.59 276.516,1249.03 276.516,1239.71C276.516,1230.4 284.169,1222.84 293.595,1222.84ZM293.595,1225.37C301.608,1225.37 308.113,1231.8 308.113,1239.71C308.113,1247.63 301.608,1254.06 293.595,1254.06C285.583,1254.06 279.078,1247.63 279.078,1239.71C279.078,1231.8 285.583,1225.37 293.595,1225.37ZM293.595,1230.18C298.923,1230.18 303.248,1234.45 303.248,1239.71C303.248,1244.98 298.923,1249.25 293.595,1249.25C288.268,1249.25 283.943,1244.98 283.943,1239.71C283.943,1234.45 288.268,1230.18 293.595,1230.18ZM293.595,1232.56C297.591,1232.56 300.835,1235.77 300.835,1239.71C300.835,1243.66 297.591,1246.87 293.595,1246.87C289.6,1246.87 286.356,1243.66 286.356,1239.71C286.356,1235.77 289.6,1232.56 293.595,1232.56ZM293.595,1236.88C295.182,1236.88 296.47,1238.15 296.47,1239.71C296.47,1241.28 295.182,1242.56 293.595,1242.56C292.009,1242.56 290.721,1241.28 290.721,1239.71C290.721,1238.15 292.009,1236.88 293.595,1236.88Z" style="fill:white;"/>
        </g>
        <path d="M294.432,1280.35L292.263,1259.42C292.977,1259.49 293.701,1259.52 294.432,1259.52C295.163,1259.52 295.887,1259.49 296.601,1259.42L294.432,1280.35ZM325.647,1267.42L309.315,1254.15C310.43,1253.23 311.458,1252.2 312.384,1251.09L325.647,1267.42ZM276.48,1251.09C277.406,1252.2 278.433,1253.23 279.548,1254.15L263.217,1267.42L276.48,1251.09ZM338.576,1236.2L317.655,1238.37C317.721,1237.66 317.755,1236.93 317.755,1236.2C317.755,1235.47 317.721,1234.75 317.655,1234.03L338.576,1236.2ZM271.209,1234.03C271.143,1234.75 271.109,1235.47 271.109,1236.2C271.109,1236.93 271.143,1237.66 271.209,1238.37L250.288,1236.2L271.209,1234.03ZM279.548,1218.25C278.433,1219.17 277.406,1220.2 276.48,1221.32L263.217,1204.99L279.548,1218.25ZM312.384,1221.32C311.458,1220.2 310.43,1219.17 309.315,1218.25L325.647,1204.99L312.384,1221.32ZM296.601,1212.98C295.887,1212.91 295.163,1212.88 294.432,1212.88C293.701,1212.88 292.977,1212.91 292.263,1212.98L294.432,1192.06L296.601,1212.98Z" style="fill:white;"/>
    </g>
</svg>
