<?xml version="1.0" encoding="UTF-8" standalone="no"?>
<!DOCTYPE svg PUBLIC "-//W3C//DTD SVG 1.1//EN" "http://www.w3.org/Graphics/SVG/1.1/DTD/svg11.dtd">
<svg width="100%" height="100%" viewBox="0 0 512 512" version="1.1" xmlns="http://www.w3.org/2000/svg" xmlns:xlink="http://www.w3.org/1999/xlink" xml:space="preserve" xmlns:serif="http://www.serif.com/" style="fill-rule:evenodd;clip-rule:evenodd;stroke-linejoin:round;stroke-miterlimit:2;">
    <g id="SpikedBallSpiralICon" transform="matrix(7.0237,0,0,7.28333,-13654.5,-2974.95)">
        <g transform="matrix(0.749551,0,0,0.749551,496.668,108.222)">
            <g transform="matrix(1.52108,0,2.22045e-16,0.90231,-907.656,-567.991)">
                <path d="M1897.63,1076.11L1900.07,1094.61L1895.21,1094.61L1897.63,1076.11Z" style="fill:white;"/>
            </g>
            <g transform="matrix(1.52108,2.22045e-16,3.33067e-16,-0.90231,-907.656,1462.89)">
                <path d="M1897.63,1076.11L1900.07,1094.61L1895.21,1094.61L1897.63,1076.11Z" style="fill:white;"/>
            </g>
            <g transform="matrix(0.892731,1.31386,-0.7795,0.529648,1156.81,-2646.77)">
                <path d="M1897.63,1076.11L1900.07,1094.61L1895.21,1094.61L1897.63,1076.11Z" style="fill:white;"/>
            </g>
            <g transform="matrix(0.135146,1.5827,-0.75429,0.0644084,2577.64,-2630.92)">
                <path d="M1897.63,1076.11L1900.07,1094.61L1895.21,1094.61L1897.63,1076.11Z" style="fill:white;"/>
            </g>
            <g transform="matrix(-1.21167,1.02716,-0.602081,-0.710236,4961.26,-705.739)">
                <path d="M1897.63,1076.11L1900.07,1094.61L1895.21,1094.61L1897.63,1076.11Z" style="fill:white;"/>
            </g>
            <g transform="matrix(0.897196,-1.92667,0.861933,0.401379,-692.031,3649.8)">
                <path d="M1897.63,1076.11L1900.07,1094.61L1895.21,1094.61L1897.63,1076.11Z" style="fill:white;"/>
            </g>
            <g transform="matrix(1.21465,-1.02363,0.498793,0.59187,-885.768,1719.14)">
                <path d="M1897.63,1076.11L1900.07,1094.61L1895.21,1094.61L1897.63,1076.11Z" style="fill:white;"/>
            </g>
            <g transform="matrix(1.34067,0.851938,-0.350891,0.552188,-172.775,-1798.34)">
                <path d="M1897.63,1076.11L1900.07,1094.61L1895.21,1094.61L1897.63,1076.11Z" style="fill:white;"/>
            </g>
            <g transform="matrix(0.754841,1.39765,-0.548786,0.296388,1170.01,-2541.96)">
                <path d="M1897.63,1076.11L1900.07,1094.61L1895.21,1094.61L1897.63,1076.11Z" style="fill:white;"/>
            </g>
            <g transform="matrix(-0.685085,1.43313,-0.580353,-0.277429,3941.62,-1961.61)">
                <path d="M1897.63,1076.11L1900.07,1094.61L1895.21,1094.61L1897.63,1076.11Z" style="fill:white;"/>
            </g>
            <g transform="matrix(-1.24262,0.989485,-0.449238,-0.564166,4840.01,-787.486)">
                <path d="M1897.63,1076.11L1900.07,1094.61L1895.21,1094.61L1897.63,1076.11Z" style="fill:white;"/>
            </g>
            <g transform="matrix(-1.18382,-1.05914,0.54555,-0.609772,3614.71,3146.11)">
                <path d="M1897.63,1076.11L1900.07,1094.61L1895.21,1094.61L1897.63,1076.11Z" style="fill:white;"/>
            </g>
            <g transform="matrix(0.162691,-1.5801,0.917251,0.094442,641.513,3341.12)">
                <path d="M1897.63,1076.11L1900.07,1094.61L1895.21,1094.61L1897.63,1076.11Z" style="fill:white;"/>
            </g>
            <g transform="matrix(-0.771571,-1.38848,0.828624,-0.460463,2509.91,3598.28)">
                <path d="M1897.63,1076.11L1900.07,1094.61L1895.21,1094.61L1897.63,1076.11Z" style="fill:white;"/>
            </g>
        </g>
        <path d="M1979.88,419.488C1993.46,419.488 2004.49,430.519 2004.49,444.105C2004.49,457.691 1993.46,468.722 1979.88,468.722C1966.29,468.722 1955.26,457.691 1955.26,444.105C1955.26,430.519 1966.29,419.488 1979.88,419.488ZM1982.06,447.049C1983.72,446.725 1983.86,443.422 1982.04,442.069C1978.49,439.439 1972.54,444.146 1974.79,449.389C1978.25,457.454 1991.73,453.506 1990.08,443.526C1988.75,435.531 1980.41,434.272 1977.64,434.862C1975.46,435.327 1969.82,437.416 1968.17,443.15C1966.53,448.883 1968.65,452.867 1970.15,454.8C1971.64,456.734 1974.43,459.635 1979.68,460.238C1984.93,460.841 1988.97,459.262 1993.02,455.369C1997.08,451.475 1997.99,444.03 1996.12,439.148C1994.25,434.266 1990.49,429.651 1984.19,428.103C1979.3,426.898 1974.83,427.071 1969.27,430.141C1966.02,431.939 1964.11,434.609 1962.1,437.992C1961.53,438.95 1960.03,439.027 1960.54,437.19C1961.49,433.719 1965.8,428.631 1971.95,426.742C1980.05,424.25 1986.64,426.283 1991.02,429.033C1997.28,432.959 1999.86,440.895 1999.23,447.159C1998.6,453.424 1994.21,457.943 1990.92,459.857C1987.63,461.77 1981.66,464.367 1974.19,460.875C1966.72,457.384 1965.51,450.94 1965.32,446.696C1965.13,442.452 1967.62,436.928 1972.74,434.363C1977.86,431.798 1982.05,432.568 1985.02,433.751C1987.98,434.933 1991.21,438.59 1991.97,441.691C1992.72,444.791 1992.64,448.806 1990.09,451.858C1987.54,454.91 1984.63,455.877 1981.1,455.877C1977.57,455.877 1974.98,453.536 1973.55,451.547C1972.11,449.559 1971.36,445.725 1973.58,442.609C1975.79,439.493 1978.28,439.268 1980.32,439.302C1982.35,439.336 1985.03,441.474 1985.46,443.626C1985.89,445.777 1985.27,448.124 1982.96,448.984C1980.66,449.843 1978.69,448.496 1978.77,446.46C1978.81,445.514 1979.27,445.015 1979.82,444.843C1980.03,444.754 1980.25,444.704 1980.49,444.704C1981.43,444.704 1982.19,445.465 1982.19,446.402C1982.19,446.631 1982.14,446.849 1982.06,447.049Z" style="fill:white;"/>
    </g>
</svg>
