<?xml version="1.0" encoding="UTF-8" standalone="no"?>
<!DOCTYPE svg PUBLIC "-//W3C//DTD SVG 1.1//EN" "http://www.w3.org/Graphics/SVG/1.1/DTD/svg11.dtd">
<svg width="100%" height="100%" viewBox="0 0 512 512" version="1.1" xmlns="http://www.w3.org/2000/svg" xmlns:xlink="http://www.w3.org/1999/xlink" xml:space="preserve" xmlns:serif="http://www.serif.com/" style="fill-rule:evenodd;clip-rule:evenodd;stroke-linejoin:round;stroke-miterlimit:2;">
    <g id="SpiralIcon" transform="matrix(6.9411,0,0,6.9411,-14909.7,-2400.71)">
        <path d="M2188.71,387.869C2191.59,387.306 2191.83,381.563 2188.66,379.21C2182.5,374.636 2172.16,382.821 2176.07,391.938C2182.08,405.963 2205.51,399.098 2202.64,381.744C2200.34,367.842 2185.83,365.651 2181.02,366.678C2177.23,367.487 2167.42,371.119 2164.56,381.089C2161.7,391.058 2165.38,397.986 2167.99,401.348C2170.59,404.71 2175.43,409.754 2184.56,410.803C2193.69,411.852 2200.71,409.106 2207.76,402.336C2214.81,395.565 2216.4,382.62 2213.15,374.131C2209.89,365.641 2203.37,357.616 2192.41,354.924C2183.9,352.83 2176.13,353.13 2166.47,358.468C2160.81,361.595 2157.49,366.238 2153.99,372.121C2153,373.786 2150.39,373.921 2151.27,370.726C2152.93,364.69 2160.44,355.842 2171.12,352.557C2185.21,348.226 2196.67,351.76 2204.29,356.542C2215.16,363.369 2219.66,377.168 2218.56,388.061C2217.46,398.954 2209.83,406.813 2204.11,410.14C2198.4,413.468 2188,417.982 2175.02,411.911C2162.03,405.84 2159.93,394.634 2159.6,387.255C2159.27,379.876 2163.6,370.269 2172.5,365.809C2181.4,361.349 2188.69,362.689 2193.84,364.745C2199,366.801 2204.61,373.161 2205.93,378.552C2207.24,383.943 2207.1,390.924 2202.67,396.232C2198.24,401.539 2193.17,403.22 2187.03,403.22C2180.89,403.22 2176.4,399.149 2173.9,395.691C2171.4,392.233 2170.1,385.566 2173.95,380.148C2177.81,374.73 2182.12,374.34 2185.67,374.399C2189.21,374.458 2193.87,378.175 2194.61,381.916C2195.36,385.657 2194.28,389.738 2190.27,391.233C2186.26,392.728 2182.84,390.386 2182.98,386.844C2183.05,385.2 2183.86,384.332 2184.81,384.032C2185.17,383.878 2185.56,383.792 2185.98,383.792C2187.61,383.792 2188.93,385.115 2188.93,386.744C2188.93,387.142 2188.85,387.522 2188.71,387.869Z" style="fill:white;"/>
    </g>
</svg>
