<?xml version="1.0" encoding="UTF-8" standalone="no"?>
<!DOCTYPE svg PUBLIC "-//W3C//DTD SVG 1.1//EN" "http://www.w3.org/Graphics/SVG/1.1/DTD/svg11.dtd">
<svg width="100%" height="100%" viewBox="0 0 512 512" version="1.1" xmlns="http://www.w3.org/2000/svg" xmlns:xlink="http://www.w3.org/1999/xlink" xml:space="preserve" xmlns:serif="http://www.serif.com/" style="fill-rule:evenodd;clip-rule:evenodd;stroke-linejoin:round;stroke-miterlimit:2;">
    <g id="SplashIcon" transform="matrix(8.39618,0,0,8.39618,-16330.3,-7784.96)">
        <g transform="matrix(1,0,0,1,-2.02856,0.0387976)">
            <path d="M1979.29,931.814C1982.14,933.437 1972.61,942 1970.63,938.528C1968.66,935.057 1976.87,930.434 1979.29,931.814Z" style="fill:white;"/>
        </g>
        <path d="M1993.95,930.271C1996.41,931.195 1990.69,935.725 1988.72,933.669C1986.74,931.612 1991.38,929.309 1993.95,930.271Z" style="fill:white;"/>
        <g transform="matrix(1,0,0,1,0.800689,2.38295)">
            <path d="M1999.68,945.958C2002.96,948.809 1995.47,954.412 1993.89,952.038C1992.32,949.663 1997.2,943.796 1999.68,945.958Z" style="fill:white;"/>
        </g>
        <g transform="matrix(0.87008,-0.492911,0.492911,0.87008,-205.118,1082.18)">
            <path d="M1990.31,966.901C1991.81,968.155 1987.73,970.436 1987,968.367C1986.27,966.297 1988.5,965.393 1990.31,966.901Z" style="fill:white;"/>
        </g>
        <path d="M1967.24,941.971C1970.53,944.925 1965.18,950.898 1969.09,952.199C1973,953.5 1972.06,940.369 1976.41,940.886C1979.6,941.265 1975.59,944.943 1979.06,946.009C1982.53,947.076 1982.44,934.221 1986.91,935.176C1990.43,935.928 1985.39,941.316 1988.99,941.6C1992.58,941.883 1998.92,927.143 2003.07,931.029C2007.21,934.915 1982.72,949.654 1985.17,953.285C1987.87,957.271 1993.16,953.287 1993.91,957.824C1994.66,962.362 1978.01,965.222 1980.69,968.504C1983.37,971.785 1990,967.825 1989.71,973.651C1989.33,981.228 1955.23,992.779 1948.09,978.714C1940.95,964.65 1963.95,939.017 1967.24,941.971ZM1964.15,960.331C1969.91,963.319 1961.03,979.161 1955.49,975.376C1949.95,971.591 1958.39,957.343 1964.15,960.331ZM1979.45,959.58C1981.31,961.003 1975.63,969.268 1974.02,966.328C1972.41,963.388 1977.59,958.156 1979.45,959.58Z" style="fill:white;"/>
    </g>
</svg>
