<?xml version="1.0" encoding="UTF-8" standalone="no"?>
<!DOCTYPE svg PUBLIC "-//W3C//DTD SVG 1.1//EN" "http://www.w3.org/Graphics/SVG/1.1/DTD/svg11.dtd">
<svg width="100%" height="100%" viewBox="0 0 512 512" version="1.1" xmlns="http://www.w3.org/2000/svg" xmlns:xlink="http://www.w3.org/1999/xlink" xml:space="preserve" xmlns:serif="http://www.serif.com/" style="fill-rule:evenodd;clip-rule:evenodd;stroke-linejoin:round;stroke-miterlimit:2;">
    <g id="Star-Wand" serif:id="Star Wand" transform="matrix(0.898957,0.898957,-0.898957,0.898957,-643.396,-128.548)">
        <g transform="matrix(1.06765,0,0,1.06765,-1089.78,-857.495)">
            <path d="M1717.37,506.654C1717.37,498.15 1710.46,491.247 1701.96,491.247L1671.15,491.247C1662.64,491.247 1655.74,498.15 1655.74,506.654L1655.74,759.667C1655.74,768.17 1662.64,775.074 1671.15,775.074L1701.96,775.074C1710.46,775.074 1717.37,768.17 1717.37,759.667L1717.37,506.654Z" style="fill:white;"/>
            <clipPath id="_clip1">
                <path d="M1717.37,506.654C1717.37,498.15 1710.46,491.247 1701.96,491.247L1671.15,491.247C1662.64,491.247 1655.74,498.15 1655.74,506.654L1655.74,759.667C1655.74,768.17 1662.64,775.074 1671.15,775.074L1701.96,775.074C1710.46,775.074 1717.37,768.17 1717.37,759.667L1717.37,506.654Z"/>
            </clipPath>
            <g clip-path="url(#_clip1)">
                <g transform="matrix(0.949819,-7.5279e-18,-7.5279e-18,0.906718,89.2876,268.793)">
                    <rect x="1681.41" y="261.079" width="148.308" height="305.773" style="fill:url(#_Linear2);"/>
                </g>
            </g>
        </g>
        <g transform="matrix(0.906115,0,0,0.906115,-816.948,-704.066)">
            <path d="M1725.62,590.275C1725.62,584.058 1720.57,579.011 1714.36,579.011L1657.89,579.011C1651.68,579.011 1646.63,584.058 1646.63,590.275L1646.63,696.398C1646.63,702.614 1651.68,707.661 1657.89,707.661L1714.36,707.661C1720.57,707.661 1725.62,702.614 1725.62,696.398L1725.62,590.275Z" style="fill:rgb(73,80,87);"/>
            <clipPath id="_clip3">
                <path d="M1725.62,590.275C1725.62,584.058 1720.57,579.011 1714.36,579.011L1657.89,579.011C1651.68,579.011 1646.63,584.058 1646.63,590.275L1646.63,696.398C1646.63,702.614 1651.68,707.661 1657.89,707.661L1714.36,707.661C1720.57,707.661 1725.62,702.614 1725.62,696.398L1725.62,590.275Z"/>
            </clipPath>
            <g clip-path="url(#_clip3)">
                <g transform="matrix(1.11915,-8.86993e-18,-8.86993e-18,1.06836,-195.893,147.386)">
                    <rect x="1681.41" y="261.079" width="148.308" height="305.773" style="fill:url(#_Linear4);"/>
                </g>
            </g>
        </g>
        <g id="Star-Round" serif:id="Star Round" transform="matrix(1.05159,0,0,1.05159,571.195,-459.974)">
            <path d="M108.451,15.491C112.692,8.245 120.457,3.793 128.851,3.793C137.246,3.793 145.011,8.245 149.252,15.491L177.637,63.993L232.536,76C240.737,77.794 247.372,83.803 249.966,91.787C252.56,99.771 250.725,108.532 245.144,114.804L207.788,156.788L213.332,212.711C214.161,221.065 210.496,229.231 203.704,234.166C196.913,239.1 188.013,240.062 180.324,236.693L128.851,214.138L77.379,236.693C69.69,240.062 60.79,239.1 53.999,234.166C47.207,229.231 43.542,221.065 44.371,212.711L49.915,156.788L12.559,114.804C6.978,108.532 5.143,99.771 7.737,91.787C10.331,83.803 16.966,77.794 25.167,76L80.066,63.993L108.451,15.491Z" style="fill:rgb(252,199,25);"/>
            <clipPath id="_clip5">
                <path d="M108.451,15.491C112.692,8.245 120.457,3.793 128.851,3.793C137.246,3.793 145.011,8.245 149.252,15.491L177.637,63.993L232.536,76C240.737,77.794 247.372,83.803 249.966,91.787C252.56,99.771 250.725,108.532 245.144,114.804L207.788,156.788L213.332,212.711C214.161,221.065 210.496,229.231 203.704,234.166C196.913,239.1 188.013,240.062 180.324,236.693L128.851,214.138L77.379,236.693C69.69,240.062 60.79,239.1 53.999,234.166C47.207,229.231 43.542,221.065 44.371,212.711L49.915,156.788L12.559,114.804C6.978,108.532 5.143,99.771 7.737,91.787C10.331,83.803 16.966,77.794 25.167,76L80.066,63.993L108.451,15.491Z"/>
            </clipPath>
            <g clip-path="url(#_clip5)">
                <g transform="matrix(0.964326,-7.64288e-18,-7.64288e-18,0.920567,-1488.84,-273.684)">
                    <rect x="1681.41" y="261.079" width="148.308" height="305.773" style="fill:rgb(250,176,5);"/>
                </g>
            </g>
        </g>
        <g transform="matrix(1,0,0,1,-953.971,-760.024)">
            <path d="M1558.82,306.567L1565.67,325.067L1584.17,331.912L1565.67,338.757L1558.82,357.256L1551.98,338.757L1533.48,331.912L1551.98,325.067L1558.82,306.567Z" style="fill:rgb(252,196,25);"/>
        </g>
        <g transform="matrix(1,0,0,1,-759.734,-764.968)">
            <path d="M1558.82,306.567L1565.67,325.067L1584.17,331.912L1565.67,338.757L1558.82,357.256L1551.98,338.757L1533.48,331.912L1551.98,325.067L1558.82,306.567Z" style="fill:rgb(252,196,25);"/>
        </g>
        <g transform="matrix(1.89569,-0.630328,0.630328,1.89569,-2286.23,76.0182)">
            <path d="M1558.82,306.567L1565.67,325.067L1584.17,331.912L1565.67,338.757L1558.82,357.256L1551.98,338.757L1533.48,331.912L1551.98,325.067L1558.82,306.567Z" style="fill:rgb(252,196,25);"/>
        </g>
        <g transform="matrix(0.938065,0,0,0.938065,-726.047,-814.125)">
            <path d="M1558.82,306.567L1565.67,325.067L1584.17,331.912L1565.67,338.757L1558.82,357.256L1551.98,338.757L1533.48,331.912L1551.98,325.067L1558.82,306.567Z" style="fill:rgb(252,196,25);"/>
        </g>
        <g transform="matrix(1.36647,-1.65772,1.65772,1.36647,-2141.33,1865.57)">
            <path d="M1558.82,306.567L1565.67,325.067L1584.17,331.912L1565.67,338.757L1558.82,357.256L1551.98,338.757L1533.48,331.912L1551.98,325.067L1558.82,306.567Z" style="fill:rgb(252,196,25);"/>
        </g>
    </g>
    <defs>
        <linearGradient id="_Linear2" x1="0" y1="0" x2="1" y2="0" gradientUnits="userSpaceOnUse" gradientTransform="matrix(49.7812,-8.69464e-15,9.10794e-15,52.1475,1682.29,386.764)"><stop offset="0" style="stop-color:rgb(206,212,218);stop-opacity:1"/><stop offset="1" style="stop-color:rgb(206,212,218);stop-opacity:0"/></linearGradient>
        <linearGradient id="_Linear4" x1="0" y1="0" x2="1" y2="0" gradientUnits="userSpaceOnUse" gradientTransform="matrix(49.7812,-8.69464e-15,9.10794e-15,52.1475,1682.29,386.764)"><stop offset="0" style="stop-color:rgb(63,69,75);stop-opacity:1"/><stop offset="1" style="stop-color:rgb(63,69,75);stop-opacity:0"/></linearGradient>
    </defs>
</svg>
