<?xml version="1.0" encoding="UTF-8" standalone="no"?>
<!DOCTYPE svg PUBLIC "-//W3C//DTD SVG 1.1//EN" "http://www.w3.org/Graphics/SVG/1.1/DTD/svg11.dtd">
<svg width="100%" height="100%" viewBox="0 0 512 512" version="1.1" xmlns="http://www.w3.org/2000/svg" xmlns:xlink="http://www.w3.org/1999/xlink" xml:space="preserve" xmlns:serif="http://www.serif.com/" style="fill-rule:evenodd;clip-rule:evenodd;stroke-linejoin:round;stroke-miterlimit:2;">
    <g id="Star-Yellow" serif:id="Star Yellow" transform="matrix(2.07399,0,0,2.07399,-11.2362,7.39959)">
        <path d="M120.239,9.604C121.657,6.092 125.064,3.793 128.851,3.793C132.638,3.793 136.046,6.092 137.464,9.604L165.926,80.111L241.778,85.392C245.556,85.655 248.796,88.186 249.966,91.787C251.136,95.389 250.002,99.34 247.101,101.774L188.839,150.631L207.256,224.402C208.173,228.077 206.768,231.94 203.704,234.166C200.64,236.392 196.532,236.534 193.321,234.527L128.851,194.214L64.382,234.527C61.171,236.534 57.062,236.392 53.999,234.166C50.935,231.94 49.53,228.077 50.447,224.402L68.864,150.631L10.602,101.774C7.701,99.34 6.567,95.389 7.737,91.787C8.907,88.186 12.147,85.655 15.925,85.392L91.777,80.111L120.239,9.604Z" style="fill:rgb(255,208,22);"/>
        <clipPath id="_clip1">
            <path d="M120.239,9.604C121.657,6.092 125.064,3.793 128.851,3.793C132.638,3.793 136.046,6.092 137.464,9.604L165.926,80.111L241.778,85.392C245.556,85.655 248.796,88.186 249.966,91.787C251.136,95.389 250.002,99.34 247.101,101.774L188.839,150.631L207.256,224.402C208.173,228.077 206.768,231.94 203.704,234.166C200.64,236.392 196.532,236.534 193.321,234.527L128.851,194.214L64.382,234.527C61.171,236.534 57.062,236.392 53.999,234.166C50.935,231.94 49.53,228.077 50.447,224.402L68.864,150.631L10.602,101.774C7.701,99.34 6.567,95.389 7.737,91.787C8.907,88.186 12.147,85.655 15.925,85.392L91.777,80.111L120.239,9.604Z"/>
        </clipPath>
        <g clip-path="url(#_clip1)">
            <g transform="matrix(1,0,0,0.695269,0.851479,12.6719)">
                <rect x="127.194" y="-20.963" width="200.605" height="350.632" style="fill:rgb(250,176,5);"/>
            </g>
        </g>
    </g>
</svg>
