<?xml version="1.0" encoding="UTF-8" standalone="no"?>
<!DOCTYPE svg PUBLIC "-//W3C//DTD SVG 1.1//EN" "http://www.w3.org/Graphics/SVG/1.1/DTD/svg11.dtd">
<svg width="100%" height="100%" viewBox="0 0 512 512" version="1.1" xmlns="http://www.w3.org/2000/svg" xmlns:xlink="http://www.w3.org/1999/xlink" xml:space="preserve" xmlns:serif="http://www.serif.com/" style="fill-rule:evenodd;clip-rule:evenodd;stroke-linejoin:round;stroke-miterlimit:2;">
    <g id="StarBombIcon" transform="matrix(10.4065,0,0,10.4065,-22081.7,-7786.56)">
        <g>
            <path d="M2146.51,757.757C2154.84,757.757 2161.59,764.515 2161.59,772.838C2161.59,781.162 2154.84,787.92 2146.51,787.92C2138.19,787.92 2131.43,781.162 2131.43,772.838C2131.43,764.515 2138.19,757.757 2146.51,757.757ZM2143.89,776.268C2145.27,776.268 2146.39,777.39 2146.39,778.773C2146.39,780.155 2145.27,781.277 2143.89,781.277C2142.5,781.277 2141.38,780.155 2141.38,778.773C2141.38,777.39 2142.5,776.268 2143.89,776.268ZM2154.38,770.757C2155.97,770.757 2157.27,772.052 2157.27,773.647C2157.27,775.243 2155.97,776.538 2154.38,776.538C2152.78,776.538 2151.49,775.243 2151.49,773.647C2151.49,772.052 2152.78,770.757 2154.38,770.757ZM2142.43,763.454C2144.7,763.454 2146.53,765.291 2146.53,767.554C2146.53,769.817 2144.7,771.655 2142.43,771.655C2140.17,771.655 2138.33,769.817 2138.33,767.554C2138.33,765.291 2140.17,763.454 2142.43,763.454Z" style="fill:white;"/>
        </g>
        <g transform="matrix(0.863307,0,0,0.863307,293.414,105.642)">
            <path d="M2159.88,795.991L2149.87,786.3C2152.43,785.662 2154.71,784.311 2156.49,782.47L2159.88,795.991ZM2136.53,782.47C2138.31,784.311 2140.59,785.662 2143.16,786.3L2133.14,795.991L2136.53,782.47ZM2133.18,769.015C2132.83,770.23 2132.64,771.512 2132.64,772.838C2132.64,774.164 2132.83,775.447 2133.18,776.662L2119.78,772.838L2133.18,769.015ZM2173.25,772.838L2159.85,776.662C2160.2,775.447 2160.38,774.164 2160.38,772.838C2160.38,771.512 2160.2,770.23 2159.85,769.015L2173.25,772.838ZM2143.16,759.377C2140.59,760.015 2138.31,761.366 2136.53,763.207L2133.14,749.686L2143.16,759.377ZM2156.49,763.207C2154.71,761.366 2152.43,760.015 2149.87,759.377L2159.88,749.686L2156.49,763.207Z" style="fill:white;"/>
        </g>
        <g transform="matrix(0.666678,0,0,0.666678,2020.53,147.204)">
            <path d="M186.803,956.738C187.512,956.821 188.234,956.864 188.965,956.864C189.697,956.864 190.418,956.821 191.128,956.738L188.965,964.316L186.803,956.738ZM172.033,945.716C172.61,947.053 173.339,948.308 174.201,949.459L166.553,951.376L172.033,945.716ZM211.377,951.376L203.73,949.459C204.591,948.308 205.321,947.052 205.897,945.716L211.377,951.376ZM174.201,927.414C173.339,928.566 172.609,929.821 172.033,931.158L166.553,925.497L174.201,927.414ZM205.897,931.158C205.321,929.821 204.591,928.566 203.73,927.414L211.377,925.497L205.897,931.158ZM191.128,920.135C190.418,920.052 189.697,920.009 188.965,920.009C188.234,920.009 187.512,920.052 186.803,920.135L188.965,912.558L191.128,920.135Z" style="fill:white;"/>
        </g>
    </g>
</svg>
