<?xml version="1.0" encoding="UTF-8" standalone="no"?>
<!DOCTYPE svg PUBLIC "-//W3C//DTD SVG 1.1//EN" "http://www.w3.org/Graphics/SVG/1.1/DTD/svg11.dtd">
<svg width="100%" height="100%" viewBox="0 0 512 512" version="1.1" xmlns="http://www.w3.org/2000/svg" xmlns:xlink="http://www.w3.org/1999/xlink" xml:space="preserve" xmlns:serif="http://www.serif.com/" style="fill-rule:evenodd;clip-rule:evenodd;stroke-linejoin:round;stroke-miterlimit:2;">
    <g id="Star---SemiRound" serif:id="Star - SemiRound" transform="matrix(21.7185,0,0,22.6978,-18172.1,-61663.5)">
        <path d="M847.9,2717.43C847.991,2717.17 848.223,2717 848.497,2717C848.771,2717 849.003,2717.17 849.094,2717.43L851.516,2724.31C851.605,2724.56 851.828,2724.72 852.096,2724.73L859.372,2724.92C859.645,2724.92 859.872,2725.09 859.957,2725.35C860.042,2725.61 859.959,2725.88 859.742,2726.05L853.957,2730.5C853.746,2730.66 853.662,2730.92 853.737,2731.17L855.81,2738.19C855.887,2738.45 855.795,2738.72 855.573,2738.88C855.351,2739.03 855.068,2739.04 854.843,2738.88L848.857,2734.74C848.636,2734.59 848.358,2734.59 848.137,2734.74L842.151,2738.88C841.926,2739.04 841.643,2739.03 841.421,2738.88C841.199,2738.72 841.107,2738.45 841.184,2738.19L843.257,2731.17C843.332,2730.92 843.248,2730.66 843.037,2730.5L837.252,2726.05C837.035,2725.88 836.952,2725.61 837.037,2725.35C837.122,2725.09 837.349,2724.92 837.622,2724.92L844.898,2724.73C845.166,2724.72 845.389,2724.56 845.478,2724.31L847.9,2717.43Z" style="fill:white;"/>
    </g>
</svg>
