<?xml version="1.0" encoding="UTF-8" standalone="no"?>
<!DOCTYPE svg PUBLIC "-//W3C//DTD SVG 1.1//EN" "http://www.w3.org/Graphics/SVG/1.1/DTD/svg11.dtd">
<svg width="100%" height="100%" viewBox="0 0 512 512" version="1.1" xmlns="http://www.w3.org/2000/svg" xmlns:xlink="http://www.w3.org/1999/xlink" xml:space="preserve" xmlns:serif="http://www.serif.com/" style="fill-rule:evenodd;clip-rule:evenodd;stroke-linejoin:round;stroke-miterlimit:2;">
    <g id="StatisticsIcon" transform="matrix(6.01333,0,0,6.01333,-7200.12,-5627.95)">
        <path d="M1266.12,968.844C1265.54,967.821 1265.22,966.64 1265.22,965.384C1265.22,961.47 1268.39,958.293 1272.31,958.293C1276.22,958.293 1279.4,961.47 1279.4,965.384C1279.4,969.298 1276.22,972.475 1272.31,972.475C1271.13,972.475 1270.03,972.189 1269.05,971.683L1257.07,983.657C1257.62,984.665 1257.94,985.821 1257.94,987.05C1257.94,990.964 1254.76,994.141 1250.85,994.141C1246.93,994.141 1243.76,990.964 1243.76,987.05C1243.76,986.431 1243.84,985.83 1243.99,985.258L1233.82,979.087C1232.53,980.457 1230.69,981.313 1228.66,981.313C1227.22,981.313 1225.88,980.882 1224.76,980.142L1214.19,989.072C1214.49,989.853 1214.65,990.7 1214.65,991.584C1214.65,995.498 1211.47,998.675 1207.56,998.675C1203.64,998.675 1200.46,995.498 1200.46,991.584C1200.46,987.671 1203.64,984.494 1207.56,984.494C1209.1,984.494 1210.54,984.99 1211.7,985.832L1222.14,977.012C1221.77,976.155 1221.57,975.212 1221.57,974.222C1221.57,970.309 1224.75,967.131 1228.66,967.131C1232.57,967.131 1235.75,970.309 1235.75,974.222C1235.75,974.632 1235.72,975.034 1235.65,975.425L1246.11,981.775C1247.37,980.646 1249.03,979.959 1250.85,979.959C1252.05,979.959 1253.18,980.259 1254.17,980.787L1266.12,968.844Z" style="fill:white;"/>
    </g>
</svg>
