<?xml version="1.0" encoding="UTF-8" standalone="no"?>
<!DOCTYPE svg PUBLIC "-//W3C//DTD SVG 1.1//EN" "http://www.w3.org/Graphics/SVG/1.1/DTD/svg11.dtd">
<svg width="100%" height="100%" viewBox="0 0 512 512" version="1.1" xmlns="http://www.w3.org/2000/svg" xmlns:xlink="http://www.w3.org/1999/xlink" xml:space="preserve" xmlns:serif="http://www.serif.com/" style="fill-rule:evenodd;clip-rule:evenodd;stroke-linejoin:round;stroke-miterlimit:2;">
    <g id="StunnedIcon" transform="matrix(3.20032,0,0,3.20032,-3853.65,-2495.35)">
        <g transform="matrix(1,0,0,1,-391.685,219.819)">
            <path d="M1635.47,575.132L1644.24,598.833L1667.94,607.604L1644.24,616.374L1635.47,640.075L1626.7,616.374L1603,607.604L1626.7,598.833L1635.47,575.132Z" style="fill:white;"/>
        </g>
        <g transform="matrix(1,0,0,1,-310.983,284.392)">
            <path d="M1635.47,575.132L1644.24,598.833L1667.94,607.604L1644.24,616.374L1635.47,640.075L1626.7,616.374L1603,607.604L1626.7,598.833L1635.47,575.132Z" style="fill:white;"/>
        </g>
        <g transform="matrix(0.858997,0,0,0.858997,-156.517,312.528)">
            <path d="M1609.89,618.602L1609.9,618.604L1611.03,619.177L1611.85,620.141L1612.29,621.362L1612.28,622.701L1612.28,622.704L1612.23,622.954L1612.18,623.198L1612.13,623.441L1612.09,623.685L1612.04,623.928L1612,624.172L1611.95,624.416L1611.91,624.66L1611.87,624.904L1611.83,625.148L1611.79,625.392L1611.76,625.637L1611.72,625.881L1611.68,626.125L1611.65,626.37L1611.62,626.614L1611.58,626.859L1611.55,627.104L1611.52,627.348L1611.49,627.593L1611.47,627.838L1611.44,628.083L1611.41,628.328L1611.39,628.572L1611.36,628.817L1611.34,629.062L1611.32,629.307L1611.3,629.552L1611.27,629.797L1611.26,630.042L1611.24,630.287L1611.22,630.532L1611.2,630.777L1611.19,631.022L1611.17,631.268L1611.16,631.513L1611.15,631.758L1611.14,632.003L1611.13,632.248L1611.12,632.493L1611.11,632.738L1611.1,632.983L1611.1,633.228L1611.09,633.473L1611.09,633.717L1611.08,633.962L1611.08,634.207L1611.08,634.452L1611.08,634.697L1611.08,634.941L1611.08,635.186L1611.09,635.43L1611.09,635.675L1611.1,635.919L1611.1,636.164L1611.11,636.408L1611.12,636.652L1611.12,636.897L1611.13,637.141L1611.15,637.385L1611.16,637.629L1611.17,637.873L1611.18,638.116L1611.2,638.361L1611.21,638.553L1611.23,638.745L1611.24,638.937L1611.25,639.129L1611.27,639.32L1611.28,639.512L1611.3,639.703L1611.32,639.894L1611.33,640.084L1611.35,640.275L1611.37,640.465L1611.39,640.655L1611.41,640.845L1611.43,641.034L1611.45,641.223L1611.47,641.412L1611.49,641.601L1611.52,641.789L1611.54,641.978L1611.56,642.166L1611.59,642.354L1611.61,642.541L1611.64,642.728L1611.66,642.915L1611.69,643.102L1611.72,643.289L1611.74,643.475L1611.77,643.661L1611.8,643.847L1611.83,644.033L1611.86,644.218L1611.89,644.403L1611.92,644.588L1611.95,644.773L1611.99,644.957L1612.02,645.141L1612.05,645.325L1612.09,645.508L1612.12,645.692L1612.15,645.875L1612.19,646.058L1612.23,646.24L1612.26,646.422L1612.3,646.605L1612.34,646.786L1612.38,646.968L1612.41,647.149L1612.45,647.33L1612.49,647.511L1612.54,647.691L1612.58,647.872L1612.62,648.052L1612.66,648.231L1612.7,648.411L1612.75,648.59L1612.79,648.769L1612.83,648.947L1612.88,649.126L1612.92,649.304L1612.97,649.482L1613.02,649.659L1613.06,649.837L1613.11,650.014L1613.16,650.191L1613.2,650.367L1613.25,650.543L1613.3,650.719L1613.35,650.895L1613.4,651.07L1613.45,651.245L1613.51,651.42L1613.56,651.595L1613.61,651.769L1613.66,651.943L1613.72,652.117L1613.77,652.291L1613.83,652.464L1613.88,652.637L1613.94,652.809L1613.99,652.982L1614.05,653.154L1614.11,653.326L1614.16,653.497L1614.22,653.668L1614.28,653.839L1614.34,654.01L1614.4,654.18L1614.46,654.35L1614.52,654.52L1614.58,654.69L1614.64,654.859L1614.71,655.028L1614.77,655.197L1614.83,655.365L1614.9,655.533L1614.96,655.701L1615.02,655.868L1615.09,656.036L1615.15,656.202L1615.22,656.369L1615.29,656.535L1615.35,656.701L1615.42,656.867L1615.49,657.033L1615.56,657.198L1615.63,657.363L1615.7,657.527L1615.77,657.691L1615.84,657.855L1615.91,658.019L1615.98,658.182L1616.05,658.345L1616.12,658.508L1616.19,658.671L1616.27,658.833L1616.34,658.994L1616.42,659.156L1616.49,659.317L1616.57,659.478L1616.64,659.639L1616.72,659.799L1616.79,659.959L1616.87,660.119L1616.95,660.278L1617.03,660.437L1617.1,660.596L1617.18,660.754L1617.26,660.912L1617.34,661.07L1617.42,661.228L1617.5,661.385L1617.58,661.542L1617.66,661.698L1617.75,661.855L1617.83,662.01L1617.91,662.166L1617.99,662.321L1618.08,662.476L1618.16,662.631L1618.25,662.785L1618.33,662.939L1618.41,663.093L1618.5,663.246L1618.59,663.399L1618.67,663.552L1618.76,663.704L1618.85,663.856L1618.94,664.008L1619.02,664.159L1619.11,664.311L1619.2,664.461L1619.29,664.612L1619.38,664.762L1619.47,664.911L1619.56,665.061L1619.65,665.21L1619.75,665.359L1619.84,665.507L1619.93,665.655L1620.02,665.803L1620.12,665.95L1620.21,666.097L1620.31,666.244L1620.4,666.391L1620.5,666.537L1620.59,666.682L1620.69,666.828L1620.78,666.973L1620.88,667.117L1620.98,667.262L1621.07,667.406L1621.17,667.549L1621.27,667.693L1621.37,667.836L1621.47,667.978L1621.57,668.121L1621.67,668.263L1621.77,668.404L1621.87,668.545L1621.97,668.686L1622.07,668.827L1622.17,668.967L1622.27,669.107L1622.38,669.246L1622.48,669.385L1622.58,669.524L1622.69,669.663L1622.79,669.801L1622.9,669.938L1623,670.076L1623.11,670.213L1623.21,670.349L1623.32,670.486L1623.42,670.622L1623.53,670.757L1623.64,670.892L1623.75,671.027L1623.85,671.162L1623.96,671.296L1624.07,671.43L1624.18,671.563L1624.29,671.696L1624.4,671.829L1624.51,671.961L1624.62,672.093L1624.73,672.224L1624.84,672.356L1624.95,672.486L1625.07,672.617L1625.18,672.747L1625.29,672.877L1625.4,673.006L1625.52,673.135L1625.63,673.263L1625.75,673.392L1625.86,673.519L1625.98,673.647L1626.09,673.774L1626.21,673.901L1626.32,674.027L1626.44,674.153L1626.56,674.279L1626.67,674.404L1626.79,674.528L1626.91,674.653L1627.03,674.777L1627.14,674.901L1627.26,675.024L1627.38,675.147L1627.5,675.269L1627.62,675.391L1627.74,675.513L1627.86,675.634L1627.98,675.755L1628.1,675.876L1628.22,675.996L1628.35,676.116L1628.47,676.235L1628.59,676.354L1628.71,676.473L1628.84,676.591L1628.96,676.709L1629.08,676.826L1629.21,676.943L1629.33,677.06L1629.46,677.176L1629.58,677.292L1629.71,677.407L1629.83,677.522L1629.96,677.637L1630.09,677.751L1630.21,677.865L1630.34,677.979L1630.47,678.092L1630.59,678.204L1630.72,678.316L1630.85,678.428L1630.98,678.54L1631.11,678.651L1631.24,678.761L1631.37,678.871L1631.49,678.981L1631.62,679.091L1631.76,679.199L1631.88,679.308L1632.02,679.416L1632.15,679.524L1632.28,679.631L1632.41,679.738L1632.54,679.845L1632.67,679.951L1632.81,680.056L1632.94,680.162L1633.07,680.266L1633.21,680.371L1633.34,680.475L1633.48,680.578L1633.61,680.681L1633.74,680.784L1633.88,680.887L1634.02,680.988L1634.15,681.09L1634.29,681.191L1634.42,681.292L1634.56,681.392L1634.69,681.491L1634.83,681.591L1634.97,681.69L1635.11,681.788L1635.24,681.886L1635.38,681.984L1635.52,682.081L1635.66,682.178L1635.8,682.274L1635.94,682.37L1636.08,682.466L1636.22,682.561L1636.36,682.655L1636.5,682.749L1636.64,682.843L1636.78,682.936L1636.92,683.029L1637.06,683.122L1637.2,683.214L1637.34,683.305L1637.49,683.396L1637.63,683.487L1637.77,683.577L1637.91,683.667L1638.06,683.757L1638.2,683.845L1638.34,683.934L1638.49,684.022L1638.63,684.11L1638.77,684.197L1638.92,684.283L1639.06,684.37L1639.21,684.455L1639.35,684.541L1639.5,684.626L1639.64,684.71L1639.79,684.794L1639.94,684.878L1640.08,684.961L1640.23,685.044L1640.38,685.126L1640.52,685.207L1640.67,685.289L1640.82,685.37L1640.97,685.45L1641.11,685.53L1641.26,685.609L1641.41,685.689L1641.56,685.767L1641.71,685.845L1641.86,685.923L1642.01,686L1642.16,686.077L1642.31,686.153L1642.46,686.229L1642.61,686.304L1642.76,686.379L1642.91,686.454L1643.06,686.528L1643.21,686.601L1643.36,686.674L1643.51,686.747L1643.66,686.819L1643.82,686.89L1643.97,686.962L1644.12,687.032L1644.27,687.103L1644.43,687.172L1644.58,687.242L1644.73,687.311L1644.88,687.379L1645.04,687.447L1645.19,687.514L1645.35,687.581L1645.5,687.648L1645.65,687.714L1645.81,687.779L1645.96,687.844L1646.12,687.909L1646.28,687.973L1646.43,688.037L1646.59,688.1L1646.74,688.162L1646.9,688.225L1647.05,688.286L1647.21,688.348L1647.37,688.408L1647.52,688.469L1647.68,688.529L1647.84,688.588L1647.99,688.647L1648.15,688.705L1648.31,688.763L1648.47,688.82L1648.62,688.877L1648.78,688.934L1648.94,688.99L1649.1,689.045L1649.26,689.1L1649.42,689.154L1649.58,689.208L1649.73,689.262L1649.89,689.315L1650.05,689.368L1650.21,689.42L1650.37,689.471L1650.53,689.522L1650.69,689.573L1650.85,689.623L1651.01,689.672L1651.17,689.721L1651.34,689.77L1651.5,689.818L1651.66,689.866L1651.82,689.913L1651.98,689.959L1652.14,690.006L1652.3,690.051L1652.47,690.096L1652.63,690.141L1652.79,690.185L1652.95,690.229L1653.11,690.272L1653.28,690.314L1653.44,690.357L1653.6,690.398L1653.77,690.439L1653.93,690.48L1654.09,690.52L1654.26,690.56L1654.42,690.599L1654.58,690.637L1654.75,690.675L1654.91,690.713L1655.08,690.75L1655.24,690.787L1655.4,690.823L1655.57,690.858L1655.73,690.893L1655.9,690.928L1656.06,690.962L1656.23,690.995L1656.39,691.028L1656.56,691.061L1656.73,691.093L1656.89,691.124L1657.06,691.155L1657.22,691.186L1657.39,691.216L1657.56,691.245L1657.72,691.274L1657.89,691.302L1658.06,691.33L1658.22,691.358L1658.39,691.384L1658.56,691.411L1658.72,691.437L1658.89,691.462L1659.06,691.487L1659.22,691.511L1659.39,691.535L1659.56,691.558L1659.73,691.58L1659.89,691.603L1660.06,691.624L1660.23,691.645L1660.4,691.666L1660.57,691.686L1660.74,691.706L1660.9,691.725L1661.07,691.743L1661.24,691.761L1661.41,691.778L1661.58,691.795L1661.75,691.812L1661.92,691.828L1662.09,691.843L1662.26,691.858L1662.43,691.872L1662.6,691.886L1662.77,691.899L1662.94,691.912L1663.11,691.924L1663.28,691.935L1663.45,691.946L1663.62,691.957L1663.79,691.967L1663.96,691.976L1664.13,691.985L1664.3,691.994L1664.47,692.001L1664.64,692.009L1664.81,692.016L1664.98,692.022L1665.15,692.027L1665.33,692.033L1665.5,692.037L1665.67,692.041L1665.84,692.045L1666.01,692.048L1666.18,692.05L1666.36,692.052L1666.53,692.053L1666.7,692.054L1666.87,692.055L1667.04,692.054L1667.22,692.053L1667.39,692.052L1667.56,692.05L1667.73,692.048L1667.9,692.045L1668.08,692.041L1668.25,692.037L1668.42,692.032L1668.6,692.027L1668.77,692.021L1668.94,692.015L1669.12,692.008L1669.29,692.001L1669.46,691.993L1669.63,691.984L1669.81,691.975L1669.98,691.965L1670.16,691.955L1670.33,691.944L1670.5,691.933L1670.68,691.921L1670.84,691.909L1671,691.897L1671.16,691.885L1671.32,691.872L1671.48,691.858L1671.64,691.844L1671.8,691.83L1671.96,691.815L1672.12,691.8L1672.28,691.784L1672.44,691.767L1672.6,691.75L1672.76,691.733L1672.92,691.715L1673.08,691.697L1673.24,691.678L1673.4,691.659L1673.56,691.639L1673.72,691.619L1673.88,691.598L1674.04,691.577L1674.2,691.556L1674.36,691.534L1674.52,691.511L1674.67,691.488L1674.83,691.464L1674.99,691.44L1675.15,691.416L1675.31,691.391L1675.47,691.366L1675.62,691.34L1675.78,691.314L1675.94,691.287L1676.1,691.26L1676.25,691.232L1676.41,691.204L1676.57,691.175L1676.73,691.146L1676.88,691.116L1677.04,691.086L1677.2,691.056L1677.35,691.025L1677.51,690.993L1677.66,690.961L1677.82,690.929L1677.98,690.896L1678.13,690.863L1678.29,690.829L1678.44,690.795L1678.6,690.76L1678.76,690.725L1678.91,690.69L1679.07,690.654L1679.22,690.617L1679.37,690.58L1679.53,690.543L1679.68,690.505L1679.84,690.467L1679.99,690.428L1680.14,690.389L1680.3,690.349L1680.45,690.309L1680.61,690.268L1680.76,690.227L1680.91,690.186L1681.07,690.144L1681.22,690.101L1681.37,690.058L1681.52,690.015L1681.67,689.971L1681.83,689.927L1681.98,689.883L1682.13,689.837L1682.28,689.792L1682.43,689.746L1682.59,689.699L1682.74,689.653L1682.89,689.605L1683.04,689.557L1683.19,689.509L1683.34,689.461L1683.49,689.411L1683.64,689.362L1683.79,689.312L1683.94,689.261L1684.09,689.211L1684.24,689.159L1684.39,689.107L1684.54,689.055L1684.69,689.003L1684.84,688.949L1684.98,688.896L1685.13,688.842L1685.28,688.788L1685.43,688.733L1685.58,688.677L1685.72,688.622L1685.87,688.566L1686.02,688.509L1686.16,688.452L1686.31,688.394L1686.46,688.337L1686.61,688.278L1686.75,688.219L1686.9,688.16L1687.04,688.101L1687.19,688.04L1687.33,687.98L1687.48,687.919L1687.62,687.858L1687.77,687.796L1687.91,687.734L1688.06,687.671L1688.2,687.608L1688.35,687.544L1688.49,687.48L1688.63,687.416L1688.78,687.351L1688.92,687.286L1689.06,687.22L1689.21,687.154L1689.35,687.088L1689.49,687.021L1689.63,686.954L1689.78,686.886L1689.92,686.818L1690.06,686.749L1690.22,686.673L1690.22,686.672L1692.48,686.019L1694.77,685.836L1697.02,686.099L1699.16,686.781L1701.13,687.855L1702.88,689.296L1704.33,691.075L1705.43,693.163L1705.43,693.17L1706.09,695.436L1706.27,697.726L1706.01,699.973L1705.33,702.115L1704.26,704.09L1702.82,705.835L1701.04,707.288L1698.95,708.384L1698.95,708.386L1698.75,708.454L1698.54,708.527L1698.32,708.6L1698.11,708.672L1697.89,708.744L1697.67,708.815L1697.46,708.885L1697.24,708.955L1697.03,709.024L1696.81,709.092L1696.59,709.159L1696.38,709.226L1696.16,709.293L1695.94,709.358L1695.73,709.423L1695.51,709.487L1695.29,709.551L1695.07,709.614L1694.86,709.676L1694.64,709.737L1694.42,709.798L1694.2,709.859L1693.98,709.918L1693.77,709.977L1693.55,710.035L1693.33,710.093L1693.11,710.149L1692.89,710.206L1692.67,710.261L1692.45,710.316L1692.23,710.37L1692.02,710.424L1691.8,710.476L1691.58,710.529L1691.36,710.58L1691.14,710.631L1690.92,710.681L1690.7,710.73L1690.48,710.779L1690.26,710.827L1690.04,710.875L1689.82,710.922L1689.6,710.968L1689.38,711.013L1689.15,711.058L1688.93,711.102L1688.71,711.145L1688.49,711.188L1688.27,711.23L1688.05,711.272L1687.83,711.312L1687.61,711.352L1687.39,711.392L1687.17,711.431L1686.94,711.469L1686.72,711.506L1686.5,711.543L1686.28,711.579L1686.06,711.614L1685.84,711.649L1685.62,711.683L1685.39,711.716L1685.17,711.749L1684.95,711.781L1684.73,711.812L1684.5,711.843L1684.28,711.873L1684.06,711.902L1683.84,711.931L1683.62,711.959L1683.39,711.986L1683.17,712.013L1682.95,712.039L1682.73,712.064L1682.5,712.089L1682.28,712.113L1682.06,712.136L1681.83,712.158L1681.61,712.18L1681.39,712.202L1681.17,712.222L1680.94,712.242L1680.72,712.261L1680.5,712.28L1680.27,712.298L1680.05,712.315L1679.83,712.332L1679.61,712.348L1679.38,712.363L1679.16,712.377L1678.94,712.391L1678.71,712.404L1678.49,712.417L1678.27,712.429L1678.04,712.44L1677.82,712.45L1677.6,712.46L1677.37,712.469L1677.15,712.478L1676.93,712.486L1676.7,712.493L1676.48,712.499L1676.26,712.505L1676.03,712.51L1675.81,712.515L1675.59,712.519L1675.36,712.522L1675.14,712.524L1674.92,712.526L1674.69,712.527L1674.47,712.527L1674.25,712.527L1674.02,712.526L1673.8,712.525L1673.58,712.522L1673.35,712.52L1673.13,712.516L1672.91,712.512L1672.68,712.507L1672.46,712.501L1672.24,712.495L1672.02,712.488L1671.79,712.48L1671.57,712.472L1671.35,712.463L1671.12,712.453L1670.9,712.443L1670.68,712.432L1670.44,712.419L1670.2,712.406L1669.96,712.392L1669.72,712.377L1669.49,712.362L1669.25,712.345L1669.01,712.328L1668.77,712.311L1668.54,712.292L1668.3,712.273L1668.06,712.253L1667.83,712.232L1667.59,712.211L1667.36,712.189L1667.12,712.166L1666.88,712.142L1666.65,712.118L1666.42,712.093L1666.18,712.067L1665.95,712.04L1665.71,712.013L1665.48,711.985L1665.25,711.956L1665.01,711.927L1664.78,711.897L1664.55,711.866L1664.32,711.834L1664.08,711.802L1663.85,711.769L1663.62,711.736L1663.39,711.701L1663.16,711.666L1662.93,711.63L1662.7,711.594L1662.47,711.556L1662.24,711.519L1662.01,711.48L1661.78,711.441L1661.55,711.401L1661.32,711.36L1661.09,711.318L1660.86,711.276L1660.63,711.234L1660.41,711.19L1660.18,711.146L1659.95,711.101L1659.73,711.056L1659.5,711.009L1659.27,710.962L1659.05,710.915L1658.82,710.866L1658.6,710.818L1658.37,710.768L1658.15,710.718L1657.92,710.667L1657.7,710.615L1657.48,710.563L1657.25,710.51L1657.03,710.456L1656.81,710.402L1656.58,710.347L1656.36,710.291L1656.14,710.235L1655.92,710.178L1655.7,710.12L1655.48,710.062L1655.26,710.003L1655.04,709.943L1654.82,709.883L1654.6,709.822L1654.38,709.76L1654.16,709.698L1653.94,709.635L1653.72,709.571L1653.5,709.507L1653.28,709.442L1653.07,709.377L1652.85,709.311L1652.63,709.244L1652.42,709.177L1652.2,709.108L1651.98,709.04L1651.77,708.97L1651.55,708.901L1651.34,708.83L1651.12,708.759L1650.91,708.687L1650.7,708.614L1650.48,708.541L1650.27,708.468L1650.06,708.393L1649.84,708.318L1649.63,708.243L1649.42,708.166L1649.21,708.09L1649,708.012L1648.79,707.934L1648.58,707.855L1648.37,707.776L1648.16,707.696L1647.95,707.616L1647.74,707.535L1647.53,707.453L1647.32,707.37L1647.12,707.287L1646.91,707.204L1646.7,707.12L1646.49,707.035L1646.29,706.95L1646.08,706.864L1645.88,706.777L1645.67,706.69L1645.47,706.602L1645.26,706.514L1645.06,706.425L1644.85,706.336L1644.65,706.246L1644.45,706.155L1644.24,706.064L1644.04,705.972L1643.84,705.879L1643.64,705.786L1643.44,705.693L1643.24,705.599L1643.04,705.504L1642.84,705.409L1642.63,705.313L1642.44,705.216L1642.24,705.119L1642.04,705.022L1641.84,704.924L1641.64,704.825L1641.44,704.726L1641.25,704.626L1641.05,704.525L1640.86,704.424L1640.66,704.323L1640.46,704.221L1640.27,704.118L1640.07,704.015L1639.88,703.911L1639.69,703.807L1639.49,703.702L1639.3,703.596L1639.11,703.49L1638.91,703.384L1638.72,703.277L1638.53,703.169L1638.34,703.061L1638.15,702.953L1637.96,702.843L1637.77,702.734L1637.58,702.623L1637.39,702.512L1637.2,702.401L1637.01,702.289L1636.83,702.177L1636.64,702.064L1636.45,701.95L1636.27,701.836L1636.08,701.722L1635.89,701.607L1635.71,701.491L1635.52,701.375L1635.34,701.258L1635.15,701.141L1634.97,701.023L1634.79,700.905L1634.6,700.787L1634.42,700.667L1634.24,700.548L1634.06,700.427L1633.88,700.307L1633.7,700.185L1633.52,700.064L1633.34,699.941L1633.16,699.819L1632.98,699.695L1632.8,699.571L1632.62,699.447L1632.44,699.322L1632.27,699.197L1632.09,699.071L1631.91,698.945L1631.74,698.818L1631.56,698.691L1631.38,698.563L1631.21,698.435L1631.04,698.306L1630.86,698.177L1630.69,698.047L1630.52,697.917L1630.34,697.786L1630.17,697.655L1630,697.524L1629.83,697.392L1629.66,697.259L1629.49,697.126L1629.32,696.992L1629.15,696.858L1628.98,696.724L1628.81,696.589L1628.64,696.453L1628.48,696.317L1628.31,696.181L1628.14,696.044L1627.98,695.907L1627.81,695.769L1627.64,695.631L1627.48,695.492L1627.31,695.353L1627.15,695.214L1626.99,695.073L1626.82,694.933L1626.66,694.792L1626.5,694.651L1626.34,694.509L1626.18,694.366L1626.02,694.224L1625.86,694.08L1625.69,693.937L1625.54,693.792L1625.38,693.648L1625.22,693.503L1625.06,693.357L1624.9,693.212L1624.75,693.065L1624.59,692.918L1624.43,692.771L1624.28,692.624L1624.12,692.475L1623.97,692.327L1623.81,692.178L1623.66,692.029L1623.51,691.879L1623.35,691.729L1623.2,691.578L1623.05,691.427L1622.9,691.275L1622.75,691.123L1622.6,690.971L1622.45,690.818L1622.3,690.665L1622.15,690.512L1622,690.357L1621.85,690.203L1621.71,690.048L1621.56,689.893L1621.41,689.737L1621.27,689.581L1621.12,689.425L1620.98,689.268L1620.83,689.11L1620.69,688.953L1620.54,688.795L1620.4,688.636L1620.26,688.477L1620.12,688.318L1619.98,688.158L1619.83,687.998L1619.69,687.837L1619.55,687.677L1619.41,687.515L1619.28,687.354L1619.14,687.192L1619,687.029L1618.86,686.866L1618.72,686.703L1618.59,686.539L1618.45,686.375L1618.32,686.211L1618.18,686.046L1618.05,685.881L1617.91,685.715L1617.78,685.549L1617.65,685.383L1617.51,685.216L1617.38,685.049L1617.25,684.882L1617.12,684.714L1616.99,684.546L1616.86,684.377L1616.73,684.208L1616.6,684.039L1616.47,683.87L1616.35,683.7L1616.22,683.529L1616.09,683.358L1615.97,683.187L1615.84,683.016L1615.72,682.844L1615.59,682.672L1615.47,682.499L1615.34,682.326L1615.22,682.153L1615.1,681.98L1614.98,681.806L1614.85,681.631L1614.73,681.457L1614.61,681.282L1614.49,681.106L1614.37,680.931L1614.26,680.755L1614.14,680.578L1614.02,680.402L1613.9,680.224L1613.79,680.047L1613.67,679.869L1613.55,679.691L1613.44,679.513L1613.33,679.334L1613.21,679.155L1613.1,678.976L1612.99,678.796L1612.87,678.616L1612.76,678.435L1612.65,678.255L1612.54,678.074L1612.43,677.892L1612.32,677.711L1612.21,677.529L1612.1,677.346L1612,677.164L1611.89,676.981L1611.78,676.797L1611.67,676.614L1611.57,676.43L1611.46,676.246L1611.36,676.061L1611.26,675.876L1611.15,675.691L1611.05,675.506L1610.95,675.32L1610.85,675.134L1610.74,674.947L1610.64,674.761L1610.54,674.574L1610.44,674.387L1610.35,674.199L1610.25,674.011L1610.15,673.823L1610.05,673.634L1609.95,673.446L1609.86,673.257L1609.76,673.067L1609.67,672.878L1609.58,672.688L1609.48,672.497L1609.39,672.307L1609.3,672.116L1609.2,671.925L1609.11,671.734L1609.02,671.542L1608.93,671.35L1608.84,671.158L1608.75,670.965L1608.66,670.773L1608.58,670.58L1608.49,670.386L1608.4,670.193L1608.32,669.999L1608.23,669.805L1608.14,669.61L1608.06,669.416L1607.98,669.221L1607.89,669.026L1607.81,668.83L1607.73,668.634L1607.65,668.438L1607.57,668.242L1607.49,668.046L1607.41,667.849L1607.33,667.652L1607.25,667.455L1607.17,667.257L1607.09,667.059L1607.02,666.861L1606.94,666.663L1606.87,666.465L1606.79,666.266L1606.72,666.067L1606.64,665.868L1606.57,665.668L1606.5,665.468L1606.42,665.268L1606.35,665.068L1606.28,664.868L1606.21,664.667L1606.14,664.466L1606.08,664.265L1606.01,664.063L1605.94,663.862L1605.87,663.66L1605.81,663.458L1605.74,663.255L1605.67,663.053L1605.61,662.85L1605.55,662.647L1605.48,662.444L1605.42,662.24L1605.36,662.037L1605.3,661.833L1605.24,661.629L1605.18,661.424L1605.12,661.22L1605.06,661.015L1605,660.81L1604.94,660.605L1604.88,660.399L1604.83,660.194L1604.77,659.988L1604.72,659.782L1604.66,659.576L1604.61,659.369L1604.56,659.163L1604.5,658.956L1604.45,658.749L1604.4,658.542L1604.35,658.334L1604.3,658.127L1604.25,657.919L1604.2,657.711L1604.15,657.503L1604.11,657.294L1604.06,657.086L1604.01,656.877L1603.97,656.668L1603.92,656.459L1603.88,656.249L1603.83,656.04L1603.79,655.83L1603.75,655.62L1603.71,655.41L1603.67,655.2L1603.63,654.989L1603.59,654.779L1603.55,654.568L1603.51,654.357L1603.47,654.146L1603.43,653.935L1603.4,653.723L1603.36,653.512L1603.33,653.3L1603.29,653.088L1603.26,652.876L1603.22,652.664L1603.19,652.451L1603.16,652.239L1603.13,652.026L1603.1,651.813L1603.07,651.6L1603.04,651.387L1603.01,651.173L1602.98,650.96L1602.95,650.746L1602.93,650.532L1602.9,650.318L1602.88,650.104L1602.85,649.89L1602.83,649.675L1602.81,649.461L1602.78,649.246L1602.76,649.031L1602.74,648.816L1602.72,648.601L1602.7,648.386L1602.68,648.171L1602.66,647.955L1602.64,647.739L1602.62,647.524L1602.61,647.308L1602.59,647.092L1602.58,646.876L1602.56,646.659L1602.55,646.443L1602.54,646.226L1602.52,646.01L1602.51,645.793L1602.5,645.576L1602.49,645.359L1602.48,645.142L1602.47,644.925L1602.46,644.707L1602.45,644.49L1602.45,644.272L1602.44,644.055L1602.44,643.837L1602.43,643.619L1602.43,643.401L1602.42,643.183L1602.42,642.964L1602.42,642.746L1602.42,642.528L1602.42,642.309L1602.42,642.091L1602.42,641.872L1602.42,641.653L1602.42,641.434L1602.42,641.215L1602.43,640.996L1602.43,640.777L1602.43,640.557L1602.44,640.338L1602.45,640.119L1602.45,639.899L1602.46,639.68L1602.47,639.46L1602.48,639.24L1602.49,639.02L1602.5,638.8L1602.51,638.58L1602.52,638.359L1602.54,638.081L1602.56,637.802L1602.57,637.523L1602.59,637.245L1602.61,636.966L1602.63,636.688L1602.66,636.41L1602.68,636.132L1602.71,635.854L1602.73,635.577L1602.76,635.3L1602.79,635.023L1602.82,634.746L1602.85,634.469L1602.88,634.193L1602.91,633.916L1602.95,633.64L1602.98,633.364L1603.02,633.089L1603.06,632.814L1603.1,632.538L1603.14,632.264L1603.18,631.989L1603.22,631.715L1603.26,631.44L1603.31,631.166L1603.35,630.893L1603.4,630.619L1603.44,630.346L1603.49,630.073L1603.54,629.801L1603.59,629.528L1603.65,629.256L1603.7,628.985L1603.75,628.713L1603.81,628.442L1603.86,628.171L1603.92,627.9L1603.98,627.63L1604.04,627.36L1604.1,627.09L1604.16,626.821L1604.23,626.551L1604.29,626.283L1604.35,626.014L1604.42,625.746L1604.49,625.478L1604.56,625.21L1604.63,624.943L1604.7,624.676L1604.77,624.409L1604.84,624.143L1604.91,623.877L1604.99,623.612L1605.07,623.346L1605.14,623.082L1605.22,622.817L1605.3,622.553L1605.38,622.289L1605.46,622.026L1605.54,621.762L1605.63,621.5L1605.71,621.237L1605.8,620.982L1605.8,620.979L1606.44,619.807L1607.43,618.967L1608.63,618.54L1609.89,618.602Z" style="fill:white;"/>
        </g>
        <g transform="matrix(-0.858997,2.77556e-17,-2.77556e-17,-0.858997,2725.3,1405.97)">
            <path d="M1674.25,712.527L1674.02,712.526L1673.8,712.525L1673.58,712.522L1673.35,712.52L1673.13,712.516L1672.91,712.512L1672.68,712.507L1672.46,712.501L1672.24,712.495L1672.02,712.488L1671.79,712.48L1671.57,712.472L1671.35,712.463L1671.12,712.453L1670.9,712.443L1670.68,712.432L1670.44,712.419L1670.2,712.406L1669.96,712.392L1669.72,712.377L1669.49,712.362L1669.25,712.345L1669.01,712.328L1668.77,712.311L1668.54,712.292L1668.3,712.273L1668.06,712.253L1667.83,712.232L1667.59,712.211L1667.36,712.189L1667.12,712.166L1666.88,712.142L1666.65,712.118L1666.42,712.093L1666.18,712.067L1665.95,712.04L1665.71,712.013L1665.48,711.985L1665.25,711.956L1665.01,711.927L1664.78,711.897L1664.55,711.866L1664.32,711.834L1664.08,711.802L1663.85,711.769L1663.62,711.736L1663.39,711.701L1663.16,711.666L1662.93,711.63L1662.7,711.594L1662.47,711.556L1662.24,711.519L1662.01,711.48L1661.78,711.441L1661.55,711.401L1661.32,711.36L1661.09,711.318L1660.86,711.276L1660.63,711.234L1660.41,711.19L1660.18,711.146L1659.95,711.101L1659.73,711.056L1659.5,711.009L1659.27,710.962L1659.05,710.915L1658.82,710.866L1658.6,710.818L1658.37,710.768L1658.15,710.718L1657.92,710.667L1657.7,710.615L1657.48,710.563L1657.25,710.51L1657.03,710.456L1656.81,710.402L1656.58,710.347L1656.36,710.291L1656.14,710.235L1655.92,710.178L1655.7,710.12L1655.48,710.062L1655.26,710.003L1655.04,709.943L1654.82,709.883L1654.6,709.822L1654.38,709.76L1654.16,709.698L1653.94,709.635L1653.72,709.571L1653.5,709.507L1653.28,709.442L1653.07,709.377L1652.85,709.311L1652.63,709.244L1652.42,709.177L1652.2,709.108L1651.98,709.04L1651.77,708.97L1651.55,708.901L1651.34,708.83L1651.12,708.759L1650.91,708.687L1650.7,708.614L1650.48,708.541L1650.27,708.468L1650.06,708.393L1649.84,708.318L1649.63,708.243L1649.42,708.166L1649.21,708.09L1649,708.012L1648.79,707.934L1648.58,707.855L1648.37,707.776L1648.16,707.696L1647.95,707.616L1647.74,707.535L1647.53,707.453L1647.32,707.37L1647.12,707.287L1646.91,707.204L1646.7,707.12L1646.49,707.035L1646.29,706.95L1646.08,706.864L1645.88,706.777L1645.67,706.69L1645.47,706.602L1645.26,706.514L1645.06,706.425L1644.85,706.336L1644.65,706.246L1644.45,706.155L1644.24,706.064L1644.04,705.972L1643.84,705.879L1643.64,705.786L1643.44,705.693L1643.24,705.599L1643.04,705.504L1642.84,705.409L1642.63,705.313L1642.44,705.216L1642.24,705.119L1642.04,705.022L1641.84,704.924L1641.64,704.825L1641.44,704.726L1641.25,704.626L1641.05,704.525L1640.86,704.424L1640.66,704.323L1640.46,704.221L1640.27,704.118L1640.07,704.015L1639.88,703.911L1639.69,703.807L1639.49,703.702L1639.3,703.596L1639.11,703.49L1638.91,703.384L1638.72,703.277L1638.53,703.169L1638.34,703.061L1638.15,702.953L1637.96,702.843L1637.77,702.734L1637.58,702.623L1637.39,702.512L1637.2,702.401L1637.01,702.289L1636.83,702.177L1636.64,702.064L1636.45,701.95L1636.27,701.836L1636.08,701.722L1635.89,701.607L1635.71,701.491L1635.52,701.375L1635.34,701.258L1635.15,701.141L1634.97,701.023L1634.79,700.905L1634.6,700.787L1634.42,700.667L1634.24,700.548L1634.06,700.427L1633.88,700.307L1633.7,700.185L1633.52,700.064L1633.34,699.941L1633.16,699.819L1632.98,699.695L1632.8,699.571L1632.62,699.447L1632.44,699.322L1632.27,699.197L1632.09,699.071L1631.91,698.945L1631.74,698.818L1631.56,698.691L1631.38,698.563L1631.21,698.435L1631.04,698.306L1630.86,698.177L1630.69,698.047L1630.52,697.917L1630.34,697.786L1630.17,697.655L1630,697.524L1629.83,697.392L1629.66,697.259L1629.49,697.126L1629.32,696.992L1629.15,696.858L1628.98,696.724L1628.81,696.589L1628.64,696.453L1628.48,696.317L1628.31,696.181L1628.14,696.044L1627.98,695.907L1627.81,695.769L1627.64,695.631L1627.48,695.492L1627.31,695.353L1627.15,695.214L1626.99,695.073L1626.82,694.933L1626.66,694.792L1626.5,694.651L1626.34,694.509L1626.18,694.366L1626.02,694.224L1625.86,694.08L1625.69,693.937L1625.54,693.792L1625.38,693.648L1625.22,693.503L1625.06,693.357L1624.9,693.212L1624.75,693.065L1624.59,692.918L1624.43,692.771L1624.28,692.624L1624.12,692.475L1623.97,692.327L1623.81,692.178L1623.66,692.029L1623.51,691.879L1623.35,691.729L1623.2,691.578L1623.05,691.427L1622.9,691.275L1622.75,691.123L1622.6,690.971L1622.45,690.818L1622.3,690.665L1622.15,690.512L1622,690.357L1621.85,690.203L1621.71,690.048L1621.56,689.893L1621.41,689.737L1621.27,689.581L1621.12,689.425L1620.98,689.268L1620.83,689.11L1620.69,688.953L1620.54,688.795L1620.4,688.636L1620.26,688.477L1620.12,688.318L1619.98,688.158L1619.83,687.998L1619.69,687.837L1619.55,687.677L1619.41,687.515L1619.28,687.354L1619.14,687.192L1619,687.029L1618.86,686.866L1618.72,686.703L1618.59,686.539L1618.45,686.375L1618.32,686.211L1618.18,686.046L1618.05,685.881L1617.91,685.715L1617.78,685.549L1617.65,685.383L1617.51,685.216L1617.38,685.049L1617.25,684.882L1617.12,684.714L1616.99,684.546L1616.86,684.377L1616.73,684.208L1616.6,684.039L1616.47,683.87L1616.35,683.7L1616.22,683.529L1616.09,683.358L1615.97,683.187L1615.84,683.016L1615.72,682.844L1615.59,682.672L1615.47,682.499L1615.34,682.326L1615.22,682.153L1615.1,681.98L1614.98,681.806L1614.85,681.631L1614.73,681.457L1614.61,681.282L1614.49,681.106L1614.37,680.931L1614.26,680.755L1614.14,680.578L1614.02,680.402L1613.9,680.224L1613.79,680.047L1613.67,679.869L1613.55,679.691L1613.44,679.513L1613.33,679.334L1613.21,679.155L1613.1,678.976L1612.99,678.796L1612.87,678.616L1612.76,678.435L1612.65,678.255L1612.54,678.074L1612.43,677.892L1612.32,677.711L1612.21,677.529L1612.1,677.346L1612,677.164L1611.89,676.981L1611.78,676.797L1611.67,676.614L1611.57,676.43L1611.46,676.246L1611.36,676.061L1611.26,675.876L1611.15,675.691L1611.05,675.506L1610.95,675.32L1610.85,675.134L1610.74,674.947L1610.64,674.761L1610.54,674.574L1610.44,674.387L1610.35,674.199L1610.25,674.011L1610.15,673.823L1610.05,673.634L1609.95,673.446L1609.86,673.257L1609.76,673.067L1609.67,672.878L1609.58,672.688L1609.48,672.497L1609.39,672.307L1609.3,672.116L1609.2,671.925L1609.11,671.734L1609.02,671.542L1608.93,671.35L1608.84,671.158L1608.75,670.965L1608.66,670.773L1608.58,670.58L1608.49,670.386L1608.4,670.193L1608.32,669.999L1608.23,669.805L1608.14,669.61L1608.06,669.416L1607.98,669.221L1607.89,669.026L1607.81,668.83L1607.73,668.634L1607.65,668.438L1607.57,668.242L1607.49,668.046L1607.41,667.849L1607.33,667.652L1607.25,667.455L1607.17,667.257L1607.09,667.059L1607.02,666.861L1606.94,666.663L1606.87,666.465L1606.79,666.266L1606.72,666.067L1606.64,665.868L1606.57,665.668L1606.5,665.468L1606.42,665.268L1606.35,665.068L1606.28,664.868L1606.21,664.667L1606.14,664.466L1606.08,664.265L1606.01,664.063L1605.94,663.862L1605.87,663.66L1605.81,663.458L1605.74,663.255L1605.67,663.053L1605.61,662.85L1605.55,662.647L1605.48,662.444L1605.42,662.24L1605.36,662.037L1605.3,661.833L1605.24,661.629L1605.18,661.424L1605.12,661.22L1605.06,661.015L1605,660.81L1604.94,660.605L1604.88,660.399L1604.83,660.194L1604.77,659.988L1604.72,659.782L1604.66,659.576L1604.61,659.369L1604.56,659.163L1604.5,658.956L1604.45,658.749L1604.4,658.542L1604.35,658.334L1604.3,658.127L1604.25,657.919L1604.2,657.711L1604.15,657.503L1604.11,657.294L1604.06,657.086L1604.01,656.877L1603.97,656.668L1603.92,656.459L1603.88,656.249L1603.83,656.04L1603.79,655.83L1603.75,655.62L1603.71,655.41L1603.67,655.2L1603.63,654.989L1603.59,654.779L1603.55,654.568L1603.51,654.357L1603.47,654.146L1603.43,653.935L1603.4,653.723L1603.36,653.512L1603.33,653.3L1603.29,653.088L1603.26,652.876L1603.22,652.664L1603.19,652.451L1603.16,652.239L1603.13,652.026L1603.1,651.813L1603.07,651.6L1603.04,651.387L1603.01,651.173L1602.98,650.96L1602.95,650.746L1602.93,650.532L1602.9,650.318L1602.88,650.104L1602.85,649.89L1602.83,649.675L1602.81,649.461L1602.78,649.246L1602.76,649.031L1602.74,648.816L1602.72,648.601L1602.7,648.386L1602.68,648.171L1602.66,647.955L1602.64,647.739L1602.62,647.524L1602.61,647.308L1602.59,647.092L1602.58,646.876L1602.56,646.659L1602.55,646.443L1602.54,646.226L1602.52,646.01L1602.51,645.793L1602.5,645.576L1602.49,645.359L1602.48,645.142L1602.47,644.925L1602.46,644.707L1602.45,644.49L1602.45,644.272L1602.44,644.055L1602.44,643.837L1602.43,643.619L1602.43,643.401L1602.42,643.183L1602.42,642.964L1602.42,642.746L1602.42,642.528L1602.42,642.309L1602.42,642.091L1602.42,641.872L1602.42,641.653L1602.42,641.434L1602.42,641.215L1602.43,640.996L1602.43,640.777L1602.43,640.557L1602.44,640.338L1602.45,640.119L1602.45,639.899L1602.46,639.68L1602.47,639.46L1602.48,639.24L1602.49,639.02L1602.5,638.8L1602.51,638.58L1602.52,638.359L1602.54,638.081L1602.56,637.802L1602.57,637.523L1602.59,637.245L1602.61,636.966L1602.63,636.688L1602.66,636.41L1602.68,636.132L1602.71,635.854L1602.73,635.577L1602.76,635.3L1602.79,635.023L1602.82,634.746L1602.85,634.469L1602.88,634.193L1602.91,633.916L1602.95,633.64L1602.98,633.364L1603.02,633.089L1603.06,632.814L1603.1,632.538L1603.14,632.264L1603.18,631.989L1603.22,631.715L1603.26,631.44L1603.31,631.166L1603.35,630.893L1603.4,630.619L1603.44,630.346L1603.49,630.073L1603.54,629.801L1603.59,629.528L1603.65,629.256L1603.7,628.985L1603.75,628.713L1603.81,628.442L1603.86,628.171L1603.92,627.9L1603.98,627.63L1604.04,627.36L1604.1,627.09L1604.16,626.821L1604.23,626.551L1604.29,626.283L1604.35,626.014L1604.42,625.746L1604.49,625.478L1604.56,625.21L1604.63,624.943L1604.7,624.676L1604.77,624.409L1604.84,624.143L1604.91,623.877L1604.99,623.612L1605.07,623.346L1605.14,623.082L1605.22,622.817L1605.3,622.553L1605.38,622.289L1605.46,622.026L1605.54,621.762L1605.63,621.5L1605.71,621.237L1605.8,620.982L1605.8,620.979L1606.44,619.807L1607.43,618.967L1608.63,618.54L1609.89,618.602L1609.9,618.604L1611.03,619.177L1611.85,620.141L1612.29,621.362L1612.28,622.701L1612.28,622.704L1612.23,622.954L1612.18,623.198L1612.13,623.441L1612.09,623.685L1612.04,623.928L1612,624.172L1611.95,624.416L1611.91,624.66L1611.87,624.904L1611.83,625.148L1611.79,625.392L1611.76,625.637L1611.72,625.881L1611.68,626.125L1611.65,626.37L1611.62,626.614L1611.58,626.859L1611.55,627.104L1611.52,627.348L1611.49,627.593L1611.47,627.838L1611.44,628.083L1611.41,628.328L1611.39,628.572L1611.36,628.817L1611.34,629.062L1611.32,629.307L1611.3,629.552L1611.27,629.797L1611.26,630.042L1611.24,630.287L1611.22,630.532L1611.2,630.777L1611.19,631.022L1611.17,631.268L1611.16,631.513L1611.15,631.758L1611.14,632.003L1611.13,632.248L1611.12,632.493L1611.11,632.738L1611.1,632.983L1611.1,633.228L1611.09,633.473L1611.09,633.717L1611.08,633.962L1611.08,634.207L1611.08,634.452L1611.08,634.697L1611.08,634.941L1611.08,635.186L1611.09,635.43L1611.09,635.675L1611.1,635.919L1611.1,636.164L1611.11,636.408L1611.12,636.652L1611.12,636.897L1611.13,637.141L1611.15,637.385L1611.16,637.629L1611.17,637.873L1611.18,638.116L1611.2,638.361L1611.21,638.553L1611.23,638.745L1611.24,638.937L1611.25,639.129L1611.27,639.32L1611.28,639.512L1611.3,639.703L1611.32,639.894L1611.33,640.084L1611.35,640.275L1611.37,640.465L1611.39,640.655L1611.41,640.845L1611.43,641.034L1611.45,641.223L1611.47,641.412L1611.49,641.601L1611.52,641.789L1611.54,641.978L1611.56,642.166L1611.59,642.354L1611.61,642.541L1611.64,642.728L1611.66,642.915L1611.69,643.102L1611.72,643.289L1611.74,643.475L1611.77,643.661L1611.8,643.847L1611.83,644.033L1611.86,644.218L1611.89,644.403L1611.92,644.588L1611.95,644.773L1611.99,644.957L1612.02,645.141L1612.05,645.325L1612.09,645.508L1612.12,645.692L1612.15,645.875L1612.19,646.058L1612.23,646.24L1612.26,646.422L1612.3,646.605L1612.34,646.786L1612.38,646.968L1612.41,647.149L1612.45,647.33L1612.49,647.511L1612.54,647.691L1612.58,647.872L1612.62,648.052L1612.66,648.231L1612.7,648.411L1612.75,648.59L1612.79,648.769L1612.83,648.947L1612.88,649.126L1612.92,649.304L1612.97,649.482L1613.02,649.659L1613.06,649.837L1613.11,650.014L1613.16,650.191L1613.2,650.367L1613.25,650.543L1613.3,650.719L1613.35,650.895L1613.4,651.07L1613.45,651.245L1613.51,651.42L1613.56,651.595L1613.61,651.769L1613.66,651.943L1613.72,652.117L1613.77,652.291L1613.83,652.464L1613.88,652.637L1613.94,652.809L1613.99,652.982L1614.05,653.154L1614.11,653.326L1614.16,653.497L1614.22,653.668L1614.28,653.839L1614.34,654.01L1614.4,654.18L1614.46,654.35L1614.52,654.52L1614.58,654.69L1614.64,654.859L1614.71,655.028L1614.77,655.197L1614.83,655.365L1614.9,655.533L1614.96,655.701L1615.02,655.868L1615.09,656.036L1615.15,656.202L1615.22,656.369L1615.29,656.535L1615.35,656.701L1615.42,656.867L1615.49,657.033L1615.56,657.198L1615.63,657.363L1615.7,657.527L1615.77,657.691L1615.84,657.855L1615.91,658.019L1615.98,658.182L1616.05,658.345L1616.12,658.508L1616.19,658.671L1616.27,658.833L1616.34,658.994L1616.42,659.156L1616.49,659.317L1616.57,659.478L1616.64,659.639L1616.72,659.799L1616.79,659.959L1616.87,660.119L1616.95,660.278L1617.03,660.437L1617.1,660.596L1617.18,660.754L1617.26,660.912L1617.34,661.07L1617.42,661.228L1617.5,661.385L1617.58,661.542L1617.66,661.698L1617.75,661.855L1617.83,662.01L1617.91,662.166L1617.99,662.321L1618.08,662.476L1618.16,662.631L1618.25,662.785L1618.33,662.939L1618.41,663.093L1618.5,663.246L1618.59,663.399L1618.67,663.552L1618.76,663.704L1618.85,663.856L1618.94,664.008L1619.02,664.159L1619.11,664.311L1619.2,664.461L1619.29,664.612L1619.38,664.762L1619.47,664.911L1619.56,665.061L1619.65,665.21L1619.75,665.359L1619.84,665.507L1619.93,665.655L1620.02,665.803L1620.12,665.95L1620.21,666.097L1620.31,666.244L1620.4,666.391L1620.5,666.537L1620.59,666.682L1620.69,666.828L1620.78,666.973L1620.88,667.117L1620.98,667.262L1621.07,667.406L1621.17,667.549L1621.27,667.693L1621.37,667.836L1621.47,667.978L1621.57,668.121L1621.67,668.263L1621.77,668.404L1621.87,668.545L1621.97,668.686L1622.07,668.827L1622.17,668.967L1622.27,669.107L1622.38,669.246L1622.48,669.385L1622.58,669.524L1622.69,669.663L1622.79,669.801L1622.9,669.938L1623,670.076L1623.11,670.213L1623.21,670.349L1623.32,670.486L1623.42,670.622L1623.53,670.757L1623.64,670.892L1623.75,671.027L1623.85,671.162L1623.96,671.296L1624.07,671.43L1624.18,671.563L1624.29,671.696L1624.4,671.829L1624.51,671.961L1624.62,672.093L1624.73,672.224L1624.84,672.356L1624.95,672.486L1625.07,672.617L1625.18,672.747L1625.29,672.877L1625.4,673.006L1625.52,673.135L1625.63,673.263L1625.75,673.392L1625.86,673.519L1625.98,673.647L1626.09,673.774L1626.21,673.901L1626.32,674.027L1626.44,674.153L1626.56,674.279L1626.67,674.404L1626.79,674.528L1626.91,674.653L1627.03,674.777L1627.14,674.901L1627.26,675.024L1627.38,675.147L1627.5,675.269L1627.62,675.391L1627.74,675.513L1627.86,675.634L1627.98,675.755L1628.1,675.876L1628.22,675.996L1628.35,676.116L1628.47,676.235L1628.59,676.354L1628.71,676.473L1628.84,676.591L1628.96,676.709L1629.08,676.826L1629.21,676.943L1629.33,677.06L1629.46,677.176L1629.58,677.292L1629.71,677.407L1629.83,677.522L1629.96,677.637L1630.09,677.751L1630.21,677.865L1630.34,677.979L1630.47,678.092L1630.59,678.204L1630.72,678.316L1630.85,678.428L1630.98,678.54L1631.11,678.651L1631.24,678.761L1631.37,678.871L1631.49,678.981L1631.62,679.091L1631.76,679.199L1631.88,679.308L1632.02,679.416L1632.15,679.524L1632.28,679.631L1632.41,679.738L1632.54,679.845L1632.67,679.951L1632.81,680.056L1632.94,680.162L1633.07,680.266L1633.21,680.371L1633.34,680.475L1633.48,680.578L1633.61,680.681L1633.74,680.784L1633.88,680.887L1634.02,680.988L1634.15,681.09L1634.29,681.191L1634.42,681.292L1634.56,681.392L1634.69,681.491L1634.83,681.591L1634.97,681.69L1635.11,681.788L1635.24,681.886L1635.38,681.984L1635.52,682.081L1635.66,682.178L1635.8,682.274L1635.94,682.37L1636.08,682.466L1636.22,682.561L1636.36,682.655L1636.5,682.749L1636.64,682.843L1636.78,682.936L1636.92,683.029L1637.06,683.122L1637.2,683.214L1637.34,683.305L1637.49,683.396L1637.63,683.487L1637.77,683.577L1637.91,683.667L1638.06,683.757L1638.2,683.845L1638.34,683.934L1638.49,684.022L1638.63,684.11L1638.77,684.197L1638.92,684.283L1639.06,684.37L1639.21,684.455L1639.35,684.541L1639.5,684.626L1639.64,684.71L1639.79,684.794L1639.94,684.878L1640.08,684.961L1640.23,685.044L1640.38,685.126L1640.52,685.207L1640.67,685.289L1640.82,685.37L1640.97,685.45L1641.11,685.53L1641.26,685.609L1641.41,685.689L1641.56,685.767L1641.71,685.845L1641.86,685.923L1642.01,686L1642.16,686.077L1642.31,686.153L1642.46,686.229L1642.61,686.304L1642.76,686.379L1642.91,686.454L1643.06,686.528L1643.21,686.601L1643.36,686.674L1643.51,686.747L1643.66,686.819L1643.82,686.89L1643.97,686.962L1644.12,687.032L1644.27,687.103L1644.43,687.172L1644.58,687.242L1644.73,687.311L1644.88,687.379L1645.04,687.447L1645.19,687.514L1645.35,687.581L1645.5,687.648L1645.65,687.714L1645.81,687.779L1645.96,687.844L1646.12,687.909L1646.28,687.973L1646.43,688.037L1646.59,688.1L1646.74,688.162L1646.9,688.225L1647.05,688.286L1647.21,688.348L1647.37,688.408L1647.52,688.469L1647.68,688.529L1647.84,688.588L1647.99,688.647L1648.15,688.705L1648.31,688.763L1648.47,688.82L1648.62,688.877L1648.78,688.934L1648.94,688.99L1649.1,689.045L1649.26,689.1L1649.42,689.154L1649.58,689.208L1649.73,689.262L1649.89,689.315L1650.05,689.368L1650.21,689.42L1650.37,689.471L1650.53,689.522L1650.69,689.573L1650.85,689.623L1651.01,689.672L1651.17,689.721L1651.34,689.77L1651.5,689.818L1651.66,689.866L1651.82,689.913L1651.98,689.959L1652.14,690.006L1652.3,690.051L1652.47,690.096L1652.63,690.141L1652.79,690.185L1652.95,690.229L1653.11,690.272L1653.28,690.314L1653.44,690.357L1653.6,690.398L1653.77,690.439L1653.93,690.48L1654.09,690.52L1654.26,690.56L1654.42,690.599L1654.58,690.637L1654.75,690.675L1654.91,690.713L1655.08,690.75L1655.24,690.787L1655.4,690.823L1655.57,690.858L1655.73,690.893L1655.9,690.928L1656.06,690.962L1656.23,690.995L1656.39,691.028L1656.56,691.061L1656.73,691.093L1656.89,691.124L1657.06,691.155L1657.22,691.186L1657.39,691.216L1657.56,691.245L1657.72,691.274L1657.89,691.302L1658.06,691.33L1658.22,691.358L1658.39,691.384L1658.56,691.411L1658.72,691.437L1658.89,691.462L1659.06,691.487L1659.22,691.511L1659.39,691.535L1659.56,691.558L1659.73,691.58L1659.89,691.603L1660.06,691.624L1660.23,691.645L1660.4,691.666L1660.57,691.686L1660.74,691.706L1660.9,691.725L1661.07,691.743L1661.24,691.761L1661.41,691.778L1661.58,691.795L1661.75,691.812L1661.92,691.828L1662.09,691.843L1662.26,691.858L1662.43,691.872L1662.6,691.886L1662.77,691.899L1662.94,691.912L1663.11,691.924L1663.28,691.935L1663.45,691.946L1663.62,691.957L1663.79,691.967L1663.96,691.976L1664.13,691.985L1664.3,691.994L1664.47,692.001L1664.64,692.009L1664.81,692.016L1664.98,692.022L1665.15,692.027L1665.33,692.033L1665.5,692.037L1665.67,692.041L1665.84,692.045L1666.01,692.048L1666.18,692.05L1666.36,692.052L1666.53,692.053L1666.7,692.054L1666.87,692.055L1667.04,692.054L1667.22,692.053L1667.39,692.052L1667.56,692.05L1667.73,692.048L1667.9,692.045L1668.08,692.041L1668.25,692.037L1668.42,692.032L1668.6,692.027L1668.77,692.021L1668.94,692.015L1669.12,692.008L1669.29,692.001L1669.46,691.993L1669.63,691.984L1669.81,691.975L1669.98,691.965L1670.16,691.955L1670.33,691.944L1670.5,691.933L1670.68,691.921L1670.84,691.909L1671,691.897L1671.16,691.885L1671.32,691.872L1671.48,691.858L1671.64,691.844L1671.8,691.83L1671.96,691.815L1672.12,691.8L1672.28,691.784L1672.44,691.767L1672.6,691.75L1672.76,691.733L1672.92,691.715L1673.08,691.697L1673.24,691.678L1673.4,691.659L1673.56,691.639L1673.72,691.619L1673.88,691.598L1674.04,691.577L1674.2,691.556L1674.36,691.534L1674.52,691.511L1674.67,691.488L1674.83,691.464L1674.99,691.44L1675.15,691.416L1675.31,691.391L1675.47,691.366L1675.62,691.34L1675.78,691.314L1675.94,691.287L1676.1,691.26L1676.25,691.232L1676.41,691.204L1676.57,691.175L1676.73,691.146L1676.88,691.116L1677.04,691.086L1677.2,691.056L1677.35,691.025L1677.51,690.993L1677.66,690.961L1677.82,690.929L1677.98,690.896L1678.13,690.863L1678.29,690.829L1678.44,690.795L1678.6,690.76L1678.76,690.725L1678.91,690.69L1679.07,690.654L1679.22,690.617L1679.37,690.58L1679.53,690.543L1679.68,690.505L1679.84,690.467L1679.99,690.428L1680.14,690.389L1680.3,690.349L1680.45,690.309L1680.61,690.268L1680.76,690.227L1680.91,690.186L1681.07,690.144L1681.22,690.101L1681.37,690.058L1681.52,690.015L1681.67,689.971L1681.83,689.927L1681.98,689.883L1682.13,689.837L1682.28,689.792L1682.43,689.746L1682.59,689.699L1682.74,689.653L1682.89,689.605L1683.04,689.557L1683.19,689.509L1683.34,689.461L1683.49,689.411L1683.64,689.362L1683.79,689.312L1683.94,689.261L1684.09,689.211L1684.24,689.159L1684.39,689.107L1684.54,689.055L1684.69,689.003L1684.84,688.949L1684.98,688.896L1685.13,688.842L1685.28,688.788L1685.43,688.733L1685.58,688.677L1685.72,688.622L1685.87,688.566L1686.02,688.509L1686.16,688.452L1686.31,688.394L1686.46,688.337L1686.61,688.278L1686.75,688.219L1686.9,688.16L1687.04,688.101L1687.19,688.04L1687.33,687.98L1687.48,687.919L1687.62,687.858L1687.77,687.796L1687.91,687.734L1688.06,687.671L1688.2,687.608L1688.35,687.544L1688.49,687.48L1688.63,687.416L1688.78,687.351L1688.92,687.286L1689.06,687.22L1689.21,687.154L1689.35,687.088L1689.49,687.021L1689.63,686.954L1689.78,686.886L1689.92,686.818L1690.06,686.749L1690.22,686.673L1690.22,686.672L1692.48,686.019L1694.77,685.836L1697.02,686.099L1699.16,686.781L1701.13,687.855L1702.88,689.296L1704.33,691.075L1705.43,693.163L1705.43,693.17L1706.09,695.436L1706.27,697.726L1706.01,699.973L1705.33,702.115L1704.26,704.09L1702.82,705.835L1701.04,707.288L1698.95,708.384L1698.95,708.386L1698.75,708.454L1698.54,708.527L1698.32,708.6L1698.11,708.672L1697.89,708.744L1697.67,708.815L1697.46,708.885L1697.24,708.955L1697.03,709.024L1696.81,709.092L1696.59,709.159L1696.38,709.226L1696.16,709.293L1695.94,709.358L1695.73,709.423L1695.51,709.487L1695.29,709.551L1695.07,709.614L1694.86,709.676L1694.64,709.737L1694.42,709.798L1694.2,709.859L1693.98,709.918L1693.77,709.977L1693.55,710.035L1693.33,710.093L1693.11,710.149L1692.89,710.206L1692.67,710.261L1692.45,710.316L1692.23,710.37L1692.02,710.424L1691.8,710.476L1691.58,710.529L1691.36,710.58L1691.14,710.631L1690.92,710.681L1690.7,710.73L1690.48,710.779L1690.26,710.827L1690.04,710.875L1689.82,710.922L1689.6,710.968L1689.38,711.013L1689.15,711.058L1688.93,711.102L1688.71,711.145L1688.49,711.188L1688.27,711.23L1688.05,711.272L1687.83,711.312L1687.61,711.352L1687.39,711.392L1687.17,711.431L1686.94,711.469L1686.72,711.506L1686.5,711.543L1686.28,711.579L1686.06,711.614L1685.84,711.649L1685.62,711.683L1685.39,711.716L1685.17,711.749L1684.95,711.781L1684.73,711.812L1684.5,711.843L1684.28,711.873L1684.06,711.902L1683.84,711.931L1683.62,711.959L1683.39,711.986L1683.17,712.013L1682.95,712.039L1682.73,712.064L1682.5,712.089L1682.28,712.113L1682.06,712.136L1681.83,712.158L1681.61,712.18L1681.39,712.202L1681.17,712.222L1680.94,712.242L1680.72,712.261L1680.5,712.28L1680.27,712.298L1680.05,712.315L1679.83,712.332L1679.61,712.348L1679.38,712.363L1679.16,712.377L1678.94,712.391L1678.71,712.404L1678.49,712.417L1678.27,712.429L1678.04,712.44L1677.82,712.45L1677.6,712.46L1677.37,712.469L1677.15,712.478L1676.93,712.486L1676.7,712.493L1676.48,712.499L1676.26,712.505L1676.03,712.51L1675.81,712.515L1675.59,712.519L1675.36,712.522L1675.14,712.524L1674.92,712.526L1674.69,712.527L1674.47,712.527L1674.25,712.527Z" style="fill:white;"/>
        </g>
    </g>
</svg>
