<?xml version="1.0" encoding="UTF-8" standalone="no"?>
<!DOCTYPE svg PUBLIC "-//W3C//DTD SVG 1.1//EN" "http://www.w3.org/Graphics/SVG/1.1/DTD/svg11.dtd">
<svg width="100%" height="100%" viewBox="0 0 512 512" version="1.1" xmlns="http://www.w3.org/2000/svg" xmlns:xlink="http://www.w3.org/1999/xlink" xml:space="preserve" xmlns:serif="http://www.serif.com/" style="fill-rule:evenodd;clip-rule:evenodd;stroke-linejoin:round;stroke-miterlimit:2;">
    <g id="SuitcaseIcon" transform="matrix(9.11076,0,0,9.00292,-1898.31,-2908.94)">
        <path d="M216.36,374.205L213.654,374.205C211.583,374.205 209.902,372.524 209.902,370.453L209.902,342.954C209.902,340.883 211.583,339.202 213.654,339.202L216.36,339.202L216.36,374.205ZM225.67,339.202L225.67,331.354C225.67,329.992 226.776,328.886 228.139,328.886L244.777,328.886C246.139,328.886 247.245,329.992 247.245,331.354L247.245,339.202L252.319,339.202L252.319,374.205L220.596,374.205L220.596,339.202L225.67,339.202ZM259.262,374.205L256.555,374.205L256.555,339.202L259.262,339.202C261.332,339.202 263.014,340.883 263.014,342.954L263.014,370.453C263.014,372.523 261.332,374.205 259.262,374.205ZM243.253,332.282L229.662,332.282C229.278,332.282 228.967,332.593 228.967,332.977L228.967,339.202L243.948,339.202L243.948,332.977C243.948,332.593 243.637,332.282 243.253,332.282Z" style="fill:white;"/>
    </g>
</svg>
