<?xml version="1.0" encoding="UTF-8" standalone="no"?>
<!DOCTYPE svg PUBLIC "-//W3C//DTD SVG 1.1//EN" "http://www.w3.org/Graphics/SVG/1.1/DTD/svg11.dtd">
<svg width="100%" height="100%" viewBox="0 0 512 512" version="1.1" xmlns="http://www.w3.org/2000/svg" xmlns:xlink="http://www.w3.org/1999/xlink" xml:space="preserve" xmlns:serif="http://www.serif.com/" style="fill-rule:evenodd;clip-rule:evenodd;stroke-linejoin:round;stroke-miterlimit:2;">
    <g id="SunIcon" transform="matrix(6.80675,0,0,6.80675,-11770.2,-3725.89)">
        <path d="M1769.88,610.168C1769.88,608.282 1768.35,606.752 1766.46,606.752C1764.57,606.752 1763.04,608.282 1763.04,610.168L1763.04,615.907C1763.04,617.792 1764.57,619.323 1766.46,619.323C1768.35,619.323 1769.88,617.792 1769.88,615.907L1769.88,610.168ZM1751.27,605.4C1752.6,604.082 1752.6,601.943 1751.27,600.626C1749.93,599.309 1747.77,599.309 1746.44,600.626L1742.27,604.741C1740.94,606.059 1740.94,608.198 1742.27,609.515C1743.61,610.832 1745.77,610.832 1747.1,609.515L1751.27,605.4ZM1782.35,605.4C1781.02,604.082 1781.02,601.943 1782.35,600.626C1783.68,599.309 1785.85,599.309 1787.18,600.626L1791.35,604.741C1792.68,606.059 1792.68,608.198 1791.35,609.515C1790.01,610.832 1787.85,610.832 1786.52,609.515L1782.35,605.4ZM1766.34,568.309C1775.88,568.309 1783.63,575.965 1783.63,585.394C1783.63,594.823 1775.88,602.479 1766.34,602.479C1756.8,602.479 1749.05,594.823 1749.05,585.394C1749.05,575.965 1756.8,568.309 1766.34,568.309ZM1740.65,582.018C1742.52,582.018 1744.03,583.531 1744.03,585.394C1744.03,587.257 1742.52,588.769 1740.65,588.769L1734.68,588.769C1732.82,588.769 1731.31,587.257 1731.31,585.394C1731.31,583.531 1732.82,582.018 1734.68,582.018L1740.65,582.018ZM1798.94,588.769L1792.97,588.769C1791.1,588.769 1789.59,587.257 1789.59,585.394C1789.59,583.531 1791.1,582.018 1792.97,582.018L1798.94,582.018C1800.8,582.018 1802.31,583.531 1802.31,585.394C1802.31,587.257 1800.8,588.769 1798.94,588.769ZM1745.52,569.592C1746.85,570.91 1749.02,570.91 1750.35,569.593C1751.68,568.275 1751.68,566.136 1750.35,564.819L1746.19,560.704C1744.85,559.386 1742.69,559.386 1741.36,560.704C1740.02,562.021 1740.02,564.16 1741.36,565.477L1745.52,569.592ZM1788.1,569.592C1786.77,570.91 1784.6,570.91 1783.27,569.593C1781.93,568.275 1781.93,566.136 1783.27,564.819L1787.43,560.704C1788.77,559.386 1790.93,559.386 1792.26,560.704C1793.6,562.021 1793.6,564.16 1792.26,565.477L1788.1,569.592ZM1769.88,554.077C1769.88,552.192 1768.35,550.661 1766.46,550.661C1764.57,550.661 1763.04,552.192 1763.04,554.077L1763.04,559.816C1763.04,561.701 1764.57,563.232 1766.46,563.232C1768.35,563.232 1769.88,561.701 1769.88,559.816L1769.88,554.077Z" style="fill:white;"/>
    </g>
</svg>
