<?xml version="1.0" encoding="UTF-8" standalone="no"?>
<!DOCTYPE svg PUBLIC "-//W3C//DTD SVG 1.1//EN" "http://www.w3.org/Graphics/SVG/1.1/DTD/svg11.dtd">
<svg width="100%" height="100%" viewBox="0 0 512 512" version="1.1" xmlns="http://www.w3.org/2000/svg" xmlns:xlink="http://www.w3.org/1999/xlink" xml:space="preserve" xmlns:serif="http://www.serif.com/" style="fill-rule:evenodd;clip-rule:evenodd;stroke-linejoin:round;stroke-miterlimit:2;">
    <g id="SunSignIcon" transform="matrix(4.33983e-16,3.72481,-3.72481,1.05697e-15,5212.34,-3815.41)">
        <path d="M1103.93,1287.37C1120.21,1291.14 1133.04,1303.97 1136.82,1320.25L1157.58,1329.36L1157.57,1330.63L1136.61,1341.11C1132.61,1356.82 1120.15,1369.16 1104.38,1373L1093.05,1395.66L1081.43,1372.43C1067.01,1368.15 1055.67,1356.67 1051.59,1342.16L1028.52,1330.63L1028.69,1328.91L1051.34,1319.22C1055.24,1304.13 1066.95,1292.16 1081.89,1287.9L1093.05,1265.6L1103.93,1287.37ZM1069.91,1387.51L1080.72,1376.36L1080.69,1375.01L1067.5,1370.87L1067.48,1372.17L1069.91,1387.51ZM1117.52,1387.51L1106.7,1376.36L1106.74,1375L1119.8,1370.79L1119.94,1372.17L1117.52,1387.51ZM1137.45,1375.19L1122.75,1370.19L1122.86,1368.8L1132.63,1360.43L1137.34,1373.09L1137.45,1375.19ZM1049.97,1375.19L1064.68,1370.19L1064.61,1368.79L1054.8,1360.43L1050.04,1373.55L1049.97,1375.19ZM1093.96,1294.63C1113.61,1294.63 1129.56,1310.58 1129.56,1330.23C1129.56,1349.88 1113.61,1365.84 1093.96,1365.84C1074.31,1365.84 1058.35,1349.88 1058.35,1330.23C1058.35,1310.58 1074.31,1294.63 1093.96,1294.63ZM1151.06,1356.03L1135.61,1357.52L1135.71,1355.76L1140.59,1344.56L1150.97,1354.07L1151.06,1356.03ZM1036.37,1356.03L1051.82,1357.52L1051.64,1355.07L1046.84,1344.56L1036.51,1353.97L1036.37,1356.03ZM1093.96,1303.81C1108.54,1303.81 1120.38,1315.65 1120.38,1330.23C1120.38,1344.82 1108.54,1356.66 1093.96,1356.66C1079.37,1356.66 1067.53,1344.82 1067.53,1330.23C1067.53,1315.65 1079.37,1303.81 1093.96,1303.81ZM1093.96,1315.02C1103.43,1315.02 1109.17,1322.94 1109.17,1330.23C1109.17,1337.53 1101.25,1345.44 1093.96,1345.44C1086.66,1345.44 1078.75,1337.53 1078.75,1330.23C1078.75,1322.94 1084.41,1315.02 1093.96,1315.02ZM1093.68,1321.92C1098.28,1321.92 1102.02,1325.65 1102.02,1330.25C1102.02,1334.85 1098.28,1338.58 1093.68,1338.58C1089.09,1338.58 1085.35,1334.85 1085.35,1330.25C1085.35,1325.65 1089.09,1321.92 1093.68,1321.92ZM1036.73,1307.72L1047.77,1318.65L1052.09,1305.45L1052.02,1304.16L1036.86,1306.27L1036.73,1307.72ZM1150.7,1307.72L1139.66,1318.65L1135.34,1305.45L1135.43,1304.11L1150.59,1306.48L1150.7,1307.72ZM1138.18,1287.91L1133.33,1302.66L1123.46,1292.88L1123.59,1291.59L1138.18,1287.91ZM1049.25,1287.91L1054.1,1302.66L1063.96,1292.88L1063.91,1291.52L1049.36,1286.85L1049.25,1287.91ZM1118.88,1274.5L1120.53,1289.94L1107.52,1285.08L1107.66,1283.61L1118.88,1274.5ZM1068.55,1274.5L1067,1287.72L1066.89,1289.94L1079.91,1285.08L1079.81,1283.56L1068.55,1274.5Z" style="fill:white;"/>
    </g>
</svg>
