<?xml version="1.0" encoding="UTF-8" standalone="no"?>
<!DOCTYPE svg PUBLIC "-//W3C//DTD SVG 1.1//EN" "http://www.w3.org/Graphics/SVG/1.1/DTD/svg11.dtd">
<svg width="100%" height="100%" viewBox="0 0 512 512" version="1.1" xmlns="http://www.w3.org/2000/svg" xmlns:xlink="http://www.w3.org/1999/xlink" xml:space="preserve" xmlns:serif="http://www.serif.com/" style="fill-rule:evenodd;clip-rule:evenodd;stroke-linejoin:round;stroke-miterlimit:2;">
    <g id="SwordSquareIcon" transform="matrix(2.66998e-16,3.70817,-3.519,0,7356.51,-17509.6)">
        <g transform="matrix(0,-1.5893,1.50822,1.14433e-16,-1641.7,17105.5)">
            <path d="M9535.55,4255.19C9536.74,4255.19 9537.37,4256.02 9536.95,4257.04L9530.34,4273.06C9529.93,4274.08 9528.61,4274.91 9527.42,4274.91L9473.69,4274.91L9477.3,4266.15L9521,4266.15C9521.3,4266.15 9521.55,4265.9 9521.55,4265.6L9521.55,4264.5C9521.55,4264.2 9521.3,4263.95 9521,4263.95L9473.9,4263.95L9477.51,4255.19L9535.55,4255.19Z" style="fill:white;"/>
        </g>
        <g transform="matrix(0.79525,-2.60312e-19,1.40446e-18,0.86217,4204.36,-1777.33)">
            <rect x="728.424" y="4447.01" width="18.332" height="22.372" style="fill:white;"/>
        </g>
        <g transform="matrix(0.866877,0,0,0.965803,4151.56,-2237.77)">
            <path d="M749.186,4464.14L725.914,4464.14L725.914,4467.16C725.914,4473.23 731.128,4478.17 737.55,4478.17C743.972,4478.17 749.186,4473.23 749.186,4467.16L749.186,4464.14Z" style="fill:white;"/>
        </g>
        <g transform="matrix(0.953673,-1.17549e-32,0,1.05723,4087.29,-2649.83)">
            <path d="M758.649,4448.58C759.332,4448.58 759.939,4448.17 760.161,4447.55C760.906,4445.49 762.599,4439.84 763.572,4437.14C763.74,4436.68 763.661,4436.17 763.361,4435.77C763.061,4435.37 762.577,4435.13 762.061,4435.13C753.413,4435.13 722.22,4435.13 713.571,4435.13C713.055,4435.13 712.571,4435.37 712.271,4435.77C711.971,4436.17 711.892,4436.68 712.06,4437.14C713.033,4439.84 714.726,4445.49 715.471,4447.55C715.693,4448.17 716.3,4448.58 716.983,4448.58C723.153,4448.58 752.479,4448.58 758.649,4448.58Z" style="fill:white;"/>
        </g>
    </g>
</svg>
