<?xml version="1.0" encoding="UTF-8" standalone="no"?>
<!DOCTYPE svg PUBLIC "-//W3C//DTD SVG 1.1//EN" "http://www.w3.org/Graphics/SVG/1.1/DTD/svg11.dtd">
<svg width="100%" height="100%" viewBox="0 0 512 512" version="1.1" xmlns="http://www.w3.org/2000/svg" xmlns:xlink="http://www.w3.org/1999/xlink" xml:space="preserve" xmlns:serif="http://www.serif.com/" style="fill-rule:evenodd;clip-rule:evenodd;stroke-linejoin:round;stroke-miterlimit:2;">
    <g id="SwordIcon" transform="matrix(3.76415e-16,6.14732,-5.57145,-8.94292e-15,4322.63,-9406.43)">
        <g transform="matrix(1.23107,1.87003e-34,-2.25242e-15,3.37349,-890.975,-1299)">
            <path d="M2006.07,608.132L1995.54,608.132L1995.54,613.905C1995.54,614.257 1996.25,614.542 1997.12,614.542L2004.49,614.542C2005.37,614.542 2006.07,614.257 2006.07,613.905L2006.07,608.132Z" style="fill:white;"/>
        </g>
        <g transform="matrix(-1.4426e-15,-0.991638,0.898744,6.07203e-17,-1438.51,10877.9)">
            <path d="M10222.3,3348.48L10222.3,3340.26C10222.3,3339.56 10222.6,3338.89 10223,3338.42C10223.5,3337.95 10224.1,3337.72 10224.8,3337.78C10228,3338.12 10233.4,3338.69 10235.2,3338.89C10235.7,3338.93 10236.1,3339.12 10236.5,3339.43C10237,3339.95 10238,3340.78 10238.5,3341.3C10238.9,3341.61 10239.3,3341.8 10239.7,3341.84C10243.5,3342.24 10261.6,3344.14 10263.8,3344.38C10264,3344.39 10264.1,3344.43 10264.3,3344.48C10265.8,3344.98 10274.1,3347.87 10277.8,3349.13C10278,3349.21 10278.2,3349.45 10278.2,3349.72C10278.2,3349.99 10278,3350.23 10277.8,3350.32C10274.1,3351.57 10265.8,3354.44 10264.3,3354.94C10264.1,3354.99 10264,3355.02 10263.8,3355.04C10261.6,3355.28 10243.5,3357.18 10239.7,3357.57C10239.3,3357.62 10238.9,3357.81 10238.5,3358.12C10238,3358.64 10237,3359.46 10236.5,3359.98C10236.1,3360.29 10235.7,3360.48 10235.2,3360.53C10233.4,3360.73 10228,3361.29 10224.8,3361.63C10224.1,3361.7 10223.5,3361.47 10223,3361C10222.6,3360.53 10222.3,3359.86 10222.3,3359.16L10222.3,3350.93L10255.6,3350.93C10256.2,3350.93 10256.8,3350.38 10256.8,3349.71C10256.8,3349.03 10256.2,3348.48 10255.6,3348.48L10222.3,3348.48Z" style="fill:white;"/>
        </g>
        <g transform="matrix(3.2074,-2.87184e-17,2.7032e-16,1.80931,-4845.57,-355.641)">
            <path d="M2006.07,609.093C2006.07,608.562 2005.85,608.132 2005.58,608.132L1996.03,608.132C1995.76,608.132 1995.54,608.562 1995.54,609.093L1995.54,613.58C1995.54,614.111 1995.76,614.542 1996.03,614.542L2005.58,614.542C2005.85,614.542 2006.07,614.111 2006.07,613.58L2006.07,609.093Z" style="fill:white;"/>
        </g>
    </g>
</svg>
