<?xml version="1.0" encoding="UTF-8" standalone="no"?>
<!DOCTYPE svg PUBLIC "-//W3C//DTD SVG 1.1//EN" "http://www.w3.org/Graphics/SVG/1.1/DTD/svg11.dtd">
<svg width="100%" height="100%" viewBox="0 0 512 512" version="1.1" xmlns="http://www.w3.org/2000/svg" xmlns:xlink="http://www.w3.org/1999/xlink" xml:space="preserve" xmlns:serif="http://www.serif.com/" style="fill-rule:evenodd;clip-rule:evenodd;stroke-linejoin:round;stroke-miterlimit:2;">
    <g id="SwordIcon" transform="matrix(6.47057,0,0,6.47057,-5049.15,-689.933)">
        <path d="M857.587,146.19L857.592,146.192L841.467,151.679L807.929,150.844C807.433,151.456 807.304,155.544 807.937,156.395C808.845,157.616 810.24,157.784 810.108,158.821C809.824,161.032 803.873,161.305 803.223,158.821C802.936,157.725 805.15,157.273 805.38,156.537C805.61,155.801 805.473,151.833 805.38,151.125C805.025,148.431 803.257,148.74 802.993,148.904L802.407,149.342L801.822,148.904C801.498,148.886 801.177,148.889 800.857,148.904L800.272,149.342L799.686,148.904C799.363,148.886 799.041,148.889 798.721,148.904L798.136,149.342L797.551,148.904C797.227,148.886 796.906,148.889 796.586,148.904L796.001,149.342L795.415,148.904C795.092,148.886 794.77,148.889 794.45,148.904L793.865,149.342L793.28,148.904C792.956,148.886 792.635,148.889 792.315,148.904L791.73,149.342L791.144,148.904C790.821,148.886 790.499,148.889 790.179,148.904L789.811,149.18C789.722,149.523 789.445,149.773 789.118,149.773C788.752,149.773 788.449,149.459 788.402,149.052C788.345,149.074 788.285,149.086 788.222,149.086C788.122,149.086 788.029,149.056 787.947,149.005C787.557,150.62 787.075,152.488 786.915,152.587C785.817,153.269 782.186,148.513 782.188,146.509C782.188,146.409 782.197,146.302 782.215,146.19C782.197,146.078 782.188,145.971 782.188,145.871C782.186,143.867 785.817,139.111 786.915,139.793C787.075,139.893 787.557,141.76 787.947,143.375C788.029,143.324 788.122,143.295 788.222,143.295C788.285,143.295 788.345,143.306 788.402,143.328C788.449,142.921 788.752,142.607 789.118,142.607C789.445,142.607 789.722,142.857 789.811,143.2L790.179,143.476C790.499,143.491 790.821,143.494 791.144,143.476L791.73,143.038L792.315,143.476C792.635,143.491 792.956,143.494 793.28,143.476L793.865,143.038L794.45,143.476C794.77,143.491 795.092,143.494 795.415,143.476L796.001,143.038L796.586,143.476C796.906,143.491 797.227,143.494 797.551,143.476L798.136,143.038L798.721,143.476C799.041,143.491 799.363,143.494 799.686,143.476L800.272,143.038L800.857,143.476C801.177,143.491 801.498,143.494 801.822,143.476L802.407,143.038L802.993,143.476C803.257,143.64 805.025,143.949 805.38,141.255C805.473,140.547 805.61,136.579 805.38,135.843C805.15,135.107 802.936,134.655 803.223,133.56C803.873,131.075 809.824,131.348 810.108,133.56C810.24,134.596 808.845,134.764 807.937,135.985C807.304,136.836 807.433,140.924 807.929,141.536L841.467,140.701L857.592,146.188L857.587,146.19ZM807.869,159.186C807.943,158.636 806.964,157.492 806.601,157.529C806.204,157.57 805.327,158.613 805.375,159.093C805.43,159.655 807.786,159.809 807.869,159.186ZM783.591,146.336C783.591,147.305 784.138,147.77 784.71,147.773C785.249,147.776 785.794,146.847 785.903,146.336L785.891,146.336C785.899,146.325 785.906,146.312 785.911,146.296C785.917,146.258 785.921,146.222 785.922,146.19C785.921,146.158 785.917,146.122 785.911,146.084C785.906,146.068 785.899,146.055 785.891,146.045L785.903,146.045C785.794,145.533 785.249,144.604 784.71,144.607C784.138,144.61 783.591,145.075 783.591,146.045L783.606,146.045C783.601,146.094 783.598,146.143 783.595,146.19C783.598,146.238 783.601,146.286 783.606,146.336L783.591,146.336ZM827.654,145.499L845.68,146.19L827.654,146.881L809.628,146.19L827.654,145.499ZM807.869,133.194C807.943,133.744 806.964,134.888 806.601,134.851C806.204,134.81 805.327,133.767 805.375,133.287C805.43,132.725 807.786,132.571 807.869,133.194Z" style="fill:white;"/>
    </g>
</svg>
