<?xml version="1.0" encoding="UTF-8" standalone="no"?>
<!DOCTYPE svg PUBLIC "-//W3C//DTD SVG 1.1//EN" "http://www.w3.org/Graphics/SVG/1.1/DTD/svg11.dtd">
<svg width="100%" height="100%" viewBox="0 0 512 512" version="1.1" xmlns="http://www.w3.org/2000/svg" xmlns:xlink="http://www.w3.org/1999/xlink" xml:space="preserve" xmlns:serif="http://www.serif.com/" style="fill-rule:evenodd;clip-rule:evenodd;stroke-linejoin:round;stroke-miterlimit:2;">
    <g id="TankIcon" transform="matrix(5.09638,0,0,4.83639,-25345,-7049.72)">
        <g transform="matrix(0.957992,0,0,0.708774,3705.64,-1586.63)">
            <rect x="1354.75" y="4373.31" width="54.489" height="13.845" style="fill:white;"/>
        </g>
        <g transform="matrix(0.957992,0,0,0.899473,3706.13,-2421.84)">
            <rect x="1377.53" y="4353.55" width="25.519" height="8.644" style="fill:white;"/>
        </g>
        <g transform="matrix(0.890617,0,0,0.938494,3466.05,1074.77)">
            <path d="M1781.59,447.915L1748.48,447.915C1748.75,439.008 1756.06,431.86 1765.04,431.86C1774.01,431.86 1781.32,439.008 1781.59,447.915ZM1779.49,444.652C1777.98,439.561 1774.06,435.504 1769.04,433.787L1769.04,439.632C1769.04,442.403 1771.29,444.652 1774.06,444.652L1779.49,444.652Z" style="fill:white;"/>
        </g>
        <g transform="matrix(0.925349,0.261275,-0.247946,0.975093,4835.57,-3112.46)">
            <path d="M1378.11,4348.15C1378.11,4346.99 1377.17,4346.05 1376.01,4346.05L1337.31,4346.05C1336.15,4346.05 1335.21,4346.99 1335.21,4348.15C1335.21,4349.3 1336.15,4350.24 1337.31,4350.24L1376.01,4350.24C1377.17,4350.24 1378.11,4349.3 1378.11,4348.15Z" style="fill:white;"/>
        </g>
        <g transform="matrix(0.890617,0,0,0.938494,3466.05,1076.47)">
            <path d="M1788.37,474.829C1795.55,474.829 1801.38,480.658 1801.38,487.838C1801.38,495.018 1795.55,500.847 1788.37,500.847L1708.82,500.847C1701.64,500.847 1695.81,495.018 1695.81,487.838C1695.81,480.658 1701.64,474.829 1708.82,474.829L1788.37,474.829ZM1788.68,480.369C1792.81,480.369 1796.15,483.716 1796.15,487.838C1796.15,491.96 1792.81,495.307 1788.68,495.307C1784.56,495.307 1781.22,491.96 1781.22,487.838C1781.22,483.716 1784.56,480.369 1788.68,480.369ZM1735.43,480.369C1739.56,480.369 1742.9,483.716 1742.9,487.838C1742.9,491.96 1739.56,495.307 1735.43,495.307C1731.31,495.307 1727.97,491.96 1727.97,487.838C1727.97,483.716 1731.31,480.369 1735.43,480.369ZM1708.81,480.369C1712.93,480.369 1716.28,483.716 1716.28,487.838C1716.28,491.96 1712.93,495.307 1708.81,495.307C1704.69,495.307 1701.34,491.96 1701.34,487.838C1701.34,483.716 1704.69,480.369 1708.81,480.369ZM1762.06,480.369C1766.18,480.369 1769.53,483.716 1769.53,487.838C1769.53,491.96 1766.18,495.307 1762.06,495.307C1757.94,495.307 1754.59,491.96 1754.59,487.838C1754.59,483.716 1757.94,480.369 1762.06,480.369Z" style="fill:white;"/>
        </g>
        <g transform="matrix(0.890617,0,0,0.938494,3466.05,1074.71)">
            <path d="M1780.62,452.125C1786.28,452.125 1790.87,456.718 1790.87,462.375L1790.87,471.917C1790.87,472.271 1790.59,472.558 1790.23,472.558L1720.65,472.558C1715.63,472.558 1711.55,468.483 1711.55,463.464C1711.55,457.206 1716.63,452.125 1722.89,452.125L1780.62,452.125ZM1726.98,458.197C1726.35,457.832 1725.54,458.049 1725.18,458.681L1721.71,464.681C1721.35,465.313 1721.57,466.122 1722.2,466.486C1722.83,466.851 1723.64,466.634 1724,466.003L1727.47,460.002C1727.83,459.371 1727.62,458.562 1726.98,458.197ZM1732.41,458.197C1731.78,457.832 1730.97,458.049 1730.61,458.681L1727.14,464.681C1726.78,465.313 1727,466.122 1727.63,466.486C1728.26,466.851 1729.07,466.634 1729.43,466.003L1732.9,460.002C1733.26,459.371 1733.05,458.562 1732.41,458.197ZM1737.85,458.197C1737.21,457.832 1736.4,458.049 1736.04,458.681L1732.58,464.681C1732.21,465.313 1732.43,466.122 1733.06,466.486C1733.69,466.851 1734.5,466.634 1734.87,466.003L1738.33,460.002C1738.69,459.371 1738.48,458.562 1737.85,458.197ZM1743.28,458.197C1742.64,457.832 1741.84,458.049 1741.47,458.681L1738.01,464.681C1737.64,465.313 1737.86,466.122 1738.49,466.486C1739.12,466.851 1739.93,466.634 1740.3,466.003L1743.76,460.002C1744.12,459.371 1743.91,458.562 1743.28,458.197Z" style="fill:white;"/>
        </g>
    </g>
</svg>
