<?xml version="1.0" encoding="UTF-8" standalone="no"?>
<!DOCTYPE svg PUBLIC "-//W3C//DTD SVG 1.1//EN" "http://www.w3.org/Graphics/SVG/1.1/DTD/svg11.dtd">
<svg width="100%" height="100%" viewBox="0 0 512 512" version="1.1" xmlns="http://www.w3.org/2000/svg" xmlns:xlink="http://www.w3.org/1999/xlink" xml:space="preserve" xmlns:serif="http://www.serif.com/" style="fill-rule:evenodd;clip-rule:evenodd;stroke-linejoin:round;stroke-miterlimit:2;">
    <g id="TargetIcon" transform="matrix(7.16489,0,0,7.16489,-3344.92,-5326.71)">
        <path d="M502.579,746.086C521.061,746.086 536.065,760.913 536.065,779.176C536.065,797.439 521.061,812.266 502.579,812.266C484.097,812.266 469.092,797.439 469.092,779.176C469.092,760.913 484.097,746.086 502.579,746.086ZM502.579,751.049C518.288,751.049 531.042,763.653 531.042,779.176C531.042,794.7 518.288,807.303 502.579,807.303C486.869,807.303 474.115,794.7 474.115,779.176C474.115,763.653 486.869,751.049 502.579,751.049ZM502.579,760.476C513.023,760.476 521.503,768.855 521.503,779.176C521.503,789.497 513.023,797.876 502.579,797.876C492.134,797.876 483.655,789.497 483.655,779.176C483.655,768.855 492.134,760.476 502.579,760.476ZM502.579,765.151C510.412,765.151 516.772,771.436 516.772,779.176C516.772,786.917 510.412,793.201 502.579,793.201C494.745,793.201 488.386,786.917 488.386,779.176C488.386,771.436 494.745,765.151 502.579,765.151ZM502.579,773.607C505.689,773.607 508.214,776.103 508.214,779.176C508.214,782.25 505.689,784.745 502.579,784.745C499.469,784.745 496.943,782.25 496.943,779.176C496.943,776.103 499.469,773.607 502.579,773.607Z" style="fill:white;"/>
    </g>
</svg>
