<?xml version="1.0" encoding="UTF-8" standalone="no"?>
<!DOCTYPE svg PUBLIC "-//W3C//DTD SVG 1.1//EN" "http://www.w3.org/Graphics/SVG/1.1/DTD/svg11.dtd">
<svg width="100%" height="100%" viewBox="0 0 512 512" version="1.1" xmlns="http://www.w3.org/2000/svg" xmlns:xlink="http://www.w3.org/1999/xlink" xml:space="preserve" xmlns:serif="http://www.serif.com/" style="fill-rule:evenodd;clip-rule:evenodd;stroke-linejoin:round;stroke-miterlimit:2;">
    <g id="TemperatureIcon" transform="matrix(2.20502,0,0,2.20502,-3867.62,-1633.58)">
        <g transform="matrix(1.12669,0,0,0.723196,-234.092,530.805)">
            <path d="M1908.76,356.706C1908.76,354.179 1907.44,352.127 1905.82,352.127L1885.68,352.127C1884.06,352.127 1882.74,354.179 1882.74,356.706L1882.74,365.865C1882.74,368.393 1884.06,370.445 1885.68,370.445L1905.82,370.445C1907.44,370.445 1908.76,368.393 1908.76,365.865L1908.76,356.706Z" style="fill:white;"/>
        </g>
        <g transform="matrix(1.12669,0,0,0.723196,-234.092,552.899)">
            <path d="M1908.76,356.706C1908.76,354.179 1907.44,352.127 1905.82,352.127L1885.68,352.127C1884.06,352.127 1882.74,354.179 1882.74,356.706L1882.74,365.865C1882.74,368.393 1884.06,370.445 1885.68,370.445L1905.82,370.445C1907.44,370.445 1908.76,368.393 1908.76,365.865L1908.76,356.706Z" style="fill:white;"/>
        </g>
        <path d="M1852.81,884.971C1839.85,891.364 1830.93,904.71 1830.93,920.124C1830.93,941.744 1848.48,959.297 1870.1,959.297C1891.72,959.297 1909.28,941.744 1909.28,920.124C1909.28,904.71 1900.35,891.364 1887.4,884.971L1887.4,874.692C1905.69,881.669 1918.71,899.389 1918.71,920.124C1918.71,946.949 1896.93,968.728 1870.1,968.728C1843.28,968.728 1821.5,946.949 1821.5,920.124C1821.5,899.389 1834.51,881.669 1852.81,874.692L1852.81,884.971Z" style="fill:white;"/>
        <path d="M1843.75,884.395L1843.75,758.335C1843.75,751.063 1849.65,745.159 1856.93,745.159L1883.28,745.159C1890.55,745.159 1896.45,751.063 1896.45,758.335L1896.45,884.395L1887.4,884.395L1887.4,761.186C1887.4,757.368 1884.3,754.268 1880.48,754.268L1859.73,754.268C1855.91,754.268 1852.81,757.368 1852.81,761.186L1852.81,884.395L1843.75,884.395Z" style="fill:white;"/>
        <g transform="matrix(0.268738,0,0,0.586437,1368.46,646.074)">
            <path d="M1891.19,320.291C1891.19,317.81 1886.79,315.797 1881.38,315.797L1851.96,315.797C1846.54,315.797 1842.15,317.81 1842.15,320.291L1842.15,450.943C1842.15,453.423 1846.54,455.437 1851.96,455.437L1881.38,455.437C1886.79,455.437 1891.19,453.423 1891.19,450.943L1891.19,320.291Z" style="fill:white;"/>
        </g>
        <g transform="matrix(0.792518,0,0,0.792518,394.928,537.255)">
            <circle cx="1861.38" cy="483.104" r="36.086" style="fill:white;"/>
        </g>
    </g>
</svg>
