<?xml version="1.0" encoding="UTF-8" standalone="no"?>
<!DOCTYPE svg PUBLIC "-//W3C//DTD SVG 1.1//EN" "http://www.w3.org/Graphics/SVG/1.1/DTD/svg11.dtd">
<svg width="100%" height="100%" viewBox="0 0 512 512" version="1.1" xmlns="http://www.w3.org/2000/svg" xmlns:xlink="http://www.w3.org/1999/xlink" xml:space="preserve" xmlns:serif="http://www.serif.com/" style="fill-rule:evenodd;clip-rule:evenodd;stroke-linejoin:round;stroke-miterlimit:2;">
    <g transform="matrix(0.346229,0,0,0.328231,29.133,13.5254)">
        <g transform="matrix(32.955,0,0,34.762,-14837,-20250.9)">
            <g id="TickeiOutlineIcon">
                <g>
                    <path d="M448.897,597.514C448.897,597.955 449.185,598.343 449.606,598.471C452.287,599.284 454.239,601.776 454.239,604.721C454.239,607.665 452.287,610.157 449.606,610.97C449.185,611.098 448.897,611.487 448.897,611.927L448.897,615.131C448.897,617.522 450.838,619.463 453.229,619.463L486.976,619.463C489.367,619.463 491.308,617.522 491.308,615.131C491.308,615.131 491.308,611.927 491.308,611.927C491.308,611.487 491.02,611.098 490.599,610.97C487.918,610.157 485.966,607.665 485.966,604.721C485.966,601.776 487.918,599.284 490.599,598.471C491.02,598.343 491.308,597.955 491.308,597.514L491.308,592.489C491.308,590.098 489.367,588.156 486.976,588.156C486.976,588.156 453.229,588.156 453.229,588.156C450.838,588.156 448.897,590.098 448.897,592.489C448.897,592.489 448.897,597.514 448.897,597.514ZM489.308,596.808L489.308,592.489C489.308,591.201 488.263,590.156 486.976,590.156L453.229,590.156C451.942,590.156 450.897,591.201 450.897,592.489L450.897,596.808C454.028,598.071 456.239,601.14 456.239,604.721C456.239,608.302 454.028,611.37 450.897,612.634L450.897,615.131C450.897,616.418 451.942,617.463 453.229,617.463C453.229,617.463 486.976,617.463 486.976,617.463C488.263,617.463 489.308,616.418 489.308,615.131L489.308,612.634C486.177,611.37 483.966,608.302 483.966,604.721C483.966,601.14 486.177,598.071 489.308,596.808Z" style="fill:white;"/>
                    <g transform="matrix(1,0,0,1,0,-0.488636)">
                        <g transform="matrix(1.30758,0,0,1.30758,-141.285,-182.21)">
                            <circle cx="460.608" cy="593.956" r="1.209" style="fill:white;"/>
                        </g>
                        <g transform="matrix(1.30758,0,0,1.30758,-141.285,-175.633)">
                            <circle cx="460.608" cy="593.956" r="1.209" style="fill:white;"/>
                        </g>
                        <g transform="matrix(1.30758,0,0,1.30758,-141.285,-169.056)">
                            <circle cx="460.608" cy="593.956" r="1.209" style="fill:white;"/>
                        </g>
                        <g transform="matrix(1.30758,0,0,1.30758,-141.285,-162.479)">
                            <circle cx="460.608" cy="593.956" r="1.209" style="fill:white;"/>
                        </g>
                    </g>
                    <g transform="matrix(1,0,0,1,0,-0.821166)">
                        <path d="M480.579,598.595C480.579,597.943 480.05,597.414 479.398,597.414L467.701,597.414C467.049,597.414 466.52,597.943 466.52,598.595C466.52,599.247 467.049,599.776 467.701,599.776L479.398,599.776C480.05,599.776 480.579,599.247 480.579,598.595Z" style="fill:white;"/>
                        <g transform="matrix(1,0,0,1,0,6.03573)">
                            <path d="M480.579,598.595C480.579,597.943 480.05,597.414 479.398,597.414L467.701,597.414C467.049,597.414 466.52,597.943 466.52,598.595C466.52,599.247 467.049,599.776 467.701,599.776L479.398,599.776C480.05,599.776 480.579,599.247 480.579,598.595Z" style="fill:white;"/>
                        </g>
                        <g transform="matrix(1,0,0,1,0,12.0715)">
                            <path d="M480.579,598.595C480.579,597.943 480.05,597.414 479.398,597.414L467.701,597.414C467.049,597.414 466.52,597.943 466.52,598.595C466.52,599.247 467.049,599.776 467.701,599.776L479.398,599.776C480.05,599.776 480.579,599.247 480.579,598.595Z" style="fill:white;"/>
                        </g>
                    </g>
                </g>
            </g>
        </g>
    </g>
</svg>
