<?xml version="1.0" encoding="UTF-8" standalone="no"?>
<!DOCTYPE svg PUBLIC "-//W3C//DTD SVG 1.1//EN" "http://www.w3.org/Graphics/SVG/1.1/DTD/svg11.dtd">
<svg width="100%" height="100%" viewBox="0 0 512 512" version="1.1" xmlns="http://www.w3.org/2000/svg" xmlns:xlink="http://www.w3.org/1999/xlink" xml:space="preserve" xmlns:serif="http://www.serif.com/" style="fill-rule:evenodd;clip-rule:evenodd;stroke-linejoin:round;stroke-miterlimit:2;">
    <g transform="matrix(0.346229,0,0,0.328231,29.133,13.5254)">
        <g transform="matrix(34.586,0,0,36.4824,-15603.7,-21289.7)">
            <g id="TicketIcon">
                <g>
                    <g transform="matrix(0.632384,0,0,0.632384,81.2598,100.724)">
                        <path d="M582.932,785.583L582.932,777.636C582.932,774.727 585.293,772.366 588.202,772.366L641.566,772.366C644.475,772.366 646.836,774.727 646.836,777.636L646.836,785.583C641.948,787.066 638.387,791.61 638.387,796.979C638.387,802.347 641.948,806.891 646.836,808.374L646.836,813.44C646.836,816.348 644.475,818.709 641.566,818.709L588.202,818.709C585.293,818.709 582.932,816.348 582.932,813.44L582.932,808.374C587.82,806.891 591.381,802.347 591.381,796.979C591.381,791.61 587.82,787.066 582.932,785.583ZM600.481,808.637C601.861,808.637 602.982,809.758 602.982,811.138C602.982,812.518 601.861,813.639 600.481,813.639C599.101,813.639 597.981,812.518 597.981,811.138C597.981,809.758 599.101,808.637 600.481,808.637ZM631.45,805.082C631.45,804.052 630.614,803.215 629.583,803.215L611.086,803.215C610.056,803.215 609.219,804.052 609.219,805.082C609.219,806.113 610.056,806.949 611.086,806.949L629.583,806.949C630.614,806.949 631.45,806.113 631.45,805.082ZM600.481,798.237C601.861,798.237 602.982,799.358 602.982,800.738C602.982,802.118 601.861,803.239 600.481,803.239C599.101,803.239 597.981,802.118 597.981,800.738C597.981,799.358 599.101,798.237 600.481,798.237ZM631.45,795.538C631.45,794.507 630.614,793.671 629.583,793.671L611.086,793.671C610.056,793.671 609.219,794.507 609.219,795.538C609.219,796.568 610.056,797.405 611.086,797.405L629.583,797.405C630.614,797.405 631.45,796.568 631.45,795.538ZM600.481,787.837C601.861,787.837 602.982,788.958 602.982,790.338C602.982,791.718 601.861,792.838 600.481,792.838C599.101,792.838 597.981,791.718 597.981,790.338C597.981,788.958 599.101,787.837 600.481,787.837ZM631.45,785.993C631.45,784.963 630.614,784.126 629.583,784.126L611.086,784.126C610.056,784.126 609.219,784.963 609.219,785.993C609.219,787.024 610.056,787.86 611.086,787.86L629.583,787.86C630.614,787.86 631.45,787.024 631.45,785.993ZM600.481,777.437C601.861,777.437 602.982,778.557 602.982,779.937C602.982,781.318 601.861,782.438 600.481,782.438C599.101,782.438 597.981,781.318 597.981,779.937C597.981,778.557 599.101,777.437 600.481,777.437Z" style="fill:white;"/>
                    </g>
                </g>
            </g>
        </g>
    </g>
</svg>
