<?xml version="1.0" encoding="UTF-8" standalone="no"?>
<!DOCTYPE svg PUBLIC "-//W3C//DTD SVG 1.1//EN" "http://www.w3.org/Graphics/SVG/1.1/DTD/svg11.dtd">
<svg width="100%" height="100%" viewBox="0 0 512 512" version="1.1" xmlns="http://www.w3.org/2000/svg" xmlns:xlink="http://www.w3.org/1999/xlink" xml:space="preserve" xmlns:serif="http://www.serif.com/" style="fill-rule:evenodd;clip-rule:evenodd;stroke-linejoin:round;stroke-miterlimit:2;">
    <g id="TilesSmallIcon" transform="matrix(19.8694,0,0,19.6342,-5784.31,-72744.1)">
        <path d="M314.5,3730L311.5,3730C310.672,3730 310,3729.33 310,3728.5L310,3725.5C310,3724.67 310.672,3724 311.5,3724L314.5,3724C315.328,3724 316,3724.67 316,3725.5L316,3728.5C316,3729.33 315.328,3730 314.5,3730ZM314.5,3721L311.5,3721C310.672,3721 310,3720.33 310,3719.5L310,3716.5C310,3715.67 310.672,3715 311.5,3715L314.5,3715C315.328,3715 316,3715.67 316,3716.5L316,3719.5C316,3720.33 315.328,3721 314.5,3721ZM314.5,3712L311.5,3712C310.672,3712 310,3711.33 310,3710.5L310,3707.5C310,3706.67 310.672,3706 311.5,3706L314.5,3706C315.328,3706 316,3706.67 316,3707.5L316,3710.5C316,3711.33 315.328,3712 314.5,3712ZM305.5,3730L302.5,3730C301.672,3730 301,3729.33 301,3728.5L301,3725.5C301,3724.67 301.672,3724 302.5,3724L305.5,3724C306.328,3724 307,3724.67 307,3725.5L307,3728.5C307,3729.33 306.328,3730 305.5,3730ZM305.5,3721L302.5,3721C301.672,3721 301,3720.33 301,3719.5L301,3716.5C301,3715.67 301.672,3715 302.5,3715L305.5,3715C306.328,3715 307,3715.67 307,3716.5L307,3719.5C307,3720.33 306.328,3721 305.5,3721ZM305.5,3712L302.5,3712C301.672,3712 301,3711.33 301,3710.5L301,3707.5C301,3706.67 301.672,3706 302.5,3706L305.5,3706C306.328,3706 307,3706.67 307,3707.5L307,3710.5C307,3711.33 306.328,3712 305.5,3712ZM296.5,3730L293.5,3730C292.672,3730 292,3729.33 292,3728.5L292,3725.5C292,3724.67 292.672,3724 293.5,3724L296.5,3724C297.328,3724 298,3724.67 298,3725.5L298,3728.5C298,3729.33 297.328,3730 296.5,3730ZM296.5,3721L293.5,3721C292.672,3721 292,3720.33 292,3719.5L292,3716.5C292,3715.67 292.672,3715 293.5,3715L296.5,3715C297.328,3715 298,3715.67 298,3716.5L298,3719.5C298,3720.33 297.328,3721 296.5,3721ZM296.5,3712L293.5,3712C292.672,3712 292,3711.33 292,3710.5L292,3707.5C292,3706.67 292.672,3706 293.5,3706L296.5,3706C297.328,3706 298,3706.67 298,3707.5L298,3710.5C298,3711.33 297.328,3712 296.5,3712Z" style="fill:white;"/>
    </g>
</svg>
