<?xml version="1.0" encoding="UTF-8" standalone="no"?>
<!DOCTYPE svg PUBLIC "-//W3C//DTD SVG 1.1//EN" "http://www.w3.org/Graphics/SVG/1.1/DTD/svg11.dtd">
<svg width="100%" height="100%" viewBox="0 0 512 512" version="1.1" xmlns="http://www.w3.org/2000/svg" xmlns:xlink="http://www.w3.org/1999/xlink" xml:space="preserve" xmlns:serif="http://www.serif.com/" style="fill-rule:evenodd;clip-rule:evenodd;stroke-linejoin:round;stroke-miterlimit:2;">
    <g id="TimeIcon" transform="matrix(8.46712,0,0,8.46712,-5778.08,-5514.3)">
        <path d="M712.649,653.552C728.072,653.552 740.593,666.073 740.593,681.495C740.593,696.917 728.072,709.438 712.649,709.438C697.227,709.438 684.706,696.917 684.706,681.495C684.706,666.073 697.227,653.552 712.649,653.552ZM712.649,658.581C725.296,658.581 735.563,668.849 735.563,681.495C735.563,694.141 725.296,704.408 712.649,704.408C700.003,704.408 689.736,694.141 689.736,681.495C689.736,668.849 700.003,658.581 712.649,658.581ZM726.305,684.675L712.443,684.675C711.703,684.675 711.033,684.375 710.547,683.89L710.544,683.888C710.544,683.888 710.542,683.886 710.542,683.886C710.057,683.4 709.757,682.729 709.757,681.989L709.757,668.127C709.757,666.645 710.961,665.441 712.443,665.441C713.926,665.441 715.13,666.645 715.13,668.127L715.13,679.303L726.305,679.303C727.788,679.303 728.991,680.507 728.991,681.989C728.991,683.471 727.788,684.675 726.305,684.675Z" style="fill:white;"/>
    </g>
</svg>
