<?xml version="1.0" encoding="UTF-8" standalone="no"?>
<!DOCTYPE svg PUBLIC "-//W3C//DTD SVG 1.1//EN" "http://www.w3.org/Graphics/SVG/1.1/DTD/svg11.dtd">
<svg width="100%" height="100%" viewBox="0 0 512 512" version="1.1" xmlns="http://www.w3.org/2000/svg" xmlns:xlink="http://www.w3.org/1999/xlink" xml:space="preserve" xmlns:serif="http://www.serif.com/" style="fill-rule:evenodd;clip-rule:evenodd;stroke-linejoin:round;stroke-miterlimit:2;">
    <g id="TimeBombIcon" transform="matrix(6.18887,0,0,5.87315,-26278.5,-8417.98)">
        <g transform="matrix(1.01023,0,0,1.01023,-41.8686,-13.6912)">
            <g transform="matrix(0.957992,0,0,1.00949,2538.36,656.063)">
                <path d="M1791.27,830.104C1791.45,830.128 1811.93,830.14 1811.93,830.14L1811.93,841.048C1811.93,846.751 1807.3,851.381 1801.6,851.381C1795.9,851.381 1791.27,846.751 1791.27,841.048L1791.27,830.104ZM1856.17,830.079L1856.17,841.048C1856.17,846.751 1851.54,851.381 1845.84,851.381C1840.13,851.381 1835.5,846.751 1835.5,841.048L1835.5,830.14C1835.5,830.14 1855.93,830.119 1856.17,830.079ZM1834.05,830.14L1834.05,841.048C1834.05,846.751 1829.42,851.381 1823.72,851.381C1818.02,851.381 1813.38,846.751 1813.38,841.048L1813.38,830.14L1834.05,830.14ZM1835.5,799.368L1835.5,798.118C1835.5,798.118 1855.93,798.097 1856.17,798.056L1856.17,825.373C1855.93,825.332 1835.5,825.311 1835.5,825.311L1835.5,824.061C1838.75,820.944 1840.76,816.563 1840.76,811.714C1840.76,806.866 1838.75,802.485 1835.5,799.368ZM1811.93,824.221L1811.93,825.311C1811.93,825.311 1791.45,825.324 1791.27,825.348L1791.27,798.081C1791.45,798.105 1811.93,798.118 1811.93,798.118L1811.93,799.208C1808.59,802.335 1806.51,806.783 1806.51,811.714C1806.51,816.646 1808.59,821.094 1811.93,824.221ZM1834.05,825.311L1834.05,825.311L1834.05,825.309L1834.05,825.311ZM1834.05,798.12L1834.05,798.118L1834.05,798.118L1834.05,798.12ZM1835.5,793.289L1835.5,782.381C1835.5,776.678 1840.13,772.047 1845.84,772.047C1851.54,772.047 1856.17,776.678 1856.17,782.381L1856.17,793.35C1855.93,793.31 1835.5,793.289 1835.5,793.289ZM1791.27,793.325L1791.27,782.381C1791.27,776.678 1795.9,772.047 1801.6,772.047C1807.3,772.047 1811.93,776.678 1811.93,782.381L1811.93,793.289C1811.93,793.289 1791.45,793.301 1791.27,793.325ZM1834.05,793.289L1813.38,793.289L1813.38,782.381C1813.38,776.678 1818.02,772.047 1823.72,772.047C1829.42,772.047 1834.05,776.678 1834.05,782.381L1834.05,793.289Z" style="fill:white;"/>
            </g>
            <g transform="matrix(0.957992,0,0,1.00949,2538.36,656.063)">
                <path d="M1823.63,799.105C1830.59,799.105 1836.24,804.755 1836.24,811.714C1836.24,818.674 1830.59,824.324 1823.63,824.324C1816.67,824.324 1811.02,818.674 1811.02,811.714C1811.02,804.755 1816.67,799.105 1823.63,799.105ZM1824.04,814.773C1824.09,814.778 1824.14,814.781 1824.19,814.781C1824.99,814.781 1825.65,814.128 1825.65,813.323L1825.65,804.966C1825.65,804.162 1824.99,803.509 1824.19,803.509C1823.38,803.509 1822.73,804.162 1822.73,804.966L1822.73,811.428L1819.27,810.501C1818.49,810.293 1817.69,810.754 1817.48,811.532C1817.28,812.309 1817.74,813.109 1818.52,813.317L1823.78,814.728C1823.87,814.751 1823.95,814.766 1824.04,814.773Z" style="fill:white;"/>
            </g>
        </g>
    </g>
</svg>
