<?xml version="1.0" encoding="UTF-8" standalone="no"?>
<!DOCTYPE svg PUBLIC "-//W3C//DTD SVG 1.1//EN" "http://www.w3.org/Graphics/SVG/1.1/DTD/svg11.dtd">
<svg width="100%" height="100%" viewBox="0 0 512 512" version="1.1" xmlns="http://www.w3.org/2000/svg" xmlns:xlink="http://www.w3.org/1999/xlink" xml:space="preserve" xmlns:serif="http://www.serif.com/" style="fill-rule:evenodd;clip-rule:evenodd;stroke-linejoin:round;stroke-miterlimit:2;">
    <g id="TimeReloadIcon" transform="matrix(5.4468,0,0,5.4468,-383.934,-252.101)">
        <g transform="matrix(1.34044,0,0,1.34044,-276.426,-766.257)">
            <path d="M298.324,611.615C312.796,611.751 326.129,623.691 327.606,638.216C329.109,652.996 317.806,668.106 302.823,670.496C295.457,671.671 287.679,669.972 281.456,665.724C279.412,664.329 279.252,660.598 282.25,660.141C284.248,659.837 285.916,661.765 287.852,662.695C298.356,667.744 312.421,663.67 318.551,653.446C324.327,643.812 321.99,630.092 313.259,622.886C304.726,615.843 291.111,615.945 282.678,623.162C277.477,627.614 274.366,634.345 274.344,641.249C274.344,641.249 272.659,645.44 269.887,643.721C268.3,642.737 268.435,640.426 268.66,638.216C270.097,624.077 282.811,611.945 297.56,611.619C297.815,611.615 298.069,611.614 298.324,611.615Z" style="fill:white;"/>
        </g>
        <g transform="matrix(1,0,0,1,-0.271327,0.83534)">
            <path d="M126.014,73.99C126.014,72.247 124.599,70.832 122.857,70.832C121.114,70.832 119.699,72.247 119.699,73.99L119.699,92.023C119.699,93.766 121.114,95.181 122.857,95.181C124.599,95.181 126.014,93.766 126.014,92.023L126.014,73.99Z" style="fill:white;"/>
        </g>
        <g transform="matrix(-0.707107,0.707107,-0.653511,-0.653511,269.46,65.9977)">
            <path d="M126.014,74.249C126.014,72.363 124.599,70.832 122.857,70.832C121.114,70.832 119.699,72.363 119.699,74.249L119.699,91.764C119.699,93.65 121.114,95.181 122.857,95.181C124.599,95.181 126.014,93.65 126.014,91.764L126.014,74.249Z" style="fill:white;"/>
        </g>
        <g transform="matrix(1.28189,-1.14943e-16,1.14943e-16,-2.22047,-17.1357,311.164)">
            <path d="M80.926,91.462C81.119,91.339 81.392,91.269 81.679,91.269C81.965,91.269 82.239,91.339 82.432,91.462C84.554,92.81 90.619,96.662 93.493,98.488C93.763,98.66 93.833,98.908 93.67,99.121C93.507,99.333 93.142,99.47 92.74,99.47C87.688,99.47 75.67,99.47 70.618,99.47C70.215,99.47 69.85,99.333 69.687,99.121C69.525,98.908 69.594,98.66 69.865,98.488C72.739,96.662 78.803,92.81 80.926,91.462Z" style="fill:white;"/>
        </g>
    </g>
</svg>
