<?xml version="1.0" encoding="UTF-8" standalone="no"?>
<!DOCTYPE svg PUBLIC "-//W3C//DTD SVG 1.1//EN" "http://www.w3.org/Graphics/SVG/1.1/DTD/svg11.dtd">
<svg width="100%" height="100%" viewBox="0 0 512 512" version="1.1" xmlns="http://www.w3.org/2000/svg" xmlns:xlink="http://www.w3.org/1999/xlink" xml:space="preserve" xmlns:serif="http://www.serif.com/" style="fill-rule:evenodd;clip-rule:evenodd;stroke-linejoin:round;stroke-miterlimit:2;">
    <g id="TrashIcon" transform="matrix(4.89096,0,0,4.89096,-15.494,-248.026)">
        <path d="M82.611,141.186L82.61,141.186C82.412,147.529 70.345,152.651 55.509,152.651C40.674,152.651 28.607,147.529 28.408,141.186L28.386,141.186L22.473,93.714C29.138,97.854 41.38,100.631 55.365,100.631C69.555,100.631 81.949,97.772 88.545,93.532L82.611,141.186Z" style="fill:white;"/>
        <g transform="matrix(1,0,0,1,-19.7291,-16.2962)">
            <path d="M75.238,69.75C85.489,69.75 93.811,75.983 93.811,83.661C93.811,91.339 85.489,97.572 75.238,97.572C64.988,97.572 56.666,91.339 56.666,83.661C56.666,75.983 64.988,69.75 75.238,69.75ZM75.238,76.051C80.846,76.051 85.398,79.461 85.398,83.661C85.398,87.861 80.846,91.271 75.238,91.271C69.631,91.271 65.079,87.861 65.079,83.661C65.079,79.461 69.631,76.051 75.238,76.051Z" style="fill:white;"/>
        </g>
        <path d="M46.168,63.898C45.242,65.162 44.711,66.631 44.711,68.198C44.711,72.928 49.55,76.768 55.509,76.768C61.469,76.768 66.307,72.928 66.307,68.198C66.307,66.631 65.777,65.162 64.851,63.898C81.441,65.438 93.739,70.984 93.739,77.581C93.739,85.367 76.609,91.688 55.509,91.688C34.41,91.688 17.28,85.367 17.28,77.581C17.28,70.984 29.578,65.438 46.168,63.898Z" style="fill:white;"/>
    </g>
</svg>
