<?xml version="1.0" encoding="UTF-8" standalone="no"?>
<!DOCTYPE svg PUBLIC "-//W3C//DTD SVG 1.1//EN" "http://www.w3.org/Graphics/SVG/1.1/DTD/svg11.dtd">
<svg width="100%" height="100%" viewBox="0 0 512 512" version="1.1" xmlns="http://www.w3.org/2000/svg" xmlns:xlink="http://www.w3.org/1999/xlink" xml:space="preserve" xmlns:serif="http://www.serif.com/" style="fill-rule:evenodd;clip-rule:evenodd;stroke-linejoin:round;stroke-miterlimit:2;">
    <g id="TrashIcon" transform="matrix(7.76317,0,0,7.76317,-15086,-1971.76)">
        <path d="M1989.84,318.093L1962.68,318.093C1958.55,318.093 1955.2,314.845 1955.2,310.845L1953.85,272.243L1998.67,272.243L1997.32,310.845C1997.32,314.845 1993.97,318.093 1989.84,318.093ZM1979.04,279.729C1979.04,278.243 1977.8,277.036 1976.26,277.036C1974.73,277.036 1973.48,278.243 1973.48,279.729L1973.48,308.919C1973.48,310.406 1974.73,311.612 1976.26,311.612C1977.8,311.612 1979.04,310.406 1979.04,308.919L1979.04,279.729ZM1992.8,279.784C1992.83,278.298 1991.61,277.067 1990.08,277.037C1988.54,277.007 1987.27,278.189 1987.24,279.675L1986.53,308.858C1986.5,310.344 1987.72,311.574 1989.25,311.605C1990.79,311.635 1992.06,310.453 1992.09,308.967L1992.8,279.784ZM1959.72,279.784C1959.69,278.298 1960.91,277.067 1962.44,277.037C1963.98,277.007 1965.25,278.189 1965.28,279.675L1965.99,308.858C1966.03,310.344 1964.8,311.574 1963.27,311.605C1961.74,311.635 1960.46,310.453 1960.43,308.967L1959.72,279.784ZM1967.25,262.508C1968.32,258.665 1971.95,255.837 1976.26,255.837C1980.57,255.837 1984.2,258.665 1985.27,262.508L2000.75,262.508C2002.82,262.508 2004.5,264.189 2004.5,266.26C2004.5,268.33 2002.82,270.011 2000.75,270.011L1951.77,270.011C1949.7,270.011 1948.02,268.33 1948.02,266.26C1948.02,264.189 1949.7,262.508 1951.77,262.508L1967.25,262.508ZM1981.31,262.508C1980.38,260.582 1978.38,259.139 1976.14,259.139C1973.91,259.139 1972.04,260.582 1971.17,262.508L1981.31,262.508Z" style="fill:white;"/>
    </g>
</svg>
