<?xml version="1.0" encoding="UTF-8" standalone="no"?>
<!DOCTYPE svg PUBLIC "-//W3C//DTD SVG 1.1//EN" "http://www.w3.org/Graphics/SVG/1.1/DTD/svg11.dtd">
<svg width="100%" height="100%" viewBox="0 0 512 512" version="1.1" xmlns="http://www.w3.org/2000/svg" xmlns:xlink="http://www.w3.org/1999/xlink" xml:space="preserve" xmlns:serif="http://www.serif.com/" style="fill-rule:evenodd;clip-rule:evenodd;stroke-linejoin:round;stroke-miterlimit:2;">
    <g id="TwitterIcon" transform="matrix(19.0652,0,0,18.8395,-5539.83,-71861.7)">
        <path d="M313.539,3822.98C313.548,3823.2 313.551,3823.42 313.551,3823.64C313.551,3830.31 308.602,3838.01 299.552,3838.01C296.772,3838.01 294.187,3837.17 292.009,3835.74C292.394,3835.78 292.785,3835.81 293.182,3835.81C295.487,3835.81 297.61,3835 299.294,3833.64C297.141,3833.61 295.323,3832.14 294.696,3830.14C294.997,3830.2 295.307,3830.23 295.624,3830.23C296.071,3830.23 296.505,3830.17 296.921,3830.05C294.668,3829.59 292.971,3827.55 292.971,3825.1L292.971,3825.04C293.635,3825.41 294.395,3825.64 295.202,3825.67C293.88,3824.76 293.011,3823.21 293.011,3821.46C293.011,3820.54 293.253,3819.67 293.679,3818.92C296.105,3821.98 299.732,3823.99 303.821,3824.2C303.737,3823.83 303.694,3823.44 303.694,3823.05C303.694,3820.26 305.897,3818 308.615,3818C310.03,3818 311.308,3818.61 312.205,3819.59C313.328,3819.37 314.38,3818.95 315.332,3818.37C314.963,3819.55 314.184,3820.54 313.166,3821.16C314.162,3821.04 315.112,3820.77 315.993,3820.37C315.332,3821.38 314.5,3822.27 313.539,3822.98Z" style="fill:white;"/>
    </g>
</svg>
