<?xml version="1.0" encoding="UTF-8" standalone="no"?>
<!DOCTYPE svg PUBLIC "-//W3C//DTD SVG 1.1//EN" "http://www.w3.org/Graphics/SVG/1.1/DTD/svg11.dtd">
<svg width="100%" height="100%" viewBox="0 0 512 512" version="1.1" xmlns="http://www.w3.org/2000/svg" xmlns:xlink="http://www.w3.org/1999/xlink" xml:space="preserve" xmlns:serif="http://www.serif.com/" style="fill-rule:evenodd;clip-rule:evenodd;stroke-linejoin:round;stroke-miterlimit:2;">
    <g id="Ufo" transform="matrix(1.93208,0,0,1.93208,0,-10.0173)">
        <g transform="matrix(1,0,0,1,-6.1619,-2.04736)">
            <g transform="matrix(0.816031,0.218655,-0.218655,0.816031,46.3826,34.9508)">
                <circle cx="64.644" cy="214.367" r="15.721" style="fill:white;"/>
            </g>
            <g transform="matrix(0.816031,-0.218655,0.218655,0.816031,125.438,61.5334)">
                <circle cx="64.644" cy="214.367" r="15.721" style="fill:white;"/>
            </g>
        </g>
        <g transform="matrix(1,0,0,1,72.8652,20.7968)">
            <g transform="matrix(1,0,0,1,-72.8652,-20.7968)">
                <path d="M137.759,198.513L137.759,245.938L127.241,245.938L127.241,198.513C128.987,198.55 130.739,198.568 132.5,198.568C134.261,198.568 136.013,198.55 137.759,198.513ZM51.029,183.253C54.134,184.639 57.418,185.952 60.866,187.183L51.14,223.479L40.98,220.757L51.029,183.253ZM214.375,183.072L224.02,219.07L213.86,221.792L204.547,187.035C207.992,185.793 211.273,184.469 214.375,183.072Z" style="fill:white;"/>
            </g>
            <g transform="matrix(0.844818,0,0,0.844818,5.02207,43.8854)">
                <circle cx="64.644" cy="214.367" r="15.721" style="fill:white;"/>
            </g>
        </g>
        <g transform="matrix(1,0,0,0.771149,0,42.8363)">
            <path d="M17.978,126.674C22.032,154.165 71.794,179.721 132.5,179.721C193.206,179.721 242.968,154.165 247.022,126.674C247.199,128.045 247.289,129.434 247.289,130.833C247.289,164.307 195.854,195.29 132.5,195.29C69.146,195.29 17.711,164.307 17.711,130.833C17.711,129.434 17.801,128.045 17.978,126.674Z" style="fill:white;"/>
        </g>
        <path d="M212.798,84.61C234.078,93.781 247.289,106.562 247.289,120.69C247.289,148.567 195.854,171.199 132.5,171.199C69.146,171.199 17.711,148.567 17.711,120.69C17.711,106.565 30.917,93.786 52.192,84.615L52.198,84.894C53.458,132.993 214.031,132.891 212.806,84.894L212.798,84.61ZM132.5,139.389C137.456,139.389 141.48,143.413 141.48,148.369C141.48,153.326 137.456,157.35 132.5,157.35C127.544,157.35 123.52,153.326 123.52,148.369C123.52,143.413 127.544,139.389 132.5,139.389ZM52.039,116.43C56.995,116.43 61.019,120.454 61.019,125.411C61.019,130.367 56.995,134.391 52.039,134.391C47.082,134.391 43.058,130.367 43.058,125.411C43.058,120.454 47.082,116.43 52.039,116.43ZM212.961,116.43C217.918,116.43 221.942,120.454 221.942,125.411C221.942,130.367 217.918,134.391 212.961,134.391C208.005,134.391 203.981,130.367 203.981,125.411C203.981,120.454 208.005,116.43 212.961,116.43Z" style="fill:white;"/>
        <path d="M132.5,16.305C167.895,16.305 195.727,45.053 196.631,80.436C197.609,118.767 69.375,118.848 68.369,80.436C67.443,45.053 97.105,16.305 132.5,16.305ZM100.732,66.917C102.817,53.717 115.135,43.71 129.492,44.077C133.17,44.171 136.233,41.261 136.326,37.583C136.42,33.904 133.51,30.842 129.832,30.748C108.605,30.206 90.645,45.32 87.562,64.837C86.988,68.472 89.473,71.888 93.107,72.462C96.741,73.036 100.158,70.552 100.732,66.917Z" style="fill:white;"/>
    </g>
</svg>
