<?xml version="1.0" encoding="UTF-8" standalone="no"?>
<!DOCTYPE svg PUBLIC "-//W3C//DTD SVG 1.1//EN" "http://www.w3.org/Graphics/SVG/1.1/DTD/svg11.dtd">
<svg width="100%" height="100%" viewBox="0 0 512 512" version="1.1" xmlns="http://www.w3.org/2000/svg" xmlns:xlink="http://www.w3.org/1999/xlink" xml:space="preserve" xmlns:serif="http://www.serif.com/" style="fill-rule:evenodd;clip-rule:evenodd;stroke-linejoin:round;stroke-miterlimit:2;">
    <g id="UndoIcon" transform="matrix(19.7752,0,0,19.5412,-18688.7,-68099)">
        <path d="M946.393,3495L955.039,3495L951.658,3491.63C953.283,3490.01 955.52,3489 958,3489C962.971,3489 967,3493.03 967,3498C967,3502.97 962.971,3507 958,3507C954.409,3507 951.318,3504.89 949.874,3501.85C949.874,3501.85 949.622,3501 948.5,3501C947.672,3501 947,3501.67 947,3502.5C947,3502.79 947.101,3503.04 947.24,3503.26C949.192,3507.25 953.266,3510 958,3510C964.627,3510 970,3504.63 970,3498C970,3491.37 964.627,3486 958,3486C954.689,3486 951.703,3487.35 949.536,3489.52L946,3486L946,3495L946.393,3495Z" style="fill:white;"/>
    </g>
</svg>
