<?xml version="1.0" encoding="UTF-8" standalone="no"?>
<!DOCTYPE svg PUBLIC "-//W3C//DTD SVG 1.1//EN" "http://www.w3.org/Graphics/SVG/1.1/DTD/svg11.dtd">
<svg width="100%" height="100%" viewBox="0 0 512 512" version="1.1" xmlns="http://www.w3.org/2000/svg" xmlns:xlink="http://www.w3.org/1999/xlink" xml:space="preserve" xmlns:serif="http://www.serif.com/" style="fill-rule:evenodd;clip-rule:evenodd;stroke-linejoin:round;stroke-miterlimit:2;">
    <g id="UnicornIcon" transform="matrix(2.90454,0,0,3.53701,-1071.07,-20988.8)">
        <g transform="matrix(2.07005,0,0,1.69989,-19197.8,-1490.41)">
            <path d="M9505.85,4382.53C9505.85,4378.48 9502.57,4375.2 9498.52,4375.2C9494.48,4375.2 9491.19,4378.48 9491.19,4382.53L9491.19,4392.74C9491.19,4396.79 9494.48,4400.07 9498.52,4400.07C9502.57,4400.07 9505.85,4396.79 9505.85,4392.74L9505.85,4382.53ZM9502.21,4382.5C9502.21,4380.47 9500.56,4378.82 9498.52,4378.82C9496.49,4378.82 9494.84,4380.47 9494.84,4382.5L9494.84,4388.03C9494.84,4390.06 9496.49,4391.71 9498.52,4391.71C9500.56,4391.71 9502.21,4390.06 9502.21,4388.03L9502.21,4382.5Z" style="fill:white;"/>
        </g>
        <g transform="matrix(0.509908,0.418729,-0.606151,0.497762,3392.27,2388.94)">
            <path d="M1449.52,5934.68C1449.76,5933.77 1450.72,5933.12 1451.84,5933.12C1452.95,5933.12 1453.91,5933.77 1454.15,5934.68C1459.66,5955.36 1473.06,6005.68 1473.06,6005.68L1430.61,6005.68C1430.61,6005.68 1444.01,5955.36 1449.52,5934.68Z" style="fill:white;"/>
        </g>
        <g transform="matrix(2.07005,0,0,1.69989,-19197.8,-1490.41)">
            <path d="M9490.2,4388.98C9490.2,4384.93 9486.91,4381.65 9482.87,4381.65C9478.82,4381.65 9475.54,4384.93 9475.54,4388.98L9475.54,4401.83L9490.2,4401.83L9490.2,4388.98ZM9486.55,4388.95C9486.55,4386.92 9484.9,4385.27 9482.87,4385.27C9480.84,4385.27 9479.19,4386.92 9479.19,4388.95L9479.19,4394.48C9479.19,4396.51 9480.84,4398.16 9482.87,4398.16C9484.9,4398.16 9486.55,4396.51 9486.55,4394.48L9486.55,4388.95Z" style="fill:white;"/>
        </g>
        <g transform="matrix(2.07005,0,0,1.69989,-19197.8,-1490.41)">
            <path d="M9486.02,4398.99C9489.39,4397.01 9487.03,4393.02 9488.32,4392.36C9489.66,4391.68 9491.05,4391.16 9492.48,4390.8C9494.49,4390.28 9495.92,4393.15 9497.99,4393.26C9500.03,4393.37 9502.71,4390.71 9504.64,4391.43C9507.3,4392.42 9509.79,4393.98 9511.93,4396.12L9526.07,4410.26C9534.01,4418.2 9534.01,4431.09 9526.07,4439.03C9518.13,4446.97 9505.24,4446.97 9497.3,4439.03L9492.25,4433.98L9485.19,4441.04C9478.2,4448.03 9466.84,4448.03 9459.85,4441.04C9452.86,4434.05 9452.86,4422.7 9459.85,4415.71L9476.01,4399.56C9478.47,4397.09 9478.64,4401.35 9486.02,4398.99ZM9519.62,4420.18C9520.81,4420 9521.93,4420.82 9522.11,4422.02C9522.29,4423.22 9521.46,4424.33 9520.26,4424.51C9519.07,4424.69 9517.95,4423.86 9517.77,4422.67C9517.59,4421.47 9518.42,4420.36 9519.62,4420.18ZM9491.89,4401.66C9496.26,4401.66 9499.81,4405.21 9499.81,4409.58C9499.81,4413.95 9496.26,4417.5 9491.89,4417.5C9487.52,4417.5 9483.98,4413.95 9483.98,4409.58C9483.98,4405.21 9487.52,4401.66 9491.89,4401.66Z" style="fill:white;"/>
        </g>
        <g transform="matrix(0.490305,0,0,0.402631,-247.108,3582.54)">
            <circle cx="1417.05" cy="6017.01" r="13.76" style="fill:white;"/>
        </g>
    </g>
</svg>
