<?xml version="1.0" encoding="UTF-8" standalone="no"?>
<!DOCTYPE svg PUBLIC "-//W3C//DTD SVG 1.1//EN" "http://www.w3.org/Graphics/SVG/1.1/DTD/svg11.dtd">
<svg width="100%" height="100%" viewBox="0 0 512 512" version="1.1" xmlns="http://www.w3.org/2000/svg" xmlns:xlink="http://www.w3.org/1999/xlink" xml:space="preserve" xmlns:serif="http://www.serif.com/" style="fill-rule:evenodd;clip-rule:evenodd;stroke-linejoin:round;stroke-miterlimit:2;">
    <g id="Unicorn-2" serif:id="Unicorn 2" transform="matrix(2.52716,0,0,3.07746,-894.197,-18229.4)">
        <g transform="matrix(1,0,0,1,31.1235,-9.63681)">
            <g transform="matrix(1.191,0,0,1.65918,-1214.09,-3944.6)">
                <path d="M1396.05,5975.04C1396.05,5970.9 1390.34,5967.53 1383.31,5967.53C1376.28,5967.53 1370.57,5970.9 1370.57,5975.04L1370.57,5999.98C1370.57,6004.12 1376.28,6007.49 1383.31,6007.49C1390.34,6007.49 1396.05,6004.12 1396.05,5999.98L1396.05,5975.04Z" style="fill:rgb(143,155,176);"/>
            </g>
            <g transform="matrix(0.59821,0,0,0.548493,-394.074,2689.59)">
                <path d="M1396.05,5978.94C1396.05,5972.64 1390.34,5967.53 1383.31,5967.53C1376.28,5967.53 1370.57,5972.64 1370.57,5978.94L1370.57,5996.08C1370.57,6002.38 1376.28,6007.49 1383.31,6007.49C1390.34,6007.49 1396.05,6002.38 1396.05,5996.08L1396.05,5978.94Z" style="fill:rgb(91,104,123);"/>
            </g>
        </g>
        <g transform="matrix(1.23719,-1.01596,1.46467,1.20277,-10046,147.444)">
            <path d="M1387.61,6002.92C1387.61,5995.51 1380.49,5989.49 1371.71,5989.49L1336.46,5989.49C1327.68,5989.49 1320.56,5995.51 1320.56,6002.92C1320.56,6010.33 1327.68,6016.35 1336.46,6016.35L1387.61,6016.35L1387.61,6002.92Z" style="fill:rgb(240,94,232);"/>
            <clipPath id="_clip1">
                <path d="M1387.61,6002.92C1387.61,5995.51 1380.49,5989.49 1371.71,5989.49L1336.46,5989.49C1327.68,5989.49 1320.56,5995.51 1320.56,6002.92C1320.56,6010.33 1327.68,6016.35 1336.46,6016.35L1387.61,6016.35L1387.61,6002.92Z"/>
            </clipPath>
            <g clip-path="url(#_clip1)">
                <g transform="matrix(1.36428,1.00857e-16,2.89609e-16,0.999366,-923.746,-162.407)">
                    <path d="M1688.59,6166.44C1688.59,6163.11 1686.25,6160.41 1683.36,6160.41L1642.13,6160.41L1642.13,6170.95L1688.59,6170.95L1688.59,6166.44Z" style="fill:rgb(205,93,209);"/>
                </g>
            </g>
        </g>
        <g transform="matrix(0.915594,-0.751872,0.982736,0.807008,-6754.84,2187.4)">
            <path d="M1417.99,6031.04C1417.99,6016.31 1405.16,6004.36 1389.35,6004.36L1352.83,6004.36C1337.02,6004.36 1324.19,6016.31 1324.19,6031.04C1324.19,6045.77 1337.02,6057.72 1352.83,6057.72L1389.35,6057.72C1405.16,6057.72 1417.99,6045.77 1417.99,6031.04Z" style="fill:rgb(197,208,228);"/>
            <clipPath id="_clip2">
                <path d="M1417.99,6031.04C1417.99,6016.31 1405.16,6004.36 1389.35,6004.36L1352.83,6004.36C1337.02,6004.36 1324.19,6016.31 1324.19,6031.04C1324.19,6045.77 1337.02,6057.72 1352.83,6057.72L1389.35,6057.72C1405.16,6057.72 1417.99,6045.77 1417.99,6031.04Z"/>
            </clipPath>
            <g clip-path="url(#_clip2)">
                <g transform="matrix(0.51373,1.20987e-16,2.62775e-16,0.762879,640.383,1450.54)">
                    <path d="M1417.99,6011.02C1417.99,6007.34 1413.23,6004.36 1407.37,6004.36L1334.81,6004.36C1328.95,6004.36 1324.19,6007.34 1324.19,6011.02L1324.19,6051.06C1324.19,6054.74 1328.95,6057.72 1334.81,6057.72L1407.37,6057.72C1413.23,6057.72 1417.99,6054.74 1417.99,6051.06L1417.99,6011.02Z" style="fill:rgb(136,153,179);"/>
                </g>
            </g>
        </g>
        <g transform="matrix(0.742787,0.609965,-0.806179,0.662022,4415.61,1272.72)">
            <path d="M1299.27,6024.27C1299.27,6005.57 1282.8,5990.39 1262.5,5990.39L1216.45,5990.39C1196.15,5990.39 1179.67,6005.57 1179.67,6024.27L1179.67,6064.28L1255.86,6064.28C1279.82,6064.28 1299.27,6046.35 1299.27,6024.27Z" style="fill:rgb(197,208,228);"/>
            <clipPath id="_clip3">
                <path d="M1299.27,6024.27C1299.27,6005.57 1282.8,5990.39 1262.5,5990.39L1216.45,5990.39C1196.15,5990.39 1179.67,6005.57 1179.67,6024.27L1179.67,6064.28L1255.86,6064.28C1279.82,6064.28 1299.27,6046.35 1299.27,6024.27Z"/>
            </clipPath>
            <g clip-path="url(#_clip3)">
                <g transform="matrix(1.20602,-1.2326e-32,-1.85059e-16,1.11118,-480.844,-713.199)">
                    <circle cx="1481.45" cy="6059.15" r="39.902" style="fill:rgb(136,153,179);"/>
                </g>
                <g transform="matrix(0.0644317,-0.0802616,0.0869812,0.0592764,656.906,5777.58)">
                    <circle cx="1481.45" cy="6059.15" r="39.902" style="fill:rgb(73,83,98);"/>
                </g>
            </g>
        </g>
        <g transform="matrix(0.482332,0.396083,-0.506952,0.416302,415.774,5118.42)">
            <path d="M1172.6,962.656C1174.08,948.768 1180.93,899.773 1196.26,899.773C1211.58,899.773 1219.75,948.69 1219.91,962.656C1220.12,980.351 1170.68,980.708 1172.6,962.656Z" style="fill:rgb(255,192,120);"/>
            <clipPath id="_clip4">
                <path d="M1172.6,962.656C1174.08,948.768 1180.93,899.773 1196.26,899.773C1211.58,899.773 1219.75,948.69 1219.91,962.656C1220.12,980.351 1170.68,980.708 1172.6,962.656Z"/>
            </clipPath>
            <g clip-path="url(#_clip4)">
                <g transform="matrix(0.400534,-0.231249,0.214417,0.371381,710.788,652.907)">
                    <g transform="matrix(0.761703,0,0,0.761703,-259.209,237.941)">
                        <rect x="1025.75" y="1231.66" width="185.473" height="79.804" style="fill:rgb(13,203,22);"/>
                    </g>
                    <g transform="matrix(0.761703,0,0,0.761703,-259.209,179.323)">
                        <rect x="1025.75" y="1231.66" width="185.473" height="79.804" style="fill:rgb(255,220,22);"/>
                    </g>
                    <g transform="matrix(0.761703,0,0,0.761703,-259.209,120.706)">
                        <rect x="1025.75" y="1231.66" width="185.473" height="79.804" style="fill:rgb(255,50,93);"/>
                    </g>
                </g>
                <g transform="matrix(0.546311,-1.03021e-16,-9.30595e-16,0.546311,282.306,278.521)">
                    <rect x="1672.73" y="1113.84" width="87.713" height="178.92" style="fill:rgb(52,58,64);fill-opacity:0.35;"/>
                </g>
            </g>
        </g>
        <g transform="matrix(1,0,0,1,-2.09706,1.29048)">
            <g transform="matrix(1.191,0,0,1.2644,-1214.09,-1588.78)">
                <path d="M1396.05,5977.39C1396.05,5971.95 1390.34,5967.53 1383.31,5967.53C1376.28,5967.53 1370.57,5971.95 1370.57,5977.39L1370.57,6007.49L1396.05,6007.49L1396.05,5977.39Z" style="fill:rgb(197,208,228);"/>
            </g>
            <g transform="matrix(0.59821,0,0,0.548493,-394.074,2689.59)">
                <path d="M1396.05,5978.94C1396.05,5972.64 1390.34,5967.53 1383.31,5967.53C1376.28,5967.53 1370.57,5972.64 1370.57,5978.94L1370.57,5996.08C1370.57,6002.38 1376.28,6007.49 1383.31,6007.49C1390.34,6007.49 1396.05,6002.38 1396.05,5996.08L1396.05,5978.94Z" style="fill:rgb(136,153,179);"/>
            </g>
        </g>
        <g transform="matrix(1,0,0,1,-6.4656,3.28496)">
            <g transform="matrix(1.41357,0,0,1.1608,-1541.4,-980.278)">
                <circle cx="1417.05" cy="6017.01" r="13.76" style="fill:white;"/>
            </g>
            <g transform="matrix(0.293491,0,0,0.24101,42.0667,4553.86)">
                <circle cx="1417.05" cy="6017.01" r="13.76" style="fill:rgb(40,38,33);"/>
            </g>
        </g>
        <g transform="matrix(0.617982,-0.508565,1.58218,1.29648,-9869.79,-1067.52)">
            <path d="M1420.43,5976.95L1391.1,5976.95L1391.1,5988.43C1391.1,5991.6 1397.67,5994.17 1405.76,5994.17C1413.86,5994.17 1420.43,5991.6 1420.43,5988.43L1420.43,5976.95Z" style="fill:rgb(240,94,232);"/>
            <clipPath id="_clip5">
                <path d="M1420.43,5976.95L1391.1,5976.95L1391.1,5988.43C1391.1,5991.6 1397.67,5994.17 1405.76,5994.17C1413.86,5994.17 1420.43,5991.6 1420.43,5988.43L1420.43,5976.95Z"/>
            </clipPath>
            <g clip-path="url(#_clip5)">
                <g transform="matrix(-0.00199813,0.568428,-2.36605,-0.000771538,15984.3,5047.77)">
                    <rect x="1642.13" y="6160.41" width="46.462" height="10.541" style="fill:rgb(205,93,209);"/>
                </g>
            </g>
        </g>
        <g transform="matrix(0.358155,0.130183,-0.15853,0.294111,115.782,5432.9)">
            <ellipse cx="1518.98" cy="1356.78" rx="29.554" ry="17.641" style="fill:rgb(247,131,172);fill-opacity:0.56;"/>
        </g>
    </g>
</svg>
