<?xml version="1.0" encoding="UTF-8" standalone="no"?>
<!DOCTYPE svg PUBLIC "-//W3C//DTD SVG 1.1//EN" "http://www.w3.org/Graphics/SVG/1.1/DTD/svg11.dtd">
<svg width="100%" height="100%" viewBox="0 0 512 512" version="1.1" xmlns="http://www.w3.org/2000/svg" xmlns:xlink="http://www.w3.org/1999/xlink" xml:space="preserve" xmlns:serif="http://www.serif.com/" style="fill-rule:evenodd;clip-rule:evenodd;stroke-linejoin:round;stroke-miterlimit:2;">
    <path id="Unlock" d="M256,0C397.29,0 512,114.71 512,256C512,397.29 397.29,512 256,512C114.71,512 0,397.29 0,256C0,114.71 114.71,0 256,0ZM196.502,222.475L196.502,191.48C196.502,157.236 224.26,129.475 258.5,129.475C288.947,129.475 314.266,151.422 319.507,180.356C320.005,183.109 319.257,185.941 317.464,188.088C315.671,190.236 313.018,191.477 310.22,191.477C310.219,191.477 310.218,191.477 310.217,191.477C304.737,191.477 299.992,187.67 298.804,182.32C294.648,163.899 278.181,150.144 258.5,150.144C235.674,150.144 217.169,168.652 217.169,191.48L217.169,222.475L334.517,222.475C347.202,222.475 357.5,232.774 357.5,245.458L357.5,353.542C357.5,366.226 347.202,376.525 334.517,376.525L177.483,376.525C164.798,376.525 154.5,366.226 154.5,353.542L154.5,245.458C154.5,232.774 164.798,222.475 177.483,222.475L196.502,222.475ZM264,306.46C271.909,303.284 277.5,295.54 277.5,286.5C277.5,274.634 267.866,265 256,265C244.134,265 234.5,274.634 234.5,286.5C234.5,295.54 240.091,303.284 248,306.46L248,326C248,330.415 251.585,334 256,334C260.415,334 264,330.415 264,326L264,306.46Z" style="fill:white;"/>
</svg>
