<?xml version="1.0" encoding="UTF-8" standalone="no"?>
<!DOCTYPE svg PUBLIC "-//W3C//DTD SVG 1.1//EN" "http://www.w3.org/Graphics/SVG/1.1/DTD/svg11.dtd">
<svg width="100%" height="100%" viewBox="0 0 512 512" version="1.1" xmlns="http://www.w3.org/2000/svg" xmlns:xlink="http://www.w3.org/1999/xlink" xml:space="preserve" xmlns:serif="http://www.serif.com/" style="fill-rule:evenodd;clip-rule:evenodd;stroke-linejoin:round;stroke-miterlimit:2;">
    <g id="UpgradeUnitsIcon" transform="matrix(5.53606,0,0,5.53606,-7197.08,-1881.04)">
        <path d="M1367.12,398.514C1367.97,398.506 1368.82,398.82 1369.46,399.456L1382.98,412.814C1384.25,414.07 1384.25,416.108 1382.98,417.364C1381.71,418.619 1379.64,418.619 1378.37,417.364L1367.12,406.247L1355.87,417.364C1354.6,418.619 1352.54,418.619 1351.27,417.364C1350,416.108 1350,414.07 1351.27,412.814L1364.79,399.456C1365.43,398.82 1366.28,398.506 1367.12,398.514ZM1346.67,414.211C1344.55,414.333 1342.24,414.419 1339.75,414.472C1339.09,414.486 1338.43,414.491 1337.78,414.486C1337.13,414.491 1336.48,414.486 1335.82,414.472C1315.77,414.048 1308.02,411.481 1308.66,404.957C1309.24,399.051 1314.23,392.159 1322.78,388.314C1326.43,393.667 1331.91,397.01 1337.69,397.01C1343.51,397.01 1349.01,393.635 1352.65,388.247C1353.49,388.623 1354.3,389.029 1355.08,389.46C1352.2,392.241 1349.36,395.109 1348.18,396.641C1343.48,403.279 1351.06,407.781 1352.13,407.118C1351.58,407.71 1348.02,411.897 1348.02,411.897C1347.35,412.558 1346.91,413.358 1346.67,414.211ZM1367.12,384.073C1367.97,384.065 1368.82,384.379 1369.46,385.015L1382.98,398.373C1384.25,399.629 1384.25,401.667 1382.98,402.923C1381.71,404.178 1379.64,404.178 1378.37,402.923L1367.12,391.806L1355.87,402.923C1354.6,404.178 1352.54,404.178 1351.27,402.923C1350,401.667 1350,399.629 1351.27,398.373L1364.79,385.015C1365.43,384.379 1366.28,384.065 1367.12,384.073ZM1337.9,392.817C1329.86,392.817 1322.58,384.411 1322.58,373.572C1322.58,363.48 1326.32,356.133 1337.9,356.115C1349.49,356.096 1353.23,363.48 1353.23,373.572C1353.23,384.411 1345.95,392.817 1337.9,392.817ZM1358.59,386.106C1356.93,386.048 1355.43,385.958 1354.1,385.832C1355.7,382.742 1356.74,379.159 1356.98,375.282C1358.33,376.036 1359.82,376.453 1361.34,376.453C1364.57,376.453 1367.62,374.578 1369.64,371.586C1374.44,373.721 1377.24,377.571 1377.56,380.867C1377.76,382.845 1376.57,384.168 1373.63,385L1370.76,382.161C1369.67,381.08 1368.23,380.543 1366.8,380.548C1365.36,380.543 1363.92,381.08 1362.83,382.161C1362.83,382.161 1360.99,383.844 1358.59,386.106ZM1353.48,359.145C1354.44,355.864 1356.82,353.744 1361.45,353.737C1367.89,353.726 1369.97,357.828 1369.97,363.434C1369.97,369.455 1365.92,374.124 1361.45,374.124C1359.87,374.124 1358.34,373.535 1357.02,372.505C1356.9,367.24 1355.86,362.63 1353.48,359.145Z" style="fill:white;"/>
    </g>
</svg>
