<?xml version="1.0" encoding="UTF-8" standalone="no"?>
<!DOCTYPE svg PUBLIC "-//W3C//DTD SVG 1.1//EN" "http://www.w3.org/Graphics/SVG/1.1/DTD/svg11.dtd">
<svg width="100%" height="100%" viewBox="0 0 512 512" version="1.1" xmlns="http://www.w3.org/2000/svg" xmlns:xlink="http://www.w3.org/1999/xlink" xml:space="preserve" xmlns:serif="http://www.serif.com/" style="fill-rule:evenodd;clip-rule:evenodd;stroke-linejoin:round;stroke-miterlimit:2;">
    <path id="UserChecked" d="M256,0C397.29,0 512,114.71 512,256C512,397.29 397.29,512 256,512C114.71,512 0,397.29 0,256C0,114.71 114.71,0 256,0ZM323.668,372C286.295,372 256,341.705 256,304.338C256,266.963 286.295,236.665 323.668,236.665C361.039,236.665 391.333,266.963 391.333,304.338C391.333,341.705 361.039,372 323.668,372ZM236.667,314.001C236.856,314.001 237.038,313.959 237.226,313.959C239.787,337.192 251.473,357.666 268.648,371.705C259.465,371.909 249.074,372 236.667,372C197.526,372 176.866,371.215 159.299,368.291C134.695,364.188 120.667,355.42 120.667,340.679C120.667,321.207 145.723,294.061 180.559,278.323C194.638,299.681 214.517,314.001 236.667,314.001ZM359.255,278.403C355.089,274.311 348.336,274.311 344.171,278.403L314.001,308.066L303.163,297.738C298.997,293.648 292.243,293.648 288.079,297.738C283.913,301.838 283.913,308.476 288.079,312.568L306.457,330.305C310.624,334.403 317.377,334.403 321.542,330.305L359.255,293.238C363.419,289.144 363.419,282.5 359.255,278.403ZM237.241,294.624C237.049,294.624 236.861,294.669 236.667,294.669C204.557,294.669 178.669,252.042 178.669,208.235C178.669,167.468 202.88,140 236.667,140C270.456,140 294.667,167.468 294.667,208.235C294.667,213.118 294.298,217.963 293.684,222.757C263.349,233.908 240.937,261.4 237.241,294.624Z" style="fill:white;"/>
</svg>
