<?xml version="1.0" encoding="UTF-8" standalone="no"?>
<!DOCTYPE svg PUBLIC "-//W3C//DTD SVG 1.1//EN" "http://www.w3.org/Graphics/SVG/1.1/DTD/svg11.dtd">
<svg width="100%" height="100%" viewBox="0 0 512 512" version="1.1" xmlns="http://www.w3.org/2000/svg" xmlns:xlink="http://www.w3.org/1999/xlink" xml:space="preserve" xmlns:serif="http://www.serif.com/" style="fill-rule:evenodd;clip-rule:evenodd;stroke-linejoin:round;stroke-miterlimit:2;">
    <path id="UserAdd" d="M256,0C397.29,0 512,114.71 512,256C512,397.29 397.29,512 256,512C114.71,512 0,397.29 0,256C0,114.71 114.71,0 256,0ZM323.666,372C286.295,372 255.999,341.705 255.999,304.338C255.999,266.963 286.295,236.665 323.666,236.665C361.038,236.665 391.333,266.963 391.333,304.338C391.333,341.705 361.038,372 323.666,372ZM236.665,314.001C236.857,314.001 237.039,313.959 237.227,313.959C239.786,337.192 251.472,357.666 268.649,371.705C259.464,371.909 249.073,372 236.665,372C197.527,372 176.865,371.215 159.299,368.291C134.695,364.188 120.667,355.42 120.667,340.679C120.667,321.207 145.723,294.061 180.56,278.323C194.638,299.681 214.516,314.001 236.665,314.001ZM352.666,294.669L333.334,294.669L333.334,275.335C333.334,269.999 329.006,265.669 323.666,265.669C318.327,265.669 314,269.999 314,275.335L314,294.669L294.667,294.669C289.328,294.669 284.999,298.997 284.999,304.338C284.999,309.674 289.328,314.001 294.667,314.001L314,314.001L314,333.339C314,338.674 318.327,343.005 323.666,343.005C329.006,343.005 333.334,338.674 333.334,333.339L333.334,314.001L352.666,314.001C358.005,314.001 362.333,309.674 362.333,304.338C362.333,298.997 358.005,294.669 352.666,294.669ZM237.242,294.624C237.047,294.624 236.861,294.669 236.665,294.669C204.557,294.669 178.667,252.042 178.667,208.235C178.667,167.468 202.878,140 236.665,140C270.454,140 294.667,167.468 294.667,208.235C294.667,213.118 294.298,217.963 293.684,222.757C263.348,233.908 240.937,261.4 237.242,294.624Z" style="fill:white;"/>
</svg>
