<?xml version="1.0" encoding="UTF-8" standalone="no"?>
<!DOCTYPE svg PUBLIC "-//W3C//DTD SVG 1.1//EN" "http://www.w3.org/Graphics/SVG/1.1/DTD/svg11.dtd">
<svg width="100%" height="100%" viewBox="0 0 512 512" version="1.1" xmlns="http://www.w3.org/2000/svg" xmlns:xlink="http://www.w3.org/1999/xlink" xml:space="preserve" xmlns:serif="http://www.serif.com/" style="fill-rule:evenodd;clip-rule:evenodd;stroke-linejoin:round;stroke-miterlimit:2;">
    <path id="UserFriend" d="M256,0C397.29,0 512,114.71 512,256C512,397.29 397.29,512 256,512C114.71,512 0,397.29 0,256C0,114.71 114.71,0 256,0ZM275.333,280.165C259.437,301.124 239.503,315.147 217.334,313.995C195.164,315.147 175.231,301.124 159.333,280.165C126.336,295.595 101.335,322.222 101.335,342.998C101.335,355.74 115.36,364.343 140,367.164C157.536,371.232 178.193,371.999 217.334,371.999C256.473,371.999 277.136,371.232 294.666,367.164C319.302,364.343 333.333,355.74 333.333,342.998C333.333,322.222 308.329,295.595 275.333,280.165ZM333.924,299.794C340.643,294.413 346.918,287.746 352.665,280.165C385.663,295.595 410.665,322.222 410.665,342.998C410.665,355.74 396.634,364.343 371.999,367.164C362.745,369.314 352.616,370.538 339.358,371.216C347.846,364.206 352.665,354.84 352.665,342.998C352.665,328.527 345.646,313.518 333.924,299.794ZM217.334,294.665C249.446,294.665 275.333,252.041 275.333,207.666C275.333,167.466 251.118,140.001 217.334,140.001C183.544,140.001 159.333,167.461 159.333,207.666C159.333,252.041 185.221,294.665 217.334,294.665ZM319.631,285.624C339.193,270.78 352.665,239.676 352.665,207.666C352.665,167.466 328.451,140.001 294.666,140.001C286.57,140.001 279.023,141.574 272.229,144.527C286.369,160.076 294.666,182.176 294.666,207.666C294.666,227.119 290.523,246.097 283.219,262.511L283.521,262.653C296.93,268.923 309.236,276.788 319.631,285.624Z" style="fill:white;"/>
</svg>
