<?xml version="1.0" encoding="UTF-8" standalone="no"?>
<!DOCTYPE svg PUBLIC "-//W3C//DTD SVG 1.1//EN" "http://www.w3.org/Graphics/SVG/1.1/DTD/svg11.dtd">
<svg width="100%" height="100%" viewBox="0 0 512 512" version="1.1" xmlns="http://www.w3.org/2000/svg" xmlns:xlink="http://www.w3.org/1999/xlink" xml:space="preserve" xmlns:serif="http://www.serif.com/" style="fill-rule:evenodd;clip-rule:evenodd;stroke-linejoin:round;stroke-miterlimit:2;">
    <g id="UserIcon" transform="matrix(7.01736,0,0,7.15467,-2438.25,-6974.85)">
        <g id="Body" transform="matrix(1,0,0,0.919419,0,84.1961)">
            <path d="M367.775,1007.79C371.729,1013.56 377.678,1016.88 384.349,1016.88C391.019,1016.88 396.968,1013.56 400.922,1007.79C410.668,1012.36 413.218,1020.44 413.913,1027.21C416.1,1048.5 356.764,1052.89 353.984,1027.21C353.253,1020.45 357.971,1012.36 367.775,1007.79Z" style="fill:white;"/>
        </g>
        <g id="Head" transform="matrix(2.78743,0,0,2.56282,-159.2,-6548)">
            <path d="M195,2950.55C191.678,2950.55 189,2947.59 189,2943.06C189,2938.84 191.505,2936 195,2936C198.495,2936 201,2938.84 201,2943.06C201,2947.59 198.322,2950.55 195,2950.55Z" style="fill:white;"/>
        </g>
    </g>
</svg>
