<?xml version="1.0" encoding="UTF-8" standalone="no"?>
<!DOCTYPE svg PUBLIC "-//W3C//DTD SVG 1.1//EN" "http://www.w3.org/Graphics/SVG/1.1/DTD/svg11.dtd">
<svg width="100%" height="100%" viewBox="0 0 512 512" version="1.1" xmlns="http://www.w3.org/2000/svg" xmlns:xlink="http://www.w3.org/1999/xlink" xml:space="preserve" xmlns:serif="http://www.serif.com/" style="fill-rule:evenodd;clip-rule:evenodd;stroke-linejoin:round;stroke-miterlimit:2;">
    <path id="User" d="M256,0C397.29,0 512,114.71 512,256C512,397.29 397.29,512 256,512C114.71,512 0,397.29 0,256C0,114.71 114.71,0 256,0ZM333.369,368.287C315.801,371.214 295.142,371.993 256,371.993C216.86,371.993 196.199,371.214 178.632,368.287C154.028,364.19 140,355.416 140,340.677C140,321.206 165.055,294.052 199.892,278.337C213.971,299.685 233.85,314 256,314C278.149,314 298.029,299.685 312.108,278.337C346.944,294.052 372,321.206 372,340.677C372,355.416 357.973,364.19 333.369,368.287ZM256,294.665C223.89,294.665 198.001,252.041 198.001,208.242C198.001,167.461 222.213,140.007 256,140.007C289.787,140.007 314.001,167.461 314.001,208.242C314.001,252.041 288.11,294.665 256,294.665Z" style="fill:white;"/>
</svg>
