<?xml version="1.0" encoding="UTF-8" standalone="no"?>
<!DOCTYPE svg PUBLIC "-//W3C//DTD SVG 1.1//EN" "http://www.w3.org/Graphics/SVG/1.1/DTD/svg11.dtd">
<svg width="100%" height="100%" viewBox="0 0 512 512" version="1.1" xmlns="http://www.w3.org/2000/svg" xmlns:xlink="http://www.w3.org/1999/xlink" xml:space="preserve" xmlns:serif="http://www.serif.com/" style="fill-rule:evenodd;clip-rule:evenodd;stroke-linejoin:round;stroke-miterlimit:2;">
    <g id="VideoIcon" transform="matrix(7.55793,0,0,7.55793,-13892.7,-8294.97)">
        <path d="M1899.74,1163.06L1844.32,1163.06C1842.14,1163.06 1840.37,1161.29 1840.37,1159.1L1840.37,1103.68C1840.37,1101.5 1842.14,1099.72 1844.32,1099.72L1899.74,1099.72C1901.93,1099.72 1903.7,1101.5 1903.7,1103.68L1903.7,1159.1C1903.7,1161.29 1901.93,1163.06 1899.74,1163.06ZM1854.36,1151.27L1848.17,1151.27C1847.74,1151.27 1847.39,1151.61 1847.39,1152.04L1847.39,1158.23C1847.39,1158.65 1847.74,1159 1848.17,1159L1854.36,1159C1854.78,1159 1855.13,1158.65 1855.13,1158.23L1855.13,1152.04C1855.13,1151.61 1854.78,1151.27 1854.36,1151.27ZM1868.2,1151.27L1862.02,1151.27C1861.59,1151.27 1861.24,1151.61 1861.24,1152.04L1861.24,1158.23C1861.24,1158.65 1861.59,1159 1862.02,1159L1868.2,1159C1868.63,1159 1868.98,1158.65 1868.98,1158.23L1868.98,1152.04C1868.98,1151.61 1868.63,1151.27 1868.2,1151.27ZM1882.05,1151.27L1875.86,1151.27C1875.44,1151.27 1875.09,1151.61 1875.09,1152.04L1875.09,1158.23C1875.09,1158.65 1875.44,1159 1875.86,1159L1882.05,1159C1882.48,1159 1882.83,1158.65 1882.83,1158.23L1882.83,1152.04C1882.83,1151.61 1882.48,1151.27 1882.05,1151.27ZM1895.9,1151.27L1889.71,1151.27C1889.29,1151.27 1888.94,1151.61 1888.94,1152.04L1888.94,1158.23C1888.94,1158.65 1889.29,1159 1889.71,1159L1895.9,1159C1896.33,1159 1896.67,1158.65 1896.67,1158.23L1896.67,1152.04C1896.67,1151.61 1896.33,1151.27 1895.9,1151.27ZM1884.46,1132.62C1884.95,1132.34 1885.22,1131.88 1885.22,1131.34C1885.22,1130.8 1884.95,1130.33 1884.46,1130.06L1863.8,1118.4C1863.31,1118.12 1862.75,1118.12 1862.25,1118.39C1861.76,1118.66 1861.48,1119.13 1861.48,1119.68L1861.48,1143C1861.48,1143.55 1861.76,1144.01 1862.25,1144.29C1862.75,1144.56 1863.31,1144.55 1863.8,1144.28L1884.46,1132.62ZM1854.36,1103.78L1848.17,1103.78C1847.74,1103.78 1847.39,1104.13 1847.39,1104.55L1847.39,1110.74C1847.39,1111.17 1847.74,1111.52 1848.17,1111.52L1854.36,1111.52C1854.78,1111.52 1855.13,1111.17 1855.13,1110.74L1855.13,1104.55C1855.13,1104.13 1854.78,1103.78 1854.36,1103.78ZM1868.2,1103.78L1862.02,1103.78C1861.59,1103.78 1861.24,1104.13 1861.24,1104.55L1861.24,1110.74C1861.24,1111.17 1861.59,1111.52 1862.02,1111.52L1868.2,1111.52C1868.63,1111.52 1868.98,1111.17 1868.98,1110.74L1868.98,1104.55C1868.98,1104.13 1868.63,1103.78 1868.2,1103.78ZM1882.05,1103.78L1875.86,1103.78C1875.44,1103.78 1875.09,1104.13 1875.09,1104.55L1875.09,1110.74C1875.09,1111.17 1875.44,1111.52 1875.86,1111.52L1882.05,1111.52C1882.48,1111.52 1882.83,1111.17 1882.83,1110.74L1882.83,1104.55C1882.83,1104.13 1882.48,1103.78 1882.05,1103.78ZM1895.9,1103.78L1889.71,1103.78C1889.29,1103.78 1888.94,1104.13 1888.94,1104.55L1888.94,1110.74C1888.94,1111.17 1889.29,1111.52 1889.71,1111.52L1895.9,1111.52C1896.33,1111.52 1896.67,1111.17 1896.67,1110.74L1896.67,1104.55C1896.67,1104.13 1896.33,1103.78 1895.9,1103.78Z" style="fill:white;"/>
    </g>
</svg>
