<?xml version="1.0" encoding="UTF-8" standalone="no"?>
<!DOCTYPE svg PUBLIC "-//W3C//DTD SVG 1.1//EN" "http://www.w3.org/Graphics/SVG/1.1/DTD/svg11.dtd">
<svg width="100%" height="100%" viewBox="0 0 512 512" version="1.1" xmlns="http://www.w3.org/2000/svg" xmlns:xlink="http://www.w3.org/1999/xlink" xml:space="preserve" xmlns:serif="http://www.serif.com/" style="fill-rule:evenodd;clip-rule:evenodd;stroke-linejoin:round;stroke-miterlimit:2;">
    <g id="Viking-Hat-Icon" serif:id="Viking Hat Icon" transform="matrix(6.17313,0,0,6.17313,-256.039,-3961.42)">
        <path d="M113.939,700.933C115.204,700.933 116.23,701.96 116.23,703.224L116.23,707.807C116.23,709.071 115.204,710.098 113.939,710.098L51.954,710.098C50.689,710.098 49.663,709.071 49.663,707.807L49.663,703.224C49.663,701.96 50.689,700.933 51.954,700.933L113.939,700.933ZM112.443,698.394L53.45,698.394C55.074,683.483 67.67,671.864 82.946,671.864C98.223,671.864 110.818,683.483 112.443,698.394ZM53.06,687.607C47.407,683.485 40.646,674.495 46.454,656.28C50.861,666.859 57.496,672.509 63.134,675.521C58.983,678.699 55.529,682.83 53.06,687.607ZM103.238,675.26C108.769,672.187 115.156,666.561 119.439,656.28C125.045,673.865 118.938,682.852 113.423,687.161C110.902,682.442 107.411,678.375 103.238,675.26Z" style="fill:white;"/>
    </g>
</svg>
