<?xml version="1.0" encoding="UTF-8" standalone="no"?>
<!DOCTYPE svg PUBLIC "-//W3C//DTD SVG 1.1//EN" "http://www.w3.org/Graphics/SVG/1.1/DTD/svg11.dtd">
<svg width="100%" height="100%" viewBox="0 0 512 512" version="1.1" xmlns="http://www.w3.org/2000/svg" xmlns:xlink="http://www.w3.org/1999/xlink" xml:space="preserve" xmlns:serif="http://www.serif.com/" style="fill-rule:evenodd;clip-rule:evenodd;stroke-linejoin:round;stroke-miterlimit:2;">
    <g id="VikingHatIcon" transform="matrix(2.19606,0,0,2.67426,-268.029,-16646.2)">
        <g transform="matrix(2.1008,0,0,1.72514,-21265.4,-1607.05)">
            <path d="M10200.9,4588.73C10192.5,4581.26 10186.3,4571.38 10184.5,4560.11C10183.6,4554.28 10190,4552.3 10193.8,4557.17C10197.3,4561.89 10204.4,4568.73 10212.5,4572.83C10207.4,4576.98 10203.4,4582.45 10200.9,4588.73ZM10259.7,4572.83C10267.8,4568.73 10274.9,4561.89 10278.5,4557.17C10282.2,4552.3 10288.7,4554.28 10287.7,4560.11C10286,4571.38 10279.7,4581.26 10271.3,4588.73C10268.9,4582.45 10264.8,4576.98 10259.7,4572.83Z" style="fill:white;"/>
        </g>
        <g transform="matrix(2.1008,0,0,1.72514,-21265.4,-1607.05)">
            <path d="M10224.5,4570.22L10224.5,4597.98L10202.4,4597.98C10204.2,4585.13 10212.9,4574.53 10224.5,4570.22ZM10247.7,4570.22C10259.3,4574.53 10268,4585.13 10269.8,4597.98L10247.7,4597.98L10247.7,4570.22Z" style="fill:white;"/>
        </g>
        <g transform="matrix(1.3382,0,0,1.13284,-1154.59,-840.511)">
            <path d="M1053.18,6273.07C1053.18,6271.88 1052.19,6270.92 1050.97,6270.92C1046.37,6270.92 1035.84,6270.92 1031.25,6270.92C1030.02,6270.92 1029.03,6271.88 1029.03,6273.07C1029.03,6286.74 1029.03,6375.39 1029.03,6375.39C1029.03,6375.39 1036.67,6380.66 1039.76,6382.8C1040.53,6383.33 1041.55,6383.33 1042.32,6382.81C1045.44,6380.67 1053.18,6375.39 1053.18,6375.39L1053.18,6273.07Z" style="fill:white;"/>
        </g>
        <g transform="matrix(2.1008,0,0,1.72514,-21265.4,-1607.05)">
            <path d="M10238.7,4601.96L10197,4601.96C10196.6,4601.96 10196.3,4602.11 10196,4602.37C10195.7,4602.64 10195.6,4602.99 10195.6,4603.37C10195.6,4606.25 10195.6,4612.77 10195.6,4615.65C10195.6,4616.02 10195.7,4616.38 10196,4616.65C10196.3,4616.91 10196.6,4617.06 10197,4617.06C10204.4,4617.06 10238.7,4617.06 10238.7,4617.06L10238.7,4601.96ZM10220.4,4605.73C10222.5,4605.73 10224.2,4607.42 10224.2,4609.51C10224.2,4611.6 10222.5,4613.29 10220.4,4613.29C10218.3,4613.29 10216.6,4611.6 10216.6,4609.51C10216.6,4607.42 10218.3,4605.73 10220.4,4605.73ZM10205.5,4605.73C10207.6,4605.73 10209.3,4607.42 10209.3,4609.51C10209.3,4611.6 10207.6,4613.29 10205.5,4613.29C10203.4,4613.29 10201.7,4611.6 10201.7,4609.51C10201.7,4607.42 10203.4,4605.73 10205.5,4605.73Z" style="fill:white;"/>
        </g>
        <g transform="matrix(2.1008,0,0,1.72514,-21265.4,-1607.05)">
            <path d="M10276.6,4603.37C10276.6,4602.99 10276.5,4602.64 10276.2,4602.37C10276,4602.11 10275.6,4601.96 10275.2,4601.96C10268.5,4601.96 10240.3,4601.96 10240.3,4601.96L10240.3,4617.06L10275.2,4617.06C10275.6,4617.06 10276,4616.91 10276.2,4616.65C10276.5,4616.38 10276.6,4616.02 10276.6,4615.65C10276.6,4612.77 10276.6,4606.25 10276.6,4603.37ZM10252.1,4605.73C10254.2,4605.73 10255.9,4607.42 10255.9,4609.51C10255.9,4611.6 10254.2,4613.29 10252.1,4613.29C10250,4613.29 10248.3,4611.6 10248.3,4609.51C10248.3,4607.42 10250,4605.73 10252.1,4605.73ZM10267,4605.73C10269.1,4605.73 10270.8,4607.42 10270.8,4609.51C10270.8,4611.6 10269.1,4613.29 10267,4613.29C10264.9,4613.29 10263.2,4611.6 10263.2,4609.51C10263.2,4607.42 10264.9,4605.73 10267,4605.73Z" style="fill:white;"/>
        </g>
    </g>
</svg>
