<?xml version="1.0" encoding="UTF-8" standalone="no"?>
<!DOCTYPE svg PUBLIC "-//W3C//DTD SVG 1.1//EN" "http://www.w3.org/Graphics/SVG/1.1/DTD/svg11.dtd">
<svg width="100%" height="100%" viewBox="0 0 512 512" version="1.1" xmlns="http://www.w3.org/2000/svg" xmlns:xlink="http://www.w3.org/1999/xlink" xml:space="preserve" xmlns:serif="http://www.serif.com/" style="fill-rule:evenodd;clip-rule:evenodd;stroke-linejoin:round;stroke-miterlimit:2;">
    <g id="VolumeIcon" transform="matrix(22.422,0,0,27.3045,11689.9,-168902)">
        <g transform="matrix(1.191,0,0,0.978031,-1212.72,2853.82)">
            <path d="M587.417,3412.62L582.707,3412.62C581.841,3412.62 581.137,3413.32 581.137,3414.18L581.137,3418.83C581.137,3419.7 581.841,3420.4 582.707,3420.4L587.417,3420.4L587.417,3412.62Z" style="fill:white;"/>
        </g>
        <g transform="matrix(9.73348e-17,-1.30535,1.07298,5.39525e-17,-4178.61,6965.12)">
            <path d="M589.766,3410.36C589.766,3410.36 594.168,3417.12 595.724,3419.51C595.816,3419.65 595.842,3419.86 595.79,3420.04C595.739,3420.22 595.62,3420.33 595.488,3420.33C593.179,3420.33 586.353,3420.33 584.044,3420.33C583.912,3420.33 583.793,3420.22 583.741,3420.04C583.69,3419.86 583.715,3419.65 583.807,3419.51C585.363,3417.12 589.766,3410.36 589.766,3410.36Z" style="fill:white;"/>
        </g>
        <g transform="matrix(1.191,0,0,0.978031,-1212.72,2853.86)">
            <path d="M593.136,3409.03C593.136,3408.98 593.158,3408.94 593.195,3408.91C593.233,3408.88 593.281,3408.87 593.326,3408.89C596.631,3409.86 599.009,3412.92 599.009,3416.5C599.009,3420.1 596.61,3423.14 593.326,3424.11C593.281,3424.12 593.233,3424.12 593.195,3424.09C593.158,3424.06 593.136,3424.02 593.136,3423.97C593.136,3423.55 593.136,3422.6 593.136,3422.28C593.136,3422.22 593.174,3422.16 593.232,3422.14C595.501,3421.27 597.113,3419.07 597.113,3416.5C597.113,3413.94 595.514,3411.73 593.232,3410.86C593.174,3410.83 593.136,3410.78 593.136,3410.72C593.136,3410.4 593.136,3409.45 593.136,3409.03Z" style="fill:white;"/>
        </g>
        <g transform="matrix(1.191,0,0,0.978031,-1212.75,2853.86)">
            <path d="M593.168,3412.58C593.168,3412.57 593.175,3412.55 593.188,3412.55C593.2,3412.54 593.215,3412.54 593.226,3412.55C594.535,3413.43 595.387,3414.93 595.387,3416.61C595.387,3418.3 594.529,3419.79 593.226,3420.67C593.215,3420.68 593.2,3420.68 593.188,3420.68C593.176,3420.67 593.168,3420.66 593.168,3420.64C593.168,3419.89 593.168,3413.33 593.168,3412.58Z" style="fill:white;"/>
        </g>
    </g>
</svg>
