<?xml version="1.0" encoding="UTF-8" standalone="no"?>
<!DOCTYPE svg PUBLIC "-//W3C//DTD SVG 1.1//EN" "http://www.w3.org/Graphics/SVG/1.1/DTD/svg11.dtd">
<svg width="100%" height="100%" viewBox="0 0 512 512" version="1.1" xmlns="http://www.w3.org/2000/svg" xmlns:xlink="http://www.w3.org/1999/xlink" xml:space="preserve" xmlns:serif="http://www.serif.com/" style="fill-rule:evenodd;clip-rule:evenodd;stroke-linejoin:round;stroke-miterlimit:2;">
    <g id="WebcamIcon" transform="matrix(7.79269,0,0,7.79269,-16785.2,-1980.23)">
        <path d="M2206.95,317.379L2166.68,317.379C2164.42,317.379 2162.58,315.562 2162.57,313.321L2162.57,313.321L2162.57,313.32L2162.57,313.315C2162.57,313.003 2162.61,312.699 2162.68,312.408C2163.45,308.306 2168.3,304.795 2175.17,302.905C2178.55,304.994 2182.54,306.202 2186.82,306.202C2191.09,306.202 2195.08,304.994 2198.46,302.905C2205.34,304.795 2210.18,308.307 2210.96,312.408C2211.02,312.7 2211.06,313.003 2211.06,313.315L2211.06,313.32L2211.06,313.321L2211.06,313.321C2211.05,315.562 2209.21,317.379 2206.95,317.379ZM2186.82,256.551C2199.72,256.551 2210.19,266.9 2210.19,279.648C2210.19,292.396 2199.72,302.745 2186.82,302.745C2173.91,302.745 2163.44,292.396 2163.44,279.648C2163.44,266.9 2173.91,256.551 2186.82,256.551ZM2186.82,270.694C2193.76,270.694 2199.39,276.262 2199.39,283.121C2199.39,289.979 2193.76,295.547 2186.82,295.547C2179.88,295.547 2174.24,289.979 2174.24,283.121C2174.24,276.262 2179.88,270.694 2186.82,270.694ZM2186.82,274.437C2191.73,274.437 2195.73,278.383 2195.73,283.243C2195.73,288.103 2191.73,292.049 2186.82,292.049C2181.9,292.049 2177.9,288.103 2177.9,283.243C2177.9,278.383 2181.9,274.437 2186.82,274.437ZM2186.82,277.927C2189.78,277.927 2192.19,280.309 2192.19,283.243C2192.19,286.177 2189.78,288.558 2186.82,288.558C2183.85,288.558 2181.44,286.177 2181.44,283.243C2181.44,280.309 2183.85,277.927 2186.82,277.927ZM2186.82,260.179C2187.83,260.179 2188.66,260.996 2188.66,262.003C2188.66,263.01 2187.83,263.827 2186.82,263.827C2185.8,263.827 2184.97,263.01 2184.97,262.003C2184.97,260.996 2185.8,260.179 2186.82,260.179Z" style="fill:white;"/>
    </g>
</svg>
