<?xml version="1.0" encoding="UTF-8" standalone="no"?>
<!DOCTYPE svg PUBLIC "-//W3C//DTD SVG 1.1//EN" "http://www.w3.org/Graphics/SVG/1.1/DTD/svg11.dtd">
<svg width="100%" height="100%" viewBox="0 0 512 512" version="1.1" xmlns="http://www.w3.org/2000/svg" xmlns:xlink="http://www.w3.org/1999/xlink" xml:space="preserve" xmlns:serif="http://www.serif.com/" style="fill-rule:evenodd;clip-rule:evenodd;stroke-linejoin:round;stroke-miterlimit:2;">
    <g id="Weights-Icon" serif:id="Weights Icon" transform="matrix(6.30573,0,0,6.30573,-9560.97,-4052)">
        <path d="M1533.14,665.184C1534.7,665.184 1535.96,666.446 1535.96,668L1535.96,698.378C1535.96,699.932 1534.7,701.194 1533.14,701.194L1527.51,701.194C1525.96,701.194 1524.7,699.932 1524.7,698.378L1524.7,697.21C1524.6,697.224 1524.51,697.232 1524.41,697.232L1520.65,697.232C1519.61,697.232 1518.77,696.389 1518.77,695.35L1518.77,671.027C1518.77,669.989 1519.61,669.146 1520.65,669.146L1524.41,669.146C1524.51,669.146 1524.6,669.154 1524.7,669.168L1524.7,668C1524.7,666.446 1525.96,665.184 1527.51,665.184L1533.14,665.184ZM1586.15,701.194L1580.52,701.194C1578.97,701.194 1577.71,699.932 1577.71,698.378L1577.71,668C1577.71,666.446 1578.97,665.184 1580.52,665.184L1586.15,665.184C1587.71,665.184 1588.97,666.446 1588.97,668L1588.97,669.168C1589.07,669.154 1589.16,669.146 1589.26,669.146L1593.02,669.146C1594.06,669.146 1594.9,669.989 1594.9,671.027L1594.9,695.35C1594.9,696.389 1594.06,697.232 1593.02,697.232L1589.26,697.232C1589.16,697.232 1589.07,697.224 1588.97,697.21L1588.97,698.378C1588.97,699.932 1587.71,701.194 1586.15,701.194ZM1539.26,677.74L1574.41,677.74L1574.41,688.638L1539.26,688.638L1539.26,677.74Z" style="fill:white;"/>
    </g>
</svg>
