<?xml version="1.0" encoding="UTF-8" standalone="no"?>
<!DOCTYPE svg PUBLIC "-//W3C//DTD SVG 1.1//EN" "http://www.w3.org/Graphics/SVG/1.1/DTD/svg11.dtd">
<svg width="100%" height="100%" viewBox="0 0 512 512" version="1.1" xmlns="http://www.w3.org/2000/svg" xmlns:xlink="http://www.w3.org/1999/xlink" xml:space="preserve" xmlns:serif="http://www.serif.com/" style="fill-rule:evenodd;clip-rule:evenodd;stroke-linejoin:round;stroke-miterlimit:2;">
    <g id="WifiIcon" transform="matrix(6.97308,0,0,6.97308,-13536.4,-5198.66)">
        <path d="M1947.87,798.601C1951.37,795.145 1957.05,795.145 1960.55,798.601C1964.04,802.058 1964.04,807.67 1960.55,811.126C1957.05,814.583 1951.37,814.583 1947.87,811.126C1944.37,807.67 1944.37,802.058 1947.87,798.601ZM2010.58,811.288L2003.24,811.289C2003.94,797.459 1999,783.402 1988.31,772.838C1977.62,762.275 1963.4,757.397 1949.4,758.084L1949.4,750.827C1965.28,750.145 1981.38,755.728 1993.5,767.708C2005.62,779.689 2011.28,795.6 2010.58,811.288ZM1995.9,811.288L1988.56,811.289C1989.27,801.178 1985.75,790.831 1977.92,783.101C1970.1,775.372 1959.63,771.892 1949.4,772.597L1949.4,765.339C1961.51,764.646 1973.86,768.824 1983.12,777.969C1992.37,787.116 1996.6,799.317 1995.9,811.288ZM1981.21,811.288L1973.83,811.289C1974.58,804.905 1972.5,798.26 1967.54,793.362C1962.59,788.467 1955.86,786.407 1949.4,787.151L1949.4,779.852C1957.75,779.134 1966.34,781.92 1972.73,788.231C1979.12,794.545 1981.94,803.042 1981.21,811.288Z" style="fill:white;"/>
    </g>
</svg>
