<?xml version="1.0" encoding="UTF-8" standalone="no"?>
<!DOCTYPE svg PUBLIC "-//W3C//DTD SVG 1.1//EN" "http://www.w3.org/Graphics/SVG/1.1/DTD/svg11.dtd">
<svg width="100%" height="100%" viewBox="0 0 512 512" version="1.1" xmlns="http://www.w3.org/2000/svg" xmlns:xlink="http://www.w3.org/1999/xlink" xml:space="preserve" xmlns:serif="http://www.serif.com/" style="fill-rule:evenodd;clip-rule:evenodd;stroke-linejoin:round;stroke-miterlimit:2;">
    <g id="WingsHaloIcon" transform="matrix(3.16334,0,0,3.16334,-6514.36,-2431.15)">
        <g id="WingIcon" transform="matrix(0.328413,-0.568828,0.562095,0.324526,1774.18,705.083)">
            <path d="M41.831,577.66C35.249,581.663 19.884,581.606 18.138,565.303C9.179,564.027 4.351,555.401 6.888,543.571C0.821,540.274 -3.011,520.832 10.902,514.989C12.24,522.768 15.505,534.156 39.165,532.431C65.18,530.534 78.552,542.225 79.598,561.062C81.173,589.448 54.083,588.106 48.934,579.98C42.87,570.411 52.067,560.537 58.398,562.752C51.168,557.634 39.536,562.636 41.831,577.66Z" style="fill:white;"/>
        </g>
        <g id="WingIcon1" serif:id="WingIcon" transform="matrix(-0.328413,-0.568828,-0.562095,0.324526,2506.33,705.083)">
            <path d="M41.831,577.66C35.249,581.663 19.884,581.606 18.138,565.303C9.179,564.027 4.351,555.401 6.888,543.571C0.821,540.274 -3.011,520.832 10.902,514.989C12.24,522.768 15.505,534.156 39.165,532.431C65.18,530.534 78.552,542.225 79.598,561.062C81.173,589.448 54.083,588.106 48.934,579.98C42.87,570.411 52.067,560.537 58.398,562.752C51.168,557.634 39.536,562.636 41.831,577.66Z" style="fill:white;"/>
        </g>
        <g transform="matrix(1,0,0,1,1.16406,0)">
            <path d="M2139.27,816.946L2139.45,816.947L2139.63,816.948L2139.8,816.95L2139.98,816.953L2140.16,816.956L2140.33,816.959L2140.51,816.963L2140.68,816.967L2140.86,816.972L2141.03,816.978L2141.21,816.984L2141.38,816.99L2141.56,816.997L2141.73,817.005L2141.9,817.013L2142.08,817.021L2142.25,817.03L2142.42,817.04L2142.6,817.05L2142.77,817.061L2142.94,817.072L2143.11,817.083L2143.28,817.095L2143.45,817.108L2143.62,817.121L2143.79,817.134L2143.96,817.148L2144.13,817.163L2144.3,817.177L2144.47,817.193L2144.64,817.209L2144.8,817.225L2144.97,817.242L2145.14,817.259L2145.3,817.277L2145.47,817.296L2145.64,817.314L2145.8,817.334L2145.97,817.353L2146.13,817.373L2146.3,817.394L2146.46,817.415L2146.62,817.437L2146.78,817.459L2146.95,817.481L2147.11,817.504L2147.27,817.527L2147.43,817.551L2147.59,817.576L2147.75,817.6L2147.91,817.625L2148.07,817.651L2148.23,817.677L2148.39,817.704L2148.55,817.731L2148.71,817.758L2148.86,817.786L2149.02,817.814L2149.18,817.843L2149.33,817.872L2149.49,817.902L2149.64,817.932L2149.8,817.962L2149.95,817.993L2150.11,818.024L2150.26,818.056L2150.41,818.088L2150.56,818.121L2150.72,818.154L2150.87,818.187L2151.02,818.221L2151.17,818.255L2151.32,818.29L2151.47,818.325L2151.61,818.361L2151.76,818.396L2151.91,818.433L2152.06,818.469L2152.2,818.507L2152.35,818.544L2152.49,818.582L2152.64,818.62L2152.78,818.659L2152.93,818.698L2153.07,818.738L2153.21,818.778L2153.36,818.818L2153.5,818.859L2153.64,818.9L2153.78,818.941L2153.92,818.983L2154.06,819.025L2154.2,819.068L2154.33,819.111L2154.47,819.154L2154.61,819.198L2154.74,819.242L2154.88,819.286L2155.02,819.331L2155.15,819.377L2155.28,819.422L2155.42,819.468L2155.55,819.514L2155.68,819.561L2155.81,819.608L2155.95,819.656L2156.08,819.703L2156.2,819.752L2156.33,819.8L2156.46,819.849L2156.59,819.898L2156.72,819.948L2156.84,819.998L2156.97,820.048L2157.1,820.099L2157.22,820.15L2157.34,820.201L2157.47,820.252L2157.59,820.304L2157.71,820.357L2157.83,820.409L2157.95,820.462L2158.07,820.516L2158.19,820.569L2158.31,820.623L2158.43,820.678L2158.55,820.732L2158.66,820.787L2158.78,820.843L2158.89,820.898L2159.01,820.954L2159.12,821.011L2159.23,821.067L2159.35,821.124L2159.46,821.181L2159.57,821.239L2159.68,821.297L2159.79,821.355L2159.89,821.413L2160,821.472L2160.11,821.531L2160.22,821.59L2160.32,821.65L2160.43,821.71L2160.53,821.77L2160.63,821.831L2160.74,821.892L2160.84,821.953L2160.94,822.015L2161.04,822.076L2161.14,822.138L2161.24,822.201L2161.34,822.263L2161.43,822.326L2161.53,822.389L2161.62,822.453L2161.72,822.517L2161.81,822.581L2161.91,822.645L2162,822.71L2162.09,822.774L2162.18,822.84L2162.27,822.905L2162.36,822.971L2162.45,823.037L2162.53,823.103L2162.62,823.169L2162.71,823.236L2162.79,823.303L2162.88,823.37L2162.96,823.438L2163.04,823.506L2163.12,823.574L2163.2,823.642L2163.28,823.71L2163.36,823.779L2163.44,823.848L2163.52,823.917L2163.6,823.987L2163.67,824.057L2163.75,824.127L2163.82,824.197L2163.89,824.267L2163.96,824.338L2164.03,824.409L2164.11,824.48L2164.18,824.552L2164.24,824.623L2164.31,824.695L2164.38,824.767L2164.44,824.84L2164.51,824.912L2164.57,824.985L2164.64,825.058L2164.7,825.131L2164.76,825.205L2164.82,825.278L2164.88,825.352L2164.94,825.426L2164.99,825.501L2165.05,825.575L2165.11,825.65L2165.16,825.725L2165.21,825.8L2165.27,825.875L2165.32,825.951L2165.37,826.027L2165.42,826.103L2165.47,826.179L2165.52,826.255L2165.56,826.332L2165.61,826.408L2165.65,826.485L2165.68,826.524L2165.7,826.562L2165.72,826.601L2165.74,826.64L2165.76,826.678L2165.78,826.717L2165.8,826.756L2165.82,826.795L2165.84,826.834L2165.86,826.873L2165.88,826.912L2165.9,826.951L2165.92,826.99L2165.94,827.029L2165.96,827.068L2165.98,827.107L2165.99,827.146L2166.01,827.186L2166.03,827.225L2166.05,827.264L2166.07,827.304L2166.08,827.343L2166.1,827.383L2166.11,827.422L2166.13,827.462L2166.15,827.502L2166.16,827.541L2166.18,827.581L2166.19,827.621L2166.21,827.661L2166.22,827.701L2166.24,827.741L2166.25,827.78L2166.26,827.82L2166.28,827.86L2166.29,827.901L2166.3,827.941L2166.32,827.981L2166.33,828.021L2166.34,828.061L2166.35,828.101L2166.36,828.142L2166.38,828.182L2166.39,828.222L2166.4,828.263L2166.41,828.303L2166.42,828.344L2166.43,828.384L2166.44,828.425L2166.45,828.466L2166.46,828.506L2166.47,828.547L2166.47,828.588L2166.48,828.628L2166.49,828.669L2166.5,828.71L2166.51,828.751L2166.51,828.792L2166.52,828.833L2166.53,828.874L2166.53,828.915L2166.54,828.956L2166.55,828.997L2166.55,829.038L2166.56,829.079L2166.56,829.12L2166.57,829.161L2166.57,829.203L2166.58,829.244L2166.58,829.285L2166.58,829.327L2166.59,829.368L2166.59,829.409L2166.59,829.451L2166.6,829.492L2166.6,829.534L2166.6,829.575L2166.6,829.617L2166.6,829.659L2166.61,829.7L2166.61,829.742L2166.61,829.784L2166.61,829.825L2166.61,829.867L2166.61,829.909L2166.61,829.951L2166.61,829.992L2166.61,830.034L2166.6,830.076L2166.6,830.117L2166.6,830.159L2166.6,830.2L2166.6,830.242L2166.59,830.283L2166.59,830.325L2166.59,830.366L2166.58,830.408L2166.58,830.449L2166.58,830.49L2166.57,830.532L2166.57,830.573L2166.56,830.614L2166.56,830.655L2166.55,830.696L2166.55,830.738L2166.54,830.779L2166.53,830.82L2166.53,830.861L2166.52,830.902L2166.51,830.943L2166.51,830.984L2166.5,831.024L2166.49,831.065L2166.48,831.106L2166.47,831.147L2166.47,831.187L2166.46,831.228L2166.45,831.269L2166.44,831.309L2166.43,831.35L2166.42,831.391L2166.41,831.431L2166.4,831.471L2166.39,831.512L2166.38,831.552L2166.36,831.593L2166.35,831.633L2166.34,831.673L2166.33,831.713L2166.32,831.754L2166.3,831.794L2166.29,831.834L2166.28,831.874L2166.26,831.914L2166.25,831.954L2166.24,831.994L2166.22,832.034L2166.21,832.074L2166.19,832.113L2166.18,832.153L2166.16,832.193L2166.15,832.233L2166.13,832.272L2166.11,832.312L2166.1,832.351L2166.08,832.391L2166.07,832.43L2166.05,832.47L2166.03,832.509L2166.01,832.549L2165.99,832.588L2165.98,832.627L2165.96,832.666L2165.94,832.706L2165.92,832.745L2165.9,832.784L2165.88,832.823L2165.86,832.862L2165.84,832.901L2165.82,832.94L2165.8,832.978L2165.78,833.017L2165.76,833.056L2165.74,833.095L2165.72,833.133L2165.7,833.172L2165.68,833.211L2165.65,833.249L2165.61,833.326L2165.56,833.403L2165.52,833.479L2165.47,833.556L2165.42,833.632L2165.37,833.708L2165.32,833.783L2165.27,833.859L2165.21,833.934L2165.16,834.009L2165.11,834.084L2165.05,834.159L2164.99,834.234L2164.94,834.308L2164.88,834.382L2164.82,834.456L2164.76,834.53L2164.7,834.603L2164.64,834.676L2164.57,834.749L2164.51,834.822L2164.44,834.895L2164.38,834.967L2164.31,835.039L2164.24,835.111L2164.18,835.183L2164.11,835.254L2164.03,835.325L2163.96,835.396L2163.89,835.467L2163.82,835.537L2163.75,835.608L2163.67,835.678L2163.6,835.747L2163.52,835.817L2163.44,835.886L2163.36,835.955L2163.28,836.024L2163.2,836.093L2163.12,836.161L2163.04,836.229L2162.96,836.297L2162.88,836.364L2162.79,836.431L2162.71,836.498L2162.62,836.565L2162.53,836.632L2162.45,836.698L2162.36,836.764L2162.27,836.829L2162.18,836.895L2162.09,836.96L2162,837.025L2161.91,837.089L2161.81,837.154L2161.72,837.218L2161.62,837.281L2161.53,837.345L2161.43,837.408L2161.34,837.471L2161.24,837.534L2161.14,837.596L2161.04,837.658L2160.94,837.72L2160.84,837.781L2160.74,837.842L2160.63,837.903L2160.53,837.964L2160.43,838.024L2160.32,838.084L2160.22,838.144L2160.11,838.203L2160,838.262L2159.89,838.321L2159.79,838.38L2159.68,838.438L2159.57,838.496L2159.46,838.553L2159.35,838.61L2159.23,838.667L2159.12,838.724L2159.01,838.78L2158.89,838.836L2158.78,838.892L2158.66,838.947L2158.55,839.002L2158.43,839.057L2158.31,839.111L2158.19,839.165L2158.07,839.219L2157.95,839.272L2157.83,839.325L2157.71,839.378L2157.59,839.43L2157.47,839.482L2157.34,839.534L2157.22,839.585L2157.1,839.636L2156.97,839.686L2156.84,839.737L2156.72,839.787L2156.59,839.836L2156.46,839.885L2156.33,839.934L2156.2,839.983L2156.08,840.031L2155.95,840.079L2155.81,840.126L2155.68,840.173L2155.55,840.22L2155.42,840.266L2155.28,840.312L2155.15,840.358L2155.02,840.403L2154.88,840.448L2154.74,840.492L2154.61,840.536L2154.47,840.58L2154.33,840.624L2154.2,840.667L2154.06,840.709L2153.92,840.751L2153.78,840.793L2153.64,840.835L2153.5,840.876L2153.36,840.916L2153.21,840.957L2153.07,840.997L2152.93,841.036L2152.78,841.075L2152.64,841.114L2152.49,841.152L2152.35,841.19L2152.2,841.228L2152.06,841.265L2151.91,841.302L2151.76,841.338L2151.61,841.374L2151.47,841.409L2151.32,841.444L2151.17,841.479L2151.02,841.513L2150.87,841.547L2150.72,841.58L2150.56,841.613L2150.41,841.646L2150.26,841.678L2150.11,841.71L2149.95,841.741L2149.8,841.772L2149.64,841.803L2149.49,841.833L2149.33,841.862L2149.18,841.891L2149.02,841.92L2148.86,841.948L2148.71,841.976L2148.55,842.004L2148.39,842.031L2148.23,842.057L2148.07,842.083L2147.91,842.109L2147.75,842.134L2147.59,842.159L2147.43,842.183L2147.27,842.207L2147.11,842.23L2146.95,842.253L2146.78,842.276L2146.62,842.298L2146.46,842.319L2146.3,842.34L2146.13,842.361L2145.97,842.381L2145.8,842.401L2145.64,842.42L2145.47,842.439L2145.3,842.457L2145.14,842.475L2144.97,842.492L2144.8,842.509L2144.64,842.525L2144.47,842.541L2144.3,842.557L2144.13,842.572L2143.96,842.586L2143.79,842.6L2143.62,842.614L2143.45,842.627L2143.28,842.639L2143.11,842.651L2142.94,842.663L2142.77,842.674L2142.6,842.684L2142.42,842.694L2142.25,842.704L2142.08,842.713L2141.9,842.721L2141.73,842.729L2141.56,842.737L2141.38,842.744L2141.21,842.75L2141.03,842.756L2140.86,842.762L2140.68,842.767L2140.51,842.771L2140.33,842.775L2140.16,842.779L2139.98,842.782L2139.8,842.784L2139.63,842.786L2139.45,842.787L2139.27,842.788L2139.09,842.788L2138.91,842.788L2138.74,842.787L2138.56,842.786L2138.38,842.784L2138.21,842.782L2138.03,842.779L2137.85,842.775L2137.68,842.771L2137.5,842.767L2137.33,842.762L2137.15,842.756L2136.98,842.75L2136.8,842.744L2136.63,842.737L2136.45,842.729L2136.28,842.721L2136.11,842.713L2135.93,842.704L2135.76,842.694L2135.59,842.684L2135.42,842.674L2135.25,842.663L2135.08,842.651L2134.91,842.639L2134.74,842.627L2134.56,842.614L2134.39,842.6L2134.22,842.586L2134.06,842.572L2133.89,842.557L2133.72,842.541L2133.55,842.525L2133.38,842.509L2133.22,842.492L2133.05,842.475L2132.88,842.457L2132.72,842.439L2132.55,842.42L2132.39,842.401L2132.22,842.381L2132.06,842.361L2131.89,842.34L2131.73,842.319L2131.56,842.298L2131.4,842.276L2131.24,842.253L2131.08,842.23L2130.91,842.207L2130.75,842.183L2130.59,842.159L2130.43,842.134L2130.27,842.109L2130.11,842.083L2129.95,842.057L2129.8,842.031L2129.64,842.004L2129.48,841.976L2129.32,841.948L2129.16,841.92L2129.01,841.891L2128.85,841.862L2128.7,841.833L2128.54,841.803L2128.39,841.772L2128.23,841.741L2128.08,841.71L2127.93,841.678L2127.77,841.646L2127.62,841.613L2127.47,841.58L2127.32,841.547L2127.17,841.513L2127.02,841.479L2126.87,841.444L2126.72,841.409L2126.57,841.374L2126.42,841.338L2126.28,841.302L2126.13,841.265L2125.98,841.228L2125.84,841.19L2125.69,841.152L2125.55,841.114L2125.4,841.075L2125.26,841.036L2125.12,840.997L2124.97,840.957L2124.83,840.916L2124.69,840.876L2124.55,840.835L2124.41,840.793L2124.27,840.751L2124.13,840.709L2123.99,840.667L2123.85,840.624L2123.71,840.58L2123.58,840.536L2123.44,840.492L2123.3,840.448L2123.17,840.403L2123.03,840.358L2122.9,840.312L2122.77,840.266L2122.64,840.22L2122.5,840.173L2122.37,840.126L2122.24,840.079L2122.11,840.031L2121.98,839.983L2121.85,839.934L2121.72,839.885L2121.6,839.836L2121.47,839.787L2121.34,839.737L2121.22,839.686L2121.09,839.636L2120.97,839.585L2120.84,839.534L2120.72,839.482L2120.6,839.43L2120.47,839.378L2120.35,839.325L2120.23,839.272L2120.11,839.219L2119.99,839.165L2119.88,839.111L2119.76,839.057L2119.64,839.002L2119.53,838.947L2119.41,838.892L2119.29,838.836L2119.18,838.78L2119.07,838.724L2118.95,838.667L2118.84,838.61L2118.73,838.553L2118.62,838.496L2118.51,838.438L2118.4,838.38L2118.29,838.321L2118.18,838.262L2118.08,838.203L2117.97,838.144L2117.87,838.084L2117.76,838.024L2117.66,837.964L2117.55,837.903L2117.45,837.842L2117.35,837.781L2117.25,837.72L2117.15,837.658L2117.05,837.596L2116.95,837.534L2116.85,837.471L2116.75,837.408L2116.66,837.345L2116.56,837.281L2116.47,837.218L2116.37,837.154L2116.28,837.089L2116.19,837.025L2116.1,836.96L2116.01,836.895L2115.92,836.829L2115.83,836.764L2115.74,836.698L2115.65,836.632L2115.56,836.565L2115.48,836.498L2115.39,836.431L2115.31,836.364L2115.23,836.297L2115.14,836.229L2115.06,836.161L2114.98,836.093L2114.9,836.024L2114.82,835.955L2114.74,835.886L2114.67,835.817L2114.59,835.747L2114.51,835.678L2114.44,835.608L2114.37,835.537L2114.29,835.467L2114.22,835.396L2114.15,835.325L2114.08,835.254L2114.01,835.183L2113.94,835.111L2113.88,835.039L2113.81,834.967L2113.74,834.895L2113.68,834.822L2113.61,834.749L2113.55,834.676L2113.49,834.603L2113.43,834.53L2113.37,834.456L2113.31,834.382L2113.25,834.308L2113.19,834.234L2113.14,834.159L2113.08,834.084L2113.03,834.009L2112.97,833.934L2112.92,833.859L2112.87,833.783L2112.82,833.708L2112.77,833.632L2112.72,833.556L2112.67,833.479L2112.62,833.403L2112.58,833.326L2112.53,833.249L2112.51,833.211L2112.49,833.172L2112.47,833.133L2112.45,833.095L2112.43,833.056L2112.4,833.017L2112.38,832.978L2112.36,832.94L2112.34,832.901L2112.32,832.862L2112.3,832.823L2112.28,832.784L2112.26,832.745L2112.25,832.706L2112.23,832.666L2112.21,832.627L2112.19,832.588L2112.17,832.549L2112.16,832.509L2112.14,832.47L2112.12,832.43L2112.1,832.391L2112.09,832.351L2112.07,832.312L2112.05,832.272L2112.04,832.233L2112.02,832.193L2112.01,832.153L2111.99,832.113L2111.98,832.074L2111.97,832.034L2111.95,831.994L2111.94,831.954L2111.92,831.914L2111.91,831.874L2111.9,831.834L2111.88,831.794L2111.87,831.754L2111.86,831.713L2111.85,831.673L2111.83,831.633L2111.82,831.593L2111.81,831.552L2111.8,831.512L2111.79,831.471L2111.78,831.431L2111.77,831.391L2111.76,831.35L2111.75,831.309L2111.74,831.269L2111.73,831.228L2111.72,831.187L2111.71,831.147L2111.7,831.106L2111.7,831.065L2111.69,831.024L2111.68,830.984L2111.67,830.943L2111.67,830.902L2111.66,830.861L2111.65,830.82L2111.65,830.779L2111.64,830.738L2111.64,830.696L2111.63,830.655L2111.62,830.614L2111.62,830.573L2111.62,830.532L2111.61,830.49L2111.61,830.449L2111.6,830.408L2111.6,830.366L2111.6,830.325L2111.59,830.283L2111.59,830.242L2111.59,830.2L2111.59,830.159L2111.58,830.117L2111.58,830.076L2111.58,830.034L2111.58,829.992L2111.58,829.951L2111.58,829.909L2111.58,829.867L2111.58,829.825L2111.58,829.784L2111.58,829.742L2111.58,829.7L2111.58,829.659L2111.58,829.617L2111.59,829.575L2111.59,829.534L2111.59,829.492L2111.59,829.451L2111.6,829.409L2111.6,829.368L2111.6,829.327L2111.61,829.285L2111.61,829.244L2111.62,829.203L2111.62,829.161L2111.62,829.12L2111.63,829.079L2111.64,829.038L2111.64,828.997L2111.65,828.956L2111.65,828.915L2111.66,828.874L2111.67,828.833L2111.67,828.792L2111.68,828.751L2111.69,828.71L2111.7,828.669L2111.7,828.628L2111.71,828.588L2111.72,828.547L2111.73,828.506L2111.74,828.466L2111.75,828.425L2111.76,828.384L2111.77,828.344L2111.78,828.303L2111.79,828.263L2111.8,828.222L2111.81,828.182L2111.82,828.142L2111.83,828.101L2111.85,828.061L2111.86,828.021L2111.87,827.981L2111.88,827.941L2111.9,827.901L2111.91,827.86L2111.92,827.82L2111.94,827.78L2111.95,827.741L2111.97,827.701L2111.98,827.661L2111.99,827.621L2112.01,827.581L2112.02,827.541L2112.04,827.502L2112.05,827.462L2112.07,827.422L2112.09,827.383L2112.1,827.343L2112.12,827.304L2112.14,827.264L2112.16,827.225L2112.17,827.186L2112.19,827.146L2112.21,827.107L2112.23,827.068L2112.25,827.029L2112.26,826.99L2112.28,826.951L2112.3,826.912L2112.32,826.873L2112.34,826.834L2112.36,826.795L2112.38,826.756L2112.4,826.717L2112.43,826.678L2112.45,826.64L2112.47,826.601L2112.49,826.562L2112.51,826.524L2112.53,826.485L2112.58,826.408L2112.62,826.332L2112.67,826.255L2112.72,826.179L2112.77,826.103L2112.82,826.027L2112.87,825.951L2112.92,825.875L2112.97,825.8L2113.03,825.725L2113.08,825.65L2113.14,825.575L2113.19,825.501L2113.25,825.426L2113.31,825.352L2113.37,825.278L2113.43,825.205L2113.49,825.131L2113.55,825.058L2113.61,824.985L2113.68,824.912L2113.74,824.84L2113.81,824.767L2113.88,824.695L2113.94,824.623L2114.01,824.552L2114.08,824.48L2114.15,824.409L2114.22,824.338L2114.29,824.267L2114.37,824.197L2114.44,824.127L2114.51,824.057L2114.59,823.987L2114.67,823.917L2114.74,823.848L2114.82,823.779L2114.9,823.71L2114.98,823.642L2115.06,823.574L2115.14,823.506L2115.23,823.438L2115.31,823.37L2115.39,823.303L2115.48,823.236L2115.56,823.169L2115.65,823.103L2115.74,823.037L2115.83,822.971L2115.92,822.905L2116.01,822.84L2116.1,822.774L2116.19,822.71L2116.28,822.645L2116.37,822.581L2116.47,822.517L2116.56,822.453L2116.66,822.389L2116.75,822.326L2116.85,822.263L2116.95,822.201L2117.05,822.138L2117.15,822.076L2117.25,822.015L2117.35,821.953L2117.45,821.892L2117.55,821.831L2117.66,821.77L2117.76,821.71L2117.87,821.65L2117.97,821.59L2118.08,821.531L2118.18,821.472L2118.29,821.413L2118.4,821.355L2118.51,821.297L2118.62,821.239L2118.73,821.181L2118.84,821.124L2118.95,821.067L2119.07,821.011L2119.18,820.954L2119.29,820.898L2119.41,820.843L2119.53,820.787L2119.64,820.732L2119.76,820.678L2119.88,820.623L2119.99,820.569L2120.11,820.516L2120.23,820.462L2120.35,820.409L2120.47,820.357L2120.6,820.304L2120.72,820.252L2120.84,820.201L2120.97,820.15L2121.09,820.099L2121.22,820.048L2121.34,819.998L2121.47,819.948L2121.6,819.898L2121.72,819.849L2121.85,819.8L2121.98,819.752L2122.11,819.703L2122.24,819.656L2122.37,819.608L2122.5,819.561L2122.64,819.514L2122.77,819.468L2122.9,819.422L2123.03,819.377L2123.17,819.331L2123.3,819.286L2123.44,819.242L2123.58,819.198L2123.71,819.154L2123.85,819.111L2123.99,819.068L2124.13,819.025L2124.27,818.983L2124.41,818.941L2124.55,818.9L2124.69,818.859L2124.83,818.818L2124.97,818.778L2125.12,818.738L2125.26,818.698L2125.4,818.659L2125.55,818.62L2125.69,818.582L2125.84,818.544L2125.98,818.507L2126.13,818.469L2126.28,818.433L2126.42,818.396L2126.57,818.361L2126.72,818.325L2126.87,818.29L2127.02,818.255L2127.17,818.221L2127.32,818.187L2127.47,818.154L2127.62,818.121L2127.77,818.088L2127.93,818.056L2128.08,818.024L2128.23,817.993L2128.39,817.962L2128.54,817.932L2128.7,817.902L2128.85,817.872L2129.01,817.843L2129.16,817.814L2129.32,817.786L2129.48,817.758L2129.64,817.731L2129.8,817.704L2129.95,817.677L2130.11,817.651L2130.27,817.625L2130.43,817.6L2130.59,817.576L2130.75,817.551L2130.91,817.527L2131.08,817.504L2131.24,817.481L2131.4,817.459L2131.56,817.437L2131.73,817.415L2131.89,817.394L2132.06,817.373L2132.22,817.353L2132.39,817.334L2132.55,817.314L2132.72,817.296L2132.88,817.277L2133.05,817.259L2133.22,817.242L2133.38,817.225L2133.55,817.209L2133.72,817.193L2133.89,817.177L2134.06,817.163L2134.22,817.148L2134.39,817.134L2134.56,817.121L2134.74,817.108L2134.91,817.095L2135.08,817.083L2135.25,817.072L2135.42,817.061L2135.59,817.05L2135.76,817.04L2135.93,817.03L2136.11,817.021L2136.28,817.013L2136.45,817.005L2136.63,816.997L2136.8,816.99L2136.98,816.984L2137.15,816.978L2137.33,816.972L2137.5,816.967L2137.68,816.963L2137.85,816.959L2138.03,816.956L2138.21,816.953L2138.38,816.95L2138.56,816.948L2138.74,816.947L2138.91,816.946L2139.09,816.946L2139.27,816.946ZM2138.93,822.946L2138.77,822.947L2138.61,822.948L2138.45,822.95L2138.3,822.952L2138.14,822.955L2137.98,822.958L2137.82,822.961L2137.66,822.965L2137.51,822.97L2137.35,822.975L2137.19,822.98L2137.03,822.986L2136.88,822.992L2136.72,822.999L2136.57,823.006L2136.41,823.014L2136.26,823.022L2136.1,823.03L2135.95,823.039L2135.8,823.049L2135.64,823.059L2135.49,823.069L2135.34,823.08L2135.18,823.091L2135.03,823.103L2134.88,823.115L2134.73,823.127L2134.58,823.14L2134.43,823.153L2134.28,823.167L2134.12,823.181L2133.98,823.196L2133.83,823.211L2133.68,823.226L2133.53,823.242L2133.38,823.258L2133.23,823.275L2133.09,823.292L2132.94,823.31L2132.79,823.328L2132.65,823.346L2132.5,823.365L2132.36,823.384L2132.21,823.403L2132.07,823.423L2131.93,823.444L2131.78,823.464L2131.64,823.485L2131.5,823.507L2131.36,823.529L2131.22,823.551L2131.07,823.574L2130.93,823.597L2130.79,823.62L2130.65,823.644L2130.51,823.668L2130.38,823.692L2130.24,823.717L2130.1,823.743L2129.97,823.768L2129.83,823.794L2129.69,823.82L2129.56,823.847L2129.42,823.874L2129.29,823.901L2129.15,823.929L2129.02,823.957L2128.89,823.986L2128.76,824.014L2128.62,824.044L2128.49,824.073L2128.36,824.103L2128.23,824.133L2128.1,824.163L2127.98,824.194L2127.85,824.225L2127.72,824.256L2127.59,824.288L2127.47,824.32L2127.34,824.353L2127.22,824.385L2127.09,824.418L2126.97,824.451L2126.84,824.485L2126.72,824.519L2126.6,824.553L2126.48,824.587L2126.36,824.622L2126.24,824.657L2126.12,824.692L2126,824.728L2125.88,824.764L2125.76,824.8L2125.64,824.836L2125.53,824.873L2125.41,824.91L2125.3,824.947L2125.18,824.984L2125.07,825.022L2124.96,825.06L2124.85,825.098L2124.73,825.137L2124.62,825.175L2124.51,825.214L2124.41,825.253L2124.3,825.293L2124.19,825.332L2124.08,825.372L2123.97,825.412L2123.87,825.452L2123.76,825.493L2123.66,825.533L2123.56,825.574L2123.45,825.615L2123.35,825.656L2123.25,825.698L2123.15,825.739L2123.05,825.781L2122.95,825.823L2122.86,825.865L2122.76,825.907L2122.66,825.949L2122.57,825.992L2122.47,826.035L2122.38,826.077L2122.28,826.12L2122.19,826.163L2122.1,826.207L2122.01,826.25L2121.92,826.293L2121.83,826.337L2121.74,826.38L2121.66,826.424L2121.57,826.468L2121.48,826.512L2121.4,826.556L2121.32,826.6L2121.23,826.644L2121.15,826.688L2121.07,826.732L2120.99,826.777L2120.91,826.821L2120.83,826.865L2120.76,826.91L2120.68,826.954L2120.6,826.998L2120.53,827.043L2120.45,827.087L2120.38,827.131L2120.31,827.176L2120.24,827.22L2120.17,827.264L2120.1,827.308L2120.03,827.353L2119.96,827.397L2119.9,827.441L2119.83,827.485L2119.77,827.528L2119.7,827.572L2119.64,827.616L2119.58,827.659L2119.52,827.703L2119.46,827.746L2119.4,827.789L2119.35,827.832L2119.29,827.875L2119.23,827.917L2119.18,827.96L2119.12,828.002L2119.07,828.044L2119.02,828.086L2118.97,828.127L2118.92,828.169L2118.87,828.21L2118.82,828.25L2118.78,828.291L2118.73,828.331L2118.69,828.371L2118.64,828.411L2118.6,828.45L2118.56,828.489L2118.52,828.527L2118.48,828.566L2118.44,828.603L2118.4,828.641L2118.37,828.678L2118.33,828.715L2118.3,828.751L2118.26,828.787L2118.23,828.822L2118.2,828.857L2118.17,828.891L2118.14,828.925L2118.11,828.958L2118.08,828.991L2118.05,829.024L2118.03,829.055L2118,829.087L2117.98,829.118L2117.96,829.148L2117.93,829.177L2117.91,829.206L2117.89,829.234L2117.87,829.262L2117.85,829.289L2117.84,829.316L2117.82,829.342L2117.8,829.367L2117.78,829.391L2117.77,829.415L2117.76,829.439L2117.74,829.461L2117.73,829.49L2117.72,829.494L2117.72,829.504L2117.71,829.515L2117.71,829.525L2117.7,829.535L2117.7,829.545L2117.69,829.554L2117.69,829.563L2117.68,829.573L2117.68,829.582L2117.67,829.591L2117.67,829.6L2117.66,829.608L2117.66,829.617L2117.66,829.625L2117.65,829.633L2117.65,829.641L2117.64,829.648L2117.64,829.656L2117.64,829.664L2117.64,829.671L2117.63,829.678L2117.63,829.684L2117.63,829.691L2117.62,829.698L2117.62,829.704L2117.62,829.71L2117.62,829.716L2117.61,829.722L2117.61,829.728L2117.61,829.734L2117.61,829.739L2117.61,829.744L2117.6,829.749L2117.6,829.754L2117.6,829.759L2117.6,829.764L2117.6,829.768L2117.6,829.772L2117.6,829.777L2117.59,829.78L2117.59,829.785L2117.59,829.789L2117.59,829.792L2117.59,829.795L2117.59,829.799L2117.59,829.802L2117.59,829.805L2117.59,829.808L2117.59,829.811L2117.59,829.814L2117.59,829.817L2117.59,829.819L2117.58,829.822L2117.58,829.824L2117.58,829.826L2117.58,829.829L2117.58,829.83L2117.58,829.833L2117.58,829.834L2117.58,829.836L2117.58,829.838L2117.58,829.84L2117.58,829.842L2117.58,829.843L2117.58,829.845L2117.58,829.846L2117.58,829.847L2117.58,829.849L2117.58,829.85L2117.58,829.851L2117.58,829.853L2117.58,829.854L2117.58,829.855L2117.58,829.856L2117.58,829.858L2117.58,829.859L2117.58,829.86L2117.58,829.861L2117.58,829.862L2117.58,829.863L2117.58,829.865L2117.58,829.866L2117.58,829.867L2117.58,829.89L2117.58,829.913L2117.59,829.936L2117.6,829.957L2117.6,829.98L2117.61,830.001L2117.62,830.024L2117.63,830.05L2117.64,830.071L2117.65,830.093L2117.66,830.118L2117.67,830.143L2117.69,830.171L2117.7,830.2L2117.71,830.22L2117.73,830.244L2117.74,830.273L2117.76,830.296L2117.77,830.319L2117.78,830.343L2117.8,830.367L2117.82,830.393L2117.84,830.418L2117.85,830.445L2117.87,830.472L2117.89,830.5L2117.91,830.528L2117.93,830.557L2117.96,830.587L2117.98,830.617L2118,830.648L2118.03,830.679L2118.05,830.711L2118.08,830.743L2118.11,830.776L2118.14,830.809L2118.17,830.843L2118.2,830.878L2118.23,830.912L2118.26,830.948L2118.3,830.984L2118.33,831.02L2118.37,831.056L2118.4,831.093L2118.44,831.131L2118.48,831.169L2118.52,831.207L2118.56,831.245L2118.6,831.284L2118.64,831.324L2118.69,831.363L2118.73,831.403L2118.78,831.443L2118.82,831.484L2118.87,831.525L2118.92,831.566L2118.97,831.607L2119.02,831.648L2119.07,831.69L2119.12,831.732L2119.18,831.775L2119.23,831.817L2119.29,831.86L2119.35,831.902L2119.4,831.945L2119.46,831.988L2119.52,832.032L2119.58,832.075L2119.64,832.118L2119.7,832.162L2119.77,832.206L2119.83,832.25L2119.9,832.294L2119.96,832.338L2120.03,832.382L2120.1,832.426L2120.17,832.47L2120.24,832.514L2120.31,832.559L2120.38,832.603L2120.45,832.647L2120.53,832.692L2120.6,832.736L2120.68,832.78L2120.76,832.825L2120.83,832.869L2120.91,832.913L2120.99,832.958L2121.07,833.002L2121.15,833.046L2121.23,833.09L2121.32,833.134L2121.4,833.179L2121.48,833.222L2121.57,833.266L2121.66,833.31L2121.74,833.354L2121.83,833.398L2121.92,833.441L2122.01,833.484L2122.1,833.528L2122.19,833.571L2122.28,833.614L2122.38,833.657L2122.47,833.7L2122.57,833.742L2122.66,833.785L2122.76,833.827L2122.86,833.87L2122.95,833.912L2123.05,833.953L2123.15,833.995L2123.25,834.037L2123.35,834.078L2123.45,834.119L2123.56,834.16L2123.66,834.201L2123.76,834.242L2123.87,834.282L2123.97,834.322L2124.08,834.362L2124.19,834.402L2124.3,834.442L2124.41,834.481L2124.51,834.52L2124.62,834.559L2124.74,834.598L2124.85,834.636L2124.96,834.674L2125.07,834.712L2125.18,834.75L2125.3,834.787L2125.41,834.824L2125.53,834.861L2125.64,834.898L2125.76,834.934L2125.88,834.97L2126,835.006L2126.12,835.042L2126.24,835.077L2126.36,835.112L2126.48,835.147L2126.6,835.181L2126.72,835.216L2126.84,835.249L2126.97,835.283L2127.09,835.316L2127.22,835.349L2127.34,835.382L2127.47,835.414L2127.59,835.446L2127.72,835.478L2127.85,835.509L2127.98,835.54L2128.1,835.571L2128.23,835.602L2128.36,835.632L2128.49,835.661L2128.62,835.691L2128.76,835.72L2128.89,835.749L2129.02,835.777L2129.15,835.805L2129.29,835.833L2129.42,835.86L2129.56,835.887L2129.69,835.914L2129.83,835.94L2129.97,835.966L2130.1,835.992L2130.24,836.017L2130.38,836.042L2130.51,836.066L2130.65,836.091L2130.79,836.114L2130.93,836.138L2131.07,836.161L2131.22,836.183L2131.36,836.206L2131.5,836.227L2131.64,836.249L2131.78,836.27L2131.93,836.291L2132.07,836.311L2132.21,836.331L2132.36,836.35L2132.5,836.37L2132.65,836.388L2132.79,836.407L2132.94,836.425L2133.09,836.442L2133.23,836.459L2133.38,836.476L2133.53,836.492L2133.68,836.508L2133.83,836.523L2133.98,836.538L2134.12,836.553L2134.28,836.567L2134.43,836.581L2134.58,836.594L2134.73,836.607L2134.88,836.62L2135.03,836.632L2135.18,836.643L2135.34,836.655L2135.49,836.665L2135.64,836.676L2135.8,836.686L2135.95,836.695L2136.1,836.704L2136.26,836.713L2136.41,836.721L2136.57,836.728L2136.72,836.735L2136.88,836.742L2137.03,836.748L2137.19,836.754L2137.35,836.76L2137.51,836.765L2137.66,836.769L2137.82,836.773L2137.98,836.777L2138.14,836.78L2138.3,836.782L2138.45,836.784L2138.61,836.786L2138.77,836.787L2138.93,836.788L2139.09,836.788L2139.25,836.788L2139.41,836.787L2139.57,836.786L2139.73,836.784L2139.89,836.782L2140.05,836.78L2140.21,836.777L2140.37,836.773L2140.52,836.769L2140.68,836.765L2140.84,836.76L2140.99,836.754L2141.15,836.748L2141.31,836.742L2141.46,836.735L2141.62,836.728L2141.77,836.721L2141.93,836.713L2142.08,836.704L2142.24,836.695L2142.39,836.686L2142.55,836.676L2142.7,836.665L2142.85,836.655L2143,836.643L2143.16,836.632L2143.31,836.62L2143.46,836.607L2143.61,836.594L2143.76,836.581L2143.91,836.567L2144.06,836.553L2144.21,836.538L2144.36,836.523L2144.51,836.508L2144.66,836.492L2144.8,836.476L2144.95,836.459L2145.1,836.442L2145.24,836.425L2145.39,836.407L2145.54,836.388L2145.68,836.37L2145.83,836.35L2145.97,836.331L2146.12,836.311L2146.26,836.291L2146.4,836.27L2146.55,836.249L2146.69,836.227L2146.83,836.206L2146.97,836.183L2147.11,836.161L2147.25,836.138L2147.39,836.114L2147.53,836.091L2147.67,836.066L2147.81,836.042L2147.95,836.017L2148.08,835.992L2148.22,835.966L2148.36,835.94L2148.49,835.914L2148.63,835.887L2148.76,835.86L2148.9,835.833L2149.03,835.805L2149.16,835.777L2149.3,835.749L2149.43,835.72L2149.56,835.691L2149.69,835.661L2149.82,835.632L2149.95,835.602L2150.08,835.571L2150.21,835.54L2150.34,835.509L2150.47,835.478L2150.59,835.446L2150.72,835.414L2150.85,835.382L2150.97,835.349L2151.1,835.316L2151.22,835.283L2151.34,835.249L2151.47,835.216L2151.59,835.181L2151.71,835.147L2151.83,835.112L2151.95,835.077L2152.07,835.042L2152.19,835.006L2152.31,834.971L2152.42,834.934L2152.54,834.898L2152.66,834.861L2152.77,834.824L2152.89,834.787L2153,834.75L2153.12,834.712L2153.23,834.674L2153.34,834.636L2153.45,834.598L2153.56,834.559L2153.67,834.52L2153.78,834.481L2153.89,834.442L2154,834.402L2154.11,834.362L2154.21,834.322L2154.32,834.282L2154.42,834.242L2154.53,834.201L2154.63,834.16L2154.73,834.119L2154.83,834.078L2154.93,834.037L2155.03,833.995L2155.14,833.953L2155.23,833.912L2155.33,833.87L2155.43,833.827L2155.53,833.785L2155.62,833.742L2155.72,833.7L2155.81,833.657L2155.9,833.614L2155.99,833.571L2156.09,833.528L2156.18,833.484L2156.27,833.441L2156.36,833.397L2156.44,833.354L2156.53,833.31L2156.62,833.266L2156.7,833.222L2156.79,833.178L2156.87,833.134L2156.95,833.09L2157.03,833.046L2157.12,833.002L2157.2,832.958L2157.28,832.913L2157.35,832.869L2157.43,832.825L2157.51,832.78L2157.58,832.736L2157.66,832.692L2157.73,832.647L2157.8,832.603L2157.88,832.559L2157.95,832.514L2158.02,832.47L2158.09,832.426L2158.16,832.382L2158.22,832.338L2158.29,832.294L2158.35,832.25L2158.42,832.206L2158.48,832.162L2158.54,832.118L2158.61,832.075L2158.67,832.032L2158.72,831.988L2158.78,831.945L2158.84,831.902L2158.9,831.86L2158.95,831.817L2159.01,831.775L2159.06,831.732L2159.11,831.69L2159.17,831.648L2159.22,831.607L2159.26,831.566L2159.31,831.525L2159.36,831.484L2159.41,831.443L2159.45,831.403L2159.5,831.363L2159.54,831.324L2159.58,831.284L2159.63,831.245L2159.67,831.207L2159.71,831.169L2159.74,831.131L2159.78,831.094L2159.82,831.056L2159.85,831.02L2159.89,830.984L2159.92,830.948L2159.95,830.912L2159.99,830.878L2160.02,830.843L2160.05,830.809L2160.08,830.776L2160.1,830.743L2160.13,830.711L2160.16,830.679L2160.18,830.648L2160.21,830.617L2160.23,830.587L2160.25,830.557L2160.27,830.528L2160.29,830.5L2160.31,830.472L2160.33,830.445L2160.35,830.418L2160.37,830.393L2160.39,830.367L2160.4,830.343L2160.42,830.319L2160.43,830.296L2160.44,830.273L2160.46,830.244L2160.46,830.241L2160.47,830.23L2160.47,830.22L2160.48,830.21L2160.49,830.199L2160.49,830.19L2160.49,830.181L2160.5,830.171L2160.51,830.161L2160.51,830.152L2160.51,830.144L2160.52,830.134L2160.52,830.126L2160.53,830.117L2160.53,830.109L2160.53,830.102L2160.54,830.094L2160.54,830.086L2160.55,830.078L2160.55,830.071L2160.55,830.064L2160.55,830.057L2160.56,830.05L2160.56,830.043L2160.56,830.036L2160.57,830.03L2160.57,830.024L2160.57,830.018L2160.57,830.012L2160.57,830.006L2160.58,830.001L2160.58,829.995L2160.58,829.99L2160.58,829.985L2160.58,829.98L2160.59,829.975L2160.59,829.971L2160.59,829.966L2160.59,829.962L2160.59,829.958L2160.59,829.954L2160.59,829.95L2160.59,829.946L2160.6,829.943L2160.6,829.939L2160.6,829.935L2160.6,829.932L2160.6,829.929L2160.6,829.927L2160.6,829.923L2160.6,829.92L2160.6,829.918L2160.6,829.915L2160.6,829.913L2160.6,829.91L2160.6,829.908L2160.6,829.906L2160.6,829.904L2160.6,829.902L2160.6,829.899L2160.61,829.898L2160.61,829.896L2160.61,829.895L2160.61,829.893L2160.61,829.892L2160.61,829.889L2160.61,829.888L2160.61,829.887L2160.61,829.885L2160.61,829.884L2160.61,829.884L2160.61,829.881L2160.61,829.88L2160.61,829.879L2160.61,829.877L2160.61,829.877L2160.61,829.876L2160.61,829.874L2160.61,829.873L2160.61,829.872L2160.61,829.871L2160.61,829.87L2160.61,829.869L2160.61,829.867L2160.61,829.866L2160.61,829.864L2160.61,829.863L2160.61,829.863L2160.61,829.861L2160.61,829.86L2160.61,829.858L2160.61,829.857L2160.61,829.857L2160.61,829.855L2160.61,829.854L2160.61,829.853L2160.61,829.851L2160.61,829.85L2160.61,829.849L2160.61,829.847L2160.61,829.847L2160.61,829.845L2160.61,829.843L2160.61,829.841L2160.61,829.84L2160.61,829.838L2160.61,829.836L2160.6,829.835L2160.6,829.833L2160.6,829.83L2160.6,829.828L2160.6,829.827L2160.6,829.824L2160.6,829.821L2160.6,829.819L2160.6,829.817L2160.6,829.814L2160.6,829.811L2160.6,829.808L2160.6,829.805L2160.6,829.802L2160.6,829.799L2160.6,829.795L2160.6,829.792L2160.59,829.789L2160.59,829.785L2160.59,829.78L2160.59,829.777L2160.59,829.772L2160.59,829.768L2160.59,829.764L2160.59,829.759L2160.58,829.754L2160.58,829.749L2160.58,829.744L2160.58,829.739L2160.58,829.733L2160.57,829.728L2160.57,829.722L2160.57,829.716L2160.57,829.71L2160.57,829.704L2160.56,829.698L2160.56,829.691L2160.56,829.685L2160.55,829.678L2160.55,829.67L2160.55,829.663L2160.55,829.656L2160.54,829.648L2160.54,829.641L2160.53,829.633L2160.53,829.625L2160.53,829.617L2160.52,829.609L2160.52,829.6L2160.51,829.591L2160.51,829.582L2160.51,829.573L2160.5,829.563L2160.49,829.554L2160.49,829.544L2160.49,829.535L2160.48,829.524L2160.47,829.514L2160.47,829.504L2160.46,829.494L2160.46,829.49L2160.44,829.461L2160.43,829.439L2160.42,829.416L2160.4,829.392L2160.39,829.367L2160.37,829.342L2160.35,829.316L2160.33,829.289L2160.31,829.262L2160.29,829.235L2160.27,829.206L2160.25,829.177L2160.23,829.148L2160.21,829.117L2160.18,829.087L2160.16,829.055L2160.13,829.024L2160.1,828.991L2160.08,828.959L2160.05,828.925L2160.02,828.891L2159.99,828.857L2159.95,828.822L2159.92,828.787L2159.89,828.751L2159.85,828.715L2159.82,828.678L2159.78,828.641L2159.74,828.603L2159.71,828.566L2159.67,828.527L2159.63,828.489L2159.58,828.45L2159.54,828.411L2159.5,828.371L2159.45,828.331L2159.41,828.291L2159.36,828.25L2159.31,828.21L2159.27,828.169L2159.22,828.127L2159.16,828.086L2159.11,828.044L2159.06,828.002L2159.01,827.96L2158.95,827.917L2158.9,827.875L2158.84,827.832L2158.78,827.789L2158.72,827.746L2158.67,827.703L2158.61,827.659L2158.54,827.616L2158.48,827.572L2158.42,827.528L2158.35,827.485L2158.29,827.441L2158.22,827.397L2158.16,827.353L2158.09,827.308L2158.02,827.264L2157.95,827.22L2157.88,827.176L2157.8,827.131L2157.73,827.087L2157.66,827.043L2157.58,826.998L2157.51,826.954L2157.43,826.91L2157.35,826.865L2157.28,826.821L2157.2,826.777L2157.12,826.732L2157.03,826.688L2156.95,826.644L2156.87,826.6L2156.79,826.556L2156.7,826.512L2156.62,826.468L2156.53,826.424L2156.44,826.38L2156.36,826.337L2156.27,826.293L2156.18,826.25L2156.09,826.207L2155.99,826.163L2155.9,826.12L2155.81,826.077L2155.72,826.035L2155.62,825.992L2155.53,825.949L2155.43,825.907L2155.33,825.865L2155.23,825.823L2155.14,825.781L2155.03,825.739L2154.93,825.698L2154.83,825.656L2154.73,825.615L2154.63,825.574L2154.53,825.533L2154.42,825.493L2154.32,825.452L2154.21,825.412L2154.11,825.372L2154,825.332L2153.89,825.293L2153.78,825.253L2153.67,825.214L2153.56,825.175L2153.45,825.137L2153.34,825.098L2153.23,825.06L2153.12,825.022L2153,824.985L2152.89,824.947L2152.77,824.91L2152.66,824.873L2152.54,824.836L2152.42,824.8L2152.31,824.764L2152.19,824.728L2152.07,824.692L2151.95,824.657L2151.83,824.622L2151.71,824.587L2151.59,824.553L2151.47,824.519L2151.34,824.485L2151.22,824.451L2151.1,824.418L2150.97,824.385L2150.85,824.353L2150.72,824.32L2150.59,824.288L2150.47,824.256L2150.34,824.225L2150.21,824.194L2150.08,824.163L2149.95,824.133L2149.82,824.103L2149.69,824.073L2149.56,824.044L2149.43,824.014L2149.3,823.986L2149.16,823.957L2149.03,823.929L2148.9,823.901L2148.76,823.874L2148.63,823.847L2148.49,823.82L2148.36,823.794L2148.22,823.768L2148.08,823.743L2147.95,823.717L2147.81,823.692L2147.67,823.668L2147.53,823.644L2147.39,823.62L2147.25,823.597L2147.11,823.574L2146.97,823.551L2146.83,823.529L2146.69,823.507L2146.55,823.485L2146.4,823.464L2146.26,823.444L2146.12,823.423L2145.97,823.403L2145.83,823.384L2145.68,823.365L2145.54,823.346L2145.39,823.328L2145.24,823.31L2145.1,823.292L2144.95,823.275L2144.8,823.258L2144.66,823.242L2144.51,823.226L2144.36,823.211L2144.21,823.196L2144.06,823.181L2143.91,823.167L2143.76,823.153L2143.61,823.14L2143.46,823.127L2143.31,823.115L2143.16,823.103L2143,823.091L2142.85,823.08L2142.7,823.069L2142.55,823.059L2142.39,823.049L2142.24,823.039L2142.08,823.03L2141.93,823.022L2141.77,823.014L2141.62,823.006L2141.46,822.999L2141.31,822.992L2141.15,822.986L2140.99,822.98L2140.84,822.975L2140.68,822.97L2140.52,822.965L2140.37,822.961L2140.21,822.958L2140.05,822.955L2139.89,822.952L2139.73,822.95L2139.57,822.948L2139.41,822.947L2139.25,822.946L2139.09,822.946L2138.93,822.946Z" style="fill:white;"/>
        </g>
    </g>
</svg>
