<?xml version="1.0" encoding="UTF-8" standalone="no"?>
<!DOCTYPE svg PUBLIC "-//W3C//DTD SVG 1.1//EN" "http://www.w3.org/Graphics/SVG/1.1/DTD/svg11.dtd">
<svg width="100%" height="100%" viewBox="0 0 512 512" version="1.1" xmlns="http://www.w3.org/2000/svg" xmlns:xlink="http://www.w3.org/1999/xlink" xml:space="preserve" xmlns:serif="http://www.serif.com/" style="fill-rule:evenodd;clip-rule:evenodd;stroke-linejoin:round;stroke-miterlimit:2;">
    <g id="WinWarIcon" transform="matrix(2.99441,0,0,2.84165,-12558.6,-5975.79)">
        <g transform="matrix(0.552869,0.582589,-0.524664,0.552869,2856.61,-1510.18)">
            <g transform="matrix(0.957992,5.66186e-17,-2.96511e-15,0.836803,3581.66,-2054.5)">
                <path d="M929.396,4897.35L912.533,4897.35L912.533,4934.7C912.533,4935.59 913.132,4936.31 913.87,4936.31L928.058,4936.31C928.796,4936.31 929.396,4935.59 929.396,4934.7L929.396,4897.35Z" style="fill:white;"/>
            </g>
            <g transform="matrix(0.92923,-0.979183,0.92923,0.979183,-7766.85,7720.72)">
                <path d="M9489.77,3659.19L9503.09,3672.51L9495.99,3679.6L9482.67,3666.28L9489.77,3659.19ZM9509.11,3639.84L9532.59,3616.36C9532.9,3616.05 9533.29,3615.84 9533.72,3615.76C9536.29,3615.26 9545.7,3613.42 9548.92,3612.79C9549.17,3612.74 9549.41,3612.82 9549.59,3612.99C9549.76,3613.17 9549.83,3613.42 9549.78,3613.66C9549.08,3616.84 9547.07,3626.09 9546.52,3628.58C9546.44,3628.99 9546.23,3629.37 9545.93,3629.66L9522.43,3653.17L9509.11,3639.84Z" style="fill:white;"/>
            </g>
            <g transform="matrix(0.957992,0,0,1.00949,3582.13,-2911.1)">
                <path d="M944.186,4890.95C944.186,4889.04 942.628,4887.48 940.709,4887.48L900.231,4887.48C898.312,4887.48 896.754,4889.04 896.754,4890.95L896.754,4897.91C896.754,4899.83 898.312,4901.39 900.231,4901.39L940.709,4901.39C942.628,4901.39 944.186,4899.83 944.186,4897.91L944.186,4890.95Z" style="fill:white;"/>
            </g>
        </g>
        <g transform="matrix(-0.552869,0.582589,0.524664,0.552869,5702.41,-1510.05)">
            <g transform="matrix(0.957992,5.66186e-17,-2.96511e-15,0.836803,3581.66,-2054.5)">
                <path d="M929.396,4897.35L912.533,4897.35L912.533,4934.7C912.533,4935.59 913.132,4936.31 913.87,4936.31L928.058,4936.31C928.796,4936.31 929.396,4935.59 929.396,4934.7L929.396,4897.35Z" style="fill:white;"/>
            </g>
            <g transform="matrix(0.957992,0,0,1.00949,3581.51,-2911.1)">
                <path d="M934.041,4793.21C934.041,4792.64 933.876,4792.07 933.565,4791.59C931.672,4788.64 924.657,4777.72 922.244,4773.96C922.062,4773.68 921.75,4773.5 921.413,4773.5C921.077,4773.5 920.761,4773.66 920.573,4773.94C918.06,4777.68 910.713,4788.59 908.707,4791.57C908.374,4792.07 908.196,4792.65 908.196,4793.24C908.196,4803.15 908.196,4890.09 908.196,4890.09L934.041,4890.09L934.041,4793.21Z" style="fill:white;"/>
            </g>
            <g transform="matrix(0.957992,0,0,1.00949,3582.13,-2911.1)">
                <path d="M944.186,4890.95C944.186,4889.04 942.628,4887.48 940.709,4887.48L900.231,4887.48C898.312,4887.48 896.754,4889.04 896.754,4890.95L896.754,4897.91C896.754,4899.83 898.312,4901.39 900.231,4901.39L940.709,4901.39C942.628,4901.39 944.186,4899.83 944.186,4897.91L944.186,4890.95Z" style="fill:white;"/>
            </g>
        </g>
    </g>
</svg>
