<?xml version="1.0" encoding="UTF-8" standalone="no"?>
<!DOCTYPE svg PUBLIC "-//W3C//DTD SVG 1.1//EN" "http://www.w3.org/Graphics/SVG/1.1/DTD/svg11.dtd">
<svg width="100%" height="100%" viewBox="0 0 512 512" version="1.1" xmlns="http://www.w3.org/2000/svg" xmlns:xlink="http://www.w3.org/1999/xlink" xml:space="preserve" xmlns:serif="http://www.serif.com/" style="fill-rule:evenodd;clip-rule:evenodd;stroke-linejoin:round;stroke-miterlimit:2;">
    <g id="WitchHatIcon" transform="matrix(1.86273,0,0,1.86273,-3506.29,-1513.21)">
        <g transform="matrix(2.27248,0,0,2.27248,-2426,-1317.99)">
            <path d="M1963.61,1010.31C1966.24,1010.31 1968.38,1012.45 1968.38,1015.09L1968.38,1024.64C1968.38,1027.28 1966.24,1029.42 1963.61,1029.42L1949.42,1029.42C1946.79,1029.42 1944.64,1027.28 1944.64,1024.64L1944.64,1015.09C1944.64,1012.45 1946.79,1010.31 1949.42,1010.31L1963.61,1010.31ZM1959.45,1015.9L1953.58,1015.9C1952.48,1015.9 1951.59,1016.79 1951.59,1017.88L1951.59,1021.85C1951.59,1022.94 1952.48,1023.83 1953.58,1023.83L1959.45,1023.83C1960.55,1023.83 1961.43,1022.94 1961.43,1021.85L1961.43,1017.88C1961.43,1016.79 1960.55,1015.9 1959.45,1015.9Z" style="fill:white;"/>
        </g>
        <g transform="matrix(2.27248,0,0,2.27248,1883.43,813.449)">
            <path d="M75.976,88.538C82.294,87.454 87.945,85.643 92.076,83.05L92.065,83.027C107.092,85.88 116.964,90.682 116.964,96.119C116.964,104.862 91.439,111.961 60,111.961C28.561,111.961 3.036,104.862 3.036,96.119C3.036,90.682 12.906,85.881 27.931,83.028L27.924,83.05C32.024,85.495 37.813,87.309 44.339,88.432C44.409,91.887 47.236,95.671 50.708,95.671L69.61,95.671C73.047,95.671 75.851,91.944 75.976,88.538ZM50.708,68.19C47.969,68.19 45.632,70.921 44.732,73.348C39.971,72.389 35.747,70.921 32.661,68.947L41.85,33.574C42.047,32.817 42.531,32.167 43.2,31.762C48.629,28.476 73.698,13.299 81.671,8.473C83.038,7.645 84.815,8.035 85.71,9.36C90.024,15.744 101.875,33.282 106.262,39.775C106.503,40.131 106.489,40.6 106.229,40.941C105.968,41.283 105.519,41.42 105.113,41.282L87.866,35.439L76.783,30.363L82.188,35.655L76.265,44.649L65.764,43.892L75.905,47.463L85.078,68.858C82.609,70.583 79.253,71.925 75.393,72.886C74.381,70.704 72.171,68.19 69.61,68.19L50.708,68.19Z" style="fill:white;"/>
        </g>
    </g>
</svg>
