<?xml version="1.0" encoding="UTF-8" standalone="no"?>
<!DOCTYPE svg PUBLIC "-//W3C//DTD SVG 1.1//EN" "http://www.w3.org/Graphics/SVG/1.1/DTD/svg11.dtd">
<svg width="100%" height="100%" viewBox="0 0 512 512" version="1.1" xmlns="http://www.w3.org/2000/svg" xmlns:xlink="http://www.w3.org/1999/xlink" xml:space="preserve" xmlns:serif="http://www.serif.com/" style="fill-rule:evenodd;clip-rule:evenodd;stroke-linejoin:round;stroke-miterlimit:2;">
    <g id="XPIcon" transform="matrix(7.49751,0,0,7.49751,-477.536,-28847.4)">
        <path d="M85.678,3851.53C85.908,3850.78 86.594,3850.28 87.371,3850.28C90.804,3850.28 100.14,3850.28 104.836,3850.28C105.441,3850.28 106.004,3850.59 106.329,3851.1C106.655,3851.61 106.697,3852.25 106.443,3852.8C104.031,3857.99 98.728,3869.41 98.728,3869.41C98.728,3869.41 111.956,3866.79 118.553,3865.49C119.223,3865.36 119.91,3865.62 120.317,3866.17C120.725,3866.72 120.781,3867.45 120.461,3868.06C115.828,3876.8 103.142,3900.75 97.035,3912.28C96.653,3913 95.829,3913.36 95.038,3913.16C94.248,3912.97 93.695,3912.25 93.699,3911.44C93.75,3901.29 93.837,3884.03 93.837,3884.03C93.837,3884.03 82.71,3886.71 77.193,3888.04C76.574,3888.18 75.923,3887.99 75.487,3887.53C75.052,3887.06 74.899,3886.4 75.087,3885.79C77.515,3877.94 84.025,3856.87 85.678,3851.53Z" style="fill:white;"/>
    </g>
</svg>
