<?xml version="1.0" encoding="UTF-8" standalone="no"?>
<!DOCTYPE svg PUBLIC "-//W3C//DTD SVG 1.1//EN" "http://www.w3.org/Graphics/SVG/1.1/DTD/svg11.dtd">
<svg width="100%" height="100%" viewBox="0 0 256 256" version="1.1" xmlns="http://www.w3.org/2000/svg" xmlns:xlink="http://www.w3.org/1999/xlink" xml:space="preserve" xmlns:serif="http://www.serif.com/" style="fill-rule:evenodd;clip-rule:evenodd;stroke-linejoin:round;stroke-miterlimit:2;">
    <g id="Crown---Silver" serif:id="Crown - Silver" transform="matrix(5.43345,0,0,5.15627,-23683.6,-4873.59)">
        <g id="Bottom" transform="matrix(0.958421,0,0,1.00994,3583.58,-3019.98)">
            <path d="M847.696,3967.25C847.696,3966.51 847.095,3965.91 846.355,3965.91L820.593,3965.91C819.853,3965.91 819.252,3966.51 819.252,3967.25L819.252,3969.93C819.252,3970.67 819.853,3971.27 820.593,3971.27L846.355,3971.27C847.095,3971.27 847.696,3970.67 847.696,3969.93L847.696,3967.25Z" style="fill:rgb(183,198,218);"/>
            <clipPath id="_clip1">
                <path d="M847.696,3967.25C847.696,3966.51 847.095,3965.91 846.355,3965.91L820.593,3965.91C819.853,3965.91 819.252,3966.51 819.252,3967.25L819.252,3969.93C819.252,3970.67 819.853,3971.27 820.593,3971.27L846.355,3971.27C847.095,3971.27 847.696,3970.67 847.696,3969.93L847.696,3967.25Z"/>
            </clipPath>
            <g clip-path="url(#_clip1)">
                <g transform="matrix(0.507267,0,0,0.16937,-634.485,3339.37)">
                    <rect x="2893.91" y="3690.53" width="30.667" height="48.92" style="fill:rgb(153,173,196);"/>
                </g>
            </g>
        </g>
        <g id="Top" transform="matrix(0.638047,0,0,0.672347,3792.1,447.807)">
            <path d="M922.589,767.109C921.037,766.204 919.994,764.534 919.994,762.626C919.994,759.756 922.352,757.426 925.257,757.426C928.161,757.426 930.519,759.756 930.519,762.626C930.519,764.625 929.376,766.362 927.7,767.232L937.508,782.625L950.718,776.876C950.297,776.129 950.057,775.269 950.057,774.353C950.057,771.483 952.415,769.153 955.32,769.153C958.224,769.153 960.582,771.483 960.582,774.353C960.582,777.223 958.224,779.554 955.32,779.554C954.531,779.554 953.782,779.382 953.11,779.074C953.11,779.074 947.212,791.453 945.301,795.466C944.94,796.223 944.176,796.706 943.338,796.706C937.229,796.706 912.548,796.706 906.352,796.706C905.491,796.706 904.711,796.197 904.363,795.41C902.567,791.344 897.158,779.104 897.158,779.104C896.503,779.393 895.778,779.554 895.015,779.554C892.111,779.554 889.753,777.223 889.753,774.353C889.753,771.483 892.111,769.153 895.015,769.153C897.92,769.153 900.278,771.483 900.278,774.353C900.278,775.155 900.094,775.915 899.765,776.594L913.393,782.574L922.589,767.109Z" style="fill:rgb(183,198,218);"/>
            <clipPath id="_clip2">
                <path d="M922.589,767.109C921.037,766.204 919.994,764.534 919.994,762.626C919.994,759.756 922.352,757.426 925.257,757.426C928.161,757.426 930.519,759.756 930.519,762.626C930.519,764.625 929.376,766.362 927.7,767.232L937.508,782.625L950.718,776.876C950.297,776.129 950.057,775.269 950.057,774.353C950.057,771.483 952.415,769.153 955.32,769.153C958.224,769.153 960.582,771.483 960.582,774.353C960.582,777.223 958.224,779.554 955.32,779.554C954.531,779.554 953.782,779.382 953.11,779.074C953.11,779.074 947.212,791.453 945.301,795.466C944.94,796.223 944.176,796.706 943.338,796.706C937.229,796.706 912.548,796.706 906.352,796.706C905.491,796.706 904.711,796.197 904.363,795.41C902.567,791.344 897.158,779.104 897.158,779.104C896.503,779.393 895.778,779.554 895.015,779.554C892.111,779.554 889.753,777.223 889.753,774.353C889.753,771.483 892.111,769.153 895.015,769.153C897.92,769.153 900.278,771.483 900.278,774.353C900.278,775.155 900.094,775.915 899.765,776.594L913.393,782.574L922.589,767.109Z"/>
            </clipPath>
            <g clip-path="url(#_clip2)">
                <g transform="matrix(1.20317,0,0,0.85335,-2556.66,-2393.55)">
                    <rect x="2893.91" y="3690.53" width="30.667" height="48.92" style="fill:rgb(153,173,196);"/>
                </g>
            </g>
        </g>
        <g transform="matrix(0.184045,0,0,0.193939,4358.84,949.093)">
            <g transform="matrix(1,0,0,1,3.09594,0)">
                <g transform="matrix(0.622284,0,0,0.622284,20.0347,43.2642)">
                    <path d="M50.737,17.443L56.835,33.925L73.317,40.023L56.835,46.122L50.737,62.603L44.638,46.122L28.157,40.023L44.638,33.925L50.737,17.443Z" style="fill:rgb(183,198,218);"/>
                </g>
                <g transform="matrix(0.622284,0,0,0.622284,166.628,43.2642)">
                    <path d="M50.737,17.443L56.835,33.925L73.317,40.023L56.835,46.122L50.737,62.603L44.638,46.122L28.157,40.023L44.638,33.925L50.737,17.443Z" style="fill:rgb(183,198,218);"/>
                </g>
            </g>
            <g transform="matrix(0.622284,0,0,0.622284,96.4274,-10.163)">
                <path d="M50.737,17.443L56.835,33.925L73.317,40.023L56.835,46.122L50.737,62.603L44.638,46.122L28.157,40.023L44.638,33.925L50.737,17.443Z" style="fill:rgb(183,198,218);"/>
            </g>
        </g>
    </g>
</svg>
