<?xml version="1.0" encoding="UTF-8" standalone="no"?>
<!DOCTYPE svg PUBLIC "-//W3C//DTD SVG 1.1//EN" "http://www.w3.org/Graphics/SVG/1.1/DTD/svg11.dtd">
<svg width="100%" height="100%" viewBox="0 0 256 256" version="1.1" xmlns="http://www.w3.org/2000/svg" xmlns:xlink="http://www.w3.org/1999/xlink" xml:space="preserve" xmlns:serif="http://www.serif.com/" style="fill-rule:evenodd;clip-rule:evenodd;stroke-linejoin:round;stroke-miterlimit:2;">
    <g id="Emoji---Smile" serif:id="Emoji - Smile" transform="matrix(2.55983,0,0,2.55983,-399.938,-271.726)">
        <circle cx="206.24" cy="156.153" r="45.707" style="fill:rgb(255,211,72);"/>
        <g transform="matrix(1,0,0,1,-3.64414,-6.93716)">
            <circle cx="193.154" cy="153.537" r="6.843" style="fill:rgb(106,57,9);"/>
            <g transform="matrix(1,0,0,1,33.4588,0)">
                <circle cx="193.154" cy="153.537" r="6.843" style="fill:rgb(106,57,9);"/>
            </g>
        </g>
        <g transform="matrix(1,0,0,1,0.854765,0)">
            <path d="M205.385,163.602C213.309,163.602 221.798,159.524 223.726,162.543C226.93,167.559 218.877,175.739 205.385,175.739C191.892,175.739 183.84,167.559 187.043,162.543C188.972,159.524 197.461,163.602 205.385,163.602Z" style="fill:rgb(106,57,9);"/>
        </g>
        <g transform="matrix(0.390652,0,0,0.390652,156.036,106.15)">
            <ellipse cx="48.642" cy="142.507" rx="20.505" ry="18.232" style="fill:rgb(250,162,193);"/>
            <g transform="matrix(1,0,0,1,159.741,0)">
                <ellipse cx="48.642" cy="142.507" rx="20.505" ry="18.232" style="fill:rgb(250,162,193);"/>
            </g>
        </g>
    </g>
</svg>
